<?xml version="1.0" encoding="utf-8"?>
<!-- Generator: Adobe Illustrator 24.3.0, SVG Export Plug-In . SVG Version: 6.00 Build 0)  -->
<svg version="1.1" id="圖層_1" xmlns="http://www.w3.org/2000/svg" xmlns:xlink="http://www.w3.org/1999/xlink" x="0px" y="0px"
	 viewBox="0 0 117.3 150.9" style="enable-background:new 0 0 117.3 150.9;" xml:space="preserve">
<style type="text/css">
	.st0{fill:#EB9C22;}
	.st1{fill:#F6ECE0;}
</style>
<g id="Group_5584" transform="translate(16.249)">
	<path id="Path_6303" class="st0" d="M16.3,68.8c-1.4-8.2-2.8-16.5-4.2-24.7c-0.1-0.9-0.6-1.7-1.5-2.1C6.5,39.5,4,35.6,2.3,31.1
		c-2.5-6.7-3.2-13.5-0.9-20.4C2.1,8.9,3,7.1,4.2,5.5c3.3-4.2,8.1-4.8,12.5-1.7c3.5,2.6,6,6.2,7.4,10.3c2.5,7,3.3,14,0.6,21.1
		c-0.7,1.8-1.7,3.4-2.9,4.8c-0.6,0.7-0.9,1.7-0.7,2.6c2.8,16.2,5.5,32.4,8.2,48.6c0.2,0.8,0.2,1.7,0.1,2.6c-0.2,2-1.8,3.6-3.9,3.8
		c-2.1,0.2-4.1-1-4.9-3c-0.2-0.6-0.3-1.3-0.4-1.9C19,84.7,17.7,76.7,16.3,68.8L16.3,68.8z"/>
	<path id="Path_6304" class="st0" d="M61.7,38.7c-1.1-0.2-2-0.4-2.9-0.6c-2.6-0.6-3.5-1.9-2.9-4.6c2.2-10,4.3-20,6.5-30.1
		c0.1-0.4,0.2-0.9,0.3-1.3c0.4-1.4,1.3-2.1,2.6-1.8c1.3,0.3,1.8,1.2,1.5,2.8c-1.2,5.8-2.5,11.7-3.8,17.5c-0.4,1.6,0.2,2.6,1.6,3
		c1.8,0.5,2.8-0.1,3.2-2.1c1.2-5.7,2.5-11.5,3.7-17.2c0.4-1.7,1.4-2.4,2.9-1.9C75.8,2.9,76,4,75.7,5.3c-1.3,5.7-2.5,11.3-3.7,17
		c-0.4,1.8,0.1,2.8,1.5,3.3c1.7,0.5,2.7,0,3.1-1.8c1.3-5.7,2.5-11.5,3.7-17.2C80.5,6.1,80.6,5.3,81,5c0.6-0.5,1.4-0.8,2.3-0.7
		c0.6,0.1,1.2,1,1.5,1.7c0.1,0.6,0.1,1.3-0.1,1.9c-2.1,10-4.3,19.9-6.4,29.9c-0.8,3.5-1.7,4.1-5.2,3.4l-2.1-0.4l-0.5,2.2
		C66.8,59.4,63.2,76,59.6,92.5c-0.2,1-0.5,1.9-1,2.7c-1.1,1.7-3.3,2.5-5.3,1.8c-2.2-0.7-3.5-3-3.1-5.3c1-5,2.2-10.1,3.2-15.1
		l7.8-36.1C61.4,40,61.6,39.5,61.7,38.7z"/>
</g>
<g id="Group_5588" transform="translate(0 47)">
	<g id="Group_5585" transform="translate(0 0)">
		<path id="Path_6305" class="st1" d="M44.3,100.5c-3.4,0-6.8-1.9-10.1-5.8C32.8,93,31.3,92,30.1,92c-1.5,0-2.8,1.4-3.7,2.5
			c-2.9,3.8-6.3,5.8-10.2,5.8c-1.4,0-2.7-0.2-4-0.7c-5.6-1.8-8.6-6.3-8.6-12.6c0-3.6,0-7.2,0-10.7c0-1.5,0-3.1,0-4.6
			C3.1,57.4,4.2,38.9,17.4,23.2C27.6,11,42.7,3.8,58.7,3.8c20.9,0,39.6,12,48.7,31.2c4.2,8.9,6.2,18.8,6.4,32
			c0.1,7.5,0,14.1-0.2,20.2c-0.4,8.4-4.9,11.4-8.7,12.5c-1.2,0.3-2.5,0.5-3.7,0.5c-3.9,0-7.4-1.9-10.4-5.6c-1-1.3-2.5-2.8-3.8-2.8
			c-1.1,0-2.7,1.1-4.5,3.1c-3.1,3.6-6.3,5.4-9.7,5.4c-3.5,0-6.7-1.8-9.8-5.5c-1.1-1.3-2.7-2.8-4.3-2.8c-1.5,0-3.1,1.4-4.1,2.6
			C51,98.6,47.8,100.5,44.3,100.5z"/>
		<path id="Path_6306" class="st0" d="M58.7,7.2c19.6,0,37.4,11.4,45.6,29.2c4.6,9.7,5.9,20,6.1,30.6c0.1,6.7,0.1,13.4-0.2,20
			c-0.2,4.2-1.5,8-6.2,9.3c-0.9,0.3-1.9,0.4-2.8,0.4c-3,0-5.5-1.6-7.7-4.3s-4.3-4-6.5-4c-2.3,0-4.6,1.5-7.1,4.3
			c-2.4,2.8-4.8,4.2-7.1,4.2c-2.4,0-4.8-1.4-7.2-4.3c-2.3-2.7-4.6-4-7-4c-2.3,0-4.5,1.2-6.7,3.7c-2.7,3.1-5.2,4.6-7.6,4.6
			s-4.9-1.5-7.5-4.6c-2.2-2.5-4.5-3.8-6.8-3.8s-4.5,1.3-6.5,3.9c-2.1,2.8-4.5,4.4-7.5,4.4c-1,0-2-0.2-2.9-0.5
			C8.9,95,7,91.7,7.1,87.2c0.1-5.2,0-10.3,0-15.5C6.5,54.9,8.7,39,20,25.5C29.6,13.9,43.7,7.3,58.7,7.2 M35.6,44.2
			c2.8,0,3.9-2.5,3.9-5.2c0-2.6-0.5-5.5-3.7-5.5h0c-3,0-2.9,3-3.2,5.5c0.8,1.7-0.3,5,2.9,5.2C35.4,44.2,35.5,44.2,35.6,44.2
			 M81.2,44.1c3.2,0,3.1-3,3.2-5.7c-0.6-1.7,1.1-4.6-2.8-4.8c-0.1,0-0.2,0-0.4,0c-3.4,0-3.3,2.7-3.5,5C77.7,41,78,44,81.2,44.1
			L81.2,44.1 M42.6,68.6c-2.2,0-4.3-1.5-6.5-3.7c-0.4-0.5-1-0.8-1.6-0.9c-0.3,0-0.6,0.1-0.9,0.3c0.7,3.8,4.8,9.5,7.8,10.3
			c0.4,0.1,0.7,0.2,1.1,0.2c2.5,0,3.7-2.6,5.3-4c0.7-0.8,1.7-1.3,2.7-1.4c1.3,0,2.3,1.1,3.3,2.3c1.5,1.8,3.1,2.9,4.8,2.9
			c1.4,0,2.7-0.8,4.1-2.5c1.3-1.7,2.6-2.5,3.8-2.5c1.5,0,2.9,1.1,4.4,2.7c0.9,1,2,2.7,3.3,2.7c0.5,0,0.9-0.2,1.3-0.5
			c3.4-2.6,8.1-4.5,8.1-9.9c-0.4-0.3-0.8-0.4-1.3-0.4c-1.1,0-1.8,0.9-2.4,1.5c-2,1.8-3.8,2.9-5.6,2.9c-1.7,0-3.3-0.9-5-3.2
			c-0.6-0.9-1.6-1.5-2.8-1.6c-1.2,0.1-2.3,0.7-3,1.7c-1.8,2.2-3.5,3.4-5.3,3.4c-1.7,0-3.4-1.1-5.1-3.4c-0.6-1-1.7-1.7-2.8-1.8
			c-1,0.1-1.8,0.6-2.4,1.4C46.3,67.6,44.4,68.6,42.6,68.6 M58.7,0.3L58.7,0.3c-8.1,0-16.2,1.7-23.6,5.1C27.2,9,20.3,14.4,14.8,21
			C0.8,37.6-0.4,56.8,0.1,71.8c0,1.5,0,3.1,0,4.6c0,3.5,0,7.1,0,10.7C0,94.9,4,100.7,11.1,103c1.6,0.5,3.3,0.8,5,0.8
			c3.5,0,8.5-1.2,13-7.1c0.3-0.4,0.6-0.8,1-1.1c0.5,0.4,1,0.8,1.4,1.3c4.1,4.7,8.2,7,12.7,7c4.5,0,8.7-2.3,12.8-7
			c0.4-0.5,0.9-1,1.5-1.3c0.6,0.4,1.2,0.9,1.7,1.5c3.8,4.5,8,6.8,12.5,6.8c4.4,0,8.5-2.2,12.3-6.6c0.5-0.6,1.1-1.2,1.8-1.7
			c0.4,0.4,0.8,0.8,1.2,1.3c3.7,4.5,8.1,6.8,13.1,6.8c1.6,0,3.2-0.2,4.7-0.7c9.3-2.6,11-10.9,11.2-15.7c0.3-6.2,0.3-12.9,0.2-20.5
			c-0.2-13.7-2.3-24.1-6.8-33.5C100.8,13,80.9,0.3,58.7,0.3L58.7,0.3z"/>
	</g>
	<g id="Group_5586" transform="translate(75.681 31.176)">
		<path id="Path_6307" class="st0" d="M5.4,14c-1.1,0-2.2-0.4-3-1.2c-1-1.1-1.5-2.9-1.3-5.5l0-0.4c0.1-2.1,0.3-5.5,4.5-5.5
			c0.1,0,0.3,0,0.4,0c3.7,0.2,3.6,2.8,3.6,4.2c0,0.4,0,0.9,0.1,1.3c0,0.1,0.1,0.3,0.1,0.4l0,0.3C9.7,10.1,9.6,14,5.5,14L5.4,14z"/>
		<path id="Path_6308" class="st0" d="M5.6,2.4c0.1,0,0.2,0,0.4,0c3.8,0.2,2.2,3.2,2.8,4.8c-0.1,2.7,0,5.7-3.2,5.7H5.4
			C2.3,12.9,2,9.8,2.2,7.3C2.3,5.1,2.2,2.4,5.6,2.4 M5.6,0.3c-5.2,0-5.4,4.6-5.5,6.5l0,0.4c-0.2,2.9,0.4,4.9,1.6,6.2
			c1,1,2.3,1.6,3.7,1.6h0.1c5.1,0,5.2-5,5.3-7.4l0-0.3c0-0.3,0-0.5-0.1-0.8c0-0.3,0-0.6,0-0.9c0-1.4,0.2-5-4.6-5.3
			C5.9,0.3,5.8,0.3,5.6,0.3L5.6,0.3z"/>
	</g>
	<g id="Group_5587" transform="translate(30.388 31.146)">
		<path id="Path_6309" class="st0" d="M5.2,14.1c-0.1,0-0.2,0-0.3,0C1.9,14,1.6,11.4,1.5,9.9c0-0.5-0.1-1-0.3-1.5
			C1.1,8.1,1.1,7.9,1.1,7.7C1.2,7.4,1.2,7,1.2,6.7c0.3-2.2,0.6-5.3,4.1-5.3c3.1,0,4.7,2.2,4.7,6.5c0.1,1.8-0.5,3.6-1.7,5
			C7.5,13.7,6.4,14.1,5.2,14.1L5.2,14.1z"/>
		<path id="Path_6310" class="st0" d="M5.4,2.4L5.4,2.4c3.2,0,3.7,2.9,3.7,5.5c0,2.7-1.1,5.2-3.9,5.2c-0.1,0-0.1,0-0.2,0
			c-3.1-0.1-2.1-3.5-2.9-5.2C2.5,5.3,2.3,2.4,5.4,2.4 M5.4,0.3c-4.4,0-4.9,4.1-5.2,6.2c0,0.3-0.1,0.7-0.1,1C0,8,0.1,8.4,0.2,8.8
			C0.4,9.2,0.4,9.6,0.4,10c0.1,1.5,0.5,5,4.4,5.2c0.1,0,0.2,0,0.3,0c1.5,0,2.9-0.5,3.9-1.6c1.4-1.6,2.1-3.6,2-5.7
			C11.1,1.6,8,0.3,5.4,0.3L5.4,0.3z"/>
	</g>
</g>
</svg>
