<svg id="圖層_1" data-name="圖層 1" xmlns="http://www.w3.org/2000/svg" xmlns:xlink="http://www.w3.org/1999/xlink" viewBox="0 0 419.89 239.89"><defs><style>.cls-1,.cls-3,.cls-5{isolation:isolate;}.cls-2{fill:#ddd;}.cls-3{fill:url(#未命名漸層_22);}.cls-4{fill:#5c4d37;}.cls-5{fill:#b8b8b8;}.cls-6{fill:#fdfdfe;}.cls-7{fill:#475561;}.cls-8{fill:#959595;}</style><radialGradient id="未命名漸層_22" cx="443.55" cy="554.35" r="30.44" gradientUnits="userSpaceOnUse"><stop offset="0" stop-color="#efd5ae"/><stop offset="0.26" stop-color="#e6cda5"/><stop offset="0.66" stop-color="#cfb78e"/><stop offset="1" stop-color="#b7a076"/></radialGradient></defs><g id="Group_5623" data-name="Group 5623" class="cls-1"><path class="cls-2" d="M602.5,756.94h-193c-12.17,0-16.44-4.3-16.44-16.57q0-103.5,0-207c0-11.92,4.36-16.32,16.19-16.32h387.5c11.83,0,16.19,4.4,16.19,16.32q0,103.74,0,207.49c0,11.58-4.45,16.07-15.94,16.07Z" transform="translate(-393.06 -517.06)"/></g><path class="cls-3" d="M462.43,547H423.29c-4.74,0-8.58,4.21-8.58,9.4v27.2c0,5.19,3.84,9.4,8.58,9.4h39.14c4.73,0,8.57-4.21,8.57-9.4V556.4C471,551.21,467.16,547,462.43,547Z" transform="translate(-393.06 -517.06)"/><g class="cls-1"><path class="cls-4" d="M456.13,593c-2.82-.15-4.52-2.42-3.33-5.27a18.86,18.86,0,0,0,1.5-8.43c-.05-1.13.65-1.23,1.44-1.23h7c2.22,0,4.44,0,6.65,0,.85,0,1.39.15,1.63.72v-3.08c-.22.55-.7.73-1.47.71-2.32-.06-4.65,0-7,0s-4.54,0-6.81,0c-1.07,0-1.48-.42-1.47-1.6.05-3.09,0-6.19,0-9.29,0-1.34.48-2,1.76-2,4.54,0,9.09,0,13.63,0,.73,0,1.14.22,1.33.72v-4.07c-.36,1.68-1.53,1.68-5,1.68-3.27,0-6.54,0-9.81,0-2.56,0-3.43.94-3.45,3.69s0,5.47,0,8.21c0,1.94,0,3.89,0,5.83.06,2.46-.05,4.81-1.32,7a5.43,5.43,0,0,0-.12,4.92c.46,1.09.7,1.53,1,1.53Z" transform="translate(-393.06 -517.06)"/><path class="cls-4" d="M429.68,593c3-.16,4.61-2.67,3.23-5.6a15.39,15.39,0,0,1-1.43-7.72c.07-1.16-.38-1.64-1.46-1.62-2.27.05-4.54,0-6.82,0s-4.54,0-6.82,0c-.89,0-1.45.18-1.67.83v-3.31c.16.58.57.84,1.37.84q7-.06,14,0c1.1,0,1.45-.5,1.44-1.64,0-3.22-.05-6.44,0-9.66,0-1.33-.53-1.66-1.62-1.63-2.21.06-4.43,0-6.65,0s-4.66,0-7,0c-.83,0-1.33.17-1.53.82V561c.18.58.63.86,1.5.84,4.55-.06,9.09-.05,13.63,0,1.22,0,1.69-.43,1.66-1.79-.06-2-.22-4.13.76-6a10.82,10.82,0,0,0,.93-2.32c.62-2.56-.81-4.61-3.16-4.62h5.24c-1,0-1.16.31-.78,1.29a6.58,6.58,0,0,1-.53,5.92,6.66,6.66,0,0,0-.78,3.49q0,12.21,0,24.44a6.24,6.24,0,0,0,.73,3.31,6.75,6.75,0,0,1,.57,6.09c-.39,1-.78,1.43-1.45,1.43Z" transform="translate(-393.06 -517.06)"/><path class="cls-4" d="M455.43,547c-1.63-.08-2.34.9-2.71,2.34a5.27,5.27,0,0,0,.33,3.72,16.93,16.93,0,0,1,.79,1.8c.16.48.16,1-.39,1.22s-.73-.11-.94-.51c-1.21-2.23-2.33-4.5-1.19-7.19.47-1.12.06-1.36-.9-1.36Z" transform="translate(-393.06 -517.06)"/></g><rect class="cls-5" x="360.94" y="180.41" width="39" height="27.53" rx="2.8"/><rect class="cls-6" x="364.25" y="198.28" width="20.78" height="3"/><rect class="cls-6" x="364.25" y="193.29" width="20.78" height="3"/><rect class="cls-7" x="360.94" y="185.78" width="39" height="4.29"/><g class="cls-1"><path class="cls-8" d="M452.67,699.44,449.94,707h-1.31L446,699.44h1.28l1.92,5.73a3.71,3.71,0,0,1,.15.71h0a3.1,3.1,0,0,1,.17-.72l1.94-5.72Z" transform="translate(-393.06 -517.06)"/><path class="cls-8" d="M459.21,707h-1.28l-.71-2h-3l-.67,2h-1.29l2.85-7.56h1.3Zm-2.32-2.94-1.05-3a3.3,3.3,0,0,1-.12-.57h0a3.18,3.18,0,0,1-.12.56l-1.05,3Z" transform="translate(-393.06 -517.06)"/><path class="cls-8" d="M464.4,707h-4.13v-7.56h1.17V706h3Z" transform="translate(-393.06 -517.06)"/><path class="cls-8" d="M466.67,700.39h0V706h0v1H465.5v-1h0V700.4h0v-.95h1.17Z" transform="translate(-393.06 -517.06)"/><path class="cls-8" d="M468.57,707v-7.56h2.29q4,0,4,3.68a3.67,3.67,0,0,1-1.14,2.83,4.15,4.15,0,0,1-2.92,1Zm1.17-6.56V706h1a2.87,2.87,0,0,0,2.1-.75,2.77,2.77,0,0,0,.77-2.09,2.65,2.65,0,0,0-.73-2,3,3,0,0,0-2.11-.69Z" transform="translate(-393.06 -517.06)"/><path class="cls-8" d="M451.58,712.44h-2.17V719h-1.18v-6.56h-2.17v-1h5.52Z" transform="translate(-393.06 -517.06)"/><path class="cls-8" d="M458.69,719h-1.17v-3.32h-3.64V719h-1.17v-7.56h1.17v3.21h3.64v-3.21h1.17Z" transform="translate(-393.06 -517.06)"/><path class="cls-8" d="M466.33,719H465l-1.23-2.06a3,3,0,0,0-.66-.83,1.12,1.12,0,0,0-.67-.22h-.64V719h-1.17v-7.56H463a2.76,2.76,0,0,1,1.82.53,1.82,1.82,0,0,1,.64,1.5,2,2,0,0,1-.44,1.3,2.4,2.4,0,0,1-1.25.76v0a2.69,2.69,0,0,1,1.14,1.19Zm-4.57-6.6v2.52h1a1.42,1.42,0,0,0,1-.37,1.27,1.27,0,0,0,.39-1c0-.79-.47-1.19-1.41-1.19Z" transform="translate(-393.06 -517.06)"/><path class="cls-8" d="M473,715.87q0,3.25-3,3.26T467.17,716v-4.53h1.17v4.5c0,1.44.59,2.16,1.78,2.16s1.72-.7,1.72-2.08v-4.58H473Z" transform="translate(-393.06 -517.06)"/></g><path class="cls-8" d="M499.52,686.65V680c0-.5,0-1.13.1-1.89h0a5.08,5.08,0,0,1-.3.92l-3.42,7.61h-.49L492,679.09a5.52,5.52,0,0,1-.28-1h0c0,.34.05,1,.05,1.87v6.66h-1.05v-9.83h1.41l3.08,6.93a8.85,8.85,0,0,1,.45,1.16h.05c.13-.35.28-.74.47-1.2l3.15-6.89h1.34v9.83Z" transform="translate(-393.06 -517.06)"/><path class="cls-8" d="M502.55,681.85a5.4,5.4,0,0,1,1.29-3.78,4.46,4.46,0,0,1,3.47-1.42,4.17,4.17,0,0,1,3.27,1.39,5.12,5.12,0,0,1,1.24,3.57,5.49,5.49,0,0,1-1.25,3.78,4.76,4.76,0,0,1-6.76,0A5.13,5.13,0,0,1,502.55,681.85Zm1.14-.1a4.48,4.48,0,0,0,.94,2.93,3.06,3.06,0,0,0,2.51,1.16,3.3,3.3,0,0,0,2.62-1.09,4.49,4.49,0,0,0,.93-3,4.62,4.62,0,0,0-.9-3,3.48,3.48,0,0,0-5.14.07A4.48,4.48,0,0,0,503.69,681.75Z" transform="translate(-393.06 -517.06)"/><path class="cls-8" d="M521.64,686.65h-1.35l-5.13-7.94a3.66,3.66,0,0,1-.31-.59h0a8.75,8.75,0,0,1,.06,1.32v7.21h-1.09v-9.83h1.43l5,7.86a5.56,5.56,0,0,1,.4.67h0a10.78,10.78,0,0,1-.07-1.48v-7h1.08Z" transform="translate(-393.06 -517.06)"/><path class="cls-8" d="M530,677.81h-2.84v8.84h-1.09v-8.84h-2.83v-1H530Z" transform="translate(-393.06 -517.06)"/><path class="cls-8" d="M538.86,686.65h-1.08v-4.51h-5.15v4.51h-1.08v-9.83h1.08v4.34h5.15v-4.34h1.08Z" transform="translate(-393.06 -517.06)"/><path class="cls-8" d="M548.93,676.82l-4.71,11.46h-1l4.7-11.46Z" transform="translate(-393.06 -517.06)"/><path class="cls-8" d="M559.71,676.82l-3.25,6.2v3.63h-1.08V683l-3.17-6.21h1.24l2.23,4.49.24.59h0a5.08,5.08,0,0,1,.27-.59l2.35-4.49Z" transform="translate(-393.06 -517.06)"/><path class="cls-8" d="M566.26,686.65H561.1v-9.83H566v1h-3.87v3.35h3.58v1h-3.58v3.51h4.09Z" transform="translate(-393.06 -517.06)"/><path class="cls-8" d="M575.78,686.65h-1.2l-1.06-2.79H569.3l-1,2.79H567.1l3.78-9.83H572Zm-2.63-3.78-1.57-4.25a3.15,3.15,0,0,1-.15-.65h0a3.2,3.2,0,0,1-.16.65l-1.56,4.25Z" transform="translate(-393.06 -517.06)"/><path class="cls-8" d="M584.21,686.65h-1.29l-1.65-2.77a3.45,3.45,0,0,0-1-1.16,1.86,1.86,0,0,0-1-.28h-1v4.21h-1.08v-9.83h2.89a3.2,3.2,0,0,1,2.16.69,2.45,2.45,0,0,1,.8,1.93,2.59,2.59,0,0,1-2.18,2.64v0a2,2,0,0,1,.67.46,9.36,9.36,0,0,1,.79,1.13Zm-5.88-8.83v3.62h1.61a2.07,2.07,0,0,0,1.46-.52,1.84,1.84,0,0,0,.56-1.4,1.58,1.58,0,0,0-.51-1.25,2.24,2.24,0,0,0-1.5-.45Z" transform="translate(-393.06 -517.06)"/></svg>