<svg xmlns="http://www.w3.org/2000/svg" width="35.916" height="32.738" viewBox="0 0 35.916 32.738">
  <path id="Path_6602" data-name="Path 6602" d="M652.083,2386.465a15.35,15.35,0,0,1-1.185,6.162,14.561,14.561,0,0,1-2.664,4.032,85.721,85.721,0,0,1-7.051,6.515c-1.736,1.508-3.481,3.007-5.143,4.6-.506.484-1.033.946-1.531,1.438a.444.444,0,0,1-.723.009c-.96-.9-1.915-1.81-2.9-2.688-1.516-1.354-3.048-2.69-4.581-4.025a71.9,71.9,0,0,1-6.321-5.905,13.452,13.452,0,0,1-3.534-7.114,14.006,14.006,0,0,1,.114-6.151,8.806,8.806,0,0,1,5.164-5.882c4.251-1.8,8.522-.412,11.379,2.987.256.306.49.633.716.962s.363.346.612,0a11.905,11.905,0,0,1,2.8-2.9,9.655,9.655,0,0,1,4.225-1.692,9.057,9.057,0,0,1,8.026,2.664,8.583,8.583,0,0,1,2.442,4.828A16.463,16.463,0,0,1,652.083,2386.465Z" transform="translate(-616.167 -2376.663)" fill="#f6bd60"/>
</svg>
