<?xml version="1.0" encoding="utf-8"?>
<!-- Generator: Adobe Illustrator 25.0.0, SVG Export Plug-In . SVG Version: 6.00 Build 0)  -->
<svg version="1.1" xmlns="http://www.w3.org/2000/svg" xmlns:xlink="http://www.w3.org/1999/xlink" x="0px" y="0px"
	 viewBox="0 0 103 88" style="enable-background:new 0 0 103 88;" xml:space="preserve">
<style type="text/css">
	.st0{display:none;}
	.st1{display:inline;}
	.st2{fill:none;}
	.st3{fill:#DECDBB;}
	.st4{fill:none;stroke:#A59583;stroke-width:3;}
</style>
<g id="圖層_1" class="st0">
	<g id="Group_417" transform="translate(-117.89 -1779.664)" class="st1">
		<g id="Path_797">
			<path id="Path_936" class="st2" d="M206.3,1823.9L206.3,1823.9c0,24.2-19.6,43.8-43.8,43.8s-43.8-19.6-43.8-43.8
				c0-24.2,19.6-43.8,43.8-43.8l0,0C186.7,1780.1,206.3,1799.7,206.3,1823.9z"/>
			<path id="Path_937" class="st3" d="M162.5,1782.1c-23,0-41.7,18.7-41.6,41.8c0,23,18.7,41.7,41.8,41.6c23,0,41.7-18.7,41.6-41.8
				c0-16.7-10.1-31.8-25.5-38.4C173.6,1783.2,168.1,1782.1,162.5,1782.1 M206.3,1823.9c0,24.2-19.6,43.8-43.8,43.8
				s-43.8-19.6-43.8-43.8s19.6-43.8,43.8-43.8l0,0C186.7,1780.1,206.3,1799.7,206.3,1823.9L206.3,1823.9L206.3,1823.9z"/>
		</g>
		<path id="Path_256" class="st4" d="M172.4,1803l-15.1,21h63.4"/>
	</g>
</g>
<g id="圖層_2">
	<g id="Group_417_1_" transform="translate(-1235 -1779.665)">
		<g id="Path_797_1_">
			<path id="Path_934" class="st2" d="M1293.2,1780.3c24.2,0,43.8,19.6,43.8,43.8c0,24.2-19.6,43.8-43.8,43.8
				c-24.2,0-43.8-19.6-43.8-43.8c0,0,0,0,0,0l0,0C1249.4,1800,1269,1780.3,1293.2,1780.3z"/>
			<path id="Path_935" class="st3" d="M1293.2,1782.3c-23,0-41.7,18.7-41.6,41.8c0,23,18.7,41.7,41.8,41.6c23,0,41.7-18.7,41.6-41.8
				c0-16.7-10.1-31.8-25.5-38.3C1304.4,1783.4,1298.8,1782.3,1293.2,1782.3 M1293.2,1780.3c24.2,0,43.8,19.6,43.8,43.8
				s-19.6,43.8-43.8,43.8c-24.2,0-43.8-19.6-43.8-43.8C1249.4,1800,1269,1780.3,1293.2,1780.3
				C1293.2,1780.3,1293.2,1780.3,1293.2,1780.3z"/>
		</g>
		<path id="Path_256_1_" class="st4" d="M1234.9,1824.2h63.4l-15.1-21"/>
	</g>
</g>
</svg>
