<svg id="圖層_1" data-name="圖層 1" xmlns="http://www.w3.org/2000/svg" viewBox="0 0 78.86 93.45"><defs><style>.cls-1{fill:#f5a016;}.cls-2{fill:#f7ede2;}.cls-3{fill:#538e2b;}</style></defs><g id="Group_547" data-name="Group 547"><g id="Group_227" data-name="Group 227"><g id="Group_224" data-name="Group 224"><path id="Path_252" data-name="Path 252" class="cls-1" d="M813.09,528.3c-2.3-4.41-4.62-8.81-6.9-13.23a1.57,1.57,0,0,0-1.21-.92,11.81,11.81,0,0,1-6.72-4.61A17.86,17.86,0,0,1,794,498.17a10.48,10.48,0,0,1,.61-3.5,5.11,5.11,0,0,1,6.35-3.42l.42.15a12.37,12.37,0,0,1,6.07,4.46c2.71,3.47,4.42,7.35,4.24,11.85a11.1,11.1,0,0,1-.74,3.27,1.76,1.76,0,0,0,.09,1.61q6.83,13,13.62,26a5.69,5.69,0,0,1,.54,1.44,2.57,2.57,0,0,1-1.49,2.86,2.84,2.84,0,0,1-3.32-.81,7.77,7.77,0,0,1-.58-1q-3.36-6.39-6.7-12.79Z" transform="translate(-790.93 -489.31)"/><path id="Path_253" data-name="Path 253" class="cls-1" d="M850.46,510.43l-1.49-.91c-1.38-.85-1.61-1.77-.77-3.15q4.72-7.83,9.48-15.67c.13-.22.26-.45.4-.66a1.26,1.26,0,0,1,1.82-.52c.65.41.77,1,.29,1.84l-5.52,9.12a1.35,1.35,0,0,0,.32,2c.89.64,1.57.48,2.21-.59,1.82-3,3.61-6,5.43-8.95.54-.9,1.28-1.09,2-.53s.59,1.18.17,1.88q-2.71,4.43-5.38,8.87c-.55.93-.47,1.62.23,2.14a1.26,1.26,0,0,0,2.1-.39c1.82-3,3.62-6,5.43-8.95.18-.3.4-.7.67-.78a1.93,1.93,0,0,1,1.42,0,1.64,1.64,0,0,1,.51,1.21,2.12,2.12,0,0,1-.45,1q-4.71,7.8-9.43,15.59c-1.1,1.82-1.78,2-3.6.88l-1.08-.65-.7,1.15-15.66,25.87a5.63,5.63,0,0,1-1.08,1.35,2.7,2.7,0,0,1-3.33,0,2.78,2.78,0,0,1-.72-3.57c1.57-2.63,3.17-5.25,4.76-7.88l11.39-18.82C850.05,511.13,850.21,510.85,850.46,510.43Z" transform="translate(-790.93 -489.31)"/></g><g id="Group_226" data-name="Group 226"><path id="Path_254" data-name="Path 254" class="cls-2" d="M797.22,561.09c-.38-10,1-19.48,7.94-27.52a31,31,0,0,1,51.48,6.54c2.83,5.81,3.62,11.94,3.73,18.23.06,4,0,8-.13,11.93-.11,2.49-.92,4.77-3.78,5.55-2.67.73-4.68-.21-6.42-2.3-2.74-3.3-5.33-3.17-8.31.17S836,577,833,573.61c-2.73-3.14-5.62-3.2-8.35-.18-3.33,3.67-6,3.67-9.24,0-2.64-3-5.66-3.06-8.08.06-1.69,2.19-3.71,3.15-6.35,2.33s-3.8-2.82-3.77-5.51C797.25,567.23,797.22,564.16,797.22,561.09Zm46.88-4.2c-1.12-.68-1.74.17-2.24.62-2.27,2-4.32,2.66-6.52-.14-1-1.29-2.38-1.3-3.5.07-2.12,2.59-4.2,2.76-6.32,0-.94-1.24-2.17-1.51-3.17-.24-2.57,3.23-4.93,2.29-7.38-.1-.35-.35-.87-.82-1.51-.35.4,2.26,3,5.66,4.78,6.13,2,.52,2.84-1.31,3.93-2.3,1.68-1.54,2.64-.66,3.7.56,1.72,2,3.59,2.53,5.42.23s3.33-1.61,5,.13c.73.75,1.6,2.21,2.85,1.27C841.23,561.21,844.09,560.11,844.1,556.89Zm.4-15.62c-.36-1,.66-2.77-1.68-2.88s-2.25,1.56-2.34,2.94.1,3.3,2,3.33,2-1.79,2-3.39Zm-31.73.38c.49,1-.17,3,1.75,3.08s2.5-1.47,2.49-3.1-.3-3.26-2.24-3.27-1.76,1.76-2,3.29Z" transform="translate(-790.93 -489.31)"/><path id="Path_255" data-name="Path 255" class="cls-3" d="M844.41,541.27c0,1.6,0,3.43-2,3.39s-2-1.87-2-3.33,0-3.06,2.28-2.94S844.05,540.28,844.41,541.27Z" transform="translate(-790.93 -489.31)"/><path id="Path_256" data-name="Path 256" class="cls-3" d="M812.87,541.65c.23-1.53.14-3.3,2-3.29s2.17,1.73,2.18,3.27-.68,3.19-2.43,3.1S813.34,542.64,812.87,541.65Z" transform="translate(-790.93 -489.31)"/><g id="Group_225" data-name="Group 225"><path id="Path_257" data-name="Path 257" class="cls-1" d="M791.13,559.74c-.65-8,.1-16.52,4.6-24.37,8-13.94,24-21.71,39.27-19,17.11,3,30.75,18.29,31.38,35.37.24,6.47.2,13,.06,19.43-.21,8.72-7.92,13.83-16.22,10.6-3.19-1.24-5.84-1.36-8.92.15s-6.38.85-9.42-.6a6.25,6.25,0,0,0-6-.21,12,12,0,0,1-12.28-.34c-2.21-1.34-4-.13-5.88.68-6,2.58-11.51,1-15.27-4.23a7.41,7.41,0,0,1-1.36-4.46C791.12,568.64,791.13,564.55,791.13,559.74Zm6.23,1.35c0,3.07,0,6.14,0,9.21,0,2.7,1.11,4.69,3.75,5.52s4.64-.14,6.33-2.33c2.41-3.13,5.41-3.06,8-.06,3.22,3.67,5.89,3.67,9.2,0,2.72-3,5.6-3,8.31.17,2.95,3.41,5.73,3.44,8.7.09s5.54-3.47,8.27-.17c1.74,2.09,3.73,3,6.4,2.3,2.85-.78,3.65-3.07,3.76-5.55.17-4,.2-8,.13-11.94-.1-6.28-.9-12.42-3.72-18.22a30.82,30.82,0,0,0-51.25-6.54c-6.92,8-8.29,17.54-7.91,27.52Z" transform="translate(-790.93 -489.31)"/><path id="Path_258" data-name="Path 258" class="cls-1" d="M843.71,556.89c0,3.22-2.8,4.32-4.81,5.87-1.23.94-2.07-.53-2.78-1.27-1.65-1.74-3.12-2.43-4.9-.13s-3.6,1.78-5.28-.23c-1-1.23-2-2.1-3.6-.56-1.06,1-1.86,2.82-3.82,2.3-1.77-.48-4.26-3.88-4.66-6.13.63-.48,1.13,0,1.47.34,2.39,2.39,4.68,3.34,7.19.1,1-1.26,2.17-1,3.09.25,2.06,2.77,4.09,2.6,6.16,0,1.09-1.37,2.42-1.36,3.41-.07,2.14,2.8,4.14,2.15,6.35.14C842,557.06,842.62,556.21,843.71,556.89Z" transform="translate(-790.93 -489.31)"/><path id="Path_259" data-name="Path 259" class="cls-1" d="M846,541.06c-.08,2.9,0,6.24-3.57,6.18-3.38-.06-3.71-3.41-3.56-6.07s.05-5.57,4.15-5.36S845.39,539.27,846,541.06Z" transform="translate(-790.93 -489.31)"/><path id="Path_260" data-name="Path 260" class="cls-1" d="M811.24,541.72c.4-2.72.23-5.88,3.47-5.86s3.89,3.08,3.89,5.83c0,2.92-1.21,5.7-4.33,5.55C810.93,547.08,812.07,543.5,811.24,541.72Z" transform="translate(-790.93 -489.31)"/></g></g></g></g></svg>