<svg id="圖層_1" data-name="圖層 1" xmlns="http://www.w3.org/2000/svg" viewBox="0 0 30 26.77"><defs><style>.cls-1{fill:#f48145;}</style></defs><path id="_001-shopping-cart" data-name=" 001-shopping-cart" class="cls-1" d="M9.37,21.27a1,1,0,0,1,0-2h17a2.19,2.19,0,0,0,2.14-1.7l2.14-9.25a1.78,1.78,0,0,0-1.34-2.13,1.67,1.67,0,0,0-.39-.05L8,6.1,7,2.24a2.12,2.12,0,0,0-2-1.57H1.58a.88.88,0,0,0,0,1.76H4.92a.36.36,0,0,1,.35.27l4,14.84A2.75,2.75,0,0,0,9.37,23h1.29a3.08,3.08,0,1,0,5.56,2.64,3.12,3.12,0,0,0,0-2.64h5.55a3.08,3.08,0,1,0,5.54,0A.88.88,0,0,0,27,21.28Zm5.39,3.08A1.32,1.32,0,1,1,13.44,23h0A1.33,1.33,0,0,1,14.76,24.35Zm9.79,1.32a1.32,1.32,0,0,1,0-2.64h0a1.32,1.32,0,1,1,0,2.64ZM28.94,8V8L28,11.86H25l.52-3.93,3.41,0Zm-9.07,9.6V13.62H23l-.52,3.93Zm-4.36,0L15,13.62h3.12v3.93Zm-4,0h0A.49.49,0,0,1,11,17.2l-1-3.58h3.18l.52,3.93Zm3.3-5.69-.53-4,3.88,0v4Zm5.11,0V7.91l3.87,0-.52,3.93Zm-7.42-4,.53,4H9.56l-1.07-4Zm13.93,9.67H24.25l.51-3.93h2.88l-.83,3.59A.44.44,0,0,1,26.38,17.55Z" transform="translate(-0.7 -0.67)"/></svg>