<svg xmlns="http://www.w3.org/2000/svg" width="37.139" height="31.5" viewBox="0 0 37.139 31.5">
  <path id="Icon_awesome-quote-right" data-name="Icon awesome-quote-right" d="M33.657,2.25H24.372A3.431,3.431,0,0,0,20.89,5.625v9A3.431,3.431,0,0,0,24.372,18h5.8v4.5A4.577,4.577,0,0,1,25.533,27h-.58a1.711,1.711,0,0,0-1.741,1.688v3.375a1.711,1.711,0,0,0,1.741,1.688h.58A11.429,11.429,0,0,0,37.139,22.5V5.625A3.431,3.431,0,0,0,33.657,2.25Zm-20.89,0H3.482A3.431,3.431,0,0,0,0,5.625v9A3.431,3.431,0,0,0,3.482,18h5.8v4.5A4.577,4.577,0,0,1,4.642,27h-.58a1.711,1.711,0,0,0-1.741,1.688v3.375A1.711,1.711,0,0,0,4.062,33.75h.58A11.429,11.429,0,0,0,16.248,22.5V5.625A3.431,3.431,0,0,0,12.766,2.25Z" transform="translate(0 -2.25)" fill="#fff"/>
</svg>
