<svg xmlns="http://www.w3.org/2000/svg" width="37.719" height="31.5" viewBox="0 0 37.719 31.5">
  <path id="Icon_awesome-quote-left" data-name="Icon awesome-quote-left" d="M36.752,18h-8.9V13.5A4.577,4.577,0,0,1,32.5,9h.58a1.711,1.711,0,0,0,1.741-1.687V3.938A1.711,1.711,0,0,0,33.077,2.25H32.5A11.429,11.429,0,0,0,20.89,13.5V30.375a3.431,3.431,0,0,0,3.482,3.375h9.285a3.431,3.431,0,0,0,3.482-3.375v-9C37.139,19.512,38.674,18,36.752,18ZM12.766,18h-5.8V13.5A4.577,4.577,0,0,1,11.606,9h.58a1.711,1.711,0,0,0,1.741-1.687V3.938A1.711,1.711,0,0,0,12.186,2.25h-.58A11.429,11.429,0,0,0,0,13.5V30.375A3.431,3.431,0,0,0,3.482,33.75h9.285a3.431,3.431,0,0,0,3.482-3.375v-9A3.431,3.431,0,0,0,12.766,18Z" transform="translate(0 -2.25)" fill="#fff"/>
</svg>
