<?xml version="1.0" encoding="utf-8"?>
<!-- Generator: Adobe Illustrator 25.0.0, SVG Export Plug-In . SVG Version: 6.00 Build 0)  -->
<svg version="1.1" xmlns="http://www.w3.org/2000/svg" xmlns:xlink="http://www.w3.org/1999/xlink" x="0px" y="0px"
	 viewBox="0 0 13.9 15" style="enable-background:new 0 0 13.9 15;" xml:space="preserve">
<style type="text/css">
	.st0{display:none;}
	.st1{display:inline;fill:#C2C4CA;}
	.st2{fill:#C2C4CA;}
	.st3{fill:#F48145;}
	.st4{display:inline;fill:#F48145;}
</style>
<g id="圖層_1" class="st0">
	<path id="star_favorite_1499_copy_14" class="st1" d="M11.5,8.8c-0.3,0.3-0.4,0.7-0.4,1.1l0.4,2.7c0.1,0.7-0.3,1.4-1,1.5
		c-0.1,0-0.1,0-0.2,0c-0.2,0-0.4-0.1-0.6-0.1l-2.3-1.3c-0.4-0.2-0.8-0.2-1.1,0L4.1,14c-0.2,0.1-0.4,0.1-0.6,0.1
		c-0.7,0-1.3-0.6-1.2-1.3c0-0.1,0-0.1,0-0.2L2.7,10c0.1-0.4-0.1-0.8-0.4-1.1L0.5,7C0,6.5,0,5.6,0.5,5.1c0.2-0.2,0.4-0.3,0.7-0.3
		l2.6-0.4c0.4-0.1,0.8-0.3,0.9-0.7l1.1-2.4c0.3-0.6,1-0.9,1.6-0.6C7.7,0.8,7.9,1,8,1.3l1.1,2.4c0.2,0.4,0.5,0.6,0.9,0.7l2.6,0.4
		c0.7,0.1,1.2,0.8,1,1.5c0,0.2-0.2,0.5-0.3,0.7L11.5,8.8z"/>
</g>
<g id="圖層_2">
	<path id="star_favorite_1499_copy_14_1_" class="st2" d="M11.5,8.8c-0.3,0.3-0.4,0.7-0.4,1.1l0.4,2.7c0.1,0.7-0.3,1.4-1,1.5
		c-0.1,0-0.1,0-0.2,0c-0.2,0-0.4-0.1-0.6-0.1l-2.3-1.3c-0.4-0.2-0.8-0.2-1.1,0L4.1,14c-0.2,0.1-0.4,0.1-0.6,0.1
		c-0.7,0-1.3-0.6-1.2-1.3c0-0.1,0-0.1,0-0.2L2.7,10c0.1-0.4-0.1-0.8-0.4-1.1L0.5,7C0,6.5,0,5.6,0.5,5.1c0.2-0.2,0.4-0.3,0.7-0.3
		l2.6-0.4c0.4-0.1,0.8-0.3,0.9-0.7l1.1-2.4c0.3-0.6,1-0.9,1.6-0.6C7.7,0.8,7.9,1,8,1.3l1.1,2.4c0.2,0.4,0.5,0.6,0.9,0.7l2.6,0.4
		c0.7,0.1,1.2,0.8,1,1.5c0,0.2-0.2,0.5-0.3,0.7L11.5,8.8z"/>
	<path class="st3" d="M6.9,0.6C6.5,0.6,6,0.8,5.8,1.3L4.7,3.7C4.5,4.1,4.2,4.3,3.8,4.4L1.2,4.8c-0.2,0-0.5,0.2-0.7,0.3
		C0,5.6,0,6.5,0.5,7l1.9,1.9C2.7,9.2,2.8,9.6,2.7,10l-0.4,2.7c0,0.1,0,0.1,0,0.2c0,0.7,0.5,1.3,1.2,1.3c0.2,0,0.4-0.1,0.6-0.2
		l2.3-1.3c0.2-0.1,0.4-0.1,0.6-0.1V0.6z"/>
</g>
<g id="圖層_3" class="st0">
	<path id="star_favorite_1499_copy_14_2_" class="st4" d="M11.5,8.8c-0.3,0.3-0.4,0.7-0.4,1.1l0.4,2.7c0.1,0.7-0.3,1.4-1,1.5
		c-0.1,0-0.1,0-0.2,0c-0.2,0-0.4-0.1-0.6-0.1l-2.3-1.3c-0.4-0.2-0.8-0.2-1.1,0L4.1,14c-0.2,0.1-0.4,0.1-0.6,0.1
		c-0.7,0-1.3-0.6-1.2-1.3c0-0.1,0-0.1,0-0.2L2.7,10c0.1-0.4-0.1-0.8-0.4-1.1L0.5,7C0,6.5,0,5.6,0.5,5.1c0.2-0.2,0.4-0.3,0.7-0.3
		l2.6-0.4c0.4-0.1,0.8-0.3,0.9-0.7l1.1-2.4c0.3-0.6,1-0.9,1.6-0.6C7.7,0.8,7.9,1,8,1.3l1.1,2.4c0.2,0.4,0.5,0.6,0.9,0.7l2.6,0.4
		c0.7,0.1,1.2,0.8,1,1.5c0,0.2-0.2,0.5-0.3,0.7L11.5,8.8z"/>
</g>
</svg>
