<svg xmlns="http://www.w3.org/2000/svg" width="102.934" height="102.875" viewBox="0 0 102.934 102.875">
  <g id="Group_6165" data-name="Group 6165" transform="translate(0 0)">
    <path id="Shape" d="M64.137,34.508a1.715,1.715,0,0,0,3.192-1.255c-6.6-16.789-22.982-26.04-39.88-22.513a1.716,1.716,0,1,0,.7,3.358c12.447-2.605,29.014,2.67,35.985,20.41Z" transform="translate(16.966 7.108)" fill="#F5A016"/>
    <path id="Shape-2" data-name="Shape" d="M23.86,87.895a6.86,6.86,0,0,0,6.86-6.86V12.43A3.43,3.43,0,0,0,27.291,9C19.693,9,17,16.181,17,36.442V81.035A6.86,6.86,0,0,0,23.86,87.895Zm0-3.43a3.43,3.43,0,0,1-3.43-3.43V50.163h6.86V81.035A3.43,3.43,0,0,1,23.86,84.465Zm3.43-72.035c0,37.657.033,31.956-.077,34.3H20.43V36.442C20.43,12.43,24.718,12.43,27.291,12.43Z" transform="translate(10.47 6.397)" fill="#F5A016"/>
    <path id="Shape-3" data-name="Shape" d="M99.394,85.971a1.715,1.715,0,0,0-2.336.626,25.739,25.739,0,0,1-44.576,0,1.715,1.715,0,0,0-2.969,1.715A29.26,29.26,0,0,0,60,98.844,47.656,47.656,0,0,1,21.538,88.1c.1-1.048.063,3.713.063-40.82a8.55,8.55,0,0,0,5.137-7.85V20.565a5.145,5.145,0,0,0-6.126-5.046A48.006,48.006,0,0,1,99.886,58.927a29.167,29.167,0,0,0-50.385.218A1.715,1.715,0,0,0,52.47,60.86a25.727,25.727,0,0,1,46.423,3.957,1.715,1.715,0,0,0,3.259-.149A51.426,51.426,0,0,0,15.66,15.521c-.1-.019-.208-.051-.312-.063a4.54,4.54,0,0,0-1.13-.012,5.1,5.1,0,0,0-2.928,1.312,5.135,5.135,0,0,0-8.564,3.808V38.08A51.479,51.479,0,0,0,7.872,77.086V87.454A6.86,6.86,0,0,0,19.581,92.3a7.117,7.117,0,0,0,.66-.8,51.218,51.218,0,0,0,44.986,9.776,29.181,29.181,0,0,0,34.791-12.966A1.715,1.715,0,0,0,99.394,85.971ZM6.157,20.565a1.715,1.715,0,1,1,3.43,0V34.286a1.715,1.715,0,0,0,3.43,0V20.565a1.748,1.748,0,0,1,1.593-1.715h.283a1.734,1.734,0,0,1,1.554,1.715V34.286a1.715,1.715,0,0,0,3.43,0V20.565a1.715,1.715,0,0,1,2.808-1.307,1.7,1.7,0,0,0,.13.117,1.655,1.655,0,0,1,.492,1.19V39.431a5.145,5.145,0,0,1-5.145,5.145H11.3a5.145,5.145,0,0,1-5.145-5.145Zm-1.293,24.5a8.419,8.419,0,0,0,3.008,2.219V69.257A47.8,47.8,0,0,1,4.864,45.067Zm9.869,45.817a3.43,3.43,0,0,1-3.43-3.43V48.007h6.86V87.454A3.43,3.43,0,0,1,14.733,90.884Z" transform="translate(-0.984 -0.023)" fill="#F5A016"/>
    <path id="Shape-4" data-name="Shape" d="M40.63,38.643a1.715,1.715,0,0,0-2.411-.268L32.43,43.007V39.715a1.715,1.715,0,1,0-3.43,0V53.436a1.715,1.715,0,1,0,3.43,0V50.145l5.788,4.631A1.716,1.716,0,1,0,40.363,52.1l-6.9-5.521,6.9-5.521a1.715,1.715,0,0,0,.269-2.411Z" transform="translate(19.051 27.135)" fill="#F5A016"/>
    <path id="Shape-5" data-name="Shape" d="M42.145,41.43H43.86a1.715,1.715,0,0,1,1.715,1.715,1.715,1.715,0,1,0,3.43,0A5.145,5.145,0,0,0,43.86,38H42.145A5.145,5.145,0,0,0,37,43.145v6.86a5.145,5.145,0,0,0,5.145,5.145H43.86a5.145,5.145,0,0,0,5.145-5.145,1.715,1.715,0,1,0-3.43,0,1.715,1.715,0,0,1-1.715,1.715H42.145a1.715,1.715,0,0,1-1.715-1.715v-6.86A1.715,1.715,0,0,1,42.145,41.43Z" transform="translate(24.772 27.135)" fill="#F5A016"/>
    <path id="Shape-6" data-name="Shape" d="M51.861,38a1.715,1.715,0,0,0-1.607,1.113L45.108,52.834a1.716,1.716,0,1,0,3.214,1.2l.868-2.314h5.341l.868,2.317a1.716,1.716,0,0,0,3.214-1.2L53.468,39.117A1.715,1.715,0,0,0,51.861,38ZM50.477,48.291,51.861,44.6l1.384,3.691Z" transform="translate(30.493 27.135)" fill="#F5A016"/>
    <path id="Shape-7" data-name="Shape" d="M64.291,51.721H57.43V39.715a1.715,1.715,0,1,0-3.43,0V53.436a1.715,1.715,0,0,0,1.715,1.715h8.576a1.715,1.715,0,1,0,0-3.43Z" transform="translate(36.929 27.135)" fill="#F5A016"/>
  </g>
</svg>
