<svg xmlns="http://www.w3.org/2000/svg" xmlns:xlink="http://www.w3.org/1999/xlink" width="1170" height="492.014" viewBox="0 0 1170 492.014">
  <defs>
    <filter id="享受美食_不需要理由" x="766" y="332.246" width="230" height="45" filterUnits="userSpaceOnUse">
      <feOffset dy="3" input="SourceAlpha"/>
      <feGaussianBlur stdDeviation="3" result="blur"/>
      <feFlood flood-opacity="0.161"/>
      <feComposite operator="in" in2="blur"/>
      <feComposite in="SourceGraphic"/>
    </filter>
  </defs>
  <g id="Group_6205" data-name="Group 6205" transform="translate(-135 -304.754)">
    <path id="sign_up_box_back" data-name="sign up box back" d="M0,0H1170V492.014H0v-272.9" transform="translate(135 304.754)" fill="#66ab8c"/>
    <g id="chicken" transform="translate(603.542 -27)">
      <g id="roast-chicken" transform="translate(356.458 532.062)">
        <path id="Path_853" data-name="Path 853" d="M100.028,90.918a17.621,17.621,0,0,0,2.64-9.625c0-8.6-5-18.619-13.364-26.8A50.906,50.906,0,0,0,58.477,39.762c-5.388-5.928-13.061-10.3-21.022-10.336a6.992,6.992,0,0,1-4.936-2.069l-4.645-4.645A10.7,10.7,0,1,0,7.866,15.366,10.7,10.7,0,1,0,13.841,35.9l5.066,5.066a6.993,6.993,0,0,1,2.069,4.936,22.34,22.34,0,0,0,.165,2.588C11.753,54.5,6.417,62.852,6.417,71.667c0,7.086,3.377,13.783,9.512,19.25H0v6.417H6.417a16.06,16.06,0,0,0,16.042,16.042H86.626a16.06,16.06,0,0,0,16.042-16.042h6.417V90.918ZM15.056,28.043l-2.152,1.3A4.278,4.278,0,1,1,10.695,21.4H13.9V18.195a4.278,4.278,0,1,1,7.479,2.835l-2,2.261,8.6,8.6a13.37,13.37,0,0,0,9.443,3.948c9.758.047,20.627,9.639,22.361,20.043,1.411,8.468-3.9,13.759-12.349,12.35-10.4-1.734-20-12.6-20.043-22.361a13.369,13.369,0,0,0-3.948-9.443ZM12.834,71.667c0-6.049,3.616-11.952,10.044-16.6,3.843,9.458,13.227,17.782,23.5,19.494,5.691.949,11.391-.188,15.468-4.265,3.783-3.783,5.3-9.276,4.266-15.468a27.325,27.325,0,0,0-2.587-7.764,45.8,45.8,0,0,1,21.29,12.015c7.052,6.894,11.433,15.4,11.433,22.21a11,11,0,0,1-5.011,9.625H27.116C18.029,85.989,12.834,79.006,12.834,71.667ZM86.626,106.96H22.459a9.636,9.636,0,0,1-9.625-9.625H96.251A9.636,9.636,0,0,1,86.626,106.96Z" fill="#fff"/>
        <path id="Path_854" data-name="Path 854" d="M285,29.959h6.417c0-.664.132-.839.832-1.655a8.342,8.342,0,0,0,0-11.662c-.7-.817-.832-.992-.832-1.656s.132-.838.832-1.654A8.263,8.263,0,0,0,294.625,7.5h-6.417c0,.663-.132.838-.832,1.654a8.342,8.342,0,0,0,0,11.662c.7.817.832.991.832,1.655s-.132.839-.832,1.655A8.266,8.266,0,0,0,285,29.959Z" transform="translate(-224.041 0)" fill="#fff"/>
        <path id="Path_855" data-name="Path 855" d="M360,59.959h6.417c0-.664.132-.839.832-1.655a8.342,8.342,0,0,0,0-11.662c-.7-.817-.832-.992-.832-1.656s.132-.838.832-1.654a8.263,8.263,0,0,0,2.377-5.831h-6.417c0,.663-.132.838-.832,1.654a8.342,8.342,0,0,0,0,11.662c.7.817.832.991.832,1.655s-.132.839-.832,1.655A8.266,8.266,0,0,0,360,59.959Z" transform="translate(-282.999 -23.583)" fill="#fff"/>
        <path id="Path_856" data-name="Path 856" d="M435,89.959h6.417c0-.664.132-.839.832-1.655a8.342,8.342,0,0,0,0-11.662c-.7-.817-.832-.992-.832-1.656s.132-.838.832-1.654a8.263,8.263,0,0,0,2.377-5.831h-6.417c0,.663-.132.838-.832,1.654a8.342,8.342,0,0,0,0,11.662c.7.817.832.991.832,1.655s-.132.839-.832,1.655A8.266,8.266,0,0,0,435,89.959Z" transform="translate(-341.957 -47.167)" fill="#fff"/>
      </g>
    </g>
    <g id="salt" transform="matrix(0.438, 0.899, -0.899, 0.438, 1168.489, 436.487)">
      <path id="Path_844" data-name="Path 844" d="M23.529.031c3.461,6.187-2.567,13.017-11.271,13.017C3.437,13.048-2.453,6.12,1,0Zm-6.674,6.1a2,2,0,1,0,4.008,0V5.749a2,2,0,1,0-4.008,0Zm-6.6,3.05a2,2,0,0,0,4.008,0V8.8a2,2,0,0,0-4.008,0Zm-6.6-3.05a2,2,0,1,0,4.008,0V5.749a2,2,0,1,0-4.008,0Z" transform="translate(3.94 55.085)" fill="#9bccb6"/>
      <path id="Path_845" data-name="Path 845" d="M32.3,5.9,25.441,41.187H6.954L.093,5.9A4.958,4.958,0,0,1,4.96,0H27.436A4.957,4.957,0,0,1,32.3,5.9ZM14.291,30.145l-1.412-15.63a2,2,0,0,0-1.993-1.824c-.061,0-.122,0-.183.008a2,2,0,0,0-1.816,2.176L10.3,30.506a2,2,0,0,0,3.992-.361Zm7.4-17.446c-.061-.005-.122-.008-.183-.008a2,2,0,0,0-1.993,1.824L18.1,30.145a2,2,0,0,0,3.992.361l1.412-15.63A2,2,0,0,0,21.692,12.7Z" transform="translate(0 0)" fill="#9bccb6"/>
      <path id="Path_846" data-name="Path 846" d="M22.369,5.976H1.726A1.729,1.729,0,0,1,0,4.248V1.727A1.729,1.729,0,0,1,1.726,0H22.369a1.728,1.728,0,0,1,1.726,1.727V4.248A1.728,1.728,0,0,1,22.369,5.976Z" transform="translate(4.253 45.195)" fill="#9bccb6"/>
    </g>
    <g id="dots" transform="translate(631 -7)">
      <circle id="Ellipse_41" data-name="Ellipse 41" cx="4" cy="4" r="4" transform="translate(450 733)" fill="#9bccb6"/>
      <circle id="Ellipse_42" data-name="Ellipse 42" cx="4" cy="4" r="4" transform="translate(284 470)" fill="#9bccb6"/>
      <circle id="Ellipse_43" data-name="Ellipse 43" cx="4" cy="4" r="4" transform="translate(174 600)" fill="#9bccb6"/>
      <circle id="Ellipse_44" data-name="Ellipse 44" cx="4" cy="4" r="4" transform="translate(223 635)" fill="#9bccb6"/>
      <circle id="Ellipse_45" data-name="Ellipse 45" cx="6" cy="6" r="6" transform="translate(563 482)" fill="#9bccb6"/>
      <circle id="Ellipse_47" data-name="Ellipse 47" cx="4" cy="4" r="4" transform="translate(286 429)" fill="#9bccb6"/>
      <circle id="Ellipse_49" data-name="Ellipse 49" cx="8" cy="8" r="8" transform="translate(555 719)" fill="#9bccb6"/>
      <circle id="Ellipse_50" data-name="Ellipse 50" cx="8" cy="8" r="8" transform="translate(198 700)" fill="#9bccb6"/>
      <circle id="Ellipse_52" data-name="Ellipse 52" cx="4" cy="4" r="4" transform="translate(567 584)" fill="#9bccb6"/>
      <circle id="Ellipse_53" data-name="Ellipse 53" cx="4" cy="4" r="4" transform="translate(555 401)" fill="#9bccb6"/>
      <circle id="Ellipse_54" data-name="Ellipse 54" cx="5" cy="5" r="5" transform="translate(282 639)" fill="#9bccb6"/>
      <circle id="Ellipse_55" data-name="Ellipse 55" cx="4" cy="4" r="4" transform="translate(299 741)" fill="#9bccb6"/>
      <circle id="Ellipse_56" data-name="Ellipse 56" cx="4" cy="4" r="4" transform="translate(206 497)" fill="#9bccb6"/>
      <circle id="Ellipse_57" data-name="Ellipse 57" cx="4" cy="4" r="4" transform="translate(261 455)" fill="#9bccb6"/>
      <circle id="Ellipse_58" data-name="Ellipse 58" cx="4" cy="4" r="4" transform="translate(469 518)" fill="#9bccb6"/>
      <circle id="Ellipse_59" data-name="Ellipse 59" cx="4" cy="4" r="4" transform="translate(416 341)" fill="#9bccb6"/>
      <circle id="Ellipse_60" data-name="Ellipse 60" cx="4" cy="4" r="4" transform="translate(514 576)" fill="#9bccb6"/>
      <circle id="Ellipse_61" data-name="Ellipse 61" cx="4" cy="4" r="4" transform="translate(265 572)" fill="#9bccb6"/>
    </g>
    <g id="title" transform="translate(859.788 365.873)">
      <path id="Path_251" data-name="Path 251" d="M29.058-53.882l.228.114q.228.114.494.266a2.785,2.785,0,0,0,.494.228q1.064.608,1.1.646a6.953,6.953,0,0,1-.722,1.178l-.76,1.216a4.875,4.875,0,0,0,.684.836q.912.988,2.28,2.508a14.988,14.988,0,0,0,2.432,2.28L37.037-43.4l.836.608v2.318a2.868,2.868,0,0,1-.038.532l-.038.19q-.076,0-1.976-1.444-1.444-1.064-1.786-1.368a7.792,7.792,0,0,1-.95-1.14q-.836-1.14-2.28-3.268-1.444-2.2-1.52-2.28a29.277,29.277,0,0,0-1.672,2.66L25.942-44l-2.584,2.66q-2.584,2.66-2.66,2.66t-.228-.3a.9.9,0,0,1,.228-.722q.3-.418,1.824-2.394a23.8,23.8,0,0,0,1.9-2.888q.3-.684,2.432-4.939Q28.83-53.882,29.058-53.882Zm-11.931-.076v7.6h2.964v1.444H17.127v7.143l.532-.3q.456-.228,1.216-.684a5.506,5.506,0,0,1,.836-.38q.076,0,.076,1.064v1.064l-1.368.684-1.292.684v5.167a48.14,48.14,0,0,1-.152,5.623,5.714,5.714,0,0,1-.38.988,4.993,4.993,0,0,1-.684.988,5.268,5.268,0,0,1-1.064.722,6.84,6.84,0,0,1-.76.342l-.228.076v-6.079q0-6-.076-6a16.759,16.759,0,0,0-1.52.76,16.761,16.761,0,0,1-1.52.76v-.988l-.076-1.064,1.6-.836,1.52-.836.076-4.408v-4.484H12.036l-1.824-.076v-1.368H13.86v-7.6h3.268Zm8.739,18.086.076.608v.608h6.763v-.608l.076-.532h3.192v5.4q0,2.2-.038,3.382T35.9-25.271a2.859,2.859,0,0,1-.076.8,2.525,2.525,0,0,1-.3.988,2.73,2.73,0,0,1-.532.8,2.48,2.48,0,0,1-.8.608,2.272,2.272,0,0,1-.95.19h-.456v-3.04l-3.5.076h-3.42l-.076.38a4.771,4.771,0,0,1-.3.912,2.875,2.875,0,0,1-.608.912,2.893,2.893,0,0,1-.76.532,2.869,2.869,0,0,1-.912.152h-.532V-35.872h3.192Zm3.5,2.66q-3.344,0-3.382.038t-.038,3.458v3.344h6.839l-.076-3.42v-3.344ZM34.833-39.6H24.5v-1.444H34.833Z" transform="translate(90 112.008)" fill="#438b6b"/>
      <path id="Path_250" data-name="Path 250" d="M17.1-55.338l.076.988v.988h4.711v1.444H17.181l-.152.76a7.214,7.214,0,0,1-.3,1.064l-.228.456h1.824l.3-.456q.3-.532.38-.532t1.14.228q1.064.228,1.14.266t-.57,1.178a20.875,20.875,0,0,1-1.254,1.976q-.608.836-1.368,1.824-.76.912-1.6,1.824a20.485,20.485,0,0,1-1.824,1.748A12.382,12.382,0,0,1,13-40.292a12.062,12.062,0,0,1-1.52.912q-.684.38-1.368.684-.608.228-1.368.456a9.611,9.611,0,0,1-1.368.228,3,3,0,0,1-.8.114q-.038-.038.038-.342t.836-.608a7.061,7.061,0,0,0,1.52-.76,9.383,9.383,0,0,0,1.672-1.064q.76-.608,1.9-1.6,1.064-.912,1.064-1.064a3.305,3.305,0,0,0-.456-.684,7.737,7.737,0,0,1-.836-1.444l-.456-.912.228-.3q.228-.3.3-.3t.532.456A11.526,11.526,0,0,0,14.141-45.5q.76.57.874.532a4.218,4.218,0,0,0,.722-.874,13.589,13.589,0,0,0,1.14-1.6l.532-.684H12.165l-.38.684q-.38.608-.988,1.444a10.35,10.35,0,0,1-1.292,1.52,10.219,10.219,0,0,1-1.368,1.292l-.684.532v-.532a3.064,3.064,0,0,1,.456-1.368,12.063,12.063,0,0,0,.912-1.52q.3-.608.912-2.128a23.491,23.491,0,0,0,.912-2.66l.38-1.292h1.444q1.444,0,1.444.114a8.031,8.031,0,0,1-.456,1.178L13-49.715l.912.076H14.9v-2.736a21.923,21.923,0,0,1,.076-2.888q0-.076,1.064-.076Zm16.262,1.52q1.444,0,1.444.114a2,2,0,0,1-.228.57,9.936,9.936,0,0,1-.532,1.216q-.38.684-.836,1.368a6.349,6.349,0,0,1-.76,1.216q-.38.456-.912,1.064l-.456.456.684.532a15.713,15.713,0,0,1,1.444,1.292,9.684,9.684,0,0,1,1.216,1.444l.456.684-.912.456a6.794,6.794,0,0,1-.988.608l-.836-.912A16.487,16.487,0,0,0,30.4-45.5a5.677,5.677,0,0,0-1.1-.874,3.415,3.415,0,0,0-.8.38,10.553,10.553,0,0,1-1.52.684,10.377,10.377,0,0,1-1.368.532l-.532.152-.456-.228a2.118,2.118,0,0,1-.456-.342,1.678,1.678,0,0,1,.456-.266l1.064-.532q.532-.38,1.292-.912a3.2,3.2,0,0,0,.76-.608q0-.076-.608-.456-.684-.38-1.368-.684a5.927,5.927,0,0,0-1.216-.532q-.38-.152-.418-.342a.454.454,0,0,1,0-.266q.038-.076.8-.076a8.562,8.562,0,0,1,1.52.152,11,11,0,0,1,1.6.456,9.753,9.753,0,0,0,.988.3q.076.076.494-.456t.95-1.368a4.451,4.451,0,0,0,.532-.95,19.343,19.343,0,0,0-3.42-.114H24.248v-1.52H31.7l.076-.228.076-.228Zm-9.5,7.523-.3.456q-.076.152-.228.418a1.891,1.891,0,0,1-.228.342.323.323,0,0,0,0,.3q.152.076,2.736,1.672,2.356,1.368,3.42,2.052a18.359,18.359,0,0,0,1.976,1.14,24.918,24.918,0,0,0,2.508,1.064q1.368.532,2.964,1.064,1.368.456,1.52.532,0,.076-.3.3l-.228.228-.836-.152q-.76-.076-2.2-.38l-2.888-.76q-1.672-.532-1.748-.532l-.038.076a.944.944,0,0,0-.038.342v2.166q0,2.584-.076,3.5a7.484,7.484,0,0,1-.228,1.292,2.691,2.691,0,0,1-.456.836,2.28,2.28,0,0,1-.494.494,1.082,1.082,0,0,1-.646.19h-.456v-.684H22.652q-5.015,0-5.015.038a13.617,13.617,0,0,0,1.292.8q1.292.912,2.2,1.444,1.14.608,1.976.988.988.38,1.444.608l.456.152.532-.836q.3-.38.988-1.444.456-.684.532-.684a8.49,8.49,0,0,1,1.1.646,9.231,9.231,0,0,1,1.026.684q0,.038-.76,1.026-.684.836-.912,1.14-.076.228.038.266t1.254.266a7.476,7.476,0,0,0,1.178.228q.646.076,1.1.152l1.064.076.038.19.114.57q.076.38.152.684a5.775,5.775,0,0,1,.152,1.558q-.076.114-.646.114a7.481,7.481,0,0,1-1.368-.152q-.8-.152-1.862-.456a12.722,12.722,0,0,1-2.2-.76,20.707,20.707,0,0,1-2.128-.988q-.912-.456-1.862-.988T20.6-26.233q-1.064-.76-1.672-1.216-.76-.608-1.292-1.064l-.608-.608v1.976a16.935,16.935,0,0,1-.114,2.584,5.766,5.766,0,0,1-.342,1.064,5.468,5.468,0,0,1-.684.836,2.474,2.474,0,0,1-.836.494,2.633,2.633,0,0,1-.76.114h-.456v-6.915a59.139,59.139,0,0,0-.152-6.915q-.076,0-1.14.38a18.979,18.979,0,0,1-2.2.684,15.42,15.42,0,0,1-1.9.38,6.4,6.4,0,0,1-1.064.152,8.063,8.063,0,0,1-.912-.076l-.532-.076L7-34.744q1.064-.3,1.9-.608.76-.3,1.9-.836.988-.532,1.9-1.064.684-.456,1.6-1.14a15.71,15.71,0,0,0,1.444-1.292,23.269,23.269,0,0,0,1.672-1.9,20.833,20.833,0,0,0,1.824-2.888l.912-1.748h.684q.076,0,1.9-.076Zm-2.052,3.8a.6.6,0,0,0-.152-.114q-.076-.038-.076,0a4.492,4.492,0,0,0,.684.494q.684.532,1.216.988a5.146,5.146,0,0,1,.988,1.14,4.583,4.583,0,0,1,.532.912,2.97,2.97,0,0,1,.228.608v.228l1.14.076h1.14l.076-.228q.076-.228,1.14-.228H29.8l-1.064-.456a19.543,19.543,0,0,1-2.052-.836q-.76-.38-2.66-1.444Q22.2-42.343,21.816-42.5Zm.456,3.116a11.44,11.44,0,0,0-.646-1.634,2.834,2.834,0,0,1-.38-1.064q.038-.19,0-.19t-.266.38a10.812,10.812,0,0,1-1.064,1.52q-.912,1.14-1.368,1.6a4.607,4.607,0,0,0-.532.57q0,.038,2.2.038H22.5v-.228A4.632,4.632,0,0,0,22.272-39.38Zm-5.243,4.408H27.592V-36.72H17.029Zm0,3.116H27.592v-1.6H17.029Z" transform="translate(170.667 112.628)" fill="#f48145"/>
      <g id="Group_73" data-name="Group 73" transform="translate(138.332 50.707)">
        <g id="Group_67" data-name="Group 67" transform="translate(4.326 17.634)">
          <path id="Path_218" data-name="Path 218" d="M655.138,689.208a2.767,2.767,0,0,1-2.767-2.832l.609-25.837a.679.679,0,1,1,1.358.032l-.609,25.837a1.409,1.409,0,1,0,2.817,0l-.609-25.837a.679.679,0,0,1,1.358-.032l.609,25.837a2.767,2.767,0,0,1-2.766,2.832Z" transform="translate(-652.371 -659.875)" fill="#f6bd60"/>
        </g>
        <g id="Group_68" data-name="Group 68" transform="translate(21.429 16.9)">
          <path id="Path_219" data-name="Path 219" d="M730.674,686.7a2.767,2.767,0,0,1-2.767-2.832l.627-26.571a.68.68,0,0,1,.679-.664h.016a.679.679,0,0,1,.663.695l-.627,26.572a1.409,1.409,0,1,0,2.817,0l-.627-26.572a.679.679,0,0,1,.663-.695h.017a.679.679,0,0,1,.679.664l.627,26.571a2.767,2.767,0,0,1-2.767,2.832Z" transform="translate(-727.906 -656.634)" fill="#f6bd60"/>
        </g>
        <g id="Group_69" data-name="Group 69" transform="translate(0 0.663)">
          <path id="Path_220" data-name="Path 220" d="M641.839,603.253a.679.679,0,0,1-.2-1.327c2.585-.817,4.461-4.065,4.461-7.723,0-4.368-2.572-7.922-5.734-7.922s-5.734,3.554-5.734,7.922c0,3.658,1.876,6.905,4.46,7.723a.679.679,0,0,1-.409,1.3c-3.185-1.007-5.41-4.715-5.41-9.018,0-5.117,3.182-9.281,7.093-9.281s7.093,4.163,7.093,9.281c0,4.3-2.224,8.011-5.409,9.018A.681.681,0,0,1,641.839,603.253Z" transform="translate(-633.267 -584.923)" fill="#f6bd60"/>
        </g>
        <g id="Group_70" data-name="Group 70" transform="translate(18.172 0)">
          <path id="Path_221" data-name="Path 221" d="M719.547,600.457a6.031,6.031,0,0,1-6.024-6.024V582.674a.679.679,0,1,1,1.359,0v11.759a4.666,4.666,0,1,0,9.331,0V582.674a.679.679,0,1,1,1.359,0v11.759A6.031,6.031,0,0,1,719.547,600.457Z" transform="translate(-713.523 -581.995)" fill="#f6bd60"/>
        </g>
        <g id="Group_71" data-name="Group 71" transform="translate(21.736 0)">
          <path id="Path_222" data-name="Path 222" d="M729.939,596.538a.679.679,0,0,1-.679-.679V582.674a.679.679,0,1,1,1.359,0v13.184A.679.679,0,0,1,729.939,596.538Z" transform="translate(-729.26 -581.995)" fill="#f6bd60"/>
        </g>
        <g id="Group_72" data-name="Group 72" transform="translate(25.299 0)">
          <path id="Path_223" data-name="Path 223" d="M745.676,596.538a.679.679,0,0,1-.679-.679V582.674a.679.679,0,1,1,1.359,0v13.184A.679.679,0,0,1,745.676,596.538Z" transform="translate(-744.997 -581.995)" fill="#f6bd60"/>
        </g>
      </g>
    </g>
  </g>
  <g transform="matrix(1, 0, 0, 1, 0, 0)" filter="url(#享受美食_不需要理由)">
    <text id="享受美食_不需要理由-2" data-name="享受美食  不需要理由" transform="translate(775 360.25)" fill="#fff" font-size="20" font-family="YuGothicUI-Bold, Yu Gothic UI" font-weight="700" letter-spacing="0.1em"><tspan x="0" y="0">享受美食</tspan><tspan y="0" xml:space="preserve" font-family="SegoeUI-Bold, Segoe UI">  </tspan><tspan y="0">不需要理由</tspan></text>
  </g>
</svg>
