<svg xmlns="http://www.w3.org/2000/svg" width="1170" height="492.014" viewBox="0 0 1170 492.014">
  <g id="Group_6206" data-name="Group 6206" transform="translate(-120 -299.754)">
    <path id="sign_up_box_back" data-name="sign up box back" d="M0,0H1170V492.014H0v-272.9" transform="translate(120 299.754)" fill="#f6bd60"/>
    <g id="sauce_1" data-name="sauce 1" transform="translate(288.465 354.421) rotate(81)">
      <path id="Path_851" data-name="Path 851" d="M35.07,53.033,0,88.1l20.685,20.685,35.07-35.07ZM32.719,73.248l2.821,2.821-14.1,14.1-2.821-2.821Z" transform="translate(0 -45.981)" fill="#ffebd4"/>
      <path id="Path_852" data-name="Path 852" d="M318.107,22.66l4.983-4.983L316.414,11l8.18-8.18L321.773,0l-8.18,8.18-6.676-6.676-4.983,4.983Z" transform="translate(-261.788 0)" fill="#ffebd4"/>
    </g>
    <g id="splash_1" data-name="splash 1" transform="translate(312.064 403.715) rotate(40)">
      <path id="Path_857" data-name="Path 857" d="M193.513,11.676c.309-.11,7.593-2.711,9.819-4.936a3.949,3.949,0,0,0-5.585-5.585c-2.226,2.225-4.827,9.51-4.936,9.819a.55.55,0,0,0,.7.7Z" transform="translate(-185.707 0)" fill="#ffebd4"/>
      <path id="Path_858" data-name="Path 858" d="M3.5,0A3.5,3.5,0,0,0,0,3.5,6.37,6.37,0,0,0,1.358,6.879C2.3,8.35,3.271,9.871,2.952,12.265a.55.55,0,0,0,1.038.319c1.561-3.121,3-6.383,3-9.086A3.5,3.5,0,0,0,3.5,0Z" fill="#ffebd4"/>
      <path id="Path_859" data-name="Path 859" d="M170.056,321.333a13.325,13.325,0,0,0-4.5.954,45.565,45.565,0,0,0-4.588,2.05.55.55,0,0,0,.319,1.038c2.394-.319,3.915.653,5.386,1.594a6.369,6.369,0,0,0,3.382,1.358,3.5,3.5,0,0,0,0-6.994Z" transform="translate(-154.772 -309.546)" fill="#ffebd4"/>
    </g>
    <g id="dots_1" data-name="dots 1" transform="translate(42 13)">
      <circle id="Ellipse_41" data-name="Ellipse 41" cx="4" cy="4" r="4" transform="translate(450 733)" fill="#ffebd4"/>
      <circle id="Ellipse_42" data-name="Ellipse 42" cx="4" cy="4" r="4" transform="translate(191 365)" fill="#ffebd4"/>
      <circle id="Ellipse_43" data-name="Ellipse 43" cx="4" cy="4" r="4" transform="translate(193 604)" fill="#ffebd4"/>
      <circle id="Ellipse_44" data-name="Ellipse 44" cx="4" cy="4" r="4" transform="translate(223 635)" fill="#ffebd4"/>
      <circle id="Ellipse_45" data-name="Ellipse 45" cx="6" cy="6" r="6" transform="translate(563 482)" fill="#ffebd4"/>
      <circle id="Ellipse_46" data-name="Ellipse 46" cx="4" cy="4" r="4" transform="translate(325 447)" fill="#ffebd4"/>
      <circle id="Ellipse_49" data-name="Ellipse 49" cx="8" cy="8" r="8" transform="translate(555 719)" fill="#ffebd4"/>
      <circle id="Ellipse_50" data-name="Ellipse 50" cx="8" cy="8" r="8" transform="translate(198 700)" fill="#ffebd4"/>
      <circle id="Ellipse_51" data-name="Ellipse 51" cx="4" cy="4" r="4" transform="translate(607 349)" fill="#ffebd4"/>
      <circle id="Ellipse_52" data-name="Ellipse 52" cx="4" cy="4" r="4" transform="translate(567 584)" fill="#ffebd4"/>
      <circle id="Ellipse_55" data-name="Ellipse 55" cx="4" cy="4" r="4" transform="translate(299 741)" fill="#ffebd4"/>
      <circle id="Ellipse_56" data-name="Ellipse 56" cx="4" cy="4" r="4" transform="translate(206 497)" fill="#ffebd4"/>
      <circle id="Ellipse_57" data-name="Ellipse 57" cx="4" cy="4" r="4" transform="translate(261 455)" fill="#ffebd4"/>
      <circle id="Ellipse_58" data-name="Ellipse 58" cx="4" cy="4" r="4" transform="translate(469 518)" fill="#ffebd4"/>
      <circle id="Ellipse_59" data-name="Ellipse 59" cx="4" cy="4" r="4" transform="translate(416 341)" fill="#ffebd4"/>
      <circle id="Ellipse_60" data-name="Ellipse 60" cx="4" cy="4" r="4" transform="translate(514 576)" fill="#ffebd4"/>
      <circle id="Ellipse_61" data-name="Ellipse 61" cx="4" cy="4" r="4" transform="translate(265 572)" fill="#ffebd4"/>
    </g>
    <g id="beastie_1" data-name="beastie 1" transform="translate(49.546 -160.868)">
      <g id="Group_5583" data-name="Group 5583" transform="translate(334.372 646.796)">
        <path id="Path_6301" data-name="Path 6301" d="M357.864,710.459c-1.281-7.56-2.576-15.12-3.826-22.687a2.439,2.439,0,0,0-1.332-1.928c-3.881-2.271-6.149-5.862-7.663-9.955-2.266-6.128-2.927-12.39-.84-18.7a16.362,16.362,0,0,1,2.567-4.835c3.029-3.886,7.462-4.418,11.484-1.573a19.085,19.085,0,0,1,6.769,9.421c2.328,6.383,2.989,12.886.581,19.4a17.071,17.071,0,0,1-2.657,4.446,2.714,2.714,0,0,0-.626,2.4q3.814,22.311,7.564,44.631a8.666,8.666,0,0,1,.119,2.366,3.963,3.963,0,0,1-3.547,3.483,4.388,4.388,0,0,1-4.483-2.78,12.326,12.326,0,0,1-.382-1.749q-1.866-10.973-3.722-21.947Z" transform="translate(-342.943 -647.594)" fill="#eb9c22"/>
        <path id="Path_6302" data-name="Path 6302" d="M426.025,682.064c-1.007-.217-1.825-.386-2.639-.571-2.429-.551-3.226-1.777-2.7-4.2q2.969-13.8,5.952-27.6c.084-.39.151-.784.256-1.168.365-1.331,1.235-1.931,2.388-1.663,1.169.27,1.644,1.128,1.344,2.526-1.146,5.356-2.312,10.709-3.456,16.066-.322,1.507.172,2.4,1.472,2.8,1.628.494,2.531-.09,2.939-1.963,1.146-5.255,2.267-10.515,3.412-15.77.345-1.584,1.323-2.242,2.645-1.776,1.3.456,1.463,1.422,1.191,2.651q-1.723,7.8-3.377,15.624c-.347,1.629.132,2.6,1.4,3,1.575.494,2.508,0,2.866-1.625,1.157-5.253,2.276-10.513,3.428-15.765.115-.522.222-1.219.585-1.474a3.07,3.07,0,0,1,2.07-.671c.551.116,1.108.9,1.358,1.515a3.307,3.307,0,0,1-.136,1.742q-2.945,13.731-5.918,27.455c-.692,3.2-1.6,3.775-4.816,3.085l-1.894-.409-.438,2.033q-4.917,22.781-9.846,45.558a8.476,8.476,0,0,1-.888,2.509,4.171,4.171,0,0,1-4.848,1.656,4.27,4.27,0,0,1-2.85-4.833c.961-4.632,1.98-9.251,2.978-13.876q3.576-16.574,7.153-33.149C425.762,683.284,425.866,682.8,426.025,682.064Z" transform="translate(-369.397 -646.796)" fill="#eb9c22"/>
      </g>
      <g id="Group_5584" data-name="Group 5584" transform="translate(334.372 647.491)">
        <path id="Path_6303" data-name="Path 6303" d="M357.864,711.554c-1.281-7.561-2.576-15.12-3.826-22.686a2.439,2.439,0,0,0-1.332-1.928c-3.881-2.271-6.149-5.863-7.663-9.955-2.266-6.129-2.927-12.39-.84-18.7a16.359,16.359,0,0,1,2.567-4.836c3.029-3.885,7.462-4.418,11.484-1.572a19.083,19.083,0,0,1,6.769,9.421c2.328,6.381,2.989,12.886.581,19.4a17.053,17.053,0,0,1-2.657,4.446,2.715,2.715,0,0,0-.626,2.4q3.814,22.31,7.564,44.631a8.671,8.671,0,0,1,.119,2.367,3.964,3.964,0,0,1-3.547,3.483,4.39,4.39,0,0,1-4.483-2.781,12.28,12.28,0,0,1-.382-1.749q-1.866-10.972-3.722-21.946Z" transform="translate(-342.943 -648.688)" fill="#fff"/>
        <path id="Path_6304" data-name="Path 6304" d="M426.025,683.158c-1.007-.217-1.825-.386-2.639-.571-2.429-.551-3.226-1.776-2.7-4.2q2.969-13.8,5.952-27.6c.084-.389.151-.784.256-1.167.365-1.33,1.235-1.931,2.388-1.663,1.169.271,1.644,1.128,1.344,2.526-1.146,5.357-2.312,10.709-3.456,16.065-.322,1.507.172,2.4,1.472,2.8,1.628.494,2.531-.09,2.939-1.963,1.146-5.254,2.267-10.514,3.412-15.769.345-1.585,1.323-2.243,2.645-1.777,1.3.457,1.463,1.423,1.191,2.651q-1.723,7.8-3.377,15.624c-.347,1.629.132,2.6,1.4,3,1.575.494,2.508,0,2.866-1.625,1.157-5.252,2.276-10.512,3.428-15.766.115-.522.222-1.219.585-1.473a3.074,3.074,0,0,1,2.07-.672c.551.117,1.108.9,1.358,1.515a3.31,3.31,0,0,1-.136,1.743q-2.945,13.731-5.918,27.455c-.692,3.2-1.6,3.775-4.816,3.084l-1.894-.409L433.958,687q-4.917,22.78-9.846,45.558a8.474,8.474,0,0,1-.888,2.508,4.169,4.169,0,0,1-4.848,1.657,4.271,4.271,0,0,1-2.85-4.834c.961-4.632,1.98-9.252,2.978-13.876q3.576-16.575,7.153-33.149C425.762,684.379,425.866,683.9,426.025,683.158Z" transform="translate(-369.397 -647.89)" fill="#fff"/>
      </g>
      <g id="Group_5588" data-name="Group 5588" transform="translate(319.454 690.641)">
        <g id="Group_5585" data-name="Group 5585" transform="translate(0 0)">
          <path id="Path_6305" data-name="Path 6305" d="M361.929,809.627c-3.162,0-6.2-1.749-9.295-5.347-1.322-1.54-2.667-2.387-3.787-2.387-1.363,0-2.6,1.262-3.4,2.32-2.654,3.517-5.812,5.3-9.386,5.3a12.038,12.038,0,0,1-3.652-.6c-5.145-1.641-7.941-5.747-7.875-11.563.038-3.281.029-6.629.02-9.866q-.006-2.118-.007-4.235c-.477-13.17.542-30.116,12.663-44.522a49.549,49.549,0,0,1,37.882-17.9c19.187,0,36.323,10.981,44.721,28.658,3.893,8.2,5.716,17.263,5.91,29.4.111,6.879.046,12.96-.2,18.59-.336,7.73-4.525,10.5-7.981,11.469a12.825,12.825,0,0,1-3.441.5c-3.576,0-6.782-1.716-9.526-5.1-.936-1.156-2.3-2.532-3.5-2.532-1.038,0-2.5,1.023-4.106,2.879-2.88,3.321-5.8,4.937-8.917,4.937-3.169,0-6.122-1.665-9.026-5.092-.994-1.172-2.489-2.57-3.962-2.57-1.4,0-2.827,1.278-3.773,2.351C368.091,807.939,365.116,809.627,361.929,809.627Z" transform="translate(-321.279 -717.656)" fill="#f6bd60"/>
          <path id="Path_6306" data-name="Path 6306" d="M373.267,722.183a46.122,46.122,0,0,1,41.853,26.845c4.252,8.951,5.449,18.4,5.6,28.09.1,6.131.069,12.275-.2,18.4-.166,3.826-1.371,7.35-5.663,8.549a9.565,9.565,0,0,1-2.586.378c-2.779,0-5.035-1.429-7.06-3.927s-3.972-3.707-5.969-3.707c-2.09,0-4.221,1.339-6.505,3.974-2.22,2.56-4.371,3.841-6.518,3.841-2.182,0-4.361-1.323-6.6-3.97-2.086-2.461-4.235-3.692-6.384-3.692-2.069,0-4.138,1.141-6.154,3.424-2.495,2.825-4.747,4.239-6.982,4.239s-4.455-1.414-6.885-4.242c-1.985-2.31-4.112-3.493-6.2-3.493s-4.12,1.177-5.936,3.583c-1.936,2.565-4.155,4.036-6.85,4.036a8.847,8.847,0,0,1-2.688-.447c-3.988-1.271-5.712-4.343-5.663-8.5.054-4.732.012-9.464.012-14.2-.562-15.388,1.492-30.03,11.919-42.419a46.036,46.036,0,0,1,35.451-16.766m-21.185,33.973c2.542,0,3.545-2.337,3.537-4.792-.008-2.374-.446-5.02-3.362-5.032h-.018c-2.775,0-2.63,2.721-2.98,5.063.723,1.53-.269,4.62,2.62,4.757.069,0,.136,0,.2,0m41.884-.109c2.913,0,2.873-2.8,2.941-5.232-.552-1.523.991-4.263-2.527-4.446-.116-.006-.227-.009-.335-.009-3.133,0-3.058,2.486-3.177,4.547-.13,2.251.156,5.086,3.014,5.138h.085m-35.444,22.5c-2,0-3.962-1.346-5.965-3.355a2.247,2.247,0,0,0-1.447-.837,1.337,1.337,0,0,0-.82.31c.608,3.473,4.446,8.713,7.177,9.44a3.962,3.962,0,0,0,1.022.142c2.307,0,3.436-2.347,4.869-3.689a3.778,3.778,0,0,1,2.485-1.268c1.165,0,2.09.966,3.07,2.138,1.407,1.682,2.874,2.687,4.361,2.687,1.254,0,2.52-.714,3.776-2.338,1.235-1.6,2.373-2.259,3.483-2.259,1.355,0,2.669.986,4.07,2.46.843.888,1.809,2.434,3.069,2.434a1.973,1.973,0,0,0,1.208-.469c3.113-2.4,7.407-4.087,7.425-9.048a2.269,2.269,0,0,0-1.2-.394c-.969,0-1.62.839-2.173,1.342-1.792,1.633-3.494,2.686-5.186,2.686-1.522,0-3.035-.851-4.6-2.9a3.262,3.262,0,0,0-2.537-1.486,3.6,3.6,0,0,0-2.721,1.592c-1.617,2.026-3.219,3.093-4.82,3.093-1.553,0-3.1-1-4.667-3.108a3.442,3.442,0,0,0-2.6-1.649,2.785,2.785,0,0,0-2.165,1.272c-1.756,2.267-3.446,3.2-5.111,3.2m14.748-62.714v0a51.6,51.6,0,0,0-21.629,4.71,53.3,53.3,0,0,0-18.682,14.318c-12.8,15.213-13.9,32.892-13.411,46.623q0,2.1.008,4.2c.008,3.222.017,6.552-.02,9.805-.083,7.224,3.593,12.555,10.085,14.625a15.2,15.2,0,0,0,4.617.748c3.179,0,7.827-1.139,11.92-6.561a5.034,5.034,0,0,1,.921-.976,5.7,5.7,0,0,1,1.324,1.2c3.731,4.343,7.559,6.455,11.7,6.455,4.108,0,7.949-2.089,11.744-6.387a5.732,5.732,0,0,1,1.392-1.227,6.128,6.128,0,0,1,1.54,1.4c3.5,4.122,7.347,6.213,11.448,6.213,4.039,0,7.846-2.03,11.316-6.032a10.122,10.122,0,0,1,1.645-1.584,8.476,8.476,0,0,1,1.1,1.157c3.378,4.166,7.412,6.277,11.993,6.277a15.973,15.973,0,0,0,4.3-.612c8.52-2.381,10.11-10.037,10.3-14.389.247-5.692.313-11.835.2-18.778-.2-12.615-2.12-22.087-6.218-30.713-8.93-18.8-27.164-30.471-47.588-30.471Z" transform="translate(-319.454 -715.832)" fill="#fff"/>
        </g>
        <g id="Group_5586" data-name="Group 5586" transform="translate(69.483 28.623)">
          <path id="Path_6307" data-name="Path 6307" d="M434.329,773.991a3.668,3.668,0,0,1-2.737-1.134c-.95-1.025-1.345-2.665-1.21-5.013l.02-.374c.1-1.9.261-5.071,4.109-5.071q.186,0,.385.01c3.421.179,3.345,2.583,3.3,3.875a3.86,3.86,0,0,0,.069,1.2.93.93,0,0,1,.056.351l-.006.275c-.062,2.343-.155,5.885-3.886,5.885Z" transform="translate(-429.404 -761.446)" fill="#fff"/>
          <path id="Path_6308" data-name="Path 6308" d="M433.964,762.8c.108,0,.22,0,.335.009,3.517.183,1.974,2.923,2.526,4.446-.068,2.435-.028,5.232-2.94,5.232H433.8c-2.857-.052-3.144-2.887-3.014-5.139.119-2.062.044-4.548,3.177-4.548m0-1.905c-4.752,0-4.968,4.187-5.06,5.975l-.02.368c-.152,2.62.326,4.49,1.461,5.714a4.614,4.614,0,0,0,3.42,1.44h.12c4.658,0,4.78-4.6,4.838-6.811l.007-.273a1.9,1.9,0,0,0-.113-.7,4.97,4.97,0,0,1-.013-.843c.041-1.266.149-4.63-4.206-4.857-.15-.008-.295-.011-.434-.011Z" transform="translate(-428.857 -760.899)" fill="#fff"/>
        </g>
        <g id="Group_5587" data-name="Group 5587" transform="translate(27.899 28.595)">
          <path id="Path_6309" data-name="Path 6309" d="M368.658,774.085c-.081,0-.164,0-.248-.006-2.82-.132-3.045-2.481-3.179-3.884a4.978,4.978,0,0,0-.258-1.418.95.95,0,0,1-.081-.548c.049-.325.087-.657.126-.988.241-2.062.57-4.887,3.8-4.887,2.87.011,4.32,2.024,4.333,5.982a6.382,6.382,0,0,1-1.557,4.58,4.038,4.038,0,0,1-2.933,1.169Z" transform="translate(-363.929 -761.402)" fill="#fff"/>
          <path id="Path_6310" data-name="Path 6310" d="M368.268,762.76h.018c2.916.012,3.354,2.658,3.362,5.032.008,2.456-.994,4.793-3.537,4.793-.067,0-.134,0-.2,0-2.889-.137-1.9-3.227-2.62-4.757.35-2.342.205-5.063,2.98-5.063m0-1.905c-4.074,0-4.509,3.726-4.743,5.728-.037.321-.075.643-.122.958a1.9,1.9,0,0,0,.161,1.1,5.388,5.388,0,0,1,.17,1.1c.132,1.368.438,4.573,4.084,4.744.1.005.2.007.292.007a4.974,4.974,0,0,0,3.608-1.449,7.311,7.311,0,0,0,1.834-5.255c-.019-5.711-2.87-6.922-5.259-6.931Z" transform="translate(-363.382 -760.855)" fill="#fff"/>
        </g>
      </g>
    </g>
    <g id="title_1" data-name="title 1" transform="translate(268.788 365.873)">
      <path id="Path_251" data-name="Path 251" d="M29.058-53.882l.228.114q.228.114.494.266a2.785,2.785,0,0,0,.494.228q1.064.608,1.1.646a6.953,6.953,0,0,1-.722,1.178l-.76,1.216a4.875,4.875,0,0,0,.684.836q.912.988,2.28,2.508a14.988,14.988,0,0,0,2.432,2.28L37.037-43.4l.836.608v2.318a2.868,2.868,0,0,1-.038.532l-.038.19q-.076,0-1.976-1.444-1.444-1.064-1.786-1.368a7.792,7.792,0,0,1-.95-1.14q-.836-1.14-2.28-3.268-1.444-2.2-1.52-2.28a29.277,29.277,0,0,0-1.672,2.66L25.942-44l-2.584,2.66q-2.584,2.66-2.66,2.66t-.228-.3a.9.9,0,0,1,.228-.722q.3-.418,1.824-2.394a23.8,23.8,0,0,0,1.9-2.888q.3-.684,2.432-4.939Q28.83-53.882,29.058-53.882Zm-11.931-.076v7.6h2.964v1.444H17.127v7.143l.532-.3q.456-.228,1.216-.684a5.506,5.506,0,0,1,.836-.38q.076,0,.076,1.064v1.064l-1.368.684-1.292.684v5.167a48.14,48.14,0,0,1-.152,5.623,5.714,5.714,0,0,1-.38.988,4.993,4.993,0,0,1-.684.988,5.268,5.268,0,0,1-1.064.722,6.84,6.84,0,0,1-.76.342l-.228.076v-6.079q0-6-.076-6a16.759,16.759,0,0,0-1.52.76,16.761,16.761,0,0,1-1.52.76v-.988l-.076-1.064,1.6-.836,1.52-.836.076-4.408v-4.484H12.036l-1.824-.076v-1.368H13.86v-7.6h3.268Zm8.739,18.086.076.608v.608h6.763v-.608l.076-.532h3.192v5.4q0,2.2-.038,3.382T35.9-25.271a2.859,2.859,0,0,1-.076.8,2.525,2.525,0,0,1-.3.988,2.73,2.73,0,0,1-.532.8,2.48,2.48,0,0,1-.8.608,2.272,2.272,0,0,1-.95.19h-.456v-3.04l-3.5.076h-3.42l-.076.38a4.771,4.771,0,0,1-.3.912,2.875,2.875,0,0,1-.608.912,2.893,2.893,0,0,1-.76.532,2.869,2.869,0,0,1-.912.152h-.532V-35.872h3.192Zm3.5,2.66q-3.344,0-3.382.038t-.038,3.458v3.344h6.839l-.076-3.42v-3.344ZM34.833-39.6H24.5v-1.444H34.833Z" transform="translate(90 112.008)" fill="#66ab8c"/>
      <path id="Path_250" data-name="Path 250" d="M17.1-55.338l.076.988v.988h4.711v1.444H17.181l-.152.76a7.214,7.214,0,0,1-.3,1.064l-.228.456h1.824l.3-.456q.3-.532.38-.532t1.14.228q1.064.228,1.14.266t-.57,1.178a20.875,20.875,0,0,1-1.254,1.976q-.608.836-1.368,1.824-.76.912-1.6,1.824a20.485,20.485,0,0,1-1.824,1.748A12.382,12.382,0,0,1,13-40.292a12.062,12.062,0,0,1-1.52.912q-.684.38-1.368.684-.608.228-1.368.456a9.611,9.611,0,0,1-1.368.228,3,3,0,0,1-.8.114q-.038-.038.038-.342t.836-.608a7.061,7.061,0,0,0,1.52-.76,9.383,9.383,0,0,0,1.672-1.064q.76-.608,1.9-1.6,1.064-.912,1.064-1.064a3.305,3.305,0,0,0-.456-.684,7.737,7.737,0,0,1-.836-1.444l-.456-.912.228-.3q.228-.3.3-.3t.532.456A11.526,11.526,0,0,0,14.141-45.5q.76.57.874.532a4.218,4.218,0,0,0,.722-.874,13.589,13.589,0,0,0,1.14-1.6l.532-.684H12.165l-.38.684q-.38.608-.988,1.444a10.35,10.35,0,0,1-1.292,1.52,10.219,10.219,0,0,1-1.368,1.292l-.684.532v-.532a3.064,3.064,0,0,1,.456-1.368,12.063,12.063,0,0,0,.912-1.52q.3-.608.912-2.128a23.491,23.491,0,0,0,.912-2.66l.38-1.292h1.444q1.444,0,1.444.114a8.031,8.031,0,0,1-.456,1.178L13-49.715l.912.076H14.9v-2.736a21.923,21.923,0,0,1,.076-2.888q0-.076,1.064-.076Zm16.262,1.52q1.444,0,1.444.114a2,2,0,0,1-.228.57,9.936,9.936,0,0,1-.532,1.216q-.38.684-.836,1.368a6.349,6.349,0,0,1-.76,1.216q-.38.456-.912,1.064l-.456.456.684.532a15.713,15.713,0,0,1,1.444,1.292,9.684,9.684,0,0,1,1.216,1.444l.456.684-.912.456a6.794,6.794,0,0,1-.988.608l-.836-.912A16.487,16.487,0,0,0,30.4-45.5a5.677,5.677,0,0,0-1.1-.874,3.415,3.415,0,0,0-.8.38,10.553,10.553,0,0,1-1.52.684,10.377,10.377,0,0,1-1.368.532l-.532.152-.456-.228a2.118,2.118,0,0,1-.456-.342,1.678,1.678,0,0,1,.456-.266l1.064-.532q.532-.38,1.292-.912a3.2,3.2,0,0,0,.76-.608q0-.076-.608-.456-.684-.38-1.368-.684a5.927,5.927,0,0,0-1.216-.532q-.38-.152-.418-.342a.454.454,0,0,1,0-.266q.038-.076.8-.076a8.562,8.562,0,0,1,1.52.152,11,11,0,0,1,1.6.456,9.753,9.753,0,0,0,.988.3q.076.076.494-.456t.95-1.368a4.451,4.451,0,0,0,.532-.95,19.343,19.343,0,0,0-3.42-.114H24.248v-1.52H31.7l.076-.228.076-.228Zm-9.5,7.523-.3.456q-.076.152-.228.418a1.891,1.891,0,0,1-.228.342.323.323,0,0,0,0,.3q.152.076,2.736,1.672,2.356,1.368,3.42,2.052a18.359,18.359,0,0,0,1.976,1.14,24.918,24.918,0,0,0,2.508,1.064q1.368.532,2.964,1.064,1.368.456,1.52.532,0,.076-.3.3l-.228.228-.836-.152q-.76-.076-2.2-.38l-2.888-.76q-1.672-.532-1.748-.532l-.038.076a.944.944,0,0,0-.038.342v2.166q0,2.584-.076,3.5a7.484,7.484,0,0,1-.228,1.292,2.691,2.691,0,0,1-.456.836,2.28,2.28,0,0,1-.494.494,1.082,1.082,0,0,1-.646.19h-.456v-.684H22.652q-5.015,0-5.015.038a13.617,13.617,0,0,0,1.292.8q1.292.912,2.2,1.444,1.14.608,1.976.988.988.38,1.444.608l.456.152.532-.836q.3-.38.988-1.444.456-.684.532-.684a8.49,8.49,0,0,1,1.1.646,9.231,9.231,0,0,1,1.026.684q0,.038-.76,1.026-.684.836-.912,1.14-.076.228.038.266t1.254.266a7.476,7.476,0,0,0,1.178.228q.646.076,1.1.152l1.064.076.038.19.114.57q.076.38.152.684a5.775,5.775,0,0,1,.152,1.558q-.076.114-.646.114a7.481,7.481,0,0,1-1.368-.152q-.8-.152-1.862-.456a12.722,12.722,0,0,1-2.2-.76,20.707,20.707,0,0,1-2.128-.988q-.912-.456-1.862-.988T20.6-26.233q-1.064-.76-1.672-1.216-.76-.608-1.292-1.064l-.608-.608v1.976a16.935,16.935,0,0,1-.114,2.584,5.766,5.766,0,0,1-.342,1.064,5.468,5.468,0,0,1-.684.836,2.474,2.474,0,0,1-.836.494,2.633,2.633,0,0,1-.76.114h-.456v-6.915a59.139,59.139,0,0,0-.152-6.915q-.076,0-1.14.38a18.979,18.979,0,0,1-2.2.684,15.42,15.42,0,0,1-1.9.38,6.4,6.4,0,0,1-1.064.152,8.063,8.063,0,0,1-.912-.076l-.532-.076L7-34.744q1.064-.3,1.9-.608.76-.3,1.9-.836.988-.532,1.9-1.064.684-.456,1.6-1.14a15.71,15.71,0,0,0,1.444-1.292,23.269,23.269,0,0,0,1.672-1.9,20.833,20.833,0,0,0,1.824-2.888l.912-1.748h.684q.076,0,1.9-.076Zm-2.052,3.8a.6.6,0,0,0-.152-.114q-.076-.038-.076,0a4.492,4.492,0,0,0,.684.494q.684.532,1.216.988a5.146,5.146,0,0,1,.988,1.14,4.583,4.583,0,0,1,.532.912,2.97,2.97,0,0,1,.228.608v.228l1.14.076h1.14l.076-.228q.076-.228,1.14-.228H29.8l-1.064-.456a19.543,19.543,0,0,1-2.052-.836q-.76-.38-2.66-1.444Q22.2-42.343,21.816-42.5Zm.456,3.116a11.44,11.44,0,0,0-.646-1.634,2.834,2.834,0,0,1-.38-1.064q.038-.19,0-.19t-.266.38a10.812,10.812,0,0,1-1.064,1.52q-.912,1.14-1.368,1.6a4.607,4.607,0,0,0-.532.57q0,.038,2.2.038H22.5v-.228A4.632,4.632,0,0,0,22.272-39.38Zm-5.243,4.408H27.592V-36.72H17.029Zm0,3.116H27.592v-1.6H17.029Z" transform="translate(170.667 112.628)" fill="#f48145"/>
      <g id="Group_73" data-name="Group 73" transform="translate(138.332 50.707)">
        <g id="Group_67" data-name="Group 67" transform="translate(4.326 17.634)">
          <path id="Path_218" data-name="Path 218" d="M655.138,689.208a2.767,2.767,0,0,1-2.767-2.832l.609-25.837a.679.679,0,1,1,1.358.032l-.609,25.837a1.409,1.409,0,1,0,2.817,0l-.609-25.837a.679.679,0,0,1,1.358-.032l.609,25.837a2.767,2.767,0,0,1-2.766,2.832Z" transform="translate(-652.371 -659.875)" fill="#f5a016"/>
        </g>
        <g id="Group_68" data-name="Group 68" transform="translate(21.429 16.9)">
          <path id="Path_219" data-name="Path 219" d="M730.674,686.7a2.767,2.767,0,0,1-2.767-2.832l.627-26.571a.68.68,0,0,1,.679-.664h.016a.679.679,0,0,1,.663.695l-.627,26.572a1.409,1.409,0,1,0,2.817,0l-.627-26.572a.679.679,0,0,1,.663-.695h.017a.679.679,0,0,1,.679.664l.627,26.571a2.767,2.767,0,0,1-2.767,2.832Z" transform="translate(-727.906 -656.634)" fill="#f5a016"/>
        </g>
        <g id="Group_69" data-name="Group 69" transform="translate(0 0.663)">
          <path id="Path_220" data-name="Path 220" d="M641.839,603.253a.679.679,0,0,1-.2-1.327c2.585-.817,4.461-4.065,4.461-7.723,0-4.368-2.572-7.922-5.734-7.922s-5.734,3.554-5.734,7.922c0,3.658,1.876,6.905,4.46,7.723a.679.679,0,0,1-.409,1.3c-3.185-1.007-5.41-4.715-5.41-9.018,0-5.117,3.182-9.281,7.093-9.281s7.093,4.163,7.093,9.281c0,4.3-2.224,8.011-5.409,9.018A.681.681,0,0,1,641.839,603.253Z" transform="translate(-633.267 -584.923)" fill="#f5a016"/>
        </g>
        <g id="Group_70" data-name="Group 70" transform="translate(18.172 0)">
          <path id="Path_221" data-name="Path 221" d="M719.547,600.457a6.031,6.031,0,0,1-6.024-6.024V582.674a.679.679,0,1,1,1.359,0v11.759a4.666,4.666,0,1,0,9.331,0V582.674a.679.679,0,1,1,1.359,0v11.759A6.031,6.031,0,0,1,719.547,600.457Z" transform="translate(-713.523 -581.995)" fill="#f5a016"/>
        </g>
        <g id="Group_71" data-name="Group 71" transform="translate(21.736 0)">
          <path id="Path_222" data-name="Path 222" d="M729.939,596.538a.679.679,0,0,1-.679-.679V582.674a.679.679,0,1,1,1.359,0v13.184A.679.679,0,0,1,729.939,596.538Z" transform="translate(-729.26 -581.995)" fill="#f5a016"/>
        </g>
        <g id="Group_72" data-name="Group 72" transform="translate(25.299 0)">
          <path id="Path_223" data-name="Path 223" d="M745.676,596.538a.679.679,0,0,1-.679-.679V582.674a.679.679,0,1,1,1.359,0v13.184A.679.679,0,0,1,745.676,596.538Z" transform="translate(-744.997 -581.995)" fill="#f5a016"/>
        </g>
      </g>
    </g>
  </g>
</svg>
