<svg xmlns="http://www.w3.org/2000/svg" width="140.565" height="128.424" viewBox="0 0 140.565 128.424">
  <g id="Group_5993" data-name="Group 5993" transform="translate(-750.059 -1404.18)">
    <path id="Path_6672" data-name="Path 6672" d="M888.633,1490.223l-21.282-3.024a2.691,2.691,0,0,0-3,3.475l1.753,5.607a18.047,18.047,0,0,0-11.492,9.884l-.156.452c-1.291,4.341-3.09,7.107-5.2,8a4.74,4.74,0,0,1-2.051.33c2.484-6.163,3.644-14.333,3.644-25.251,0-30.887-7.933-48.5-18.786-58.158,3.5-10.114,2.828-17.4,1.836-21.44a1.2,1.2,0,0,0-2.235-.3c-3.543,6.5-15.906,12.585-15.906,12.585s-.393-.062-1.054-.159c.2-8.476-1.8-14.156-3.468-17.371a1.2,1.2,0,0,0-2.243.241c-1.859,6.928-11.831,15.446-12.477,15.993a55.254,55.254,0,0,0-11.739,2.057c-7.522,2.956-9.15,3.224-15.033,8.092-15.287,13.331-17.656,37.132-17.656,56.6,0,16.169,3.418,27.018,10.754,34.142,7.558,7.339,19.06,10.629,37.775,10.629q3.5,0,7.353-.152c15.03-.592,25.684-1.51,32.874-8.048a17.8,17.8,0,0,0,6.607,1.325,15.119,15.119,0,0,0,5.7-1.1c5.26-2.122,9.1-7.027,11.414-14.58a7.225,7.225,0,0,1,4.742-3.541l1.4,4.478a2.665,2.665,0,0,0,4.283,1.244l15.092-18.205A2.336,2.336,0,0,0,888.633,1490.223Zm-53.122,26.429c-4.778,5.22-13.728,5.936-27.9,6.494-20.376.8-31.856-1.555-38.375-7.882-5.405-5.25-7.923-13.966-7.923-27.431,0-40.384,12.01-57.615,40.156-57.615,26.647,0,40.157,20.01,40.157,59.474C841.626,1503.527,839.682,1512.094,835.511,1516.652Z" fill="#438b6b"/>
    <g id="Group_5992" data-name="Group 5992">
      <path id="Path_6673" data-name="Path 6673" d="M835.511,1516.652c-4.778,5.22-13.728,5.936-27.9,6.494-20.376.8-31.856-1.555-38.375-7.882-5.405-5.249-7.923-13.966-7.923-27.431,0-40.384,12.01-57.615,40.156-57.615,26.647,0,40.157,20.01,40.157,59.474C841.626,1503.527,839.682,1512.094,835.511,1516.652Z" fill="#f1f6e5"/>
      <g id="Group_5989" data-name="Group 5989">
        <path id="Path_6674" data-name="Path 6674" d="M767.543,1443.992c-9.2-.314-17.122,7.275-17.472,16.731a16.991,16.991,0,0,0,33.967,1.009A17.324,17.324,0,0,0,767.543,1443.992Zm-.771,26.591a9.255,9.255,0,0,1-9.166-9.7,9.452,9.452,0,1,1,18.893.561A9.263,9.263,0,0,1,766.772,1470.583Z" fill="#438b6b"/>
      </g>
      <g id="Group_5990" data-name="Group 5990">
        <path id="Path_6675" data-name="Path 6675" d="M766.772,1470.583a9.255,9.255,0,0,1-9.166-9.7,9.452,9.452,0,1,1,18.893.561A9.263,9.263,0,0,1,766.772,1470.583Z" fill="#fff"/>
      </g>
      <ellipse id="Ellipse_455" data-name="Ellipse 455" cx="4.697" cy="4.742" rx="4.697" ry="4.742" transform="translate(758.517 1457.958)" fill="#438b6b"/>
      <g id="Group_5991" data-name="Group 5991">
        <path id="Path_6676" data-name="Path 6676" d="M780.907,1495.06a13.92,13.92,0,0,1-5.432-1.107,36.889,36.889,0,0,0-5.722-1.872,9.571,9.571,0,0,0-3.2-.359,6.414,6.414,0,0,0-3.505,1.994,3.732,3.732,0,0,1-5.312-.114,3.818,3.818,0,0,1,.113-5.363,13.527,13.527,0,0,1,7.744-4.041,16.149,16.149,0,0,1,5.888.5,44.637,44.637,0,0,1,6.883,2.252,6.823,6.823,0,0,0,5.087.084,10.607,10.607,0,0,0,3.59-2.951,3.731,3.731,0,0,1,5.281-.592,3.818,3.818,0,0,1,.586,5.332,17.416,17.416,0,0,1-7.123,5.423A15.512,15.512,0,0,1,780.907,1495.06Z" fill="#438b6b"/>
      </g>
    </g>
  </g>
</svg>
