<svg xmlns="http://www.w3.org/2000/svg" width="12.549" height="16.887" viewBox="0 0 12.549 16.887">
  <path id="Path_1016" data-name="Path 1016" d="M766.963,179.243a4.835,4.835,0,0,1-.968,1.69c-.107.162-.235.155-.379.053q-1.367-.966-2.737-1.932c-.159-.112-.149-.239-.048-.382a4.8,4.8,0,0,1,1.322-1.491,1.525,1.525,0,0,1,1.06-.183,3.177,3.177,0,0,1,.975.379l0,0a1.969,1.969,0,0,1,.565.631A1.83,1.83,0,0,1,766.963,179.243Z" transform="translate(-754.44 -176.973)"/>
  <path id="Path_1017" data-name="Path 1017" d="M749.49,195.735c-.233.07-.31-.018-.3-.186.086-1.129.172-2.259.272-3.387.019-.213.2-.362.319-.532q3.338-4.738,6.671-9.48c.229-.328.4-.345.709-.113.79.587,1.6,1.151,2.411,1.707.268.183.307.335.112.61q-3.444,4.854-6.87,9.722a1.119,1.119,0,0,1-.463.406q-1.373.6-2.743,1.21A1.232,1.232,0,0,1,749.49,195.735Z" transform="translate(-749.191 -178.872)" />
</svg>
