<svg xmlns="http://www.w3.org/2000/svg" width="141.017" height="79.749" viewBox="0 0 141.017 79.749">
  <path id="Union_2" data-name="Union 2" d="M6.235,75.551a32.722,32.722,0,0,0,8.171-7.611c-5-.29-8.96-3.918-8.96-8.353V8.372C5.446,3.749,9.747,0,15.053,0H134.505c5.305,0,9.607,3.749,9.607,8.372V59.587c0,4.624-4.3,8.372-9.607,8.372H30.523C23.07,75.275,11.479,78.749,6.5,78.749,3.714,78.748,3,77.661,6.235,75.551ZM69.5,67.959c.642.91.326,1.368.008,1.368S68.877,68.873,69.5,67.959Z" transform="translate(-3.595 0.5)" fill="#fff" stroke="#e5e5e5" stroke-miterlimit="10" stroke-width="1"/>
</svg>
