<!-- 有stroke  -->
<svg xmlns="http://www.w3.org/2000/svg" width="35.3" height="35.3" viewBox="0 0 35.3 35.3">
  <path id="_016-networking" data-name="016-networking" d="M28,14a7,7,0,1,0-6.337-9.955l-1.874-.692a2.832,2.832,0,0,0,.044-.436,2.942,2.942,0,1,0-.446,1.532l1.871.691a6.873,6.873,0,0,0,.1,4.048l-6.416,2.719A6.966,6.966,0,0,0,6.283,8.624L4.669,5.233a2.9,2.9,0,1,0-1.752.6,2.868,2.868,0,0,0,.7-.1L5.23,9.126A6.988,6.988,0,0,0,4.856,20.98L3.789,22.9a2.887,2.887,0,0,0-.872-.148,2.951,2.951,0,1,0,1.892.715l1.069-1.922A6.941,6.941,0,0,0,13,20.713l2.3,2.526A6.967,6.967,0,0,0,13.417,28a7.045,7.045,0,0,0,.087,1.047l-2.7.641a2.9,2.9,0,1,0,.281,1.228c0-.032-.009-.062-.009-.095l2.7-.639A7,7,0,1,0,26.582,24.69l3.427-2.228a2.974,2.974,0,1,0-.633-.98l-3.435,2.233a7.039,7.039,0,0,0-2.607-2.071l2.847-7.893A6.975,6.975,0,0,0,28,14ZM16.917,4.667a1.75,1.75,0,1,1,1.75-1.75A1.752,1.752,0,0,1,16.917,4.667ZM1.167,2.917a1.75,1.75,0,1,1,1.75,1.75A1.752,1.752,0,0,1,1.167,2.917Zm1.75,24.5a1.75,1.75,0,1,1,1.75-1.75A1.752,1.752,0,0,1,2.917,27.417Zm5.25,5.25a1.75,1.75,0,1,1,1.75-1.75A1.752,1.752,0,0,1,8.167,32.667Zm23.917-14a1.75,1.75,0,1,1-1.75,1.75A1.752,1.752,0,0,1,32.084,18.667ZM24.565,11.7a2.925,2.925,0,0,1,2.852-2.371h1.167A2.925,2.925,0,0,1,31.436,11.7a5.79,5.79,0,0,1-6.871,0ZM28,8.167a1.75,1.75,0,1,1,1.75-1.75A1.752,1.752,0,0,1,28,8.167Zm0-7a5.825,5.825,0,0,1,4.4,9.648,4.132,4.132,0,0,0-2.323-2.36,2.917,2.917,0,1,0-4.16,0,4.132,4.132,0,0,0-2.323,2.36A5.825,5.825,0,0,1,28,1.167Zm-25.084,14a5.833,5.833,0,1,1,10.228,3.824,4.133,4.133,0,0,0-2.326-2.369,2.917,2.917,0,1,0-4.161,0,4.131,4.131,0,0,0-2.32,2.35A5.8,5.8,0,0,1,2.917,15.167Zm4.072-.583a1.75,1.75,0,1,1,1.75,1.75A1.752,1.752,0,0,1,6.988,14.583Zm-1.683,5.28A2.924,2.924,0,0,1,8.155,17.5H9.322a2.924,2.924,0,0,1,2.853,2.378,5.788,5.788,0,0,1-6.87-.015ZM16.972,32.7a2.924,2.924,0,0,1,2.85-2.363h1.167a2.924,2.924,0,0,1,2.853,2.378,5.788,5.788,0,0,1-6.87-.015Zm3.433-3.53a1.75,1.75,0,1,1,1.75-1.75A1.752,1.752,0,0,1,20.405,29.167ZM26.25,28a5.8,5.8,0,0,1-1.438,3.824,4.133,4.133,0,0,0-2.326-2.369,2.917,2.917,0,1,0-4.161,0,4.131,4.131,0,0,0-2.32,2.35A5.83,5.83,0,1,1,26.25,28Zm-4.014-6.752a6.9,6.9,0,0,0-6.073,1.205l-2.3-2.526A6.949,6.949,0,0,0,15.4,12.98l6.416-2.719a7.038,7.038,0,0,0,3.273,3.095Zm0,0" transform="translate(0.15 0.15)" stroke-width="0.5"/>
</svg>
