<svg xmlns="http://www.w3.org/2000/svg" width="761" height="15.87" viewBox="0 0 761 15.87">
  <g id="Group_5704" data-name="Group 5704" transform="translate(191 -440.13)">
    <g id="Group_50" data-name="Group 50" transform="translate(-553 -728.87)">
      <path id="Path_35" data-name="Path 35" d="M420,1169.5c5.871,0,5.871,4,11.742,4s5.871-4,11.741-4,5.87,4,11.739,4,5.869-4,11.738-4,5.87,4,11.738,4,5.872-4,11.742-4,5.871,4,11.742,4,5.869-4,11.74-4,5.869,4,11.738,4,5.871-4,11.741-4,5.872,4,11.743,4,5.87-4,11.741-4,5.87,4,11.74,4,5.871-4,11.74-4,5.873,4,11.745,4,5.87-4,11.741-4,5.87,4,11.74,4,5.872-4,11.743-4,5.871,4,11.742,4,5.871-4,11.741-4,5.872,4,11.743,4,5.872-4,11.743-4,5.871,4,11.741,4,5.873-4,11.744-4,5.872,4,11.742,4,5.872-4,11.743-4,5.872,4,11.744,4,5.872-4,11.742-4,5.874,4,11.746,4,5.872-4,11.742-4,5.873,4,11.745,4,5.873-4,11.744-4,5.872,4,11.744,4,5.873-4,11.744-4,5.873,4,11.744,4,5.873-4,11.744-4,5.874,4,11.747,4,5.873-4,11.745-4,5.87,4,11.74,4,5.871-4,11.741-4,5.872,4,11.742,4,5.872-4,11.744-4,5.871,4,11.742,4,5.872-4,11.744-4,5.874,4,11.747,4,5.873-4,11.745-4,5.873,4,11.745,4,5.873-4,11.746-4,5.874,4,11.749,4,5.873-4,11.747-4,5.874,4,11.747,4,5.873-4,11.744-4,5.873,4,11.745,4,5.874-4,11.748-4,5.876,4,11.753,4,5.874-4,11.747-4,5.878,4,11.757,4,5.878-4,11.756-4" transform="translate(0)" fill="#fff" stroke="#decdbb" stroke-width="1"/>
    </g>
    <g id="Group_5703" data-name="Group 5703" transform="translate(910.144 1614.13) rotate(180)">
      <path id="Path_35-2" data-name="Path 35" d="M420,1169.5c5.871,0,5.871,4,11.742,4s5.871-4,11.741-4,5.87,4,11.739,4,5.869-4,11.738-4,5.87,4,11.738,4,5.872-4,11.742-4,5.871,4,11.742,4,5.869-4,11.74-4,5.869,4,11.738,4,5.871-4,11.741-4,5.872,4,11.743,4,5.87-4,11.741-4,5.87,4,11.74,4,5.871-4,11.74-4,5.873,4,11.745,4,5.87-4,11.741-4,5.87,4,11.74,4,5.872-4,11.743-4,5.871,4,11.742,4,5.871-4,11.741-4,5.872,4,11.743,4,5.872-4,11.743-4,5.871,4,11.741,4,5.873-4,11.744-4,5.872,4,11.742,4,5.872-4,11.743-4,5.872,4,11.744,4,5.872-4,11.742-4,5.874,4,11.746,4,5.872-4,11.742-4,5.873,4,11.745,4,5.873-4,11.744-4,5.872,4,11.744,4,5.873-4,11.744-4,5.873,4,11.744,4,5.873-4,11.744-4,5.874,4,11.747,4,5.873-4,11.745-4,5.87,4,11.74,4,5.871-4,11.741-4,5.872,4,11.742,4,5.872-4,11.744-4,5.871,4,11.742,4,5.872-4,11.744-4,5.874,4,11.747,4,5.873-4,11.745-4,5.873,4,11.745,4,5.873-4,11.746-4,5.874,4,11.749,4,5.873-4,11.747-4,5.874,4,11.747,4,5.873-4,11.744-4,5.873,4,11.745,4,5.874-4,11.748-4,5.876,4,11.753,4,5.874-4,11.747-4,5.878,4,11.757,4,5.878-4,11.756-4" transform="translate(0)" stroke="#decdbb" stroke-width="1"/>
    </g>
    <rect id="Rectangle_241" data-name="Rectangle 241" width="761" height="11" transform="translate(-191 445)" />
  </g>
</svg>

