<svg xmlns="http://www.w3.org/2000/svg" width="35.649" height="35.353" viewBox="0 0 35.649 35.353">
  <g id="Group_6188" data-name="Group 6188" transform="translate(-324 -578.337)">
    <g id="my_comment" transform="translate(324 578.337)">
      <g id="Group_6187" data-name="Group 6187" transform="translate(0 0)">
        <g id="Group_6182" data-name="Group 6182" transform="translate(6.089 13.883)">
          <g id="Group_6181" data-name="Group 6181" transform="translate(0 0)">
            <path id="Path_6768" data-name="Path 6768" d="M100.024,201.284H87.9a1.07,1.07,0,1,0,0,2.14h12.127a1.07,1.07,0,0,0,0-2.14Z" transform="translate(-86.827 -201.284)" stroke-width="0.2"/>
          </g>
        </g>
        <g id="Group_6184" data-name="Group 6184" transform="translate(5.861 25.1)">
          <g id="Group_6183" data-name="Group 6183">
            <path id="Path_6769" data-name="Path 6769" d="M94.922,363.933H87.9a1.07,1.07,0,1,0,0,2.14h7.025a1.07,1.07,0,0,0,0-2.14Z" transform="translate(-86.827 -363.933)" stroke-width="0.2"/>
          </g>
        </g>
        <g id="Group_6186" data-name="Group 6186" transform="translate(0)">
          <g id="Group_6185" data-name="Group 6185">
            <path id="Path_6770" data-name="Path 6770" d="M48.838,8.16a4.282,4.282,0,0,0-5.727.695L40.42,12.119V7.3A2.968,2.968,0,0,0,37.36,4.44H34.313V3.346a1.09,1.09,0,0,0-1.125-1.051H31.274V1.051A1.09,1.09,0,0,0,30.149,0h-5.1a1.09,1.09,0,0,0-1.125,1.051V2.295H22.011a1.09,1.09,0,0,0-1.125,1.051V4.44H17.839A2.968,2.968,0,0,0,14.779,7.3V32.494a2.968,2.968,0,0,0,3.06,2.859H37.36a2.968,2.968,0,0,0,3.06-2.859V24.626l9.161-11.115A3.655,3.655,0,0,0,48.838,8.16ZM23.136,4.4H25.05a1.09,1.09,0,0,0,1.125-1.051V2.1h2.85V3.346A1.09,1.09,0,0,0,30.149,4.4h1.914V6.585H23.136Zm15.035,28.1a.786.786,0,0,1-.811.758H17.839a.786.786,0,0,1-.811-.758V7.3a.786.786,0,0,1,.811-.758h3.048V7.636a1.09,1.09,0,0,0,1.125,1.051H33.188a1.09,1.09,0,0,0,1.125-1.051V6.542H37.36a.786.786,0,0,1,.811.758v7.549L34.29,19.557a1.2,1.2,0,0,0-.317-.043H21.227a1.053,1.053,0,1,0,0,2.1H32.71a.985.985,0,0,0-.035.3l.186,4.306a1.032,1.032,0,0,0,.437.79,1.177,1.177,0,0,0,.686.218,1.2,1.2,0,0,0,.243-.025l3.943-.816v6.1Zm-.326-8.189-2.791.578-.115-2.669L43.1,12.307l2.9,2.1ZM47.8,12.228l-.422.512-2.9-2.1.416-.5a1.924,1.924,0,0,1,2.572-.312A1.642,1.642,0,0,1,47.8,12.228Z" transform="translate(-14.779)" stroke-width="0.2"/>
          </g>
        </g>
      </g>
    </g>
  </g>
</svg>
