<!-- 有stroke  -->
<svg xmlns="http://www.w3.org/2000/svg" width="37.209" height="36.806" viewBox="0 0 37.209 36.806">
  <g id="diet" transform="translate(0.4 -2.815)">
    <path id="Path_939" data-name="Path 939" d="M190.757,33.87a.6.6,0,1,0-.6-.6A.6.6,0,0,0,190.757,33.87Z" transform="translate(-176.647 -27.37)"   stroke-width="0.8"/>
    <path id="Path_940" data-name="Path 940" d="M141.388,77.961h7.133a.533.533,0,1,0,0-1.066h-7.133a.533.533,0,1,0,0,1.066Z" transform="translate(-130.845 -68.444)"   stroke-width="0.8"/>
    <path id="Path_941" data-name="Path 941" d="M290.2,366.507v1.021a.533.533,0,0,0,1.066,0v-1.021a.533.533,0,1,0-1.066,0Z" transform="translate(-269.581 -336.98)"   stroke-width="0.8"/>
    <path id="Path_942" data-name="Path 942" d="M439.787,366.507v1.021a.533.533,0,0,0,1.066,0v-1.021a.533.533,0,1,0-1.066,0Z" transform="translate(-408.534 -336.98)"  stroke-width="0.8"/>
    <path id="Path_943" data-name="Path 943" d="M348.21,380.1a1.324,1.324,0,0,1-2,0,.533.533,0,0,0-.8.7,2.391,2.391,0,0,0,3.606,0,.533.533,0,0,0-.8-.7Z" transform="translate(-320.74 -349.932)"   stroke-width="0.8"/>
    <path id="Path_944" data-name="Path 944" d="M106.692,181.584l2.991-1.534a.533.533,0,1,0-.487-.949l-2.214,1.136v-.661a.533.533,0,1,0-1.066,0v1.534A.534.534,0,0,0,106.692,181.584Z" transform="translate(-98.389 -163.333)"   stroke-width="0.8"/>
    <path id="Path_945" data-name="Path 945" d="M187.794,190.9H192.5a.533.533,0,0,0,0-1.066h-4.707a.533.533,0,1,0,0,1.066Z" transform="translate(-173.953 -173.36)"  stroke-width="0.8"/>
    <path id="Path_946" data-name="Path 946" d="M106.692,250.181l2.991-1.534a.533.533,0,0,0-.487-.949l-2.214,1.136v-.661a.533.533,0,1,0-1.066,0v1.534A.534.534,0,0,0,106.692,250.181Z" transform="translate(-98.389 -227.055)"   stroke-width="0.8"/>
    <path id="Path_947" data-name="Path 947" d="M187.794,259.5H192.5a.533.533,0,0,0,0-1.066h-4.707a.533.533,0,1,0,0,1.066Z" transform="translate(-173.953 -237.082)"   stroke-width="0.8"/>
    <path id="Path_948" data-name="Path 948" d="M106.449,318.836c.23,0,.072.006,3.234-1.592a.533.533,0,0,0-.487-.949l-2.214,1.136v-.661a.533.533,0,0,0-1.066,0V318.3A.533.533,0,0,0,106.449,318.836Z" transform="translate(-98.389 -290.776)"  stroke-width="0.8"/>
    <path id="Path_949" data-name="Path 949" d="M4.856,38.325H21.212a5.432,5.432,0,0,0,5.259.261,5.455,5.455,0,0,0,5.761-.607,11.253,11.253,0,0,0,2.517-2.692.533.533,0,0,0-.89-.587,10.187,10.187,0,0,1-2.28,2.437,4.38,4.38,0,0,1-4.78.418.682.682,0,0,0-.655,0l-.061.033a4.445,4.445,0,0,1-4.425-.242,6.132,6.132,0,0,1-.594-.45c-6.658-5.543-2.992-15.913,5.2-12.453.305.129.388-.036,1.278-.319,5.909-1.878,9.151,3.716,7.232,8.794a.533.533,0,1,0,1,.377c1.6-4.236-.009-9-3.887-10.282a4.4,4.4,0,0,0,.072-3.694.533.533,0,0,0-.255-.255,4.319,4.319,0,0,0-3.481-.025V11.791a4.862,4.862,0,0,0-4.856-4.856H21.945a2.292,2.292,0,0,0-2.134-1.462H16.965a2.935,2.935,0,0,0-5.712,0H8.408A2.292,2.292,0,0,0,6.274,6.935H4.856A4.862,4.862,0,0,0,0,11.791V33.469a4.862,4.862,0,0,0,4.856,4.856ZM26.823,23.241c-.074.027-.238.088-.351.133a8.38,8.38,0,0,0-4.351-.623,3.425,3.425,0,0,1-.245-2.8C23.991,19.135,26.55,20.926,26.823,23.241Zm4.244-3.291a3.422,3.422,0,0,1-.246,2.807,7.644,7.644,0,0,0-2.965.17,5.015,5.015,0,0,0-.715-1.86A3.686,3.686,0,0,1,31.066,19.95Zm-3.914-8.159v7.842a5.514,5.514,0,0,0-.681.589,5.215,5.215,0,0,0-1.785-1.2V12.1a1.592,1.592,0,0,0-1.59-1.59h-1.03a2.292,2.292,0,0,0,.034-.392V8h1.263a3.794,3.794,0,0,1,3.79,3.79ZM8.408,6.539h3.3a.533.533,0,0,0,.532-.5,1.868,1.868,0,0,1,3.73,0,.533.533,0,0,0,.532.5h3.3a1.226,1.226,0,0,1,1.223,1.223c-.008,2.446.075,2.624-.213,3.048a1.236,1.236,0,0,1-1.01.534c-12.121,0-11.46.014-11.648-.025a1.226,1.226,0,0,1-.977-1.2c0-2.568-.007-2.375.012-2.521A1.224,1.224,0,0,1,8.408,6.539ZM1.066,11.791A3.794,3.794,0,0,1,4.856,8H6.119v2.12a2.291,2.291,0,0,0,.034.392H5.123a1.592,1.592,0,0,0-1.59,1.59v6.4a.533.533,0,0,0,1.066,0V12.1a.525.525,0,0,1,.524-.524h1.52a2.28,2.28,0,0,0,1.765.831c12.347,0,11.555.032,11.977-.073a2.269,2.269,0,0,0,1.19-.758H23.1a.525.525,0,0,1,.524.524v6.629A4.162,4.162,0,0,0,21.388,19a.643.643,0,0,0-.4.32,4.4,4.4,0,0,0,.069,3.691,6.328,6.328,0,0,0-3.647,3.218h-3.57a.533.533,0,1,0,0,1.066H16.97c-.009.026-.059.186-.084.27h0a9.167,9.167,0,0,0,.439,6.118H5.123a.525.525,0,0,1-.524-.524V20.639a.533.533,0,0,0-1.066,0V33.156a1.592,1.592,0,0,0,1.59,1.59H17.857a10.787,10.787,0,0,0,2.007,2.512H4.856a3.794,3.794,0,0,1-3.79-3.79Z" transform="translate(0 0)" stroke-width="0.8"/>
  </g>
</svg>
