<!-- 有stroke -->
<svg xmlns="http://www.w3.org/2000/svg" width="38.754" height="38.754" viewBox="0 0 38.754 38.754">
  <g id="_009-dinner-1" data-name="009-dinner-1" transform="translate(0.15 0.15)">
    <g id="Group_486" data-name="Group 486">
      <path id="Path_950" data-name="Path 950" d="M19.227,0A19.227,19.227,0,1,0,38.454,19.227,19.249,19.249,0,0,0,19.227,0Zm0,36.952A17.725,17.725,0,1,1,36.952,19.227,17.745,17.745,0,0,1,19.227,36.952Z" stroke-width="0.3"/>
      <path id="Path_951" data-name="Path 951" d="M71.021,56a14.955,14.955,0,0,0-11.745,5.657.751.751,0,1,0,1.174.937A13.519,13.519,0,1,1,57.5,71.021a13.625,13.625,0,0,1,.262-2.664.751.751,0,1,0-1.473-.294A15.023,15.023,0,1,0,71.021,56Z" transform="translate(-51.794 -51.794)"  stroke-width="0.3"/>
      <path id="Path_952" data-name="Path 952" d="M142.938,129.844a.751.751,0,0,0-.751.751v5.257a3.752,3.752,0,0,0,1.5,3v8.437a2.253,2.253,0,0,0,4.506,0v-8.437a3.752,3.752,0,0,0,1.5-3V130.6a.751.751,0,1,0-1.5,0v3.755h-1.5V130.6a.751.751,0,1,0-1.5,0v3.755h-1.5V130.6A.751.751,0,0,0,142.938,129.844Zm3.755,17.448a.751.751,0,0,1-1.5,0v-7.76a3.771,3.771,0,0,0,1.5,0Zm-.751-9.186a2.256,2.256,0,0,1-2.253-2.253H148.2A2.256,2.256,0,0,1,145.942,138.106Z" transform="translate(-131.508 -120.092)" stroke-width="0.3"/>
      <path id="Path_953" data-name="Path 953" d="M268.068,140.3a2.256,2.256,0,0,0,2.253-2.253v-9a3.773,3.773,0,0,0,1.878-3.389,7.474,7.474,0,0,0-1.1-3.7,3.231,3.231,0,0,0-6.063,0,7.473,7.473,0,0,0-1.1,3.7,3.773,3.773,0,0,0,1.878,3.389v9A2.256,2.256,0,0,0,268.068,140.3Zm.751-2.253a.751.751,0,1,1-1.5,0v-8.491a5.115,5.115,0,0,0,1.5,0Zm-.751-16.7c.573,0,1.211.507,1.748,1.391a6,6,0,0,1,.881,2.917,2.635,2.635,0,0,1-5.257,0C265.439,123.854,266.764,121.347,268.068,121.347Z" transform="translate(-244.114 -110.844)"   stroke-width="0.3"/>
      <path id="Path_954" data-name="Path 954" d="M74.449,167.3h0a.751.751,0,1,0-.752-.751A.751.751,0,0,0,74.45,167.3Z" transform="translate(-68.163 -153.349)"  stroke-width="0.3"/>
    </g>
  </g>
</svg>
