<svg xmlns="http://www.w3.org/2000/svg" width="72.347" height="93.391" viewBox="0 0 72.347 93.391">
  <g id="Group_6162" data-name="Group 6162" transform="translate(-319.454 -646.796)">
    <g id="Group_5583" data-name="Group 5583" transform="translate(329.478 646.796)">
      <path id="Path_6301" data-name="Path 6301" d="M352.969,690.291c-.861-5.08-1.731-10.159-2.571-15.244a1.639,1.639,0,0,0-.9-1.3,12.209,12.209,0,0,1-5.149-6.689,18.561,18.561,0,0,1-.565-12.564,10.988,10.988,0,0,1,1.725-3.249,5.281,5.281,0,0,1,7.716-1.057,12.826,12.826,0,0,1,4.548,6.33c1.564,4.288,2.009,8.658.39,13.035a11.466,11.466,0,0,1-1.785,2.988,1.823,1.823,0,0,0-.42,1.615q2.562,14.991,5.083,29.988a5.822,5.822,0,0,1,.08,1.59,2.663,2.663,0,0,1-2.383,2.34,2.948,2.948,0,0,1-3.012-1.868,8.268,8.268,0,0,1-.256-1.175q-1.254-7.373-2.5-14.747Z" transform="translate(-342.943 -648.05)" fill="#eb9c22"/>
      <path id="Path_6302" data-name="Path 6302" d="M422.552,670.493c-.677-.146-1.226-.259-1.773-.384-1.632-.37-2.167-1.194-1.817-2.825q1.995-9.274,4-18.545c.056-.262.1-.527.172-.784.245-.895.83-1.3,1.6-1.118s1.1.758.9,1.7c-.77,3.6-1.554,7.2-2.322,10.795a1.391,1.391,0,0,0,.989,1.881c1.094.332,1.7-.06,1.975-1.319.77-3.531,1.523-7.065,2.293-10.6.232-1.064.889-1.506,1.777-1.193.871.307.983.956.8,1.781q-1.158,5.244-2.269,10.5c-.233,1.094.088,1.749.941,2.017,1.058.332,1.685,0,1.925-1.092.778-3.529,1.529-7.064,2.3-10.593.077-.351.149-.819.393-.99a2.064,2.064,0,0,1,1.391-.451c.37.078.745.606.913,1.018a2.222,2.222,0,0,1-.091,1.171q-1.979,9.226-3.976,18.448c-.465,2.15-1.075,2.536-3.236,2.072l-1.273-.274-.294,1.366q-3.3,15.307-6.616,30.612a5.694,5.694,0,0,1-.6,1.686,2.8,2.8,0,0,1-3.257,1.113,2.869,2.869,0,0,1-1.915-3.248c.646-3.112,1.331-6.216,2-9.323l4.806-22.273C422.375,671.313,422.445,670.988,422.552,670.493Z" transform="translate(-384.503 -646.796)" fill="#eb9c22"/>
    </g>
    <g id="Group_5584" data-name="Group 5584" transform="translate(329.478 647.263)">
      <path id="Path_6303" data-name="Path 6303" d="M352.969,691.385c-.861-5.08-1.731-10.159-2.571-15.243a1.639,1.639,0,0,0-.9-1.3,12.21,12.21,0,0,1-5.149-6.689,18.561,18.561,0,0,1-.565-12.564,10.991,10.991,0,0,1,1.725-3.249,5.28,5.28,0,0,1,7.716-1.057,12.825,12.825,0,0,1,4.548,6.33c1.564,4.288,2.009,8.658.39,13.034a11.456,11.456,0,0,1-1.785,2.988,1.824,1.824,0,0,0-.42,1.615q2.562,14.99,5.083,29.988a5.826,5.826,0,0,1,.08,1.59,2.664,2.664,0,0,1-2.383,2.34,2.949,2.949,0,0,1-3.012-1.869,8.255,8.255,0,0,1-.256-1.175q-1.254-7.372-2.5-14.746Z" transform="translate(-342.943 -649.145)" fill="#eb9c22"/>
      <path id="Path_6304" data-name="Path 6304" d="M422.552,671.587c-.677-.146-1.226-.259-1.773-.384-1.632-.37-2.167-1.194-1.817-2.825q1.995-9.274,4-18.545c.056-.262.1-.527.172-.784.245-.894.83-1.3,1.6-1.118s1.1.758.9,1.7c-.77,3.6-1.554,7.2-2.322,10.794a1.391,1.391,0,0,0,.989,1.881c1.094.332,1.7-.06,1.975-1.319.77-3.53,1.523-7.065,2.293-10.6.232-1.065.889-1.507,1.777-1.194.871.307.983.956.8,1.781q-1.158,5.244-2.269,10.5c-.233,1.095.088,1.75.941,2.017,1.058.332,1.685,0,1.925-1.092.778-3.529,1.529-7.063,2.3-10.593.077-.351.149-.819.393-.99a2.064,2.064,0,0,1,1.391-.452c.37.078.745.606.913,1.018a2.223,2.223,0,0,1-.091,1.171q-1.979,9.226-3.976,18.448c-.465,2.149-1.075,2.536-3.236,2.072l-1.273-.275-.294,1.366q-3.3,15.306-6.616,30.612a5.69,5.69,0,0,1-.6,1.685,2.8,2.8,0,0,1-3.257,1.113,2.869,2.869,0,0,1-1.915-3.248c.646-3.112,1.331-6.216,2-9.324l4.806-22.273C422.375,672.408,422.445,672.082,422.552,671.587Z" transform="translate(-384.503 -647.89)" fill="#eb9c22"/>
    </g>
    <g id="Group_5588" data-name="Group 5588" transform="translate(319.454 676.256)">
      <g id="Group_5585" data-name="Group 5585" transform="translate(0 0)">
        <path id="Path_6305" data-name="Path 6305" d="M349.635,780.5c-2.125,0-4.168-1.175-6.245-3.593a3.812,3.812,0,0,0-2.545-1.6,3.333,3.333,0,0,0-2.285,1.559c-1.783,2.363-3.906,3.561-6.306,3.561a8.088,8.088,0,0,1-2.454-.4c-3.457-1.1-5.336-3.862-5.292-7.77.026-2.2.02-4.454.014-6.629q0-1.423,0-2.846c-.32-8.849.364-20.236,8.509-29.915a33.022,33.022,0,0,1,55.5,7.231c2.616,5.507,3.841,11.6,3.971,19.755.075,4.622.031,8.708-.134,12.491-.226,5.194-3.041,7.057-5.362,7.706a8.609,8.609,0,0,1-2.312.333,8.144,8.144,0,0,1-6.4-3.428c-.629-.776-1.548-1.7-2.353-1.7-.7,0-1.678.688-2.759,1.934-1.935,2.232-3.895,3.317-5.992,3.317-2.129,0-4.113-1.119-6.065-3.421a4.167,4.167,0,0,0-2.662-1.727,3.983,3.983,0,0,0-2.535,1.579C353.776,779.361,351.777,780.495,349.635,780.5Z" transform="translate(-322.322 -718.698)" fill="#f6ece0"/>
        <path id="Path_6306" data-name="Path 6306" d="M355.612,720.1a30.99,30.99,0,0,1,28.122,18.038c2.857,6.014,3.661,12.365,3.766,18.874.066,4.12.047,8.248-.132,12.363-.112,2.571-.921,4.938-3.805,5.744a6.43,6.43,0,0,1-1.737.254,6.042,6.042,0,0,1-4.744-2.638c-1.353-1.669-2.669-2.491-4.011-2.491-1.4,0-2.836.9-4.371,2.67-1.492,1.72-2.937,2.581-4.379,2.581-1.466,0-2.93-.889-4.438-2.667-1.4-1.654-2.846-2.481-4.289-2.481a5.687,5.687,0,0,0-4.135,2.3c-1.676,1.9-3.19,2.849-4.692,2.849s-2.994-.95-4.626-2.85a5.7,5.7,0,0,0-4.164-2.347,5.125,5.125,0,0,0-3.988,2.408c-1.3,1.724-2.792,2.712-4.6,2.712a5.937,5.937,0,0,1-1.806-.3c-2.68-.854-3.838-2.918-3.805-5.712.036-3.179.008-6.359.008-9.539-.378-10.34,1-20.178,8.009-28.5a30.932,30.932,0,0,1,23.82-11.265m-14.235,22.827c1.708,0,2.382-1.57,2.377-3.22-.005-1.595-.3-3.373-2.259-3.381h-.012c-1.865,0-1.767,1.828-2,3.4.486,1.028-.18,3.1,1.761,3.2.046,0,.091,0,.136,0m28.142-.073c1.957,0,1.93-1.88,1.976-3.516-.371-1.023.666-2.865-1.7-2.988-.078,0-.153-.006-.225-.006-2.105,0-2.055,1.67-2.135,3.056-.087,1.513.1,3.418,2.025,3.453h.057M345.7,757.97c-1.343,0-2.662-.9-4.008-2.254a1.509,1.509,0,0,0-.973-.562.9.9,0,0,0-.551.209c.408,2.333,2.987,5.854,4.822,6.343a2.663,2.663,0,0,0,.687.1c1.55,0,2.309-1.577,3.272-2.479a2.539,2.539,0,0,1,1.67-.852c.783,0,1.4.649,2.063,1.437a4.122,4.122,0,0,0,2.93,1.805,3.316,3.316,0,0,0,2.537-1.571,3.111,3.111,0,0,1,2.34-1.518,4.185,4.185,0,0,1,2.735,1.653c.567.6,1.216,1.635,2.062,1.635a1.325,1.325,0,0,0,.812-.315c2.091-1.609,4.977-2.746,4.989-6.079a1.522,1.522,0,0,0-.808-.265c-.651,0-1.089.564-1.46.9a5.558,5.558,0,0,1-3.485,1.8c-1.022,0-2.039-.572-3.09-1.946a2.192,2.192,0,0,0-1.7-1,2.418,2.418,0,0,0-1.828,1.069c-1.086,1.362-2.163,2.078-3.239,2.078-1.043,0-2.086-.674-3.136-2.088a2.312,2.312,0,0,0-1.747-1.108,1.871,1.871,0,0,0-1.455.855c-1.18,1.523-2.316,2.151-3.434,2.151m9.909-42.138v0A34.675,34.675,0,0,0,341.08,719a35.819,35.819,0,0,0-12.553,9.62c-8.6,10.222-9.342,22.1-9.011,31.327q0,1.412.006,2.824c.006,2.164.012,4.4-.014,6.588-.056,4.854,2.414,8.436,6.776,9.827a10.213,10.213,0,0,0,3.1.5c2.136,0,5.259-.765,8.009-4.409a3.381,3.381,0,0,1,.619-.656,3.826,3.826,0,0,1,.89.805c2.507,2.918,5.079,4.337,7.863,4.337,2.76,0,5.341-1.4,7.891-4.292a3.859,3.859,0,0,1,.935-.825,4.126,4.126,0,0,1,1.034.941c2.349,2.77,4.937,4.175,7.692,4.175,2.714,0,5.272-1.364,7.6-4.053a6.8,6.8,0,0,1,1.105-1.065,5.712,5.712,0,0,1,.737.778c2.269,2.8,4.98,4.218,8.059,4.218a10.729,10.729,0,0,0,2.886-.411c5.725-1.6,6.793-6.744,6.92-9.668.166-3.825.21-7.952.136-12.617-.136-8.476-1.424-14.841-4.178-20.636a35.242,35.242,0,0,0-31.975-20.474Z" transform="translate(-319.454 -715.832)" fill="#eb9c22"/>
      </g>
      <g id="Group_5586" data-name="Group 5586" transform="translate(46.687 19.232)">
        <path id="Path_6307" data-name="Path 6307" d="M433.026,770.188a2.464,2.464,0,0,1-1.839-.762,4.445,4.445,0,0,1-.813-3.368l.014-.251c.065-1.274.175-3.407,2.761-3.407q.125,0,.259.006c2.3.12,2.247,1.736,2.219,2.6a2.588,2.588,0,0,0,.047.805.626.626,0,0,1,.038.236l0,.184c-.041,1.574-.1,3.954-2.611,3.954Z" transform="translate(-429.717 -761.759)" fill="#eb9c22"/>
        <path id="Path_6308" data-name="Path 6308" d="M432.288,762.179c.073,0,.148,0,.225.006,2.363.123,1.327,1.964,1.7,2.988-.046,1.636-.019,3.515-1.976,3.515h-.057c-1.92-.035-2.112-1.94-2.025-3.453.08-1.385.03-3.056,2.135-3.056m0-1.28c-3.193,0-3.338,2.813-3.4,4.015l-.013.247a5.016,5.016,0,0,0,.982,3.839,3.1,3.1,0,0,0,2.3.967h.081c3.13,0,3.212-3.091,3.251-4.576l0-.183a1.281,1.281,0,0,0-.076-.472,3.33,3.33,0,0,1-.009-.566c.027-.851.1-3.111-2.826-3.263q-.151-.008-.292-.008Z" transform="translate(-428.857 -760.899)" fill="#eb9c22"/>
      </g>
      <g id="Group_5587" data-name="Group 5587" transform="translate(18.746 19.213)">
        <path id="Path_6309" data-name="Path 6309" d="M367.419,770.237c-.055,0-.11,0-.166,0-1.895-.089-2.046-1.667-2.136-2.61a3.347,3.347,0,0,0-.173-.953.638.638,0,0,1-.054-.368c.033-.219.058-.441.085-.664.162-1.386.383-3.284,2.551-3.284,1.928.008,2.9,1.36,2.911,4.019a4.288,4.288,0,0,1-1.046,3.077,2.713,2.713,0,0,1-1.971.785Z" transform="translate(-364.241 -761.715)" fill="#eb9c22"/>
        <path id="Path_6310" data-name="Path 6310" d="M366.665,762.135h.012c1.959.008,2.254,1.786,2.259,3.381.006,1.65-.668,3.22-2.376,3.22-.045,0-.09,0-.136,0-1.941-.092-1.275-2.168-1.761-3.2.236-1.574.138-3.4,2-3.4m0-1.28c-2.738,0-3.03,2.5-3.187,3.849-.025.215-.05.432-.082.644a1.28,1.28,0,0,0,.108.737,3.612,3.612,0,0,1,.114.74c.088.919.294,3.073,2.744,3.188.067,0,.132,0,.2,0a3.342,3.342,0,0,0,2.424-.973,4.913,4.913,0,0,0,1.232-3.531c-.013-3.837-1.928-4.651-3.534-4.657Z" transform="translate(-363.382 -760.855)" fill="#eb9c22"/>
      </g>
    </g>
  </g>
</svg>
