<svg xmlns="http://www.w3.org/2000/svg" width="32.777" height="27.527" viewBox="0 0 32.777 27.527">
  <g id="user" transform="translate(0 -41)">
    <path id="Path_884" data-name="Path 884" d="M239.082,377H233.96a.96.96,0,1,0,0,1.921h5.121a.96.96,0,1,0,0-1.921Z" transform="translate(-218.084 -314.49)" stroke-width="0.2" />
    <path id="Path_885" data-name="Path 885" d="M233.96,314.921h3.585a.96.96,0,0,0,0-1.921H233.96a.96.96,0,1,0,0,1.921Z" transform="translate(-218.084 -254.587)" stroke-width="0.2"/>
    <path id="Path_886" data-name="Path 886" d="M32.777,48.618a7.618,7.618,0,0,0-14.815-2.5H2.881A2.884,2.884,0,0,0,0,49V65.647a2.884,2.884,0,0,0,2.881,2.881H26.759a2.884,2.884,0,0,0,2.881-2.881V54.775A7.612,7.612,0,0,0,32.777,48.618Zm-7.618-5.7a5.7,5.7,0,1,1-5.7,5.7A5.7,5.7,0,0,1,25.159,42.921Zm2.561,22.726a.961.961,0,0,1-.96.96H2.881a.961.961,0,0,1-.96-.96V49a.961.961,0,0,1,.96-.96H17.562q-.021.285-.022.576a7.618,7.618,0,0,0,10.179,7.175Z" transform="translate(0 0)" stroke-width="0.2"/>
    <path id="Path_887" data-name="Path 887" d="M347.122,125.463a.96.96,0,0,0,.748.524.974.974,0,0,0,.111.006.96.96,0,0,0,.738-.346l2.561-3.073a.96.96,0,0,0-1.475-1.229l-1.621,1.945-.368-.735a.96.96,0,0,0-1.718.859Z" transform="translate(-323.846 -74.879)" stroke-width="0.2"/>
    <path id="Path_888" data-name="Path 888" d="M71.535,215a3.521,3.521,0,1,0-5,0A4.027,4.027,0,0,0,65,218.154v2.561a.96.96,0,0,0,.96.96h6.146a.96.96,0,0,0,.96-.96v-2.561A4.027,4.027,0,0,0,71.535,215Zm-4.1-2.474a1.6,1.6,0,1,1,1.6,1.6A1.6,1.6,0,0,1,67.433,212.521Zm3.713,7.234H66.921v-1.6a2.113,2.113,0,1,1,4.225,0Z" transform="translate(-60.839 -157.245)" stroke-width="0.2" />
  </g>
</svg>
