<svg xmlns="http://www.w3.org/2000/svg" width="158.504" height="195.528" viewBox="0 0 158.504 195.528">
  <g id="Group_6171" data-name="Group 6171" transform="translate(-18966.041 -2706.524)">
    <g id="Group_6170" data-name="Group 6170" transform="translate(18325.293 406.916)">
      <path id="Path_6593" data-name="Path 6593" d="M681.006,2412.966c-4.45-13.2-8.923-26.385-13.318-39.6a4.432,4.432,0,0,0-2.939-3.079c-7.606-2.967-12.7-8.763-16.576-15.672-5.809-10.346-8.776-21.389-6.829-33.3a29.7,29.7,0,0,1,3.228-9.4c4.327-7.831,12.125-10.048,20.148-6.09,6.652,3.281,11.309,8.645,14.822,14.97,5.991,10.783,9.029,22.259,6.564,34.626a30.971,30.971,0,0,1-3.5,8.731,4.928,4.928,0,0,0-.437,4.489q13.189,38.928,26.269,77.892a15.757,15.757,0,0,1,.887,4.21,7.2,7.2,0,0,1-5.37,7.256,7.968,7.968,0,0,1-8.832-3.711,22.275,22.275,0,0,1-1.182-3.027q-6.471-19.147-12.921-38.3Z" fill="#f5a016"/>
      <path id="Path_6594" data-name="Path 6594" d="M754.13,2362.516c-1.763-.626-3.2-1.12-4.619-1.642-4.246-1.558-5.4-3.95-3.89-8.2q8.559-24.165,17.143-48.321c.242-.682.456-1.376.734-2.042.968-2.312,2.674-3.19,4.687-2.441,2.042.76,2.7,2.414,1.833,4.863-3.31,9.38-6.657,18.747-9.964,28.128-.93,2.64-.249,4.371,2,5.383,2.818,1.269,4.579.428,5.751-2.85,3.286-9.2,6.53-18.408,9.815-27.6.991-2.773,2.9-3.731,5.179-2.583,2.228,1.124,2.3,2.9,1.528,5.052q-4.92,13.653-9.719,27.352c-1.005,2.852-.369,4.719,1.825,5.732,2.721,1.257,4.516.582,5.538-2.259,3.307-9.189,6.546-18.4,9.845-27.595.328-.913.683-2.143,1.4-2.517a5.576,5.576,0,0,1,3.884-.728c.965.338,1.786,1.881,2.095,3.044.243.917-.295,2.1-.651,3.106q-8.5,24.043-17.048,48.068c-1.99,5.6-3.76,6.425-9.39,4.433-1-.353-2-.709-3.316-1.176-.494,1.393-.879,2.476-1.263,3.559q-14.157,39.882-28.336,79.756a15.4,15.4,0,0,1-2.184,4.311,7.57,7.57,0,0,1-9.116,1.855c-3.544-1.919-5.264-5.738-4.007-9.368,2.81-8.118,5.72-16.2,8.593-24.3q10.3-29.017,20.6-58.035C753.372,2364.653,753.673,2363.806,754.13,2362.516Z" fill="#f5a016"/>
      <g id="Group_5870" data-name="Group 5870">
        <path id="Path_6595" data-name="Path 6595" d="M658.885,2453.578c-.7-19.148,1.857-37.367,14.831-52.783,27.4-32.555,77.892-25.975,96.191,12.542,5.291,11.138,6.78,22.9,6.973,34.953.123,7.63.086,15.274-.245,22.9-.207,4.76-1.706,9.145-7.046,10.638-5,1.4-8.745-.4-12-4.416-5.129-6.327-9.963-6.079-15.522.332s-10.789,6.373-16.327-.16c-5.1-6.011-10.487-6.126-15.6-.334-6.211,7.034-11.211,7.033-17.256,0-4.935-5.745-10.571-5.883-15.1.112-3.166,4.2-6.94,6.037-11.868,4.466-4.962-1.582-7.107-5.4-7.048-10.578C658.937,2465.355,658.885,2459.466,658.885,2453.578Z" fill="#f7ede2"/>
        <g id="Group_5869" data-name="Group 5869">
          <path id="Path_6596" data-name="Path 6596" d="M647.205,2450.978c-1.227-15.394.178-31.677,8.635-46.74,15.012-26.738,44.993-41.639,73.682-36.487,32.11,5.765,57.723,35.068,58.905,67.828.447,12.41.383,24.855.1,37.273-.387,16.72-14.846,26.528-30.424,20.339-5.99-2.38-10.969-2.615-16.747.289-5.824,2.927-11.974,1.616-17.672-1.157-3.734-1.817-7.246-2.446-11.179-.4-7.733,4.015-15.543,4.03-23.044-.646-4.147-2.585-7.493-.262-11.035,1.287-11.336,4.96-21.6,1.96-28.646-8.1a14.384,14.384,0,0,1-2.559-8.563C647.18,2468.049,647.205,2460.2,647.205,2450.978Zm11.68,2.6c0,5.888.052,11.777-.016,17.664-.059,5.175,2.086,9,7.048,10.578,4.928,1.571,8.7-.271,11.868-4.466,4.525-6,10.161-5.857,15.1-.112,6.045,7.036,11.045,7.037,17.256,0,5.113-5.792,10.5-5.677,15.6.334,5.538,6.533,10.757,6.584,16.327.16s10.393-6.659,15.522-.332c3.258,4.018,7,5.814,12,4.416,5.34-1.493,6.839-5.878,7.046-10.638.331-7.621.368-15.265.245-22.9-.193-12.054-1.682-23.815-6.973-34.953-18.3-38.517-68.794-45.1-96.191-12.542C660.742,2416.211,658.185,2434.43,658.885,2453.578Z" fill="#f5a016"/>
        </g>
      </g>
    </g>
    <path id="Path_6769" data-name="Path 6769" d="M699.688,2408.735a9.336,9.336,0,0,0-7.384-1.611c-.046.008-.1.024-.142.033a8.811,8.811,0,0,0-2.363.759c-4.794,2.065-10.194,7.294-11.173,10.962,1.829.907,3.315,0,4.32-.662.179-.118.359-.233.538-.347v0l.013-.01a27.035,27.035,0,0,1,8.225-3.8c4.5-.5,8.927,1.365,13.29,4.222,1.006.659,2.491,1.57,4.321.662C708.455,2415.669,704.041,2411.135,699.688,2408.735Z" transform="translate(18325.293 406.916)" fill="#f5a016"/>
    <path id="Path_6770" data-name="Path 6770" d="M746.408,2408.735a9.337,9.337,0,0,0-7.384-1.611c-.046.008-.095.024-.142.033a8.811,8.811,0,0,0-2.363.759c-4.794,2.065-10.194,7.294-11.173,10.962,1.829.907,3.314,0,4.32-.662.179-.118.358-.233.537-.347v0l.013-.01a27.04,27.04,0,0,1,8.224-3.8c4.5-.5,8.928,1.365,13.291,4.222,1.005.659,2.491,1.57,4.32.662C755.175,2415.669,750.761,2411.135,746.408,2408.735Z" transform="translate(18325.293 406.916)" fill="#f5a016"/>
    <path id="Path_6771" data-name="Path 6771" d="M746.413,2440.672c-.022,6.172-5.366,8.278-9.238,11.257-2.342,1.8-3.961-1.01-5.323-2.444-3.17-3.338-5.985-4.664-9.4-.25s-6.9,3.424-10.124-.434c-1.969-2.355-3.759-4.038-6.913-1.083-2.029,1.9-3.567,5.417-7.33,4.415-3.4-.905-8.175-7.425-8.93-11.754,1.2-.907,2.164,0,2.821.662,4.569,4.583,8.975,6.394,13.782.191,1.876-2.421,4.164-1.908,5.929.468,3.948,5.316,7.841,4.988,11.8.019,2.095-2.625,4.647-2.611,6.543-.131,4.11,5.377,7.943,4.121,12.176.263C743.153,2441,744.319,2439.362,746.413,2440.672Z" transform="translate(18325.293 406.916)" fill="#f5a016"/>
  </g>
</svg>
