<?xml version="1.0" encoding="utf-8"?>
<!-- Generator: Adobe Illustrator 25.0.0, SVG Export Plug-In . SVG Version: 6.00 Build 0)  -->
<svg version="1.1" id="圖層_1" xmlns="http://www.w3.org/2000/svg" xmlns:xlink="http://www.w3.org/1999/xlink" x="0px" y="0px"
	 viewBox="0 0 130 160" style="enable-background:new 0 0 130 160;" xml:space="preserve">
<style type="text/css">
	.st0{fill:#82AC40;}
	.st1{fill:#9BCA3F;}
	.st2{fill:#59873E;}
	.st3{fill:#639144;}
	.st4{fill:#4C7F2E;}
	.st5{fill:#CEE97E;}
</style>
<g id="Group_5533" transform="translate(-14.256 -782.711)">
	<path id="Path_6281" class="st0" d="M108.84,910.87c-0.1-0.09-0.14-0.22-0.13-0.35c-0.01-2.96-0.41-5.91-0.26-8.87
		c0.04-2.74,0.25-5.47,0.62-8.18c0.1-0.58,0.1-1.18,0.15-1.78c0.01-0.16-0.06-0.35,0.14-0.45c0.29,3.44,0.41,6.89,0.36,10.35
		c-0.1,2.71-0.38,5.4-0.85,8.07C108.84,910.06,108.83,910.47,108.84,910.87z"/>
	<path id="Path_6282" class="st0" d="M59.95,872.82c0-1.21,0.26-4.33,0.28-4.61c0.54,0.2,0.92,1.22,1.18,1.65
		c2.19,2.75,4.54,5.36,6.79,8.05c1.44,1.77,2.74,3.65,3.89,5.63c1.28,2.1,2.41,4.29,3.41,6.54c0.56,1.28,1.02,2.61,1.59,3.89
		c0.72,1.63,1.3,3.32,1.93,4.98c0.43,1.13,0.77,2.3,1.12,3.46c0.38,1.24,0.77,2.48,1.07,3.74c0.45,1.82,0.77,3.68,0.94,5.55
		c0.11,1.04,0.1,2.08-0.02,3.11c-0.02,0.12,0.04,0.28-0.1,0.35c-0.2,0.09-0.25-0.11-0.32-0.23c-0.75-1.3-1.64-2.52-2.46-3.77
		c-1.14-1.72-2.27-3.44-3.49-5.1c-0.8-1.1-1.48-2.29-2.32-3.35c-1.07-1.35-2.01-2.8-3.07-4.16c-1.32-1.7-2.61-3.41-4-5.06
		c-1.12-1.42-2.32-2.76-3.61-4.03c-0.14-0.13-0.3-0.25-0.32-0.46c-0.35-2.81-0.49-5.65-0.43-8.48c0.17-1.44,0.06-2.9-0.33-4.29
		c-0.25-0.72-0.44-1.47-0.56-2.22C61.08,873.71,60.25,873.03,59.95,872.82z"/>
	<path id="Path_6283" class="st0" d="M59.73,858.2c0.78-0.94,1.4-2.01,1.81-3.16c0.08-0.15,0.17-0.3,0.27-0.43
		c1.06,0.15,2.13,0.2,3.2,0.15c0.32,0.01,0.48-0.52,0.79-0.52c0.21,2.11,0.76,4.63,2.28,6.27c0.84,1.07,1.56,2.23,2.14,3.46
		c0.47,0.82,0.89,1.66,1.38,2.46c0.38,0.61,0.5,1.34,0.93,1.92c0.17,0.23-0.06,0.41-0.2,0.58c-0.16,0.24-0.47,0.32-0.72,0.18
		c-0.3-0.17-0.59-0.36-0.85-0.58c-1.82-1.48-3.69-2.89-5.42-4.46c-1.83-1.65-3.49-3.49-4.94-5.48
		C60.26,858.34,60,858.19,59.73,858.2z"/>
	<path id="Path_6284" class="st0" d="M87.33,855.6l4.05,2.27c-0.63,1.79-1.4,3.53-2.3,5.2c-0.18,0.31-0.33,0.63-0.46,0.96
		c-0.15,0.48-0.49,0.55-0.93,0.5c-0.47-0.05-0.53-0.38-0.53-0.72c-0.01-1.56,0.03-3.13-0.02-4.68
		C87.11,857.95,87.39,856.79,87.33,855.6z"/>
	<path id="Path_6285" class="st1" d="M109.19,913.17c0.27,1.19,0.52,2.37,0.81,3.55c0.18,0.72,0.37,1.45,0.6,2.16
		c0.2,0.63-0.67,1.29-1.12,1.72c-0.9,0.97-1.96,1.76-3.15,2.34c-2.02,0.98-4.12,1.8-6.26,2.46c-2,0.63-4.03,1.23-6.1,1.67
		c-1.08,0.23-2.17,0.46-3.25,0.7c-1.29,0.29-2.6,0.44-3.92,0.6c-1.79,0.3-3.6,0.44-5.42,0.43c-1.02-0.02-2.04-0.18-3.02-0.48
		c-0.61-0.15-1.06-0.66-1.14-1.29c-0.4-2.22-0.98-4.41-1.72-6.54c-0.21-0.64-0.5-1.26-0.71-1.91c0-0.1-0.05-0.19-0.14-0.24
		l0.01,0.01c0-0.04,0-0.09-0.01-0.13c-1.2-2.84-2.55-5.61-4.04-8.31c-1.38-2.38-2.89-4.7-4.5-6.93c-0.03-0.04-0.12-0.04-0.18-0.05
		c-2.59-3.49-5.52-6.7-8.76-9.6c-1.99-1.83-4.08-3.55-6.25-5.16c0.26-0.47,3.87-5.75,4.2-5.73c0.64,0.25,1.3,0.43,1.98,0.56
		c1.07,1.67,2.31,3.23,3.7,4.65c0.47,0.54,1.03,1,1.65,1.36c0.01,0.22,0.18,0.34,0.32,0.46c1.29,1.27,2.49,2.61,3.61,4.03
		c1.39,1.64,2.68,3.36,4,5.06c1.06,1.36,2,2.8,3.07,4.16c0.84,1.06,1.51,2.26,2.32,3.35c1.22,1.66,2.35,3.38,3.49,5.1
		c0.83,1.25,1.72,2.47,2.46,3.77c0.07,0.12,0.12,0.32,0.32,0.23c0.14-0.06,0.08-0.22,0.1-0.35c0.12-1.03,0.13-2.08,0.02-3.11
		c-0.18-1.87-0.49-3.72-0.94-5.54c-0.3-1.26-0.69-2.5-1.07-3.74c-0.35-1.16-0.69-2.33-1.12-3.46c-0.64-1.66-1.21-3.35-1.93-4.98
		c-0.57-1.28-1.03-2.61-1.59-3.89c-0.99-2.25-2.13-4.44-3.41-6.54c-1.15-1.97-2.45-3.86-3.89-5.63c-2.25-2.69-4.6-5.3-6.79-8.05
		c-0.32-0.4-0.56-0.92-1.1-1.12c-0.09-0.39-0.3-0.75-0.6-1.03c-0.75-0.97-1.49-1.96-2.24-2.93c-0.81-1.04-2.29-2.69-3.1-3.72
		c0.52-0.38,4.59-1.69,5.64-2.96c0.26-0.02,1.08,0.74,1.24,0.96c1.27,1.71,2.71,3.28,4.3,4.68c1.5,1.35,3.13,2.55,4.71,3.82
		c0.23,0.19,0.48,0.35,0.74,0.49c0.22,0.12,0.49,0.05,0.63-0.16c0.13-0.14,0.32-0.3,0.18-0.49c-0.37-0.5-0.48-1.12-0.81-1.65
		c-0.43-0.68-0.79-1.4-1.2-2.1c-0.69-1.07-1.48-2.06-2.38-2.96c-1.32-1.4-1.51-3.83-1.69-5.63c0.6,0.04,16.52-2.5,18.21-3.39
		c0.42,0.24,0.51,0.72,0.74,1.09c0.85,1.29,1.86,2.48,2.99,3.53c0.04,1-0.18,1.99-0.15,3c0.04,1.32,0,2.65,0.01,3.97
		c0,0.28,0.05,0.57,0.42,0.61c0.35,0.04,0.62-0.02,0.74-0.42c0.1-0.28,0.22-0.55,0.36-0.82c0.83-1.8,1.55-3.64,2.16-5.53
		c1.49,0.48,3.04,0.76,4.61,0.81c0.39-0.01,0.62,0.22,0.76,0.63c0.48,0.8,0.91,1.63,1.29,2.48c-0.04,0.08-0.28,1.45-0.29,1.53
		c-0.47,3.01-1.47,5.92-2.01,8.91c-0.48,2.77-0.76,5.56-0.83,8.37c-0.07,2.05,0,4.1,0.2,6.14c0.22,2.22,0.51,4.44,0.66,6.66
		c0.22,2.49,0.62,4.96,1.21,7.39c0.46,2.34,1.13,4.64,2,6.86c0.45,1.17,1.04,2.28,1.76,3.3c0.07,0.09,0.05,0.29,0.24,0.25
		s0.2-0.21,0.2-0.36c-0.03-1.07,0.23-2.11,0.29-3.18c0.06-1.35,0.31-2.7,0.45-4.05c0.16-1.52,0.35-3.04,0.53-4.56
		c0.19-1.6,0.38-3.21,0.66-4.79c0.28-1.57,0.66-3.12,0.88-4.7c0.35-2.48,0.84-4.94,1.26-7.4c0.18-1.08,0.57-2.09,0.82-3.14
		c0.38-0.76,0.65-1.57,0.81-2.4c0.74-2.78,1.19-5.62,1.35-8.49c0.36-0.23,0.57-0.05,0.8,0.23c1.48,1.88,6.72,3.62,7.01,3.86
		c-2.11,4.59-3.86,9.33-5.23,14.18c-0.4,1.52-0.69,3.07-1.03,4.61c-0.03,0.12-0.01,0.26-0.13,0.34c-0.11,0.06-0.15,0.2-0.08,0.31
		c0.01,0.02,0.02,0.03,0.04,0.05c0.03,0.1,0.01,0.21-0.05,0.29c-0.2,0.1-0.13,0.29-0.14,0.45c-0.05,0.59-0.05,1.19-0.15,1.78
		c-0.37,2.71-0.58,5.45-0.62,8.18c-0.14,2.96,0.25,5.91,0.26,8.87c-0.02,0.13,0.03,0.26,0.13,0.35c0.1,0.08,0.09,0.18,0.07,0.28
		C108.74,911.84,108.84,912.56,109.19,913.17z"/>
	<path id="Path_6286" class="st2" d="M83.93,851.67c-1.7,0.85-3.47,1.54-5.29,2.06c-2.46,0.75-4.98,1.29-7.54,1.62
		c-1.07,0.17-2.15,0.28-3.24,0.32c-0.59,0.01-1.18,0.16-1.78,0.12c-0.27,0-0.55,0-0.82-0.01c-0.93,0.05-1.86,0-2.78-0.12
		c0.1-0.24-24.81-12.8-25.17-12.71c-0.26-0.87-0.39-1.78-0.39-2.69c0.21-1.55,0.79-3.03,1.69-4.31c0.65-0.88,1.4-1.68,2.22-2.4
		c-0.67-0.33-1.32-0.51-1.91-0.83c-3.49-1.67-4.97-5.84-3.3-9.33c0.06-0.13,0.13-0.26,0.2-0.39c1.27-2.28,3.5-3.87,6.07-4.33
		c1.2-0.29,2.44-0.33,3.65-0.13c-2.21-2.99-1.58-7.21,1.41-9.43c0.45-0.33,0.93-0.6,1.45-0.82c1.13-0.61,2.38-0.98,3.66-1.1
		c0.29-0.03,0.5-0.05,0.48-0.48c-0.22-2.67,1.06-5.24,3.33-6.66c3.15-2.35,7.42-2.53,10.75-0.44c0.28,0.16,0.46,0.26,0.75-0.06
		c3.15-3.69,8.7-4.13,12.39-0.98c1.47,1.26,2.49,2.96,2.89,4.85c0.05,0.23,0.1,0.46,0.15,0.68c0.19,0.06,0.27-0.09,0.39-0.17
		c4.62-3.22,10.97-2.09,14.19,2.52c0,0.01,0.01,0.01,0.01,0.02c0.8,1.12,1.37,2.38,1.68,3.71c0.07,0.29,0.14,0.48,0.51,0.52
		c3.32,0.28,5.4,2.25,6.71,5.13c0.99,2.13,1.2,4.55,0.58,6.82C106.51,823.01,83.68,850.98,83.93,851.67z"/>
	<path id="Path_6287" class="st3" d="M83.93,851.68c-0.25-0.7-0.51-1.39-0.75-2.09c-0.2-0.53-0.34-1.09-0.41-1.65
		c-0.07-0.63-0.25-1.23-0.29-1.88c-0.04-0.85-0.03-1.69,0.02-2.54c0.13-1.92,0.64-3.8,1.5-5.53c0.81-1.52,1.84-2.91,3.06-4.14
		c0.38-0.37,0.8-0.71,1.24-1c1.83-1.43,4.06-2.26,6.38-2.39c0.89-0.11,1.78-0.12,2.67-0.01c0.41,0.08,0.69-0.29,0.8-0.62
		c0.69-1.95,1.98-3.63,3.69-4.8c1.13-0.83,2.39-1.47,3.73-1.89c0.44-0.15,0.95-0.13,1.31-0.49c0.21,0.24,0.48,0.1,0.72,0.08
		c4.16-0.56,8.31,1.06,11,4.28c0.77,0.89,1.35,1.93,1.7,3.06c0.09,0.43,0.48,0.72,0.92,0.68c3.99-0.01,7.87,1.34,10.99,3.82
		c3.01,2.17,4.74,5.69,4.61,9.4c-0.06,1.24-0.37,2.46-0.91,3.58c-0.43,0.93-0.44,0.9,0.45,1.37c1.87,0.87,3.42,2.3,4.44,4.1
		c1.3,2.26,1.06,5.09-0.6,7.1c-1.67,2.09-4,3.55-6.6,4.16c-0.44,0.16-0.91,0.26-1.38,0.29c-0.41-1.43-30.84-0.1-30.85,0.47
		l-1.3-0.65c-0.22-0.44-0.73-0.54-1.08-0.82c-0.51-0.39-0.75-1.11-1.46-1.24c-0.03-0.49-0.43-0.77-0.63-1.16
		c-0.29-0.47-0.54-0.97-0.75-1.48c-0.14-0.41-0.37-0.64-0.76-0.63c-1.55-0.06-3.09-0.34-4.56-0.83l-3.2-1.93
		c-1.13-1.05-2.14-2.24-2.99-3.53C84.43,852.39,84.35,851.91,83.93,851.68z M132.65,864.21l-0.09-0.03l0.01,0.05L132.65,864.21z"/>
	<path id="Path_6288" class="st3" d="M36.92,840.25c0,0.91,17.6,22.23,18.11,21.44c0.81,1.03,3.93,5.05,4.68,6.03
		c0.3,0.27,0.5,0.63,0.6,1.02c-0.02,0.27,0,0.55,0.05,0.82c0.25,1.18,0.4,2.38,0.45,3.58c-0.49,1.23-1.21,2.35-2.12,3.32
		c-0.33-0.26-15.41,14.72-15.22,15.07c-3.05,0.17-5.66-0.66-7.47-3.3c-0.22-0.32-0.37-0.3-0.66-0.14c-2.04,1.13-4.29,1.83-6.62,2.05
		c-2.29,0.3-4.61-0.15-6.62-1.29c-2.52-1.54-3.69-4.58-2.87-7.41c0.37-1.52,1.06-2.94,2.01-4.18c0.29-0.39,0.25-0.61-0.14-0.88
		c-3.67-2.68-5.19-7.42-3.75-11.74c0.89-2.85,2.5-5.41,4.68-7.45c1.14-1.1,2.42-2.04,3.82-2.78c0.39-0.14,0.61-0.55,0.53-0.95
		c-0.48-4.85,1.48-8.55,5.42-11.27C33.35,841.16,35.09,840.49,36.92,840.25z"/>
	<path id="Path_6289" class="st2" d="M101.39,865.03c-0.04-0.55-0.19-1.08-0.45-1.57c-0.68-1.65-0.31-3.55,0.94-4.82
		c0.23-0.2,0.28-0.55,0.1-0.8c-0.7-1.07-1.24-2.22-1.62-3.44c-0.55-2.03-0.47-4.82,1.77-6.13c1.45-0.75,3.18-0.75,4.63,0.02
		c0.88,0.35,0.9,0.43,1.32-0.39c1.07-2.11,4.38-3.25,6.55-2.84c2.2,0.43,4.23,1.5,5.84,3.07c0.36,0.35,0.7,0.73,1,1.13
		c0.17,0.24,0.48,0.32,0.74,0.2c1.12-0.28,2.3-0.29,3.42-0.03c3.09,0.78,5.33,3.45,5.55,6.63c0.11,1.47-0.26,2.94-1.05,4.19
		c-0.11,0.18-0.18,0.37,0,0.52c1.09,1.01,1.82,2.34,2.1,3.8c0.14,1.27,0.05,2.56-0.26,3.8c-1.35,4.53-5.91,7.3-10.55,6.39
		c-1.21-0.26-2.35-0.81-3.3-1.61c-0.35-0.34-0.82-0.53-1.31-0.55c-0.44-0.05-0.88-0.13-1.32-0.25c-0.3-0.21-0.65-0.33-1.02-0.33
		c-2.32-0.28-4.41-1.53-5.76-3.44c-0.23-0.29-0.44-0.47-0.8-0.23c-1.96,0.27-3.93-0.43-5.28-1.88
		C102.27,865.94,101.85,865.46,101.39,865.03z"/>
	<path id="Path_6290" class="st2" d="M43.47,891.53c-0.19-0.35-0.56-0.07-0.81-0.23c-1.94-1.24-3.52-2.71-3.43-5.27
		c-0.1-0.66,0.02-1.33,0.32-1.92c0.13-0.19,0.08-0.44-0.1-0.57c-0.02-0.02-0.05-0.03-0.07-0.04c-0.71-0.47-1.23-1.2-1.44-2.03
		c-0.89-2.11-0.2-4.56,1.67-5.88c0.64-0.56,1.43-0.93,2.28-1.05c0.36-0.04,0.47-0.28,0.6-0.57c0.58-1.65,1.71-3.06,3.2-3.98
		c1.6-1.04,3.67-0.97,5.19,0.17c0.39,0.28,0.57,0.18,0.86-0.07c0.73-0.78,1.75-1.22,2.82-1.23c1.12,0.2,2.06,0.95,2.52,1.98
		c0.46,1.29,0.53,2.69,0.22,4.02c-0.1,0.34,0.07,0.69,0.4,0.82c0.36,0.21,0.69,0.47,0.99,0.77c0.02,0.1,0.05,0.2,0.1,0.3
		c0.76,1.42,0.73,3.13-0.09,4.52c-0.41,0.67-0.95,1.26-1.59,1.72c-0.37,0.16-0.77,0.25-1.17,0.28c-0.33-0.02-0.46,0.23-0.52,0.54
		c-0.32,1.77-1.59,3.21-3.3,3.75c-0.4,0.16-0.92,0.13-1.18,0.6c-0.92,2.41-3.33,3.92-5.9,3.69
		C44.49,891.83,43.97,891.72,43.47,891.53z"/>
	<path id="Path_6291" class="st0" d="M65.94,902.92c0.06,0.02,0.15,0.01,0.18,0.05c1.62,2.23,3.12,4.55,4.5,6.93
		c1.49,2.7,2.84,5.47,4.04,8.31c0.01,0.04,0.02,0.08,0.01,0.13c-0.97-1.07-1.83-2.23-2.58-3.47c-1.71-2.52-3.23-5.17-4.52-7.93
		C66.92,905.64,66.37,904.3,65.94,902.92z"/>
	<path id="Path_6292" class="st0" d="M109.19,913.17c-0.35-0.61-0.45-1.33-0.28-2.01C109.01,911.83,109.1,912.5,109.19,913.17z"/>
	<path id="Path_6293" class="st0" d="M109.43,890.95c-0.09-0.09-0.09-0.23,0-0.32c0.01-0.01,0.03-0.03,0.05-0.04
		C109.46,890.71,109.44,890.83,109.43,890.95z"/>
	<path id="Path_6294" class="st0" d="M74.67,918.33c0.09,0.04,0.14,0.14,0.14,0.24C74.72,918.52,74.67,918.43,74.67,918.33z"/>
	<path id="Path_6295" class="st0" d="M97.55,862.32c0.71,0.14,0.95,0.85,1.46,1.24c0.35,0.27,0.85,0.38,1.08,0.82
		c0.21,0.98,0.47,1.95,0.63,2.93c0.12,0.65,0.37,1.27,0.73,1.82c0.87,1.44,1.65,2.93,2.4,4.43c0.76,1.53,1.4,3.1,2.04,4.68
		c-0.25,1.05-0.64,2.07-0.82,3.14c-0.42,2.47-0.91,4.92-1.26,7.4c-0.22,1.58-0.61,3.13-0.88,4.7c-0.28,1.59-0.47,3.19-0.66,4.79
		c-0.18,1.52-0.37,3.03-0.53,4.56c-0.14,1.35-0.38,2.7-0.45,4.05c-0.05,1.07-0.31,2.11-0.29,3.18c0,0.15-0.03,0.32-0.2,0.36
		s-0.17-0.16-0.24-0.25c-0.72-1.02-1.31-2.13-1.76-3.3c-0.87-2.22-1.54-4.52-2-6.86c-0.59-2.43-1-4.9-1.21-7.39
		c-0.15-2.22-0.43-4.44-0.66-6.66c-0.2-2.04-0.27-4.09-0.2-6.14c0.07-2.81,0.34-5.6,0.83-8.37c0.53-2.99,1.42-5.91,1.89-8.91
		C97.47,862.47,97.51,862.39,97.55,862.32z"/>
	<path id="Path_6296" class="st2" d="M132.65,864.2l-0.07,0.02l-0.01-0.05L132.65,864.2z"/>
	<path id="Path_6297" class="st4" d="M55.03,861.69c-0.46,0.83-0.98,1.62-1.57,2.37c-1.94,2.26-4.91,3.36-7.85,2.91
		c-2.37-0.25-4.57-1.38-6.15-3.16c-1.18-1.28-1.94-2.88-2.19-4.6c-0.18-1.46,0-2.93,0.53-4.3c0.03-0.14,0.1-0.28,0.19-0.39
		c0.22-0.16,0.27-0.47,0.11-0.69c-0.04-0.05-0.09-0.1-0.15-0.13c-1.13-0.99-1.91-2.32-2.22-3.79c-0.31-1.17-0.29-2.4,0.04-3.56
		c0.43-1.17,0.94-2.3,1.52-3.4c0.36-0.09,0.5-0.44,0.75-0.66c1.28-1.09,2.86-1.77,4.54-1.96c0.98-0.12,1.02-0.16,1.48-1.22
		c0.91-2.02,2.42-3.72,4.34-4.84c1.78-1.19,4-1.54,6.06-0.97c1.14,0.31,2.15,0.98,2.89,1.9c0.37,0.44,0.6,0.47,0.94-0.07
		c0.96-1.53,2.77-2.3,4.54-1.92c0.84,0.09,1.61,0.48,2.17,1.11c0.61,0.73,1.07,1.56,1.35,2.47c0.25,1.29,0.31,2.61,0.18,3.92
		c-0.02,0.78-0.21,1.54-0.56,2.24c-0.21,0.41-0.05,0.56,0.26,0.75c1.08,0.63,1.89,1.65,2.27,2.84c0.13,0.71,0.17,1.44,0.12,2.16
		c0.09,1.72-0.55,3.4-1.76,4.62c-0.94,1.2-2.35,1.95-3.87,2.06c-0.22,0.01-0.43,0.02-0.54,0.27c-0.09,0.12-0.17,0.24-0.23,0.37
		c-0.36,0.99-0.89,1.9-1.57,2.7c-1.01,1.26-2.38,2.17-3.92,2.62C56.19,861.51,55.55,861.3,55.03,861.69z"/>
	<path id="Path_6298" class="st5" d="M77.22,926.81c0.1-0.03,0.23-0.03,0.29-0.1c0.96-1.04,2.12-1.87,3.41-2.45
		c1.38-0.7,2.8-1.32,4.24-1.86c2.52-0.93,5.09-1.73,7.7-2.38c1.81-0.53,3.66-0.85,5.51-1.2c1.35-0.25,2.73-0.42,4.11-0.56
		c1.48-0.19,2.97-0.28,4.46-0.27c1.26-0.02,2.51,0.25,3.65,0.8c0.25,1.35-0.05,1.93-1.28,2.72c-1.87,1.16-3.84,2.13-5.9,2.91
		c-1.1,0.48-2.22,0.89-3.37,1.23c-1.65,0.42-3.25,0.98-4.92,1.34c-1.53,0.33-3.06,0.66-4.59,0.98c-0.91,0.08-1.81,0.25-2.69,0.5
		c-0.23,0.06-0.46,0.08-0.7,0.07c-0.5-0.04-1,0.04-1.46,0.23c-0.1,0.04-0.2,0.06-0.31,0.05c-1.85,0.16-3.72,0.18-5.57,0.04
		c-0.62-0.13-1.22-0.3-1.81-0.51c-0.2-0.07-0.36-0.23-0.44-0.43C77.34,927.59,77.23,927.2,77.22,926.81z"/>
</g>
</svg>
