<?xml version="1.0" encoding="utf-8"?>
<!-- Generator: Adobe Illustrator 24.3.0, SVG Export Plug-In . SVG Version: 6.00 Build 0)  -->
<svg version="1.1" xmlns="http://www.w3.org/2000/svg" xmlns:xlink="http://www.w3.org/1999/xlink" x="0px" y="0px"
	 viewBox="0 0 177.5 144.7" style="enable-background:new 0 0 177.5 144.7;" xml:space="preserve">
<style type="text/css">
	.st0{display:none;}
	.st1{display:inline;fill:#F7D1A4;}
	.st2{display:inline;fill:#C1A080;}
	.st3{display:inline;}
	.st4{fill:#C1A080;}
	.st5{fill:#F7D1A4;}
	.st6{display:inline;fill:#DDBC9E;}
	.st7{fill:#28E554;}
	.st8{display:inline;fill:#28E554;}
	.st9{display:inline;fill:#1E90FF;}
	.st10{fill:#1E90FF;}
</style>
<g id="圖層_1" class="st0">
	<path id="Path_1250" class="st1" d="M-413.4-31.2h-543.4l-53.3,60.6v293.8l53.3,60.7h543.5l53.2-60.7V29.4L-413.4-31.2z"/>
	<path id="Path_1251" class="st2" d="M-421.9-19.7H-946l-51.3,57.3v277.6l51.3,57.3h524.1l51.3-57.3V37.6L-421.9-19.7z"/>
	<rect id="Rectangle_207" x="-965.3" y="152.1" class="st2" width="562.7" height="7.4"/>
	<rect id="Rectangle_208" x="-1000.6" y="144.7" class="st1" width="638.4" height="7.4"/>
	<g class="st3">
		<rect id="Rectangle_205" x="-593.5" y="-19.7" class="st4" width="6.5" height="164.4"/>
		<rect id="Rectangle_209" x="-586.7" y="-31.2" class="st5" width="6.8" height="180.6"/>
	</g>
	<g class="st3">
		<rect id="Rectangle_206" x="-783.3" y="-19.7" class="st4" width="6.5" height="164.4"/>
		<rect id="Rectangle_210" x="-789.7" y="-31.2" class="st5" width="6.5" height="182.6"/>
	</g>
	<polygon class="st6" points="-967,159.5 -967,300.9 -920.9,352.3 -448.9,352.3 -402.9,300.9 -402.9,159.5 	"/>
	<polygon class="st6" points="-580,0.5 -450.2,0.5 -402.5,51.9 -402.5,144.7 -580,144.7 	"/>
	<polygon class="st6" points="-789.7,0.5 -919.4,0.5 -967,51.9 -967,144.7 -789.7,144.7 	"/>
	<rect x="-776.9" y="0" class="st6" width="183.4" height="144.2"/>
	<rect x="-1098.1" y="-104.2" class="st7" width="131.1" height="319"/>
	<rect x="-402.5" y="-104.2" class="st7" width="131.1" height="319"/>
	<rect x="-967.1" y="-330.8" class="st8" width="171.5" height="131.1"/>
	<rect x="-771" y="-330.8" class="st8" width="171.5" height="131.1"/>
	<rect x="-574.1" y="-330.8" class="st8" width="171.5" height="131.1"/>
</g>
<g id="圖層_2" class="st0">
	<rect x="-215.1" y="167.1" class="st9" width="183.4" height="144.2"/>
</g>
<g id="圖層_3" class="st0">
	<polygon class="st9" points="-215.1,0.5 -85.3,0.5 -37.6,51.9 -37.6,144.7 -215.1,144.7 	"/>
</g>
<g id="圖層_4">
	<polygon class="st10" points="177.5,144.7 0,144.7 0,51.9 47.7,0.5 177.5,0.5 	"/>
</g>
<g id="圖層_5" class="st0">
	<polygon class="st9" points="12.7,159.5 12.7,300.9 58.8,352.3 530.8,352.3 576.8,300.9 576.8,159.5 	"/>
</g>
</svg>
