<?xml version="1.0" encoding="utf-8"?>
<!-- Generator: Adobe Illustrator 24.3.0, SVG Export Plug-In . SVG Version: 6.00 Build 0)  -->
<svg version="1.1" xmlns="http://www.w3.org/2000/svg" xmlns:xlink="http://www.w3.org/1999/xlink" x="0px" y="0px"
	 viewBox="0 0 183.4 144.2" style="enable-background:new 0 0 183.4 144.2;" xml:space="preserve">
<style type="text/css">
	.st0{display:none;}
	.st1{display:inline;fill:#F7D1A4;}
	.st2{display:inline;fill:#C1A080;}
	.st3{display:inline;}
	.st4{fill:#C1A080;}
	.st5{fill:#F7D1A4;}
	.st6{display:inline;fill:#DDBC9E;}
	.st7{fill:#28E554;}
	.st8{display:inline;fill:#28E554;}
	.st9{fill:#1E90FF;}
	.st10{display:inline;fill:#1E90FF;}
</style>
<g id="圖層_1" class="st0">
	<path id="Path_1250" class="st1" d="M-198.3-198.3h-543.4l-53.3,60.6v293.8l53.3,60.7h543.5l53.2-60.7v-293.8L-198.3-198.3z"/>
	<path id="Path_1251" class="st2" d="M-206.8-186.8h-524.1l-51.3,57.3v277.6l51.3,57.3h524.1l51.3-57.3v-277.6L-206.8-186.8z"/>
	<rect id="Rectangle_207" x="-750.2" y="-15" class="st2" width="562.7" height="7.4"/>
	<rect id="Rectangle_208" x="-785.5" y="-22.4" class="st1" width="638.4" height="7.4"/>
	<g class="st3">
		<rect id="Rectangle_205" x="-378.4" y="-186.8" class="st4" width="6.5" height="164.4"/>
		<rect id="Rectangle_209" x="-371.6" y="-198.3" class="st5" width="6.8" height="180.6"/>
	</g>
	<g class="st3">
		<rect id="Rectangle_206" x="-568.2" y="-186.8" class="st4" width="6.5" height="164.4"/>
		<rect id="Rectangle_210" x="-574.6" y="-198.3" class="st5" width="6.5" height="182.6"/>
	</g>
	<polygon class="st6" points="-751.9,-7.6 -751.9,133.8 -705.8,185.2 -233.8,185.2 -187.8,133.8 -187.8,-7.6 	"/>
	<polygon class="st6" points="-364.9,-166.6 -235.1,-166.6 -187.4,-115.2 -187.4,-22.4 -364.9,-22.4 	"/>
	<polygon class="st6" points="-574.6,-166.6 -704.3,-166.6 -751.9,-115.2 -751.9,-22.4 -574.6,-22.4 	"/>
	<rect x="-561.8" y="-167.1" class="st6" width="183.4" height="144.2"/>
	<rect x="-883" y="-271.3" class="st7" width="131.1" height="319"/>
	<rect x="-187.4" y="-271.3" class="st7" width="131.1" height="319"/>
	<rect x="-752" y="-498" class="st8" width="171.5" height="131.1"/>
	<rect x="-555.9" y="-497.9" class="st8" width="171.5" height="131.1"/>
	<rect x="-359" y="-498" class="st8" width="171.5" height="131.1"/>
</g>
<g id="圖層_2">
	<rect class="st9" width="183.4" height="144.2"/>
</g>
<g id="圖層_3" class="st0">
	<polygon class="st10" points="0,-166.6 129.8,-166.6 177.5,-115.2 177.5,-22.4 0,-22.4 	"/>
</g>
<g id="圖層_4" class="st0">
	<polygon class="st10" points="392.6,-22.4 215.1,-22.4 215.1,-115.2 262.8,-166.6 392.6,-166.6 	"/>
</g>
<g id="圖層_5" class="st0">
	<polygon class="st10" points="227.8,-7.6 227.8,133.8 273.9,185.2 745.9,185.2 791.9,133.8 791.9,-7.6 	"/>
</g>
</svg>
