<?xml version="1.0" encoding="utf-8"?>
<!-- Generator: Adobe Illustrator 24.3.0, SVG Export Plug-In . SVG Version: 6.00 Build 0)  -->
<svg version="1.1" xmlns="http://www.w3.org/2000/svg" xmlns:xlink="http://www.w3.org/1999/xlink" x="0px" y="0px"
	 viewBox="0 0 550 182" style="enable-background:new 0 0 550 182;" xml:space="preserve">
<style type="text/css">
	.st0{display:none;}
	.st1{display:inline;fill:#F7D1A4;}
	.st2{display:inline;fill:#C1A080;}
	.st3{display:inline;}
	.st4{fill:#C1A080;}
	.st5{fill:#F7D1A4;}
	.st6{display:inline;fill:#DDBC9E;}
	.st7{fill:#28E554;}
	.st8{display:inline;fill:#28E554;}
	.st9{display:inline;fill:#1E90FF;}
	.st10{fill:#2283D3;}
	.st11{display:inline;fill:#2283D3;}
</style>
<g id="圖層_1" class="st0">
	<path id="Path_1250" class="st1" d="M-426.1-433.5h-543.4l-53.3,60.6v293.8l53.3,60.7H-426l53.2-60.7v-293.8L-426.1-433.5z"/>
	<path id="Path_1251" class="st2" d="M-434.6-422h-524.1l-51.3,57.3v277.6l51.3,57.3h524.1l51.3-57.3v-277.6L-434.6-422z"/>
	<rect id="Rectangle_207" x="-978" y="-250.2" class="st2" width="562.7" height="7.4"/>
	<rect id="Rectangle_208" x="-1013.3" y="-257.6" class="st1" width="638.4" height="7.4"/>
	<g class="st3">
		<rect id="Rectangle_205" x="-606.2" y="-422" class="st4" width="6.5" height="164.4"/>
		<rect id="Rectangle_209" x="-599.4" y="-433.5" class="st5" width="6.8" height="180.6"/>
	</g>
	<g class="st3">
		<rect id="Rectangle_206" x="-796" y="-422" class="st4" width="6.5" height="164.4"/>
		<rect id="Rectangle_210" x="-802.4" y="-433.5" class="st5" width="6.5" height="182.6"/>
	</g>
	<polygon class="st6" points="-979.7,-242.8 -979.7,-101.4 -933.6,-50 -461.6,-50 -415.6,-101.4 -415.6,-242.8 	"/>
	<polygon class="st6" points="-592.7,-401.8 -462.9,-401.8 -415.2,-350.4 -415.2,-257.6 -592.7,-257.6 	"/>
	<polygon class="st6" points="-802.4,-401.8 -932.1,-401.8 -979.7,-350.4 -979.7,-257.6 -802.4,-257.6 	"/>
	<rect x="-789.6" y="-402.3" class="st6" width="183.4" height="144.2"/>
	<rect x="-1110.8" y="-506.5" class="st7" width="131.1" height="319"/>
	<rect x="-415.2" y="-506.5" class="st7" width="131.1" height="319"/>
	<rect x="-979.8" y="-733.1" class="st8" width="171.5" height="131.1"/>
	<rect x="-783.7" y="-733.1" class="st8" width="171.5" height="131.1"/>
	<rect x="-586.8" y="-733.1" class="st8" width="171.5" height="131.1"/>
</g>
<g id="圖層_2" class="st0">
	<rect x="-227.8" y="-235.1" class="st9" width="183.4" height="144.2"/>
</g>
<g id="圖層_3" class="st0">
	<polygon class="st9" points="-227.8,-401.8 -98,-401.8 -50.3,-350.4 -50.3,-257.6 -227.8,-257.6 	"/>
</g>
<g id="圖層_4" class="st0">
	<polygon class="st9" points="177.5,-257.6 0,-257.6 0,-350.4 47.7,-401.8 177.5,-401.8 	"/>
</g>
<g id="圖層_6">
	<rect x="0" class="st10" width="550" height="182"/>
</g>
<g id="圖層_7" class="st0">
	<rect x="-227.8" class="st11" width="172" height="209"/>
</g>
<g id="圖層_5" class="st0">
	<polygon class="st9" points="0,-242.8 0,-101.4 46.1,-50 518.1,-50 564.1,-101.4 564.1,-242.8 	"/>
</g>
</svg>
