<?xml version="1.0" encoding="utf-8"?>
<!-- Generator: Adobe Illustrator 24.3.0, SVG Export Plug-In . SVG Version: 6.00 Build 0)  -->
<svg version="1.1" xmlns="http://www.w3.org/2000/svg" xmlns:xlink="http://www.w3.org/1999/xlink" x="0px" y="0px"
	 viewBox="0 0 177.5 144.7" style="enable-background:new 0 0 177.5 144.7;" xml:space="preserve">
<style type="text/css">
	.st0{display:none;}
	.st1{display:inline;fill:#F7D1A4;}
	.st2{display:inline;fill:#C1A080;}
	.st3{display:inline;}
	.st4{fill:#C1A080;}
	.st5{fill:#F7D1A4;}
	.st6{display:inline;fill:#DDBC9E;}
	.st7{fill:#28E554;}
	.st8{display:inline;fill:#28E554;}
	.st9{display:inline;fill:#1E90FF;}
	.st10{fill:#1E90FF;}
</style>
<g id="圖層_1" class="st0">
	<path id="Path_1250" class="st1" d="M-198.3-31.2h-543.4L-795,29.4v293.8l53.3,60.7h543.5l53.2-60.7V29.4L-198.3-31.2z"/>
	<path id="Path_1251" class="st2" d="M-206.8-19.7h-524.1l-51.3,57.3v277.6l51.3,57.3h524.1l51.3-57.3V37.6L-206.8-19.7z"/>
	<rect id="Rectangle_207" x="-750.2" y="152.1" class="st2" width="562.7" height="7.4"/>
	<rect id="Rectangle_208" x="-785.5" y="144.7" class="st1" width="638.4" height="7.4"/>
	<g class="st3">
		<rect id="Rectangle_205" x="-378.4" y="-19.7" class="st4" width="6.5" height="164.4"/>
		<rect id="Rectangle_209" x="-371.6" y="-31.2" class="st5" width="6.8" height="180.6"/>
	</g>
	<g class="st3">
		<rect id="Rectangle_206" x="-568.2" y="-19.7" class="st4" width="6.5" height="164.4"/>
		<rect id="Rectangle_210" x="-574.6" y="-31.2" class="st5" width="6.5" height="182.6"/>
	</g>
	<polygon class="st6" points="-751.9,159.5 -751.9,300.9 -705.8,352.3 -233.8,352.3 -187.8,300.9 -187.8,159.5 	"/>
	<polygon class="st6" points="-364.9,0.5 -235.1,0.5 -187.4,51.9 -187.4,144.7 -364.9,144.7 	"/>
	<polygon class="st6" points="-574.6,0.5 -704.3,0.5 -751.9,51.9 -751.9,144.7 -574.6,144.7 	"/>
	<rect x="-561.8" y="0" class="st6" width="183.4" height="144.2"/>
	<rect x="-883" y="-104.2" class="st7" width="131.1" height="319"/>
	<rect x="-187.4" y="-104.2" class="st7" width="131.1" height="319"/>
	<rect x="-752" y="-330.8" class="st8" width="171.5" height="131.1"/>
	<rect x="-555.9" y="-330.8" class="st8" width="171.5" height="131.1"/>
	<rect x="-359" y="-330.8" class="st8" width="171.5" height="131.1"/>
</g>
<g id="圖層_2" class="st0">
	<rect y="167.1" class="st9" width="183.4" height="144.2"/>
</g>
<g id="圖層_3">
	<polygon class="st10" points="0,0.5 129.8,0.5 177.5,51.9 177.5,144.7 0,144.7 	"/>
</g>
<g id="圖層_4" class="st0">
	<polygon class="st9" points="392.6,144.7 215.1,144.7 215.1,51.9 262.8,0.5 392.6,0.5 	"/>
</g>
<g id="圖層_5" class="st0">
	<polygon class="st9" points="227.8,159.5 227.8,300.9 273.9,352.3 745.9,352.3 791.9,300.9 791.9,159.5 	"/>
</g>
</svg>
