<?xml version="1.0" encoding="utf-8"?>
<!-- Generator: Adobe Illustrator 25.0.0, SVG Export Plug-In . SVG Version: 6.00 Build 0)  -->
<svg version="1.1" id="圖層_1" xmlns="http://www.w3.org/2000/svg" xmlns:xlink="http://www.w3.org/1999/xlink" x="0px" y="0px"
	 viewBox="0 0 650 415.1" style="enable-background:new 0 0 650 415.1;" xml:space="preserve">
<style type="text/css">
	.st0{fill:#F7D1A4;}
	.st1{fill:#C1A080;}
	.st2{fill:#D3B297;}
	.st3{display:none;fill:#28E554;}
	.st4{fill:#28E554;}
</style>
<path id="Path_1250" class="st0" d="M596.7,0H53.3L0,60.6v293.8l53.3,60.7h543.5l53.2-60.7V60.6L596.7,0z"/>
<path id="Path_1251" class="st1" d="M588.2,11.5H64.1L12.8,68.8v277.6l51.3,57.3h524.1l51.3-57.3V68.8L588.2,11.5z"/>
<rect id="Rectangle_207" x="44.8" y="183.3" class="st1" width="562.7" height="7.4"/>
<rect id="Rectangle_208" x="9.5" y="175.9" class="st0" width="638.4" height="7.4"/>
<g>
	<rect id="Rectangle_205" x="416.6" y="11.5" class="st1" width="6.5" height="164.4"/>
	<rect id="Rectangle_209" x="423.4" class="st0" width="6.8" height="180.6"/>
</g>
<g>
	<rect id="Rectangle_206" x="226.8" y="11.5" class="st1" width="6.5" height="164.4"/>
	<rect id="Rectangle_210" x="220.4" class="st0" width="6.5" height="182.6"/>
</g>
<polygon class="st2" points="43.1,190.7 43.1,332.1 89.2,383.5 561.2,383.5 607.2,332.1 607.2,190.7 "/>
<polygon class="st2" points="430.1,31.7 559.9,31.7 607.6,83.1 607.6,175.9 430.1,175.9 "/>
<polygon class="st2" points="220.4,31.7 90.7,31.7 43.1,83.1 43.1,175.9 220.4,175.9 "/>
<rect x="233.2" y="31.2" class="st2" width="183.4" height="144.2"/>
<rect x="-88" y="-73" class="st3" width="131.1" height="319"/>
<rect x="607.6" y="-73" class="st3" width="131.1" height="319"/>
<rect x="43" y="-299.6" class="st4" width="171.5" height="131.1"/>
<rect x="239.1" y="-299.6" class="st4" width="171.5" height="131.1"/>
<rect x="436" y="-299.6" class="st4" width="171.5" height="131.1"/>
</svg>
