<svg xmlns="http://www.w3.org/2000/svg" width="124.445" height="141.505" viewBox="0 0 124.445 141.505">
  <g id="Group_6172" data-name="Group 6172" transform="translate(-568.518 -1391.099)">
    <path id="Path_6666" data-name="Path 6666" d="M611.489,1464.265q-8.121-9.846-16.227-19.7a2.7,2.7,0,0,0-2.348-1.118c-4.988-.038-9.157-2.237-12.876-5.337-5.569-4.641-9.668-10.3-11.15-17.52a18.151,18.151,0,0,1-.205-6.07c.764-5.413,4.734-8.377,10.176-7.865a21.181,21.181,0,0,1,11.721,5.318c5.768,4.851,10,10.741,11.288,18.337a18.915,18.915,0,0,1-.1,5.747,3.009,3.009,0,0,0,.728,2.658q16.007,19.35,31.959,38.744a9.621,9.621,0,0,1,1.424,2.21,4.4,4.4,0,0,1-1.485,5.312,4.868,4.868,0,0,1-5.85-.195,13.528,13.528,0,0,1-1.335-1.471q-7.863-9.521-15.718-19.05Z" fill="#f5a016"/>
    <path id="Path_6667" data-name="Path 6667" d="M618.206,1432.278c-1.107.283-2,.52-2.9.74-2.685.655-4.083-.167-4.766-2.836q-3.888-15.172-7.759-30.351c-.109-.428-.237-.853-.322-1.286-.3-1.5.269-2.529,1.546-2.834,1.294-.31,2.191.306,2.586,1.843,1.515,5.885,3.007,11.777,4.524,17.662.427,1.656,1.361,2.3,2.847,2.05,1.862-.316,2.469-1.342,1.947-3.4-1.465-5.784-2.956-11.562-4.422-17.346-.441-1.744.2-2.882,1.748-3.074,1.513-.189,2.157.688,2.5,2.042q2.152,8.6,4.383,17.185c.462,1.79,1.42,2.52,2.878,2.287,1.809-.289,2.489-1.242,2.041-3.032-1.452-5.788-2.947-11.565-4.4-17.351-.145-.575-.383-1.32-.149-1.753a3.4,3.4,0,0,1,1.723-1.692,2.864,2.864,0,0,1,2.1.831,3.672,3.672,0,0,1,.728,1.8q3.875,15.092,7.72,30.19c.9,3.519.281,4.54-3.254,5.447l-2.083.532.572,2.236q6.4,25.053,12.784,50.11a9.389,9.389,0,0,1,.36,2.93,4.625,4.625,0,0,1-3.992,4.046,4.738,4.738,0,0,1-5.223-3.388c-1.339-5.075-2.615-10.167-3.915-15.252q-4.657-18.228-9.313-36.455Z" fill="#f5a016"/>
    <g id="Group_5987" data-name="Group 5987">
      <path id="Path_6668" data-name="Path 6668" d="M595.637,1501.459c-.524-14.35,1.392-28,11.115-39.558,20.533-24.4,58.376-19.466,72.089,9.4,3.966,8.347,5.081,17.161,5.226,26.195.092,5.718.065,11.446-.183,17.159-.155,3.567-1.279,6.853-5.281,7.971-3.75,1.048-6.554-.3-9-3.309-3.844-4.741-7.467-4.555-11.633.249s-8.085,4.776-12.236-.12c-3.82-4.5-7.86-4.591-11.692-.25-4.654,5.271-8.4,5.271-12.932,0-3.7-4.305-7.922-4.408-11.313.085-2.373,3.143-5.2,4.524-8.9,3.346-3.718-1.185-5.326-4.049-5.281-7.927C595.676,1510.285,595.637,1505.872,595.637,1501.459Z" fill="#f2d6ad"/>
      <g id="Group_5986" data-name="Group 5986">
        <path id="Path_6669" data-name="Path 6669" d="M586.884,1499.51c-.92-11.536.133-23.74,6.471-35.029,11.251-20.038,33.719-31.2,55.221-27.344,24.064,4.321,43.26,26.281,44.145,50.833.335,9.3.287,18.627.072,27.934-.289,12.53-11.125,19.881-22.8,15.242-4.49-1.783-8.221-1.96-12.551.217-4.365,2.194-8.974,1.211-13.244-.867-2.8-1.362-5.43-1.833-8.378-.3-5.795,3.009-11.649,3.02-17.27-.484-3.108-1.937-5.616-.2-8.27.965-8.5,3.716-16.188,1.468-21.469-6.072a10.78,10.78,0,0,1-1.917-6.417C586.865,1512.3,586.884,1506.422,586.884,1499.51Zm8.753,1.949c0,4.413.039,8.826-.011,13.238-.045,3.878,1.563,6.742,5.281,7.927,3.694,1.178,6.522-.2,8.9-3.346,3.391-4.493,7.615-4.39,11.313-.085,4.531,5.274,8.278,5.274,12.932,0,3.832-4.341,7.872-4.254,11.692.25,4.151,4.9,8.062,4.934,12.236.12s7.789-4.99,11.633-.249c2.441,3.012,5.245,4.357,9,3.309,4-1.118,5.126-4.4,5.281-7.971.248-5.713.275-11.441.183-17.159-.145-9.034-1.26-17.848-5.226-26.195-13.713-28.866-51.556-33.8-72.089-9.4C597.029,1473.455,595.113,1487.109,595.637,1501.459Z" fill="#f5a016"/>
        <path id="Path_6670" data-name="Path 6670" d="M689.19,1496.622c-.9,5.741-5.338,7.063-8.76,9.374-2.07,1.4-2.917-1.413-3.764-2.91-1.971-3.485-3.957-5.055-7.23-1.355s-5.824,2.363-7.765-1.612c-1.184-2.426-2.325-4.205-5.188-1.832-1.842,1.526-3.536,4.615-6.3,3.233-2.5-1.248-5.254-7.885-5.215-12,1.053-.7,1.672.262,2.085.953,2.874,4.81,6.02,7.021,10.627,1.822,1.8-2.029,3.494-1.279,4.517,1.143,2.288,5.418,5.345,5.577,9.124,1.427,2-2.193,3.968-1.875,5.077.658,2.405,5.495,5.549,4.783,9.376,1.7C686.622,1496.534,687.759,1495.153,689.19,1496.622Z" fill="#f5a016"/>
        <path id="Path_6671" data-name="Path 6671" d="M645.668,1474.453c-.551-3.914-2.078-8.2,2.388-9.506,4.662-1.363,6.616,2.656,7.753,6.442,1.208,4.02.657,8.344-3.7,9.417C647.43,1481.959,647.548,1476.554,645.668,1474.453Z" fill="#f5a016"/>
      </g>
    </g>
  </g>
</svg>
