<svg xmlns="http://www.w3.org/2000/svg" width="61.922" height="70" viewBox="0 0 61.922 70">
  <g id="Group_560" data-name="Group 560" transform="translate(-1033.993 -317)">
    <g id="Group_557" data-name="Group 557" transform="translate(1033.993 317)">
      <g id="Group_556" data-name="Group 556" transform="translate(0 0)">
        <rect id="Rectangle_217" data-name="Rectangle 217" width="23.217" height="14.913" rx="7.456" transform="translate(38.705 7.807)" fill="#decdbb"/>
        <path id="Rectangle_218" data-name="Rectangle 218" d="M15.545,0H53.692a0,0,0,0,1,0,0V66.321a0,0,0,0,1,0,0H15.545A15.545,15.545,0,0,1,0,50.776V15.545A15.545,15.545,0,0,1,15.545,0Z" fill="#66ab8c"/>
        <path id="Rectangle_219" data-name="Rectangle 219" d="M12.889,0h.581a0,0,0,0,1,0,0V66.321a0,0,0,0,1,0,0h-.581A12.889,12.889,0,0,1,0,53.432V12.889A12.889,12.889,0,0,1,12.889,0Z" fill="#438b6b"/>
        <path id="Rectangle_220" data-name="Rectangle 220" d="M8.194,0h45.5a0,0,0,0,1,0,0V16.387a0,0,0,0,1,0,0H8.194A8.194,8.194,0,0,1,0,8.194v0A8.194,8.194,0,0,1,8.194,0Z" transform="translate(0 49.934)" fill="#80cea9"/>
        <g id="Group_555" data-name="Group 555" transform="translate(19.111 13.596)">
          <g id="Group_554" data-name="Group 554">
            <g id="Group_553" data-name="Group 553">
              <path id="Path_1014" data-name="Path 1014" d="M1109.239,353.616a2.371,2.371,0,0,1-1.791-.841,3.066,3.066,0,0,1-.773-2.087V339.321l-4.2,11.993a3.606,3.606,0,0,1-1.2,1.668,2.863,2.863,0,0,1-3.583,0,3.594,3.594,0,0,1-1.192-1.649l-4.2-12v11.357a3.064,3.064,0,0,1-.773,2.087,2.339,2.339,0,0,1-3.582-.018,3.11,3.11,0,0,1-.743-2.07V330.969a3.872,3.872,0,0,1,.9-2.536,2.841,2.841,0,0,1,2.2-1.086h.943a2.746,2.746,0,0,1,1.714.622,3.762,3.762,0,0,1,1.172,1.629l5.349,15.417,5.329-15.363a3.823,3.823,0,0,1,1.192-1.683,2.743,2.743,0,0,1,1.714-.622h.943a2.84,2.84,0,0,1,2.2,1.086,3.872,3.872,0,0,1,.9,2.536v19.718a3.11,3.11,0,0,1-.743,2.07A2.327,2.327,0,0,1,1109.239,353.616Z" transform="translate(-1087.204 -327.347)" fill="#fffdff"/>
            </g>
          </g>
        </g>
      </g>
      <path id="Rectangle_221" data-name="Rectangle 221" d="M5.071,0H53.417a0,0,0,0,1,0,0V10.143a0,0,0,0,1,0,0H5.071A5.071,5.071,0,0,1,0,5.071v0A5.071,5.071,0,0,1,5.071,0Z" transform="translate(3.171 52.874)" fill="#f7ede2"/>
      <path id="Path_1015" data-name="Path 1015" d="M1093.482,394.559h-16.015v15.066a2.057,2.057,0,0,0,2.892,1.88l4.281-1.9a2.059,2.059,0,0,1,1.67,0l4.281,1.9a2.057,2.057,0,0,0,2.892-1.88Z" transform="translate(-1063.453 -341.685)" fill="#438b6b"/>
    </g>
  </g>
</svg>
