<svg id="圖層_1" data-name="圖層 1" xmlns="http://www.w3.org/2000/svg" viewBox="0 0 21.88 24.96"><defs><style>.cls-1{fill:#858585;}</style></defs><g id="Group_5611" data-name="Group 5611"><g id="Group_5610" data-name="Group 5610"><path id="Path_6319" data-name="Path 6319" class="cls-1" d="M950.29,468.36v-7.69c0-.62,0-.55-.54-.56h-.23a.76.76,0,0,1-.75-.69,4.92,4.92,0,0,1,0-.94.77.77,0,0,1,.69-.72,5.27,5.27,0,0,1,1,0q1.37,0,2.73,0a.49.49,0,0,0,.48-.27l1.45-2.39a2.39,2.39,0,0,1,2.11-1.22H962a2.39,2.39,0,0,1,2.17,1.23c.48.8,1,1.59,1.43,2.39a.49.49,0,0,0,.46.26q1.67,0,3.33,0a2.32,2.32,0,0,1,.53,0,.74.74,0,0,1,.63.65,3.49,3.49,0,0,1,0,1,.77.77,0,0,1-.76.67h-.23c-.52,0-.52,0-.52.54v15.42a3.71,3.71,0,0,1-.1.94,2.26,2.26,0,0,1-2.24,1.78c-4.7,0-9.41,0-14.11,0a2.41,2.41,0,0,1-2.3-2.11c-.1-1.47,0-2.94,0-4.41,0-1.31,0-2.62,0-3.93Zm16.39-.08v-7.8c0-.28-.07-.37-.36-.37H953.05c-.29,0-.37.09-.37.37q0,7.8,0,15.6c0,.3.1.37.38.37H966.3c.37,0,.38,0,.38-.38Zm-7-10.57h3c.18,0,.28,0,.15-.24l-.6-1a.48.48,0,0,0-.45-.24h-4.26a.48.48,0,0,0-.48.28c-.18.3-.37.6-.54.9,0,.07-.15.15-.09.25s.16,0,.24,0h3Z" transform="translate(-948.75 -453.84)"/><path id="Path_6320" data-name="Path 6320" class="cls-1" d="M961.21,468.26v-5c0-.61.2-.8.8-.8H963a.62.62,0,0,1,.66.57v0c0,.14,0,.29,0,.43v9.76a2.3,2.3,0,0,1,0,.37.58.58,0,0,1-.54.54,5.22,5.22,0,0,1-1.25,0c-.41,0-.6-.3-.6-.77v-5.12Z" transform="translate(-948.75 -453.84)"/><path id="Path_6321" data-name="Path 6321" class="cls-1" d="M958.15,468.29v5c0,.61-.21.83-.81.84h-.83a.7.7,0,0,1-.76-.6.81.81,0,0,1,0-.16q0-5.14,0-10.27a.62.62,0,0,1,.55-.7h1.11a.64.64,0,0,1,.73.54.67.67,0,0,1,0,.2v5.12Z" transform="translate(-948.75 -453.84)"/></g></g></svg>