<?xml version="1.0" encoding="utf-8"?>
<!-- Generator: Adobe Illustrator 24.1.0, SVG Export Plug-In . SVG Version: 6.00 Build 0)  -->
<svg version="1.1" id="圖層_1" xmlns="http://www.w3.org/2000/svg" xmlns:xlink="http://www.w3.org/1999/xlink" x="0px" y="0px"
	 viewBox="0 0 393 67" style="enable-background:new 0 0 393 67;" xml:space="preserve">
<style type="text/css">
	.st0{enable-background:new    ;}
	.st1{fill:#5668B7;}
</style>
<g class="st0">
	<path class="st1" d="M4.1,18.7h20.5v5.5H10.8v8.7h11.8v5.6H10.8V52H4.1V18.7z"/>
	<path class="st1" d="M48.6,52l-6.8-12.6h-4.6V52h-6.7V18.7H42c7,0,12.5,2.4,12.5,10.1c0,5-2.5,8.1-6.3,9.6L56,52H48.6z M37.1,34.1
		h4.3c4.3,0,6.6-1.8,6.6-5.4c0-3.6-2.3-4.8-6.6-4.8h-4.3V34.1z"/>
	<path class="st1" d="M61.1,18.7h20.4v5.5H67.8v7.7h11.7v5.6H67.8v8.9H82V52H61.1V18.7z"/>
	<path class="st1" d="M86.6,47.8l3.8-4.6c2.4,2.2,5.5,3.7,8.5,3.7c3.5,0,5.3-1.5,5.3-3.8c0-2.5-2-3.2-5-4.5l-4.5-1.9
		c-3.4-1.4-6.8-4.1-6.8-9c0-5.4,4.8-9.6,11.5-9.6c3.9,0,7.7,1.5,10.4,4.3l-3.4,4.2c-2.1-1.8-4.3-2.7-7.1-2.7c-2.9,0-4.8,1.3-4.8,3.5
		c0,2.4,2.4,3.2,5.2,4.4l4.4,1.8c4,1.7,6.7,4.2,6.7,9c0,5.4-4.5,10.1-12.2,10.1C94.3,52.6,89.8,50.9,86.6,47.8z"/>
	<path class="st1" d="M116.9,18.7h6.7v13.1h12.6V18.7h6.6V52h-6.6V37.6h-12.6V52h-6.7V18.7z"/>
	<path class="st1" d="M161.1,18.7h20.4v5.5h-13.8v7.7h11.7v5.6h-11.7v8.9h14.3V52h-20.9V18.7z"/>
	<path class="st1" d="M184.5,18.7h7l4.4,16.2c1,3.7,1.7,7,2.8,10.8h0.2c1-3.7,1.8-7.1,2.8-10.8l4.3-16.2h6.8L202.6,52h-7.9
		L184.5,18.7z"/>
	<path class="st1" d="M216.6,18.7h20.4v5.5h-13.8v7.7H235v5.6h-11.7v8.9h14.3V52h-20.9V18.7z"/>
	<path class="st1" d="M262.4,52l-6.8-12.6H251V52h-6.7V18.7h11.6c7,0,12.5,2.4,12.5,10.1c0,5-2.5,8.1-6.3,9.6l7.8,13.6H262.4z
		 M251,34.1h4.3c4.3,0,6.6-1.8,6.6-5.4c0-3.6-2.3-4.8-6.6-4.8H251V34.1z"/>
	<path class="st1" d="M280.1,39.8l-10-21.1h7.1l3.3,8.1c0.9,2.5,1.8,4.8,2.9,7.4h0.2c1-2.6,2-4.9,3-7.4l3.3-8.1h6.9l-10,21.1V52
		h-6.7V39.8z"/>
	<path class="st1" d="M310.8,18.7h9.1c10.2,0,16.5,5.3,16.5,16.5c0,11.2-6.3,16.8-16.1,16.8h-9.5V18.7z M319.5,46.6
		c6.2,0,10.1-3.3,10.1-11.4c0-8.1-3.9-11.2-10.1-11.2h-2.1v22.6H319.5z"/>
	<path class="st1" d="M358,43.4h-10.8l-2.3,8.5h-6.8l10.7-33.3h7.8L367.3,52h-7L358,43.4z M356.6,38.3l-1-3.6
		c-1-3.5-1.9-7.3-2.9-10.9h-0.2c-0.9,3.6-1.8,7.4-2.8,10.9l-1,3.6H356.6z"/>
	<path class="st1" d="M376,39.8l-10-21.1h7.1l3.3,8.1c0.9,2.5,1.8,4.8,2.9,7.4h0.2c1-2.6,2-4.9,3-7.4l3.3-8.1h6.9l-10,21.1V52H376
		V39.8z"/>
</g>
</svg>
