<?xml version="1.0" encoding="utf-8"?>
<!-- Generator: Adobe Illustrator 24.1.0, SVG Export Plug-In . SVG Version: 6.00 Build 0)  -->
<svg version="1.1" id="圖層_1" xmlns="http://www.w3.org/2000/svg" xmlns:xlink="http://www.w3.org/1999/xlink" x="0px" y="0px"
	 viewBox="0 0 547 38" style="enable-background:new 0 0 547 38;" xml:space="preserve">
<style type="text/css">
	.st0{enable-background:new    ;}
	.st1{fill:#FFFFFF;}
</style>
<g class="st0">
	<path class="st1" d="M24.2,19.6c0.2,0.7,0.3,1.3,0.3,1.9c0.1,0.5,0.1,1,0,1.3c-0.1,0.4-0.2,0.7-0.3,1c-0.2,0.3-0.4,0.5-0.6,0.8
		c-0.3,0.2-0.6,0.4-1,0.4c-0.4,0-0.6,0-0.8-0.3c-0.2-0.3-0.1-0.7,0.4-1.2c0.3-0.3,0.5-0.6,0.7-0.8c0.2-0.2,0.3-0.5,0.5-0.8
		c0.1-0.3,0.2-0.6,0.3-0.9s0.2-0.8,0.2-1.3L24.2,19.6z M30.8,17.2c0,0.4,0,0.7-0.1,1c-0.1,0.3-0.3,0.4-0.5,0.5c-0.1,0-0.2,0-0.3,0
		c-0.1-0.1-0.2-0.2-0.3-0.3c-0.1-0.2-0.1-0.3-0.2-0.5c-0.1-0.1-0.1-0.3-0.2-0.5c-1,0.3-1.8,0.5-2.5,0.6c-0.7,0.2-1.2,0.3-1.6,0.5
		s-0.8,0.3-1,0.4c-0.3,0.1-0.5,0.2-0.7,0.3c-0.1,0.1-0.2,0.1-0.3,0.1c-0.1,0-0.1-0.1-0.2-0.2c-0.1-0.2-0.2-0.5-0.3-0.8
		c-0.1-0.3-0.2-0.6-0.3-0.9c0.2,0,0.4,0,0.6,0c0.2,0,0.4,0,0.6,0c0.6-0.4,1.2-0.9,1.8-1.6c0.6-0.7,1.2-1.5,1.8-2.6
		c-0.4,0.1-0.8,0.2-1.3,0.2s-0.8,0.2-1.2,0.3s-0.7,0.2-1,0.3C23.4,13.9,23.2,14,23,14c-0.1,0.1-0.2,0.1-0.2,0c0,0-0.1-0.1-0.2-0.2
		c-0.1-0.2-0.2-0.5-0.3-0.8c-0.1-0.3-0.2-0.5-0.3-0.8c0.1,0,0.2,0,0.3,0c0.1,0,0.2,0,0.4,0c0.7-0.6,1.4-1.4,1.9-2.4
		c0.6-1,1.1-2.3,1.7-3.8c0.4,0.2,0.7,0.4,1.2,0.6c0.4,0.2,0.7,0.4,1,0.5c0.3,0.2,0.3,0.3,0.3,0.4c-0.1,0.1-0.2,0.2-0.5,0.2
		c-0.1,0-0.3,0.1-0.4,0.2c-0.1,0.1-0.3,0.3-0.5,0.6c-0.5,0.7-1,1.3-1.6,1.9c-0.5,0.6-1.1,1.2-1.7,1.8c0.1,0,0.2,0,0.3,0
		c0.1,0,0.2,0,0.3,0l2.9-0.1c0.1-0.2,0.3-0.4,0.3-0.6c0.1-0.2,0.2-0.3,0.3-0.4c0.1-0.1,0.2-0.3,0.2-0.4c0.1-0.1,0.2-0.3,0.3-0.5
		c0.4,0.2,0.7,0.4,0.9,0.6c0.3,0.2,0.5,0.4,0.7,0.6c0.2,0.2,0.3,0.3,0.2,0.4c0,0.1-0.2,0.1-0.4,0.1c-0.2,0-0.3,0.1-0.5,0.2
		c-0.1,0.1-0.3,0.3-0.6,0.6c-0.2,0.2-0.4,0.5-0.7,0.8c-0.3,0.3-0.6,0.7-1,1.1c-0.4,0.4-0.7,0.8-1.1,1.2c-0.4,0.4-0.8,0.8-1.2,1.2
		l3.8-0.3c-0.2-0.3-0.3-0.5-0.5-0.7c-0.2-0.2-0.4-0.5-0.7-0.7l0.3-0.3c0.6,0.3,1,0.5,1.4,0.7c0.4,0.2,0.6,0.4,0.8,0.5
		c0.2,0.2,0.3,0.3,0.4,0.5C30.8,16.9,30.8,17,30.8,17.2z M27.8,22.3c0,0.2,0,0.4-0.1,0.6s-0.2,0.4-0.3,0.6c-0.1,0.2-0.3,0.3-0.4,0.5
		c-0.2,0.1-0.3,0.2-0.4,0.2c-0.1,0-0.3,0-0.3-0.1C26,23.9,26,23.7,26,23.4c0.1-0.8,0.1-1.5,0.1-2.2c0-0.7-0.1-1.3-0.3-1.9l0.3-0.1
		c0.3,0.4,0.6,0.8,0.9,1.1c0.2,0.3,0.4,0.6,0.5,0.8c0.1,0.2,0.2,0.4,0.3,0.6C27.8,21.9,27.8,22.1,27.8,22.3z M30.6,21.4
		c0,0.2,0,0.4-0.1,0.7c-0.1,0.2-0.2,0.4-0.3,0.6S30,22.9,29.9,23c-0.1,0.1-0.2,0.1-0.4,0.1c-0.1,0-0.2,0-0.2-0.1
		c0-0.1-0.1-0.2-0.1-0.4c-0.1-0.7-0.2-1.3-0.4-1.9c-0.2-0.6-0.4-1.2-0.8-1.8l0.3-0.2c0.5,0.4,0.9,0.8,1.2,1c0.3,0.3,0.5,0.5,0.7,0.7
		c0.2,0.2,0.3,0.4,0.3,0.5C30.5,21.1,30.6,21.2,30.6,21.4z M41.4,10.8c0.2,0.2,0.3,0.3,0.2,0.4c0,0.1-0.2,0.1-0.5,0.1h-4.6v3.2h1.3
		l0.9-1.1c0.1-0.1,0.2-0.2,0.2-0.2s0.2,0.1,0.3,0.2c0.3,0.2,0.5,0.4,0.7,0.6c0.2,0.2,0.4,0.4,0.6,0.6c0.2,0.2,0.3,0.3,0.3,0.4
		c0,0.1-0.2,0.2-0.4,0.2h-8.1c-0.2,0-0.3,0-0.5,0c-0.2,0-0.3,0.1-0.4,0.1L31,14.4c0.2,0,0.4,0.1,0.5,0.1c0.1,0,0.3,0,0.5,0h2.7v-3.2
		h-3.3c-0.2,0-0.3,0-0.5,0c-0.2,0-0.3,0.1-0.4,0.1l-0.4-0.9c0.2,0,0.4,0.1,0.5,0.1c0.1,0,0.3,0,0.5,0h3.6V7.8c0-0.5,0-0.9,0-1.2
		s0-0.6,0-0.8c0.4,0.1,0.8,0.2,1.2,0.3c0.4,0.1,0.8,0.2,1.1,0.3c0.3,0.1,0.4,0.2,0.4,0.3c0,0.1-0.3,0.3-0.8,0.6v3.3h2l0.9-1.4
		c0.1-0.1,0.2-0.2,0.2-0.2s0.2,0.1,0.3,0.2c0.2,0.2,0.4,0.4,0.7,0.7C41,10.3,41.2,10.5,41.4,10.8z M40.3,17.7
		c0.2,0.2,0.3,0.3,0.3,0.5c0,0.2-0.3,0.4-0.8,0.6v4.7c0,0.4,0,0.8,0.1,1.2c0,0.1,0,0.2,0,0.2c0,0-0.1,0.1-0.2,0.1
		c-0.2,0.1-0.4,0.2-0.7,0.3c-0.3,0.1-0.6,0.2-0.9,0.2c-0.1,0-0.2,0-0.2-0.2v-2.1h-4.7v1.6c0,0.2,0,0.3-0.1,0.3
		c-0.2,0.1-0.5,0.2-0.7,0.3c-0.2,0.1-0.5,0.1-0.8,0.2c-0.1,0-0.1,0-0.1,0c0,0,0-0.1,0-0.2c0-0.3,0-0.5,0-0.8c0-0.3,0-0.5,0-0.6v-5.4
		c0-0.3,0-0.7,0-0.9c0-0.3,0-0.5-0.1-0.9c0.4,0.1,0.8,0.2,1.1,0.4c0.3,0.1,0.6,0.3,0.9,0.5h4.2l0.4-0.8c0.1-0.1,0.1-0.1,0.2-0.2
		c0,0,0.1,0,0.3,0.1c0.1,0.1,0.3,0.1,0.4,0.2c0.2,0.1,0.3,0.2,0.5,0.3c0.2,0.1,0.3,0.2,0.5,0.3C40.1,17.5,40.2,17.6,40.3,17.7z
		 M38,18.2h-4.7v4.4H38V18.2z"/>
	<path class="st1" d="M53.3,8.2c-2.3,3.3-5.7,6-10.1,8.1L43,15.8c1.9-1.1,3.7-2.6,5.3-4.3c1.6-1.8,2.9-3.6,3.8-5.5
		c1,0.3,1.6,0.6,2,0.8c0.4,0.2,0.6,0.3,0.6,0.5s-0.1,0.2-0.4,0.3s-0.5,0.1-0.6,0.2c1.2,1.6,2.6,2.9,4.3,4s3.4,1.8,5.2,2v0.4
		c-0.7,0-1.2,0.1-1.5,0.3c-0.3,0.1-0.6,0.4-0.8,0.8c0,0.1-0.1,0.1-0.2,0.1c-0.2,0-0.8-0.3-1.8-1c-1-0.7-2-1.6-3-2.6
		S53.9,9.4,53.3,8.2z M56.3,23.7h-7v1.1c0,0.1,0,0.2-0.1,0.3c-0.1,0.1-0.3,0.2-0.8,0.4c-0.5,0.2-0.7,0.3-0.8,0.3s-0.1-0.1-0.1-0.2
		l0-1.4v-5.4c0-0.6,0-1.2-0.1-1.8c0.9,0.4,1.6,0.7,2,0.9h6.7l0.4-0.8c0.1-0.2,0.1-0.2,0.2-0.2c0.1,0,0.4,0.1,0.9,0.4
		s0.9,0.4,1.1,0.6c0.2,0.1,0.3,0.2,0.3,0.3c0,0.1-0.2,0.3-0.7,0.5v4.8c0,0.3,0,0.5,0,0.8l0,0.5c0,0.1-0.1,0.2-0.2,0.3
		c-0.1,0.1-0.4,0.2-0.8,0.3c-0.4,0.1-0.7,0.2-0.8,0.2c-0.1,0-0.1-0.1-0.1-0.2V23.7z M54.8,14.6l0.7-1.1c0.1-0.2,0.2-0.3,0.3-0.3
		s0.5,0.3,1.1,0.9s0.9,0.9,0.9,1c0,0.1-0.1,0.1-0.4,0.1h-8.4c-0.4,0-0.7,0-0.9,0.1l-0.4-0.9c0.3,0.1,0.6,0.1,1,0.1H54.8z M49.3,22.9
		h7v-4.3h-7V22.9z"/>
	<path class="st1" d="M71.2,10.5h-4.9c-0.4,0-0.7,0-0.9,0.1l-0.4-0.9c0.3,0.1,0.6,0.1,1,0.1h5.4c0.4-1.1,0.9-2.4,1.3-4.1
		c1.7,0.7,2.6,1.1,2.6,1.4c0,0.1-0.1,0.2-0.3,0.2s-0.3,0-0.4,0.1c-0.1,0.1-0.2,0.3-0.4,0.7c-0.2,0.4-0.4,0.9-0.8,1.6H80l1-1.4
		c0.1-0.1,0.2-0.2,0.3-0.2c0.2,0,0.6,0.3,1.4,0.9c0.8,0.6,1.1,1,1.1,1.2s-0.2,0.2-0.5,0.2H73.1c-1,1.9-1.9,3.5-2.9,4.7v9.2
		c0,0.1,0,0.2-0.1,0.3c0,0-0.2,0.1-0.4,0.3c-0.2,0.1-0.5,0.2-0.7,0.3c-0.3,0.1-0.4,0.1-0.5,0.1c-0.1,0-0.1-0.1-0.1-0.2l0-1
		c0-0.7,0-1.3,0-1.9v-5.1c-1.2,1.2-2.7,2.3-4.4,3.4l-0.3-0.3c1.9-1.7,3.4-3.4,4.7-5.1c0-1.2,0-1.9,0-2.3c0.6,0.2,1.1,0.4,1.3,0.5
		C70.1,12.8,70.6,11.8,71.2,10.5z M75.4,23v-6.3h-3c-0.4,0-0.7,0-0.9,0.1l-0.4-0.9c0.3,0.1,0.6,0.1,1,0.1h3.3v-2.4c0-1.1,0-1.7,0-2
		c0.6,0.1,1.2,0.3,1.7,0.5c0.5,0.2,0.8,0.4,0.8,0.5c0,0.1-0.2,0.3-0.7,0.5V16h2.1l0.6-1.1c0.1-0.2,0.3-0.3,0.5-0.3s0.6,0.3,1.3,0.8
		c0.7,0.6,1,0.9,1,1.1c0,0.1-0.2,0.2-0.5,0.2h-5V23h3l0.9-1.3c0.1-0.2,0.3-0.3,0.4-0.3s0.4,0.2,0.9,0.5c0.4,0.3,0.8,0.6,1.1,0.9
		c0.3,0.3,0.4,0.4,0.4,0.5c0,0.2-0.2,0.2-0.5,0.2H71.7c-0.4,0-0.7,0-0.9,0.1l-0.4-0.9c0.3,0.1,0.6,0.1,1,0.1H75.4z"/>
	<path class="st1" d="M88.4,13.9h-1.7c-0.3,0-0.6,0-0.9,0.1l-0.4-1c0.3,0.1,0.6,0.1,1.1,0.1h1.9V8.6c0-0.7,0-1.3,0-1.9
		c0.6,0.1,1.2,0.3,1.7,0.5c0.6,0.2,0.9,0.4,0.9,0.5s-0.3,0.4-0.9,0.7v4.7h0.6l0.6-0.8c0.1-0.2,0.2-0.2,0.3-0.2s0.3,0.2,0.7,0.7
		c0.4,0.4,0.6,0.7,0.6,0.9s-0.1,0.2-0.3,0.2h-2.5v5.9l2.7-0.8l0.1,0.5l-4.1,2c-0.8,0.4-1.6,0.9-2.3,1.3C86.3,23,86.2,23,86.2,23
		c-0.1,0-0.1-0.1-0.2-0.2c-0.1-0.1-0.5-0.7-1.1-1.8c1.1-0.1,2.2-0.4,3.5-0.7V13.9z M98.5,12.1l2.2-0.8l0.4-1
		c0.1-0.2,0.2-0.3,0.3-0.3c0.1,0,0.5,0.2,1,0.5s0.9,0.5,0.9,0.6c0.1,0.1,0.1,0.1,0.1,0.2c0,0.1-0.3,0.4-0.8,0.8c0,1.1,0,2.3,0,3.6
		c0,1.3-0.1,2.1-0.1,2.4s-0.2,0.7-0.3,0.9c-0.2,0.3-0.4,0.5-0.8,0.8c-0.4,0.2-0.6,0.4-0.7,0.4c-0.1,0-0.2-0.1-0.3-0.3
		c-0.2-0.4-0.3-0.7-0.6-0.9c-0.2-0.2-0.6-0.4-1.2-0.6v-0.3c0.5,0,0.9,0,1.2,0s0.5-0.1,0.7-0.2c0.1-0.1,0.3-0.3,0.3-0.7
		c0.1-0.4,0.1-1,0.2-1.8c0-0.9,0-2,0-3.4L98.5,13v5.8c0,0.5,0,0.9,0,1.2l0,0.6c0,0.1,0,0.2-0.1,0.2c0,0.1-0.3,0.2-0.7,0.3
		c-0.4,0.2-0.7,0.2-0.8,0.2c-0.1,0-0.1-0.1-0.1-0.3v-7.5l-2,0.8v7c0,0.6,0,1.1,0.1,1.3c0.1,0.2,0.3,0.3,0.7,0.4s1.4,0.1,2.9,0.1
		s2.4-0.1,2.8-0.2c0.3-0.1,0.6-0.5,0.8-1c0.2-0.5,0.4-1.5,0.6-3l0.4,0.1c0,0.4,0,0.8,0,1.2c0,1.5,0.3,2.4,0.8,2.7
		c0.1,0.1,0.2,0.2,0.2,0.3s-0.2,0.4-0.6,0.9c-0.4,0.4-0.8,0.7-1.3,0.8c-0.4,0.1-1.4,0.1-2.8,0.1c-1.4,0-2.7,0-3.6-0.1
		c-1-0.1-1.6-0.2-1.9-0.3c-0.3-0.1-0.5-0.4-0.6-0.8s-0.1-1.1-0.1-2V15L92,15.5c-0.5,0.2-0.9,0.4-1,0.5l-0.8-0.9c0.3,0,0.6-0.1,1-0.2
		l2.1-0.8v-2.6c0-1,0-1.7-0.1-2.4c0.6,0.1,1.1,0.3,1.5,0.4c0.4,0.1,0.7,0.2,0.8,0.3c0.1,0.1,0.1,0.1,0.1,0.2c0,0.1-0.3,0.4-0.8,0.6
		v2.8l2-0.8V7.9c0-0.5,0-1-0.1-1.6c0.4,0.1,1,0.2,1.6,0.5C99,7,99.3,7.2,99.3,7.3c0,0.1-0.2,0.4-0.7,0.7V12.1z"/>
	<path class="st1" d="M110.9,11.7c0.3,0.1,0.8,0.2,1.5,0.5c0.7,0.3,1,0.5,1,0.6s-0.1,0.2-0.3,0.3c-0.2,0.1-0.3,0.2-0.5,0.4
		c-0.1,0.2-0.4,0.6-0.7,1.2c-0.9,1.8-1.8,3.3-2.7,4.5c-0.9,1.2-1.9,2.3-3,3.4l-0.3-0.3C108,19.5,109.7,16,110.9,11.7z M115.4,6.1
		c1.1,0.2,1.9,0.3,2.4,0.5c0.5,0.2,0.8,0.3,0.8,0.4c0,0.1-0.4,0.4-1,0.7v15c0,0.8-0.1,1.3-0.3,1.6c-0.2,0.3-0.6,0.6-1.1,0.9
		c-0.6,0.3-1,0.4-1.2,0.4c-0.2,0-0.3-0.1-0.3-0.4c-0.1-0.6-0.3-1.1-0.8-1.4c-0.5-0.3-1.2-0.7-2.2-0.9l0.1-0.4
		c1.7,0.3,2.7,0.4,3.1,0.4s0.6-0.1,0.7-0.2c0.1-0.1,0.1-0.3,0.1-0.6V8.4C115.5,7.5,115.5,6.7,115.4,6.1z M119.1,12.5
		c2,1.3,3.5,2.5,4.6,3.5c1.1,1,1.6,2,1.6,2.9c0,0.5-0.1,0.9-0.3,1.4c-0.2,0.4-0.5,0.7-0.7,0.7c-0.3,0-0.5-0.1-0.6-0.3
		c-0.2-0.2-0.4-0.7-0.6-1.5c-0.3-0.7-0.7-1.6-1.4-2.6c-0.7-1-1.6-2.2-2.8-3.6L119.1,12.5z"/>
	<path class="st1" d="M132,23.9c0.2-0.1,0.3-0.1,0.5-0.2s0.4-0.1,0.6-0.2V19h-1.7c-0.1,0.8-0.2,1.6-0.4,2.2
		c-0.2,0.6-0.4,1.2-0.7,1.7s-0.7,1-1.2,1.4s-1.1,1-1.9,1.5l-0.2-0.3c0.4-0.4,0.8-0.9,1.1-1.2c0.3-0.4,0.6-0.8,0.8-1.2
		c0.2-0.4,0.4-0.9,0.5-1.4c0.1-0.5,0.2-1.1,0.3-1.9c0.1-0.7,0.1-1.6,0.2-2.5c0-1,0.1-2.1,0.1-3.4c0.1,0.1,0.2,0.1,0.3,0.1
		c0-0.2,0-0.4,0-0.7c0-0.2,0-0.4,0-0.6V9c0-0.3,0-0.6,0-0.9c0-0.3,0-0.5-0.1-0.9c0.2,0.1,0.4,0.1,0.5,0.2c0.2,0.1,0.3,0.1,0.4,0.2
		c0.1,0.1,0.3,0.1,0.4,0.2c0.1,0.1,0.3,0.2,0.5,0.3h2.1c0-0.5,0-0.9,0-1.3c0-0.4,0-0.8,0-1.2c0.3,0.1,0.6,0.1,0.9,0.2
		c0.3,0.1,0.5,0.1,0.8,0.2c0.3,0.1,0.5,0.2,0.5,0.3c0,0.1-0.2,0.2-0.5,0.3v1.5h2.3c0-0.5,0-0.9,0-1.2s0-0.7,0-1.1
		c0.4,0.1,0.7,0.1,0.9,0.2c0.3,0.1,0.5,0.1,0.8,0.2c0.3,0.1,0.5,0.2,0.4,0.3c0,0.1-0.2,0.2-0.6,0.4v1.3h2.4l0.5-0.7
		c0.1-0.1,0.1-0.2,0.2-0.2c0.1,0,0.2,0,0.3,0.1c0.2,0.1,0.4,0.3,0.6,0.4s0.4,0.3,0.6,0.4c0.2,0.2,0.3,0.3,0.3,0.4
		c0,0.1-0.2,0.2-0.6,0.4v2.9c0,0.4,0,0.8,0.1,1.2c0,0.2,0,0.3-0.2,0.3c-0.2,0.1-0.5,0.2-0.7,0.3c-0.2,0.1-0.4,0.1-0.7,0.2
		c-0.1,0-0.2-0.1-0.2-0.2v-0.3h-10.3v0.2c0,0.1,0,0.2,0,0.2s-0.1,0.1-0.1,0.1c-0.2,0.1-0.3,0.2-0.5,0.2c-0.1,0.1-0.3,0.1-0.5,0.1
		c0.1,0.1,0.3,0.2,0.4,0.3c0.1,0.1,0.3,0.2,0.5,0.3h11.2l0.4-0.8c0.1-0.2,0.2-0.3,0.3-0.3s0.2,0,0.4,0.1c0.3,0.2,0.5,0.3,0.7,0.5
		c0.2,0.1,0.4,0.3,0.6,0.5c0.5,0.4,0.5,0.6-0.2,0.6h-13.5c0,1.2-0.1,2.2-0.1,3.1h12.1l0.5-1.1c0.1-0.1,0.2-0.2,0.2-0.2
		s0.2,0,0.3,0.2c0.3,0.2,0.5,0.4,0.8,0.6c0.3,0.2,0.5,0.5,0.8,0.7c0.3,0.3,0.2,0.5-0.1,0.5h-3.2c0.2,0.2,0.4,0.3,0.6,0.4
		c0.2,0.1,0.3,0.3,0.6,0.5c0.2,0.1,0.2,0.2,0.1,0.3c-0.1,0.1-0.2,0.1-0.4,0.1c-0.1,0-0.2,0-0.4,0c-0.1,0-0.3,0.1-0.5,0.2
		c-0.2,0.1-0.4,0.2-0.6,0.3s-0.4,0.2-0.6,0.3s-0.4,0.2-0.7,0.3c-0.3,0.1-0.6,0.2-1,0.3c0.4,0.3,0.9,0.5,1.3,0.7
		c0.4,0.2,0.9,0.4,1.5,0.5c0.5,0.1,1.1,0.3,1.8,0.4c0.7,0.1,1.4,0.2,2.3,0.2l0,0.4c-0.4,0-0.6,0.1-0.9,0.1c-0.2,0-0.4,0.1-0.6,0.2
		c-0.2,0.1-0.3,0.2-0.4,0.3c-0.1,0.1-0.2,0.3-0.3,0.4c-0.1,0.1-0.1,0.2-0.2,0.2c-0.1,0-0.2,0-0.3-0.1c-1.1-0.3-2-0.7-2.7-1.1
		s-1.4-0.8-1.9-1.3s-1-1-1.4-1.6c-0.4-0.6-0.8-1.3-1.2-2.1h-2.3v4.1l3.4-1l0.3,0.4c-0.7,0.4-1.4,0.7-1.9,1c-0.5,0.3-1,0.6-1.4,0.8
		c-0.4,0.2-0.7,0.4-0.9,0.6s-0.4,0.3-0.6,0.5c-0.2,0.2-0.3,0.2-0.4,0c-0.1-0.2-0.3-0.4-0.5-0.7C132.3,24.5,132.2,24.2,132,23.9z
		 M134.2,8.7h-2.4v1.6h2.4V8.7z M134.2,11h-2.4v1.7h2.4V11z M143.8,16.6c0.2,0.2,0.2,0.3,0.2,0.3s-0.2,0.1-0.5,0.1h-10.2
		c-0.2,0-0.3,0-0.5,0c-0.2,0-0.3,0.1-0.4,0.1l-0.4-0.8c0.2,0,0.3,0.1,0.5,0.1c0.1,0,0.3,0,0.5,0h8.6l0.4-0.9
		c0.1-0.1,0.2-0.2,0.2-0.2c0.1,0,0.2,0.1,0.3,0.2c0.2,0.1,0.4,0.3,0.6,0.4C143.4,16.2,143.6,16.4,143.8,16.6z M138.1,8.7h-2.3v1.6
		h2.3V8.7z M138.1,11h-2.3v1.7h2.3V11z M137.5,19c0.3,0.5,0.7,0.9,1,1.3c0.3,0.4,0.7,0.7,1.1,1c0.4-0.3,0.7-0.6,0.9-0.8
		s0.4-0.4,0.6-0.6c0.2-0.2,0.3-0.3,0.5-0.4s0.3-0.3,0.4-0.4H137.5z M142.1,8.7h-2.6v1.6h2.6V8.7z M142.1,11h-2.6v1.7h2.6V11z"/>
	<path class="st1" d="M156.2,18.6c0.6-0.5,1.1-1,1.5-1.6c0.4-0.6,0.6-1,0.6-1.3c0-0.3-0.2-0.5-0.7-0.5c-0.3,0-0.6-0.2-0.8-0.5
		c-0.2-0.3-0.3-0.6-0.3-1s0.1-0.7,0.4-1c0.3-0.3,0.7-0.5,1.2-0.5c0.5,0,0.9,0.2,1.3,0.7c0.3,0.5,0.5,1,0.5,1.6
		c0,0.8-0.3,1.6-0.9,2.4s-1.4,1.5-2.4,2L156.2,18.6z"/>
	<path class="st1" d="M189,23.7c-0.4,0.1-0.8,0.1-1,0.2c-0.3,0.1-0.5,0.1-0.6,0.2c-0.2,0.1-0.3,0.2-0.3,0.3
		c-0.1,0.1-0.2,0.3-0.2,0.5c0,0.1-0.1,0.2-0.1,0.2c-0.1,0-0.2,0-0.3-0.1c-0.9-0.4-1.6-0.7-2.2-1.1c-0.6-0.4-1.2-0.8-1.6-1.2
		c-0.5-0.4-0.9-0.9-1.2-1.5c-0.4-0.6-0.7-1.2-1.1-2h-0.4v3.3c0,0.5,0,0.9,0,1.3s0,0.8,0,1.2c0,0.2-0.1,0.3-0.2,0.4
		c-0.2,0.1-0.5,0.2-0.7,0.3c-0.2,0.1-0.4,0.2-0.7,0.2c-0.2,0-0.2,0-0.2-0.2c0-0.3,0-0.6,0-0.8c0-0.2,0-0.5,0-0.7c0-0.2,0-0.4,0-0.6
		s0-0.4,0-0.7v-3.2c-0.6,0.7-1.1,1.3-1.7,1.8s-1.2,1-1.8,1.4c-0.7,0.4-1.4,0.9-2.3,1.3c-0.8,0.4-1.9,0.9-3,1.3l-0.2-0.4
		c1-0.6,1.9-1.1,2.6-1.5c0.7-0.4,1.3-0.9,1.9-1.3c0.5-0.4,1-0.9,1.5-1.4c0.4-0.5,0.9-1.1,1.4-1.7h-5.9c-0.3,0-0.6,0-0.9,0.1
		l-0.4-0.8c0.2,0.1,0.4,0.1,0.6,0.1c0.2,0,0.4,0,0.6,0h7.7c0-0.4,0-0.8,0-1.2c0-0.4,0-0.7,0-0.9c0.3,0.1,0.7,0.2,1.1,0.3
		c0.4,0.1,0.7,0.3,1,0.4v-0.1v-0.8h-2.3V17c0,0.1,0,0.1,0,0.2c0,0-0.1,0.1-0.2,0.1c-0.2,0.1-0.3,0.2-0.5,0.3
		c-0.2,0.1-0.4,0.1-0.6,0.2c-0.1,0-0.2,0-0.1-0.2c0-0.3,0-0.5,0.1-0.9c0-0.3,0-0.6,0-0.8V9.8c0-0.2,0-0.5,0-0.7c0-0.3,0-0.5-0.1-0.7
		c0.2,0.1,0.5,0.2,0.8,0.4c0.3,0.1,0.6,0.3,0.9,0.4h0.2c0.1-0.6,0.1-1.2,0.2-1.7s0.1-1.1,0-1.5c0.3,0.1,0.6,0.2,0.9,0.3
		c0.3,0.1,0.7,0.2,0.9,0.3c0.2,0.1,0.3,0.1,0.3,0.2c0,0.1-0.1,0.2-0.3,0.3c-0.1,0-0.1,0.1-0.2,0.1c-0.1,0.1-0.2,0.2-0.3,0.3
		c-0.1,0.2-0.2,0.4-0.4,0.6c-0.1,0.3-0.3,0.6-0.5,1h1.2l0.4-0.5c0.1-0.1,0.1-0.1,0.2-0.1c0.1,0,0.2,0,0.3,0.1
		c0.2,0.1,0.3,0.2,0.5,0.3c0.2,0.1,0.4,0.3,0.5,0.4c0.2,0.2,0.3,0.3,0.3,0.5c0,0.1-0.3,0.3-0.7,0.4V15c0,0.6,0,1.1,0.1,1.5
		c0,0.2,0,0.3-0.1,0.4c-0.2,0.1-0.3,0.2-0.5,0.3s-0.4,0.1-0.5,0.2c0,0-0.1,0-0.1,0c0.1,0.1,0,0.1,0,0.2c-0.1,0.1-0.2,0.2-0.4,0.4
		v0.8h6.1l0.9-1.4c0.1-0.1,0.1-0.2,0.2-0.2s0.2,0.1,0.4,0.2c0.3,0.2,0.5,0.5,0.8,0.7c0.3,0.3,0.5,0.5,0.6,0.6
		c0.4,0.4,0.4,0.6-0.2,0.6h-7.8c0.5,0.6,1,1.2,1.5,1.6c0.5,0.4,1,0.8,1.6,1.1c0.6,0.3,1.3,0.5,2.1,0.8c0.8,0.2,1.8,0.4,2.9,0.6
		L189,23.7z M176,15.9c0,0.4-0.1,0.8-0.3,1c-0.2,0.3-0.4,0.4-0.7,0.4c-0.2,0-0.3,0-0.3-0.1c-0.1-0.1-0.1-0.2-0.1-0.4
		c0-0.1,0-0.2,0-0.3c0-0.1,0-0.3,0-0.4c-0.7,0.3-1.2,0.5-1.6,0.7c-0.4,0.2-0.7,0.3-0.9,0.4c-0.2,0.1-0.4,0.2-0.5,0.3
		c-0.1,0.1-0.2,0.2-0.3,0.2c-0.2,0.2-0.4,0.1-0.5-0.1c-0.2-0.3-0.3-0.5-0.4-0.8s-0.2-0.5-0.3-0.8c0.2,0,0.4,0,0.5,0s0.3,0,0.6-0.1
		c0.2-0.3,0.4-0.6,0.6-0.9c0.2-0.3,0.4-0.6,0.6-1s0.4-0.6,0.5-0.9c0.2-0.3,0.3-0.6,0.5-0.8c-0.4,0.1-0.7,0.2-1,0.3
		c-0.3,0.1-0.5,0.2-0.7,0.3c-0.2,0.1-0.3,0.1-0.5,0.2c-0.1,0.1-0.3,0.1-0.4,0.2c-0.1,0.1-0.2,0.1-0.3,0.1c0,0-0.1-0.1-0.2-0.3
		c-0.2-0.4-0.4-0.9-0.6-1.4c0.3,0,0.5,0,0.6,0c0.2,0,0.4,0,0.6,0c0.4-1,0.8-1.9,1.1-2.8c0.3-0.9,0.5-1.7,0.6-2.5
		c0.3,0.1,0.6,0.3,1,0.5c0.4,0.2,0.6,0.3,0.8,0.5c0.4,0.2,0.4,0.3,0,0.4c-0.1,0-0.2,0.1-0.2,0.1c-0.1,0.1-0.2,0.2-0.3,0.4
		c-0.4,0.8-0.9,1.4-1.2,2s-0.7,1-1,1.3l1.8,0c0.2-0.3,0.3-0.7,0.5-1.2c0.2-0.5,0.3-0.8,0.5-1.1c0.3,0.2,0.5,0.3,0.8,0.6
		c0.3,0.2,0.5,0.4,0.7,0.5c0.3,0.2,0.2,0.4-0.1,0.5c-0.1,0-0.2,0.1-0.3,0.1c-0.1,0.1-0.2,0.2-0.4,0.4c-0.3,0.5-0.8,1.2-1.3,1.9
		c-0.5,0.7-1.1,1.5-1.8,2.4l2.5-0.3c-0.1-0.3-0.1-0.6-0.2-0.8c0-0.2-0.1-0.4-0.2-0.7l0.4-0.1c0.5,0.4,0.9,0.7,1.1,1.1
		C175.9,15.3,176,15.6,176,15.9z M180,9.8h-2.3v2.6h2.3V9.8z M180,12.9h-2.3v2.7h2.3V12.9z M188.4,15.7c0.1,0.4,0,0.8-0.1,1
		c-0.1,0.2-0.3,0.3-0.6,0.3c-0.1,0-0.2,0-0.4-0.1c-0.1-0.1-0.2-0.2-0.3-0.4c0-0.1-0.1-0.3-0.1-0.4c0-0.1-0.1-0.2-0.1-0.4
		c-1,0.3-1.8,0.6-2.4,0.8c-0.6,0.2-1.1,0.4-1.5,0.7c-0.1,0.1-0.2,0.1-0.3,0.1c-0.1,0-0.1-0.1-0.2-0.3c-0.1-0.2-0.2-0.5-0.3-0.8
		c-0.1-0.3-0.2-0.5-0.3-0.7c0.2,0,0.3,0,0.5,0s0.3,0,0.5,0c0.2-0.2,0.3-0.5,0.5-0.8s0.4-0.6,0.6-0.9c0.2-0.3,0.4-0.6,0.6-0.9
		s0.3-0.5,0.5-0.8c-0.4,0.1-0.8,0.2-1,0.2c-0.3,0.1-0.5,0.1-0.7,0.2c-0.2,0.1-0.4,0.1-0.5,0.2c-0.1,0.1-0.3,0.1-0.4,0.2
		c-0.1,0.1-0.2,0.1-0.2,0.1c0,0-0.1-0.1-0.2-0.3c-0.1-0.2-0.2-0.4-0.2-0.6c0-0.2-0.1-0.4-0.2-0.7c0.2,0,0.3,0,0.5,0
		c0.2,0,0.3,0,0.5,0c0.4-0.8,0.8-1.7,1.1-2.6c0.3-0.9,0.5-1.6,0.7-2.3c0.3,0.1,0.6,0.3,1,0.5c0.4,0.2,0.6,0.3,0.8,0.5
		c0.2,0.1,0.3,0.2,0.3,0.3c0,0.1-0.1,0.2-0.3,0.2c-0.1,0-0.2,0.1-0.3,0.1c-0.1,0-0.2,0.2-0.3,0.3c-0.8,1-1.5,2-2.2,3l2,0
		c0.2-0.4,0.4-0.8,0.6-1.1c0.2-0.3,0.4-0.7,0.5-1.1c0.3,0.2,0.5,0.4,0.9,0.6s0.6,0.4,0.8,0.6c0.2,0.1,0.2,0.2,0.2,0.3
		c0,0.1-0.2,0.1-0.3,0.1c-0.1,0-0.3,0-0.5,0.1c-0.2,0.1-0.3,0.2-0.5,0.4c-0.4,0.6-0.8,1.2-1.3,1.8c-0.5,0.6-1.1,1.3-1.9,2.1l2.8-0.3
		c-0.1-0.2-0.1-0.3-0.1-0.4c0-0.1-0.1-0.2-0.1-0.3c-0.1-0.1-0.1-0.2-0.2-0.3c-0.1-0.1-0.2-0.2-0.3-0.4l0.3-0.2
		c0.8,0.5,1.4,0.9,1.7,1.2S188.3,15.4,188.4,15.7z"/>
	<path class="st1" d="M197,10.6l-1.8,6.8c-0.3,1.3-0.5,2.3-0.5,3.1c0,0.8,0,1.5,0.1,2.1c0.1,0.6,0.1,1,0.1,1.3
		c0,0.9-0.2,1.4-0.7,1.4c-0.4,0-0.8-0.1-1.2-0.4s-0.6-0.6-0.6-1c0-0.1,0-0.2,0-0.3c0.3-1.1,0.4-2,0.4-2.6c0-0.6-0.1-1-0.4-1.2
		c-0.3-0.2-1-0.4-2.1-0.6l0-0.4c0.9,0,1.5-0.1,1.8-0.1c0.4-0.1,0.7-0.2,0.8-0.4c0.2-0.2,0.3-0.5,0.5-0.9l2.9-6.8L197,10.6z
		 M190.8,11.4c1,0.4,1.7,0.8,2.3,1.2s0.9,0.8,0.9,1.2s-0.1,0.8-0.3,1.2c-0.2,0.4-0.4,0.6-0.7,0.6s-0.5-0.2-0.7-0.7
		c-0.2-0.8-0.5-1.4-0.7-1.8s-0.6-0.8-1-1.2L190.8,11.4z M192.8,6.6c1.4,0.4,2.3,0.8,2.8,1.1c0.5,0.3,0.7,0.7,0.7,1.1
		c0,0.4-0.1,0.8-0.4,1.2c-0.3,0.4-0.5,0.6-0.8,0.6c-0.1,0-0.2,0-0.3-0.1c-0.1-0.1-0.2-0.4-0.4-0.9c-0.2-0.5-0.4-1-0.7-1.4
		c-0.3-0.4-0.7-0.9-1.2-1.3L192.8,6.6z M201.7,8.5c-1.6,0.1-2.7,0.2-3.3,0.2c-0.7,0-1.1,0-1.3,0l0-0.4c1.7-0.3,3.4-0.6,5.4-1.1
		c1.9-0.5,3.4-0.9,4.5-1.4c0.3,0.2,0.6,0.6,0.9,1c0.4,0.4,0.6,0.7,0.6,0.8c0,0.1,0.1,0.2,0.1,0.3s-0.1,0.1-0.2,0.1
		c0,0-0.2,0-0.3-0.1c-0.2-0.1-0.4-0.1-0.6-0.1s-0.6,0.1-1.2,0.2c-0.6,0.1-1.5,0.3-2.6,0.4v4.4h2.8l1-1.2c0.1-0.2,0.3-0.3,0.4-0.3
		s0.5,0.3,1.2,0.9s1,0.9,1,1c0,0.1-0.2,0.2-0.5,0.2h-5.8v3.4h2.1l0.5-0.7c0.1-0.2,0.2-0.3,0.3-0.3c0.1,0,0.4,0.2,1.1,0.6
		c0.6,0.4,1,0.7,1,0.8c0,0.1-0.3,0.3-0.8,0.7v5.3c0,0.2,0,0.4,0,0.6l0,0.4c0,0.2-0.3,0.4-0.9,0.6c-0.6,0.2-0.9,0.3-1,0.3
		s-0.1-0.1-0.1-0.2v-1.6h-5.8v1.2c0,0.1,0,0.2-0.1,0.2c0,0-0.3,0.2-0.9,0.4c-0.5,0.2-0.9,0.3-0.9,0.3c-0.1,0-0.1-0.1-0.1-0.2
		c0.1-0.5,0.1-1,0.1-1.6v-6.1c0-0.6,0-1.2-0.1-1.8c1,0.3,1.9,0.6,2.5,1h1.4v-3.4h-3.5c-0.4,0-0.7,0-0.9,0.1l-0.4-0.9
		c0.3,0.1,0.6,0.1,1,0.1h3.8V8.5z M205.6,22.7v-5.3h-5.8v5.3H205.6z"/>
	<path class="st1" d="M227.2,9.4V14h0.4l0.8-1.1c0.1-0.2,0.2-0.2,0.3-0.2c0.1,0,0.3,0.2,0.7,0.5c0.4,0.3,0.7,0.6,0.9,0.8
		c0.2,0.2,0.4,0.4,0.4,0.5c0,0.1-0.1,0.1-0.4,0.1h-3.1V19h0.6l1-1.4c0.1-0.1,0.2-0.2,0.3-0.2c0.1,0,0.3,0.1,0.6,0.4
		c0.3,0.3,0.6,0.6,1,1c0.4,0.4,0.6,0.6,0.6,0.7c0,0.1-0.1,0.1-0.4,0.1h-18.3c-0.4,0-0.7,0-0.9,0.1l-0.4-0.9c0.3,0.1,0.6,0.1,1.1,0.1
		h2.9v-4.4h-1.5c-0.4,0-0.7,0-0.9,0.1l-0.4-0.9c0.3,0.1,0.6,0.1,1,0.1h1.7v-3.4c-0.9,0.8-1.8,1.5-2.7,2.2l-0.3-0.3
		c2.1-2.3,3.5-4.6,4.3-6.8c1.8,0.6,2.6,1,2.6,1.2c0,0.1-0.1,0.2-0.4,0.2c-0.3,0-0.5,0.2-0.7,0.4s-0.6,0.6-1.1,1.3h9.9l1.1-1.5
		c0.1-0.1,0.2-0.2,0.3-0.2s0.2,0.1,0.4,0.3c0.2,0.2,0.4,0.4,0.7,0.7c0.3,0.3,0.5,0.6,0.7,0.8s0.3,0.4,0.3,0.5s-0.1,0.1-0.4,0.1
		H227.2z M215.6,20.2c0.1,0.8,0.1,1.5,0.1,2c0,1.2-0.3,2.1-0.9,2.6c-0.6,0.5-1.2,0.8-1.8,0.8c-0.4,0-0.6-0.1-0.8-0.2
		c-0.2-0.2-0.3-0.4-0.3-0.6c0-0.2,0.2-0.5,0.5-0.8c0.8-0.6,1.4-1.1,1.8-1.7c0.4-0.6,0.7-1.3,0.9-2.1H215.6z M218.5,9.4h-1.7V14h1.7
		V9.4z M218.5,14.6h-1.7V19h1.7V14.6z M218.3,20.1c1.5,1.5,2.2,2.6,2.2,3.4c0,0.5-0.2,1-0.7,1.3c-0.4,0.4-0.8,0.5-1,0.5
		s-0.4-0.2-0.4-0.5c0-0.1,0-0.3,0-0.5c0-0.2,0-0.5,0-0.9c0-1.2-0.2-2.2-0.5-3.2L218.3,20.1z M221.9,9.4h-1.8V14h1.8V9.4z
		 M221.9,14.6h-1.8V19h1.8V14.6z M222,20.1c1.1,0.9,1.8,1.6,2.2,2c0.4,0.5,0.6,0.8,0.6,1.1c0,0.5-0.2,0.9-0.5,1.4s-0.7,0.6-1,0.6
		c-0.2,0-0.3-0.1-0.4-0.2s-0.1-0.5-0.1-1s-0.1-1.1-0.3-1.7c-0.2-0.6-0.4-1.3-0.8-2L222,20.1z M225.5,14V9.4h-1.9V14H225.5z
		 M225.5,19v-4.4h-1.9V19H225.5z M226,20.1c1.7,1,2.9,1.7,3.4,2.2c0.5,0.5,0.8,1,0.8,1.5s-0.2,1-0.5,1.3c-0.3,0.3-0.6,0.5-0.9,0.5
		c-0.1,0-0.2,0-0.2-0.1c0-0.1-0.1-0.2-0.2-0.5c-0.3-0.9-0.7-1.7-1.1-2.4c-0.4-0.7-0.9-1.5-1.5-2.2L226,20.1z"/>
	<path class="st1" d="M235.6,20.6c0.1-0.3,0.1-0.6,0.2-0.9c0-0.3,0.1-0.7,0.2-1.1h-2.6c-0.2,0-0.3,0-0.5,0c-0.2,0-0.3,0.1-0.3,0.1
		l-0.4-0.9c0.2,0,0.4,0.1,0.5,0.1c0.1,0,0.3,0,0.5,0h2.9c0.1-0.6,0.1-1.1,0.2-1.5c0-0.4,0.1-0.8,0.1-1.1c0-0.3,0.1-0.6,0.1-0.8
		c0-0.2,0-0.5,0-0.7c0.4,0.2,0.8,0.3,1.1,0.5c0.3,0.1,0.6,0.3,1,0.6h7.2l0.5-0.6c0.1-0.1,0.2-0.2,0.3-0.2c0.1,0,0.2,0,0.4,0.1
		c0.2,0.1,0.5,0.3,0.7,0.4s0.4,0.3,0.6,0.4c0.2,0.2,0.2,0.3,0.2,0.4c-0.1,0.1-0.3,0.3-0.8,0.5c0,0.4,0,0.7,0,1c0,0.3,0,0.6,0,1h1.6
		l0.6-1c0.1-0.2,0.2-0.3,0.3-0.3c0.1,0,0.2,0.1,0.4,0.2c0.3,0.2,0.5,0.4,0.7,0.6s0.4,0.4,0.5,0.5c0.2,0.2,0.2,0.3,0.2,0.4
		c0,0.1-0.2,0.1-0.3,0.1h-4c0,0.5,0,1-0.1,1.4c0,0.4,0,0.9-0.1,1.2h1.1l0.6-1c0.1-0.2,0.2-0.2,0.3-0.2c0.1,0,0.2,0.1,0.3,0.2
		c0.2,0.2,0.4,0.3,0.6,0.5c0.2,0.2,0.4,0.4,0.5,0.6c0.2,0.2,0.3,0.3,0.2,0.4c0,0.1-0.2,0.1-0.3,0.1h-3.4c0,0.2,0,0.3,0,0.5
		s0,0.3,0,0.4c0,0.4-0.1,0.7-0.2,1c-0.1,0.2-0.2,0.5-0.3,0.7c-0.2,0.2-0.4,0.4-0.7,0.5c-0.3,0.2-0.8,0.3-1.3,0.6
		c-0.3,0.1-0.4,0.1-0.5-0.1c0-0.2-0.1-0.4-0.1-0.5c-0.1-0.1-0.2-0.3-0.4-0.4s-0.5-0.3-0.8-0.4c-0.4-0.1-0.8-0.3-1.4-0.5l0.1-0.4
		c0.8,0.2,1.5,0.3,1.9,0.4c0.5,0.1,0.8,0.1,1.1,0c0.3,0,0.4-0.1,0.5-0.3s0.2-0.4,0.2-0.6c0-0.1,0-0.2,0-0.3s0-0.3,0.1-0.5h-8.4
		l0,0.3c0,0.1-0.1,0.2-0.1,0.3c0,0.1-0.1,0.1-0.2,0.1c-0.2,0.1-0.4,0.1-0.7,0.1c-0.2,0-0.5,0-0.7,0.1c-0.1,0-0.2,0-0.2,0
		s0-0.1,0-0.3c0.1-0.2,0.1-0.4,0.1-0.5c0-0.1,0.1-0.3,0.1-0.4c0-0.1,0.1-0.3,0.1-0.4C235.5,21.1,235.6,20.9,235.6,20.6z M251,12.9
		c0.2,0.2,0.2,0.3,0.2,0.4c0,0.1-0.1,0.1-0.4,0.1h-17.2c-0.2,0-0.3,0-0.5,0c-0.2,0-0.3,0.1-0.4,0.1l-0.4-0.9c0.2,0,0.3,0.1,0.5,0.1
		s0.3,0,0.5,0h7.4v-1.7h-4.5c-0.2,0-0.3,0-0.5,0c-0.2,0-0.3,0.1-0.4,0.1l-0.4-0.9c0.2,0,0.3,0.1,0.5,0.1c0.1,0,0.3,0,0.5,0h4.6V9
		h-5.9c-0.2,0-0.3,0-0.5,0c-0.2,0-0.3,0.1-0.4,0.1l-0.4-0.9c0.2,0,0.3,0.1,0.5,0.1c0.1,0,0.3,0,0.5,0h6.1c0-0.3,0-0.6,0-0.8
		c0-0.2,0-0.5,0-0.7s0-0.4,0-0.5c0-0.2,0-0.3,0-0.5c0.4,0.1,0.8,0.2,1.2,0.3c0.4,0.1,0.7,0.2,1,0.3c0.2,0.1,0.3,0.2,0.3,0.3
		c0,0.1-0.3,0.3-0.7,0.5v1.2h4.6l0.6-0.9c0.1-0.2,0.2-0.2,0.3-0.2c0.1,0,0.2,0.1,0.5,0.2c0.3,0.2,0.6,0.4,0.7,0.6
		c0.2,0.2,0.3,0.3,0.4,0.5C250,8.9,250,9,249.5,9h-7v1.5h3.4l0.6-1c0.1-0.2,0.3-0.2,0.6,0c0.2,0.2,0.4,0.4,0.6,0.6
		c0.2,0.2,0.3,0.4,0.5,0.5c0.4,0.3,0.3,0.5-0.1,0.5h-5.4v1.7h5.6l0.7-1c0.1-0.2,0.2-0.2,0.3-0.2c0.1,0,0.2,0.1,0.4,0.2
		c0.3,0.2,0.6,0.4,0.8,0.6C250.6,12.6,250.8,12.8,251,12.9z M237.6,18.6c-0.1,0.4-0.1,0.8-0.2,1.3c-0.1,0.4-0.1,0.9-0.2,1.4h4.8
		c-0.1,0-0.1-0.1-0.2-0.2c-0.1-0.1-0.1-0.2-0.2-0.3c-0.1-0.2-0.1-0.3-0.2-0.5s-0.2-0.3-0.3-0.4c-0.1-0.1-0.2-0.3-0.4-0.5
		c-0.2-0.2-0.4-0.3-0.6-0.5l0.2-0.3c0.6,0.1,1.1,0.2,1.5,0.4c0.4,0.1,0.7,0.3,0.9,0.4c0.2,0.1,0.4,0.3,0.5,0.4
		c0.1,0.1,0.1,0.3,0.1,0.4c0,0.2-0.1,0.4-0.2,0.6c-0.1,0.2-0.3,0.3-0.4,0.4h2.9c0-0.4,0.1-0.8,0.1-1.3c0-0.5,0.1-0.9,0.1-1.4H237.6z
		 M241.7,17.4c-0.2-0.3-0.5-0.7-0.7-0.9c-0.2-0.3-0.5-0.6-0.9-0.8l0.2-0.2h-2.2c-0.1,0.5-0.1,0.9-0.2,1.3c0,0.4-0.1,0.8-0.2,1.2h4.3
		c-0.1,0-0.1-0.1-0.2-0.2C241.8,17.7,241.8,17.6,241.7,17.4z M240.7,15.4c0.5,0.1,0.9,0.2,1.2,0.3c0.3,0.1,0.6,0.2,0.7,0.3
		c0.2,0.1,0.3,0.2,0.4,0.4c0.1,0.1,0.1,0.3,0.1,0.5c0,0.2-0.1,0.4-0.2,0.6c-0.1,0.2-0.2,0.3-0.4,0.3h3.1c0-0.5,0-0.9,0-1.3
		c0-0.4,0-0.8,0-1.2H240.7z"/>
	<path class="st1" d="M261.1,12.6h6.4l0.5-0.9c0.1-0.1,0.2-0.2,0.3-0.2c0.1,0,0.3,0.1,0.7,0.4s0.7,0.5,1,0.7
		c0.3,0.2,0.4,0.3,0.4,0.5c0,0.1-0.3,0.4-0.8,0.6v9.7c0,0.5-0.1,0.9-0.2,1.1c-0.1,0.2-0.5,0.5-1.1,0.8c-0.6,0.3-1,0.4-1.1,0.4
		c-0.1,0-0.2-0.1-0.3-0.4c-0.1-0.4-0.4-0.7-0.8-1s-1.1-0.6-1.9-1l0.1-0.4c1.4,0.3,2.3,0.4,2.6,0.4c0.3,0,0.5,0,0.6-0.1
		s0.2-0.1,0.2-0.3v-3.1h-6.8v4.8c0,0.2-0.1,0.3-0.2,0.4c-0.1,0.1-0.4,0.2-0.8,0.3s-0.7,0.2-0.8,0.2c-0.1,0-0.2-0.1-0.2-0.2l0.1-1.8
		c0-0.8,0.1-1.6,0.1-2.5v-5.7c-1.1,1.2-2.9,2.6-5.4,4.2l-0.3-0.4c3.4-3,5.8-6,7.2-9h-5.8c-0.4,0-0.7,0-0.9,0.1l-0.4-0.9
		c0.3,0.1,0.6,0.1,1.1,0.1h6.3c0.7-1.3,1.1-2.7,1.5-4c1.8,0.7,2.7,1.2,2.7,1.4c0,0.1-0.2,0.2-0.5,0.3c-0.3,0.1-0.6,0.3-0.7,0.5
		c-0.1,0.3-0.4,0.9-1,1.8h6.6l0.9-1.3c0.1-0.2,0.3-0.3,0.4-0.3c0.1,0,0.3,0.1,0.5,0.2l0.8,0.7c0.3,0.3,0.6,0.5,0.8,0.7
		c0.2,0.2,0.3,0.4,0.3,0.5s-0.1,0.1-0.4,0.1h-10.1C262,11.1,261.5,11.9,261.1,12.6z M260.8,15.8h6.8v-2.6h-6.8V15.8z M267.7,16.5
		h-6.8v2.6h6.8V16.5z"/>
	<path class="st1" d="M290.6,16.1c0.1,0.3,0.1,0.5,0,0.8c-0.1,0.2-0.2,0.3-0.5,0.4c0,0-0.1,0-0.1,0h0.9l0.7-1
		c0.1-0.1,0.2-0.2,0.3-0.2c0.1,0,0.2,0.1,0.4,0.2c0.2,0.2,0.4,0.3,0.6,0.5c0.2,0.2,0.4,0.4,0.5,0.6c0.2,0.2,0.2,0.4,0.2,0.4
		c0,0.1-0.1,0.1-0.4,0.1h-5.3c0.1,0.6,0.2,1.1,0.4,1.6c0.1,0.5,0.3,0.9,0.5,1.2c0.3-0.4,0.6-0.8,0.9-1.2c0.3-0.4,0.5-0.9,0.7-1.3
		c0.2,0.1,0.3,0.2,0.4,0.2c0.1,0.1,0.2,0.1,0.3,0.2c0.1,0.1,0.2,0.1,0.3,0.2c0.1,0.1,0.2,0.2,0.3,0.3c0.2,0.2,0.3,0.3,0.3,0.3
		c0,0.1-0.1,0.1-0.2,0.1c-0.1,0-0.3,0-0.3,0.1c-0.1,0.1-0.2,0.2-0.4,0.5c-0.2,0.3-0.4,0.5-0.7,0.9c-0.3,0.3-0.5,0.6-0.7,0.8
		c0.2,0.3,0.5,0.5,0.9,0.8c0.3,0.2,0.7,0.5,1,0.7c0.2,0.1,0.4,0.2,0.5,0.1c0.1-0.1,0.2-0.2,0.2-0.4c0.1-0.2,0.1-0.4,0.2-0.6
		c0-0.2,0.1-0.4,0.1-0.6s0.1-0.4,0.2-0.7s0.1-0.6,0.2-0.9l0.5,0.1c0,0.6-0.1,1.2-0.1,1.6c0,0.4,0,0.8,0,1c0,0.3,0.1,0.5,0.1,0.7
		c0,0.2,0.1,0.4,0.2,0.5c0.2,0.4,0.3,0.7,0.2,0.9c-0.1,0.2-0.3,0.2-0.6,0.1c-0.4-0.1-0.8-0.2-1.2-0.3c-0.4-0.1-0.8-0.3-1.1-0.5
		c-0.4-0.2-0.8-0.4-1.1-0.7c-0.4-0.3-0.8-0.6-1.2-1c-0.4,0.3-0.7,0.5-0.9,0.7s-0.6,0.3-0.9,0.5c-0.3,0.1-0.8,0.3-1.2,0.4
		c-0.5,0.1-1.1,0.3-1.9,0.6l-0.2-0.3c0.6-0.3,1.2-0.6,1.6-0.8c0.4-0.2,0.8-0.5,1.2-0.7s0.6-0.4,0.9-0.6c0.3-0.2,0.5-0.5,0.8-0.7
		c-0.1-0.2-0.2-0.4-0.3-0.6s-0.2-0.5-0.3-0.8c-0.1-0.3-0.2-0.6-0.3-1c-0.1-0.4-0.2-0.9-0.3-1.4h-2.9c0,0.2,0,0.4-0.1,0.6
		c0,0.2-0.1,0.4-0.1,0.5c1,0.4,1.7,0.7,2.1,1c0.4,0.3,0.6,0.6,0.6,1c0,0.1,0,0.3-0.1,0.4c-0.1,0.2-0.1,0.3-0.2,0.4
		c-0.1,0.1-0.2,0.2-0.3,0.3c-0.1,0.1-0.2,0.1-0.3,0.1c-0.1,0-0.2,0-0.4-0.1c-0.1,0-0.2-0.1-0.2-0.3c-0.1-0.4-0.2-0.8-0.2-1
		c-0.1-0.3-0.2-0.5-0.3-0.7c-0.1-0.2-0.2-0.3-0.3-0.5c-0.1-0.1-0.2-0.3-0.4-0.4c-0.1,0.6-0.2,1.2-0.3,1.6c-0.1,0.4-0.3,0.8-0.6,1.2
		c-0.3,0.4-0.6,0.7-1,1.1s-1,0.8-1.7,1.4l-0.2-0.3c0.5-0.5,1-1,1.3-1.4c0.3-0.4,0.6-0.8,0.8-1.3c0.2-0.4,0.3-0.9,0.4-1.5
		c0.1-0.6,0.1-1.3,0.1-2.2h-2.2c-0.2,0-0.3,0-0.5,0c-0.1,0-0.3,0.1-0.3,0.1l-0.2-0.6v7.2c0,0.1-0.1,0.3-0.3,0.4
		c-0.2,0.1-0.4,0.2-0.5,0.2c-0.2,0-0.4,0.1-0.7,0.1c-0.1,0-0.2-0.1-0.2-0.2c0-0.3,0-0.6,0-0.8c0-0.2,0-0.4,0-0.6s0-0.4,0-0.6
		s0-0.4,0-0.7v-6.9c-0.5,1-0.9,1.8-1.4,2.6s-1,1.5-1.5,2.2l-0.3-0.3c0.4-0.8,0.7-1.5,0.9-2.2c0.3-0.6,0.5-1.2,0.7-1.9
		c0.2-0.6,0.4-1.3,0.6-2c0.2-0.7,0.4-1.5,0.6-2.5h-1.6c-0.4,0-0.7,0-0.9,0.1l-0.4-0.8c0.2,0,0.3,0.1,0.5,0.1c0.1,0,0.3,0,0.5,0h2.2
		V8.1c0-0.5,0-1,0-1.3c0-0.3,0-0.7-0.1-1c0.2,0.1,0.4,0.1,0.6,0.1s0.3,0.1,0.5,0.1c0.1,0,0.3,0.1,0.4,0.1s0.3,0.1,0.4,0.1
		c0.3,0.1,0.5,0.2,0.5,0.3c0,0.1-0.2,0.3-0.7,0.5v4h0.4l0.5-1c0.1-0.2,0.2-0.3,0.3-0.3c0.1,0,0.2,0.1,0.4,0.2
		c0.1,0.1,0.3,0.3,0.4,0.4c0.1,0.2,0.3,0.3,0.4,0.5c0.1,0,0.2,0,0.3,0c0.3-0.7,0.5-1.4,0.7-2.1c0.2-0.7,0.4-1.4,0.5-2
		c0.3,0.1,0.5,0.2,0.8,0.3c0.2,0.1,0.5,0.2,0.8,0.4c0.2,0.1,0.3,0.2,0.3,0.3s-0.1,0.2-0.3,0.2c-0.1,0-0.1,0-0.2,0.1
		c0,0-0.1,0-0.1,0.1c0,0-0.1,0.1-0.1,0.2s-0.1,0.2-0.2,0.4c-0.2,0.3-0.4,0.7-0.7,1.1s-0.5,0.8-0.8,1.2h1.5c0.1-0.3,0.2-0.5,0.3-0.8
		c0.1-0.3,0.2-0.6,0.3-0.9c0.3,0.1,0.5,0.2,0.7,0.3s0.4,0.2,0.6,0.4c0,0,0,0,0.1,0.1s0,0,0,0c0-0.7-0.1-1.4-0.1-2.2
		c0-0.8,0-1.5-0.1-2.2c0.2,0,0.4,0.1,0.6,0.1c0.2,0,0.3,0.1,0.4,0.1c0.1,0,0.3,0.1,0.4,0.1s0.3,0.1,0.5,0.1c0.2,0.1,0.3,0.2,0.3,0.2
		c0,0.1-0.2,0.2-0.6,0.4c0,2.4,0,4.5,0.1,6.2c0.1,1.7,0.2,3.1,0.4,4.3h2.1c-0.2,0-0.3-0.1-0.4-0.2s-0.2-0.2-0.2-0.4
		c0-0.3-0.1-0.5-0.2-0.8c-0.1-0.2-0.3-0.5-0.5-0.7l0.2-0.3c0.3,0.1,0.6,0.2,0.9,0.3c0.2,0.1,0.4,0.2,0.5,0.3
		c0.1,0.1,0.2,0.2,0.3,0.3C290.5,15.8,290.6,15.9,290.6,16.1z M282.3,17.3c0-0.2,0-0.5,0-0.9s0-0.7,0-0.9c0,0,0,0-0.1,0
		c-0.1,0.1-0.1,0.1-0.2,0.1c0,0-0.1-0.1-0.2-0.2c-0.1-0.2-0.2-0.4-0.3-0.5c-0.1-0.2-0.2-0.4-0.2-0.6c0.1,0,0.2,0,0.3,0
		c0.1,0,0.2,0,0.3,0c0.1-0.2,0.3-0.5,0.4-0.7c0.1-0.3,0.3-0.5,0.4-0.7c0.1-0.2,0.3-0.4,0.4-0.6c0.1-0.2,0.2-0.4,0.3-0.5
		c-0.2,0-0.3,0-0.4,0c-0.1,0-0.2,0-0.4,0.1c-0.1,0-0.2,0.1-0.3,0.1c-0.1,0.1-0.3,0.1-0.4,0.2c-0.1,0-0.1,0-0.2,0
		c0,0-0.1-0.1-0.1-0.2c0-0.1-0.1-0.1-0.1-0.2c0-0.1-0.1-0.1-0.1-0.2H279v2.1c0.8,0.3,1.4,0.5,1.7,0.8s0.5,0.6,0.5,1
		c0,0.1,0,0.3-0.1,0.4c-0.1,0.1-0.1,0.3-0.2,0.4c-0.1,0.1-0.2,0.2-0.3,0.3c-0.1,0.1-0.2,0.1-0.3,0.1c-0.1,0-0.2,0-0.3-0.1
		c-0.1-0.1-0.2-0.2-0.2-0.5c-0.1-0.6-0.2-1-0.3-1.3c-0.2-0.3-0.3-0.5-0.5-0.6v3.1c0.1,0,0.3,0,0.4,0.1c0.1,0,0.3,0,0.4,0H282.3z
		 M286,14.3c0,0.3-0.1,0.5-0.2,0.7c-0.2,0.2-0.3,0.4-0.5,0.4c-0.1,0-0.2,0-0.2-0.1c0-0.1-0.1-0.2-0.1-0.5c0-0.1,0-0.2,0-0.2
		s0-0.2-0.1-0.2c-0.4,0.1-0.8,0.3-1.3,0.5c-0.4,0.2-0.8,0.3-1,0.5c0.3,0.1,0.5,0.1,0.7,0.2c0.2,0.1,0.4,0.2,0.7,0.2
		c0.2,0.1,0.4,0.2,0.4,0.3c0,0.1,0,0.2-0.2,0.3c-0.2,0.1-0.3,0.4-0.4,0.9h2.8c-0.1-0.7-0.2-1.4-0.3-2.3c-0.1-0.9-0.2-1.9-0.2-3
		c0-0.2,0-0.5,0-0.7c0-0.3,0-0.5,0-0.8h-0.1c-0.2,0-0.3,0.1-0.4,0.1c-0.1,0.1-0.2,0.2-0.3,0.4c-0.1,0.1-0.2,0.2-0.3,0.5
		c-0.2,0.2-0.3,0.5-0.5,0.8c-0.2,0.3-0.4,0.6-0.7,0.9c-0.2,0.3-0.5,0.7-0.7,1c0.2,0,0.5-0.1,0.8-0.1s0.7-0.1,1.1-0.1
		c-0.1-0.3-0.3-0.6-0.5-0.9l0.2-0.2c0.5,0.2,0.9,0.5,1.1,0.7S286,14,286,14.3z M292.9,14c0,0.1,0,0.3-0.1,0.4s-0.1,0.3-0.2,0.4
		c-0.1,0.1-0.2,0.2-0.3,0.3c-0.1,0.1-0.2,0.1-0.3,0.1c-0.2,0-0.3,0-0.3-0.1s-0.1-0.2-0.1-0.4c0-0.2,0-0.3,0-0.4c0-0.1,0-0.3-0.1-0.4
		c-0.5,0.1-1,0.3-1.3,0.4s-0.6,0.2-0.9,0.3c-0.2,0.1-0.4,0.1-0.6,0.2c-0.1,0.1-0.3,0.1-0.4,0.2c-0.1,0.1-0.2,0.1-0.3-0.1
		c-0.1-0.1-0.1-0.3-0.2-0.4c-0.1-0.2-0.1-0.4-0.2-0.6c0.1,0,0.3,0,0.4,0c0.1,0,0.3,0,0.4,0c0.1-0.1,0.2-0.3,0.3-0.5
		c0.1-0.2,0.3-0.5,0.4-0.7c0.1-0.3,0.3-0.5,0.4-0.8c0.1-0.3,0.2-0.5,0.3-0.6c-0.3,0.1-0.6,0.2-0.9,0.3c-0.2,0.1-0.5,0.3-0.8,0.5
		c-0.1,0.1-0.2,0.1-0.3,0.1c-0.1,0-0.2-0.1-0.3-0.2c-0.1-0.3-0.3-0.6-0.4-1c0.1,0,0.2,0,0.3,0s0.2,0,0.3,0c0.3-0.6,0.5-1.2,0.8-1.9
		c0.2-0.7,0.5-1.4,0.7-2.1c0.3,0.1,0.6,0.2,0.8,0.4c0.3,0.1,0.6,0.3,0.8,0.4c0.2,0.1,0.2,0.2,0.2,0.3s-0.1,0.2-0.2,0.2
		c-0.2,0.1-0.4,0.1-0.6,0.2c-0.2,0.1-0.4,0.3-0.6,0.6c-0.1,0.2-0.2,0.3-0.3,0.5c-0.1,0.1-0.2,0.3-0.3,0.4c-0.1,0.1-0.2,0.3-0.3,0.4
		c-0.1,0.2-0.3,0.3-0.4,0.5l1.6-0.1c0.1-0.3,0.3-0.6,0.4-0.9c0.1-0.3,0.3-0.7,0.5-1c0.3,0.2,0.6,0.3,0.8,0.4
		c0.2,0.1,0.5,0.3,0.7,0.4c0.2,0.1,0.3,0.2,0.3,0.3c0,0.1-0.1,0.1-0.3,0.2c-0.1,0-0.2,0.1-0.3,0.1s-0.2,0.2-0.4,0.4
		c-0.1,0.1-0.2,0.3-0.4,0.6s-0.4,0.5-0.6,0.8c-0.2,0.3-0.5,0.6-0.8,1c-0.3,0.3-0.5,0.6-0.8,0.9l2.1-0.2c-0.1-0.2-0.2-0.3-0.3-0.5
		s-0.2-0.3-0.3-0.5l0.3-0.3c0.4,0.2,0.7,0.4,1,0.6c0.2,0.2,0.4,0.3,0.6,0.5c0.1,0.1,0.2,0.3,0.3,0.4C292.9,13.8,292.9,13.9,292.9,14
		z"/>
	<path class="st1" d="M298.2,23.7c0.2,0,0.4-0.1,0.7-0.1s0.4-0.1,0.7-0.1v-9.2c0-0.4,0-0.7,0-0.9s0-0.5,0-0.7
		c-0.4,0.2-0.7,0.4-1,0.5c-0.3,0.1-0.6,0.3-0.9,0.4s-0.6,0.3-1,0.4c-0.4,0.1-0.8,0.3-1.3,0.5l-0.2-0.3c1.1-0.7,2.1-1.4,3-2
		c0.9-0.6,1.6-1.2,2.3-1.9c0.7-0.7,1.3-1.4,1.9-2.1c0.6-0.8,1.2-1.7,1.8-2.7c0.2,0.1,0.4,0.2,0.6,0.3c0.2,0.1,0.3,0.1,0.5,0.2
		c0.1,0.1,0.3,0.1,0.4,0.2c0.1,0.1,0.3,0.1,0.5,0.2c0.2,0.1,0.3,0.2,0.3,0.3c0,0.1-0.1,0.2-0.4,0.3c-0.1,0-0.3,0.1-0.4,0.2
		c0.7,0.8,1.3,1.4,2,1.9s1.3,0.9,2,1.2s1.5,0.6,2.3,0.8c0.9,0.2,1.9,0.4,3,0.6v0.4c-0.4,0.1-0.7,0.1-0.9,0.2
		c-0.2,0.1-0.4,0.1-0.6,0.2c-0.2,0.1-0.3,0.2-0.4,0.4s-0.2,0.3-0.3,0.5c-0.1,0.2-0.2,0.2-0.5,0.1c-0.7-0.3-1.2-0.6-1.7-0.9
		c-0.5-0.3-0.9-0.5-1.3-0.8c-0.4-0.3-0.8-0.5-1.1-0.8c-0.3-0.3-0.6-0.6-0.9-0.9c-0.3-0.3-0.6-0.7-0.9-1.1c-0.3-0.4-0.7-0.9-1-1.4
		c-0.5,0.6-0.9,1.1-1.3,1.6s-0.8,0.8-1.2,1.1c-0.4,0.3-0.8,0.7-1.3,1c-0.5,0.3-1,0.7-1.7,1.2c0.4,0.1,0.7,0.2,1,0.3
		c0.3,0.1,0.6,0.2,0.9,0.4h6.3l0.4-0.6c0.1-0.1,0.1-0.2,0.2-0.2c0.1,0,0.2,0,0.4,0.1c0.4,0.2,0.7,0.4,0.9,0.5
		c0.2,0.2,0.4,0.3,0.6,0.5c0.2,0.2,0.3,0.3,0.3,0.5c0,0.2-0.3,0.3-0.7,0.5v1.7c0,0.4,0,0.7,0,1.1c0,0.4,0,0.7,0,1
		c0,0.2,0,0.3-0.1,0.3c-0.3,0.1-0.5,0.2-0.7,0.3c-0.2,0.1-0.5,0.1-0.8,0.2c-0.1,0-0.1,0-0.1-0.2c0-0.2,0-0.3,0-0.4h-3.7
		c0.4,0.5,0.8,1,1.2,1.4c0.4,0.4,0.9,0.9,1.5,1.2c0.8-0.5,1.4-0.9,2-1.4c0.6-0.5,1.1-0.9,1.6-1.4c0.3,0.3,0.6,0.6,0.8,0.9
		c0.2,0.2,0.4,0.5,0.6,0.7c0.2,0.2,0.3,0.4,0.2,0.5c0,0.1-0.2,0.1-0.5,0.1c-0.4,0-0.8,0-1.2,0.1c-0.4,0.1-0.9,0.3-1.4,0.5
		c-0.5,0.2-1,0.4-1.4,0.6c0.8,0.4,1.7,0.8,2.7,1.1s2.2,0.5,3.6,0.6v0.4c-0.4,0-0.8,0.1-1,0.1c-0.3,0.1-0.5,0.1-0.6,0.2
		c-0.1,0.1-0.3,0.2-0.3,0.4c-0.1,0.1-0.1,0.3-0.2,0.5c0,0.1-0.1,0.2-0.2,0.2c-0.1,0-0.2,0-0.4-0.1c-1-0.4-1.9-0.8-2.7-1.3
		c-0.8-0.4-1.5-0.9-2.1-1.4s-1.2-1.1-1.7-1.7s-0.9-1.4-1.3-2.2h-2.6v4.6c0.7-0.1,1.4-0.2,2.1-0.4c0.7-0.1,1.5-0.3,2.3-0.4l0.1,0.4
		c-1.2,0.4-2.2,0.7-2.9,1c-0.8,0.3-1.3,0.5-1.8,0.7s-0.8,0.4-1,0.6c-0.2,0.2-0.4,0.4-0.6,0.6c-0.1,0.1-0.2,0.2-0.3,0.1
		c-0.1,0-0.2-0.1-0.2-0.2C298.6,24.9,298.4,24.3,298.2,23.7z M308.3,13.9h-7v1.6h7V13.9z M308.3,16.2h-7V18h7V16.2z M306.4,11.8
		c-0.1,0.4-0.2,0.7-0.4,0.9c-0.2,0.2-0.4,0.3-0.7,0.3c-0.2,0-0.3-0.1-0.4-0.2c-0.1-0.1-0.2-0.3-0.3-0.5c-0.1-0.3-0.3-0.6-0.4-0.9
		c-0.2-0.3-0.4-0.6-0.8-1.1l0.2-0.3c1.1,0.2,1.9,0.5,2.3,0.8C306.3,11.1,306.5,11.5,306.4,11.8z"/>
	<path class="st1" d="M322.2,11.1h0.9l0.6-0.9c0.2-0.2,0.3-0.3,0.4-0.3c0.1,0,0.4,0.2,0.9,0.7c0.5,0.5,0.7,0.8,0.7,0.9
		c0,0.2-0.2,0.2-0.5,0.2h-3v1.8c0.9,0.4,1.6,0.7,2,1s0.7,0.5,0.9,0.8c0.1,0.2,0.2,0.5,0.2,0.9c0,0.3-0.1,0.7-0.3,1
		c-0.2,0.3-0.4,0.5-0.7,0.5c-0.2,0-0.4-0.1-0.4-0.2c-0.1-0.2-0.2-0.3-0.2-0.6c-0.3-1.1-0.8-2-1.4-2.6v9.9c0,0.3,0,0.4-0.1,0.5
		s-0.3,0.2-0.7,0.3c-0.4,0.1-0.6,0.2-0.8,0.2c-0.1,0-0.2-0.1-0.2-0.4l0-0.8c0-0.5,0-1.2,0-1.8v-6.2c-1,2.2-2.4,4.3-4.2,6.2l-0.3-0.3
		c1.1-1.9,2-3.5,2.6-5c0.6-1.5,1.1-3.1,1.6-5h-2.5c-0.4,0-0.7,0-0.9,0.1l-0.4-0.9c0.3,0.1,0.6,0.1,1.1,0.1h3.1V8.3
		c0-0.9,0-1.7-0.1-2.4c1.8,0.4,2.6,0.6,2.6,0.8c0,0.1-0.3,0.3-0.8,0.6V11.1z M332.4,11.4h0.3l0.7-1c0.2-0.2,0.3-0.3,0.4-0.3
		c0.1,0,0.5,0.3,1,0.8c0.5,0.5,0.8,0.9,0.8,1c0,0.1-0.2,0.2-0.5,0.2h-2.8v10.7c0,0.7-0.1,1.2-0.4,1.5c-0.3,0.3-0.6,0.6-1.2,0.8
		c-0.5,0.2-0.9,0.3-1,0.3s-0.2-0.1-0.3-0.3c-0.2-0.5-0.5-0.9-0.9-1.2s-1.1-0.7-1.9-1l0.1-0.4c1.3,0.2,2.1,0.4,2.5,0.4s0.7,0,0.9-0.1
		s0.3-0.3,0.3-0.6v-7.5c-1.4,3-3.7,5.9-7,8.7l-0.3-0.3c1.4-1.5,2.7-3.2,3.8-5.2c1.1-2,1.9-3.9,2.5-5.7h-2.3c-0.4,0-0.7,0-0.9,0.1
		l-0.6-0.9c0.3,0.1,0.6,0.1,1,0.1h3.7V7.8c0-0.7,0-1.3,0-1.9c1.7,0.2,2.6,0.5,2.6,0.7c0,0.1-0.3,0.3-0.8,0.6V11.4z"/>
	<path class="st1" d="M345.2,18.6c0.6-0.5,1.1-1,1.5-1.6c0.4-0.6,0.6-1,0.6-1.3c0-0.3-0.2-0.5-0.7-0.5c-0.3,0-0.6-0.2-0.8-0.5
		c-0.2-0.3-0.3-0.6-0.3-1s0.1-0.7,0.4-1c0.3-0.3,0.7-0.5,1.2-0.5c0.5,0,0.9,0.2,1.3,0.7c0.3,0.5,0.5,1,0.5,1.6
		c0,0.8-0.3,1.6-0.9,2.4s-1.4,1.5-2.4,2L345.2,18.6z"/>
	<path class="st1" d="M366.4,8.3h-5.4c-0.4,0-0.7,0-0.9,0.1l-0.4-0.9c0.3,0.1,0.6,0.1,1,0.1h11.4l1-1.4c0.1-0.1,0.2-0.2,0.3-0.2
		c0.1,0,0.5,0.3,1.2,0.9s1,1,1,1.1c0,0.1-0.2,0.2-0.5,0.2h-6.7c0,1.8-0.1,3.5-0.3,5h5.2l0.8-1.2c0.2-0.2,0.3-0.3,0.4-0.3
		s0.6,0.3,1.3,0.9c0.7,0.6,1,0.9,1,1.1c0,0.1-0.2,0.2-0.6,0.2h-7.2c1,4.9,3.9,7.9,8.6,9.2l0,0.4c-1.6,0-2.5,0.4-2.8,1.1
		c-0.1,0.2-0.2,0.2-0.3,0.2c-0.1,0-0.2,0-0.3-0.1s-0.6-0.4-1.4-1.1s-1.8-1.9-2.7-3.7c-1-1.8-1.5-3.8-1.6-6h-0.5
		c-0.3,3.4-1.2,5.9-2.6,7.5c-1.5,1.6-3.9,2.8-7.4,3.9l-0.1-0.4c2.8-1.3,4.8-2.8,6-4.5c1.2-1.7,2-3.9,2.2-6.5h-6.4
		c-0.4,0-0.7,0-0.9,0.1l-0.4-0.9c0.3,0.1,0.6,0.1,1,0.1h6.7C366.4,12,366.4,10.4,366.4,8.3z"/>
	<path class="st1" d="M387.4,8.3h-5.4c-0.4,0-0.7,0-0.9,0.1l-0.4-0.9c0.3,0.1,0.6,0.1,1,0.1h11.4l1-1.4c0.1-0.1,0.2-0.2,0.3-0.2
		c0.1,0,0.5,0.3,1.2,0.9s1,1,1,1.1c0,0.1-0.2,0.2-0.5,0.2h-6.7c0,1.8-0.1,3.5-0.3,5h5.2l0.8-1.2c0.2-0.2,0.3-0.3,0.4-0.3
		c0.1,0,0.6,0.3,1.3,0.9c0.7,0.6,1,0.9,1,1.1c0,0.1-0.2,0.2-0.6,0.2h-7.2c1,4.9,3.9,7.9,8.6,9.2l0,0.4c-1.6,0-2.5,0.4-2.8,1.1
		c-0.1,0.2-0.2,0.2-0.3,0.2s-0.2,0-0.3-0.1c-0.1-0.1-0.6-0.4-1.4-1.1c-0.9-0.7-1.8-1.9-2.7-3.7c-1-1.8-1.5-3.8-1.6-6h-0.5
		c-0.3,3.4-1.2,5.9-2.6,7.5c-1.5,1.6-3.9,2.8-7.4,3.9l-0.1-0.4c2.8-1.3,4.8-2.8,6-4.5c1.2-1.7,2-3.9,2.2-6.5h-6.4
		c-0.4,0-0.7,0-0.9,0.1l-0.4-0.9c0.3,0.1,0.6,0.1,1,0.1h6.7C387.4,12,387.4,10.4,387.4,8.3z"/>
	<path class="st1" d="M404,20c0,0.4,0,0.8,0,1.2c0,1.5-0.3,2.5-0.9,3.1c-0.6,0.6-1.1,0.9-1.6,0.9c-0.3,0-0.5-0.1-0.7-0.3
		s-0.3-0.4-0.3-0.6s0.3-0.5,0.8-0.9c0.7-0.5,1.2-1,1.5-1.5c0.3-0.5,0.6-1.2,0.7-2L404,20z M404.1,7.8h2.5l0.6-0.8
		c0.1-0.1,0.2-0.2,0.2-0.2s0.4,0.2,0.9,0.5c0.5,0.3,0.8,0.6,0.8,0.7c0,0.1-0.2,0.3-0.6,0.4v8.1l0,1.9c0,0.2,0,0.3,0,0.3
		c0,0-0.2,0.1-0.4,0.3s-0.5,0.3-0.7,0.4c-0.3,0.1-0.4,0.2-0.5,0.2c-0.1,0-0.1-0.1-0.1-0.3v-1h-2.9v0.4c0,0.2-0.1,0.3-0.2,0.4
		c-0.1,0.1-0.4,0.2-0.7,0.4c-0.3,0.1-0.5,0.2-0.7,0.2c-0.1,0-0.1-0.1-0.1-0.2c0.1-0.7,0.1-1.4,0.1-2.1V8.8c0-0.6,0-1.2-0.1-1.8
		C402.9,7.2,403.5,7.5,404.1,7.8z M406.8,12.8V8.4h-2.9v4.3H406.8z M406.8,17.7v-4.3h-2.9v4.3H406.8z M406.7,19.9
		c0.9,0.6,1.5,1.2,1.9,1.7s0.6,1,0.6,1.4s-0.1,0.8-0.4,1.2s-0.6,0.6-1,0.6c-0.2,0-0.4-0.4-0.5-1.2s-0.2-1.4-0.3-1.9
		c-0.2-0.5-0.4-1-0.7-1.6L406.7,19.9z M412.1,8.1h-1.5c-0.4,0-0.7,0-0.9,0.1l-0.4-0.9c0.3,0.1,0.6,0.1,1,0.1h6l0.7-0.8
		c0.1-0.1,0.2-0.2,0.3-0.2c0.1,0,0.5,0.2,1,0.5c0.6,0.3,0.9,0.6,0.9,0.7c0,0.1-0.2,0.3-0.7,0.6c-0.1,1.6-0.3,2.7-0.4,3.3
		c-0.1,0.6-0.6,1.1-1.3,1.5s-1.2,0.6-1.3,0.6c-0.1,0-0.3-0.2-0.4-0.5c-0.2-0.5-0.8-1-1.9-1.3l0.1-0.4c1,0.2,1.7,0.3,2.1,0.3
		s0.7-0.1,0.9-0.4c0.1-0.3,0.3-0.8,0.4-1.5s0.2-1.4,0.2-1.8h-2.9c-0.3,1.8-0.7,3.1-1.4,3.9c-0.7,0.8-1.9,1.6-3.5,2.2l-0.3-0.4
		c1.1-0.7,2-1.5,2.5-2.3C411.7,10.7,412,9.6,412.1,8.1z M412.6,14.3h3.5l0.6-0.7c0.1-0.1,0.2-0.2,0.3-0.2c0.1,0,0.4,0.2,0.9,0.5
		c0.5,0.3,0.7,0.6,0.7,0.7c0,0.1-0.2,0.3-0.5,0.5v2.8c0,0.2,0,0.4,0,0.6l0,0.4c0,0.2-0.3,0.4-0.8,0.6c-0.5,0.2-0.8,0.3-0.9,0.3
		s-0.1-0.1-0.1-0.2v-1h-3.9v0.6c0,0.1-0.1,0.2-0.2,0.3s-0.4,0.2-0.7,0.2c-0.4,0.1-0.6,0.1-0.8,0.1c-0.1,0-0.1-0.1-0.1-0.2
		c0.1-0.5,0.1-1,0.1-1.6v-2.9c0-0.6,0-1.2-0.1-1.8C411.2,13.6,411.8,13.9,412.6,14.3z M411.4,20.2c1,0.6,1.8,1.2,2.3,1.7
		c0.5,0.5,0.8,1,0.8,1.4s-0.1,0.8-0.4,1.1s-0.5,0.5-0.8,0.5c-0.2,0-0.4-0.3-0.6-0.9c-0.3-1.2-0.9-2.4-1.7-3.5L411.4,20.2z
		 M416.4,17.9v-3h-3.9v3H416.4z M415.3,19.8c1.7,0.9,2.8,1.6,3.4,2.1c0.6,0.5,0.9,0.9,0.9,1.3s-0.1,0.8-0.3,1.2
		c-0.2,0.4-0.4,0.6-0.8,0.6c-0.2,0-0.4-0.3-0.7-0.8c-0.6-1.4-1.5-2.7-2.8-4L415.3,19.8z"/>
	<path class="st1" d="M431.4,7.6c0.1,0.2,0.2,0.3,0.1,0.4c-0.1,0.1-0.2,0.1-0.5,0C430.8,8,430.6,8,430.3,8c-0.3,0-0.6,0.1-1.1,0.2
		c-1,0.1-1.9,0.2-2.6,0.2s-1.5,0.1-2.3,0.1v1.1h5.5l0.3-0.4c0.1-0.1,0.1-0.2,0.2-0.2c0.1,0,0.2,0,0.4,0.1c0.2,0.1,0.4,0.1,0.5,0.2
		c0.1,0.1,0.3,0.2,0.5,0.3c0.2,0.1,0.3,0.2,0.3,0.4c0,0.1-0.2,0.3-0.6,0.5V12c0,0.2,0,0.3,0,0.4c0,0.1,0,0.3,0.1,0.5
		c0,0.1,0,0.2-0.2,0.3c-0.2,0.1-0.4,0.2-0.6,0.3c-0.2,0.1-0.4,0.1-0.6,0.2c-0.1,0-0.2,0-0.2-0.2v-0.6h-5.6c0,1.9-0.2,3.7-0.6,5.5
		c0.4-0.9,0.8-1.7,1-2.6c0.3-0.8,0.5-1.7,0.7-2.5c0.2,0.1,0.5,0.3,0.7,0.4c0.2,0.1,0.4,0.2,0.6,0.3c0.2,0.1,0.3,0.2,0.2,0.3
		c-0.1,0.1-0.2,0.1-0.3,0.2c-0.1,0-0.1,0.1-0.2,0.2c-0.1,0.1-0.1,0.3-0.3,0.7h2.1c-0.2-0.1-0.3-0.3-0.3-0.5c-0.2-0.6-0.5-1-0.8-1.4
		l0.1-0.2c0.4,0.2,0.7,0.3,0.9,0.4c0.3,0.1,0.4,0.3,0.6,0.4c0.1,0.1,0.2,0.2,0.3,0.3s0.1,0.2,0.1,0.3c0,0.4-0.1,0.6-0.4,0.8h1.1
		l0.4-0.8c0.1-0.1,0.2-0.2,0.2-0.2s0.2,0,0.4,0.2c0.2,0.2,0.3,0.3,0.5,0.4c0.1,0.1,0.3,0.2,0.4,0.4c0.2,0.2,0.3,0.3,0.3,0.4
		s-0.1,0.1-0.4,0.1h-2.8v1.9h0.9l0.4-0.6c0.1-0.1,0.1-0.2,0.2-0.2s0.2,0,0.4,0.2c0.2,0.1,0.3,0.2,0.4,0.3c0.1,0.1,0.2,0.2,0.4,0.3
		c0.2,0.2,0.3,0.3,0.3,0.4c0,0.1-0.1,0.1-0.4,0.1h-2.5v2h0.9l0.4-0.7c0.1-0.1,0.1-0.2,0.2-0.2c0.1,0,0.2,0,0.3,0.1
		c0.1,0.1,0.3,0.2,0.4,0.4c0.1,0.1,0.3,0.2,0.3,0.4c0.2,0.2,0.3,0.3,0.3,0.4c0,0.1-0.1,0.1-0.4,0.1h-2.5v2.4h1l0.5-0.8
		c0.1-0.2,0.2-0.2,0.3-0.2s0.2,0,0.3,0.2c0.2,0.1,0.3,0.3,0.4,0.4c0.1,0.1,0.2,0.2,0.3,0.4c0.3,0.4,0.2,0.6-0.1,0.6h-5.7V24
		c0,0.1,0,0.2,0,0.2c0,0-0.1,0.1-0.2,0.2c-0.2,0.1-0.3,0.2-0.4,0.3c-0.1,0.1-0.2,0.1-0.4,0.1c-0.2,0.1-0.2,0-0.2-0.2
		c0-0.3,0-0.5,0-0.7c0-0.2,0-0.4,0-0.6c0-0.2,0-0.4,0-0.6c0-0.2,0-0.4,0-0.6v-4.4c-0.2,0.3-0.3,0.5-0.5,0.8
		c-0.2,0.2-0.3,0.5-0.4,0.7l-0.2-0.1c-0.5,2-1.3,3.8-2.4,5.5l-0.3-0.3c0.3-0.5,0.6-1.1,0.8-1.8s0.5-1.5,0.7-2.2
		c0.2-0.8,0.3-1.6,0.5-2.4c0.1-0.8,0.2-1.5,0.2-2.2c0-0.5,0-1.1,0-1.8c0-0.8,0-1.5,0-2.4c0-0.8,0-1.6,0-2.4c0-0.8,0-1.4-0.1-2
		c0.2,0.1,0.3,0.2,0.5,0.2c0.1,0.1,0.2,0.1,0.3,0.2c0.1,0.1,0.2,0.1,0.3,0.2s0.2,0.1,0.3,0.2v0.1c0.7-0.2,1.3-0.3,1.8-0.4
		s1-0.2,1.4-0.4c0.4-0.1,0.9-0.3,1.3-0.4s0.9-0.4,1.3-0.6c0.3,0.4,0.5,0.7,0.7,0.9C431.1,7.2,431.3,7.4,431.4,7.6z M424.3,10.2v0.7
		c0,0.2,0,0.4,0,0.7c0,0.2,0,0.4,0,0.6h5.6v-2H424.3z M427.5,15.7h-1.6v1.9h1.6V15.7z M427.5,18.2h-1.6v2h1.6V18.2z M427.5,20.7
		h-1.6v2.4h1.6V20.7z M435.7,21.7c0.4,0.2,0.3,0.4,0,0.5c-0.1,0-0.2,0.1-0.2,0.1c-0.1,0-0.2,0.1-0.3,0.2c-0.3,0.3-0.6,0.5-0.9,0.7
		c-0.3,0.2-0.7,0.5-1,0.7c-0.4,0.2-0.7,0.5-1.2,0.8c-0.4,0.3-0.9,0.5-1.4,0.8l-0.3-0.4c0.5-0.4,0.9-0.7,1.3-1.1c0.4-0.3,0.7-0.7,1-1
		c0.3-0.3,0.6-0.7,0.8-1.1s0.5-0.8,0.7-1.2c0.3,0.1,0.6,0.3,0.8,0.4C435.3,21.4,435.5,21.6,435.7,21.7z M440.5,8
		c0.3,0.3,0.4,0.4,0.3,0.5c0,0.1-0.2,0.1-0.5,0.1h-3.7c-0.2,0.3-0.3,0.6-0.4,0.8c-0.1,0.2-0.2,0.4-0.3,0.5c-0.1,0.2-0.2,0.3-0.3,0.5
		c-0.1,0.2-0.2,0.4-0.4,0.6h2.3l0.4-0.6c0.1-0.1,0.1-0.2,0.2-0.2c0.1,0,0.2,0,0.4,0.1c0.2,0.1,0.4,0.2,0.6,0.3
		c0.2,0.1,0.4,0.2,0.6,0.4c0.2,0.2,0.3,0.3,0.3,0.4c0,0.1-0.3,0.3-0.7,0.5v7.4c0,0.3,0,0.5,0,0.7c0,0.2,0,0.5,0,0.7
		c0,0.2,0,0.3-0.2,0.4c-0.2,0.1-0.4,0.2-0.6,0.2c-0.2,0-0.4,0.1-0.7,0.1c-0.2,0-0.3-0.1-0.3-0.3v-0.5H434c0,0.1-0.1,0.3-0.3,0.3
		c-0.4,0.2-0.7,0.3-1,0.4c-0.1,0-0.2,0-0.3,0s-0.1-0.1,0-0.3c0-0.3,0-0.5,0-0.8s0-0.4,0-0.6c0-0.2,0-0.4,0-0.6s0-0.4,0-0.7V12
		c0-0.3,0-0.7,0-0.9c0-0.3,0-0.5-0.1-0.8c0.7,0.2,1.4,0.4,1.9,0.8h0.3c0-0.3,0.1-0.5,0.1-0.7s0.1-0.4,0.1-0.6c0-0.2,0-0.4,0-0.5
		c0-0.2,0-0.4,0-0.6h-1.8c-0.4,0-0.7,0-0.9,0.1l-0.4-0.8c0.2,0,0.4,0.1,0.5,0.1c0.1,0,0.3,0,0.5,0h5l0.7-1c0.1-0.2,0.2-0.3,0.3-0.3
		c0.1,0,0.3,0.1,0.5,0.3c0.2,0.2,0.4,0.3,0.6,0.5S440.3,7.8,440.5,8z M437.7,11.6H434v2.3h3.7V11.6z M437.7,14.5H434v2.3h3.7V14.5z
		 M437.7,17.4H434v2.7h3.7V17.4z M440.2,23.7c0,0.4-0.1,0.8-0.2,1.1c-0.2,0.3-0.3,0.4-0.5,0.4c-0.1,0-0.2,0-0.3-0.1
		s-0.2-0.2-0.3-0.4c-0.3-0.5-0.6-1.1-1-1.7s-1-1.1-1.6-1.7l0.3-0.4c0.8,0.3,1.5,0.6,2,0.8s0.9,0.5,1.1,0.7c0.3,0.2,0.4,0.4,0.5,0.6
		S440.2,23.5,440.2,23.7z"/>
	<path class="st1" d="M445.3,14.3c-0.8,1.2-1.9,2.3-3,3.3l-0.2-0.2c1.3-1.8,2.4-3.7,3.2-5.5c0.8-1.8,1.5-3.8,2-6.1
		c1.4,0.6,2.2,1,2.4,1.1c0.2,0.1,0.4,0.3,0.4,0.4c0,0.1-0.2,0.2-0.5,0.2c-0.2,0-0.3,0-0.4,0.1c-0.1,0.1-0.4,0.7-0.9,1.8
		s-1,2.1-1.5,2.8c0.2,0.1,0.5,0.1,0.7,0.3c0.2,0.1,0.3,0.2,0.3,0.3s-0.2,0.2-0.5,0.4v11c0,0.2-0.1,0.3-0.2,0.4
		c-0.1,0.1-0.4,0.2-0.8,0.4c-0.4,0.1-0.6,0.2-0.7,0.2c-0.1,0-0.2-0.1-0.2-0.2l0-1.3c0-1,0-1.8,0-2.4V14.3z M450.8,15.1
		c1.5,0.6,2.3,1.1,2.3,1.3c0,0.1-0.1,0.2-0.4,0.2c-0.3,0-0.5,0.2-0.7,0.6c-1.3,2.3-2.8,4.2-4.4,5.6l-0.2-0.3
		C448.8,20.3,449.9,17.8,450.8,15.1z M452.2,11.1c-0.5,0.9-1,1.7-1.5,2.4c-0.5,0.6-1.2,1.5-2.3,2.5l-0.3-0.3c1.2-1.8,2-3.3,2.6-4.7
		c0.6-1.4,1.1-3,1.5-5c1.8,0.7,2.8,1.1,2.8,1.4c0,0.1-0.2,0.2-0.5,0.3c-0.4,0.1-0.7,0.2-0.8,0.5c-0.1,0.2-0.5,1-1.1,2.2h5.7l0.5-0.8
		c0.1-0.1,0.2-0.2,0.3-0.2c0.1,0,0.6,0.3,1.3,0.8c0.8,0.5,1.2,0.9,1.2,1.2c0,0.1,0,0.2-0.1,0.2c-0.1,0.1-0.2,0.1-0.3,0.1l-0.4,0
		c-0.4,0-0.8,0.2-1.2,0.5c-0.4,0.3-1,1-1.8,2l-0.3-0.2c0.4-1.1,0.8-2.1,1-2.9H452.2z M453.8,12c0.9,0.2,1.5,0.4,2,0.6
		c0.4,0.2,0.6,0.3,0.6,0.4c0,0.1-0.2,0.3-0.7,0.5v9.7c0,0.6-0.3,1.1-0.9,1.5c-0.6,0.4-1.1,0.5-1.4,0.5c-0.2,0-0.3-0.1-0.3-0.3
		c-0.1-0.5-0.3-0.8-0.8-1.1c-0.4-0.3-1-0.6-1.8-0.9l0.1-0.4c1.3,0.2,2.1,0.4,2.5,0.4c0.4,0,0.6,0,0.7-0.1c0.1-0.1,0.1-0.3,0.1-0.5
		v-8.4C453.9,13.2,453.9,12.6,453.8,12z M456.9,15.3c1.1,1.3,2.1,2.3,2.7,3.2c0.7,0.9,1,1.6,1,2.1s-0.1,1-0.4,1.4
		c-0.3,0.4-0.6,0.6-1,0.6c-0.2,0-0.3-0.1-0.4-0.2c-0.1-0.1-0.2-0.6-0.3-1.4c-0.1-0.8-0.4-1.6-0.7-2.5s-0.8-1.8-1.3-2.8L456.9,15.3z"
		/>
	<path class="st1" d="M468.1,10.5h2l0.6-0.8c0.1-0.2,0.2-0.2,0.3-0.2c0.1,0,0.5,0.2,1.1,0.6c0.6,0.4,0.9,0.7,0.9,0.9
		c0,0.2-0.3,0.4-0.8,0.6v9.3c0,0.6,0,1,0,1.3l0,0.7c0,0.1,0,0.1-0.1,0.2s-0.2,0.1-0.4,0.2c-0.2,0.1-0.5,0.2-0.8,0.3
		c-0.3,0.1-0.5,0.2-0.6,0.2c-0.1,0-0.1-0.1-0.1-0.2v-1.3h-3.4v1.2c0,0.2-0.1,0.3-0.2,0.4s-0.4,0.2-0.8,0.4c-0.4,0.2-0.7,0.2-0.8,0.2
		c-0.1,0-0.2-0.1-0.2-0.3c0.1-0.6,0.1-1.3,0.1-2.1V11.2c0-0.6,0-1.2-0.1-1.8c0.8,0.3,1.5,0.6,2.1,1c0.4-1.9,0.6-3.5,0.7-4.6
		c0.6,0.1,1.2,0.3,1.7,0.5s0.9,0.4,0.9,0.4c0.1,0.1,0.1,0.1,0.1,0.2c0,0.1-0.1,0.2-0.3,0.3c-0.2,0-0.4,0.2-0.6,0.5
		C469.4,8.1,468.9,9,468.1,10.5z M470.3,15.9v-4.7h-3.4v4.7H470.3z M470.3,21.4v-4.8h-3.4v4.8H470.3z M476,10.9
		c-0.6,1.2-1.7,2.8-3.2,4.9l-0.4-0.2c0.9-1.9,1.5-3.5,1.9-4.8s0.8-3,1.2-5.1c0.6,0.2,1.2,0.4,1.7,0.7s0.8,0.4,0.9,0.4
		c0.1,0.1,0.2,0.2,0.2,0.3c0,0.1-0.1,0.2-0.3,0.2c-0.2,0.1-0.4,0.1-0.5,0.3c-0.1,0.1-0.2,0.5-0.5,1.1c-0.3,0.6-0.5,1.2-0.8,1.7h2.9
		l0.6-0.9c0.1-0.2,0.3-0.3,0.4-0.3s0.5,0.2,1.1,0.7c0.6,0.4,0.9,0.8,0.9,0.9c0,0.2-0.3,0.4-0.9,0.7c-0.1,4.4-0.2,7.3-0.2,8.6
		c-0.1,1.4-0.1,2.3-0.2,2.8c-0.1,0.5-0.3,0.9-0.6,1.3c-0.3,0.4-0.7,0.7-1.3,1c-0.6,0.3-1,0.4-1.2,0.4c-0.1,0-0.2-0.1-0.3-0.3
		c-0.1-0.4-0.3-0.7-0.4-0.9c-0.2-0.2-0.5-0.4-0.9-0.6s-1-0.4-1.8-0.6l0.1-0.4c1.7,0.2,2.7,0.4,3.2,0.4c0.4,0,0.7,0,0.9-0.1
		c0.2-0.1,0.3-0.2,0.3-0.5s0.1-0.7,0.2-1.5c0.1-0.8,0.1-2,0.2-3.7c0.1-1.7,0.1-3.8,0.1-6.2H476z M474.5,14.7c1,0.7,1.7,1.3,2.1,1.6
		c0.4,0.4,0.7,0.6,0.8,0.8s0.2,0.4,0.2,0.7c0,0.5-0.2,1-0.5,1.3c-0.3,0.4-0.6,0.6-0.8,0.6s-0.3-0.3-0.4-0.9s-0.3-1.2-0.6-2
		c-0.3-0.7-0.6-1.4-1-1.9L474.5,14.7z"/>
	<path class="st1" d="M489.8,7c0.2,0.1,0.3,0.2,0.3,0.3s-0.1,0.2-0.4,0.3c-0.2,0.1-0.3,0.2-0.4,0.3c-0.1,0.1-0.2,0.3-0.3,0.6
		c-0.2,0.5-0.4,1-0.6,1.5s-0.5,1-0.8,1.6c0.5,0.1,0.8,0.2,0.8,0.3c0.1,0.1-0.1,0.3-0.5,0.5v11.9c0,0.1-0.1,0.3-0.2,0.4
		c-0.2,0.2-0.5,0.3-0.7,0.4c-0.2,0.1-0.4,0.2-0.7,0.3c-0.1,0.1-0.2,0-0.2-0.2c0-0.9,0-1.7,0.1-2.4c0-0.6,0-1.3,0-1.8V14
		c-0.3,0.4-0.5,0.8-0.7,1.1s-0.3,0.5-0.5,0.7c-0.2,0.2-0.3,0.4-0.5,0.6c-0.2,0.2-0.4,0.4-0.6,0.7l-0.3-0.3c0.5-1,0.9-1.9,1.3-2.7
		c0.4-0.8,0.7-1.6,1-2.4s0.6-1.6,0.9-2.5c0.3-0.9,0.6-1.8,0.9-2.9c0.2,0.1,0.4,0.2,0.6,0.2c0.2,0.1,0.3,0.1,0.5,0.2
		c0.1,0.1,0.3,0.1,0.4,0.2C489.5,6.9,489.6,7,489.8,7z M490.5,15c0,0.1-0.1,0.2-0.1,0.2c0,0-0.1,0.1-0.2,0.1c-0.1,0-0.2,0-0.3,0
		c-0.1,0-0.2,0-0.2,0c-0.1,0-0.1,0-0.2,0c-0.1,0-0.2,0-0.3,0c-0.3,0-0.3-0.1-0.3-0.3c0.2-0.3,0.4-0.7,0.5-1s0.3-0.6,0.4-1l1.4-3.3
		h-0.9c-0.1,0-0.3,0-0.4,0s-0.2,0.1-0.3,0.1l-0.3-0.9c0.2,0,0.3,0,0.4,0.1c0.1,0,0.3,0,0.5,0h1.1l0.5-0.6c0.1-0.1,0.1-0.1,0.2-0.1
		s0.2,0,0.3,0.1c0.2,0.1,0.4,0.3,0.5,0.4c0.2,0.1,0.3,0.3,0.5,0.5c0.2,0.2,0.3,0.4,0.3,0.5c0,0.1-0.3,0.2-0.7,0.3l-1.9,4.2h0.9
		l0.5-0.7c0.1-0.2,0.3-0.2,0.5,0c0.2,0.1,0.4,0.2,0.6,0.4s0.4,0.3,0.6,0.5c0.2,0.1,0.2,0.2,0.2,0.3c0,0.1-0.1,0.2-0.3,0.2
		c-0.2,0.1-0.3,0.1-0.3,0.2s-0.1,0.2-0.1,0.5c-0.1,0.6-0.1,1.2-0.2,1.7c-0.1,0.5-0.2,1-0.3,1.4s-0.2,0.8-0.3,1.2
		c-0.1,0.4-0.3,0.7-0.4,1.1c0.4,0.3,0.8,0.5,1.2,0.8c0.4,0.2,0.8,0.4,1.2,0.5c0.4,0.2,0.9,0.3,1.5,0.4s1.2,0.1,1.9,0.2s1.6,0,2.6,0
		c1,0,2.2,0,3.5-0.1v0.4c-0.4,0.1-0.8,0.2-1,0.3s-0.5,0.2-0.6,0.3c-0.2,0.1-0.3,0.2-0.3,0.4c-0.1,0.1-0.1,0.3-0.2,0.5
		c0,0.1-0.1,0.2-0.1,0.2c-0.1,0-0.2,0-0.4,0c-1.6-0.1-2.9-0.2-3.9-0.3c-1-0.1-1.9-0.3-2.6-0.5c-0.7-0.2-1.3-0.5-1.8-0.8
		c-0.5-0.3-1-0.7-1.6-1.1c-0.2,0.3-0.3,0.5-0.5,0.7c-0.2,0.2-0.4,0.4-0.6,0.7c-0.2,0.2-0.5,0.5-0.8,0.7c-0.3,0.3-0.7,0.5-1.1,0.9
		l-0.2-0.3c0.3-0.4,0.6-0.7,0.8-1c0.2-0.3,0.4-0.6,0.6-0.9c0.2-0.3,0.4-0.6,0.5-0.8c0.2-0.3,0.3-0.6,0.4-0.9
		c-0.1-0.2-0.2-0.5-0.4-0.9c-0.1-0.4-0.3-0.8-0.4-1.2c-0.1-0.5-0.3-0.9-0.4-1.5c-0.1-0.5-0.2-1-0.3-1.6l0.4-0.1
		c0.3,0.8,0.5,1.5,0.8,2.2s0.6,1.3,0.8,1.7c0.2-0.7,0.4-1.5,0.5-2.3c0.1-0.8,0.2-1.7,0.3-2.8h-1.2L490.5,15z M503.7,11.5
		c0.2,0.2,0.2,0.4,0.2,0.5c0,0.1-0.1,0.1-0.4,0.1h-2.4c0,0.4,0,0.7,0,0.9c0,0.2,0,0.4,0.1,0.6c0,0.2,0,0.3,0.1,0.4
		c0,0.1,0,0.2,0,0.4c0,0.2,0,0.3-0.1,0.3s-0.1,0.1-0.2,0.2c-0.3,0.2-0.6,0.3-1,0.3c-0.2,0-0.3,0-0.3-0.1c0-0.1-0.1-0.2-0.1-0.5H498
		v2h1.2l0.5-0.8c0.1-0.2,0.2-0.3,0.3-0.3c0.1,0,0.2,0.1,0.4,0.2c0.3,0.2,0.5,0.4,0.6,0.5s0.4,0.3,0.5,0.4c0.2,0.2,0.3,0.3,0.2,0.4
		c0,0.1-0.2,0.2-0.4,0.2H498v2.1h2l0.7-1c0.1-0.2,0.2-0.2,0.3-0.2s0.2,0.1,0.4,0.2c0.3,0.2,0.5,0.4,0.7,0.5c0.2,0.2,0.4,0.3,0.5,0.5
		c0.2,0.2,0.3,0.4,0.3,0.5c0,0.1-0.2,0.1-0.5,0.1H498c0,0.4,0,0.7,0,1c0,0.3,0,0.6,0.1,0.9c0,0.1,0,0.1,0,0.2c0,0-0.1,0.1-0.1,0.1
		c-0.2,0.1-0.3,0.2-0.5,0.2c-0.2,0.1-0.5,0.1-0.8,0.2c-0.1,0-0.2,0-0.2-0.1c0-0.4,0-0.9,0.1-1.2s0-0.8,0-1.2H494c-0.2,0-0.3,0-0.5,0
		c-0.2,0-0.3,0.1-0.4,0.1l-0.4-0.8c0.2,0,0.4,0.1,0.5,0.1c0.1,0,0.3,0,0.5,0h2.6v-2.1h-1.7c-0.2,0-0.3,0-0.5,0
		c-0.2,0-0.3,0.1-0.4,0.1l-0.4-0.8c0.2,0,0.3,0.1,0.5,0.1c0.1,0,0.3,0,0.5,0h1.9v-2H495c-0.2,0-0.3,0-0.5,0c-0.2,0-0.3,0.1-0.4,0.1
		l-0.4-0.9c0.2,0,0.4,0.1,0.5,0.1c0.1,0,0.3,0,0.5,0h1.6v-1.8h-2.7c-0.2,0-0.3,0-0.5,0.1s-0.3,0.1-0.4,0.1l-0.4-0.9
		c0.2,0,0.3,0.1,0.5,0.1c0.1,0,0.3,0,0.5,0h2.9V9.5h-1.8c-0.2,0-0.3,0-0.5,0c-0.2,0-0.3,0.1-0.4,0.1l-0.4-0.9c0.2,0,0.3,0.1,0.5,0.1
		c0.1,0,0.3,0,0.5,0h2c0-0.4,0-0.7,0-0.9c0-0.3,0-0.5,0-0.7s0-0.4,0-0.6c0-0.2,0-0.4,0-0.6c0.4,0.1,0.8,0.2,1.1,0.3s0.6,0.2,1,0.3
		c0.3,0.1,0.4,0.2,0.3,0.3s-0.3,0.2-0.7,0.5v1.5h1.4l0.4-0.8c0.1-0.2,0.2-0.2,0.3-0.2c0.1,0,0.2,0,0.4,0.1c0.2,0.1,0.4,0.3,0.5,0.4
		s0.3,0.3,0.5,0.4c0.2,0.2,0.3,0.3,0.3,0.4c0,0.1-0.3,0.3-0.7,0.5v1.7h0.4l0.5-0.9c0.1-0.2,0.2-0.3,0.3-0.3s0.2,0.1,0.4,0.2
		c0.2,0.2,0.3,0.4,0.5,0.5S503.6,11.3,503.7,11.5z M499.6,9.5H498v1.9h1.6V9.5z M499.6,12.1H498v1.8h1.6V12.1z"/>
	<path class="st1" d="M514.8,8.5c-0.3-1.1-0.8-1.9-1.5-2.4l0.1-0.3c2,0.2,3,0.7,3,1.4c0,0.2-0.1,0.4-0.2,0.7
		c-0.1,0.3-0.3,0.5-0.6,0.6h5l0.9-1.2c0.1-0.2,0.3-0.3,0.4-0.3c0.2,0,0.6,0.3,1.3,0.9c0.7,0.6,1.1,0.9,1.1,1.1
		c0,0.1-0.2,0.1-0.6,0.1h-14.7c0,1,0,2.6,0,4.6h5.7V12h-3.7c-0.4,0-0.7,0-0.9,0.1l-0.4-0.9c0.3,0.1,0.6,0.1,1.1,0.1h3.9
		c0-0.9,0-1.6,0-2.1c1.6,0.3,2.4,0.5,2.4,0.8c0,0.1-0.2,0.3-0.6,0.5v0.9h3.2l0.3-0.6c0.1-0.1,0.2-0.2,0.3-0.2c0.1,0,0.5,0.2,1.1,0.5
		c0.6,0.4,0.9,0.6,0.9,0.7s-0.3,0.3-0.8,0.5v1.4h0.3l0.8-0.9c0.1-0.2,0.2-0.2,0.4-0.2s0.5,0.2,1,0.7c0.5,0.5,0.7,0.8,0.7,0.9
		c0,0.1-0.1,0.2-0.3,0.2h-2.9v1.3l0,1.2c0,0.2,0,0.3-0.1,0.4c-0.1,0.1-0.3,0.2-0.6,0.3c-0.3,0.1-0.6,0.2-0.7,0.2
		c-0.1,0-0.2-0.1-0.2-0.4v-0.6H517c0.5,1.2,1.2,2.2,2,3.1c1.4-0.9,2.4-1.7,3-2.4c0.9,0.9,1.4,1.4,1.4,1.6c0,0.1,0,0.1-0.1,0.1
		c-0.1,0-0.2,0-0.3,0s-0.2,0-0.2,0c-0.1,0-0.5,0.1-1.2,0.4c-0.7,0.2-1.4,0.5-2.2,0.7c1.3,1.3,3.1,2.3,5.4,2.9v0.4
		c-0.6,0-1.1,0.1-1.5,0.2c-0.4,0.1-0.8,0.4-1,0.8c-0.1,0.1-0.1,0.1-0.2,0.1c-0.2,0-0.7-0.3-1.5-1c-0.9-0.7-1.6-1.5-2.2-2.5
		c-0.6-1-1.2-2.4-1.8-4.3v6.4c0,0.6-0.1,1-0.3,1.2s-0.5,0.5-1,0.7c-0.5,0.2-0.8,0.4-1,0.4c-0.1,0-0.2-0.1-0.3-0.4
		c-0.1-0.5-0.4-0.8-0.7-1.1s-0.9-0.5-1.8-0.8l0.1-0.4c1.2,0.2,2,0.3,2.4,0.3c0.4,0,0.6,0,0.7-0.1c0.1-0.1,0.1-0.2,0.1-0.5v-3.2
		l-3.8,3.2c-0.5,0.4-0.8,0.8-0.9,1c0,0.1-0.1,0.1-0.1,0.1c-0.1,0-0.6-0.5-1.5-1.6c1.9-0.8,4.1-1.9,6.4-3.2v-2.1h-3.8
		c-0.4,0-0.7,0-0.9,0.1l-0.4-0.8c0.3,0.1,0.6,0.1,1.1,0.1h4v-1.8H509c-0.1,2.8-0.4,5-0.9,6.6c-0.5,1.6-1.4,3.1-2.7,4.6l-0.4-0.3
		c0.6-1,1.1-2,1.4-3c0.3-1,0.5-2.2,0.6-3.6c0.1-1.4,0.2-3.2,0.2-5.7s0-4.2-0.1-5.3c0.7,0.2,1.4,0.5,2.1,0.8H514.8z M509.6,17.3
		c0.9,0.1,1.6,0.3,2,0.4s0.7,0.3,0.9,0.4c0.1,0.2,0.2,0.4,0.2,0.7c0,0.3-0.1,0.5-0.2,0.8c-0.1,0.2-0.2,0.3-0.3,0.3
		c-0.1,0-0.2,0-0.3-0.1c-0.1-0.1-0.2-0.2-0.4-0.4c-0.6-0.6-1.3-1.3-2.1-1.9L509.6,17.3z M519.8,13.7V12h-3.4v1.7H519.8z M519.8,16.2
		v-1.8h-3.4v1.8H519.8z"/>
</g>
</svg>
