<?xml version="1.0" encoding="utf-8"?>
<!-- Generator: Adobe Illustrator 24.1.0, SVG Export Plug-In . SVG Version: 6.00 Build 0)  -->
<svg version="1.1" id="圖層_1" xmlns="http://www.w3.org/2000/svg" xmlns:xlink="http://www.w3.org/1999/xlink" x="0px" y="0px"
	 viewBox="0 0 805 79" style="enable-background:new 0 0 805 79;" xml:space="preserve">
<style type="text/css">
	.st0{enable-background:new    ;}
	.st1{fill:#606060;}
</style>
<g class="st0">
	<path class="st1" d="M96.5,31.1c0.4,0.5,0.6,0.9,0.6,1.1c-0.1,0.2-0.4,0.3-1.1,0.3H55.5c0,0.9,0,1.7,0,2.3c0,0.7,0,1.3,0,2
		s0,1.3,0,2.1c0,0.7,0,1.5,0,2.4h8.8v-3.9h-2.6c-0.7,0-1.3,0.1-1.9,0.4l-1.2-2.3c0.6,0.1,1.1,0.2,1.5,0.2c0.4,0,0.8,0.1,1.2,0.1h7.2
		l1.3-2c0.2-0.3,0.4-0.5,0.6-0.5c0.1,0,0.4,0.1,0.7,0.4c0.4,0.4,0.9,0.8,1.4,1.3c0.5,0.5,0.9,0.8,1,0.9c0.8,1,0.7,1.4-0.4,1.4h-5.4
		v4.1h4.1l1.3-2c0.2-0.4,0.4-0.5,0.6-0.5c0.2,0,0.5,0.2,0.8,0.5c0.5,0.5,1,1,1.5,1.5c0.5,0.5,0.8,0.9,1,1.2c0.3,0.4,0.5,0.7,0.4,0.8
		C77.2,42.9,77,43,76.5,43h-2.8l0.1,21.5c0,0.3,0,0.5-0.1,0.6c-0.1,0.1-0.2,0.3-0.5,0.4c-0.4,0.3-0.8,0.5-1.2,0.6
		c-0.4,0.1-0.9,0.3-1.5,0.5c-0.4,0.1-0.7-0.1-0.7-0.7v-7.6c-2,0.8-3.7,1.4-5.2,2c-1.4,0.6-2.6,1.1-3.6,1.5c-1,0.4-1.7,0.8-2.2,1
		c-0.5,0.3-0.9,0.5-1,0.6c-0.3,0.3-0.5,0.4-0.7,0.3c-0.2-0.1-0.4-0.2-0.5-0.5c-0.3-0.5-0.6-1.1-0.9-1.7c-0.3-0.6-0.6-1.2-0.9-2
		c0.8-0.2,1.5-0.3,2.3-0.5c0.8-0.1,1.5-0.3,2.1-0.5V43h-3.7c0,0.7,0,1.5,0,2.2s0,1.5-0.1,2.4c-0.1,2.2-0.3,4-0.5,5.6
		c-0.3,1.6-0.8,3-1.4,4.4c-0.6,1.4-1.4,2.7-2.5,4.1c-1,1.4-2.3,3-3.9,4.8L46.5,66c0.9-1.8,1.7-3.4,2.3-4.8c0.6-1.4,1.2-2.8,1.6-4.2
		c0.4-1.4,0.7-2.9,0.9-4.5c0.2-1.6,0.4-3.5,0.4-5.8c0.1-2.5,0.1-5.3,0-8.3c-0.1-3-0.1-6.3-0.2-10c0.5,0.2,1,0.4,1.4,0.6
		c0.4,0.2,0.8,0.4,1.1,0.6c0.3,0.2,0.7,0.4,1,0.6c0.3,0.2,0.7,0.4,1.1,0.6h33.3l2.1-2.8c0.3-0.4,0.5-0.6,0.7-0.6
		c0.2,0,0.5,0.2,0.9,0.5c0.6,0.5,1.2,1.1,1.8,1.7C95.7,30.2,96.2,30.7,96.5,31.1z M72,19.2c0.4,0.2,0.5,0.5,0.4,0.8
		c-0.1,0.3-0.6,0.7-1.5,1.2v3.6c0,0.9,0.1,1.8,0.2,2.8c0,0.4-0.1,0.6-0.4,0.8c-0.5,0.3-1.1,0.6-1.5,0.7c-0.5,0.2-1,0.3-1.7,0.5
		c-0.3,0.1-0.5-0.1-0.5-0.4v-1.8h-7.8c0,0.6-0.1,1-0.2,1.2c-1,0.5-2.2,0.9-3.5,1c-0.2,0.1-0.3,0-0.3-0.3c0-0.6,0.1-1.2,0.1-1.8
		c0-0.6,0-1.1,0-1.5v-4.3c0-0.8,0-1.5,0-2.1c0-0.6-0.1-1.3-0.1-2c0.9,0.3,1.8,0.6,2.6,0.9c0.8,0.3,1.5,0.6,2.1,0.9h6.3l1-1.7
		c0.1-0.3,0.3-0.4,0.5-0.4s0.5,0.1,1,0.3c0.7,0.3,1.3,0.6,1.9,0.9C71.1,18.7,71.5,19,72,19.2z M66.9,20.7h-7.8l-0.1,0.1v5h7.8V20.7z
		 M69.8,43H63v3.6h6.8V43z M69.8,48H63v3.5h6.8V48z M69.8,52.9H63v4.7l6.8-1.4V52.9z M98.4,62.9c-1.4,0-2.5,0.2-3.2,0.5
		c-0.8,0.3-1.4,0.9-2.1,1.7c-0.3,0.4-0.6,0.4-1,0.1c-1.4-1-2.7-2-3.8-3c-1.1-1-2.1-2-2.9-3.1c-0.6,0.7-1.3,1.4-2,2
		c-0.7,0.6-1.5,1.2-2.3,1.9c-0.8,0.6-1.8,1.3-2.9,1.9c-1.1,0.7-2.3,1.4-3.8,2.1l-0.5-0.9c1.3-1.1,2.5-2,3.5-2.9
		c1-0.8,1.9-1.6,2.6-2.4c0.7-0.7,1.4-1.4,2-2.1c0.6-0.7,1.1-1.4,1.5-2.2c-0.8-1.5-1.6-3.1-2.3-4.8s-1.1-3.9-1.3-6.4
		c-0.7,1.1-1.3,2-1.9,2.8C77.3,49,76.5,50,75.6,51l-1.1-0.7c1-1.9,1.8-3.6,2.4-5c0.7-1.4,1.3-2.8,1.8-4.1c0.5-1.3,0.9-2.6,1.3-3.9
		c0.4-1.3,0.8-2.8,1.2-4.4c1.1,0.4,1.9,0.8,2.6,1c0.7,0.3,1.2,0.5,1.8,0.8c0.8,0.4,0.7,0.8-0.2,1.1c-0.4,0.1-0.8,0.5-1,1.2
		c-0.2,0.5-0.4,1-0.7,1.5c-0.2,0.5-0.4,1-0.6,1.5h7.7l1.8-2.6c0.3-0.4,0.6-0.6,0.8-0.6c0.3,0,0.6,0.2,1,0.6c0.8,0.7,1.5,1.3,1.9,1.8
		c0.4,0.5,0.7,0.8,0.9,1c0.3,0.4,0.5,0.7,0.4,1c-0.1,0.3-0.3,0.4-0.7,0.4h-8.2c0.7,0.2,1.4,0.4,1.9,0.6c0.5,0.2,1.1,0.4,1.7,0.5
		c0.5,0.2,0.7,0.4,0.7,0.6c0,0.2-0.3,0.4-0.8,0.6c-0.5,0.2-0.8,0.6-0.9,1.3c-0.5,2.2-1.1,4.3-1.6,6c-0.6,1.8-1.2,3.4-1.9,4.7
		c2.6,2.5,6.3,4.5,11,5.9L98.4,62.9z M91.9,18.9c0.4,0.3,0.6,0.6,0.5,0.8c-0.1,0.3-0.6,0.6-1.5,1V24c0,0.4,0,0.9,0,1.3
		c0,0.5,0,0.9,0.1,1.2c0,0.3-0.1,0.5-0.4,0.8c-0.5,0.3-1,0.6-1.5,0.8c-0.5,0.2-1,0.4-1.7,0.7c-0.3,0.1-0.5,0-0.5-0.5v-1.2h-8.6
		c0,0.4,0,0.8-0.1,1c-0.1,0.2-0.2,0.4-0.4,0.5c-0.5,0.3-0.9,0.5-1.3,0.6c-0.3,0.1-0.9,0.3-1.6,0.4c-0.3,0.1-0.4,0-0.4-0.3
		c0-0.6,0.1-1.2,0.1-1.8c0-0.6,0-1.1,0-1.5v-4.7c0-0.8,0-1.5,0-2.1c0-0.6-0.1-1.2-0.1-2c1.8,0.5,3.4,1.1,4.7,1.6h7.4l0.7-1.5
		c0.2-0.4,0.4-0.6,0.5-0.6c0.2,0,0.5,0.1,1,0.3c0.7,0.3,1.2,0.6,1.7,0.9C91.1,18.4,91.5,18.6,91.9,18.9z M87,20.5h-8.6v5.3H87V20.5z
		 M85.1,53.3c0.6-1.5,1-3.2,1.5-5.1c0.4-1.9,0.8-4.1,1.1-6.5h-5.4c-0.2,0.4-0.4,0.7-0.6,1c-0.2,0.3-0.5,0.6-0.7,1
		c0.5,1.9,1.1,3.7,1.8,5.3C83.4,50.6,84.2,52,85.1,53.3z"/>
	<path class="st1" d="M109,34.2h-4.7c-0.4,0-0.8,0-1.2,0.1c-0.4,0.1-0.7,0.1-0.9,0.2l-0.9-2.2c0.4,0.1,0.8,0.2,1.2,0.2
		c0.3,0,0.8,0.1,1.3,0.1h4.9l1.7-2.3c0.3-0.3,0.5-0.4,0.7-0.5c0.2,0,0.4,0.1,0.8,0.4c0.7,0.5,1.2,1,1.6,1.4c0.4,0.4,0.8,0.9,1.3,1.4
		c0.5,0.6,0.6,0.9,0.5,1.2c-0.2,0.2-0.9,0.6-2.3,1l-5.2,9h3.5l1-1.6c0.2-0.3,0.3-0.4,0.5-0.4c0.1,0,0.3,0.1,0.6,0.3
		c0.5,0.4,1.1,0.8,1.5,1.1c0.5,0.3,1,0.8,1.7,1.3c0.8,0.6,0.8,1.1-0.3,1.5c-0.3,0.1-0.5,0.4-0.7,0.7c-0.2,0.3-0.4,0.9-0.6,1.7
		c-0.3,1.3-0.6,2.5-1,3.6c-0.4,1.1-0.8,2.2-1.3,3.1c0.6,0.5,1.3,1.1,2,1.6c0.7,0.5,1.6,1,2.5,1.4c0.8-0.5,1.5-1.1,2.2-1.6
		c0.7-0.5,1.4-1.1,2.2-1.6c0.7-0.6,1.5-1.2,2.3-1.9s1.6-1.6,2.6-2.6H118c-0.3,0-0.7,0-1,0.1c-0.3,0.1-0.6,0.1-0.8,0.2l-0.8-2.1
		c0.4,0.1,0.8,0.1,1.1,0.2c0.3,0,0.7,0.1,1.1,0.1h7.1v-5.3h-4.4c-0.8,0-1.4,0.1-1.9,0.3l-0.9-2c0.4,0.1,0.8,0.2,1.1,0.2
		c0.3,0,0.7,0,1.1,0h5v-0.8c0-1.1,0-1.9,0-2.5c0-0.6,0-1.2-0.1-1.7c1,0.2,1.7,0.4,2.3,0.6c0.6,0.2,1.2,0.4,1.8,0.6
		c0.6,0.2,0.9,0.4,0.9,0.6c0,0.2-0.4,0.4-1.1,0.7v2.5h7.8v-1.1c0-1.1,0-1.9,0-2.5c0-0.6,0-1.2-0.1-1.7c0.9,0.2,1.7,0.4,2.3,0.5
		c0.6,0.2,1.3,0.4,1.9,0.5c0.6,0.2,0.9,0.4,0.9,0.5c0,0.2-0.4,0.4-1.3,0.8v2.9h2.6l1.9-2.3c0.3-0.3,0.5-0.5,0.6-0.5
		c0.1,0,0.4,0.1,0.8,0.4c0.6,0.5,1.1,1,1.5,1.3c0.4,0.4,0.8,0.8,1.3,1.3c0.3,0.4,0.5,0.7,0.4,0.9c-0.1,0.2-0.4,0.4-1,0.4h-8.1v5.3
		h5.7l2.2-3c0.4-0.3,0.6-0.5,0.7-0.5c0.1,0,0.4,0.2,0.9,0.5c0.7,0.5,1.3,1,1.8,1.5c0.5,0.5,1.1,1.1,1.7,1.8c0.3,0.3,0.4,0.6,0.3,0.9
		c-0.1,0.3-0.3,0.4-0.8,0.4h-25.4c0.7,0.4,1.4,0.7,2,1c0.6,0.3,1.1,0.6,1.6,0.9c0.5,0.3,0.7,0.5,0.7,0.7c-0.1,0.2-0.4,0.3-1,0.3
		c-0.3,0-0.5,0-0.7,0.1c-0.2,0-0.4,0.1-0.6,0.2c-0.2,0.1-0.5,0.2-0.7,0.4c-0.3,0.1-0.6,0.3-1,0.6c-0.8,0.5-1.6,1-2.4,1.4
		c-0.8,0.4-1.5,0.8-2.2,1.1c-0.7,0.3-1.4,0.6-2.1,0.9c-0.7,0.3-1.4,0.6-2.2,0.9c1,0.4,2.1,0.7,3.3,1c1.2,0.3,2.4,0.5,3.8,0.6
		c1.5,0.1,3.2,0.2,4.8,0.3c1.7,0,3.6,0,5.8-0.1c2.2-0.1,4.6-0.2,7.4-0.5c2.8-0.2,6.1-0.5,9.8-0.8l0.2,0.9c-1,0.4-1.7,0.8-2.3,1.1
		c-0.6,0.3-1,0.6-1.3,0.9s-0.6,0.7-0.7,1c-0.2,0.4-0.3,0.9-0.4,1.5c-0.1,0.3-0.4,0.5-0.9,0.5c-2.6,0-5,0-7.3,0
		c-2.3,0-4.4-0.1-6.3-0.1c-1.9-0.1-3.6-0.1-5.1-0.2c-1.5-0.1-2.8-0.2-3.7-0.3c-1.4-0.2-2.8-0.5-4.2-1c-1.4-0.5-2.7-1.1-3.9-1.8
		c-1.2-0.7-2.4-1.5-3.4-2.3c-1.1-0.8-2-1.7-2.8-2.6c-1.2,1.9-2.6,3.5-4.3,4.9s-3.7,2.6-6.1,3.8l-0.5-0.8c1.7-1.3,3.2-2.6,4.4-3.9
		c1.2-1.2,2.2-2.6,3-4.1c0.8-1.5,1.5-3.2,2-5c0.5-1.9,1-4,1.4-6.6h-4.5l-0.5,0.9c-0.2,0.5-0.5,0.7-1,0.8c-0.6,0-1.1-0.1-1.3-0.1
		c-0.3-0.1-0.7-0.2-1.2-0.3c-0.5-0.1-0.7-0.4-0.4-0.9c0.5-0.7,1-1.5,1.5-2.3c0.5-0.9,1-1.8,1.6-2.9L109,34.2z M113.5,24.7
		c0,0.4-0.2,0.7-0.4,1.1c-0.2,0.3-0.4,0.7-0.7,0.9c-0.3,0.3-0.5,0.5-0.8,0.7s-0.5,0.3-0.7,0.3c-0.4,0-0.7-0.1-0.9-0.3
		s-0.3-0.6-0.5-1.4c-0.3-1.4-0.9-2.8-1.6-4.3c-0.8-1.5-1.8-3.1-3-4.9l0.5-0.7c1.9,1.1,3.5,2,4.6,2.8c1.1,0.8,1.9,1.5,2.5,2.1
		c0.5,0.6,0.8,1.2,0.9,1.8C113.5,23.4,113.5,24,113.5,24.7z M132.3,35.5c-0.3,0.3-0.6,0.6-0.8,0.8c-0.2,0.2-0.5,0.3-0.8,0.4
		c-0.3,0.1-0.7,0.2-1.1,0.3c-0.4,0.1-1,0.1-1.6,0.2c-0.8,0.1-1.9,0.1-3.1,0.1s-2.4,0-3.5-0.1c-1.3-0.1-2.2-0.5-2.8-1.1
		c-0.5-0.6-0.8-1.6-0.8-2.8V23.2c0-0.8,0-1.6,0-2.4c0-0.7,0-1.4-0.1-1.9c1,0.3,1.8,0.6,2.5,0.9c0.7,0.3,1.3,0.6,1.7,0.9h5l1-1.4
		c0.1-0.2,0.3-0.3,0.4-0.4c0.1,0,0.4,0,0.7,0.2c0.5,0.3,1,0.5,1.3,0.7c0.4,0.2,0.8,0.4,1.2,0.7c0.4,0.3,0.6,0.6,0.5,0.9
		c-0.1,0.3-0.5,0.8-1.4,1.3v3c0,0.4,0,0.8,0,1.3c0,0.5,0.1,0.9,0.1,1.3c0,0.4-0.1,0.6-0.3,0.7c-0.6,0.3-1,0.5-1.5,0.6
		c-0.4,0.1-0.9,0.3-1.4,0.4c-0.2,0.1-0.3-0.1-0.3-0.4v-0.7h-5.8v4c0,0.5,0.1,0.9,0.2,1.1s0.5,0.3,1.1,0.4c1.8,0.2,3.4,0.2,4.7,0
		c0.4,0,0.8-0.1,1.1-0.2c0.3-0.1,0.6-0.3,0.8-0.6c0.2-0.3,0.4-0.7,0.6-1.3c0.2-0.6,0.3-1.3,0.5-2.3l1-0.1c0,1.4,0.1,2.4,0.2,2.9
		c0.1,0.5,0.3,0.9,0.5,1.2c0.4,0.3,0.6,0.5,0.6,0.7C132.7,34.9,132.6,35.2,132.3,35.5z M127.2,22.2h-5.8v4.9h5.8V22.2z M136.2,43.8
		h-7.8v5.3h7.8V43.8z M146.5,55.6c0.1,0.4,0.2,0.8,0.2,1.2c0,0.4,0,0.8-0.1,1.2c-0.1,0.4-0.2,0.7-0.4,0.9c-0.1,0.2-0.3,0.4-0.5,0.4
		c-0.3,0-0.5,0-0.9-0.1c-0.3-0.1-0.7-0.3-1.2-0.7c-1-0.8-1.9-1.5-2.7-2.1c-0.8-0.6-1.7-1.2-2.5-1.8c-0.8-0.5-1.7-1.1-2.6-1.5
		c-0.9-0.5-1.8-0.9-2.7-1.3l0.4-0.8c2.7,0.4,4.9,0.7,6.5,1c1.6,0.3,2.9,0.6,3.7,0.9c0.9,0.3,1.5,0.7,1.9,1.1
		C146,54.4,146.3,54.9,146.5,55.6z M150.9,34.9c-0.3,0.4-0.6,0.7-0.9,1c-0.3,0.2-0.6,0.4-1,0.6c-0.4,0.1-0.9,0.3-1.4,0.4
		c-0.6,0.1-1.3,0.2-2.2,0.2c-0.4,0-1,0.1-1.5,0.1c-0.6,0-1.2,0-1.9,0c-0.7,0-1.3,0-2,0c-0.6,0-1.2-0.1-1.8-0.1
		c-1.4-0.1-2.3-0.5-2.8-1c-0.5-0.5-0.8-1.5-0.8-2.9v-9.6c0-0.8,0-1.7,0-2.5c0-0.8,0-1.5-0.1-2.1c0.9,0.2,1.7,0.4,2.3,0.7
		c0.7,0.2,1.3,0.6,2,1h4.9l1.3-1.7c0.2-0.2,0.4-0.3,0.5-0.4c0.2,0,0.5,0,0.9,0.2c0.5,0.3,0.9,0.5,1.3,0.7c0.3,0.2,0.7,0.4,1.1,0.7
		c0.5,0.3,0.7,0.6,0.6,0.9c-0.1,0.2-0.6,0.7-1.6,1.3v4.2c0,0.7,0.1,1.4,0.2,2.3c0,0.3-0.1,0.5-0.3,0.7c-0.5,0.3-1,0.5-1.6,0.7
		c-0.5,0.2-1.1,0.4-1.6,0.5c-0.2,0.1-0.3-0.1-0.3-0.4v-1.2h-6v3.7c0,0.5,0.1,0.9,0.2,1s0.5,0.3,1.1,0.4c0.9,0.1,1.8,0.1,2.7,0.1
		c0.9,0,1.7,0,2.3,0c0.7,0,1.3-0.1,1.7-0.2s0.8-0.3,1-0.6c0.2-0.3,0.4-0.9,0.6-1.6c0.1-0.7,0.3-1.7,0.4-3.1l0.8-0.1
		c0.1,0.8,0.2,1.5,0.3,2.1c0.1,0.5,0.2,1,0.3,1.3s0.3,0.6,0.4,0.8c0.2,0.2,0.4,0.4,0.7,0.6c0.4,0.3,0.5,0.5,0.5,0.7
		S151.2,34.5,150.9,34.9z M144.3,22h-6v5.2h6V22z"/>
	<path class="st1" d="M175.1,28h-12.9c-1,0-1.8,0.1-2.3,0.4l-1.1-2.4c0.8,0.2,1.7,0.3,2.8,0.3h14.2c1.1-2.8,2.3-6.3,3.5-10.6
		c4.5,1.7,6.7,3,6.7,3.7c0,0.3-0.2,0.4-0.7,0.4c-0.5,0-0.9,0.1-1.1,0.4c-0.3,0.3-0.6,0.9-1.1,1.8c-0.5,1-1.2,2.4-2,4.2h17.2l2.5-3.8
		c0.2-0.4,0.5-0.5,0.7-0.5c0.4,0,1.6,0.8,3.6,2.4c2,1.6,3,2.6,3,3s-0.4,0.6-1.3,0.6h-26.6c-2.5,5-5,9.1-7.5,12.4v24
		c0,0.3-0.1,0.6-0.2,0.7c-0.1,0.1-0.5,0.3-1,0.7c-0.6,0.3-1.2,0.6-1.9,0.8c-0.7,0.2-1.2,0.4-1.4,0.4c-0.2,0-0.4-0.1-0.4-0.4l0.1-2.6
		c0.1-1.8,0.1-3.4,0.1-4.9V45.6c-3.1,3.1-7,6-11.5,8.9l-0.7-0.7c4.9-4.4,8.9-8.8,12.2-13.3c0-3,0-5.1-0.1-6.1c1.7,0.6,2.8,1,3.3,1.2
		C172.3,33.9,173.6,31.3,175.1,28z M186.2,60.7V44.1h-8c-1,0-1.8,0.1-2.3,0.4l-1.1-2.4c0.8,0.2,1.7,0.3,2.8,0.3h8.6v-6.3
		c0-2.8,0-4.5-0.1-5.2c1.6,0.3,3.2,0.8,4.5,1.3c1.4,0.5,2.1,0.9,2.1,1.2c0,0.3-0.6,0.7-1.8,1.2v7.7h5.5l1.6-3
		c0.3-0.5,0.7-0.8,1.2-0.8s1.6,0.7,3.4,2.2c1.8,1.4,2.6,2.4,2.6,2.8c0,0.4-0.5,0.6-1.4,0.6h-13v16.6h7.8l2.3-3.3
		c0.3-0.4,0.7-0.7,1-0.7c0.3,0,1.1,0.4,2.3,1.3c1.2,0.9,2.1,1.7,2.9,2.4c0.8,0.7,1.2,1.2,1.2,1.4c0,0.4-0.4,0.6-1.3,0.6h-30.6
		c-1,0-1.8,0.1-2.3,0.4l-1-2.4c0.8,0.2,1.7,0.3,2.8,0.3H186.2z"/>
	<path class="st1" d="M220.2,36.7h-4.3c-0.9,0-1.6,0.1-2.3,0.4l-1-2.6c0.8,0.2,1.7,0.3,2.8,0.3h4.9V23c0-1.8,0-3.5-0.1-4.9
		c1.5,0.3,3,0.7,4.5,1.3c1.5,0.6,2.3,1,2.3,1.4c0,0.3-0.8,0.9-2.3,1.7v12.3h1.5l1.5-2c0.3-0.4,0.6-0.6,0.8-0.6s0.9,0.6,1.9,1.8
		c1,1.2,1.6,1.9,1.6,2.3s-0.3,0.5-0.8,0.5h-6.6v15.6l7-2l0.3,1.3l-10.8,5.2c-2.2,1.1-4.2,2.3-6.1,3.5c-0.3,0.2-0.5,0.3-0.6,0.3
		c-0.1,0-0.3-0.1-0.5-0.4c-0.2-0.3-1.2-1.9-2.9-4.8c2.8-0.3,5.8-1,9.2-1.9V36.7z M246.7,32l5.7-2.2l1.2-2.8c0.2-0.5,0.4-0.7,0.8-0.7
		c0.3,0,1.2,0.4,2.7,1.3c1.4,0.9,2.3,1.4,2.4,1.6c0.2,0.2,0.2,0.3,0.2,0.5c0,0.4-0.7,1.1-2.1,2.2c0,2.9,0,6.1-0.1,9.4
		c-0.1,3.3-0.2,5.4-0.4,6.4c-0.2,0.9-0.5,1.7-0.9,2.5c-0.4,0.7-1.1,1.4-2.1,2.1c-1,0.6-1.7,1-2,1c-0.3,0-0.5-0.2-0.7-0.7
		c-0.4-1.1-0.9-1.9-1.5-2.4c-0.6-0.5-1.6-1-3.1-1.5v-0.8c1.3,0.1,2.3,0.1,3.1,0.1c0.8,0,1.4-0.1,1.8-0.4c0.4-0.3,0.7-0.9,0.8-1.8
		c0.2-0.9,0.3-2.5,0.4-4.7c0.1-2.2,0.1-5.2,0.1-9l-6.4,2.5v15.2c0,1.4,0,2.5,0.1,3.1l0.1,1.6c0,0.3-0.1,0.5-0.2,0.6
		c-0.1,0.1-0.8,0.4-1.9,0.9c-1.1,0.4-1.8,0.6-2.1,0.6c-0.3,0-0.4-0.3-0.4-0.8V36.1l-5.1,2v18.3c0,1.7,0.1,2.8,0.4,3.3
		c0.3,0.5,0.9,0.8,2,1c1,0.1,3.6,0.2,7.5,0.2c4,0,6.4-0.2,7.3-0.6c0.9-0.4,1.6-1.3,2.2-2.7c0.6-1.4,1.1-4.1,1.7-7.9l1.2,0.2
		c-0.1,1.1-0.1,2.1-0.1,3c0,3.8,0.7,6.2,2,7c0.4,0.2,0.6,0.5,0.6,0.8s-0.5,1.1-1.6,2.3c-1.1,1.2-2.2,1.8-3.4,2
		c-1.2,0.2-3.7,0.2-7.5,0.2c-3.8,0-7-0.1-9.5-0.3c-2.5-0.2-4.2-0.5-5-0.9c-0.8-0.4-1.3-1-1.5-2c-0.2-1-0.3-2.8-0.3-5.4V39.7
		l-3.4,1.3c-1.4,0.5-2.3,0.9-2.6,1.3l-2-2.3c0.7,0,1.6-0.2,2.5-0.6l5.6-2.1v-6.8c0-2.5-0.1-4.5-0.2-6.2c1.5,0.4,2.8,0.7,4,1.1
		c1.1,0.4,1.8,0.7,2.1,0.8c0.3,0.1,0.4,0.3,0.4,0.5c0,0.4-0.7,0.9-2.1,1.7v7.3l5.1-2V21.1c0-1.3-0.1-2.7-0.2-4.1
		c1.1,0.2,2.5,0.6,4.1,1.2c1.6,0.6,2.4,1,2.4,1.4c0,0.4-0.6,1-1.9,1.8V32z"/>
	<path class="st1" d="M274.7,62.5c0.6-0.1,1.2-0.2,1.7-0.3c0.6-0.1,1.1-0.2,1.7-0.3V37.8c0-0.9,0-1.7,0-2.4c0-0.7,0-1.2-0.1-1.7
		c-1,0.5-1.8,1-2.5,1.4c-0.7,0.4-1.5,0.8-2.3,1.1c-0.8,0.3-1.6,0.7-2.6,1.1c-1,0.4-2.1,0.8-3.5,1.3l-0.5-0.9
		c2.9-1.9,5.5-3.6,7.8-5.2c2.2-1.6,4.3-3.2,6.1-4.9c1.8-1.7,3.5-3.6,5-5.6c1.5-2,3.1-4.4,4.7-7.1c0.6,0.3,1.1,0.5,1.5,0.7
		c0.4,0.2,0.9,0.4,1.2,0.5c0.4,0.2,0.8,0.3,1.2,0.5c0.4,0.2,0.8,0.4,1.3,0.6c0.5,0.2,0.8,0.5,0.8,0.7c0,0.3-0.3,0.5-1,0.7
		c-0.3,0.1-0.7,0.3-1.1,0.4c1.8,2,3.5,3.6,5.1,4.9c1.6,1.3,3.4,2.4,5.2,3.2c1.9,0.9,3.9,1.6,6.1,2.1c2.2,0.6,4.9,1.1,7.9,1.6v1
		c-1,0.1-1.8,0.3-2.4,0.5s-1.1,0.4-1.5,0.6c-0.4,0.3-0.8,0.6-1,0.9c-0.3,0.4-0.5,0.8-0.8,1.4c-0.2,0.5-0.6,0.5-1.3,0.2
		c-1.7-0.8-3.2-1.6-4.5-2.3c-1.3-0.7-2.5-1.4-3.5-2.1s-2-1.4-2.8-2.1c-0.8-0.7-1.7-1.5-2.4-2.4c-0.8-0.9-1.6-1.9-2.4-2.9
		c-0.8-1.1-1.7-2.3-2.7-3.7c-1.3,1.6-2.4,3-3.4,4.1c-1,1.1-2,2.1-3.1,3s-2.2,1.8-3.4,2.7c-1.2,0.9-2.7,1.9-4.5,3.1
		c1,0.3,1.8,0.6,2.5,0.9c0.7,0.3,1.5,0.6,2.3,1h16.6l0.9-1.7c0.2-0.3,0.4-0.4,0.6-0.4c0.2,0,0.5,0.1,1,0.4c1,0.5,1.7,1,2.3,1.4
		c0.5,0.4,1.1,0.8,1.6,1.2c0.6,0.4,0.8,0.8,0.8,1.3c-0.1,0.4-0.7,0.9-1.8,1.4V43c0,1,0,1.9,0,2.9c0,0.9,0,1.8,0.1,2.6
		c0,0.5-0.1,0.8-0.3,0.9c-0.7,0.3-1.3,0.6-1.8,0.7c-0.6,0.2-1.3,0.3-2.1,0.5c-0.2,0.1-0.3-0.1-0.4-0.5c-0.1-0.4-0.1-0.8-0.1-1.1
		h-9.6c1,1.4,2.1,2.6,3.2,3.8c1.2,1.2,2.5,2.2,3.8,3.2c2-1.2,3.7-2.5,5.3-3.7c1.5-1.2,2.9-2.5,4.1-3.7c0.9,0.9,1.6,1.7,2.2,2.3
		c0.6,0.6,1.1,1.2,1.6,1.8c0.5,0.6,0.7,1,0.6,1.2c-0.1,0.2-0.5,0.3-1.2,0.2c-1.1-0.1-2.2,0-3.2,0.3c-1.1,0.4-2.4,0.8-3.8,1.4
		c-1.4,0.6-2.6,1.1-3.7,1.5c2.1,1.2,4.5,2.1,7.2,2.9c2.7,0.8,5.8,1.3,9.4,1.6v1c-1.1,0.1-2,0.2-2.7,0.3c-0.7,0.1-1.2,0.4-1.6,0.6
		c-0.4,0.3-0.7,0.6-0.8,1s-0.3,0.8-0.5,1.3c-0.1,0.3-0.2,0.4-0.4,0.5c-0.2,0-0.5-0.1-1-0.2c-2.6-1.1-5-2.2-7-3.3
		c-2.1-1.1-3.9-2.3-5.6-3.7s-3.1-2.8-4.4-4.5c-1.3-1.6-2.4-3.6-3.5-5.7h-6.8v12.2c1.8-0.3,3.6-0.6,5.5-0.9c1.9-0.3,3.9-0.7,6.1-1.2
		l0.2,1c-3.2,1.1-5.7,1.9-7.7,2.6c-2,0.7-3.5,1.3-4.7,1.9c-1.2,0.5-2.1,1.1-2.6,1.5c-0.6,0.5-1.1,0.9-1.5,1.5
		c-0.3,0.3-0.5,0.4-0.7,0.3c-0.2-0.1-0.4-0.3-0.6-0.6C275.9,65.6,275.2,64,274.7,62.5z M301.1,36.9h-18.3v4.2h18.3V36.9z
		 M301.1,42.9h-18.3v4.7h18.3V42.9z M296.1,31.3c-0.3,1.1-0.7,1.9-1.1,2.4c-0.4,0.6-1,0.9-1.7,0.9c-0.4,0-0.8-0.2-1-0.5
		c-0.3-0.3-0.5-0.8-0.7-1.4c-0.3-0.9-0.7-1.7-1.1-2.4c-0.4-0.7-1.1-1.7-2.1-2.9l0.5-0.8c2.9,0.5,4.9,1.2,6,2.1
		C296,29.5,296.4,30.4,296.1,31.3z"/>
	<path class="st1" d="M337.4,29.6h2.3l1.6-2.3c0.4-0.6,0.8-0.9,1.1-0.9s1.1,0.6,2.4,1.8c1.3,1.2,2,2,2,2.4c0,0.4-0.5,0.6-1.4,0.6h-8
		v4.6c2.3,1,4.1,1.9,5.3,2.6c1.2,0.7,2,1.4,2.3,2c0.4,0.6,0.6,1.4,0.6,2.3s-0.3,1.8-0.9,2.6c-0.6,0.8-1.2,1.2-1.7,1.2
		c-0.5,0-0.9-0.2-1.2-0.6c-0.2-0.4-0.4-0.9-0.6-1.5c-0.8-2.9-2.1-5.2-3.8-6.9v26c0,0.7-0.1,1.1-0.4,1.3c-0.2,0.2-0.9,0.4-1.8,0.7
		c-1,0.3-1.7,0.4-2,0.4c-0.3,0-0.4-0.3-0.4-1l0.1-2.1c0-1.4,0.1-3,0.1-4.8V42c-2.6,5.8-6.3,11.1-11.1,16.2l-0.7-0.7
		c3-4.9,5.3-9.3,6.8-13.1c1.6-3.8,3-8.2,4.1-13.1h-6.7c-1,0-1.7,0.1-2.4,0.3l-0.9-2.3c0.8,0.2,1.7,0.3,2.8,0.3h8v-7.5
		c0-2.4-0.1-4.5-0.2-6.3c4.6,1,6.9,1.7,6.9,2.1c0,0.2-0.7,0.8-2.2,1.7V29.6z M364.4,30.1h0.8l1.9-2.7c0.4-0.5,0.8-0.8,1.1-0.8
		c0.3,0,1.2,0.7,2.6,2.1c1.4,1.4,2.1,2.3,2.1,2.7s-0.4,0.6-1.2,0.6h-7.3v27.9c0,1.8-0.3,3-1,3.8c-0.7,0.8-1.7,1.5-3.1,2
		s-2.2,0.8-2.6,0.8s-0.6-0.2-0.7-0.7c-0.4-1.3-1.2-2.4-2.3-3.2c-1.2-0.9-2.8-1.7-5-2.6l0.3-1c3.3,0.6,5.6,0.9,6.7,0.9
		s1.9-0.1,2.3-0.3c0.4-0.2,0.7-0.7,0.7-1.5V38.6c-3.7,8-9.8,15.5-18.3,22.7l-0.7-0.8c3.7-4,7-8.5,9.9-13.6s5.1-10.1,6.5-14.9h-6
		c-1,0-1.8,0.1-2.3,0.4l-1.5-2.5c0.8,0.2,1.7,0.3,2.8,0.3h9.6v-9.2c0-1.8,0-3.5-0.1-4.9c4.5,0.6,6.8,1.2,6.8,1.8
		c0,0.4-0.7,0.9-2,1.5V30.1z"/>
	<path class="st1" d="M397.7,49.2c1.6-1.2,3-2.6,4-4.3c1-1.6,1.6-2.7,1.6-3.3c0-0.8-0.6-1.2-1.9-1.3c-0.8-0.1-1.5-0.5-2.1-1.2
		c-0.6-0.7-0.9-1.6-0.9-2.5s0.4-1.9,1.1-2.7c0.8-0.8,1.8-1.3,3.1-1.3c1.3,0,2.4,0.6,3.3,1.9c0.9,1.3,1.3,2.7,1.3,4.3
		c0,2.1-0.7,4.2-2.2,6.3s-3.6,3.9-6.4,5.3L397.7,49.2z"/>
	<path class="st1" d="M483.1,60.8c-1,0.4-1.7,0.8-2.3,1.1c-0.6,0.3-1.1,0.6-1.4,1c-0.3,0.3-0.6,0.7-0.8,1.1
		c-0.2,0.4-0.3,0.9-0.4,1.6c-0.1,0.3-0.4,0.5-0.9,0.5c-5.3,0-9.7-0.1-13.2-0.2s-6.2-0.3-8.2-0.5c-1.4-0.1-2.9-0.4-4.3-0.9
		c-1.5-0.4-2.9-1-4.2-1.6c-1.3-0.6-2.6-1.3-3.8-2.1c-1.2-0.8-2.2-1.6-3-2.4c-1.1,1.9-2.4,3.5-4,4.8c-1.6,1.3-3.5,2.6-5.8,3.8
		l-0.5-0.8c1.7-1.3,3-2.6,4.1-3.8c1.1-1.2,2-2.5,2.8-3.9c0.8-1.4,1.4-3,1.8-4.8c0.5-1.8,0.9-4,1.3-6.5h-4.3l-0.4,0.9
		c-0.2,0.5-0.6,0.7-1,0.8c-0.5-0.1-1-0.1-1.2-0.2c-0.3,0-0.7-0.1-1.2-0.3c-0.5-0.1-0.6-0.4-0.4-0.9c0.5-0.7,1-1.5,1.5-2.3
		c0.5-0.9,1-1.8,1.5-2.9l3.4-6.5h-4.5c-0.4,0-0.8,0-1.2,0.1c-0.4,0.1-0.7,0.1-0.9,0.2l-0.8-2.2c0.4,0.1,0.8,0.2,1.1,0.2
		c0.3,0,0.8,0.1,1.3,0.1h4.7l1.5-2.3c0.3-0.3,0.5-0.4,0.6-0.5s0.4,0.1,0.7,0.4c0.7,0.5,1.2,1,1.5,1.4s0.8,0.9,1.2,1.4
		c0.2,0.3,0.4,0.5,0.5,0.7c0.1,0.2,0.1,0.3,0,0.5c-0.1,0.2-0.3,0.3-0.7,0.5c-0.4,0.1-0.9,0.3-1.5,0.5l-5,9h3.2l0.9-1.6
		c0.2-0.3,0.3-0.4,0.5-0.5s0.3,0.1,0.6,0.3c0.5,0.4,1,0.7,1.4,1c0.4,0.3,1,0.8,1.6,1.3c0.9,0.7,0.8,1.2-0.3,1.5
		c-0.3,0.1-0.5,0.4-0.6,0.7c-0.1,0.3-0.3,0.9-0.6,1.7c-0.5,2.3-1.2,4.4-2,6.2c1.5,1.2,3.5,2.3,6,3.2c2.5,0.9,5.3,1.4,8.4,1.6
		c1.6,0.1,3.2,0.1,4.8,0.1s3.3,0,5.3-0.1s4.3-0.2,7-0.5c2.7-0.2,6-0.5,9.9-0.8L483.1,60.8z M443.1,27.4c-0.2,0.8-0.5,1.3-1,1.7
		c-0.5,0.4-1,0.6-1.4,0.7c-1.1,0.1-1.7-0.4-1.9-1.6c-0.1-0.8-0.3-1.5-0.5-2.2c-0.2-0.7-0.5-1.3-0.8-1.9c-0.3-0.6-0.7-1.2-1.2-1.9
		s-1.1-1.4-1.8-2.2l0.7-0.8c2.1,1.1,3.6,2,4.8,2.8c1.1,0.8,2,1.4,2.5,2c0.5,0.6,0.8,1.2,0.9,1.7C443.3,26.3,443.3,26.8,443.1,27.4z
		 M464,40.7c0.6,0.6,0.9,1.1,0.9,1.3c-0.1,0.3-0.4,0.4-1.1,0.4h-9.9c-0.1,0.7-0.2,1.3-0.2,1.9c-0.1,0.6-0.2,1.1-0.3,1.7h3.8l1.1-1.9
		c0.1-0.2,0.2-0.3,0.4-0.3c0.1,0,0.4,0,0.7,0.2c0.4,0.2,1,0.4,1.5,0.8c0.6,0.3,1.1,0.7,1.6,1.1c0.5,0.4,0.7,0.7,0.6,0.9
		c-0.1,0.2-0.6,0.6-1.6,1.1c-0.1,1.7-0.3,3-0.4,4c-0.1,1-0.3,2-0.5,3c-0.1,0.4-0.2,0.8-0.4,1.2c-0.2,0.4-0.4,0.7-0.7,1
		s-0.8,0.7-1.3,1c-0.5,0.3-1.2,0.6-1.9,1c-0.4,0.2-0.7,0.2-0.9,0.2s-0.3-0.3-0.5-0.7c-0.2-0.5-0.4-1-0.7-1.4c-0.2-0.4-0.5-0.7-0.9-1
		c-0.3-0.3-0.7-0.5-1.2-0.7c-0.4-0.2-1-0.3-1.6-0.5v-1c1.4,0.2,2.4,0.4,3.2,0.4c0.8,0.1,1.4,0,1.9-0.1c0.5-0.1,0.8-0.3,1-0.6
		c0.2-0.3,0.3-0.6,0.4-1c0.1-0.7,0.3-1.4,0.4-2.1c0.1-0.7,0.2-1.7,0.2-3H453c-0.3,1.2-0.6,2.2-1,3.1c-0.4,0.9-0.9,1.8-1.5,2.6
		c-0.6,0.8-1.3,1.6-2.1,2.4c-0.8,0.8-1.9,1.7-3,2.6l-0.8-0.7c0.9-1.2,1.7-2.4,2.3-3.4c0.6-1.1,1.2-2.2,1.6-3.4
		c0.4-1.2,0.8-2.4,1-3.8c0.3-1.4,0.5-2.9,0.7-4.7h-3.7c-0.3,0-0.6,0-0.9,0c-0.3,0-0.5,0.1-0.8,0.1l-0.7-1.9c0.3,0.1,0.6,0.1,0.9,0.1
		c0.3,0,0.6,0,1,0h8c0-0.1-0.1-0.1-0.1-0.1c0,0,0-0.1-0.1-0.1c-0.1-0.4-0.3-0.8-0.4-1.1c-0.1-0.3-0.3-0.7-0.5-1
		c-0.2-0.3-0.4-0.7-0.7-1c-0.3-0.3-0.6-0.7-1-1.1l0.5-0.7h-1.4c0,0.3,0,0.5-0.1,0.6c-0.1,0.1-0.2,0.2-0.4,0.3
		c-0.5,0.3-1,0.4-1.5,0.5c-0.4,0.1-0.9,0.2-1.5,0.3c-0.4,0-0.5-0.1-0.5-0.5c0-0.5,0.1-1,0.1-1.4c0-0.4,0.1-0.8,0.1-1.2
		c0-0.4,0.1-0.8,0.1-1.3c0-0.5,0-1,0-1.6v-4.5c0-0.9,0-1.7,0-2.4c0-0.7-0.1-1.4-0.1-2.3c1.4,0.4,2.6,0.8,3.7,1.3h1.3
		c0.3-1.5,0.5-2.9,0.7-4.2c0.2-1.3,0.3-2.5,0.4-3.7c0.5,0.1,0.9,0.2,1.2,0.3c0.3,0.1,0.7,0.2,1,0.3c0.3,0.1,0.6,0.2,1,0.3
		c0.3,0.1,0.8,0.3,1.3,0.5c0.6,0.2,0.9,0.5,0.9,0.7c0,0.3-0.3,0.5-0.8,0.8c-0.2,0.1-0.4,0.2-0.6,0.4c-0.2,0.2-0.5,0.4-0.8,0.8
		c-0.3,0.4-0.7,0.9-1.1,1.5c-0.4,0.6-1,1.4-1.6,2.3h4.7l1-1.8c0.1-0.3,0.3-0.4,0.5-0.4c0.2,0,0.5,0.1,0.9,0.3
		c0.6,0.3,1.1,0.6,1.6,0.8c0.5,0.3,0.9,0.6,1.5,0.9c0.5,0.3,0.7,0.6,0.7,0.9c-0.1,0.3-0.6,0.8-1.5,1.5v4.8c0,1,0,1.9,0,2.7
		s0,1.6,0.1,2.4c0,0.2,0,0.3,0,0.5c-0.1,0.1-0.2,0.3-0.4,0.4c-0.4,0.3-0.8,0.5-1.2,0.6c-0.4,0.1-1,0.3-1.7,0.5
		c-0.4,0.1-0.6,0-0.6-0.4v-1.5h-6.5c1.2,0.3,2.2,0.5,2.9,0.8c0.7,0.3,1.2,0.6,1.6,0.9c0.3,0.3,0.5,0.7,0.6,1.1c0,0.4,0,0.8-0.2,1.3
		c-0.1,0.4-0.3,0.8-0.5,1.1h2.8l1.6-2c0.2-0.3,0.4-0.4,0.6-0.4s0.5,0.1,0.9,0.4c0.5,0.4,0.9,0.8,1.2,1.1
		C463.5,40.2,463.8,40.5,464,40.7z M458.3,25.2h-7.9v3.7h7.9V25.2z M458.3,30.4h-7.9v3.6h7.9V30.4z M484.5,55.9c-0.9,0-1.6,0-2.1,0
		c-0.5,0.1-0.9,0.2-1.3,0.3s-0.7,0.4-0.9,0.7c-0.3,0.3-0.6,0.6-0.9,1c-0.4,0.5-0.8,0.5-1.2,0.2c-1.3-1.2-2.4-2.5-3.4-3.6
		c-1-1.2-1.9-2.4-2.7-3.7c-1.4,1.7-3.1,3.2-5,4.8c-1.9,1.5-4.2,3.1-6.8,4.8l-0.5-0.8c2.3-2,4.3-4,5.9-6s3.2-4.2,4.4-6.5
		c-0.7-1.6-1.4-3.5-2-5.4c-0.6-2-1.1-4.2-1.6-6.8c-0.4,0.7-0.9,1.4-1.4,2.1c-0.5,0.7-1,1.5-1.6,2.3l-0.7-0.7
		c1.5-3.3,2.7-6.7,3.8-10.3c1.1-3.6,1.9-7.4,2.5-11.2c1,0.4,1.9,0.8,2.5,1c0.6,0.2,1.3,0.4,2.1,0.7c0.6,0.2,0.9,0.4,0.9,0.7
		c0,0.2-0.3,0.5-0.8,0.9c-0.5,0.3-0.8,0.6-1,0.9c-0.2,0.3-0.4,0.8-0.6,1.4c-0.3,0.8-0.5,1.6-0.7,2.2c-0.2,0.6-0.4,1.2-0.6,1.7
		c-0.2,0.5-0.4,1.1-0.6,1.6c-0.2,0.5-0.5,1.1-0.8,1.7h5.7l1.7-2.9c0.3-0.4,0.5-0.6,0.7-0.6c0.2,0,0.6,0.2,1.1,0.6
		c0.6,0.5,1.2,1,1.7,1.5c0.6,0.5,1.2,1.1,1.8,1.7c0.8,0.8,0.7,1.3-0.4,1.3h-4.3c0.4,0.1,0.7,0.2,1,0.3c0.3,0.1,0.7,0.2,1,0.4
		c1.1,0.4,1.2,0.8,0.3,1.3c-0.4,0.3-0.7,0.5-0.9,0.8c-0.2,0.3-0.4,0.9-0.5,1.8c-0.6,4.4-1.9,8.2-3.8,11.4c2.5,3,5.8,5.6,10,7.6
		L484.5,55.9z M468.4,31.2c-0.2,0.3-0.4,0.7-0.6,1s-0.4,0.6-0.5,0.9c0.6,2,1.3,3.8,2,5.5c0.7,1.7,1.5,3.2,2.3,4.6
		c1.4-3.5,2.4-7.5,2.9-12H468.4z"/>
	<path class="st1" d="M497,30.8c-1.7,2.1-4.7,5-9,8.5l-0.8-0.8c3.3-3.8,5.8-7.2,7.6-10.2c1.8-3,3.8-7.2,6-12.7
		c3,1.2,4.8,1.9,5.3,2.2c0.5,0.3,0.8,0.6,0.8,1c0,0.3-0.3,0.6-1,0.7c-0.7,0.1-1.6,1-2.7,2.8c-1.1,1.7-2.2,3.4-3.3,4.9
		c0.8,0.2,1.5,0.4,2.1,0.8c0.6,0.3,0.9,0.6,0.9,0.8c0,0.3-0.4,0.7-1.3,1v16.3c0,0.4-0.1,0.6-0.2,0.7c-0.1,0.1-0.5,0.3-1.2,0.7
		c-0.7,0.3-1.3,0.6-2,0.7c-0.6,0.2-1,0.2-1.2,0.2s-0.3-0.2-0.3-0.6l0.1-3c0.1-2,0.2-4.3,0.2-6.8V30.8z M495.9,51.1
		c0.7,3.2,1,5.7,1,7.7c0,1.9-0.4,3.5-1.3,4.8c-0.9,1.3-2,1.9-3.5,1.9c-0.8,0-1.6-0.2-2.1-0.5c-0.6-0.3-0.9-0.9-0.9-1.8
		s0.6-1.7,1.8-2.8c1.2-1,2.1-2.3,2.7-3.8c0.6-1.5,1-3.4,1.1-5.6H495.9z M523.9,53.3c0,2.6,0.2,4.4,0.5,5.3c0.3,0.9,0.7,1.6,1.4,2
		c0.7,0.4,1,0.8,1,1.1c0,0.3-0.3,1-0.9,1.8c-0.6,0.9-1.2,1.5-1.8,1.8c-0.6,0.3-1.8,0.5-3.5,0.7s-4.3,0.2-7.9,0.2
		c-3.5,0-6-0.1-7.3-0.3c-1.4-0.2-2.3-0.7-2.8-1.4c-0.5-0.7-0.7-1.8-0.7-3.4v-6.2c0-1.5-0.1-3-0.2-4.5c4,0.8,5.9,1.5,5.9,2
		c0,0.3-0.4,0.6-1.3,1.2V59c0,1.5,0.3,2.3,0.9,2.5s2.1,0.2,4.6,0.2c5,0,7.8-0.3,8.7-0.8c0.8-0.5,1.5-3.1,2.1-7.8L523.9,53.3z
		 M512.6,30.7c3.3,1.8,4.9,2.8,4.9,3.2c0,0.2-0.3,0.3-0.9,0.5c-0.6,0.1-1.5,0.9-2.6,2.3c-1.8,2.2-3.2,3.9-4.3,4.9
		c-1.1,1.1-3,2.5-5.4,4.3l-0.8-0.9c2.5-2.7,4.4-5,5.6-6.9C510.2,36.3,511.4,33.8,512.6,30.7z M513.9,25.5c-2.1,2.9-4.7,5.7-8,8.3
		l-0.8-0.8c4.4-5.9,7.4-11.6,9-17.3c4.2,1.6,6.3,2.6,6.3,3.1c0,0.2-0.3,0.4-0.8,0.5c-0.5,0.1-1,0.3-1.5,0.7
		c-0.4,0.3-0.8,0.8-1.2,1.3l-1.7,2.4h13.6l1.3-2.1c0.3-0.4,0.5-0.5,0.8-0.5c0.3,0,1.4,0.7,3.1,2s2.6,2.2,2.6,2.7
		c0,0.4-0.5,0.7-1.6,0.7c-1.1,0.1-2.1,0.5-2.9,1.1c-0.9,0.6-2.4,2.2-4.6,4.6l-0.9-0.6c1-1.9,1.8-3.9,2.6-6.1H513.9z M509.5,47.5
		c2.5,1.3,4.4,2.5,5.7,3.6c1.3,1.1,2,2.2,2,3.2c0,1-0.3,1.9-0.9,2.6c-0.6,0.8-1.1,1.1-1.7,1.1c-0.6,0-1-0.1-1.2-0.4
		c-0.2-0.3-0.5-1-0.7-2.1c-0.2-1.1-0.6-2-1-2.8c-0.4-0.8-1.4-2.2-3-4.4L509.5,47.5z M518.7,27.6c2.8,0.4,4.5,0.7,5.1,0.9
		c0.6,0.2,0.9,0.5,0.9,0.9c0,0.4-0.5,0.9-1.4,1.4V44c0,1.2-0.2,2.1-0.5,2.6s-1.1,1.2-2.4,1.9c-1.3,0.8-2,1.2-2.3,1.2
		c-0.3,0-0.5-0.3-0.6-0.8c-0.2-1-0.7-1.9-1.4-2.6c-0.8-0.7-2.2-1.4-4.3-2.1l0.2-1c2.6,0.4,4.3,0.5,5.1,0.5c0.8,0,1.2-0.1,1.4-0.3
		c0.2-0.2,0.2-0.6,0.2-1.2v-9.7C518.8,30.6,518.8,29,518.7,27.6z M525.3,33.1c4,2.2,6.7,3.9,8,5.1c1.3,1.2,2,2.4,2,3.6
		c0,1.2-0.2,2.1-0.7,2.9c-0.5,0.8-1,1.2-1.5,1.2s-0.9-0.2-1.2-0.5c-0.3-0.3-0.7-1.2-1.3-2.6c-0.6-1.4-1.2-2.7-1.9-3.7
		c-0.7-1-2-2.7-4.1-4.9L525.3,33.1z M526.4,49.9c7.5,3.6,11.2,6.9,11.2,9.8c0,0.7-0.3,1.6-0.9,2.8c-0.6,1.2-1.3,1.7-2,1.7
		c-0.7,0-1.2-0.1-1.4-0.4c-0.3-0.3-0.7-1.4-1.3-3.2c-0.6-1.8-1.4-3.5-2.4-5c-1-1.5-2.3-3.1-4-4.7L526.4,49.9z"/>
	<path class="st1" d="M582.6,37.8l3.1-4.2c0.4-0.6,0.8-0.9,1.2-0.9s1.5,0.9,3.4,2.8c1.9,1.9,2.9,3,2.9,3.4c0,0.4-0.4,0.6-1.3,0.6
		h-45.8c-1,0-1.8,0.1-2.3,0.4l-1.1-2.5c0.8,0.2,1.7,0.3,2.8,0.3H582.6z"/>
	<path class="st1" d="M607.4,21.9v42.6c0,0.4-0.2,0.8-0.5,1c-0.3,0.2-1,0.5-2.1,0.9s-1.9,0.5-2.3,0.5c-0.2,0-0.3-0.1-0.3-0.2
		s0-1,0.1-2.4c0.1-1.4,0.1-3.1,0.1-4.9V22.4c0-1.8,0-3.4-0.1-4.8c2.1,0.7,3.9,1.5,5.4,2.4h29.5l1.1-2.1c0.2-0.4,0.5-0.7,0.9-0.7
		c0.4,0,1.5,0.5,3.4,1.5c1.9,1,2.8,1.7,2.8,2.2c0,0.4-0.8,1-2.3,1.8v36.1c0,2-0.3,3.5-0.9,4.5c-0.6,1-1.7,2-3.3,2.8
		c-1.6,0.8-2.7,1.2-3.3,1.2s-1-0.3-1-0.8c-0.1-1-0.3-1.7-0.5-2.2c-0.3-0.5-0.9-1-1.7-1.4s-2.2-0.9-4-1.5l0.3-1.5
		c3.3,0.7,5.4,1.1,6.4,1.1c1,0,1.7-0.1,2.1-0.4c0.4-0.3,0.6-1,0.6-2.1V21.9H607.4z M627.9,29.7l2-2.8c0.3-0.4,0.6-0.6,0.9-0.6
		c0.3,0,1.1,0.7,2.4,2s2,2.2,2,2.6c0,0.3-0.4,0.4-1.3,0.4h-21.4c-1,0-1.7,0.1-2.3,0.3l-1.3-2.3c0.8,0.2,1.7,0.3,2.8,0.3H627.9z
		 M618.9,38.1h7.7l1.5-1.8c0.3-0.3,0.5-0.4,0.7-0.4c0.2,0,1,0.5,2.3,1.5c1.3,1,2,1.6,2,2s-0.7,0.8-2.2,1.2v11.4c0,0.1,0,0.6,0.1,1.5
		l0.1,1.2c0,0.5-0.6,0.9-1.8,1.3c-1.2,0.4-2.1,0.6-2.5,0.6c-0.2,0-0.3-0.2-0.3-0.6v-4.8h-8.7v4.5c0,0.3-0.1,0.5-0.4,0.7
		c-0.3,0.2-0.9,0.4-2,0.7s-1.7,0.4-2,0.4c-0.3,0-0.4-0.2-0.4-0.5c0.2-1.2,0.3-2.6,0.3-4.1V40.1c0-1.5-0.1-3.1-0.2-4.7
		C615.7,36.4,617.6,37.3,618.9,38.1z M626.4,49.5v-9.6h-8.7v9.6H626.4z"/>
	<path class="st1" d="M662,43h7l1-1.8c0.2-0.4,0.4-0.5,0.7-0.5c0.2,0,0.9,0.3,1.9,0.9c1,0.6,1.8,1.1,2.4,1.5c0.5,0.4,0.8,0.8,0.8,1
		c0,0.4-0.6,1-1.7,1.8v12.8l0.2,3.3c0,0.5-0.6,1-1.9,1.5c-1.3,0.5-2.1,0.8-2.4,0.8c-0.3,0-0.5-0.2-0.5-0.6v-4.1h-8.4v4.4
		c0,0.4-0.1,0.6-0.2,0.8c-0.1,0.1-0.5,0.4-1.1,0.7c-0.6,0.3-1.2,0.6-1.9,0.8s-1.1,0.3-1.3,0.3s-0.4-0.2-0.4-0.5l0.1-3.7V45.1
		c0-1.5-0.1-3.1-0.2-4.7C658.7,41.1,660.6,42,662,43z M669.6,57.7v-13h-8.4v13H669.6z M670.1,19.7H685l1.3-2.3
		c0.2-0.4,0.5-0.6,0.8-0.6c0.3,0,1.3,0.5,3,1.5c1.7,1,2.5,1.7,2.5,2.1c0,0.4-0.7,1-2,1.8v10.1c0,0.7,0,1.4,0.1,1.9l0.1,1.3
		c0,0.3-0.2,0.6-0.5,0.8s-1,0.5-2,0.9c-1,0.3-1.8,0.5-2.2,0.5c-0.3,0-0.4-0.2-0.4-0.5v-3.4h-16.1v1.9c0,0.4-0.2,0.8-0.6,1.1
		c-0.4,0.3-1,0.6-1.8,0.9c-0.8,0.3-1.5,0.5-1.9,0.5c-0.4,0-0.7-0.2-0.7-0.5l0.1-3.7V21.9c0-1.5-0.1-3.1-0.2-4.7
		C666.5,17.9,668.4,18.7,670.1,19.7z M685.4,32.2V21.3h-16.1v10.9H685.4z M685.6,42.5h7.4l1.4-2.1c0.3-0.4,0.5-0.5,0.8-0.5
		c0.3,0,1.2,0.5,2.9,1.6s2.4,1.8,2.4,2.3c0,0.5-0.6,1.2-1.9,2.1v14.2l0.2,3.3c0,0.2-0.1,0.4-0.4,0.7c-0.3,0.2-1,0.6-2.1,1
		c-1.1,0.4-1.9,0.6-2.4,0.6c-0.2,0-0.3-0.2-0.3-0.6v-5.7h-8.5v3.8c0,0.4-0.2,0.8-0.5,1c-0.4,0.3-1,0.6-1.9,1
		c-0.9,0.4-1.5,0.6-1.8,0.6s-0.5-0.1-0.5-0.4l0.1-3.8V45.1c0-1.5-0.1-3.1-0.2-4.7C682.9,41.3,684.7,42,685.6,42.5z M693.6,57.7V44.4
		h-8.5v13.4H693.6z"/>
	<path class="st1" d="M715.2,24h3.1l1.4-2.5c0.2-0.3,0.4-0.4,0.6-0.4c0.2,0,0.8,0.3,1.6,0.9l2.4,1.7c0.8,0.5,1.2,1,1.2,1.5
		c0,0.4-0.9,1-2.8,1.6v20.5l0.1,4.5c0,0.7-0.1,1.2-0.2,1.4c-0.2,0.2-0.7,0.6-1.7,1c-1,0.5-1.6,0.7-1.9,0.7c-0.3,0-0.4-0.3-0.4-1
		v-4.6h-4.3v5.3c0,0.5-0.1,0.9-0.3,1.2c-0.2,0.2-0.8,0.6-1.8,1c-1,0.4-1.6,0.6-1.9,0.6c-0.3,0-0.4-0.3-0.4-0.8
		c0.1-1.7,0.2-3.4,0.2-5.1V25.7c0-1.5-0.1-3.1-0.2-4.7C712.1,21.9,713.8,22.9,715.2,24z M718.6,47.5v-22h-4.3v22H718.6z M729.1,26
		h9.4v-4.8c0-2.9,0-4.8-0.1-5.8c1.1,0.2,2.2,0.5,3.5,0.9c1.3,0.4,2.1,0.6,2.4,0.8c0.3,0.2,0.4,0.3,0.4,0.5c0,0.3-0.6,0.8-1.9,1.4v7
		h1.7c1.6-2.8,3-5.7,4-8.9c3.6,1.7,5.4,2.8,5.4,3.4c0,0.4-0.4,0.6-1.1,0.6c-0.4,0-1,0.2-1.5,0.7l-5.2,4.2h5.4l1.5-1.7
		c0.3-0.3,0.5-0.4,0.7-0.4c0.4,0,1.3,0.6,2.7,1.9c1.3,1.3,2,2.1,2,2.5c0,0.4-0.3,0.6-1,0.6l-0.7-0.1c-0.7,0-1.5,0.3-2.3,0.9
		c-0.8,0.6-2.1,1.9-4.1,3.9l-0.9-0.4c1.2-2.4,2-4.3,2.4-5.7h-22.6c0.1,0.6,0.1,1.3,0.1,2.1c0,0.8-0.1,1.6-0.2,2.3
		c-0.2,0.8-0.4,1.3-0.7,1.5c-0.3,0.2-0.7,0.5-1.3,0.8c-0.6,0.3-1.1,0.5-1.7,0.5c-0.5,0-1-0.2-1.5-0.5c-0.5-0.3-0.8-0.8-0.8-1.4
		c0-0.6,0.5-1.3,1.4-2c1-0.7,1.6-1.5,2-2.6c0.4-1,0.7-2.5,0.8-4.5h0.9C728.7,24.2,728.9,25,729.1,26z M728.1,17.4
		c2.4,0.7,4.2,1.4,5.3,1.9c1.2,0.5,1.9,1,2.3,1.4c0.4,0.4,0.6,0.9,0.6,1.5c0,1.1-0.2,2-0.6,2.7c-0.4,0.7-0.9,1-1.4,1s-1-0.4-1.3-1.1
		c-0.6-1.2-1.2-2.3-2-3.2c-0.7-0.9-1.8-2-3.4-3.3L728.1,17.4z M731.7,41.5c6-0.9,10.9-2.3,14.9-4c1.4,2.2,2.1,3.5,2.1,4
		s-0.1,0.7-0.4,0.7c-0.1,0-0.2,0-0.3-0.1c-0.3-0.3-0.7-0.4-1.2-0.4s-1,0-1.4,0.1c-5,0.8-9.6,1.2-13.7,1.2v0.7c0,0.4,0.1,0.8,0.3,1.1
		c0.2,0.3,0.6,0.5,1.2,0.5c0.6,0.1,2.1,0.1,4.5,0.1s4.6-0.1,6.6-0.3c2-0.2,3.3-0.4,3.9-0.5c0.6-0.1,1.1-0.4,1.5-0.8
		c0.4-0.4,0.7-1.1,0.9-2c0.2-0.9,0.4-2.2,0.5-3.9h1c-0.1,2.4,0,3.9,0.2,4.5c0.2,0.6,0.7,1.1,1.4,1.6c0.7,0.4,1,0.8,1,1.1
		s-0.2,0.6-0.7,1c-0.4,0.3-1.1,0.7-2,1.1s-3.5,0.7-7.8,0.8c-4.3,0.2-7,0.2-8,0.2c-3.6,0-5.9-0.2-6.9-0.7s-1.5-1.3-1.5-2.6v-3.7
		c0-1,0-2.4-0.1-4.2c3.3,0.7,5,1.2,5,1.6c0,0.2-0.3,0.5-1,0.9V41.5z M747.2,64.5h-13.3v1.1c0,0.3-0.2,0.6-0.5,0.8
		c-0.4,0.2-1,0.5-2,0.8c-0.9,0.3-1.5,0.5-1.8,0.5c-0.2,0-0.3-0.2-0.3-0.6c0.2-1.6,0.3-3.2,0.3-4.7v-9.3c0-1.8-0.1-3.6-0.2-5.2
		c1.5,0.5,3.1,1.4,4.8,2.6h12.3l1.2-1.9c0.3-0.4,0.6-0.6,0.9-0.6c0.3,0,1.2,0.5,2.6,1.4c1.4,0.9,2.1,1.6,2.1,1.9
		c0,0.5-0.6,1-1.8,1.6v6.7c0,1.1,0,2.2,0.1,3.4l0.1,1.7c0,0.3-0.1,0.6-0.2,0.7c-0.1,0.1-0.7,0.4-1.7,0.7c-1,0.4-1.7,0.5-2.1,0.5
		c-0.3,0-0.5-0.2-0.5-0.5V64.5z M744.8,36.4h-9.1c0,0.3-0.2,0.5-0.4,0.6c-0.2,0.1-0.7,0.3-1.6,0.5c-0.8,0.2-1.4,0.3-1.7,0.3
		s-0.4-0.1-0.4-0.4l0.1-2.8v-3.4c0-1,0-2-0.1-2.8c2,0.5,3.5,1,4.5,1.5h8.7l0.9-1c0.1-0.2,0.3-0.3,0.5-0.3c0.2,0,0.9,0.3,2.1,1
		c1.2,0.6,1.8,1.1,1.8,1.3c0,0.3-0.5,0.6-1.5,1.2v1.3l0.1,2.4c0,0.2-0.1,0.4-0.2,0.5c-0.1,0.1-0.5,0.2-1.2,0.5
		c-0.7,0.2-1.3,0.3-1.8,0.3S744.8,36.9,744.8,36.4z M733.9,56.6h13.3v-4.5h-13.3V56.6z M747.2,58.1h-13.3v4.7h13.3V58.1z
		 M735.7,34.9h9.1v-3.4h-9.1V34.9z"/>
</g>
</svg>
