<svg xmlns="http://www.w3.org/2000/svg" width="18.482" height="21.09" viewBox="0 0 18.482 21.09">
  <g id="Group_5664" data-name="Group 5664" transform="translate(-1878.395 5253.46)">
    <path id="Path_6372" data-name="Path 6372" d="M1879.7-5241.195v-6.493c0-.524.03-.47-.462-.473-.064,0-.128,0-.192,0a.636.636,0,0,1-.628-.586,4.259,4.259,0,0,1,0-.791.651.651,0,0,1,.581-.612,4.689,4.689,0,0,1,.887-.034c.77,0,1.539,0,2.309,0a.415.415,0,0,0,.407-.229c.4-.675.813-1.344,1.223-2.014a2,2,0,0,1,1.786-1.03c1.338-.006,2.677,0,4.016,0a2.006,2.006,0,0,1,1.832,1.032c.406.673.816,1.343,1.213,2.02a.389.389,0,0,0,.384.22c.938-.008,1.876-.006,2.814,0a2.4,2.4,0,0,1,.453.043.629.629,0,0,1,.529.548,2.839,2.839,0,0,1,0,.863.661.661,0,0,1-.644.572c-.064,0-.128,0-.192,0-.437,0-.437,0-.437.449q0,6.517,0,13.034a3.414,3.414,0,0,1-.083.787,1.909,1.909,0,0,1-1.891,1.507c-3.976,0-7.952-.011-11.928.012a2.021,2.021,0,0,1-1.936-1.781c-.084-1.242-.02-2.484-.035-3.726-.014-1.106,0-2.212,0-3.318Zm13.841-.063c0-2.2,0-4.392.005-6.589,0-.237-.06-.318-.309-.317q-5.6.009-11.206,0c-.247,0-.31.076-.31.316q.009,6.59,0,13.178c0,.25.082.309.318.309q5.592-.011,11.183-.007c.318,0,.319,0,.319-.322Q1893.539-5237.975,1893.538-5241.258Zm-5.916-8.932h.576l1.994,0c.153,0,.241-.029.131-.2-.175-.278-.339-.563-.509-.843a.408.408,0,0,0-.38-.205q-1.8,0-3.6,0a.425.425,0,0,0-.408.237c-.147.257-.306.507-.457.762-.039.065-.123.128-.069.212.043.067.132.04.2.04Q1886.36-5250.188,1887.622-5250.19Z"/>
    <path id="Path_6373" data-name="Path 6373" d="M1888.924-5241.275q0-2.128,0-4.256c0-.515.165-.676.674-.676.265,0,.529,0,.794,0a.517.517,0,0,1,.553.512c.012.119.009.24.009.361q0,4.124,0,8.248a1.781,1.781,0,0,1-.015.311.494.494,0,0,1-.454.456,4.1,4.1,0,0,1-1.055.012c-.347-.035-.506-.254-.506-.642q0-2.165,0-4.329Z"/>
    <path id="Path_6374" data-name="Path 6374" d="M1886.338-5241.255q0,2.127,0,4.255c0,.514-.176.7-.689.708-.232.006-.464.009-.7,0a.58.58,0,0,1-.64-.646q0-4.338,0-8.678a.532.532,0,0,1,.6-.591c.272,0,.545,0,.817,0a.543.543,0,0,1,.615.623q0,2.164,0,4.327Z"/>
  </g>
</svg>
