<svg xmlns="http://www.w3.org/2000/svg" width="85" height="85" viewBox="0 0 85 85">
  <g id="Path_797" data-name="Path 797" fill="none">
    <path d="M42.5,0A42.5,42.5,0,1,0,85,42.5,42.5,42.5,0,0,0,42.5,0Z" stroke="none"/>
    <path d="M 42.5 2 C 37.03165054321289 2 31.72793579101562 3.070533752441406 26.73618698120117 5.181877136230469 C 21.91371154785156 7.221603393554688 17.58226013183594 10.14207458496094 13.86217498779297 13.86217498779297 C 10.14207458496094 17.582275390625 7.221603393554688 21.91371154785156 5.181861877441406 26.73618698120117 C 3.070533752441406 31.72793579101562 2 37.03165054321289 2 42.5 C 2 47.96834945678711 3.070533752441406 53.27206420898438 5.181861877441406 58.26381301879883 C 7.221603393554688 63.08628845214844 10.14207458496094 67.417724609375 13.86217498779297 71.13782501220703 C 17.58226013183594 74.85792541503906 21.91371154785156 77.77839660644531 26.73618698120117 79.81812286376953 C 31.72793579101562 81.92945861816406 37.03165054321289 83 42.5 83 C 47.96834945678711 83 53.27206420898438 81.92945861816406 58.26381301879883 79.81812286376953 C 63.08628845214844 77.77839660644531 67.417724609375 74.85792541503906 71.13782501220703 71.13782501220703 C 74.85792541503906 67.417724609375 77.77839660644531 63.08628845214844 79.81812286376953 58.26381301879883 C 81.92945861816406 53.27206420898438 83 47.96834945678711 83 42.5 C 83 37.03165054321289 81.92945861816406 31.72793579101562 79.81812286376953 26.73618698120117 C 77.77839660644531 21.91371154785156 74.85792541503906 17.582275390625 71.13782501220703 13.86217498779297 C 67.417724609375 10.14207458496094 63.08628845214844 7.221603393554688 58.26381301879883 5.181877136230469 C 53.27206420898438 3.070533752441406 47.96834945678711 2 42.5 2 M 42.5 0 C 65.97209930419922 0 85 19.02790069580078 85 42.5 C 85 65.97209930419922 65.97209930419922 85 42.5 85 C 19.02788543701172 85 0 65.97209930419922 0 42.5 C 0 19.02790069580078 19.02788543701172 0 42.5 0 Z" stroke="none" fill="#decdbb"/>
  </g>
</svg>
