<svg xmlns="http://www.w3.org/2000/svg" width="72.474" height="60.1" viewBox="0 0 72.474 60.1">
  <g id="Group_6163" data-name="Group 6163" transform="translate(0 -43.698)">
    <path id="Path_826" data-name="Path 826" d="M0,96.4V51.1a18.648,18.648,0,0,1,1.109-3.017A8.4,8.4,0,0,1,8.953,43.7q27.284.024,54.567.008c.259,0,.519.006.778.015a8.5,8.5,0,0,1,7.852,6.168c.113.4.216.806.323,1.209V96.4a18.642,18.642,0,0,1-1.109,3.017A8.4,8.4,0,0,1,63.52,103.8q-27.284-.024-54.567-.008c-.259,0-.519-.006-.778-.015A8.5,8.5,0,0,1,.323,97.606C.211,97.2.108,96.8,0,96.4ZM70.209,57.114H2.291c-.011.193-.025.333-.025.473q0,18.754.008,37.509A6.671,6.671,0,0,0,2.5,96.842a6.131,6.131,0,0,0,6.212,4.677c2.713.026,5.425.006,8.138.006q23.283,0,46.565,0a6.907,6.907,0,0,0,3.231-.616,6.262,6.262,0,0,0,3.567-6.027V57.114ZM2.276,54.743h67.91a26.341,26.341,0,0,0-.024-2.87,7.24,7.24,0,0,0-.617-2.369,6.211,6.211,0,0,0-6.1-3.541q-27.21.022-54.419.009a10.345,10.345,0,0,0-1.131.043,6.118,6.118,0,0,0-4.758,3.037C2.058,50.813,2.274,52.764,2.276,54.743Z" fill="#a59583"/>
    <path id="Path_827" data-name="Path 827" d="M101.251,246.035H78.82c-2.067,0-2.941-.863-2.941-2.907q0-6.616,0-13.233a2.459,2.459,0,0,1,2.771-2.8q22.608,0,45.216,0a2.5,2.5,0,0,1,2.821,2.838q.006,6.652,0,13.3a2.488,2.488,0,0,1-2.792,2.792Q112.573,246.039,101.251,246.035Zm-23.072-2.262h.78q22.317,0,44.633.012c.625,0,.852-.128.847-.81q-.049-6.4,0-12.8c0-.673-.208-.818-.842-.817q-22.317.024-44.633.014c-.251,0-.5.022-.784.035Z" transform="translate(-65.137 -157.44)" fill="#a59583"/>
    <path id="Path_828" data-name="Path 828" d="M202.188,75.616c-3.96,0-7.921.006-11.881,0a3.006,3.006,0,0,1-.534-5.988c.328-.031.659-.035.988-.035q11.422,0,22.843,0a5.982,5.982,0,0,1,1.471.126,2.948,2.948,0,0,1,2.181,3.147,2.9,2.9,0,0,1-2.835,2.725c-4.078.036-8.156.012-12.234.012Zm.012-3.756H190.677c-.973,0-1.352.213-1.35.75s.378.744,1.354.745h22.977c.212,0,.477.07.624-.029.276-.186.668-.474.667-.718s-.391-.539-.672-.713c-.172-.107-.459-.034-.695-.034Z" transform="translate(-160.581 -22.225)" fill="#a59583"/>
    <path id="Path_829" data-name="Path 829" d="M431.877,71.179l.843-.735,2.528,2.9-2.531,2.9-.839-.74,1.394-1.642h-3.622V72.731H433.2Z" transform="translate(-368.832 -22.96)" fill="#a59583"/>
    <path id="Path_830" data-name="Path 830" d="M87,79.468a1.865,1.865,0,0,1-1.876,1.892A1.881,1.881,0,1,1,87,79.468Z" transform="translate(-71.431 -29.101)" fill="#a59583"/>
    <path id="Path_831" data-name="Path 831" d="M46.878,81.357a1.881,1.881,0,0,1,.037-3.762,1.882,1.882,0,1,1-.037,3.762Z" transform="translate(-38.647 -29.099)" fill="#a59583"/>
    <path id="Path_832" data-name="Path 832" d="M123.445,81.372a1.88,1.88,0,1,1,1.9-1.853A1.859,1.859,0,0,1,123.445,81.372Z" transform="translate(-104.375 -29.114)" fill="#a59583"/>
    <path id="Path_833" data-name="Path 833" d="M285.66,276.005a8.7,8.7,0,0,1-1.353-.021.923.923,0,0,1-.536-.455c-.75-1.361-1.471-2.738-2.2-4.109-.061-.115-.126-.229-.287-.522v5.069h-1.437v-7.1a15.362,15.362,0,0,1,1.6.02.816.816,0,0,1,.485.416c.736,1.341,1.448,2.7,2.167,4.046.053.1.111.194.2.349v-4.789h1.364Z" transform="translate(-240.234 -193.288)" fill="#a59583"/>
    <path id="Path_834" data-name="Path 834" d="M157.6,271.4c-.056,3.222-2.839,4.92-5.254,3.481a3.971,3.971,0,0,1-1.156-5.093,3.433,3.433,0,0,1,4.483-1.515A3.262,3.262,0,0,1,157.6,271.4Zm-5.191.123c.082.518.11.848.19,1.166a1.624,1.624,0,0,0,1.571,1.364,1.586,1.586,0,0,0,1.557-1.286,3.541,3.541,0,0,0-.182-2.611,1.3,1.3,0,0,0-1.326-.866,2.2,2.2,0,0,0-1.315.758A4.625,4.625,0,0,0,152.405,271.527Z" transform="translate(-129.396 -192.518)" fill="#a59583"/>
    <path id="Path_835" data-name="Path 835" d="M211.046,271.582c0,1.167.01,2.273-.012,3.378a.53.53,0,0,1-.27.408,5.933,5.933,0,0,1-4.017-.014c-1.452-.59-2.122-1.92-1.941-3.775a3.456,3.456,0,0,1,2.9-3.049,5.555,5.555,0,0,1,3.094.229l-.3,1.187c-.62-.067-1.194-.17-1.77-.181a1.981,1.981,0,0,0-2.051,1.216,2.49,2.49,0,0,0,.354,2.725,2.3,2.3,0,0,0,2.423.591v-1.458l-1.034-.1v-1.157Z" transform="translate(-175.791 -192.904)" fill="#a59583"/>
    <path id="Path_836" data-name="Path 836" d="M344.167,302.1a3.651,3.651,0,1,1,7.3,0Z" transform="translate(-295.445 -218.65)" fill="#a59583"/>
    <path id="Path_837" data-name="Path 837" d="M358.947,265.435a2.161,2.161,0,0,1-4.322-.01,2.162,2.162,0,1,1,4.322.01Z" transform="translate(-304.428 -188.455)" fill="#a59583"/>
    <path id="Path_838" data-name="Path 838" d="M119.538,274.965h2.795v1.3h-4.341v-7.056h1.547Z" transform="translate(-101.289 -193.587)" fill="#a59583"/>
    <path id="Path_839" data-name="Path 839" d="M258.443,268.869c.357,0,.662,0,.967,0,.163,0,.326.013.551.023v7.061h-1.518Z" transform="translate(-221.86 -193.298)" fill="#a59583"/>
  </g>
</svg>
