<svg xmlns="http://www.w3.org/2000/svg" width="73" height="65.123" viewBox="0 0 73 65.123">
  <path id="_001-shopping-cart" data-name="001-shopping-cart" d="M21.1,77.753a2.4,2.4,0,0,1,0-4.8c8.864.031,32.243.008,41.388.015a5.317,5.317,0,0,0,5.2-4.139l5.193-22.488a4.322,4.322,0,0,0-4.194-5.294c-3.679,0-34.91-.141-50.906-.205l-2.536-9.408a5.179,5.179,0,0,0-4.99-3.819H2.14a2.14,2.14,0,1,0,0,4.28h8.123a.891.891,0,0,1,.858.655l9.738,36.131a6.679,6.679,0,0,0-6.438,6.792A6.714,6.714,0,0,0,21.1,82.032h3.12a7.49,7.49,0,1,0,13.531,0H51.265a7.49,7.49,0,1,0,13.476-.113,2.139,2.139,0,0,0-.682-4.166Zm13.1,7.489a3.21,3.21,0,1,1-3.213-3.21h.005A3.214,3.214,0,0,1,34.2,85.242Zm23.833,3.209a3.21,3.21,0,0,1-.052-6.419h.1a3.21,3.21,0,0,1-.052,6.419ZM68.71,45.336a.034.034,0,0,1,.008.036L66.53,54.848H59.12l1.262-9.561,8.3.033A.034.034,0,0,1,68.71,45.336ZM46.649,68.683V59.128h7.589l-1.261,9.556Zm-10.611,0-1.271-9.556h7.6v9.556Zm-9.851,0h-.007a1.159,1.159,0,0,1-1.117-.853l-2.346-8.7h7.731l1.271,9.556ZM34.2,54.848,32.91,45.176l9.459.038v9.634Zm12.452,0V45.232l9.418.038L54.8,54.848ZM28.591,45.159l1.289,9.689H21.565L18.943,45.12Zm33.9,23.524h-5.2l1.261-9.556h6.986l-2.017,8.733A1.057,1.057,0,0,1,62.49,68.683Z" transform="translate(0 -27.609)" fill="#a59583"/>
</svg>
