<svg xmlns="http://www.w3.org/2000/svg" width="45.321" height="45.335" viewBox="0 0 45.321 45.335">
  <path id="Path_973" data-name="Path 973" d="M313.29,404.76a22.661,22.661,0,0,0-33.545,30.394,8.507,8.507,0,0,1-3.569,4.129,2.114,2.114,0,0,0,.607,3.987,10.7,10.7,0,0,0,1.6.123,14.665,14.665,0,0,0,8.144-2.639A22.668,22.668,0,0,0,313.29,404.76ZM287.775,413.3h18.984a1.281,1.281,0,0,1,0,2.563H287.775a1.281,1.281,0,1,1,0-2.563Zm-1.282,7.479a1.282,1.282,0,0,1,1.282-1.281h18.984a1.281,1.281,0,0,1,0,2.563H287.775A1.282,1.282,0,0,1,286.493,420.782Zm20.267,7.481-8.772.038a1.281,1.281,0,1,1,0-2.563l8.772-.038a1.281,1.281,0,0,1,0,2.563Z" transform="translate(-274.609 -398.126)" fill="#fff"/>
</svg>
