<svg id="Group_343" data-name="Group 343" xmlns="http://www.w3.org/2000/svg" width="101.268" height="86.999" viewBox="0 0 101.268 86.999">
  <g id="choices" transform="translate(0 0)">
    <path id="Path_830" data-name="Path 830" d="M96.614,195.558H93.442a1.483,1.483,0,1,0,0,2.967h3.172a1.688,1.688,0,0,1,0,3.376H24.979a7.774,7.774,0,0,0,0-3.376H87.1a1.483,1.483,0,1,0,0-2.967H23.625a7.817,7.817,0,0,0-12.573,0h-6.4a4.655,4.655,0,0,0,0,9.309h6.4a7.817,7.817,0,0,0,12.573,0H96.614a4.655,4.655,0,0,0,0-9.309ZM4.654,201.9a1.688,1.688,0,0,1,0-3.376H9.7a7.806,7.806,0,0,0,0,3.376Zm12.684,3.171a4.859,4.859,0,1,1,4.859-4.858A4.864,4.864,0,0,1,17.338,205.071Zm0,0" transform="translate(0 -154.335)" fill="#decdbb"/>
    <path id="Path_831" data-name="Path 831" d="M96.614,99.363H77.532a7.816,7.816,0,0,0-12.573,0H4.654a4.654,4.654,0,0,0,0,9.308h60.3a7.817,7.817,0,0,0,12.573,0H96.614a4.654,4.654,0,1,0,0-9.308ZM4.654,105.7a1.687,1.687,0,1,1,0-3.375H63.605a7.77,7.77,0,0,0,0,3.375Zm66.592,3.171a4.858,4.858,0,1,1,4.858-4.858A4.864,4.864,0,0,1,71.246,108.875ZM96.614,105.7H78.886a7.8,7.8,0,0,0,0-3.375H96.614a1.687,1.687,0,1,1,0,3.375Zm0,0" transform="translate(0 -77.166)" fill="#decdbb"/>
    <path id="Path_832" data-name="Path 832" d="M4.654,12.48H26.907a7.817,7.817,0,0,0,12.573,0H96.614a4.655,4.655,0,0,0,0-9.309H39.48a7.817,7.817,0,0,0-12.573,0H23.681a1.483,1.483,0,1,0,0,2.967h1.873a7.774,7.774,0,0,0,0,3.376H4.654a1.688,1.688,0,0,1,0-3.376H17.338a1.483,1.483,0,1,0,0-2.967H4.654a4.655,4.655,0,0,0,0,9.309ZM96.614,6.138a1.688,1.688,0,0,1,0,3.376H40.833a7.774,7.774,0,0,0,0-3.376ZM33.194,2.967a4.859,4.859,0,1,1-4.859,4.858A4.864,4.864,0,0,1,33.194,2.967Zm0,0" fill="#decdbb"/>
    <path id="Path_833" data-name="Path 833" d="M204.969,312.629a12.582,12.582,0,1,0,12.582,12.582A12.6,12.6,0,0,0,204.969,312.629Zm0,22.2a9.615,9.615,0,1,1,9.615-9.615A9.626,9.626,0,0,1,204.969,334.826Zm0,0" transform="translate(-154.335 -250.794)" fill="#decdbb"/>
    <path id="Path_834" data-name="Path 834" d="M36.629,312.629a12.582,12.582,0,1,0,12.582,12.582A12.6,12.6,0,0,0,36.629,312.629Zm0,22.2a9.615,9.615,0,1,1,9.615-9.615A9.626,9.626,0,0,1,36.629,334.826Zm0,0" transform="translate(-19.291 -250.794)" fill="#decdbb"/>
    <path id="Path_835" data-name="Path 835" d="M373.309,312.629a12.582,12.582,0,1,0,12.582,12.582A12.6,12.6,0,0,0,373.309,312.629Zm0,22.2a9.615,9.615,0,1,1,9.615-9.615A9.626,9.626,0,0,1,373.309,334.826Zm0,0" transform="translate(-289.379 -250.794)" fill="#decdbb"/>
    <path id="Path_836" data-name="Path 836" d="M235.449,349.448a1.483,1.483,0,0,0-1.483,1.483,3.273,3.273,0,1,1-3.273-3.274,1.483,1.483,0,0,0,0-2.967,6.24,6.24,0,1,0,6.24,6.24A1.483,1.483,0,0,0,235.449,349.448Zm0,0" transform="translate(-180.059 -276.515)" fill="#decdbb"/>
    <path id="Path_837" data-name="Path 837" d="M403.786,349.448a1.483,1.483,0,0,0-1.483,1.483,3.273,3.273,0,1,1-3.273-3.274,1.483,1.483,0,1,0,0-2.967,6.24,6.24,0,1,0,6.24,6.24A1.483,1.483,0,0,0,403.786,349.448Zm0,0" transform="translate(-315.1 -276.515)" fill="#decdbb"/>
    <path id="Path_838" data-name="Path 838" d="M67.11,349.448a1.483,1.483,0,0,0-1.483,1.483,3.273,3.273,0,1,1-3.274-3.274,1.483,1.483,0,0,0,0-2.967,6.24,6.24,0,1,0,6.24,6.24A1.483,1.483,0,0,0,67.11,349.448Zm0,0" transform="translate(-45.015 -276.515)" fill="#decdbb"/>
  </g>
</svg>
