<svg xmlns="http://www.w3.org/2000/svg" width="101.868" height="100.589" viewBox="0 0 101.868 100.589">
  <g id="Group_346" data-name="Group 346" transform="translate(-3435 -1559)">
    <g id="diet" transform="translate(3435 1559)">
      <path id="Path_840" data-name="Path 840" d="M191.829,36.014a1.668,1.668,0,1,0-1.668-1.668A1.668,1.668,0,0,0,191.829,36.014Z" transform="translate(-152.326 -26.817)" fill="#decdbb"/>
      <path id="Path_841" data-name="Path 841" d="M142.347,79.88h19.97a1.492,1.492,0,1,0,0-2.985h-19.97a1.492,1.492,0,0,0,0,2.985Z" transform="translate(-112.83 -62.236)" fill="#decdbb"/>
      <path id="Path_842" data-name="Path 842" d="M290.2,367.466v2.859a1.492,1.492,0,1,0,2.985,0v-2.859a1.492,1.492,0,1,0-2.985,0Z" transform="translate(-232.465 -293.799)" fill="#decdbb"/>
      <path id="Path_843" data-name="Path 843" d="M439.787,367.466v2.859a1.492,1.492,0,1,0,2.985,0v-2.859a1.492,1.492,0,1,0-2.985,0Z" transform="translate(-352.287 -293.799)" fill="#decdbb"/>
      <path id="Path_844" data-name="Path 844" d="M353.49,380.429a3.708,3.708,0,0,1-5.6,0,1.492,1.492,0,0,0-2.25,1.961,6.694,6.694,0,0,0,10.1,0,1.492,1.492,0,1,0-2.25-1.961Z" transform="translate(-276.58 -304.968)" fill="#decdbb"/>
      <path id="Path_845" data-name="Path 845" d="M108.09,186.158l8.373-4.294a1.492,1.492,0,1,0-1.362-2.656l-6.2,3.179v-1.851a1.492,1.492,0,0,0-2.985,0v4.294A1.5,1.5,0,0,0,108.09,186.158Z" transform="translate(-84.843 -144.06)" fill="#decdbb"/>
      <path id="Path_846" data-name="Path 846" d="M188.753,192.822h13.177a1.492,1.492,0,0,0,0-2.985H188.753a1.492,1.492,0,1,0,0,2.985Z" transform="translate(-150.003 -152.707)" fill="#decdbb"/>
      <path id="Path_847" data-name="Path 847" d="M108.09,254.755l8.373-4.294A1.493,1.493,0,1,0,115.1,247.8l-6.2,3.18v-1.852a1.492,1.492,0,1,0-2.985,0v4.294A1.494,1.494,0,0,0,108.09,254.755Z" transform="translate(-84.843 -199.009)" fill="#decdbb"/>
      <path id="Path_848" data-name="Path 848" d="M188.753,261.419h13.177a1.492,1.492,0,1,0,0-2.985H188.753a1.492,1.492,0,1,0,0,2.985Z" transform="translate(-150.003 -207.655)" fill="#decdbb"/>
      <path id="Path_849" data-name="Path 849" d="M107.409,323.515c.645,0,.2.016,9.054-4.459A1.492,1.492,0,1,0,115.1,316.4l-6.2,3.179v-1.852a1.492,1.492,0,0,0-2.985,0v4.294a1.493,1.493,0,0,0,1.493,1.492Z" transform="translate(-84.843 -253.957)" fill="#decdbb"/>
      <path id="Path_850" data-name="Path 850" d="M13.6,101.514H59.389a15.209,15.209,0,0,0,14.723.732,15.272,15.272,0,0,0,16.129-1.7,31.505,31.505,0,0,0,7.048-7.538A1.492,1.492,0,1,0,94.8,91.365a28.522,28.522,0,0,1-6.385,6.822,12.262,12.262,0,0,1-13.382,1.17,1.909,1.909,0,0,0-1.835,0l-.171.092c-6.535,3.457-12.412-.684-12.388-.676a17.171,17.171,0,0,1-1.663-1.26C40.332,81.992,50.6,52.96,73.532,62.646c.855.361,1.085-.1,3.577-.894,16.544-5.258,25.622,10.405,20.247,24.621a1.492,1.492,0,1,0,2.792,1.055c4.485-11.861-.025-25.208-10.883-28.787a12.319,12.319,0,0,0,.2-10.343,1.492,1.492,0,0,0-.715-.715A12.092,12.092,0,0,0,79,47.514V27.227a13.612,13.612,0,0,0-13.6-13.6H61.439a6.418,6.418,0,0,0-5.974-4.093H47.5a8.218,8.218,0,0,0-15.992,0H23.54a6.417,6.417,0,0,0-5.974,4.093H13.6A13.611,13.611,0,0,0,0,27.227V87.917a13.612,13.612,0,0,0,13.6,13.6Zm61.5-42.23c-.208.075-.666.247-.984.374a23.461,23.461,0,0,0-12.181-1.744,9.588,9.588,0,0,1-.685-7.844c5.921-2.283,13.086,2.732,13.85,9.214Zm11.882-9.214a9.581,9.581,0,0,1-.688,7.858,21.4,21.4,0,0,0-8.3.477,14.041,14.041,0,0,0-2-5.208C79.141,49.771,83.645,48.783,86.978,50.069ZM76.02,27.227V49.182a15.437,15.437,0,0,0-1.908,1.65,14.6,14.6,0,0,0-5-3.36V28.1a4.457,4.457,0,0,0-4.452-4.452H61.778a6.415,6.415,0,0,0,.1-1.1V16.615h3.535A10.623,10.623,0,0,1,76.02,27.227Zm-52.481-14.7h9.251a1.492,1.492,0,0,0,1.49-1.4,5.231,5.231,0,0,1,10.443,0,1.492,1.492,0,0,0,1.49,1.4h9.251a3.432,3.432,0,0,1,3.424,3.424c-.023,6.848.211,7.347-.6,8.533a3.461,3.461,0,0,1-2.827,1.5c-33.935-.007-32.085.039-32.613-.069a3.432,3.432,0,0,1-2.736-3.354c.007-7.191-.021-6.649.034-7.059a3.426,3.426,0,0,1,3.39-2.97ZM2.985,27.227A10.623,10.623,0,0,1,13.6,16.615h3.535v5.936a6.414,6.414,0,0,0,.1,1.1H14.342A4.457,4.457,0,0,0,9.89,28.1V46.028a1.492,1.492,0,1,0,2.985,0V28.1a1.469,1.469,0,0,1,1.467-1.468H18.6a6.382,6.382,0,0,0,4.941,2.326c34.569,0,32.352.089,33.533-.2a6.353,6.353,0,0,0,3.333-2.122h4.256A1.469,1.469,0,0,1,66.129,28.1V46.66a11.654,11.654,0,0,0-6.248.742,1.8,1.8,0,0,0-1.122.9,12.312,12.312,0,0,0,.194,10.333,17.718,17.718,0,0,0-10.21,9.011H38.75a1.492,1.492,0,0,0,0,2.985h8.761c-.025.074-.165.519-.234.755h0a25.666,25.666,0,0,0,1.23,17.129H14.342a1.469,1.469,0,0,1-1.467-1.468V52A1.492,1.492,0,0,0,9.89,52V87.043A4.457,4.457,0,0,0,14.342,91.5H49.995a30.2,30.2,0,0,0,5.618,7.033H13.6A10.623,10.623,0,0,1,2.985,87.917Z" transform="translate(0 -3.215)" fill="#decdbb"/>
    </g>
  </g>
</svg>
