<?xml version="1.0" encoding="utf-8"?>
<!-- Generator: Adobe Illustrator 24.1.0, SVG Export Plug-In . SVG Version: 6.00 Build 0)  -->
<svg version="1.1" id="圖層_1" xmlns="http://www.w3.org/2000/svg" xmlns:xlink="http://www.w3.org/1999/xlink" x="0px" y="0px"
	 viewBox="0 0 29 100" style="enable-background:new 0 0 29 100;" xml:space="preserve">
<style type="text/css">
	.st0{enable-background:new    ;}
	.st1{fill:#EDE5E1;}
</style>
<g class="st0">
	<path class="st1" d="M20.8,1.8v4.1c0,4.5-2.3,7.3-7.3,7.3C8.5,13.2,6,10.4,6,6V1.8H20.8z M8.4,5.7c0,2.8,1.5,4.5,5.1,4.5
		c3.6,0,5-1.7,5-4.5V4.8H8.4V5.7z"/>
	<path class="st1" d="M11.6,15.2c3.7,0,5.9,2.6,5.9,5.4c0,2.8-2.2,5.4-5.9,5.4c-3.7,0-5.9-2.6-5.9-5.4C5.7,17.7,7.9,15.2,11.6,15.2z
		 M11.6,22.9c2.1,0,3.5-0.9,3.5-2.4c0-1.5-1.4-2.4-3.5-2.4c-2.1,0-3.5,0.9-3.5,2.4C8.1,22.1,9.5,22.9,11.6,22.9z"/>
	<path class="st1" d="M17.2,27.2v2.9l-5.5,1.2c-1.1,0.2-2.2,0.4-3.3,0.6V32c1.1,0.2,2.2,0.4,3.3,0.7l5.5,1.3v2.6L11.7,38
		c-1.1,0.3-2.2,0.5-3.3,0.7v0.1c1.1,0.2,2.2,0.3,3.3,0.6l5.5,1.2v2.7L6,40.6v-3.5l4.9-1.2c1.1-0.2,2.1-0.4,3.3-0.6v-0.1
		c-1.2-0.2-2.2-0.4-3.3-0.6L6,33.4v-3.4L17.2,27.2z"/>
	<path class="st1" d="M17.2,45.5v2.4l-1.5,0.2v0.1c1,1,1.8,2.1,1.8,3.6c0,2.4-1.7,3.5-4.5,3.5H6v-2.9h6.6c1.7,0,2.3-0.5,2.3-1.6
		c0-0.9-0.4-1.5-1.3-2.3H6v-2.9H17.2z"/>
	<path class="st1" d="M9.1,58.3H22v2.9H9c-0.7,0-0.9,0.3-0.9,0.6c0,0.1,0,0.2,0,0.4L6,62.6c-0.1-0.3-0.3-0.8-0.3-1.5
		C5.7,59,7.1,58.3,9.1,58.3z"/>
	<path class="st1" d="M11.6,63.9c3.7,0,5.9,2.6,5.9,5.4c0,2.8-2.2,5.4-5.9,5.4c-3.7,0-5.9-2.6-5.9-5.4C5.7,66.5,7.9,63.9,11.6,63.9z
		 M11.6,71.7c2.1,0,3.5-0.9,3.5-2.4c0-1.5-1.4-2.4-3.5-2.4c-2.1,0-3.5,0.9-3.5,2.4C8.1,70.8,9.5,71.7,11.6,71.7z"/>
	<path class="st1" d="M9,76.3c2.4,0,3.7,1.9,4.1,6.4c1.1,0,1.9-0.5,1.9-1.9c0-1-0.5-2-1.1-3.1l1.9-1.1c0.8,1.3,1.5,2.9,1.5,4.7
		c0,2.8-1.7,4.3-4.9,4.3H6v-2.4L7.2,83V83c-0.8-1-1.5-2.1-1.5-3.4C5.7,77.6,7.1,76.3,9,76.3z M9.1,82.7h2.3
		c-0.4-2.7-1.1-3.6-2.1-3.6c-0.9,0-1.3,0.6-1.3,1.5C8,81.4,8.4,82,9.1,82.7z"/>
	<path class="st1" d="M11.6,88c3.7,0,5.9,2.3,5.9,4.7c0,1.3-0.5,2-1.2,2.8l1.8-0.1H22v2.9H6V96l1.2-0.2v-0.1
		c-0.8-0.8-1.4-1.9-1.4-3.1C5.7,89.8,7.9,88,11.6,88z M9.3,95.4h4.9c0.6-0.7,0.8-1.4,0.8-2.1c0-1.3-1.2-2.3-3.4-2.3
		c-2.3,0-3.5,0.8-3.5,2.3C8.1,94.1,8.5,94.8,9.3,95.4z"/>
</g>
</svg>
