<svg id="agriculture" xmlns="http://www.w3.org/2000/svg" width="100" height="86.656" viewBox="0 0 100 86.656">
  <path id="Path_828" data-name="Path 828" d="M99.428,84.022,86.886,72.233a10.249,10.249,0,0,0-5.2-2.6V45.853q.615.048,1.225.048a15.185,15.185,0,0,0,10.419-4.071A13.289,13.289,0,0,0,97.295,28.94a1.9,1.9,0,0,0-1.476-1.387,15.346,15.346,0,0,0-13.713,3.725c-.143.134-.282.272-.418.41V22.079a11.14,11.14,0,0,0,4.76-9.065,11.231,11.231,0,0,0-5.669-9.66,2.06,2.06,0,0,0-2.087,0,11.231,11.231,0,0,0-5.669,9.66,11.14,11.14,0,0,0,4.76,9.065v2.41A13.687,13.687,0,0,0,65.6,21.211,1.9,1.9,0,0,0,64.124,22.6a11.854,11.854,0,0,0,3.533,11.5,13.542,13.542,0,0,0,9.293,3.63c.277,0,.554-.011.832-.027v7.374q-.381-.414-.8-.807A16.677,16.677,0,0,0,62.24,40.184a6.153,6.153,0,0,0-6.191-5.044H43.5L37.65,27.584a10.85,10.85,0,0,0-3.017-2.659,8.9,8.9,0,0,0,5.81-8.186V12.35h3.011a1.9,1.9,0,0,0,1.953-1.836,1.9,1.9,0,0,0-1.953-1.836H40.979V5.737A5.418,5.418,0,0,0,35.407.5H26.173A5.418,5.418,0,0,0,20.6,5.737V8.679H18.127a1.9,1.9,0,0,0-1.953,1.836,1.9,1.9,0,0,0,1.953,1.836h3.448v4.389a8.686,8.686,0,0,0,3.69,7.027A10.581,10.581,0,0,0,17.5,33.744v19.99a11.512,11.512,0,0,0,6.2,10.06v11.8H6.152a5.794,5.794,0,1,0,0,11.566H8.667a1.839,1.839,0,1,0,0-3.672H6.152a2.115,2.115,0,1,1,0-4.223h19.5a1.9,1.9,0,0,0,1.953-1.836V65.149a13.1,13.1,0,0,0,2.248.2h3.869V77.22a6.481,6.481,0,0,1-6.664,6.264H24.292a1.839,1.839,0,1,0,0,3.672H27.06c5.829,0,10.571-4.457,10.571-9.936V65.345h7.143V81.373a6.164,6.164,0,0,0,12.3,0V61.453c0-5.479-4.741-9.936-10.57-9.936H37.1v-4.7a2.07,2.07,0,0,0,.6.088H56.049a6.461,6.461,0,0,0,4.157-1.491,14.606,14.606,0,0,0,4.7,10.207,16.508,16.508,0,0,0,11.328,4.426q.771,0,1.546-.071V69.64a10.242,10.242,0,0,0-5.167,2.593L60.13,83.968a1.758,1.758,0,0,0,0,2.6,2.042,2.042,0,0,0,2.762,0L75.376,74.83a6.475,6.475,0,0,1,8.748,0L96.666,86.618a2.042,2.042,0,0,0,2.762,0A1.758,1.758,0,0,0,99.428,84.022Zm-21.677-50A9.574,9.574,0,0,1,70.42,31.5a8.377,8.377,0,0,1-2.682-6.891,9.572,9.572,0,0,1,7.33,2.522A8.38,8.38,0,0,1,77.75,34.019Zm7.117-.146a11.229,11.229,0,0,1,8.826-2.936,9.814,9.814,0,0,1-3.123,8.3,11.227,11.227,0,0,1-8.826,2.936c-.035-.311-.051-.622-.056-.932v-.357A9.872,9.872,0,0,1,84.868,33.874ZM79.735,7.19a7.448,7.448,0,0,1,0,11.65,7.448,7.448,0,0,1,0-11.65Zm-43.2,9.55a5.537,5.537,0,0,1-11.053,0V12.35H36.536Zm-12.028-11a1.619,1.619,0,0,1,1.665-1.566h9.234a1.619,1.619,0,0,1,1.665,1.566V8.679H24.508Zm22,49.451a6.481,6.481,0,0,1,6.664,6.264v19.92a2.25,2.25,0,0,1-4.492,0V63.509a1.9,1.9,0,0,0-1.953-1.836H29.855a8.334,8.334,0,0,1-8.3-6.485Zm9.54-11.959H38.573l-3.794-4.01a2.042,2.042,0,0,0-2.758-.152,1.761,1.761,0,0,0-.161,2.593l1.334,1.409v8.447H21.41V33.744a7.034,7.034,0,0,1,7.233-6.8,7.412,7.412,0,0,1,5.849,2.8l6.433,8.311a1.994,1.994,0,0,0,1.579.756H56.049a2.213,2.213,0,1,1,0,4.418ZM77.7,56.29a12.572,12.572,0,0,1-10.03-3.267,10.973,10.973,0,0,1-3.477-9.429,12.568,12.568,0,0,1,10.03,3.268,11.034,11.034,0,0,1,3.558,7.971v.26A10.9,10.9,0,0,1,77.7,56.29Zm0,0" transform="translate(0 -0.5)" fill="#decdbb"/>
  <path id="Path_829" data-name="Path 829" d="M76.213,452.5a1.836,1.836,0,1,0,1.3.538A1.853,1.853,0,0,0,76.213,452.5Zm0,0" transform="translate(-60.723 -369.516)" fill="#decdbb"/>
</svg>
