<?xml version="1.0" encoding="utf-8"?>
<!-- Generator: Adobe Illustrator 24.1.0, SVG Export Plug-In . SVG Version: 6.00 Build 0)  -->
<svg version="1.1" id="圖層_1" xmlns="http://www.w3.org/2000/svg" xmlns:xlink="http://www.w3.org/1999/xlink" x="0px" y="0px"
	 viewBox="0 0 337 98" style="enable-background:new 0 0 337 98;" xml:space="preserve">
<style type="text/css">
	.st0{enable-background:new    ;}
	.st1{fill:#66AB8C;}
</style>
<g class="st0">
	<path class="st1" d="M9.7,12.1c-0.5,0.2-1.1,0.5-1.8,0.9c-0.7,0.4-1.2,0.8-1.6,1.1c-0.5,0.4-0.9,0.9-1.2,1.4
		c-0.4,0.5-0.7,1.1-0.9,1.8h1c1,0,1.7,0.2,2.2,0.6c0.5,0.4,0.7,0.9,0.7,1.6c0,0.9-0.4,1.7-1.1,2.4c-0.7,0.7-1.6,1.1-2.6,1.1
		c-1.1,0-1.8-0.3-2.3-0.9c-0.5-0.6-0.7-1.3-0.7-2.2c0-1.8,0.8-3.5,2.3-5.1s3.4-2.9,5.5-3.8L9.7,12.1z M18.1,12.1
		c-0.5,0.2-1.1,0.5-1.8,0.9c-0.7,0.4-1.2,0.8-1.6,1.1c-0.5,0.4-0.9,0.9-1.2,1.4c-0.4,0.5-0.7,1.1-0.9,1.8h1c1,0,1.7,0.2,2.2,0.6
		c0.5,0.4,0.7,0.9,0.7,1.6c0,0.9-0.4,1.7-1.1,2.4c-0.7,0.7-1.6,1.1-2.6,1.1c-1.1,0-1.8-0.3-2.3-0.9c-0.5-0.6-0.7-1.3-0.7-2.2
		c0-1.8,0.8-3.5,2.3-5.1c1.5-1.6,3.4-2.9,5.5-3.8L18.1,12.1z"/>
</g>
<g class="st0">
	<path class="st1" d="M34.6,21.6l1-1.2c0.2-0.2,0.3-0.3,0.5-0.3c0.2,0,0.8,0.3,1.9,1c1.1,0.6,1.6,1.1,1.6,1.3c0,0.2-0.2,0.4-0.6,0.5
		c-0.4,0.1-0.7,0.3-0.9,0.7c-0.2,0.3-0.4,0.8-0.6,1.5c-0.9,3-2.3,5.6-4.1,7.7c-1.8,2.1-4.1,3.9-6.9,5.4l-0.4-0.5
		c2.8-2.3,4.8-4.5,6-6.6c1.3-2.1,2.3-4.9,3.1-8.5h-6.1c-0.6,0-1.1,0.1-1.5,0.2L27,21.5c0.5,0.1,1.1,0.2,1.8,0.2H34.6z M43.7,21.5
		v14.3c0,1-0.1,1.8-0.2,2.3c-0.1,0.5-0.4,0.9-0.7,1.2c-0.4,0.3-0.9,0.6-1.8,0.9c-0.8,0.3-1.3,0.5-1.6,0.5c-0.2,0-0.4-0.2-0.5-0.6
		c-0.2-0.9-0.6-1.6-1.1-2c-0.6-0.5-1.7-1-3.4-1.5l0.2-0.7c2.4,0.4,3.9,0.6,4.6,0.6c0.6,0,1-0.1,1.1-0.2c0.1-0.1,0.2-0.4,0.2-0.7
		V16.5h-6.8c-0.4,0-0.9,0.1-1.3,0.2l-0.9-1.4c0.6,0,1.1,0.1,1.8,0.1h6.6l0.9-1.5c0.1-0.3,0.3-0.4,0.5-0.4c0.2,0,0.9,0.3,2,0.9
		c1.2,0.6,1.7,1.1,1.7,1.3s-0.5,0.6-1.5,1V19c0.8,1.9,1.6,3.5,2.5,5c2-1.9,4-4.6,6-7.9c1.2,0.7,2,1.3,2.6,1.6s0.9,0.6,0.9,0.7
		c0.1,0.1,0.1,0.2,0.1,0.3c0,0.1-0.1,0.2-0.2,0.2C55.6,19,55.4,19,55,19s-0.6,0.1-0.8,0.2s-0.5,0.4-0.9,0.8c-1.6,1.5-3.8,3-6.6,4.7
		C49.5,29,53.6,32.1,59,34l-0.1,0.6c-1.1,0-1.9,0-2.4,0.2c-0.5,0.2-0.9,0.6-1.3,1.3c-0.1,0.2-0.3,0.3-0.4,0.3
		c-0.2,0-0.3-0.1-0.5-0.2c-0.2-0.1-1-0.8-2.6-2.2c-1.6-1.4-2.8-2.6-3.7-3.8c-0.9-1.2-1.7-2.4-2.3-3.9C44.9,25.1,44.3,23.4,43.7,21.5
		z M35.9,9c2.9,0.2,5,0.5,6.4,0.8c1.4,0.3,2.4,0.6,2.9,1.1s0.8,1.1,0.8,2c0,0.9-0.4,1.4-1.2,1.4c-0.4,0-0.9-0.3-1.5-0.9
		c-0.9-0.9-2-1.6-3.2-2.1c-1.2-0.5-2.6-1-4.3-1.4V9z"/>
	<path class="st1" d="M64.6,29.7c0.3,1,0.4,1.9,0.6,2.7c0.1,0.8,0.2,1.5,0.1,2c0,0.6-0.2,1.1-0.4,1.6c-0.2,0.5-0.5,0.9-0.9,1.4
		c-0.2,0.2-0.5,0.4-0.8,0.6c-0.3,0.1-0.6,0.2-0.8,0.3c-0.3,0-0.5,0-0.8-0.1c-0.2-0.1-0.4-0.2-0.5-0.4c-0.1-0.3-0.1-0.6-0.1-0.9
		c0.1-0.4,0.3-0.8,0.6-1.2c0.4-0.4,0.7-0.8,1-1.2c0.3-0.4,0.5-0.8,0.7-1.3c0.2-0.5,0.3-1,0.4-1.5c0.1-0.5,0.2-1.2,0.3-1.9H64.6z
		 M73.5,16.4c0.4,0.3,0.5,0.5,0.5,0.6c0,0.1-0.2,0.2-0.6,0.2c-0.3,0-0.5,0.2-0.7,0.3c-0.2,0.2-0.5,0.5-0.9,1.1
		c-0.8,1.1-1.8,2.2-2.9,3.4c-1.2,1.2-2.6,2.5-4.2,3.9l6-0.5c-0.2-0.3-0.4-0.7-0.6-1c-0.2-0.3-0.5-0.7-0.8-1.2l0.3-0.5
		c0.8,0.3,1.4,0.6,1.9,0.8c0.5,0.3,0.9,0.5,1.1,0.8c0.3,0.2,0.5,0.5,0.6,0.8c0.1,0.3,0.1,0.5,0.1,0.8c0,1.4-0.4,2.1-1.2,2.1
		c-0.2,0-0.4-0.1-0.5-0.2c-0.1-0.1-0.2-0.4-0.3-0.7c-0.1-0.4-0.2-0.7-0.2-0.9c-1.2,0.4-2.2,0.7-2.9,0.9c-0.8,0.2-1.4,0.4-1.9,0.6
		c-0.5,0.2-0.9,0.3-1.2,0.5c-0.3,0.1-0.6,0.3-0.8,0.5c-0.2,0.1-0.4,0.2-0.5,0.1s-0.2-0.2-0.3-0.4c-0.2-0.4-0.4-0.8-0.6-1.3
		c-0.2-0.5-0.4-1-0.5-1.4c0.2,0,0.4,0,0.6,0.1c0.2,0,0.4,0,0.5,0c0.4-0.5,0.9-1,1.4-1.7c0.5-0.7,1-1.3,1.5-2s1-1.3,1.4-1.9
		s0.8-1,1-1.4c-0.7,0.2-1.4,0.3-2,0.4c-0.6,0.1-1.1,0.3-1.5,0.4c-0.4,0.1-0.8,0.3-1.1,0.4c-0.3,0.1-0.6,0.3-0.9,0.5
		c-0.1,0.1-0.3,0.1-0.4,0.1s-0.2-0.1-0.3-0.4c-0.1-0.3-0.3-0.6-0.5-1c-0.2-0.4-0.3-0.9-0.5-1.4c0.7,0,1.3,0.1,1.9,0.1
		c0.9-1.6,1.7-3.2,2.4-4.8c0.8-1.6,1.5-3.1,2.1-4.6c0.6,0.3,1.1,0.6,1.6,0.8c0.5,0.3,0.9,0.5,1.3,0.8c0.4,0.3,0.6,0.5,0.6,0.7
		c0,0.1-0.3,0.2-0.8,0.2c-0.2,0-0.4,0.1-0.5,0.2c-0.2,0.2-0.5,0.5-0.9,1.1c-0.5,0.6-0.9,1.2-1.3,1.6c-0.4,0.5-0.8,0.9-1.1,1.3
		c-0.4,0.4-0.8,0.8-1.1,1.2c-0.4,0.4-0.8,0.9-1.3,1.3l4.8,0c0.3-0.5,0.6-1,0.9-1.5c0.3-0.5,0.6-1.1,0.9-1.6c0.6,0.4,1.1,0.7,1.4,0.9
		S73.2,16.1,73.5,16.4z M70,34.1c0,0.8-0.2,1.4-0.6,2c-0.4,0.5-0.8,0.8-1.2,0.8c-0.3,0-0.4-0.1-0.6-0.2c-0.1-0.2-0.2-0.5-0.1-1
		c0.1-1.6,0.1-2.8,0.1-3.8c-0.1-1-0.2-1.9-0.4-2.6l0.5-0.2c0.5,0.8,0.9,1.4,1.2,2c0.3,0.5,0.5,1,0.7,1.4c0.2,0.4,0.3,0.7,0.4,1
		C69.9,33.6,70,33.9,70,34.1z M73.8,32.9c0,0.7-0.1,1.3-0.4,1.8c-0.2,0.4-0.6,0.7-0.9,0.7c-0.5,0-0.8-0.4-0.9-1
		c-0.1-0.7-0.2-1.2-0.3-1.7s-0.2-1-0.3-1.4s-0.3-0.8-0.4-1.2c-0.2-0.4-0.4-0.8-0.6-1.3l0.4-0.4c0.7,0.6,1.2,1.1,1.6,1.6
		c0.4,0.5,0.8,0.9,1,1.2c0.3,0.4,0.5,0.7,0.6,1S73.8,32.6,73.8,32.9z M82.6,35.8c0.3,0.2,0.3,0.4,0.3,0.5c-0.1,0.1-0.3,0.1-0.6,0.1
		c-0.2,0-0.4,0-0.7,0c-0.3,0-0.5,0.1-0.7,0.2c-1.1,0.5-2,0.9-2.8,1.3c-0.8,0.4-1.6,0.7-2.4,1c-0.8,0.3-1.5,0.6-2.3,0.9
		c-0.8,0.3-1.6,0.5-2.6,0.8l-0.2-0.6c1.2-0.7,2.3-1.2,3.2-1.7c0.9-0.5,1.7-1,2.5-1.4c0.7-0.5,1.4-0.9,2.1-1.4c0.7-0.5,1.3-1,2-1.6
		c0.6,0.4,1.1,0.8,1.4,1.1C82,35.2,82.3,35.5,82.6,35.8z M93.4,11.8c0.5,0.6,0.4,0.9-0.3,0.9h-8.8v1.9h3.2l1.1-1.3
		c0.2-0.2,0.3-0.3,0.5-0.3c0.2,0,0.4,0.1,0.8,0.4c0.2,0.2,0.5,0.4,0.8,0.7c0.3,0.3,0.5,0.5,0.8,0.8c0.5,0.6,0.4,0.9-0.3,0.9H76.5
		c-0.4,0-0.7,0.1-0.9,0.2l-0.4-1.5c0.2,0.1,0.4,0.1,0.5,0.1c0.2,0,0.3,0,0.6,0h5.5v-1.9h-7.2c-0.4,0-0.7,0.1-1,0.2l-0.4-1.5
		c0.2,0.1,0.4,0.1,0.5,0.1c0.2,0,0.3,0,0.6,0h7.5v-1.5c0-0.4,0-0.8,0-1.2c0-0.4,0-0.7-0.1-0.9c0.7,0.1,1.2,0.3,1.6,0.4
		c0.4,0.1,0.8,0.2,1.1,0.3c0.7,0.2,1,0.4,1,0.5c0,0.1-0.4,0.4-1.1,0.8v1.6h4.6l1.2-1.6c0.2-0.3,0.4-0.4,0.6-0.4
		c0.2,0,0.5,0.2,0.9,0.6c0.2,0.2,0.5,0.5,0.9,0.8C92.9,11.2,93.2,11.5,93.4,11.8z M92.7,17.5c0.4,0.3,0.6,0.5,0.6,0.6
		c0,0.1-0.4,0.4-1,0.7v2.3c0,0.3,0,0.5,0,0.8s0,0.5,0.1,0.8c0,0.3,0,0.4-0.2,0.5c-0.3,0.2-0.5,0.3-0.7,0.4c-0.2,0.1-0.6,0.2-1,0.2
		c-0.3,0-0.5,0-0.6-0.1c-0.1-0.1-0.1-0.4-0.1-0.8H76.7c0,0.3-0.1,0.5-0.4,0.6c-0.3,0.1-0.5,0.3-0.6,0.4c0.5,0.2,0.9,0.3,1.3,0.4
		c0.4,0.1,0.7,0.3,1.1,0.4h9.9l0.7-0.9c0.1-0.2,0.2-0.2,0.3-0.3c0.1,0,0.3,0.1,0.6,0.2c0.3,0.2,0.7,0.4,0.9,0.5
		c0.3,0.2,0.5,0.3,0.8,0.5c0.4,0.3,0.6,0.6,0.7,0.8s-0.2,0.5-0.8,0.8V32c0,0.3,0,0.5,0,0.8s0,0.5,0.1,0.8c0,0.3,0,0.4-0.2,0.5
		c-0.3,0.2-0.5,0.3-0.8,0.4c-0.3,0.1-0.6,0.1-1,0.2c-0.3,0-0.5,0-0.7-0.1c-0.1-0.1-0.2-0.2-0.2-0.5v-0.5H77.9v0.5
		c0,0.1,0,0.2-0.1,0.3c0,0.1-0.2,0.2-0.3,0.3c-0.2,0.1-0.4,0.2-0.8,0.3C76.4,35,76,35,75.4,35.1c-0.2,0-0.3-0.1-0.2-0.3
		c0-0.4,0.1-0.8,0.1-1.1c0-0.3,0-0.7,0-1.2v-6.6c0-0.4,0-0.7,0-0.9c0-0.2,0-0.5,0-0.8c-0.1,0-0.2,0.1-0.2,0.1c0,0-0.1,0-0.1,0.1
		c0,0-0.1,0-0.2,0.1c-0.1,0-0.2,0-0.4,0.1c-0.2,0-0.3-0.1-0.2-0.3c0-0.4,0.1-0.8,0.1-1.1c0-0.3,0-0.7,0-1.2v-3.4c0-0.5,0-0.8,0-1.1
		c0-0.3,0-0.6-0.1-0.9c0.6,0.1,1.1,0.3,1.6,0.4c0.5,0.1,0.9,0.3,1.2,0.5h12.7l0.6-1c0.1-0.2,0.3-0.2,0.6,0c0.5,0.3,0.8,0.5,1.1,0.7
		C92.2,17.1,92.5,17.3,92.7,17.5z M79.7,18.3h-3V22h3V18.3z M88.3,25.9H77.9v1.6h10.4V25.9z M88.3,28.4H77.9v1.5h10.4V28.4z
		 M88.3,30.8H77.9v1.8h10.4V30.8z M84.6,18.3h-2.7V22h2.7V18.3z M92.7,38.2c0.1,0.5,0.1,0.8,0,1.1c-0.1,0.3-0.4,0.4-0.7,0.5
		c-0.1,0-0.3,0-0.4-0.1c-0.2-0.1-0.4-0.3-0.7-0.6c-0.6-0.6-1.2-1.1-1.7-1.5s-1.1-0.8-1.6-1.1c-0.5-0.3-1.1-0.6-1.8-0.9
		c-0.6-0.3-1.4-0.6-2.2-0.9l0.1-0.6c1.8,0.3,3.2,0.5,4.3,0.7c1.1,0.2,1.9,0.5,2.6,0.8c0.6,0.3,1.1,0.6,1.3,1
		C92.3,37.1,92.5,37.6,92.7,38.2z M89.8,18.3h-3V22h3V18.3z"/>
	<path class="st1" d="M106.1,27.1v-9.7h-5.4c-0.6,0-1.1,0.1-1.5,0.2l-0.8-1.5c0.5,0.1,1,0.2,1.8,0.2h6v-5.6c0-1.2,0-2.2-0.1-3.1
		c0.8,0.2,1.6,0.4,2.5,0.7c0.9,0.3,1.4,0.5,1.5,0.5c0.1,0.1,0.2,0.2,0.2,0.3c0,0.2-0.4,0.6-1.1,1.2v6h6.9v-5.7c0-1.1,0-2.2-0.1-3.1
		c3,0.7,4.4,1.3,4.4,1.6c0,0.2-0.4,0.6-1.2,1.2v6h3.3l1.6-2.2c0.2-0.3,0.4-0.4,0.5-0.4c0.2,0,0.9,0.5,2,1.5c1.1,1,1.7,1.6,1.7,1.9
		s-0.2,0.3-0.7,0.3h-8.4v9.7h4.4l1.8-2.2c0.2-0.2,0.3-0.3,0.5-0.3c0.1,0,0.4,0.2,0.8,0.5l1.6,1.4c0.7,0.6,1,1.1,1,1.4
		c0,0.2-0.2,0.3-0.5,0.3H98.7c-0.6,0-1.1,0.1-1.5,0.2L96.4,27c0.5,0.1,1.1,0.2,1.8,0.2H106.1z M108.3,28.8c1.2,0.6,2.1,1.1,2.7,1.5
		c0.6,0.4,0.9,0.8,0.9,0.9c0,0.2-0.2,0.3-0.5,0.3c-0.3,0-0.8,0.1-1.3,0.4c-0.5,0.3-1.4,1-2.8,2.1c-1.3,1.1-2.8,2-4.4,2.9
		c-1.6,0.8-3.5,1.7-5.8,2.6l-0.2-0.8c2.7-1.6,4.8-3.2,6.5-4.7C105.2,32.6,106.8,30.8,108.3,28.8z M109.2,17.4v9.7h6.9v-9.7H109.2z
		 M115.4,29.4c3.2,1.1,5.8,2.3,7.8,3.5c2,1.2,3,2.6,3,4.2c0,0.7-0.1,1.4-0.4,1.9c-0.2,0.5-0.5,0.8-0.9,0.8c-0.3,0-0.6-0.1-0.8-0.2
		s-0.4-0.4-0.7-0.8c-2.2-3.6-5-6.5-8.6-8.8L115.4,29.4z"/>
	<path class="st1" d="M136.3,29.4c-0.1,0.2-0.1,0.3-0.2,0.4c-0.1,0.1-0.2,0.1-0.4,0.2c-0.5,0.1-1,0.1-1.6,0.1
		c-0.2,0-0.3-0.1-0.4-0.2c0-0.1,0-0.2,0.1-0.4c0.6-2,1.1-3.9,1.5-6c0.4-2,0.8-4.1,1.1-6.4h-3c-0.3,0-0.6,0-0.8,0.1
		c-0.3,0-0.5,0.1-0.6,0.2l-0.6-1.6c0.3,0.1,0.6,0.1,0.9,0.1s0.5,0,0.9,0h3.5c0.4-2.7,0.7-5.6,0.9-8.6c0.6,0.1,1.3,0.3,2,0.6
		c0.8,0.2,1.4,0.5,1.9,0.8c0.4,0.2,0.6,0.4,0.6,0.6c-0.1,0.2-0.3,0.3-0.7,0.5c-0.4,0.2-0.7,0.7-0.9,1.7c-0.1,0.7-0.3,1.5-0.4,2.2
		c-0.1,0.7-0.3,1.5-0.5,2.3h2.5l0.5-1.3c0.1-0.3,0.3-0.4,0.5-0.4s0.5,0.1,0.8,0.2c0.5,0.3,1.1,0.5,1.6,0.7c0.5,0.2,1,0.5,1.4,0.7
		c0.3,0.2,0.4,0.4,0.4,0.5c0,0.1-0.2,0.3-0.5,0.5c-0.4,0.2-0.8,0.5-0.9,0.8c-0.2,0.3-0.3,0.7-0.4,1.4c-0.2,1.2-0.3,2.2-0.5,3.1
		c-0.2,0.9-0.4,1.7-0.6,2.5c-0.2,0.8-0.5,1.6-0.8,2.5c-0.3,0.8-0.6,1.8-1.1,2.8c0.7,0.4,1.4,0.8,1.8,1.2c0.5,0.4,0.9,0.8,1.2,1.2
		c0.4,0.5,0.6,1,0.7,1.5c0.1,0.5,0.1,1-0.1,1.4c-0.1,0.4-0.3,0.8-0.6,1.1c-0.3,0.3-0.6,0.4-0.9,0.4c-0.1,0-0.3-0.1-0.5-0.2
		c-0.2-0.1-0.4-0.4-0.6-0.9c-0.3-0.7-0.7-1.3-1-1.8c-0.4-0.5-0.8-1-1.3-1.4c-0.6,0.8-1.2,1.5-1.7,2c-0.5,0.5-1.1,1.1-1.8,1.5
		c-0.7,0.5-1.5,1-2.5,1.5c-1,0.5-2.2,1.1-3.6,1.7l-0.4-0.6c1.2-0.8,2.2-1.6,3.1-2.2c0.8-0.6,1.5-1.2,2.1-1.8
		c0.6-0.6,1.1-1.2,1.6-1.8c0.5-0.6,0.9-1.3,1.4-2.1c-0.6-0.3-1.1-0.6-1.6-0.8c-0.5-0.2-0.9-0.5-1.4-0.7
		C136.3,29.3,136.3,29.4,136.3,29.4z M139.3,17.2c-0.4,1.8-0.8,3.6-1.2,5.4c-0.4,1.8-0.9,3.6-1.3,5.2c0.7,0.2,1.3,0.4,1.8,0.6
		c0.6,0.2,1.1,0.4,1.6,0.6c0.3-0.7,0.5-1.5,0.7-2.3c0.2-0.8,0.4-1.7,0.6-2.6c0.2-0.9,0.4-2,0.5-3.1c0.2-1.1,0.3-2.4,0.5-3.9H139.3z
		 M163.9,23.2c0.7,0.7,0.6,1.1-0.2,1.1H156v11.2c0,0.7,0,1.2-0.1,1.6c-0.1,0.4-0.3,0.8-0.5,1.1c-0.3,0.3-0.7,0.6-1.3,0.9
		c-0.6,0.3-1.3,0.6-2.3,0.9c-0.3,0.1-0.5,0.1-0.6,0.1c-0.1-0.1-0.2-0.2-0.2-0.5c0-0.4-0.1-0.7-0.1-0.9c-0.1-0.2-0.2-0.5-0.5-0.7
		c-0.3-0.2-0.7-0.4-1.2-0.6c-0.5-0.2-1.3-0.5-2.3-0.8L147,36c1.4,0.2,2.4,0.4,3.2,0.4c0.8,0.1,1.4,0.1,1.8,0
		c0.4-0.1,0.7-0.2,0.8-0.4c0.1-0.2,0.2-0.5,0.2-0.9V24.4h-5.8c-0.3,0-0.6,0-0.8,0.1c-0.3,0-0.5,0.1-0.6,0.2l-0.6-1.6
		c0.3,0.1,0.6,0.1,0.9,0.1c0.2,0,0.5,0,0.9,0h6.1v-2.4c0-0.7,0-1.4,0-1.9c0-0.5-0.1-1-0.1-1.6c0.3,0,0.5,0.1,0.6,0.1
		c0.2,0,0.4,0.1,0.6,0.2c0.3-0.4,0.6-0.7,0.9-1.1c0.3-0.4,0.6-0.7,0.9-1.1s0.7-0.9,1.1-1.4c0.4-0.5,0.9-1.2,1.4-1.9h-9.7
		c-0.3,0-0.6,0-0.8,0.1c-0.3,0-0.5,0.1-0.6,0.2l-0.8-1.6c0.3,0.1,0.6,0.1,0.9,0.1c0.2,0,0.5,0,0.9,0h10.1l1.1-1.3
		c0.3-0.3,0.6-0.4,1-0.1c0.4,0.3,0.9,0.7,1.4,1c0.5,0.4,0.9,0.7,1.2,1c0.7,0.6,0.6,1-0.3,1.1c-0.3,0-0.6,0.1-0.9,0.2
		c-0.3,0.1-0.8,0.3-1.3,0.7c-0.5,0.3-1.3,0.9-2.1,1.5c-0.9,0.7-2,1.6-3.3,2.7c0.1,0,0.2,0.1,0.4,0.1c0.2,0.1,0.4,0.1,0.6,0.2
		c0.2,0.1,0.4,0.1,0.5,0.2c0.2,0.1,0.3,0.1,0.4,0.1c0.4,0.1,0.5,0.3,0.4,0.5c-0.1,0.2-0.4,0.4-1.2,0.6v3.5h3l1.2-2.2
		c0.1-0.3,0.3-0.4,0.4-0.3c0.1,0,0.4,0.2,0.7,0.4c0.5,0.4,1,0.8,1.5,1.2C163.3,22.6,163.6,22.9,163.9,23.2z"/>
</g>
<g class="st0">
	<path class="st1" d="M182.7,34.7c0,1.8-0.7,3.5-2.2,5.1s-3.2,2.9-5.3,3.8l-0.5-1.2c0.7-0.3,1.3-0.7,1.8-0.9c0.5-0.3,1-0.7,1.5-1.2
		c0.5-0.4,0.9-0.9,1.2-1.4c0.3-0.5,0.6-1.1,0.8-1.8h-1c-1.1,0-1.8-0.2-2.3-0.6c-0.5-0.4-0.8-1-0.8-1.7c0-0.9,0.4-1.7,1.1-2.4
		c0.7-0.7,1.5-1.1,2.5-1.1c1.1,0,1.9,0.3,2.5,1C182.4,32.8,182.7,33.7,182.7,34.7z"/>
</g>
<g class="st0">
</g>
<g class="st0">
	<path class="st1" d="M113.1,83.3c-4,2.5-9.2,4.4-15.5,5.6l-0.1-0.7c5.5-1.5,10-3.8,13.7-6.8c-1.1-1.2-1.9-2.5-2.6-3.9
		s-1.4-3.4-2.2-6.1h-2.2c-0.6,0-1.1,0.1-1.5,0.2l-0.6-1.6c0.5,0.1,1.1,0.2,1.8,0.2h7.9v-5.5h-11.1c-0.6,0-1.1,0.1-1.5,0.2l-0.6-1.6
		c0.5,0.1,1.1,0.2,1.8,0.2h11.5v-4.1c0-1.2,0-2.2-0.1-3.1c1.1,0.3,2,0.6,2.9,0.9c0.9,0.3,1.4,0.5,1.6,0.6c0.2,0.1,0.4,0.2,0.4,0.3
		c0,0.2-0.5,0.5-1.5,0.9v4.4h7.7l1.5-2.3c0.2-0.3,0.4-0.4,0.7-0.4c0.3,0,1,0.5,2,1.6s1.6,1.8,1.6,2c0,0.2-0.2,0.2-0.7,0.2h-12.9v5.5
		h3.4l0.9-1.2c0.2-0.2,0.3-0.4,0.5-0.4c0.2,0,0.4,0.1,0.8,0.4c0.4,0.3,1,0.7,1.7,1.2c0.7,0.6,1.2,0.9,1.3,1.1
		c0.1,0.2,0.2,0.3,0.2,0.5c0,0.2-0.3,0.3-0.8,0.3c-0.5,0-0.9,0.1-1.1,0.2c-0.2,0.1-0.5,0.5-0.8,1c-1.3,2.3-2.3,3.9-2.9,4.8
		s-1.6,1.9-2.9,3.2c3.5,2,8.4,3.4,14.7,4v0.7c-1,0-1.8,0-2.3,0.2c-0.5,0.1-0.9,0.3-1.2,0.6c-0.3,0.3-0.5,0.7-0.8,1.4
		c-0.1,0.2-0.3,0.3-0.4,0.3c-0.4,0-2.1-0.5-5.2-1.6C117.2,86,114.8,84.7,113.1,83.3z M112.9,79.9c2.6-2.7,4.5-5.5,5.7-8.4h-11.1
		C108.9,75.1,110.6,77.9,112.9,79.9z"/>
	<path class="st1" d="M145.7,65.4c0.3,0.3,0.4,0.5,0.4,0.6c0,0.1-0.3,0.1-0.8,0.1h-5v6.1l5-1.6l0.4,0.6l-5.4,2.6v10
		c0,1.1-0.2,2-0.7,2.7c-0.5,0.6-1.3,1.2-2.4,1.7c-0.5,0.2-0.8,0.3-0.9,0.2c-0.2,0-0.3-0.2-0.3-0.6c0-0.4-0.1-0.6-0.2-0.9
		c-0.1-0.2-0.2-0.5-0.4-0.7s-0.5-0.4-0.9-0.6c-0.4-0.2-0.9-0.5-1.6-0.7l0.2-0.7c1,0.2,1.8,0.4,2.4,0.4c0.6,0.1,1.1,0.1,1.4,0
		s0.5-0.2,0.6-0.5s0.2-0.5,0.2-0.9v-7.8c-1,0.6-1.7,1-2.2,1.5c-0.5,0.4-0.9,0.8-1.3,1.2c-0.3,0.3-0.5,0.3-0.7,0
		c-0.4-0.5-0.7-0.9-0.9-1.3c-0.3-0.4-0.6-0.8-0.9-1.3c1-0.3,2-0.7,2.9-1c1-0.4,2-0.7,3.1-1.1v-7.1h-4.2c-0.3,0-0.5,0-0.8,0.1
		s-0.5,0.1-0.7,0.1l-0.6-1.4c0.3,0.1,0.6,0.1,0.8,0.1s0.5,0,0.9,0h4.6v-5c0-0.9,0-1.6,0-2.2c0-0.6,0-1.1-0.1-1.6
		c0.8,0.3,1.5,0.5,2,0.6c0.5,0.2,0.9,0.3,1.4,0.5c0.6,0.3,0.9,0.5,0.9,0.6c0,0.2-0.5,0.4-1.3,0.8v6.2h1.3l0.9-1.7
		c0.2-0.3,0.3-0.4,0.5-0.4c0.1,0,0.3,0.1,0.6,0.3c0.2,0.2,0.5,0.5,1,0.9C145,64.6,145.3,65,145.7,65.4z M164.6,75
		c0.3,0.3,0.5,0.6,0.4,0.7c0,0.1-0.3,0.2-0.7,0.2h-6v10.2c0,0.6-0.2,1.2-0.7,1.8c-0.5,0.6-1.4,1.1-2.9,1.6c-0.3,0.1-0.6,0.2-0.8,0.1
		s-0.3-0.3-0.3-0.6c0-0.4-0.1-0.6-0.2-0.9c-0.1-0.2-0.3-0.5-0.6-0.7c-0.3-0.2-0.7-0.4-1.2-0.7c-0.5-0.2-1.2-0.5-2.1-0.8l0.1-0.8
		c1.3,0.2,2.3,0.4,3.1,0.5c0.7,0.1,1.3,0.1,1.6,0.1c0.4-0.1,0.6-0.2,0.6-0.4c0.1-0.2,0.1-0.5,0.1-0.9v-8.3h-9.9
		c-0.3,0-0.5,0-0.8,0.1c-0.3,0.1-0.5,0.1-0.7,0.2l-0.7-1.5c0.3,0.1,0.6,0.1,0.9,0.1s0.5,0,0.9,0h10.2v-0.9c0-0.9,0-1.6,0-2.2
		s0-1.1-0.1-1.5c0.6,0.1,1.2,0.2,1.8,0.3c0.6,0.1,1.1,0.3,1.5,0.4c0.4,0.2,0.7,0.3,0.7,0.5s-0.3,0.4-0.8,0.7v2.7h2.1l1.2-1.7
		c0.2-0.3,0.3-0.4,0.5-0.4c0.2,0,0.3,0.1,0.5,0.2c0.4,0.4,0.8,0.8,1.1,1.1C164,74.3,164.3,74.6,164.6,75z M163.8,69
		c0.3,0.3,0.4,0.5,0.3,0.6c0,0.1-0.3,0.2-0.9,0.2h-16.9c-0.3,0-0.5,0-0.8,0.1c-0.3,0-0.5,0.1-0.6,0.2l-0.6-1.5
		c0.3,0.1,0.6,0.1,0.9,0.1s0.5,0,0.9,0h5.3v-5.1h-3.8c-0.3,0-0.6,0-0.8,0.1c-0.3,0.1-0.5,0.1-0.6,0.2l-0.7-1.5
		c0.3,0,0.6,0.1,0.9,0.1c0.2,0,0.5,0,0.9,0h4.2v-2.9c0-0.8,0-1.5,0-1.9s0-0.9-0.1-1.3c0.7,0.1,1.3,0.3,1.8,0.4
		c0.5,0.2,1,0.3,1.5,0.5c0.8,0.3,1.2,0.5,1.1,0.7c0,0.2-0.5,0.5-1.4,0.9v3.6h3.4l0.9-1.6c0.2-0.3,0.4-0.4,0.5-0.4
		c0.2,0,0.4,0.1,0.7,0.4c0.3,0.3,0.6,0.5,1,0.8c0.4,0.3,0.9,0.7,1.3,1.2c0.3,0.3,0.5,0.5,0.4,0.6c-0.1,0.1-0.4,0.1-0.9,0.1h-7.4v5.1
		h5.1l1.1-1.7c0.2-0.3,0.4-0.5,0.6-0.5s0.4,0.1,0.6,0.3c0.5,0.4,0.9,0.8,1.3,1.2C163.3,68.4,163.6,68.8,163.8,69z M151,81.8
		c-0.5,1.1-1,1.6-1.6,1.6c-0.3,0-0.5-0.1-0.7-0.3c-0.2-0.2-0.3-0.5-0.4-1.1c-0.1-0.7-0.4-1.4-0.8-2.3s-0.9-1.7-1.6-2.5l0.5-0.6
		c1.2,0.6,2.1,1.1,2.8,1.5c0.7,0.4,1.2,0.9,1.6,1.2c0.3,0.4,0.5,0.8,0.5,1.1C151.3,80.9,151.2,81.3,151,81.8z"/>
	<path class="st1" d="M178.5,64.3h-8.2c-0.6,0-1.1,0.1-1.5,0.2l-0.7-1.5c0.5,0.1,1.1,0.2,1.8,0.2h9.1c0.7-1.8,1.4-4,2.2-6.8
		c2.8,1.1,4.3,1.9,4.3,2.4c0,0.2-0.2,0.3-0.5,0.3s-0.6,0.1-0.7,0.2c-0.2,0.2-0.4,0.5-0.7,1.2c-0.3,0.6-0.7,1.5-1.3,2.7h11l1.6-2.4
		c0.1-0.2,0.3-0.3,0.5-0.3c0.3,0,1,0.5,2.3,1.6s1.9,1.7,1.9,1.9c0,0.2-0.3,0.4-0.8,0.4h-16.9c-1.6,3.2-3.2,5.8-4.8,7.9v15.3
		c0,0.2,0,0.4-0.1,0.4c-0.1,0.1-0.3,0.2-0.7,0.4c-0.4,0.2-0.8,0.4-1.2,0.5s-0.7,0.2-0.9,0.2c-0.2,0-0.2-0.1-0.2-0.3l0.1-1.6
		C174,86,174,85,174,84v-8.5c-2,2-4.4,3.9-7.3,5.7l-0.4-0.4c3.1-2.8,5.7-5.6,7.8-8.4c0-1.9,0-3.2-0.1-3.9c1.1,0.4,1.8,0.6,2.1,0.8
		C176.7,68.1,177.6,66.4,178.5,64.3z M185.6,85.2V74.6h-5.1c-0.6,0-1.1,0.1-1.5,0.2l-0.7-1.5c0.5,0.1,1.1,0.2,1.8,0.2h5.5v-4
		c0-1.8,0-2.9-0.1-3.3c1,0.2,2,0.5,2.9,0.8c0.9,0.3,1.3,0.6,1.3,0.8c0,0.2-0.4,0.4-1.2,0.8v4.9h3.5l1-1.9c0.2-0.3,0.4-0.5,0.8-0.5
		c0.3,0,1,0.5,2.2,1.4c1.1,0.9,1.7,1.5,1.7,1.8s-0.3,0.4-0.9,0.4h-8.3v10.6h4.9l1.5-2.1c0.2-0.3,0.4-0.4,0.6-0.4
		c0.2,0,0.7,0.3,1.4,0.8c0.7,0.6,1.4,1.1,1.9,1.5s0.7,0.7,0.7,0.9c0,0.3-0.3,0.4-0.8,0.4h-19.5c-0.6,0-1.1,0.1-1.5,0.2l-0.6-1.5
		c0.5,0.1,1.1,0.2,1.8,0.2H185.6z"/>
	<path class="st1" d="M207.2,69.9h-2.8c-0.6,0-1,0.1-1.5,0.2l-0.6-1.6c0.5,0.1,1.1,0.2,1.8,0.2h3.1v-7.5c0-1.2,0-2.2-0.1-3.1
		c1,0.2,1.9,0.5,2.9,0.8c1,0.4,1.5,0.7,1.5,0.9c0,0.2-0.5,0.6-1.5,1.1v7.8h1l1-1.3c0.2-0.3,0.4-0.4,0.5-0.4c0.1,0,0.5,0.4,1.2,1.1
		c0.7,0.7,1,1.2,1,1.4s-0.2,0.3-0.5,0.3H210v9.9l4.5-1.3l0.2,0.8l-6.9,3.3c-1.4,0.7-2.7,1.4-3.9,2.2c-0.2,0.1-0.3,0.2-0.4,0.2
		s-0.2-0.1-0.3-0.3c-0.1-0.2-0.8-1.2-1.9-3.1c1.8-0.2,3.7-0.6,5.9-1.2V69.9z M224.1,66.9l3.6-1.4l0.7-1.8c0.1-0.3,0.3-0.5,0.5-0.5
		s0.8,0.3,1.7,0.8c0.9,0.6,1.4,0.9,1.5,1c0.1,0.1,0.2,0.2,0.2,0.3c0,0.2-0.5,0.7-1.4,1.4c0,1.9,0,3.9,0,6c0,2.1-0.1,3.5-0.2,4
		c-0.1,0.6-0.3,1.1-0.6,1.6s-0.7,0.9-1.4,1.3c-0.6,0.4-1.1,0.6-1.2,0.6s-0.3-0.1-0.5-0.4c-0.3-0.7-0.6-1.2-0.9-1.5
		c-0.4-0.3-1-0.6-2-1v-0.5c0.8,0,1.5,0.1,2,0.1c0.5,0,0.9-0.1,1.1-0.3c0.2-0.2,0.4-0.6,0.5-1.1c0.1-0.6,0.2-1.6,0.3-3
		c0.1-1.4,0.1-3.3,0-5.7l-4.1,1.6v9.7c0,0.9,0,1.6,0,2l0.1,1c0,0.2,0,0.3-0.1,0.4c-0.1,0.1-0.5,0.3-1.2,0.5
		c-0.7,0.3-1.2,0.4-1.3,0.4s-0.2-0.2-0.2-0.5V69.5l-3.3,1.3v11.7c0,1.1,0.1,1.8,0.2,2.1c0.2,0.3,0.6,0.5,1.2,0.6s2.3,0.1,4.8,0.1
		s4.1-0.1,4.7-0.4c0.6-0.2,1-0.8,1.4-1.7s0.7-2.6,1.1-5l0.7,0.1c0,0.7-0.1,1.4-0.1,1.9c0,2.5,0.4,3.9,1.3,4.5
		c0.2,0.1,0.4,0.3,0.4,0.5s-0.3,0.7-1,1.4c-0.7,0.7-1.4,1.2-2.2,1.3c-0.7,0.1-2.3,0.2-4.7,0.2c-2.4,0-4.4-0.1-6-0.2
		c-1.6-0.1-2.7-0.3-3.2-0.6c-0.5-0.2-0.8-0.7-1-1.3s-0.2-1.8-0.2-3.4V71.8l-2.2,0.8c-0.9,0.3-1.4,0.6-1.7,0.8l-1.3-1.5
		c0.5,0,1-0.2,1.6-0.4l3.5-1.4v-4.3c0-1.6,0-2.9-0.1-3.9c1,0.2,1.8,0.5,2.5,0.7c0.7,0.2,1.2,0.4,1.3,0.5c0.2,0.1,0.2,0.2,0.2,0.3
		c0,0.2-0.4,0.6-1.3,1v4.6l3.3-1.3v-8c0-0.8,0-1.7-0.1-2.6c0.7,0.1,1.6,0.4,2.6,0.8c1,0.4,1.5,0.7,1.5,0.9s-0.4,0.6-1.2,1.1V66.9z"
		/>
	<path class="st1" d="M244.8,66.3c0.5,0.1,1.3,0.4,2.5,0.9c1.2,0.5,1.7,0.8,1.7,1s-0.1,0.3-0.4,0.5c-0.3,0.1-0.5,0.3-0.8,0.6
		s-0.6,1-1.1,2c-1.5,3-3,5.5-4.4,7.4s-3.1,3.8-5.1,5.6l-0.5-0.6C240,79.3,242.7,73.5,244.8,66.3z M252.3,57c1.8,0.3,3.1,0.5,3.9,0.8
		c0.9,0.3,1.3,0.5,1.3,0.7c0,0.2-0.6,0.6-1.8,1.2v25.1c0,1.3-0.2,2.2-0.5,2.7c-0.3,0.5-1,1-1.9,1.5c-1,0.5-1.6,0.7-1.9,0.7
		s-0.5-0.2-0.6-0.7c-0.1-1-0.6-1.8-1.4-2.4c-0.8-0.6-2-1.1-3.7-1.6l0.1-0.7c2.8,0.4,4.5,0.6,5.1,0.6c0.7,0,1.1-0.1,1.2-0.3
		c0.2-0.2,0.2-0.5,0.2-1V60.8C252.4,59.3,252.4,58,252.3,57z M258.5,67.7c3.3,2.1,5.8,4.1,7.6,5.8c1.8,1.7,2.7,3.4,2.7,4.8
		c0,0.8-0.2,1.5-0.6,2.3c-0.4,0.7-0.8,1.1-1.2,1.1c-0.4,0-0.8-0.2-1.1-0.6c-0.3-0.4-0.6-1.2-1-2.4c-0.4-1.2-1.2-2.7-2.3-4.4
		c-1.1-1.7-2.7-3.7-4.6-6.1L258.5,67.7z"/>
	<path class="st1" d="M279.9,86.6c0.3-0.1,0.6-0.2,0.9-0.3c0.3-0.1,0.6-0.2,0.9-0.3v-7.6h-2.9c-0.1,1.4-0.3,2.6-0.6,3.6
		c-0.3,1-0.7,1.9-1.2,2.8s-1.2,1.6-2,2.4c-0.8,0.8-1.9,1.6-3.1,2.5l-0.4-0.5c0.7-0.7,1.3-1.4,1.8-2.1c0.5-0.6,1-1.3,1.3-2.1
		s0.7-1.5,0.9-2.4c0.2-0.9,0.4-1.9,0.5-3.1c0.1-1.2,0.2-2.6,0.3-4.2c0.1-1.6,0.1-3.5,0.1-5.7c0.2,0.1,0.4,0.2,0.5,0.2
		c0-0.4,0-0.7,0.1-1.1c0-0.4,0-0.7,0-1v-6.2c0-0.6,0-1.1,0-1.5c0-0.4,0-0.9-0.1-1.4c0.3,0.1,0.6,0.2,0.9,0.3
		c0.3,0.1,0.5,0.2,0.7,0.3c0.2,0.1,0.5,0.2,0.7,0.4c0.2,0.1,0.5,0.3,0.8,0.5h3.5c0-0.8,0-1.5,0-2.1s0-1.3-0.1-1.9
		c0.5,0.1,1,0.2,1.5,0.3c0.5,0.1,0.9,0.2,1.3,0.3c0.5,0.2,0.8,0.3,0.8,0.5c0,0.1-0.3,0.3-0.9,0.5v2.5h3.8c0-0.8,0-1.5,0-2.1
		c0-0.6,0-1.2-0.1-1.8c0.6,0.1,1.1,0.2,1.6,0.3c0.4,0.1,0.9,0.2,1.3,0.4c0.5,0.2,0.8,0.3,0.7,0.5c0,0.1-0.4,0.3-1,0.6v2.1h4l0.8-1.1
		c0.1-0.2,0.2-0.3,0.4-0.3c0.1,0,0.3,0,0.5,0.2c0.4,0.2,0.7,0.4,1,0.6s0.6,0.5,1,0.7c0.3,0.3,0.5,0.5,0.4,0.6
		c-0.1,0.2-0.4,0.4-1.1,0.7v4.8c0,0.6,0,1.3,0.1,1.9c0,0.3-0.1,0.4-0.3,0.6c-0.4,0.2-0.8,0.4-1.1,0.5s-0.7,0.2-1.2,0.3
		c-0.2,0-0.3-0.1-0.3-0.3V69h-17.1v0.4c0,0.2,0,0.3-0.1,0.4s-0.1,0.1-0.2,0.2c-0.3,0.1-0.5,0.3-0.8,0.3c-0.2,0.1-0.5,0.2-0.9,0.2
		c0.2,0.1,0.4,0.3,0.7,0.4c0.2,0.1,0.5,0.3,0.8,0.4H298l0.7-1.4c0.2-0.3,0.4-0.4,0.5-0.5c0.2,0,0.4,0.1,0.6,0.2
		c0.4,0.3,0.8,0.5,1.1,0.8c0.3,0.2,0.6,0.5,0.9,0.8c0.9,0.7,0.8,1-0.3,1h-22.5c0,2-0.1,3.7-0.2,5.1h20.2l0.8-1.8
		c0.1-0.2,0.3-0.3,0.4-0.3c0.1,0,0.3,0.1,0.6,0.3c0.4,0.3,0.9,0.6,1.4,1c0.5,0.4,0.9,0.8,1.3,1.2c0.5,0.5,0.4,0.8-0.2,0.8h-5.4
		c0.4,0.3,0.7,0.5,1,0.7c0.3,0.2,0.6,0.5,0.9,0.8c0.3,0.2,0.3,0.3,0.2,0.5c-0.1,0.1-0.3,0.2-0.6,0.1c-0.2,0-0.4,0-0.6,0
		c-0.2,0-0.5,0.2-0.8,0.3c-0.4,0.2-0.7,0.4-0.9,0.5s-0.6,0.3-0.9,0.4c-0.3,0.1-0.7,0.3-1.2,0.5c-0.4,0.2-1,0.4-1.6,0.6
		c0.7,0.5,1.5,0.9,2.2,1.2c0.7,0.3,1.6,0.6,2.5,0.9c0.9,0.2,1.9,0.4,3,0.6s2.4,0.3,3.8,0.4l-0.1,0.7c-0.6,0-1.1,0.1-1.5,0.2
		s-0.7,0.2-1,0.4c-0.3,0.2-0.5,0.3-0.7,0.6c-0.2,0.2-0.4,0.5-0.5,0.7c-0.1,0.2-0.2,0.3-0.3,0.3s-0.3,0-0.5-0.1
		c-1.8-0.6-3.3-1.2-4.5-1.8c-1.2-0.6-2.3-1.3-3.2-2.1c-0.9-0.8-1.7-1.7-2.4-2.7c-0.7-1-1.3-2.2-2-3.6h-3.8v6.9l5.6-1.6l0.4,0.7
		c-1.2,0.6-2.3,1.2-3.2,1.7c-0.9,0.5-1.7,0.9-2.3,1.3s-1.1,0.7-1.6,1c-0.4,0.3-0.7,0.6-1,0.8c-0.3,0.3-0.5,0.3-0.7,0
		c-0.2-0.3-0.5-0.6-0.9-1.2C280.5,87.6,280.2,87.1,279.9,86.6z M283.6,61.4h-3.9V64h3.9V61.4z M283.6,65h-3.9v2.9h3.9V65z
		 M299.5,74.5c0.3,0.3,0.4,0.4,0.3,0.6c-0.1,0.1-0.3,0.2-0.8,0.2h-17c-0.3,0-0.6,0-0.8,0.1c-0.3,0-0.5,0.1-0.6,0.2l-0.7-1.4
		c0.3,0.1,0.6,0.1,0.8,0.1c0.2,0,0.5,0,0.9,0H296l0.7-1.5c0.1-0.2,0.3-0.3,0.3-0.3s0.3,0.1,0.5,0.3c0.3,0.2,0.6,0.4,1,0.7
		C298.8,73.8,299.2,74.2,299.5,74.5z M290,61.4h-3.8V64h3.8V61.4z M290,65h-3.8v2.9h3.8V65z M289.2,78.5c0.6,0.8,1.1,1.5,1.7,2.1
		s1.1,1.2,1.8,1.6c0.6-0.5,1.1-1,1.5-1.3c0.4-0.4,0.7-0.7,1-1c0.3-0.3,0.5-0.5,0.8-0.7c0.2-0.2,0.4-0.5,0.7-0.7H289.2z M296.8,61.4
		h-4.3V64h4.3V61.4z M296.8,65h-4.3v2.9h4.3V65z"/>
</g>
<g class="st0">
	<path class="st1" d="M326.4,62.9c0,1.8-0.8,3.5-2.3,5.1s-3.4,2.9-5.5,3.8l-0.5-1.2c0.5-0.2,1.1-0.5,1.8-0.9
		c0.7-0.4,1.2-0.8,1.6-1.1c0.5-0.4,0.9-0.9,1.2-1.4c0.4-0.5,0.7-1.1,0.9-1.8h-1c-1,0-1.7-0.2-2.2-0.6c-0.5-0.4-0.7-0.9-0.7-1.6
		c0-0.9,0.4-1.7,1.1-2.4s1.6-1.1,2.6-1.1c1.1,0,1.8,0.3,2.3,0.9C326.1,61.3,326.4,62,326.4,62.9z M334.8,62.9c0,1.8-0.8,3.5-2.3,5.1
		s-3.4,2.9-5.5,3.8l-0.5-1.2c0.5-0.2,1.1-0.5,1.8-0.9c0.7-0.4,1.2-0.8,1.6-1.1c0.5-0.4,0.9-0.9,1.2-1.4c0.4-0.5,0.7-1.1,0.9-1.8h-1
		c-1,0-1.7-0.2-2.2-0.6c-0.5-0.4-0.7-0.9-0.7-1.6c0-0.9,0.4-1.7,1.1-2.4c0.7-0.7,1.6-1.1,2.6-1.1c1.1,0,1.8,0.3,2.3,0.9
		S334.8,62,334.8,62.9z"/>
</g>
</svg>
