<?xml version="1.0" encoding="utf-8"?>
<!-- Generator: Adobe Illustrator 24.1.0, SVG Export Plug-In . SVG Version: 6.00 Build 0)  -->
<svg version="1.1" id="圖層_1" xmlns="http://www.w3.org/2000/svg" xmlns:xlink="http://www.w3.org/1999/xlink" x="0px" y="0px"
	 viewBox="0 0 320 98" style="enable-background:new 0 0 320 98;" xml:space="preserve">
<style type="text/css">
	.st0{enable-background:new    ;}
	.st1{fill:#F48145;}
</style>
<g class="st0">
	<path class="st1" d="M10.7,12.1c-0.5,0.2-1.1,0.5-1.8,0.9c-0.7,0.4-1.2,0.8-1.6,1.1c-0.5,0.4-0.9,0.9-1.2,1.4
		c-0.4,0.5-0.7,1.1-0.9,1.8h1c1,0,1.7,0.2,2.2,0.6c0.5,0.4,0.7,0.9,0.7,1.6c0,0.9-0.4,1.7-1.1,2.4c-0.7,0.7-1.6,1.1-2.6,1.1
		c-1.1,0-1.8-0.3-2.3-0.9c-0.5-0.6-0.7-1.3-0.7-2.2c0-1.8,0.8-3.5,2.3-5.1s3.4-2.9,5.5-3.8L10.7,12.1z M19.1,12.1
		c-0.5,0.2-1.1,0.5-1.8,0.9c-0.7,0.4-1.2,0.8-1.6,1.1c-0.5,0.4-0.9,0.9-1.2,1.4c-0.4,0.5-0.7,1.1-0.9,1.8h1c1,0,1.7,0.2,2.2,0.6
		c0.5,0.4,0.7,0.9,0.7,1.6c0,0.9-0.4,1.7-1.1,2.4c-0.7,0.7-1.6,1.1-2.6,1.1c-1.1,0-1.8-0.3-2.3-0.9c-0.5-0.6-0.7-1.3-0.7-2.2
		c0-1.8,0.8-3.5,2.3-5.1c1.5-1.6,3.4-2.9,5.5-3.8L19.1,12.1z"/>
</g>
<g class="st0">
	<path class="st1" d="M31,30c0.4,2.4,0.4,4.3,0.2,5.5c-0.2,1.3-0.6,2.2-1.1,2.7c-0.5,0.5-1,0.8-1.7,0.8c-0.6,0-1.1-0.1-1.4-0.5
		c-0.3-0.3-0.4-0.6-0.3-1c0.1-0.4,0.4-1,1.1-1.7c0.6-0.7,1.2-1.6,1.6-2.7c0.5-1.1,0.8-2.2,0.9-3.3H31z M55.2,21.7
		c0.3,0.3,0.4,0.5,0.4,0.6c0,0.1-0.2,0.2-0.6,0.2H44.3c-0.3,0-0.6,0-0.8,0.1c-0.3,0-0.5,0.1-0.6,0.2l-0.5-1.1
		c-0.4,0.4-0.9,0.8-1.4,1.3s-1,0.9-1.6,1.4c0.7,0.6,1.1,1.1,1.3,1.5s0.2,0.8,0.1,1.2c-0.1,0.5-0.3,1-0.6,1.3
		c-0.3,0.3-0.5,0.5-0.8,0.5c-0.4,0-0.7-0.3-0.8-0.9c-0.1-0.5-0.2-1-0.3-1.4c-1.2,0.3-2.2,0.5-3.1,0.8s-1.6,0.5-2.3,0.7
		C32,28,31.5,28.2,31,28.4c-0.5,0.2-0.9,0.4-1.3,0.5c-0.3,0.1-0.4,0.2-0.6,0.1s-0.2-0.2-0.3-0.4c-0.2-0.4-0.4-0.8-0.5-1.2
		c-0.1-0.4-0.3-0.8-0.5-1.3c0.2,0,0.4,0,0.6,0c0.2,0,0.4,0,0.6,0c0.4-0.4,1-1,1.5-1.6c0.6-0.6,1.1-1.2,1.7-1.8
		c0.6-0.6,1.1-1.2,1.6-1.8c0.5-0.6,0.9-1,1.1-1.3c-0.7,0.1-1.4,0.2-1.9,0.3c-0.5,0.1-1.1,0.2-1.5,0.4c-0.5,0.1-0.9,0.3-1.3,0.4
		c-0.4,0.2-0.9,0.4-1.3,0.6c-0.2,0.1-0.3,0.1-0.4,0.1c-0.1,0-0.2-0.2-0.3-0.5c-0.2-0.4-0.4-0.8-0.5-1.2c-0.2-0.4-0.3-0.9-0.5-1.3
		c0.3,0,0.6,0.1,0.9,0.1c0.3,0,0.6,0,0.8,0.1c0.8-1.1,1.4-2,2-2.9c0.6-0.9,1.1-1.7,1.6-2.6c0.5-0.8,0.9-1.7,1.2-2.5
		c0.3-0.9,0.7-1.8,1-2.7c0.6,0.3,1.2,0.6,1.8,0.9c0.6,0.3,1,0.6,1.4,0.9c0.4,0.3,0.5,0.4,0.5,0.6c0,0.1-0.2,0.2-0.6,0.3
		c-0.4,0.1-0.6,0.2-0.8,0.3c-0.2,0.2-0.5,0.5-0.9,0.9c-0.6,0.8-1.2,1.5-1.7,2.2c-0.5,0.6-1,1.2-1.4,1.8c-0.4,0.5-0.8,1-1.2,1.5
		c-0.4,0.5-0.8,1-1.2,1.4l5.4-0.2c0.5-0.7,1-1.5,1.5-2.3c0.5-0.8,0.9-1.6,1.4-2.4c0.6,0.4,1.1,0.8,1.5,1.1c0.4,0.3,0.8,0.6,1.2,0.9
		c0.6,0.4,0.5,0.7-0.2,0.9c-0.4,0.1-0.9,0.4-1.4,1c-0.7,0.8-1.3,1.6-2,2.2c-0.6,0.7-1.3,1.3-2,2c-0.7,0.6-1.5,1.3-2.3,2
		c-0.9,0.7-1.8,1.5-3,2.3l7-0.6c-0.1-0.4-0.3-0.8-0.5-1.2c-0.2-0.4-0.4-0.8-0.7-1.3l0.5-0.4c0.3,0.2,0.6,0.5,1,0.7s0.6,0.4,0.9,0.6
		c1-1.3,1.9-2.6,2.8-3.9c0.8-1.3,1.6-2.6,2.3-3.9c0.7-1.3,1.3-2.6,1.8-4c0.5-1.3,1-2.7,1.3-4.2c0.8,0.3,1.5,0.5,2,0.7
		s0.9,0.4,1.4,0.7c0.6,0.3,0.6,0.6,0,0.8c-0.1,0-0.2,0.1-0.3,0.1c-0.1,0-0.2,0.1-0.2,0.1c0.8,1.5,1.5,2.8,2.2,3.9s1.4,1.9,2.2,2.7
		c0.8,0.7,1.7,1.4,2.7,2c1,0.6,2.2,1.2,3.7,1.9l-0.1,0.6c-0.4,0-0.8,0.1-1,0.1c-0.3,0-0.5,0.1-0.6,0.2c-0.2,0.1-0.3,0.2-0.4,0.3
		s-0.2,0.3-0.4,0.6c-0.1,0.3-0.4,0.3-0.8,0.1c-1.1-0.7-2-1.4-2.8-2.2c-0.8-0.7-1.5-1.6-2.1-2.5c-0.6-0.9-1.2-1.9-1.6-3.1
		c-0.5-1.1-0.9-2.4-1.3-3.9c-0.7,1.3-1.3,2.5-1.8,3.5c-0.5,1-1.1,1.9-1.6,2.7c-0.5,0.8-1.1,1.5-1.6,2.2c-0.5,0.7-1.1,1.3-1.8,1.9
		c0.3,0,0.5,0.1,0.7,0.1c0.2,0,0.4,0,0.7,0h7.4l0.9-1.7c0.1-0.2,0.3-0.3,0.4-0.3s0.3,0.1,0.6,0.3c0.5,0.4,0.8,0.7,1.1,1
		C54.5,21,54.8,21.4,55.2,21.7z M36,36.3c-0.5,1.2-1.2,1.8-2.1,1.8c-0.2,0-0.4-0.1-0.6-0.3s-0.2-0.6-0.1-1.2
		c0.1-0.5,0.2-1.1,0.2-1.8c0-0.7,0-1.3,0-1.9c0-0.6-0.1-1.2-0.2-1.7c-0.1-0.5-0.2-1-0.4-1.3l0.6-0.3c0.7,1,1.2,1.9,1.6,2.6
		c0.4,0.7,0.7,1.3,0.8,1.8c0.2,0.5,0.2,0.9,0.2,1.3C36.2,35.7,36.1,36,36,36.3z M40.2,33c0.1,0.4,0.1,0.8,0,1.1
		c-0.1,0.4-0.2,0.7-0.3,1c-0.2,0.3-0.4,0.5-0.6,0.7C39,35.9,38.8,36,38.5,36c-0.1,0-0.2-0.1-0.3-0.2c-0.1-0.1-0.2-0.4-0.2-0.9
		c-0.2-0.9-0.4-1.9-0.7-2.9s-0.7-2.1-1.1-3l0.5-0.4c0.7,0.6,1.2,1.2,1.6,1.6c0.4,0.5,0.8,0.9,1,1.2c0.3,0.3,0.5,0.6,0.6,0.9
		C40.1,32.6,40.1,32.8,40.2,33z M56.6,26.9c0.3,0.2,0.4,0.4,0.4,0.5c0,0.2-0.4,0.4-1,0.8v8.4c0,0.6,0,1.3,0.1,2c0,0.2,0,0.3,0,0.4
		c0,0.1-0.1,0.1-0.3,0.2c-0.4,0.2-0.9,0.3-1.3,0.4c-0.4,0.1-0.9,0.2-1.3,0.3c-0.2,0-0.2-0.1-0.2-0.4v-3h-7.5v2.2
		c0,0.3-0.1,0.5-0.2,0.5c-0.4,0.2-0.7,0.3-1.1,0.5c-0.4,0.1-0.9,0.2-1.4,0.3c-0.1,0-0.2,0-0.2-0.3c0-0.4,0-0.9,0.1-1.3
		c0-0.5,0-0.8,0-1.1v-8.8c0-0.6,0-1.1,0-1.5s0-0.9-0.1-1.5c0.9,0.3,1.5,0.5,2,0.7s0.9,0.4,1.3,0.6h6.9l0.8-1.3
		c0.1-0.2,0.2-0.3,0.4-0.3c0.1,0,0.3,0,0.6,0.2c0.4,0.2,0.8,0.4,1.2,0.6S56.2,26.6,56.6,26.9z M52.9,28.1h-7.5v7.4h7.5V28.1z"/>
	<path class="st1" d="M67.3,21.7c-1.4,1.9-3.1,3.8-5.1,5.5l-0.4-0.4c2.2-3.1,3.9-6.1,5.3-9.1c1.3-3,2.5-6.4,3.4-10.2
		c2.3,1,3.6,1.6,4,1.8c0.4,0.2,0.6,0.5,0.6,0.7c0,0.2-0.3,0.4-0.9,0.4c-0.3,0-0.6,0.1-0.7,0.2c-0.2,0.2-0.7,1.2-1.6,3
		c-0.9,1.9-1.7,3.4-2.5,4.7c0.4,0.1,0.8,0.2,1.2,0.4c0.4,0.2,0.6,0.4,0.6,0.5c0,0.1-0.3,0.3-0.9,0.6v18.3c0,0.3-0.1,0.5-0.4,0.7
		c-0.2,0.2-0.7,0.4-1.3,0.6c-0.6,0.2-1,0.3-1.2,0.3c-0.2,0-0.3-0.1-0.3-0.3l0.1-2.1c0-1.6,0.1-2.9,0.1-4.1V21.7z M76.5,22.9
		c2.5,1,3.8,1.8,3.8,2.2c0,0.2-0.2,0.3-0.6,0.3c-0.4,0-0.8,0.4-1.2,1c-2.1,3.9-4.6,7-7.4,9.3l-0.4-0.4
		C73.2,31.6,75.1,27.5,76.5,22.9z M78.9,16.2c-0.9,1.6-1.7,2.9-2.6,3.9c-0.8,1.1-2.1,2.4-3.8,4.1L72,23.9c1.9-3,3.4-5.6,4.3-7.8
		c1-2.3,1.8-5,2.5-8.3c3.1,1.1,4.6,1.9,4.6,2.3c0,0.2-0.3,0.4-0.8,0.5c-0.7,0.1-1.1,0.4-1.3,0.8c-0.2,0.4-0.8,1.6-1.8,3.6h9.5
		l0.9-1.3c0.2-0.2,0.3-0.3,0.5-0.3c0.2,0,0.9,0.4,2.2,1.3c1.3,0.9,2,1.5,2,2c0,0.2-0.1,0.3-0.2,0.4c-0.1,0.1-0.3,0.2-0.6,0.2l-0.6,0
		c-0.7,0-1.3,0.3-2,0.8c-0.7,0.6-1.7,1.7-3,3.4L87.6,21c0.7-1.8,1.3-3.4,1.7-4.8H78.9z M81.6,17.8c1.5,0.4,2.6,0.7,3.3,1
		c0.7,0.3,1,0.5,1,0.7c0,0.2-0.4,0.4-1.1,0.8v16.2c0,1.1-0.5,1.9-1.6,2.5c-1,0.6-1.8,0.9-2.3,0.9c-0.3,0-0.5-0.2-0.5-0.6
		c-0.1-0.8-0.6-1.4-1.3-1.8c-0.7-0.5-1.7-0.9-3-1.4l0.1-0.7c2.1,0.4,3.5,0.6,4.1,0.6c0.6,0,1-0.1,1.1-0.2c0.1-0.2,0.2-0.5,0.2-0.9
		V20.9C81.7,19.8,81.6,18.7,81.6,17.8z M86.7,23.2c1.9,2.1,3.4,3.9,4.5,5.4c1.1,1.5,1.7,2.6,1.7,3.5s-0.2,1.6-0.7,2.3
		c-0.4,0.7-1,1-1.6,1c-0.3,0-0.5-0.1-0.6-0.3c-0.1-0.2-0.3-1-0.5-2.3s-0.6-2.7-1.2-4.2s-1.3-3-2.1-4.7L86.7,23.2z"/>
	<path class="st1" d="M105.3,15.3h3.4l0.9-1.4c0.2-0.3,0.3-0.4,0.5-0.4c0.2,0,0.8,0.3,1.8,0.9c1,0.6,1.5,1.1,1.5,1.4
		c0,0.3-0.4,0.6-1.3,1v15.5c0,1,0,1.8,0,2.2l0,1.2c0,0.1,0,0.2-0.1,0.3c-0.1,0.1-0.3,0.2-0.6,0.4c-0.4,0.2-0.8,0.4-1.3,0.5
		s-0.9,0.3-1,0.3c-0.1,0-0.2-0.1-0.2-0.4v-2.2h-5.7v2.1c0,0.3-0.1,0.5-0.3,0.6c-0.2,0.1-0.7,0.3-1.4,0.6c-0.7,0.3-1.2,0.4-1.4,0.4
		c-0.2,0-0.3-0.1-0.3-0.4c0.1-1.1,0.2-2.2,0.2-3.5V16.5c0-1,0-2-0.1-3c1.3,0.4,2.5,1,3.5,1.6c0.7-3.2,1.1-5.8,1.1-7.7
		c1,0.2,2,0.5,2.9,0.8c0.9,0.3,1.4,0.6,1.6,0.7c0.1,0.1,0.2,0.2,0.2,0.4c0,0.2-0.2,0.4-0.6,0.5c-0.3,0.1-0.6,0.4-0.9,0.9
		C107.5,11.3,106.7,12.8,105.3,15.3z M109,24.3v-7.9h-5.7v7.9H109z M109,33.5v-8h-5.7v8H109z M118.5,15.9c-1,2-2.8,4.7-5.3,8.1
		l-0.6-0.4c1.4-3.1,2.5-5.8,3.2-8c0.7-2.2,1.4-5.1,2.1-8.6c1.1,0.4,2,0.7,2.8,1.1c0.8,0.4,1.3,0.6,1.5,0.7c0.2,0.1,0.3,0.3,0.3,0.4
		s-0.2,0.3-0.6,0.4c-0.4,0.1-0.6,0.2-0.8,0.4c-0.1,0.2-0.4,0.8-0.8,1.8s-0.8,2-1.3,2.9h4.8l0.9-1.4c0.2-0.3,0.4-0.5,0.6-0.5
		c0.2,0,0.9,0.4,1.9,1.1c1,0.7,1.6,1.3,1.6,1.6c0,0.3-0.5,0.7-1.5,1.1c-0.2,7.3-0.3,12.1-0.4,14.4s-0.2,3.8-0.4,4.7
		s-0.5,1.6-0.9,2.2c-0.5,0.7-1.2,1.2-2.1,1.7c-1,0.5-1.6,0.7-2,0.7c-0.2,0-0.3-0.2-0.4-0.5c-0.2-0.7-0.4-1.2-0.7-1.5
		c-0.3-0.4-0.8-0.7-1.4-1c-0.7-0.3-1.7-0.7-3.1-1l0.2-0.7c2.8,0.4,4.5,0.6,5.2,0.6c0.7,0,1.2-0.1,1.5-0.2c0.3-0.2,0.4-0.4,0.5-0.8
		c0.1-0.4,0.2-1.2,0.3-2.4c0.1-1.3,0.2-3.3,0.3-6.2c0.1-2.9,0.2-6.3,0.2-10.4H118.5z M116.1,22.3c1.7,1.2,2.8,2.1,3.5,2.7
		c0.7,0.6,1.1,1,1.3,1.3s0.3,0.7,0.3,1.1c0,0.8-0.3,1.6-0.8,2.2c-0.5,0.7-1,1-1.3,1c-0.3,0-0.6-0.5-0.7-1.5c-0.1-1-0.4-2.1-0.9-3.3
		c-0.5-1.2-1.1-2.3-1.7-3.2L116.1,22.3z"/>
</g>
<g class="st0">
	<path class="st1" d="M157.6,34.7c0,1.8-0.7,3.5-2.2,5.1c-1.4,1.6-3.2,2.9-5.3,3.8l-0.5-1.2c0.7-0.3,1.3-0.7,1.8-0.9
		c0.5-0.3,1-0.7,1.5-1.2c0.5-0.4,0.9-0.9,1.2-1.4c0.3-0.5,0.6-1.1,0.8-1.8h-1c-1.1,0-1.8-0.2-2.3-0.6c-0.5-0.4-0.8-1-0.8-1.7
		c0-0.9,0.4-1.7,1.1-2.4c0.7-0.7,1.5-1.1,2.5-1.1c1.1,0,1.9,0.3,2.5,1C157.3,32.8,157.6,33.7,157.6,34.7z"/>
</g>
<g class="st0">
</g>
<g class="st0">
	<path class="st1" d="M94.6,62H82.9c-0.6,0-1.1,0.1-1.5,0.2l-0.7-1.5c0.5,0.1,1.1,0.2,1.8,0.2h22.3l1.9-2.8c0.2-0.3,0.4-0.5,0.5-0.5
		c0.1,0,0.5,0.2,1,0.6s1.1,0.8,1.5,1.2c0.5,0.4,0.9,0.8,1.2,1.2s0.5,0.7,0.5,0.9c0,0.4-0.2,0.6-0.7,0.6H98.6
		c-0.9,1.7-1.6,3.1-2.3,4.2c0.5,0.4,1,0.7,1.5,0.8c0.5,0.2,0.7,0.4,0.7,0.7c0,0.3-0.3,0.6-1,0.9v14.7c0,1.1,0,1.9,0,2.3l0,1.3
		c0,0.4-0.4,0.8-1.2,1.2c-0.8,0.3-1.4,0.5-1.7,0.5c-0.2,0-0.3-0.1-0.3-0.4l0.1-2c0-0.8,0-1.7,0-2.7V69c-3.5,5.1-8.1,9.2-13.8,12.4
		l-0.4-0.6c3.3-2.6,6.2-5.6,8.8-9C91.7,68.4,93.5,65.1,94.6,62z M99.6,69.3c3.3,1.4,5.7,2.5,7.2,3.4c1.5,0.9,2.5,1.6,2.9,2.3
		c0.4,0.7,0.6,1.5,0.6,2.4c0,0.9-0.2,1.7-0.5,2.3c-0.3,0.6-0.7,0.9-1.1,0.9c-0.4,0-0.7-0.1-0.9-0.3c-0.2-0.2-0.5-0.8-0.9-1.6
		c-1.5-3.4-4.1-6.3-7.8-8.8L99.6,69.3z"/>
	<path class="st1" d="M120,70.6c-1.1,1.8-2.7,4.2-4.9,7.1l-0.6-0.5c1.8-3.3,3.3-6.4,4.4-9.3s2.2-6.7,3.4-11.3
		c1.7,0.7,2.8,1.3,3.3,1.6c0.5,0.3,0.7,0.6,0.7,0.7c0,0.2-0.2,0.4-0.7,0.5c-0.2,0-0.5,0.4-0.9,1c-0.4,0.6-0.8,1.5-1.2,2.6
		c-0.4,1.1-0.8,2.2-1.3,3.2c1,0.3,1.4,0.6,1.4,0.9s-0.2,0.5-0.7,0.6v20.1c0,0.2,0,0.3-0.1,0.4c-0.1,0.1-0.3,0.2-0.7,0.4
		c-0.4,0.2-0.8,0.4-1.2,0.5c-0.4,0.1-0.7,0.2-0.8,0.2c-0.1,0-0.2-0.1-0.2-0.4l0.1-2.1c0-1.6,0.1-2.9,0.1-4.1V70.6z M140.9,61.1h1.4
		l1.4-1.8c0.2-0.3,0.4-0.4,0.7-0.4s0.8,0.4,1.7,1.3s1.3,1.4,1.3,1.6s-0.2,0.3-0.5,0.3h-6v1.4l0.1,2.6c0,0.3-0.3,0.6-1,0.9
		c-0.7,0.3-1.1,0.4-1.3,0.4c-0.2,0-0.4-0.1-0.4-0.3c0-0.2-0.1-0.5-0.1-0.9h-1.5v2.9h4.6L142,68c0.1-0.1,0.2-0.2,0.3-0.2
		c0.1,0,0.7,0.3,1.6,0.8c0.9,0.5,1.4,0.9,1.4,1.2c0,0.3-0.4,0.6-1,1v2.8c0,0.3,0,0.7,0,0.9l0.1,0.7c0,0.3-0.4,0.6-1.1,0.8
		c-0.7,0.2-1.2,0.4-1.4,0.4s-0.3-0.1-0.3-0.3v-1h-4.8v3h5.1l1.3-1.6c0.2-0.2,0.4-0.3,0.6-0.3c0.2,0,0.7,0.4,1.6,1.2
		c0.8,0.8,1.2,1.3,1.2,1.5c0,0.2-0.2,0.2-0.5,0.2h-9.3v2.9h3.6l1.3-1.6c0.1-0.2,0.3-0.2,0.5-0.2s0.8,0.4,1.8,1.2
		c0.9,0.8,1.4,1.3,1.4,1.5c0,0.2-0.2,0.2-0.6,0.2h-8v3.4h6.3l1.4-1.9c0.1-0.2,0.3-0.2,0.5-0.2c0.2,0,0.8,0.4,1.8,1.3
		c1,0.9,1.5,1.4,1.5,1.6s-0.2,0.3-0.5,0.3h-22.1c-0.6,0-1.1,0.1-1.5,0.2l-0.7-1.5c0.5,0.1,1.1,0.2,1.8,0.2h8.6v-3.4H128
		c-0.7,0-1.2,0.1-1.5,0.2l-0.6-1.5c0.5,0.1,1.1,0.2,1.8,0.2h6.3v-2.9h-7c-0.6,0-1.1,0.1-1.5,0.2l-0.6-1.5c0.5,0.1,1.1,0.2,1.8,0.2
		h7.3v-3h-4.3v1c0,0.2-0.1,0.3-0.2,0.4c-0.2,0.1-0.5,0.3-1.2,0.4c-0.6,0.2-1,0.3-1.2,0.3c-0.2,0-0.2-0.1-0.2-0.3
		c0.1-0.8,0.2-1.7,0.2-2.6v-3.9c0-1,0-2-0.1-3c1,0.4,2,0.9,3,1.6h4v-2.9h-1.1c0,0.3-0.1,0.6-0.2,0.7c-0.1,0.1-0.5,0.3-1.1,0.5
		c-0.6,0.2-1.1,0.3-1.4,0.3c-0.1,0-0.2-0.1-0.2-0.4c0.1-0.9,0.1-1.7,0.1-2.5v-2.6h-2.8c-0.6,0-1.1,0.1-1.5,0.2l-0.6-1.4
		c0.5,0.1,1.1,0.2,1.8,0.2h3.1v-1.8c0-0.8,0-1.5-0.1-2.2c2.5,0.6,3.8,1,3.8,1.2c0,0.1-0.3,0.4-0.9,0.7v2h5.4v-1.7
		c0-0.7,0-1.5-0.1-2.3c2.6,0.5,3.9,0.9,3.9,1.3c0,0.2-0.4,0.5-1.1,0.8V61.1z M133.9,70.2h-4.3v3.9h4.3V70.2z M138.2,62.1h-5.4v3h5.4
		V62.1z M141.6,74.1v-3.9h-4.8v3.9H141.6z"/>
	<path class="st1" d="M155,70.6c-1.1,1.8-2.7,4.2-4.9,7.1l-0.6-0.5c1.8-3.3,3.3-6.4,4.4-9.3s2.2-6.7,3.4-11.3
		c1.7,0.7,2.8,1.3,3.3,1.6c0.5,0.3,0.7,0.6,0.7,0.7c0,0.2-0.2,0.4-0.7,0.5c-0.2,0-0.5,0.4-0.9,1c-0.4,0.6-0.8,1.5-1.2,2.6
		c-0.4,1.1-0.8,2.2-1.3,3.2c1,0.3,1.4,0.6,1.4,0.9s-0.2,0.5-0.7,0.6v20.1c0,0.2,0,0.3-0.1,0.4c-0.1,0.1-0.3,0.2-0.7,0.4
		c-0.4,0.2-0.8,0.4-1.2,0.5c-0.4,0.1-0.7,0.2-0.8,0.2c-0.1,0-0.2-0.1-0.2-0.4l0.1-2.1c0-1.6,0.1-2.9,0.1-4.1V70.6z M175.9,61.1h1.4
		l1.4-1.8c0.2-0.3,0.4-0.4,0.7-0.4s0.8,0.4,1.7,1.3s1.3,1.4,1.3,1.6s-0.2,0.3-0.5,0.3h-6v1.4l0.1,2.6c0,0.3-0.3,0.6-1,0.9
		c-0.7,0.3-1.1,0.4-1.3,0.4s-0.4-0.1-0.4-0.3c0-0.2-0.1-0.5-0.1-0.9h-1.5v2.9h4.6L177,68c0.1-0.1,0.2-0.2,0.3-0.2s0.7,0.3,1.6,0.8
		c0.9,0.5,1.4,0.9,1.4,1.2c0,0.3-0.3,0.6-1,1v2.8c0,0.3,0,0.7,0,0.9l0.1,0.7c0,0.3-0.4,0.6-1.1,0.8c-0.7,0.2-1.2,0.4-1.4,0.4
		c-0.2,0-0.3-0.1-0.3-0.3v-1h-4.8v3h5.1l1.3-1.6c0.2-0.2,0.4-0.3,0.6-0.3c0.2,0,0.7,0.4,1.6,1.2c0.8,0.8,1.2,1.3,1.2,1.5
		c0,0.2-0.2,0.2-0.5,0.2h-9.3v2.9h3.6l1.3-1.6c0.1-0.2,0.3-0.2,0.5-0.2s0.8,0.4,1.8,1.2c0.9,0.8,1.4,1.3,1.4,1.5
		c0,0.2-0.2,0.2-0.6,0.2h-8v3.4h6.3l1.4-1.9c0.1-0.2,0.3-0.2,0.5-0.2s0.8,0.4,1.8,1.3s1.5,1.4,1.5,1.6s-0.2,0.3-0.5,0.3h-22.1
		c-0.6,0-1.1,0.1-1.5,0.2l-0.7-1.5c0.5,0.1,1.1,0.2,1.8,0.2h8.6v-3.4H163c-0.7,0-1.2,0.1-1.5,0.2l-0.6-1.5c0.5,0.1,1.1,0.2,1.8,0.2
		h6.3v-2.9h-7c-0.6,0-1.1,0.1-1.5,0.2l-0.6-1.5c0.5,0.1,1.1,0.2,1.7,0.2h7.3v-3h-4.3v1c0,0.2-0.1,0.3-0.2,0.4
		c-0.2,0.1-0.5,0.3-1.2,0.4c-0.6,0.2-1,0.3-1.2,0.3c-0.2,0-0.2-0.1-0.2-0.3c0.1-0.8,0.2-1.7,0.2-2.6v-3.9c0-1,0-2-0.1-3
		c1,0.4,2,0.9,3,1.6h4v-2.9h-1.1c0,0.3-0.1,0.6-0.2,0.7c-0.1,0.1-0.5,0.3-1.1,0.5c-0.6,0.2-1.1,0.3-1.4,0.3c-0.1,0-0.2-0.1-0.2-0.4
		c0.1-0.9,0.1-1.7,0.1-2.5v-2.6h-2.8c-0.6,0-1.1,0.1-1.5,0.2l-0.6-1.4c0.5,0.1,1.1,0.2,1.7,0.2h3.1v-1.8c0-0.8,0-1.5-0.1-2.2
		c2.5,0.6,3.8,1,3.8,1.2c0,0.1-0.3,0.4-0.9,0.7v2h5.4v-1.7c0-0.7,0-1.5-0.1-2.3c2.6,0.5,3.8,0.9,3.8,1.3c0,0.2-0.4,0.5-1.1,0.8V61.1
		z M168.9,70.2h-4.3v3.9h4.3V70.2z M173.2,62.1h-5.4v3h5.4V62.1z M176.6,74.1v-3.9h-4.8v3.9H176.6z"/>
	<path class="st1" d="M200.5,74.3h-12.9c-0.6,0-1.1,0.1-1.5,0.2l-0.6-1.4c0.5,0.1,1.1,0.2,1.8,0.2h24.6l1.7-2.2
		c0.2-0.3,0.4-0.4,0.7-0.4c0.3,0,0.6,0.2,1,0.7l1.6,1.6c0.6,0.6,0.9,1,0.9,1.2s-0.3,0.3-0.8,0.3h-13.2v4.9h4.9l1.3-1.9
		c0.2-0.3,0.3-0.4,0.4-0.4c0.1,0,0.4,0.2,0.9,0.5c0.4,0.4,0.9,0.8,1.4,1.2c0.5,0.4,0.8,0.7,1,0.9s0.2,0.3,0.2,0.5s-0.2,0.3-0.5,0.3
		h-9.6V85c1.7,0.2,3.7,0.3,6.1,0.3c2.3,0,5.1-0.2,8.4-0.5l0.1,0.7c-1.1,0.2-2,0.5-2.6,0.9c-0.6,0.4-1.1,1.1-1.3,1.9
		c0,0.1-0.1,0.2-0.2,0.3s-0.2,0.1-0.5,0.1c-1.5,0-3.5-0.1-5.9-0.4c-2.5-0.2-4.4-0.5-5.8-0.9c-1.4-0.3-2.6-0.7-3.6-1.3
		c-1-0.5-1.8-1.1-2.4-1.8c-0.7-0.7-1.2-1.6-1.8-2.6c-0.7,1.4-1.6,2.7-2.6,3.7c-1.1,1-2.8,2.3-5.2,3.7l-0.4-0.5c2.2-1.8,3.8-3.8,5-6
		c1.2-2.2,2-4.7,2.4-7.7c2.6,0.8,4,1.4,4,1.8c0,0.2-0.2,0.3-0.7,0.5c-0.5,0.2-0.8,0.5-1,1l-1,2.4c1.6,1.8,3.6,3.1,6,3.7V74.3z
		 M196.7,58.6h10.5l0.9-1.3c0.2-0.2,0.3-0.3,0.4-0.3c0.2,0,0.8,0.4,1.9,1.2c1,0.8,1.6,1.3,1.6,1.5s-0.1,0.4-0.4,0.6
		c-0.2,0.2-0.6,0.4-1.2,0.7v7c0,0.7,0,1.4,0.1,2.2l0,1.1c0,0.2-0.1,0.4-0.2,0.5c-0.1,0.1-0.6,0.3-1.4,0.5c-0.8,0.3-1.3,0.4-1.5,0.4
		c-0.2,0-0.3-0.1-0.3-0.3v-2.4h-11.3v1.3c0,0.3-0.1,0.5-0.2,0.6c-0.2,0.1-0.6,0.3-1.4,0.5c-0.8,0.2-1.3,0.4-1.4,0.4
		c-0.2,0-0.2-0.1-0.2-0.4c0.1-1.1,0.2-2.3,0.2-3.5v-9.1c0-1,0-2-0.1-3C194.2,57.2,195.5,57.8,196.7,58.6z M207.2,63.7v-4h-11.3v4
		H207.2z M207.2,68.9v-4.1h-11.3v4.1H207.2z"/>
	<path class="st1" d="M252.8,86.7c-1.4,0-2.4,0.2-3.1,0.4c-0.7,0.2-1.2,0.7-1.7,1.4c-0.2,0.3-0.4,0.3-0.8,0.2
		c-1.4-0.6-2.7-1.2-3.7-1.9c-1.1-0.7-2-1.5-2.7-2.4s-1.4-1.8-2-2.9c-0.5-1-1-2.2-1.4-3.4h-0.7c-0.5,1.7-1.1,3.1-1.8,4.3
		c-0.7,1.2-1.7,2.1-2.9,3s-2.7,1.5-4.6,2.1c-1.8,0.6-4.2,1.1-7,1.6l-0.2-0.8c1.7-0.6,3.1-1.1,4.4-1.5s2.3-0.9,3.2-1.4
		c0.9-0.5,1.7-0.9,2.3-1.4c0.6-0.5,1.1-1,1.5-1.6s0.8-1.2,1.1-1.9c0.3-0.7,0.6-1.5,0.9-2.4h-11c-0.3,0-0.5,0-0.8,0.1
		c-0.3,0-0.5,0.1-0.7,0.1l-0.6-1.5c0.3,0.1,0.6,0.1,0.9,0.1s0.5,0,0.9,0h11.5c0.2-0.8,0.4-1.5,0.5-2.1s0.2-1.3,0.3-2.1
		c0.7,0.2,1.4,0.3,2,0.5s1.1,0.3,1.5,0.5c0.8,0.3,0.8,0.6,0,0.9c-0.2,0.1-0.3,0.3-0.4,0.6c-0.1,0.3-0.3,0.9-0.5,1.7h10.4l1.3-1.9
		c0.1-0.2,0.3-0.3,0.4-0.3s0.4,0.1,0.7,0.3c0.4,0.4,0.8,0.7,1.1,1c0.3,0.3,0.6,0.7,1.1,1c0.4,0.4,0.6,0.6,0.5,0.8
		c0,0.1-0.3,0.2-0.8,0.2h-13.5c0.8,1.2,1.6,2.3,2.5,3.1c0.9,0.9,1.9,1.6,3,2.2s2.4,1.1,3.9,1.5s3.2,0.7,5.2,1V86.7z M250.9,71.7
		c0.4,0.4,0.6,0.7,0.6,0.8c0,0.1-0.3,0.2-0.8,0.2h-27.2c-0.3,0-0.5,0-0.8,0.1s-0.5,0.1-0.7,0.2l-0.6-1.5c0.3,0.1,0.6,0.1,0.8,0.1
		c0.2,0,0.5,0,0.9,0h11.5v-3.5h-8.9c-0.3,0-0.5,0-0.8,0.1c-0.3,0-0.5,0.1-0.6,0.2l-0.6-1.5c0.3,0.1,0.6,0.1,0.8,0.1
		c0.2,0,0.5,0,0.9,0h9.2v-3.4h-10.8c-0.7,0-1.1,0.1-1.4,0.2l-0.6-1.5c0.3,0.1,0.6,0.1,0.8,0.2s0.5,0.1,0.9,0.1h7.7
		c-0.1-0.1-0.2-0.1-0.3-0.1c-0.1,0-0.1-0.2-0.2-0.5c-0.1-0.4-0.2-0.8-0.3-1.2c-0.1-0.4-0.3-0.7-0.5-1c-0.2-0.3-0.4-0.7-0.7-1
		c-0.3-0.4-0.7-0.8-1.1-1.2l0.3-0.6c1.2,0.4,2.2,0.8,2.9,1.1c0.7,0.3,1.3,0.6,1.6,1c0.4,0.3,0.6,0.6,0.7,1c0.1,0.3,0.1,0.7,0,1.2
		c-0.1,0.4-0.2,0.7-0.4,0.9c-0.2,0.2-0.5,0.3-0.8,0.4h5.8c0.5-0.7,0.9-1.4,1.3-1.9c0.4-0.6,0.7-1.1,0.9-1.6c0.3-0.5,0.5-0.9,0.6-1.3
		c0.2-0.4,0.3-0.8,0.4-1.3c0.5,0.1,0.9,0.3,1.2,0.4s0.6,0.3,0.9,0.4c0.2,0.1,0.5,0.3,0.7,0.4c0.2,0.1,0.4,0.2,0.7,0.4
		c0.6,0.3,0.5,0.6-0.3,0.9c-0.4,0.1-1,0.4-1.8,1s-1.9,1.4-3.2,2.7h6.6l1.3-2c0.2-0.3,0.4-0.5,0.5-0.5c0.2,0,0.4,0.1,0.6,0.3
		c0.5,0.4,0.9,0.7,1.2,1c0.3,0.3,0.7,0.6,1.1,1.1c0.3,0.4,0.5,0.7,0.5,0.9s-0.3,0.3-0.8,0.3h-12.9V67h6.4l1.2-1.7
		c0.2-0.3,0.3-0.4,0.5-0.4s0.4,0.1,0.7,0.3c0.3,0.2,0.5,0.4,0.7,0.5c0.2,0.2,0.4,0.3,0.5,0.5c0.2,0.2,0.3,0.3,0.5,0.5
		c0.2,0.2,0.4,0.3,0.6,0.6c0.3,0.3,0.4,0.5,0.4,0.6c0,0.2-0.2,0.3-0.6,0.3h-10.8v3.5h9l0.9-1.5c0.2-0.3,0.3-0.4,0.5-0.4
		s0.4,0.1,0.6,0.3c0.5,0.4,0.9,0.7,1.1,1C250.3,71.1,250.6,71.4,250.9,71.7z"/>
	<path class="st1" d="M259.9,61.5h2.6l0.9-1.4c0.2-0.3,0.3-0.4,0.5-0.4s0.8,0.4,1.7,1.1c0.9,0.7,1.4,1.2,1.4,1.4s-0.4,0.5-1.3,0.9
		v11.3c0,1,0,1.8,0,2.2l0,1.2c0,0.2-0.1,0.4-0.3,0.5c-0.2,0.1-0.6,0.3-1.2,0.5c-0.6,0.2-1,0.3-1.2,0.3c-0.2,0-0.2-0.1-0.2-0.3v-2.2
		h-3.2v3.4c0,0.3-0.1,0.5-0.2,0.6c-0.2,0.1-0.6,0.3-1.3,0.5c-0.7,0.2-1.1,0.4-1.4,0.4c-0.1,0-0.1-0.1-0.1-0.3
		c0.1-1.2,0.2-2.3,0.2-3.5V62.7c0-1,0-2-0.1-3C257.8,60.2,258.9,60.8,259.9,61.5z M262.8,75.4V62.5h-3.2v12.9H262.8z M276.2,70.6
		h5.6l1.4-1.9c0.2-0.2,0.4-0.3,0.5-0.3c0.2,0,0.4,0.1,0.8,0.4s0.8,0.6,1.2,1.1c0.5,0.4,0.8,0.8,1,1c0.2,0.2,0.3,0.4,0.3,0.6
		s-0.3,0.2-0.8,0.2h-8.6c0.9,2.8,2.1,5.1,3.6,6.9s3.7,3.4,6.7,4.9l-0.1,0.6c-0.4,0-0.8,0-1.1,0c-1.5,0-2.5,0.4-3,1.1
		c-0.1,0.2-0.3,0.3-0.4,0.3c-0.2,0-0.3-0.1-0.4-0.2c-0.1-0.1-0.6-0.7-1.5-1.8s-1.6-2.1-2.2-3.3s-1.1-2.4-1.5-3.7s-0.7-3-1-4.8h-0.5
		v12.2l0.1,4c0,0.2-0.1,0.4-0.3,0.6c-0.2,0.1-0.7,0.3-1.4,0.6c-0.7,0.3-1.2,0.4-1.3,0.4c-0.2,0-0.3-0.1-0.3-0.3l0.1-1.6
		c0-1.1,0.1-2.1,0.1-3.1v-8.9c-2.8,4.4-6.6,8-11.5,10.6l-0.4-0.6c2.6-2.2,4.6-4.3,6.1-6.2s2.9-4.5,4.5-7.7h-3.9
		c-0.6,0-1.1,0.1-1.5,0.2l-0.6-1.4c0.5,0.1,1.1,0.2,1.8,0.2h5.6v-5.7h-4.2c-0.6,0-1.1,0.1-1.5,0.2l-0.6-1.4c0.5,0.1,1.1,0.2,1.8,0.2
		h4.5v-3.5c0-1.5,0-2.9-0.1-4c1,0.2,1.9,0.4,2.8,0.7s1.4,0.4,1.6,0.5c0.2,0.1,0.3,0.2,0.3,0.3c0,0.3-0.5,0.6-1.5,1v4.9h3.6l1.4-1.9
		c0.2-0.2,0.3-0.4,0.5-0.4c0.3,0,0.9,0.5,1.9,1.4c1,0.9,1.4,1.5,1.4,1.7c0,0.2-0.2,0.3-0.7,0.3h-8.1V70.6z"/>
</g>
<g class="st0">
	<path class="st1" d="M309.6,62.9c0,1.8-0.8,3.5-2.3,5.1s-3.4,2.9-5.5,3.8l-0.5-1.2c0.5-0.2,1.1-0.5,1.8-0.9
		c0.7-0.4,1.2-0.8,1.6-1.1c0.5-0.4,0.9-0.9,1.2-1.4c0.4-0.5,0.7-1.1,0.9-1.8h-1c-1,0-1.7-0.2-2.2-0.6c-0.5-0.4-0.7-0.9-0.7-1.6
		c0-0.9,0.4-1.7,1.1-2.4s1.6-1.1,2.6-1.1c1.1,0,1.8,0.3,2.3,0.9C309.4,61.3,309.6,62,309.6,62.9z M318,62.9c0,1.8-0.8,3.5-2.3,5.1
		s-3.4,2.9-5.5,3.8l-0.5-1.2c0.5-0.2,1.1-0.5,1.8-0.9c0.7-0.4,1.2-0.8,1.6-1.1c0.5-0.4,0.9-0.9,1.2-1.4c0.4-0.5,0.7-1.1,0.9-1.8h-1
		c-1,0-1.7-0.2-2.2-0.6c-0.5-0.4-0.7-0.9-0.7-1.6c0-0.9,0.4-1.7,1.1-2.4c0.7-0.7,1.6-1.1,2.6-1.1c1.1,0,1.8,0.3,2.3,0.9
		S318,62,318,62.9z"/>
</g>
</svg>
