<?xml version="1.0" encoding="utf-8"?>
<!-- Generator: Adobe Illustrator 24.1.0, SVG Export Plug-In . SVG Version: 6.00 Build 0)  -->
<svg version="1.1" id="圖層_1" xmlns="http://www.w3.org/2000/svg" xmlns:xlink="http://www.w3.org/1999/xlink" x="0px" y="0px"
	 viewBox="0 0 355 98" style="enable-background:new 0 0 355 98;" xml:space="preserve">
<style type="text/css">
	.st0{enable-background:new    ;}
	.st1{fill:#F48145;}
</style>
<g class="st0">
	<path class="st1" d="M10.7,12.1c-0.5,0.2-1.1,0.5-1.8,0.9c-0.7,0.4-1.2,0.8-1.6,1.1c-0.5,0.4-0.9,0.9-1.2,1.4
		c-0.4,0.5-0.7,1.1-0.9,1.8h1c1,0,1.7,0.2,2.2,0.6c0.5,0.4,0.7,0.9,0.7,1.6c0,0.9-0.4,1.7-1.1,2.4c-0.7,0.7-1.6,1.1-2.6,1.1
		c-1.1,0-1.8-0.3-2.3-0.9c-0.5-0.6-0.7-1.3-0.7-2.2c0-1.8,0.8-3.5,2.3-5.1s3.4-2.9,5.5-3.8L10.7,12.1z M19.1,12.1
		c-0.5,0.2-1.1,0.5-1.8,0.9c-0.7,0.4-1.2,0.8-1.6,1.1c-0.5,0.4-0.9,0.9-1.2,1.4c-0.4,0.5-0.7,1.1-0.9,1.8h1c1,0,1.7,0.2,2.2,0.6
		c0.5,0.4,0.7,0.9,0.7,1.6c0,0.9-0.4,1.7-1.1,2.4c-0.7,0.7-1.6,1.1-2.6,1.1c-1.1,0-1.8-0.3-2.3-0.9c-0.5-0.6-0.7-1.3-0.7-2.2
		c0-1.8,0.8-3.5,2.3-5.1c1.5-1.6,3.4-2.9,5.5-3.8L19.1,12.1z"/>
</g>
<g class="st0">
	<path class="st1" d="M43.2,12.3c-0.1-1.3-1-2.8-2.6-4.3l0.3-0.5c1.6,0.3,3,0.6,4,1.1c1,0.5,1.5,1.1,1.5,1.8c0,0.8-0.4,1.4-1.1,1.9
		h9.2l1.5-2.1c0.2-0.2,0.3-0.4,0.5-0.4c0.2,0,0.6,0.3,1.2,0.9l1.5,1.5c0.4,0.4,0.6,0.7,0.6,0.9s-0.2,0.3-0.7,0.3h-6.9
		c0.4,0.3,0.8,0.6,1.2,1c0.4,0.4,0.5,0.6,0.5,0.8c0,0.3-0.2,0.3-0.7,0.3c-0.2,0-0.4,0-0.6,0c-0.3,0-0.6,0.1-1.1,0.2
		c-0.5,0.1-1.4,0.5-2.8,1c2.5,1,3.7,2,3.7,3c0,0.1,0,0.2,0,0.4h1.4l1.4-1.9c0.2-0.2,0.3-0.3,0.5-0.3c0.2,0,0.7,0.4,1.7,1.3
		s1.5,1.4,1.5,1.7s-0.2,0.4-0.6,0.4H46.4c0.8,0.2,1.4,0.4,1.7,0.5c0.3,0.1,0.4,0.3,0.4,0.5s-0.4,0.5-1.1,0.8v2.9h4.6l1.4-2
		c0.2-0.2,0.3-0.3,0.4-0.3c0.2,0,0.7,0.5,1.7,1.4c1,0.9,1.5,1.5,1.5,1.7c0,0.2-0.2,0.3-0.6,0.3h-8.9v4.1h3.5l1.3-1.7
		c0.2-0.2,0.3-0.3,0.5-0.3s0.5,0.2,1,0.6c0.4,0.4,0.9,0.8,1.4,1.3s0.8,0.8,0.8,1c0,0.2-0.2,0.3-0.7,0.3h-7.8v4.9h7.2l1.6-2.3
		c0.2-0.3,0.4-0.4,0.5-0.4c0.3,0,1,0.5,2,1.6c1.1,1,1.6,1.7,1.6,1.9s-0.2,0.3-0.6,0.3H34.4c-0.6,0-1.1,0.1-1.5,0.2L32.3,37
		c0.5,0.1,1.1,0.2,1.8,0.2h10.3v-4.9h-4.9c-0.6,0-1.1,0.1-1.5,0.2l-0.6-1.6c0.5,0.1,1.1,0.2,1.8,0.2h5.3V27h-5.1
		c-1,1.7-2.4,3.5-4.2,5.5L34.3,32c1.8-2.8,3.1-6.3,4-10.3c0.6,0.1,1.4,0.3,2.3,0.6c0.9,0.3,1.4,0.5,1.5,0.6c0.1,0.1,0.2,0.3,0.2,0.5
		s-0.2,0.3-0.6,0.4c-0.4,0-0.7,0.1-0.8,0.2c-0.1,0.1-0.3,0.4-0.5,0.8s-0.4,0.8-0.6,1.1h4.5c0-2.8,0-4.4,0-4.7h-9.8
		c-0.2,5.4-0.7,9.3-1.6,11.9c-0.9,2.5-2.5,5-4.8,7.4L27.7,40c1.4-2.1,2.4-4.4,2.9-6.7c0.6-2.3,0.9-5.6,0.9-9.8c0-1.5,0-3.2-0.1-5.1
		c1.3,0.4,2.6,1,3.8,1.8h15.1c-0.7-0.6-2.1-1.4-4.4-2.3c-3,0.8-6.5,1.5-10.7,2L34.6,19c4.3-0.8,7.3-1.5,9-2.1
		c-2.4-1-4.9-1.8-7.4-2.6l0.2-0.6c4,0.6,7.2,1.4,9.7,2.2c1.2-0.6,2.6-1.4,4-2.3H31.8c-0.6,0-1.1,0.1-1.5,0.2l-0.6-1.6
		c0.5,0.1,1.1,0.2,1.8,0.2H43.2z"/>
	<path class="st1" d="M70.6,12.3c-1,2.4-2.2,4.6-3.4,6.7h5l1.1-1.4c0.3-0.3,0.5-0.5,0.6-0.5c0.2,0,0.6,0.4,1.4,1.1
		c0.8,0.7,1.1,1.2,1.1,1.4s-0.2,0.3-0.7,0.3h-4.4v4.8h1.3l1-1.3c0.3-0.4,0.6-0.6,0.8-0.6c0.2,0,0.7,0.4,1.4,1.2
		c0.7,0.8,1.1,1.3,1.1,1.5s-0.2,0.3-0.7,0.3h-4.9v5.4c1.1-1.6,2-3,2.7-4.3c0.9,0.4,1.7,0.8,2.2,1.1c0.5,0.3,0.8,0.5,0.8,0.7
		s-0.2,0.2-0.5,0.3c-0.6,0.1-1.1,0.4-1.4,0.7c-0.9,0.9-2.2,1.8-3.7,2.9v1.5l5.7-1.6l0.2,0.8l-7.9,3.4c-2,0.9-3.4,1.7-4.1,2.4
		c-0.2,0.1-0.3,0.2-0.4,0.2s-0.2,0-0.2-0.1c-0.1-0.1-0.3-0.5-0.6-1.1c-0.3-0.7-0.6-1.3-0.9-2c1.8-0.3,3.7-0.7,5.7-1.2v-9.1H65
		c-0.6,0-1.1,0.1-1.5,0.2l-0.8-1.4c0.5,0.1,1.1,0.2,1.8,0.2h4.2v-4.8h-2.1c-1,1.6-2.2,3.1-3.4,4.7L62.6,24c1.6-3,2.8-5.5,3.6-7.6
		c0.8-2.1,1.5-5,2.2-8.6c2.8,0.8,4.3,1.4,4.3,1.6c0,0.2-0.2,0.3-0.7,0.5c-0.2,0-0.4,0.2-0.5,0.4c-0.1,0.2-0.3,0.7-0.6,1.4
		c2.1,0.4,3.5,0.8,4.1,1.2c0.7,0.4,1,0.9,1,1.6s-0.1,1.2-0.4,1.6c-0.2,0.4-0.5,0.6-0.8,0.6c-0.3,0-0.6-0.2-0.9-0.7
		C73,14.3,71.9,13,70.6,12.3z M64.4,26.7c1.2,0.8,2.1,1.6,2.7,2.4c0.6,0.8,0.9,1.5,0.9,2c0,0.5-0.2,1-0.7,1.5
		c-0.5,0.5-0.9,0.7-1.3,0.7c-0.2,0-0.4-0.1-0.5-0.2s-0.2-0.4-0.2-0.7v-0.6c0-0.9-0.1-1.7-0.3-2.4c-0.2-0.7-0.5-1.4-0.9-2.2
		L64.4,26.7z M80.7,18.7h2.7v-8.2c0-1.1,0-2.2-0.1-3.1C84.9,7.7,86,8,86.7,8.2c0.7,0.2,1,0.4,1,0.6c0,0.2-0.4,0.6-1.3,1.2v8.7h2.9
		l0.8-1.3c0.2-0.3,0.4-0.4,0.6-0.4s0.6,0.2,1.3,0.7c0.6,0.5,1.1,0.9,1.5,1.1c0.3,0.3,0.5,0.5,0.5,0.7s-0.5,0.6-1.4,1v14.6
		c0,1.4-0.1,2.4-0.3,2.9c-0.2,0.5-0.7,1-1.5,1.5c-0.8,0.5-1.3,0.8-1.6,0.8c-0.2,0-0.3-0.2-0.4-0.6c-0.1-0.4-0.2-0.7-0.4-1
		c-0.2-0.3-0.5-0.5-1-0.8c-0.5-0.2-1.3-0.6-2.6-1.1l0.1-0.7c1.6,0.3,2.7,0.4,3.2,0.4c0.5,0,0.9-0.1,1-0.3c0.2-0.2,0.2-0.5,0.2-1
		v-5.1h-9.3v8.5c0,0.2,0,0.4-0.1,0.5c-0.1,0.1-0.3,0.2-0.5,0.4c-0.3,0.2-0.7,0.3-1.2,0.5c-0.5,0.2-0.9,0.2-1,0.2S77,40.1,77,39.8
		c0.2-2.4,0.3-4.6,0.3-6.5V20.6c0-1.3,0-2.4-0.1-3.4C78.5,17.6,79.7,18.1,80.7,18.7z M78,10.6c1.4,0.8,2.5,1.6,3.3,2.4
		c0.8,0.7,1.2,1.5,1.2,2.4c0,0.5-0.2,0.9-0.6,1.3c-0.4,0.4-0.7,0.6-1,0.6c-0.3,0-0.6-0.1-0.8-0.4c-0.2-0.3-0.4-0.7-0.5-1.2
		c-0.1-0.5-0.3-1.2-0.7-2c-0.4-0.9-0.9-1.7-1.5-2.5L78,10.6z M89.5,23.7v-4h-9.3v4H89.5z M89.5,29v-4.2h-9.3V29H89.5z M90.2,10.2
		c1.3,0.7,2.2,1.2,2.8,1.6c0.6,0.4,0.9,0.7,0.9,0.8c0,0.2-0.2,0.3-0.6,0.4c-0.4,0.1-0.8,0.2-1,0.3c-0.3,0.2-0.8,0.7-1.5,1.5
		c-0.8,0.8-1.9,1.9-3.3,3.2L87,17.5C88.1,15.3,89.2,12.8,90.2,10.2z"/>
	<path class="st1" d="M103.7,9.5h20.6l0.6-1.4c0.1-0.2,0.2-0.3,0.4-0.3s0.7,0.2,1.5,0.6c0.8,0.4,1.3,0.7,1.4,0.8
		c0.2,0.1,0.2,0.2,0.2,0.3c0,0.2-0.4,0.5-1.1,1v1.8l0.1,1.6c0,0.3-0.4,0.6-1.2,0.9c-0.8,0.2-1.2,0.3-1.4,0.3c-0.2,0-0.3-0.2-0.3-0.7
		h-8c1.4,0.5,2,0.8,2,1c0,0.1-0.2,0.2-0.5,0.3c-0.4,0.1-0.7,0.4-1.1,1h7l1.2-1.2c0.1-0.2,0.3-0.2,0.5-0.2c0.2,0,0.7,0.3,1.5,1
		c0.8,0.7,1.2,1.1,1.2,1.2s-0.2,0.3-0.6,0.3h-11.4c-0.2,0.3-0.5,0.9-1,1.5c0.6,0.2,1.1,0.4,1.3,0.6h6.6l0.7-1.3
		c0.1-0.1,0.2-0.2,0.2-0.2c0.2,0,0.7,0.2,1.5,0.6c0.9,0.4,1.3,0.7,1.4,0.8c0.1,0.1,0.2,0.2,0.2,0.2c0,0.2-0.4,0.5-1.1,0.8v3.7l0,1.8
		c0,0.3-0.1,0.5-0.2,0.6c-0.1,0.1-0.5,0.3-1,0.5c-0.6,0.2-1,0.3-1.2,0.3c-0.2,0-0.3-0.2-0.3-0.7H116c1.7,0.5,2.6,0.9,2.6,1.2
		c0,0.1-0.2,0.3-0.5,0.3c-0.3,0.1-0.7,0.4-1.1,0.9h6.5l0.5-0.9c0.1-0.2,0.2-0.2,0.4-0.2c0.2,0,0.8,0.3,1.7,0.9s1.5,1,1.5,1.1
		c0,0.2-0.2,0.3-0.6,0.4c-0.4,0.1-0.8,0.4-1.2,0.9c-1.4,1.4-2.6,2.6-3.6,3.4c2.1,0.8,4.7,1.2,7.7,1.1v0.7c-0.8,0.2-1.5,0.4-2,0.6
		s-0.9,0.7-1.3,1.3c-0.1,0.2-0.3,0.3-0.4,0.3c-0.3,0-1-0.2-2.3-0.7c-1.3-0.5-2.5-1.1-3.7-1.9c-2.6,1.5-6,2.7-10.2,3.5l-0.2-0.6
		c3.6-1.2,6.5-2.7,8.8-4.3c-1.2-1.1-2.2-2.3-3-3.9c-1.2,1.3-2.9,2.7-5.1,4.1l-0.4-0.4c2.1-2.1,3.8-4.5,5-7.1
		c-0.7,0.2-1.1,0.3-1.2,0.3c-0.1,0-0.2-0.1-0.2-0.3l0-2.3v-4.5c-0.9,1.1-1.8,2.1-2.7,3l-0.5-0.5c2.2-3.1,3.7-6.3,4.5-9.4h-11.4
		c0,3,0,5.4,0,7.2c2-2.4,3.6-4.8,4.6-7.2c1.8,0.8,2.7,1.4,2.7,1.8c0,0.2-0.2,0.3-0.6,0.3c-0.4,0-0.8,0.4-1.3,1c-1,1.3-1.8,2.3-2.6,3
		c-0.7,0.7-1.7,1.6-2.9,2.4c0,2.6-0.2,4.7-0.5,6.4c2.5-3,4.6-6.5,6.2-10.6c0.9,0.4,1.6,0.8,2.1,1.1c0.5,0.3,0.7,0.6,0.7,0.6
		c0,0.1-0.1,0.2-0.4,0.2c-0.3,0.1-0.7,0.5-1.1,1.3c-0.5,0.8-1,1.7-1.8,2.7v13.8c0,0.4-0.1,0.6-0.2,0.7c-0.1,0.1-0.4,0.3-0.9,0.6
		c-0.5,0.3-0.9,0.4-1,0.4c-0.2,0-0.3-0.1-0.3-0.3s0-0.8,0.1-1.9c0-1.1,0.1-2.3,0.1-3.7v-6.9c-1.1,1.2-2.4,2.3-3.7,3.3
		c-0.4,1.8-1,3.4-1.7,4.7c-0.7,1.3-1.8,2.8-3.2,4.4l-0.5-0.5c1.1-2.1,1.9-3.8,2.3-5.3c0.5-1.4,0.8-3.1,0.9-5
		c0.1-1.9,0.2-5.1,0.2-9.6s-0.1-8.3-0.2-11.6C101.8,8.5,102.8,9,103.7,9.5z M124.5,13.3v-2.8h-20.9v2.8H124.5z M123.4,23v-2H116v2
		H123.4z M123.4,26.2v-2.1H116v2.1H123.4z M119.9,34.3c1.5-1.1,2.6-2.2,3.3-3.5h-7C117.3,32.3,118.5,33.4,119.9,34.3z"/>
	<path class="st1" d="M139.5,10.1h19.5l1.3-1.8c0.2-0.3,0.4-0.5,0.6-0.5c0.2,0,0.8,0.4,1.8,1.3c1,0.9,1.5,1.4,1.5,1.6
		c0,0.2-0.3,0.3-0.9,0.3h-24.4c-0.1,7.4-0.3,12.7-0.6,15.8c-0.3,3.1-1,5.7-1.9,7.8c-0.9,2.1-2.4,4.1-4.3,6.2l-0.4-0.3
		c1.8-2.6,2.9-5.7,3.4-9.3c0.5-3.6,0.7-9.7,0.7-18.2c0-1.7,0-3.3,0-4.8C137,8.8,138.2,9.4,139.5,10.1z M153.6,32.5h4.1l1.1-1.5
		c0.2-0.3,0.5-0.5,0.7-0.5c0.2,0,0.7,0.4,1.5,1.2s1.1,1.3,1.1,1.5s-0.2,0.2-0.7,0.2h-7.7v4.4h6.1l1.5-1.9c0.2-0.3,0.4-0.4,0.5-0.4
		c0.2,0,0.8,0.5,1.8,1.4c1,0.9,1.5,1.5,1.5,1.8c0,0.1-0.2,0.2-0.6,0.2h-26.4c-0.6,0-1.1,0.1-1.4,0.2l-0.6-1.4c0.4,0.1,1,0.2,1.7,0.2
		h5.4v-4.9c0-1.2,0-2.2-0.1-3.1c0.5,0,1.2,0.2,2.2,0.5c0.9,0.3,1.4,0.5,1.4,0.8c0,0.2-0.3,0.5-0.8,0.8v6.1h5.1v-6.4
		c0-1.2,0-2.2-0.1-3.1c1.6,0.3,2.6,0.6,3.1,0.8c0.5,0.2,0.7,0.3,0.7,0.5s-0.3,0.4-1,0.8V32.5z M144,15.4c-1.4,0.3-2.7,0.6-4.1,0.8
		l-0.1-0.5c2.7-0.9,5.5-2.4,8.3-4.3c1.5,1.3,2.3,2.1,2.3,2.4c0,0.1-0.1,0.2-0.4,0.2c-0.3,0-0.5,0-0.5,0c-0.5,0-1,0.1-1.5,0.3
		c-0.5,0.2-1.1,0.4-1.6,0.5v3.8h0.4l0.8-1.1c0.2-0.2,0.3-0.3,0.5-0.3s0.5,0.3,1.1,1c0.6,0.6,0.8,1,0.8,1.2c0,0.1-0.2,0.2-0.6,0.2
		h-2.9v1.2c1.4,0.4,2.3,0.8,2.7,1.1c0.4,0.3,0.7,0.8,0.7,1.3c0,0.5-0.1,1-0.4,1.3c-0.2,0.3-0.5,0.5-0.7,0.5c-0.2,0-0.4-0.1-0.5-0.2
		c-0.1-0.1-0.2-0.3-0.3-0.6c-0.5-1.2-1-2.2-1.5-2.8V28c0,0.2,0,0.3-0.1,0.4c-0.1,0.1-0.4,0.2-1,0.5c-0.6,0.2-0.9,0.3-1.1,0.3
		c-0.2,0-0.3-0.1-0.3-0.4l0.1-1.3c0-0.9,0-1.9,0-2.9v-2.4c-0.9,1.9-2.4,4-4.7,6.3l-0.3-0.3c1.8-2.8,3.2-5.7,4.4-8.6h-2.2
		c-0.5,0-0.9,0-1.3,0.1l-0.5-1.2c0.4,0.1,1,0.1,1.5,0.1h3.1V15.4z M154.4,15.2c-1.6,0.4-3.3,0.6-4.9,0.7v-0.5
		c2.6-0.8,5.5-2.2,8.7-4.1c0.7,0.4,1.3,0.9,1.9,1.5c0.5,0.5,0.8,0.9,0.8,1c0,0.1,0,0.2-0.1,0.2c-0.1,0-0.4,0-1,0s-1.6,0.2-3,0.6v4.1
		h2.4l1.2-1.7c0.2-0.3,0.4-0.5,0.6-0.5s0.7,0.4,1.6,1.2c0.9,0.8,1.3,1.3,1.3,1.6s-0.2,0.3-0.7,0.3h-5.2c1.1,2.7,3.3,4.8,6.7,6.3
		l-0.1,0.5c-0.4-0.1-0.7-0.1-1.1-0.1c-0.9,0-1.7,0.3-2.3,1c-0.2,0.2-0.3,0.2-0.4,0.2c-0.2,0-0.8-0.7-1.6-2.1c-0.9-1.4-1.5-3.4-2-5.9
		h-0.4v7.4c0,0.1,0,0.2-0.1,0.3c0,0.1-0.2,0.2-0.5,0.3c-0.3,0.1-0.6,0.3-1,0.4c-0.4,0.1-0.6,0.2-0.8,0.2c-0.1,0-0.2-0.2-0.2-0.5
		l0.1-1.3c0-0.9,0-1.9,0-2.9V22c-0.9,1.9-2.8,4.1-5.7,6.6l-0.4-0.3c2.3-2.7,3.9-5.5,4.8-8.5h-1.2c-0.4,0-0.9,0-1.3,0.1l-0.5-1.3
		c0.5,0.1,1,0.1,1.5,0.1h2.7V15.2z"/>
</g>
<g class="st0">
	<path class="st1" d="M192.6,34.7c0,1.8-0.7,3.5-2.2,5.1s-3.2,2.9-5.3,3.8l-0.5-1.2c0.7-0.3,1.3-0.7,1.8-0.9c0.5-0.3,1-0.7,1.5-1.2
		c0.5-0.4,0.9-0.9,1.2-1.4c0.3-0.5,0.6-1.1,0.8-1.8h-1c-1.1,0-1.8-0.2-2.3-0.6c-0.5-0.4-0.8-1-0.8-1.7c0-0.9,0.4-1.7,1.1-2.4
		c0.7-0.7,1.5-1.1,2.5-1.1c1.1,0,1.9,0.3,2.5,1C192.3,32.8,192.6,33.7,192.6,34.7z"/>
</g>
<g class="st0">
</g>
<g class="st0">
	<path class="st1" d="M93.6,61.5c-4.1,0.2-8,0.3-11.9,0.3l0-0.9c10.2-0.5,18.4-1.9,24.9-4.3c1.8,2,2.8,3.1,2.8,3.5
		c0,0.1-0.1,0.2-0.2,0.2c-0.2,0-0.4,0-0.7-0.1c-0.3-0.1-0.7-0.1-1.1-0.1c-0.4,0-1.4,0.1-2.8,0.3s-3.8,0.5-7.1,0.8
		c-0.4,1.4-0.8,2.5-1.2,3.5h7.7l1.3-1.9c0.2-0.4,0.5-0.5,0.7-0.5c0.2,0,0.8,0.5,1.8,1.4c1,0.9,1.5,1.5,1.5,1.8
		c0,0.2-0.4,0.3-1.1,0.3H95.7c-0.4,1.1-0.9,2.1-1.4,3h13.4l1.3-1.8c0.3-0.4,0.6-0.6,0.8-0.6c0.2,0,0.9,0.5,1.8,1.4
		c1,0.9,1.5,1.5,1.5,1.7s-0.3,0.3-1,0.3H93.8c-0.4,0.8-0.8,1.5-1.3,2.3l0.3,0.4h10.8l0.7-0.9c0.1-0.2,0.2-0.2,0.4-0.2
		c0.3,0,1,0.3,2.2,0.8c1.2,0.5,1.8,0.9,1.8,1.1c0,0.2-0.4,0.6-1.3,1.1v11.3c0,0.4,0,0.8,0,1.1l0.1,0.8c0,0.1,0,0.1,0,0.2
		c0,0.1-0.3,0.2-0.7,0.4s-1,0.3-1.6,0.5c-0.6,0.1-0.9,0.2-1.1,0.2c-0.1,0-0.2-0.1-0.2-0.3v-2.6H92.5v1.9c0,0.3-0.1,0.4-0.2,0.5
		c-0.1,0.1-0.6,0.3-1.5,0.5S89.5,89,89.2,89c-0.1,0-0.2-0.1-0.1-0.3c0.1-0.7,0.1-2,0.1-3.6v-9c-1.4,1.4-2.7,2.6-3.9,3.5
		c-1.3,0.9-2.9,2-4.9,3.3l-0.5-0.7c2.6-2,4.8-3.9,6.4-5.8c1.7-1.9,3.1-4.1,4.4-6.6h-8c-0.7,0-1.1,0.1-1.5,0.2l-0.7-1.4
		c0.5,0.1,1.1,0.2,1.8,0.2h8.9c0.5-1.1,0.9-2.1,1.2-3h-6.5c-0.7,0-1.1,0.1-1.5,0.2l-0.8-1.4c0.5,0.1,1.1,0.2,1.8,0.2h7.5
		C93,63.7,93.3,62.7,93.6,61.5z M92.5,76.4h11.4v-2.9H92.5V76.4z M103.9,77.4H92.5v3h11.4V77.4z M103.9,84.7v-3.3H92.5v3.3H103.9z"
		/>
	<path class="st1" d="M126.9,76.7c0.4,0.2,1,0.5,1.9,1c0.9,0.5,1.4,0.8,1.5,0.9c0.1,0.1,0.2,0.2,0.2,0.3c0,0.1,0,0.2-0.1,0.2
		c-0.1,0-0.2,0-0.5,0c-0.6,0-1,0.4-1.5,1.2c-1.1,1.8-2.2,3.2-3.2,4.4c-1,1.2-2.3,2.2-3.8,3c-1.6,0.8-3.7,1.5-6.3,2l-0.2-0.6
		c3.5-1.7,6.1-3.4,7.8-5.2C124.2,82.3,125.7,79.9,126.9,76.7z M125,59.5h13.4l0.8-1.5c0.1-0.2,0.3-0.3,0.5-0.3
		c0.2,0,0.7,0.2,1.5,0.7c0.7,0.5,1.3,0.8,1.7,1.1c0.4,0.2,0.6,0.5,0.6,0.7s-0.5,0.5-1.4,0.9v13.7c0,0.8,0,1.4,0,1.8l0,1
		c0,0.1,0,0.2-0.1,0.2c0,0-0.3,0.1-0.6,0.3c-0.4,0.2-0.9,0.3-1.5,0.5c-0.6,0.2-0.9,0.3-1,0.3c-0.1,0-0.1-0.1-0.1-0.4v-1.8h-3.4v7.9
		c0,0.5,0.2,0.9,0.5,1c0.3,0.1,1.1,0.2,2.4,0.2c1.3,0,2.3-0.1,3.1-0.2c0.8-0.1,1.4-0.3,1.6-0.4c0.3-0.1,0.5-0.4,0.7-0.9
		c0.2-0.5,0.4-1.2,0.5-2.2c0.1-1,0.3-2.5,0.5-4.6h1c-0.1,1.5-0.1,2.7-0.1,3.7c0,1,0,1.7,0.1,2.3s0.2,0.9,0.4,1.2
		c0.2,0.2,0.5,0.5,0.9,0.7c0.4,0.2,0.6,0.4,0.6,0.6c0,0.3-0.3,0.7-0.8,1.3c-0.5,0.6-1.1,1-1.9,1.2c-0.7,0.2-2,0.3-3.8,0.3
		c-1.8,0-3.5,0-5.1-0.1c-1.6-0.1-2.6-0.3-3.1-0.7c-0.5-0.4-0.8-1.4-0.8-3v-8.2H124v1.6c0,0.2-0.1,0.4-0.3,0.6
		c-0.2,0.1-0.6,0.3-1.4,0.5c-0.7,0.2-1.2,0.3-1.5,0.3c-0.1,0-0.2-0.1-0.2-0.3l0.1-1.6c0-1.1,0.1-2.1,0.1-3.1v-14c0-1,0-2-0.1-3
		C122.5,58.2,124,58.8,125,59.5z M138.9,65v-4.6h-15V65H138.9z M138.9,70.5V66h-15v4.4H138.9z M138.9,75.7v-4.3h-15v4.3H138.9z"/>
	<path class="st1" d="M158.7,80.5c-0.1,0.2-0.2,0.3-0.3,0.4c0,0-0.2,0.1-0.3,0.1c-0.4,0.1-0.8,0.1-1.1,0.1c-0.3,0-0.6,0-0.9,0
		c-0.5,0-0.6-0.2-0.4-0.6c0.3-0.4,0.7-1,1.1-1.6s0.8-1.4,1.3-2.1c0.4-0.7,0.8-1.5,1.2-2.2c0.4-0.7,0.7-1.4,1-1.9h-7.9
		c-0.3,0-0.6,0-0.8,0.1s-0.5,0.1-0.6,0.2l-0.6-1.6c0.3,0.1,0.6,0.1,0.9,0.1c0.2,0,0.5,0,0.9,0h8.9c0.5-1.1,1.1-2.3,1.5-3.4
		c0.5-1.2,1-2.4,1.5-3.9c0.7,0.3,1.3,0.5,2,0.8c0.6,0.3,1.3,0.6,1.9,0.9c0.3,0.1,0.4,0.3,0.4,0.4c0,0.2-0.1,0.3-0.5,0.4
		c-0.4,0.1-0.7,0.2-0.9,0.3c-0.3,0.1-0.5,0.5-0.8,1c-0.3,0.4-0.5,0.8-0.7,1.1c-0.2,0.3-0.4,0.6-0.5,0.8c-0.2,0.2-0.3,0.5-0.4,0.7
		s-0.3,0.4-0.5,0.7h13.3l1.3-2.1c0.2-0.3,0.4-0.4,0.5-0.4c0.1,0,0.4,0.1,0.7,0.3c0.3,0.2,0.5,0.4,0.7,0.6s0.4,0.3,0.6,0.5
		c0.2,0.2,0.4,0.4,0.6,0.5c0.2,0.2,0.4,0.4,0.7,0.7c0.3,0.3,0.4,0.6,0.4,0.8s-0.3,0.3-0.6,0.3h-7.8c-0.5,1.6-1.1,3.1-1.7,4.6
		c-0.7,1.4-1.4,2.7-2.2,3.7c1.7,0.5,3.1,0.9,4.1,1.3c1,0.4,1.8,0.8,2.4,1.2c0.6,0.4,0.9,0.7,1.1,1.1c0.2,0.4,0.3,0.8,0.3,1.2
		c0.1,1,0,1.7-0.2,2.1c-0.2,0.4-0.5,0.7-1,0.9c-0.2,0.1-0.4,0-0.7-0.1c-0.3-0.2-0.6-0.4-0.9-0.8c-0.5-0.6-1-1.2-1.5-1.7
		c-0.5-0.5-1-0.9-1.6-1.3c-0.5-0.4-1.1-0.8-1.8-1.1c-0.6-0.3-1.3-0.7-2-1c-1.8,1.8-4.2,3.2-7,4.2c-2.8,1.1-6,1.8-9.6,2.3l-0.1-0.6
		c1.7-0.5,3.2-1,4.6-1.5c1.4-0.5,2.7-1.1,3.8-1.6c1.2-0.6,2.2-1.2,3.1-1.8c0.9-0.6,1.8-1.3,2.6-2c-1.1-0.4-2.2-0.7-3.3-0.9
		c-1.1-0.3-2.3-0.5-3.5-0.7C158.9,80.3,158.8,80.4,158.7,80.5z M180.6,63.1c0.3,0.2,0.4,0.5,0.3,0.7s-0.3,0.3-0.8,0.3
		c-0.3,0-0.6,0-0.9,0.1c-0.3,0.1-0.7,0.2-1.1,0.5s-1,0.6-1.7,1.1s-1.6,1.2-2.7,2.1l-0.6-0.3c0.5-0.8,1-1.6,1.3-2.4
		c0.4-0.8,0.7-1.5,0.9-2.2h-19.4c0.1,1.2,0.1,2,0.1,2.6c-0.1,0.6-0.3,1-0.7,1.4c-0.7,0.7-1.4,1-2.1,1c-0.7,0-1.2-0.3-1.6-0.7
		c-0.2-0.3-0.3-0.6-0.2-0.9c0-0.3,0.3-0.7,0.7-1c0.4-0.4,0.8-0.7,1.1-0.9c0.3-0.3,0.5-0.5,0.7-0.9c0.2-0.3,0.3-0.7,0.5-1.2
		c0.1-0.5,0.3-1.1,0.4-1.8h0.8c0.1,0.3,0.2,0.5,0.2,0.7c0,0.2,0.1,0.4,0.1,0.6h8.9c-0.1-0.5-0.2-1-0.2-1.4c-0.1-0.4-0.2-0.8-0.4-1.2
		c-0.2-0.4-0.4-0.7-0.7-1.1c-0.3-0.3-0.7-0.7-1.1-1.2l0.2-0.6c1.4,0.4,2.5,0.7,3.3,0.9c0.8,0.3,1.4,0.6,1.8,0.9
		c0.4,0.3,0.6,0.6,0.7,0.9c0.1,0.3,0.1,0.7,0,1.1c0,0.4-0.2,0.7-0.4,0.9c-0.2,0.3-0.6,0.5-1.1,0.6h8.4l0.9-1.6
		c0.1-0.2,0.3-0.3,0.4-0.3c0.1,0,0.3,0.1,0.6,0.2c0.7,0.5,1.2,1,1.8,1.4C179.4,62.1,179.9,62.5,180.6,63.1z M163.4,72.7
		c-0.3,0.4-0.5,0.9-0.8,1.5c-0.3,0.5-0.6,1.1-0.9,1.6c-0.3,0.5-0.6,1.1-1,1.6s-0.6,1-0.9,1.5c1.3,0.2,2.6,0.4,3.9,0.6
		c1.3,0.2,2.5,0.5,3.6,0.7c0.8-1,1.4-2.1,2-3.3c0.5-1.2,1-2.6,1.4-4.2H163.4z"/>
	<path class="st1" d="M190.6,70.8c0.3,1.9,0.5,3.5,0.5,4.8c0,2.1-0.4,3.7-1.3,4.6c-0.9,0.9-1.7,1.4-2.6,1.4c-0.5,0-0.9-0.2-1.3-0.5
		c-0.4-0.4-0.6-0.7-0.6-1.1s0.3-0.8,0.8-1.3c1.4-1.3,2.3-2.5,2.7-3.7c0.4-1.2,0.7-2.6,0.9-4.2H190.6z M210.3,76.7
		c0.1,1.8,0.2,3.2,0.3,4.2s0.4,1.6,0.7,2s0.7,0.8,1.3,1.1c0.4,0.2,0.6,0.4,0.6,0.6s-0.2,0.6-0.6,1.3s-0.9,1.2-1.4,1.4
		c-0.5,0.3-1.2,0.4-2,0.5c-0.8,0.1-2.6,0.1-5.3,0.1s-4.6,0-5.5-0.1c-0.9-0.1-1.7-0.2-2.3-0.4s-1-0.5-1.1-1c-0.2-0.4-0.2-1.2-0.2-2.3
		V67.1c0-1,0-1.9-0.1-2.9c1.1,0.3,2.2,0.6,3.2,0.9s1.5,0.7,1.5,0.9s-0.5,0.5-1.5,0.8v16c0,0.7,0.1,1.1,0.2,1.3
		c0.1,0.2,0.3,0.3,0.5,0.4c0.2,0,0.8,0.1,1.8,0.2c1,0.1,2.1,0.1,3.3,0.1c2.6,0,4.2-0.2,4.6-0.7c0.4-0.5,0.9-3,1.3-7.4H210.3z
		 M200,56.9c4.5,2.8,6.8,5.1,6.8,6.9c0,0.8-0.2,1.5-0.6,2.2s-0.9,1-1.4,1c-0.3,0-0.6-0.1-0.9-0.4c-0.3-0.3-0.5-0.6-0.5-1
		c-0.3-1.4-0.7-2.7-1.4-4c-0.7-1.2-1.5-2.5-2.5-4L200,56.9z M210.6,69.4c4.9,3,7.4,5.6,7.4,7.7c0,0.7-0.3,1.5-0.8,2.2
		c-0.5,0.8-1,1.2-1.4,1.2c-0.7,0-1.1-0.5-1.3-1.6c-0.6-3.3-2.1-6.3-4.4-8.8L210.6,69.4z"/>
	<path class="st1" d="M228.3,64.3h3.4l0.9-1.4c0.2-0.3,0.3-0.4,0.5-0.4c0.2,0,0.8,0.3,1.8,0.9c1,0.6,1.5,1.1,1.5,1.4s-0.4,0.6-1.3,1
		v15.5c0,1,0,1.8,0,2.2l0,1.2c0,0.1,0,0.2-0.1,0.3c-0.1,0.1-0.3,0.2-0.6,0.4c-0.4,0.2-0.8,0.4-1.3,0.5c-0.5,0.2-0.9,0.3-1,0.3
		c-0.1,0-0.2-0.1-0.2-0.4v-2.2h-5.7v2.1c0,0.3-0.1,0.5-0.3,0.6c-0.2,0.1-0.7,0.3-1.4,0.6c-0.7,0.3-1.2,0.4-1.4,0.4s-0.3-0.1-0.3-0.4
		c0.1-1.1,0.2-2.2,0.2-3.5V65.5c0-1,0-2-0.1-3c1.3,0.4,2.5,1,3.5,1.6c0.7-3.2,1.1-5.8,1.1-7.7c1,0.2,2,0.5,2.9,0.8
		c0.9,0.3,1.4,0.6,1.6,0.7c0.1,0.1,0.2,0.2,0.2,0.4c0,0.2-0.2,0.4-0.6,0.5c-0.3,0.1-0.6,0.4-0.9,0.9
		C230.5,60.3,229.6,61.8,228.3,64.3z M231.9,73.3v-7.9h-5.7v7.9H231.9z M231.9,82.5v-8h-5.7v8H231.9z M241.4,64.9
		c-1,2-2.8,4.7-5.3,8.1l-0.6-0.4c1.4-3.1,2.5-5.8,3.2-8c0.7-2.2,1.4-5.1,2.1-8.6c1.1,0.4,2,0.7,2.8,1.1c0.8,0.4,1.3,0.6,1.5,0.7
		c0.2,0.1,0.3,0.3,0.3,0.4s-0.2,0.3-0.6,0.4c-0.4,0.1-0.6,0.2-0.8,0.4c-0.1,0.2-0.4,0.8-0.8,1.8s-0.8,2-1.3,2.9h4.8l0.9-1.4
		c0.2-0.3,0.4-0.5,0.6-0.5c0.2,0,0.9,0.4,1.9,1.1c1,0.7,1.6,1.3,1.6,1.6c0,0.3-0.5,0.7-1.5,1.1c-0.2,7.3-0.3,12.1-0.4,14.4
		c-0.1,2.3-0.2,3.8-0.4,4.7s-0.5,1.6-0.9,2.2s-1.2,1.2-2.1,1.7s-1.6,0.7-2,0.7c-0.2,0-0.3-0.2-0.4-0.5c-0.2-0.7-0.4-1.2-0.7-1.5
		c-0.3-0.4-0.8-0.7-1.4-1c-0.7-0.3-1.7-0.7-3.1-1l0.2-0.7c2.8,0.4,4.5,0.6,5.2,0.6c0.7,0,1.2-0.1,1.5-0.2c0.3-0.2,0.4-0.4,0.5-0.8
		c0.1-0.4,0.2-1.2,0.3-2.4c0.1-1.3,0.2-3.3,0.3-6.2c0.1-2.9,0.2-6.3,0.2-10.4H241.4z M239,71.3c1.7,1.2,2.8,2.1,3.5,2.7
		c0.7,0.6,1.1,1,1.3,1.3c0.2,0.3,0.3,0.7,0.3,1.1c0,0.8-0.3,1.6-0.8,2.2c-0.5,0.7-1,1-1.3,1c-0.3,0-0.6-0.5-0.7-1.5
		c-0.1-1-0.4-2.1-0.9-3.3s-1.1-2.3-1.7-3.2L239,71.3z"/>
	<path class="st1" d="M259.9,61.5h2.6l0.9-1.4c0.2-0.3,0.3-0.4,0.5-0.4s0.8,0.4,1.7,1.1c0.9,0.7,1.4,1.2,1.4,1.4s-0.4,0.5-1.3,0.9
		v11.3c0,1,0,1.8,0,2.2l0,1.2c0,0.2-0.1,0.4-0.3,0.5c-0.2,0.1-0.6,0.3-1.2,0.5c-0.6,0.2-1,0.3-1.2,0.3c-0.2,0-0.2-0.1-0.2-0.3v-2.2
		h-3.2v3.4c0,0.3-0.1,0.5-0.2,0.6c-0.2,0.1-0.6,0.3-1.3,0.5c-0.7,0.2-1.1,0.4-1.4,0.4c-0.1,0-0.1-0.1-0.1-0.3
		c0.1-1.2,0.2-2.3,0.2-3.5V62.7c0-1,0-2-0.1-3C257.8,60.2,258.9,60.8,259.9,61.5z M262.8,75.4V62.5h-3.2v12.9H262.8z M276.2,70.6
		h5.6l1.4-1.9c0.2-0.2,0.4-0.3,0.5-0.3c0.2,0,0.4,0.1,0.8,0.4s0.8,0.6,1.2,1.1c0.5,0.4,0.8,0.8,1,1c0.2,0.2,0.3,0.4,0.3,0.6
		s-0.3,0.2-0.8,0.2h-8.6c0.9,2.8,2.1,5.1,3.6,6.9s3.7,3.4,6.7,4.9l-0.1,0.6c-0.4,0-0.8,0-1.1,0c-1.5,0-2.5,0.4-3,1.1
		c-0.1,0.2-0.3,0.3-0.4,0.3c-0.2,0-0.3-0.1-0.4-0.2c-0.1-0.1-0.6-0.7-1.5-1.8s-1.6-2.1-2.2-3.3s-1.1-2.4-1.5-3.7s-0.7-3-1-4.8h-0.5
		v12.2l0.1,4c0,0.2-0.1,0.4-0.3,0.6c-0.2,0.1-0.7,0.3-1.4,0.6c-0.7,0.3-1.2,0.4-1.3,0.4c-0.2,0-0.3-0.1-0.3-0.3l0.1-1.6
		c0-1.1,0.1-2.1,0.1-3.1v-8.9c-2.8,4.4-6.6,8-11.5,10.6l-0.4-0.6c2.6-2.2,4.6-4.3,6.1-6.2s2.9-4.5,4.5-7.7h-3.9
		c-0.6,0-1.1,0.1-1.5,0.2l-0.6-1.4c0.5,0.1,1.1,0.2,1.8,0.2h5.6v-5.7h-4.2c-0.6,0-1.1,0.1-1.5,0.2l-0.6-1.4c0.5,0.1,1.1,0.2,1.8,0.2
		h4.5v-3.5c0-1.5,0-2.9-0.1-4c1,0.2,1.9,0.4,2.8,0.7s1.4,0.4,1.6,0.5c0.2,0.1,0.3,0.2,0.3,0.3c0,0.3-0.5,0.6-1.5,1v4.9h3.6l1.4-1.9
		c0.2-0.2,0.3-0.4,0.5-0.4c0.3,0,0.9,0.5,1.9,1.4c1,0.9,1.4,1.5,1.4,1.7c0,0.2-0.2,0.3-0.7,0.3h-8.1V70.6z"/>
	<path class="st1" d="M323.1,85.5c-0.7,0.2-1.2,0.4-1.6,0.6c-0.4,0.2-0.7,0.4-0.9,0.6s-0.4,0.5-0.5,0.7c-0.1,0.3-0.2,0.6-0.3,1
		c0,0.2-0.2,0.3-0.6,0.3c-3.3,0-6.1-0.1-8.6-0.2c-2.5-0.1-4.3-0.3-5.6-0.4c-0.9-0.1-1.7-0.3-2.6-0.6c-0.8-0.3-1.6-0.6-2.3-1
		c-0.7-0.4-1.4-0.8-2.1-1.3c-0.6-0.5-1.2-1-1.7-1.5c-0.7,1.2-1.6,2.2-2.6,3c-1,0.8-2.2,1.6-3.5,2.2l-0.4-0.5c1.1-0.8,2-1.6,2.7-2.4
		c0.7-0.7,1.3-1.6,1.8-2.5c0.5-0.9,0.9-1.9,1.2-3c0.3-1.1,0.6-2.5,0.8-4.1h-2.8l-0.3,0.6c-0.1,0.3-0.3,0.5-0.6,0.5
		c-0.4,0-0.6-0.1-0.8-0.1c-0.2,0-0.4-0.1-0.8-0.2c-0.3-0.1-0.4-0.3-0.2-0.6c0.3-0.4,0.6-0.9,1-1.5c0.3-0.5,0.6-1.2,1-1.8l2.2-4.2
		h-2.9c-0.3,0-0.5,0-0.8,0.1c-0.3,0-0.4,0.1-0.6,0.2l-0.5-1.4c0.3,0.1,0.5,0.1,0.7,0.1c0.2,0,0.5,0,0.8,0h3l1-1.4
		c0.2-0.2,0.3-0.3,0.4-0.3c0.1,0,0.3,0.1,0.5,0.2c0.4,0.3,0.8,0.6,1,0.9c0.3,0.3,0.5,0.5,0.8,0.9c0.3,0.4,0.4,0.6,0.3,0.8
		c-0.1,0.2-0.6,0.4-1.5,0.6l-3.2,5.7h2.1l0.6-1c0.1-0.2,0.2-0.3,0.3-0.3s0.2,0.1,0.4,0.2c0.3,0.2,0.7,0.5,1,0.7
		c0.3,0.2,0.6,0.5,1,0.8c0.6,0.4,0.5,0.7-0.2,1c-0.2,0.1-0.3,0.2-0.4,0.4s-0.2,0.5-0.3,1.1c-0.4,1.6-0.9,2.9-1.4,4.1
		c0.9,0.7,2,1.4,3.3,2c1.3,0.6,2.9,0.9,4.7,1c1,0,2,0.1,3.1,0.1c1.1,0,2.3,0,3.7,0s3-0.1,4.7-0.2c1.8-0.1,3.9-0.3,6.3-0.5
		L323.1,85.5z M298,63.3c0,0.2-0.1,0.5-0.2,0.7c-0.1,0.2-0.3,0.4-0.5,0.6c-0.2,0.2-0.3,0.3-0.5,0.4c-0.2,0.1-0.3,0.2-0.4,0.2
		c-0.3,0-0.4-0.1-0.5-0.2c-0.1-0.1-0.2-0.4-0.3-0.9c-0.2-0.9-0.6-1.8-1-2.7c-0.5-1-1.1-2-1.9-3.1l0.3-0.4c1.2,0.7,2.2,1.3,2.9,1.8
		c0.7,0.5,1.2,1,1.6,1.3c0.3,0.4,0.5,0.8,0.6,1.1C298.1,62.4,298.1,62.8,298,63.3z M320.5,63.5c0.5,0.5,0.7,0.8,0.7,0.9
		c0,0.2-0.3,0.2-0.9,0.2h-9.4c-0.4,0.5-0.7,1.1-1,1.6c-0.3,0.5-0.6,1.1-1,1.8h4.9l1.2-1.5c0.1-0.2,0.2-0.2,0.3-0.3
		c0.1,0,0.3,0.1,0.5,0.2c0.4,0.3,0.8,0.5,1.1,0.7c0.3,0.2,0.7,0.5,1.1,0.8c0.3,0.2,0.3,0.4,0.3,0.6s-0.4,0.4-1,0.7v11.5
		c0,0.2,0,0.5,0,0.7c0,0.3,0,0.5,0.1,0.8c0,0.2,0,0.3-0.1,0.4c-0.5,0.3-0.9,0.5-1.2,0.7c-0.4,0.2-0.8,0.3-1.3,0.4
		c-0.2,0-0.3-0.1-0.3-0.2v-2h-9.4V83c0,0.2-0.1,0.4-0.3,0.5c-0.4,0.2-0.8,0.4-1.3,0.6s-1,0.3-1.3,0.3c-0.1,0-0.2-0.1-0.1-0.3
		c0-0.4,0.1-0.8,0.1-1.3c0-0.5,0-1.1,0-1.9V68.8c0-0.5,0-1,0-1.3s0-0.6,0-0.9c0.5,0.2,1.1,0.4,1.6,0.6c0.5,0.2,1.1,0.5,1.6,0.8h2.1
		c0.1-0.6,0.2-1.2,0.3-1.7c0.1-0.5,0.2-1.1,0.3-1.7h-5.5c-0.1,0-0.3,0-0.5,0c-0.2,0-0.4,0-0.6,0s-0.4,0-0.5,0.1
		c-0.2,0-0.3,0.1-0.3,0.1l-0.8-1.4c0.3,0,0.6,0.1,1.1,0.1s0.8,0,1.1,0h8.5c0.5-1,1.1-2,1.8-3.2c0.7-1.2,1.3-2.5,1.7-3.9
		c0.6,0.3,1.2,0.6,1.7,0.9s1,0.6,1.6,0.9c0.3,0.2,0.4,0.4,0.3,0.5c0,0.2-0.2,0.3-0.5,0.3c-0.3,0-0.5,0.1-0.6,0.2
		c-0.2,0.1-0.4,0.3-0.7,0.6c-0.3,0.3-0.6,0.6-0.9,0.9c-0.3,0.3-0.7,0.6-1.1,1c-0.4,0.3-0.7,0.7-1,1c-0.3,0.3-0.6,0.6-0.8,0.9h4.6
		l0.8-1.8c0.2-0.4,0.4-0.6,0.6-0.6c0.2,0,0.4,0.2,0.8,0.4c0.4,0.3,0.8,0.6,1.2,0.9C319.8,62.9,320.2,63.2,320.5,63.5z M308.5,61.7
		c-0.2,0.5-0.5,0.9-0.8,1.2c-0.3,0.3-0.6,0.5-0.9,0.5c-0.1,0-0.3-0.1-0.6-0.2c-0.3-0.1-0.5-0.4-0.5-0.9c-0.1-0.5-0.2-1-0.3-1.4
		s-0.3-0.8-0.5-1.2c-0.2-0.4-0.5-0.8-0.8-1.2c-0.3-0.4-0.7-0.9-1.1-1.5l0.5-0.4c1.1,0.6,2,1.1,2.8,1.5s1.3,0.9,1.6,1.3
		c0.4,0.4,0.6,0.8,0.7,1.2S308.6,61.3,308.5,61.7z M314.3,69.1h-9.4v3h9.4V69.1z M314.3,73.2h-9.4v3.1h9.4V73.2z M314.3,77.4h-9.4
		v3.2h9.4V77.4z"/>
</g>
<g class="st0">
	<path class="st1" d="M344.6,62.9c0,1.8-0.8,3.5-2.3,5.1s-3.4,2.9-5.5,3.8l-0.5-1.2c0.5-0.2,1.1-0.5,1.8-0.9
		c0.7-0.4,1.2-0.8,1.6-1.1c0.5-0.4,0.9-0.9,1.2-1.4c0.4-0.5,0.7-1.1,0.9-1.8h-1c-1,0-1.7-0.2-2.2-0.6c-0.5-0.4-0.7-0.9-0.7-1.6
		c0-0.9,0.4-1.7,1.1-2.4s1.6-1.1,2.6-1.1c1.1,0,1.8,0.3,2.3,0.9C344.4,61.3,344.6,62,344.6,62.9z M353,62.9c0,1.8-0.8,3.5-2.3,5.1
		s-3.4,2.9-5.5,3.8l-0.5-1.2c0.5-0.2,1.1-0.5,1.8-0.9c0.7-0.4,1.2-0.8,1.6-1.1c0.5-0.4,0.9-0.9,1.2-1.4c0.4-0.5,0.7-1.1,0.9-1.8h-1
		c-1,0-1.7-0.2-2.2-0.6c-0.5-0.4-0.7-0.9-0.7-1.6c0-0.9,0.4-1.7,1.1-2.4c0.7-0.7,1.6-1.1,2.6-1.1c1.1,0,1.8,0.3,2.3,0.9
		S353,62,353,62.9z"/>
</g>
</svg>
