<?xml version="1.0" encoding="utf-8"?>
<!-- Generator: Adobe Illustrator 24.1.0, SVG Export Plug-In . SVG Version: 6.00 Build 0)  -->
<svg version="1.1" id="圖層_1" xmlns="http://www.w3.org/2000/svg" xmlns:xlink="http://www.w3.org/1999/xlink" x="0px" y="0px"
	 viewBox="0 0 276 98" style="enable-background:new 0 0 276 98;" xml:space="preserve">
<style type="text/css">
	.st0{enable-background:new    ;}
	.st1{fill:#F48145;}
</style>
<g class="st0">
	<path class="st1" d="M10.7,12.1c-0.5,0.2-1.1,0.5-1.8,0.9c-0.7,0.4-1.2,0.8-1.6,1.1c-0.5,0.4-0.9,0.9-1.2,1.4
		c-0.4,0.5-0.7,1.1-0.9,1.8h1c1,0,1.7,0.2,2.2,0.6c0.5,0.4,0.7,0.9,0.7,1.6c0,0.9-0.4,1.7-1.1,2.4c-0.7,0.7-1.6,1.1-2.6,1.1
		c-1.1,0-1.8-0.3-2.3-0.9c-0.5-0.6-0.7-1.3-0.7-2.2c0-1.8,0.8-3.5,2.3-5.1s3.4-2.9,5.5-3.8L10.7,12.1z M19.1,12.1
		c-0.5,0.2-1.1,0.5-1.8,0.9c-0.7,0.4-1.2,0.8-1.6,1.1c-0.5,0.4-0.9,0.9-1.2,1.4c-0.4,0.5-0.7,1.1-0.9,1.8h1c1,0,1.7,0.2,2.2,0.6
		c0.5,0.4,0.7,0.9,0.7,1.6c0,0.9-0.4,1.7-1.1,2.4c-0.7,0.7-1.6,1.1-2.6,1.1c-1.1,0-1.8-0.3-2.3-0.9c-0.5-0.6-0.7-1.3-0.7-2.2
		c0-1.8,0.8-3.5,2.3-5.1c1.5-1.6,3.4-2.9,5.5-3.8L19.1,12.1z"/>
</g>
<g class="st0">
	<path class="st1" d="M37.2,13.8h2.1c1-2.5,1.5-4.6,1.5-6.5c1.1,0.3,2.1,0.6,3,1c0.9,0.4,1.4,0.6,1.5,0.8c0.1,0.1,0.2,0.2,0.2,0.3
		c0,0.2-0.2,0.3-0.6,0.4c-0.9,0.1-2.2,1.5-3.9,4h9.7l1-1.7c0.1-0.2,0.3-0.3,0.4-0.3c0.3,0,0.9,0.4,2,1.1c1,0.7,1.5,1.2,1.5,1.5
		s-0.4,0.6-1.2,0.9v20c0,1,0,1.7,0,2.1l0,1.2c0,0.2-0.1,0.4-0.3,0.5c-0.2,0.1-0.6,0.3-1.2,0.5c-0.6,0.2-1.1,0.2-1.4,0.2
		s-0.5,0-0.6-0.1c-0.1,0-0.1-0.1-0.1-0.3v-3.3H36.6v2.6c0,0.2,0,0.3-0.1,0.4c-0.1,0.1-0.3,0.2-0.8,0.5c-0.4,0.2-0.9,0.4-1.4,0.5
		c-0.5,0.1-0.8,0.2-0.9,0.2s-0.1-0.1-0.1-0.3c0.1-1.1,0.2-2.2,0.2-3.5V15.3c0-1,0-2-0.1-3C34.7,12.7,36,13.2,37.2,13.8z M51,21.2V15
		H36.6v6.2H51z M51,27.9v-5.5H36.6v5.5H51z M51,35.1v-6H36.6v6H51z"/>
	<path class="st1" d="M69.9,16.6h7.2v-5.1c0-1.4,0-2.6-0.1-3.6c0.8,0.2,1.8,0.5,3,0.9s1.8,0.7,1.8,0.9s-0.4,0.5-1.3,0.9v6h7.1
		l0.9-1.7c0.1-0.2,0.3-0.4,0.4-0.4c0.2,0,0.9,0.4,2.1,1c1.2,0.7,1.9,1.2,1.9,1.4s-0.4,0.6-1.3,1v16.7c0,1,0,1.8,0,2.2l0,1.2
		c0,0.2-0.1,0.4-0.3,0.5c-0.2,0.1-0.7,0.3-1.5,0.6c-0.7,0.3-1.2,0.4-1.4,0.4c-0.2,0-0.3-0.2-0.3-0.5v-2.8H69.7v1.8
		c0,0.3-0.1,0.5-0.3,0.7c-0.2,0.2-0.7,0.4-1.3,0.6c-0.7,0.2-1.1,0.4-1.3,0.4c-0.2,0-0.2-0.1-0.2-0.4c0.1-1,0.1-2.3,0.1-3.9V17.8
		c0-1,0-2-0.1-3C67.9,15.4,69,16,69.9,16.6z M77.2,17.6h-7.5v8.2h7.5V17.6z M69.7,26.7v8.6h7.5v-8.6H69.7z M88.3,25.7v-8.2h-7.8v8.2
		H88.3z M88.3,35.3v-8.6h-7.8v8.6H88.3z"/>
	<path class="st1" d="M101.2,30.3c0.2,1.2,0.3,2.2,0.4,2.9c0.1,0.8,0.1,1.4,0,1.9c-0.1,0.5-0.2,0.9-0.4,1.2
		c-0.2,0.3-0.4,0.6-0.8,0.9c-0.3,0.2-0.6,0.4-0.9,0.6c-0.3,0.2-0.6,0.3-0.9,0.3c-0.3,0.1-0.6,0.1-0.8,0c-0.3-0.1-0.5-0.2-0.6-0.4
		c-0.1-0.2-0.2-0.4-0.1-0.6c0.1-0.3,0.3-0.6,0.6-1c0.5-0.7,0.9-1.3,1.3-1.8c0.3-0.5,0.6-0.9,0.8-1.3c0.2-0.4,0.4-0.8,0.5-1.2
		c0.1-0.4,0.2-0.9,0.3-1.5H101.2z M111.7,25.7c0.1,0.7,0,1.3-0.3,1.7c-0.2,0.5-0.6,0.7-1.1,0.8c-0.2,0-0.4,0-0.6-0.1
		c-0.2-0.1-0.4-0.4-0.4-0.9c0-0.1-0.1-0.4-0.1-0.6s-0.1-0.5-0.1-0.6c-1.4,0.4-2.6,0.7-3.6,1c-1,0.3-1.8,0.6-2.5,0.9
		c-0.7,0.3-1.2,0.5-1.7,0.7s-0.9,0.4-1.2,0.6c-0.2,0.1-0.4,0.2-0.5,0.1c-0.1,0-0.2-0.2-0.3-0.4c-0.2-0.4-0.4-0.8-0.5-1.3
		c-0.2-0.5-0.3-0.9-0.5-1.4c0.4,0,0.7,0,1,0c0.3,0,0.7,0,1,0c1.1-1.3,2.1-2.4,3-3.3c0.8-1,1.5-1.8,2-2.6c-1.1,0.2-2.1,0.4-3,0.7
		c-0.9,0.3-1.7,0.5-2.5,0.8c-0.2,0.1-0.3,0.1-0.4,0c-0.1,0-0.2-0.2-0.3-0.4c-0.2-0.3-0.4-0.7-0.5-1c-0.2-0.4-0.3-0.8-0.5-1.2
		c0.3,0,0.5,0,0.7,0.1c0.2,0,0.4,0,0.7,0c0.6-0.9,1.2-1.8,1.8-2.7c0.6-0.9,1.1-1.9,1.7-2.8c0.5-0.9,1-1.9,1.5-2.8s0.8-1.8,1.2-2.6
		c0.6,0.3,1.1,0.6,1.6,0.9c0.5,0.3,1,0.6,1.5,1c0.4,0.3,0.5,0.4,0.5,0.6c0,0.1-0.2,0.2-0.6,0.3c-0.4,0.1-1,0.6-1.7,1.5
		c-0.6,0.7-1.1,1.4-1.6,2c-0.5,0.6-1,1.2-1.4,1.7c-0.4,0.5-0.9,1-1.3,1.5s-0.8,1-1.2,1.5l4.8-0.2c0.4-0.7,0.9-1.4,1.3-2
		c0.4-0.7,0.8-1.4,1.3-2.3c0.5,0.3,1,0.7,1.4,0.9c0.4,0.3,0.8,0.6,1.3,1c0.3,0.3,0.5,0.5,0.5,0.6c0,0.1-0.2,0.2-0.4,0.2
		c-0.2,0-0.3,0.1-0.4,0.1s-0.2,0.1-0.3,0.2c-0.1,0.1-0.2,0.2-0.4,0.4c-0.1,0.2-0.3,0.4-0.6,0.6c-0.9,1-1.9,2.1-3.1,3.4
		c-1.2,1.3-2.4,2.5-3.7,3.8l6.1-0.8c-0.2-0.6-0.3-1.2-0.5-1.6c-0.2-0.5-0.4-0.9-0.8-1.5l0.4-0.4c0.8,0.5,1.5,1,2,1.4
		c0.5,0.4,0.9,0.7,1.1,1c0.3,0.3,0.4,0.6,0.5,0.9C111.6,25.2,111.6,25.5,111.7,25.7z M106.4,35.1c-0.1,0.6-0.4,1.1-0.8,1.5
		c-0.5,0.4-1,0.6-1.5,0.6c-0.3,0-0.4-0.1-0.5-0.3c-0.1-0.2-0.1-0.5,0.1-1.1c0.1-0.5,0.2-1,0.3-1.4s0.1-0.9,0.1-1.3
		c0-0.5,0-0.9-0.1-1.4c0-0.5-0.1-1.1-0.2-1.7l0.5-0.2c0.5,0.7,0.8,1.3,1.1,1.8c0.3,0.5,0.5,1,0.7,1.4c0.2,0.4,0.3,0.8,0.3,1.1
		C106.5,34.5,106.5,34.8,106.4,35.1z M111,33.4c0,0.3,0,0.6-0.1,0.9c-0.1,0.3-0.2,0.6-0.3,0.9s-0.3,0.5-0.4,0.6
		c-0.2,0.2-0.3,0.3-0.5,0.3c-0.2,0-0.5-0.1-0.8-0.3c-0.3-0.2-0.4-0.4-0.5-0.8c-0.1-1-0.2-2-0.4-2.9c-0.2-0.9-0.6-1.8-1.1-2.7
		l0.5-0.5c0.7,0.6,1.3,1.1,1.8,1.6s0.8,0.9,1.1,1.2c0.3,0.4,0.4,0.7,0.5,0.9C111,32.9,111,33.2,111,33.4z M130.2,37.1
		c0.3,0.3,0.4,0.6,0.3,0.7c-0.1,0.1-0.3,0.2-0.6,0.2h-19.9c-0.2,0-0.5,0-0.7,0.1c-0.2,0-0.4,0.1-0.5,0.2l-0.6-1.4
		c0.3,0.1,0.5,0.1,0.7,0.1s0.5,0,0.7,0h2.9V12.3c0-0.5,0-1,0-1.5c0-0.5,0-1-0.1-1.5c0.4,0.2,0.7,0.3,1,0.5c0.3,0.1,0.6,0.3,0.8,0.4
		c0.2,0.1,0.5,0.3,0.7,0.4s0.4,0.3,0.6,0.4h6.9l0.7-1.1c0.2-0.3,0.4-0.5,0.5-0.5c0.1,0,0.4,0,0.7,0.2c0.3,0.1,0.5,0.3,0.6,0.4
		c0.2,0.1,0.3,0.2,0.5,0.3c0.2,0.1,0.3,0.2,0.5,0.3c0.2,0.1,0.4,0.2,0.6,0.4c0.2,0.1,0.4,0.3,0.5,0.4c0.1,0.1,0.1,0.2,0,0.4
		c-0.1,0.1-0.2,0.3-0.5,0.4c-0.3,0.2-0.6,0.3-1.1,0.6V37h0.4l0.9-2c0.2-0.4,0.3-0.6,0.5-0.6c0.1,0,0.4,0.1,0.7,0.5
		c0.3,0.3,0.7,0.7,0.9,1C129.4,36.2,129.8,36.6,130.2,37.1z M123,12.1h-7.4v6.8h7.4V12.1z M123,19.9h-7.4V27h7.4V19.9z M123,28h-7.4
		v9h7.4V28z"/>
	<path class="st1" d="M149,11.4c-3.8,5.6-9.4,10.1-16.9,13.4l-0.3-0.7c3.2-1.9,6.1-4.3,8.8-7.2c2.7-2.9,4.8-6,6.3-9.2
		c1.6,0.6,2.7,1,3.4,1.3c0.7,0.3,1,0.6,1,0.8s-0.2,0.4-0.7,0.4c-0.5,0.1-0.8,0.2-1,0.3c1.9,2.6,4.3,4.8,7.1,6.6
		c2.8,1.8,5.7,2.9,8.6,3.4v0.7c-1.2,0.1-2.1,0.2-2.6,0.4c-0.5,0.2-1,0.7-1.4,1.3c-0.1,0.1-0.2,0.2-0.3,0.2c-0.3,0-1.4-0.6-3-1.7
		c-1.7-1.1-3.3-2.6-5-4.4C151.5,15.4,150.1,13.4,149,11.4z M154.1,37.2h-11.7v1.8c0,0.2-0.1,0.4-0.2,0.5c-0.1,0.1-0.5,0.3-1.3,0.6
		c-0.8,0.3-1.2,0.4-1.4,0.4c-0.1,0-0.2-0.1-0.2-0.3l0.1-2.4V29c0-1,0-2-0.1-3c1.5,0.6,2.6,1.2,3.3,1.6h11.1l0.6-1.4
		c0.1-0.3,0.2-0.4,0.4-0.4c0.1,0,0.6,0.2,1.4,0.6s1.4,0.7,1.8,0.9c0.3,0.2,0.5,0.4,0.5,0.6s-0.4,0.5-1.1,0.9v8c0,0.5,0,0.9,0,1.3
		l0.1,0.9c0,0.2-0.1,0.3-0.3,0.5c-0.2,0.1-0.7,0.3-1.4,0.5c-0.7,0.2-1.2,0.3-1.4,0.3c-0.1,0-0.2-0.1-0.2-0.3V37.2z M151.6,22.1
		l1.2-1.8c0.2-0.3,0.4-0.5,0.6-0.5c0.2,0,0.8,0.5,1.8,1.4c1,1,1.5,1.5,1.5,1.7s-0.2,0.2-0.7,0.2H142c-0.6,0-1.1,0.1-1.5,0.2
		l-0.6-1.5c0.5,0.1,1.1,0.2,1.8,0.2H151.6z M142.4,36h11.7v-7.2h-11.7V36z"/>
</g>
<g class="st0">
	<path class="st1" d="M174.8,34.7c0,1.8-0.7,3.5-2.2,5.1s-3.2,2.9-5.3,3.8l-0.5-1.2c0.7-0.3,1.3-0.7,1.8-0.9c0.5-0.3,1-0.7,1.5-1.2
		c0.5-0.4,0.9-0.9,1.2-1.4c0.3-0.5,0.6-1.1,0.8-1.8h-1c-1.1,0-1.8-0.2-2.3-0.6c-0.5-0.4-0.8-1-0.8-1.7c0-0.9,0.4-1.7,1.1-2.4
		c0.7-0.7,1.5-1.1,2.5-1.1c1.1,0,1.9,0.3,2.5,1C174.5,32.8,174.8,33.7,174.8,34.7z"/>
</g>
<g class="st0">
</g>
<g class="st0">
	<path class="st1" d="M109.5,60.1c0.6,0.4,0.5,0.7-0.1,0.9c-0.3,0.1-0.6,0.3-0.9,0.5c-0.3,0.3-0.6,0.7-1,1.2c-0.4,0.6-0.6,1-0.9,1.4
		c-0.2,0.4-0.5,0.8-0.8,1.2c-0.3,0.4-0.6,0.9-0.9,1.4c-0.3,0.5-0.8,1.2-1.3,2c0.9,0.6,1.7,1.2,2.2,1.8c0.6,0.5,1,1,1.3,1.5
		c0.3,0.5,0.5,1,0.6,1.5c0.1,0.5,0.2,1,0.2,1.5c0.1-0.2,0.2-0.4,0.3-0.6s0.3-0.5,0.4-0.9l1.9-3.8h-1.2c-0.4,0-0.8,0-1.1,0.1
		c-0.3,0.1-0.5,0.2-0.8,0.3l-1-1.7c0.4,0.1,0.8,0.2,1.2,0.2c0.3,0,0.7,0,1.1,0h1.9l0.8-1.1c0.1-0.2,0.3-0.2,0.3-0.2s0.2,0.1,0.4,0.3
		c0.2,0.2,0.4,0.5,0.6,0.6c0.2,0.2,0.4,0.4,0.5,0.6c0.9-1.1,1.6-2.1,2.2-3.1c0.6-1,1.1-2.1,1.6-3.3h-3.1c-0.3,0-0.6,0-0.8,0.1
		c-0.3,0-0.5,0.1-0.6,0.2l-0.6-1.5c0.3,0.1,0.6,0.1,0.9,0.1s0.5,0,0.9,0h3.9c0.3-0.7,0.5-1.5,0.6-2.2c0.2-0.7,0.3-1.4,0.4-2.2
		c0.9,0.3,1.5,0.5,1.9,0.6c0.4,0.2,0.8,0.3,1.1,0.5c0.5,0.2,0.7,0.4,0.7,0.5c0,0.2-0.2,0.3-0.6,0.4c-0.2,0-0.3,0.1-0.4,0.2
		c-0.1,0.1-0.2,0.2-0.4,0.4c-0.1,0.2-0.3,0.4-0.4,0.6c-0.1,0.3-0.3,0.6-0.4,1h5.8l1-1.8c0.1-0.3,0.3-0.4,0.4-0.4
		c0.1,0,0.4,0.1,0.7,0.4c0.3,0.3,0.6,0.6,1,0.9c0.3,0.3,0.7,0.7,1,1c0.2,0.2,0.3,0.4,0.2,0.6c-0.1,0.2-0.2,0.3-0.5,0.3h-10
		c-0.2,0.5-0.5,1-0.7,1.4c-0.3,0.4-0.5,0.9-0.9,1.3h6.3l0.8-1.4c0.1-0.2,0.2-0.3,0.3-0.3s0.3,0.1,0.5,0.3c0.4,0.3,0.7,0.6,1,0.8
		c0.2,0.2,0.5,0.5,0.8,0.8c0.2,0.2,0.3,0.3,0.2,0.5c0,0.1-0.2,0.2-0.5,0.2h-4.3v2.5h3.3l0.7-1.5c0.1-0.1,0.2-0.2,0.3-0.2
		c0.1,0,0.2,0.1,0.4,0.3c0.4,0.3,0.7,0.6,1.1,1c0.3,0.3,0.6,0.6,0.8,0.9c0.2,0.3,0.3,0.5,0.2,0.5c0,0.1-0.2,0.1-0.5,0.1h-12
		c-0.3,0-0.6,0-0.8,0.1c-0.3,0-0.5,0.1-0.6,0.2l-0.6-1.5c0.3,0.1,0.6,0.1,0.9,0.1c0.2,0,0.5,0,0.9,0h3.6v-2.5h-3.5
		c-0.3,0.3-0.5,0.7-0.8,1c-0.3,0.3-0.6,0.7-0.9,1c-0.3,0.3-0.7,0.7-1.1,1c-0.4,0.4-0.9,0.8-1.5,1.2l-0.4-0.2c-0.3,0.3-0.6,0.8-1,1.5
		l-1.8,3.6h1.4l0.8-1c0.1-0.2,0.2-0.2,0.3-0.2s0.3,0.1,0.4,0.3c0.3,0.2,0.5,0.4,0.6,0.6s0.3,0.4,0.5,0.5c0.1,0.2,0.2,0.3,0.2,0.4
		c0,0.1-0.1,0.2-0.3,0.3l-0.4,0.3c-0.2,1.7-0.4,3-0.7,4.1c-0.3,1-0.6,2-1,2.9c0.7,0.5,1.7,1,2.7,1.3s2.4,0.6,3.9,0.7
		c1.5,0.1,3.3,0.2,5.3,0.1c2,0,4.3-0.2,6.9-0.4v0.4c-0.8,0.2-1.4,0.5-1.7,0.9s-0.6,0.9-0.6,1.4c0,0.2-0.1,0.3-0.2,0.4
		c-0.1,0.1-0.3,0.1-0.6,0.1c-2.1,0-3.9-0.1-5.5-0.3c-1.6-0.1-3.1-0.3-4.5-0.6c-1.3-0.3-2.5-0.6-3.6-1.1c-1-0.4-2-1-2.8-1.7
		c-0.6,0.8-1.3,1.5-2.2,2c-0.8,0.5-1.8,1.1-3,1.7l-0.2-0.5c0.9-0.7,1.6-1.5,2.3-2.2c0.6-0.8,1.2-1.6,1.6-2.5c0.4-0.9,0.7-1.9,1-3
		c0.2-1.1,0.4-2.4,0.5-3.8h-1.6c-0.1,0.2-0.2,0.3-0.2,0.5c0,0.1-0.1,0.2-0.1,0.3c-0.1,0.2-0.3,0.2-0.6,0.2c-0.1,0-0.2,0-0.3,0
		s-0.2,0-0.3,0c-0.1,0.7-0.4,1.3-0.8,1.8c-0.4,0.4-1,0.9-1.9,1.3c-0.3,0.2-0.5,0.2-0.6,0.2c-0.1-0.1-0.2-0.3-0.3-0.7
		c-0.1-0.5-0.3-0.8-0.6-1.1c-0.2-0.3-0.7-0.5-1.4-0.8l0-0.6c0.7,0.1,1.2,0.2,1.7,0.2c0.4,0,0.8-0.1,1-0.3c0.3-0.2,0.4-0.5,0.5-0.8
		s0.1-0.9,0.1-1.6c0-0.8-0.2-1.7-0.7-2.7c-0.5-0.9-1.3-2.1-2.4-3.5c0.4-0.8,0.7-1.5,1-2.2c0.3-0.6,0.6-1.3,0.8-1.9
		c0.3-0.6,0.5-1.2,0.8-1.8c0.3-0.6,0.5-1.3,0.8-2.1h-3.8v26.7c0,0.2,0,0.3-0.1,0.4c-0.1,0.1-0.1,0.1-0.2,0.2
		c-0.2,0.1-0.3,0.2-0.5,0.3c-0.1,0.1-0.3,0.2-0.4,0.2c-0.1,0.1-0.3,0.2-0.5,0.2s-0.4,0.2-0.6,0.2c-0.2,0.1-0.2,0-0.2-0.3
		c0-0.5,0-1,0.1-1.4c0-0.4,0-0.8,0-1.1c0-0.3,0-0.7,0-1c0-0.3,0-0.7,0-1.2V61.7c0-0.9,0-1.6,0-2.2c0-0.5-0.1-1.1-0.1-1.5
		c0.4,0.1,0.6,0.3,0.9,0.4c0.2,0.1,0.5,0.3,0.7,0.4c0.2,0.1,0.4,0.3,0.6,0.4c0.2,0.1,0.5,0.3,0.7,0.5h3.2l0.7-1.3
		c0-0.1,0.1-0.2,0.2-0.2c0.1,0,0.2,0.1,0.4,0.2c0.4,0.3,0.9,0.6,1.2,0.9C108.7,59.6,109.1,59.8,109.5,60.1z M112.7,64.4
		c0,0.5-0.2,1-0.5,1.4c-0.3,0.4-0.7,0.6-1,0.6c-0.2,0-0.4-0.1-0.6-0.2c-0.2-0.1-0.3-0.4-0.3-0.8c0-0.4-0.1-0.8-0.1-1.2
		c0-0.3-0.1-0.7-0.2-1c-0.1-0.3-0.2-0.6-0.4-0.9c-0.1-0.3-0.3-0.6-0.5-0.9l0.5-0.5c0.7,0.4,1.2,0.7,1.6,1s0.7,0.6,0.9,0.8
		c0.2,0.3,0.4,0.5,0.4,0.8C112.7,63.9,112.7,64.2,112.7,64.4z M128.1,71.5c0.2,0.1,0.4,0.2,0.5,0.3c0.1,0.1,0.2,0.2,0.2,0.3
		c0,0.1-0.1,0.2-0.2,0.3c-0.2,0.1-0.4,0.3-0.7,0.5V82c0,0.4,0,0.7-0.1,1c-0.1,0.2-0.2,0.5-0.4,0.6c-0.2,0.2-0.4,0.3-0.7,0.4
		c-0.3,0.1-0.7,0.3-1.1,0.4c-0.4,0.1-0.6,0.2-0.7,0.1c-0.1,0-0.2-0.2-0.3-0.4c-0.1-0.3-0.2-0.6-0.4-0.8s-0.3-0.4-0.5-0.5
		c-0.2-0.2-0.4-0.3-0.7-0.4c-0.3-0.1-0.7-0.3-1.1-0.5l0.1-0.6c0.8,0.1,1.4,0.2,1.8,0.3c0.4,0.1,0.8,0.1,1,0.1c0.2,0,0.3-0.1,0.4-0.1
		c0-0.1,0.1-0.2,0.1-0.4v-2h-6.6v3.9c0,0.2,0,0.3-0.1,0.4c0,0.1-0.2,0.2-0.4,0.3c-0.4,0.2-0.7,0.4-0.9,0.5c-0.3,0.1-0.6,0.2-1,0.3
		c-0.3,0.1-0.4-0.1-0.4-0.4c0.1-0.7,0.2-1.4,0.2-2.1c0-0.7,0.1-1.5,0.1-2.3v-6.5c0-0.8,0-1.4,0-1.9c0-0.4,0-0.9-0.1-1.2
		c0.5,0.2,0.9,0.3,1.3,0.5c0.4,0.2,0.9,0.4,1.5,0.8h5.8l0.7-1c0.1-0.1,0.2-0.2,0.4-0.2c0.1,0,0.3,0,0.6,0.2
		C126.9,70.8,127.5,71.2,128.1,71.5z M125.1,72.7h-6.6V75h6.6V72.7z M125.1,76.2h-6.6v2.2h6.6V76.2z"/>
	<path class="st1" d="M138.4,70.8c0.3,1.9,0.5,3.5,0.5,4.8c0,2.1-0.4,3.7-1.3,4.6c-0.9,0.9-1.7,1.4-2.6,1.4c-0.5,0-0.9-0.2-1.3-0.5
		c-0.4-0.4-0.6-0.7-0.6-1.1s0.3-0.8,0.8-1.3c1.4-1.3,2.3-2.5,2.7-3.7c0.4-1.2,0.7-2.6,0.9-4.2H138.4z M158,76.7
		c0.1,1.8,0.2,3.2,0.3,4.2s0.4,1.6,0.7,2s0.7,0.8,1.3,1.1c0.4,0.2,0.6,0.4,0.6,0.6s-0.2,0.6-0.6,1.3s-0.9,1.2-1.4,1.4
		c-0.5,0.3-1.2,0.4-2,0.5c-0.8,0.1-2.6,0.1-5.3,0.1s-4.6,0-5.5-0.1c-0.9-0.1-1.7-0.2-2.3-0.4s-1-0.5-1.1-1c-0.2-0.4-0.2-1.2-0.2-2.3
		V67.1c0-1,0-1.9-0.1-2.9c1.1,0.3,2.2,0.6,3.2,0.9s1.5,0.7,1.5,0.9s-0.5,0.5-1.5,0.8v16c0,0.7,0.1,1.1,0.2,1.3
		c0.1,0.2,0.3,0.3,0.5,0.4c0.2,0,0.8,0.1,1.8,0.2c1,0.1,2.1,0.1,3.3,0.1c2.6,0,4.2-0.2,4.6-0.7c0.4-0.5,0.9-3,1.3-7.4H158z
		 M147.8,56.9c4.5,2.8,6.8,5.1,6.8,6.9c0,0.8-0.2,1.5-0.6,2.2s-0.9,1-1.4,1c-0.3,0-0.6-0.1-0.9-0.4c-0.3-0.3-0.5-0.6-0.5-1
		c-0.3-1.4-0.7-2.7-1.4-4c-0.7-1.2-1.5-2.5-2.5-4L147.8,56.9z M158.4,69.4c4.9,3,7.4,5.6,7.4,7.7c0,0.7-0.3,1.5-0.8,2.2
		c-0.5,0.8-1,1.2-1.4,1.2c-0.7,0-1.1-0.5-1.3-1.6c-0.6-3.3-2.1-6.3-4.4-8.8L158.4,69.4z"/>
	<path class="st1" d="M173.4,66.4h-3.2c-0.6,0-1.1,0.1-1.5,0.2l-0.6-1.4c0.5,0.1,1.1,0.2,1.8,0.2h3.5v-4.9c0-2,0-3.3-0.1-3.8
		c1.9,0.5,3.1,0.8,3.4,0.9c0.3,0.1,0.5,0.3,0.5,0.5c0,0.2-0.3,0.5-1.1,0.9v6.5h0.6l1.2-1.5c0.1-0.2,0.3-0.3,0.5-0.3
		c0.2,0,0.5,0.2,0.9,0.5c0.4,0.4,0.8,0.7,1.3,1.1c0.4,0.3,0.6,0.6,0.6,0.9c0,0.2-0.3,0.4-0.8,0.4h-4.4v4.7l4.3-1.9l0.2,0.8l-4.6,3
		v5.5c5-4.1,8.9-8.6,11.5-13.5c1,0.4,1.8,0.9,2.4,1.3s1,0.8,1,0.9c0,0.1-0.2,0.2-0.5,0.2c-0.3,0-0.7,0.3-1,0.6
		c1.8,1.9,3.5,3.3,5.2,4.2c1.7,0.9,3.8,1.7,6.5,2.3l0,0.6c-1.1,0.1-1.9,0.3-2.3,0.6s-0.7,0.6-0.8,1.1c-0.1,0.2-0.2,0.3-0.4,0.3
		c-0.4,0-1.5-0.7-3.3-2.1c-1.8-1.4-3.6-3.5-5.4-6.2c-1.7,2.1-3.4,3.8-5.1,5.2c0.5,0,0.9,0.1,1.3,0.1h4.1l0.7-1.2
		c0.2-0.3,0.4-0.5,0.6-0.5c0.2,0,0.7,0.4,1.4,1.1s1.1,1.2,1.1,1.4s-0.3,0.3-0.9,0.3h-6.5c-0.6,0-1.1,0.1-1.5,0.2l-0.7-1
		c-1.8,1.5-4.2,3.1-7.1,4.7l-0.3-0.5v6.2c0,0.7-0.1,1.2-0.4,1.6s-0.8,0.9-1.5,1.4c-0.8,0.5-1.2,0.8-1.4,0.8c-0.2,0-0.3-0.2-0.5-0.6
		c-0.3-0.8-0.6-1.3-1.1-1.6c-0.4-0.3-1.3-0.7-2.7-1.1l0-0.7c1.5,0.2,2.6,0.3,3.2,0.3c0.6,0,1-0.1,1.2-0.2c0.2-0.2,0.3-0.5,0.3-0.9
		v-8.8c-1.2,0.9-2.1,1.6-2.8,2.3c-0.1,0.1-0.3,0.2-0.3,0.2c-0.1,0-0.2,0-0.3-0.1c-0.1-0.1-0.4-0.5-0.8-1.2c-0.5-0.7-0.8-1.4-1.1-1.9
		c1.5-0.4,3.3-1,5.3-1.9V66.4z M185.9,62.1h5.3v-2.8c0-1.1,0-2-0.1-2.6c2.1,0.5,3.4,0.9,3.7,1c0.3,0.1,0.4,0.2,0.4,0.4
		c0,0.2-0.4,0.5-1.1,0.9v3h1.9l1-1.7c0.2-0.3,0.4-0.4,0.6-0.4c0.2,0,0.7,0.4,1.6,1.3s1.3,1.4,1.3,1.6c0,0.2-0.3,0.3-0.8,0.3h-5.4
		c0,0.7,0,1.3,0,1.6l0,1c0,0.1,0,0.2-0.1,0.3c-0.1,0.1-0.3,0.2-0.7,0.4s-0.8,0.3-1.2,0.4c-0.4,0.1-0.7,0.2-0.8,0.2
		c-0.1,0-0.2-0.2-0.2-0.5v-3.3h-5.3v2.9c0,0.2,0,0.4-0.1,0.5c-0.1,0.1-0.5,0.2-1.2,0.5c-0.7,0.2-1.2,0.4-1.4,0.4
		c-0.1,0-0.2-0.1-0.2-0.3l0.1-1.4c0-1,0.1-1.8,0.1-2.6h-2.3c-0.6,0-1.1,0.1-1.5,0.2l-0.8-1.5c0.5,0.1,1.1,0.2,1.8,0.2h2.9v-2.8
		c0-1.1,0-2-0.1-2.6c2.6,0.7,3.9,1.2,3.9,1.4c0,0.1-0.3,0.4-1,0.9V62.1z M192.8,86.5h-8.5v1.8c0,0.2,0,0.4-0.1,0.5
		c-0.1,0.1-0.5,0.2-1.2,0.5c-0.7,0.3-1.2,0.4-1.5,0.4c-0.1,0-0.2-0.1-0.2-0.3c0.1-1.5,0.2-3.1,0.2-4.8V80c0-1.1,0-2.1-0.1-2.9
		c1.4,0.4,2.5,0.9,3.4,1.5h7.7l0.8-1.1c0.1-0.2,0.3-0.2,0.4-0.2c0.2,0,0.5,0.2,1,0.5l1.4,0.9c0.5,0.3,0.7,0.5,0.7,0.7
		s-0.3,0.5-1,0.9v3.5c0,1.2,0,2,0,2.4l0,1.2c0,0.2-0.1,0.3-0.3,0.5c-0.2,0.1-0.6,0.3-1.2,0.5s-1,0.4-1.2,0.4c-0.2,0-0.3-0.2-0.3-0.5
		V86.5z M184.3,85.4h8.5v-5.7h-8.5V85.4z"/>
	<path class="st1" d="M209.1,60.3h-4.1c-0.6,0-1.1,0.1-1.5,0.2l-0.6-1.4c0.5,0.1,1.1,0.2,1.8,0.2h11l1.2-1.8
		c0.2-0.3,0.4-0.4,0.5-0.4c0.1,0,0.5,0.2,1.1,0.7s1.1,0.9,1.6,1.2s0.6,0.7,0.6,0.9s-0.2,0.4-0.6,0.4h-5.4v4.4h1.5l0.8-1.2
		c0.1-0.2,0.2-0.3,0.4-0.3s0.6,0.3,1.5,0.9c0.8,0.6,1.2,1,1.2,1.2c0,0.2-0.3,0.4-0.9,0.7v17.5l0.1,3c0,0.3,0,0.5-0.1,0.6
		c-0.1,0.1-0.5,0.3-1.1,0.6c-0.7,0.3-1.1,0.4-1.3,0.4c-0.2,0-0.3-0.2-0.3-0.5v-2.5h-9v2.6c0,0.2-0.1,0.4-0.2,0.5
		c-0.1,0.1-0.5,0.3-1.1,0.5c-0.6,0.2-1,0.4-1.3,0.4c-0.1,0-0.2-0.2-0.2-0.5c0.1-0.8,0.1-1.9,0.1-3.4V66.2c0-1,0-1.9-0.1-2.9
		c1.2,0.4,2.3,0.9,3.3,1.5h1V60.3z M216.5,76.3c-1.3,0-2.2,0-2.7-0.1c-0.5-0.1-0.9-0.2-1-0.4c-0.2-0.2-0.2-0.6-0.2-1v-8.9h-1.3
		c0,3.7-0.3,6.3-0.8,7.8c-0.5,1.5-1.5,2.8-2.9,4v1.4h9V76.3z M207.5,76.6c0.6-0.7,1-2,1.3-3.7c0.2-1.7,0.3-4,0.3-7.1h-1.6V76.6z
		 M216.5,84.1v-3.8h-9v3.8H216.5z M212.5,60.3h-1.3v4.4h1.3V60.3z M214.8,65.9v7.5c0,0.4,0.1,0.7,0.4,0.8c0.3,0.1,0.7,0.2,1.3,0.1
		v-8.4H214.8z M230.8,69.3v-9h-7.6c-0.6,0-1.1,0.1-1.5,0.2l-0.6-1.5c0.5,0.1,1.1,0.2,1.8,0.2h7.8l0.8-1.5c0.1-0.2,0.2-0.2,0.3-0.2
		c0.2,0,0.8,0.4,1.7,1.1s1.4,1.2,1.4,1.3c0,0.2-0.4,0.5-1.3,0.9v7.7l0.1,2.8c0,0.3-0.1,0.5-0.3,0.6s-0.6,0.3-1.1,0.5
		c-0.5,0.2-0.9,0.3-1.2,0.3c-0.2,0-0.4-0.2-0.4-0.5v-1.7h-6v13.6c0,0.4,0.1,0.7,0.2,0.8s0.4,0.2,0.8,0.3c0.4,0.1,1.3,0.1,2.8,0.1
		c1.5,0,2.4-0.1,2.8-0.2c0.4-0.1,0.7-0.6,1-1.4c0.3-0.8,0.5-2.6,0.8-5.5h0.6c0,1.6,0.1,2.8,0.2,3.6c0.1,0.8,0.3,1.4,0.6,1.8
		c0.3,0.4,0.6,0.7,1.1,0.9c0.3,0.1,0.4,0.3,0.4,0.5c0,0.2-0.2,0.6-0.7,1.2s-0.9,1.1-1.4,1.3c-0.5,0.2-1.4,0.4-2.6,0.5
		c-1.3,0.1-2.5,0.1-3.9,0.1s-2.5-0.1-3.4-0.2c-1-0.2-1.6-0.4-1.8-0.7c-0.2-0.3-0.4-0.8-0.4-1.5V71.6c0-1.6,0-2.9-0.1-3.9
		c1.3,0.5,2.5,1,3.6,1.6H230.8z"/>
</g>
<g class="st0">
	<path class="st1" d="M266.3,62.9c0,1.8-0.8,3.5-2.3,5.1s-3.4,2.9-5.5,3.8l-0.5-1.2c0.5-0.2,1.1-0.5,1.8-0.9
		c0.7-0.4,1.2-0.8,1.6-1.1c0.5-0.4,0.9-0.9,1.2-1.4c0.4-0.5,0.7-1.1,0.9-1.8h-1c-1,0-1.7-0.2-2.2-0.6c-0.5-0.4-0.7-0.9-0.7-1.6
		c0-0.9,0.4-1.7,1.1-2.4s1.6-1.1,2.6-1.1c1.1,0,1.8,0.3,2.3,0.9C266,61.3,266.3,62,266.3,62.9z M274.7,62.9c0,1.8-0.8,3.5-2.3,5.1
		s-3.4,2.9-5.5,3.8l-0.5-1.2c0.5-0.2,1.1-0.5,1.8-0.9c0.7-0.4,1.2-0.8,1.6-1.1c0.5-0.4,0.9-0.9,1.2-1.4c0.4-0.5,0.7-1.1,0.9-1.8h-1
		c-1,0-1.7-0.2-2.2-0.6c-0.5-0.4-0.7-0.9-0.7-1.6c0-0.9,0.4-1.7,1.1-2.4c0.7-0.7,1.6-1.1,2.6-1.1c1.1,0,1.8,0.3,2.3,0.9
		S274.7,62,274.7,62.9z"/>
</g>
</svg>
