<?xml version="1.0" encoding="utf-8"?>
<!-- Generator: Adobe Illustrator 24.1.0, SVG Export Plug-In . SVG Version: 6.00 Build 0)  -->
<svg version="1.1" id="圖層_1" xmlns="http://www.w3.org/2000/svg" xmlns:xlink="http://www.w3.org/1999/xlink" x="0px" y="0px"
	 viewBox="0 0 320 98" style="enable-background:new 0 0 320 98;" xml:space="preserve">
<style type="text/css">
	.st0{enable-background:new    ;}
	.st1{fill:#F48145;}
</style>
<g class="st0">
	<path class="st1" d="M10.7,12.1c-0.5,0.2-1.1,0.5-1.8,0.9c-0.7,0.4-1.2,0.8-1.6,1.1c-0.5,0.4-0.9,0.9-1.2,1.4
		c-0.4,0.5-0.7,1.1-0.9,1.8h1c1,0,1.7,0.2,2.2,0.6c0.5,0.4,0.7,0.9,0.7,1.6c0,0.9-0.4,1.7-1.1,2.4c-0.7,0.7-1.6,1.1-2.6,1.1
		c-1.1,0-1.8-0.3-2.3-0.9c-0.5-0.6-0.7-1.3-0.7-2.2c0-1.8,0.8-3.5,2.3-5.1s3.4-2.9,5.5-3.8L10.7,12.1z M19.1,12.1
		c-0.5,0.2-1.1,0.5-1.8,0.9c-0.7,0.4-1.2,0.8-1.6,1.1c-0.5,0.4-0.9,0.9-1.2,1.4c-0.4,0.5-0.7,1.1-0.9,1.8h1c1,0,1.7,0.2,2.2,0.6
		c0.5,0.4,0.7,0.9,0.7,1.6c0,0.9-0.4,1.7-1.1,2.4c-0.7,0.7-1.6,1.1-2.6,1.1c-1.1,0-1.8-0.3-2.3-0.9c-0.5-0.6-0.7-1.3-0.7-2.2
		c0-1.8,0.8-3.5,2.3-5.1c1.5-1.6,3.4-2.9,5.5-3.8L19.1,12.1z"/>
</g>
<g class="st0">
	<path class="st1" d="M38.4,26.6c0,1,0,1.8,0,2.2l0,1.2c0,0.1,0,0.3-0.1,0.3c-0.1,0.1-0.3,0.2-0.6,0.4c-0.3,0.2-0.7,0.4-1.2,0.6
		c-0.5,0.2-0.8,0.3-0.9,0.3s-0.2-0.1-0.2-0.3V28h-3.9v3.9c0,0.3,0,0.4-0.1,0.5c-0.1,0.1-0.2,0.2-0.6,0.4s-0.7,0.3-1.2,0.5
		c-0.5,0.2-0.8,0.3-0.9,0.3c-0.1,0-0.2-0.1-0.1-0.3c0.1-1.2,0.2-2.3,0.2-3.5V13.6c0-1,0-2-0.1-3c1.2,0.5,2.4,1,3.4,1.6h3l1-1.3
		c0.2-0.2,0.3-0.3,0.4-0.3c0.2,0,1,0.5,2.4,1.6c7.5-1.4,12.8-2.8,16-4.3c0.6,0.5,1.2,1.1,1.9,1.9c0.7,0.8,1.1,1.3,1.1,1.5
		c0,0.2-0.1,0.4-0.3,0.4c-0.2,0-0.5-0.1-0.8-0.2c-0.3-0.1-0.7-0.2-1.1-0.2c-0.7,0-2.5,0.3-5.5,0.9v13h4.4l1.4-2.1
		c0.2-0.3,0.4-0.4,0.6-0.4c0.2,0,0.5,0.1,0.8,0.4c0.3,0.3,0.8,0.6,1.2,1.1c0.5,0.5,0.9,0.9,1.1,1.2c0.3,0.3,0.4,0.5,0.4,0.7
		c0,0.1-0.2,0.2-0.6,0.2h-9.4v10.6c0,0.7-0.2,1.3-0.7,1.7c-0.4,0.4-1.1,0.8-1.9,1.2c-0.8,0.4-1.4,0.6-1.6,0.6s-0.4-0.2-0.4-0.6
		c-0.1-0.9-0.5-1.6-1.4-2.1c-0.9-0.5-1.8-0.9-2.9-1.2l0.2-0.8c2.3,0.4,3.7,0.6,4.4,0.6c0.6,0,1-0.1,1.1-0.2c0.1-0.1,0.2-0.3,0.2-0.6
		v-9.3h-6.9c-0.4,0-0.9,0-1.3,0.1l-0.4-1.4c0.4,0.1,0.9,0.1,1.4,0.1h7.2V12.6c-2,0.2-4.5,0.3-7.5,0.3c0.1,0.2-0.4,0.6-1.4,1.3V26.6z
		 M31.7,27h3.9V13.2h-3.9V27z M40.5,15.1c1.6,0.9,2.8,1.7,3.6,2.4c0.8,0.7,1.2,1.5,1.2,2.2c0,0.7-0.2,1.4-0.5,2.1s-0.9,0.9-1.6,0.9
		c-0.2,0-0.4-0.1-0.5-0.4c-0.1-0.2-0.2-0.7-0.3-1.2c-0.3-2-1-3.9-2.2-5.5L40.5,15.1z M54.9,13.8c0.5,0.3,1.2,0.7,2.1,1.3
		c0.9,0.6,1.4,1,1.5,1.1c0.1,0.1,0.2,0.3,0.2,0.4c0,0.2-0.2,0.3-0.6,0.3c-0.4,0-0.6,0.1-0.8,0.1c-0.2,0.1-0.3,0.2-0.5,0.5
		c-1.4,1.9-3.2,3.9-5.4,6l-0.6-0.4C52.4,20.2,53.7,17.1,54.9,13.8z"/>
	<path class="st1" d="M70.2,9.8h3.7l0.6-1.2c0.2-0.3,0.3-0.4,0.5-0.4c0.2,0,0.8,0.3,1.7,0.9c1,0.6,1.4,0.9,1.4,1.1S77.7,10.6,77,11
		v23.4c0,1.3-0.1,2.1-0.4,2.7c-0.2,0.5-0.7,1-1.5,1.4c-0.7,0.4-1.3,0.6-1.6,0.6c-0.3,0-0.5-0.2-0.5-0.5c-0.1-0.8-0.3-1.4-0.8-1.8
		c-0.5-0.4-1.4-0.8-3-1.3l0.1-0.8c1.9,0.3,3.1,0.5,3.6,0.5c0.5,0,0.8-0.1,0.9-0.2s0.2-0.4,0.2-0.7v-8.1h-4.5
		C69.4,29.5,69,32,68.1,34c-0.9,2-2.4,4.2-4.5,6.6l-0.5-0.7c1.4-2.1,2.4-4,2.8-5.6c0.4-1.6,0.7-3.7,0.9-6.4c0.1-2.7,0.2-5.3,0.2-8
		c0-2.7-0.1-6.6-0.2-11.8C67.9,8.6,69,9.1,70.2,9.8z M74.1,18.8h-4.4c0,2.7,0,4.9-0.1,6.5h4.5V18.8z M69.7,17.6h4.4v-6.8h-4.4V17.6z
		 M83.6,9.8h5.3l0.8-1.4C89.9,8.1,90.1,8,90.2,8c0.1,0,0.7,0.3,1.8,1c1.1,0.6,1.6,1.1,1.6,1.3s-0.4,0.5-1.2,0.9v23.8
		c0,1.3-0.1,2.1-0.3,2.6c-0.2,0.5-0.7,1-1.5,1.5c-0.8,0.5-1.3,0.8-1.5,0.8s-0.4-0.2-0.5-0.6c-0.3-0.9-0.7-1.5-1.2-1.9
		c-0.5-0.4-1.6-0.8-3.3-1.3l0.1-0.7c1.9,0.3,3.2,0.4,3.8,0.4c0.6,0,1-0.1,1.2-0.2c0.2-0.1,0.2-0.3,0.2-0.6v-8.5h-6.3
		c-0.1,3-0.8,5.6-1.8,7.8c-1.1,2.2-2.8,4.4-5.1,6.5l-0.6-0.5c1.9-2.4,3.1-4.7,3.8-6.9s1-5.8,1-10.7s-0.1-9.7-0.2-14.3
		C81.7,8.8,82.8,9.3,83.6,9.8z M89.4,18.7h-6.2c0,2.5,0,4.6-0.1,6.5h6.2V18.7z M83.2,17.5h6.1v-6.6h-6.1V17.5z"/>
	<path class="st1" d="M101.7,19.1c0.1-0.5,0.1-1,0.2-1.4c0-0.4,0.1-0.8,0.1-1.2c0.6,0.3,1.2,0.6,1.7,0.8c0.5,0.3,1,0.6,1.4,0.9h7.3
		V12h-10.6c-0.4,0-0.9,0.1-1.3,0.2l-0.9-1.5c0.4,0.1,0.8,0.1,1,0.1s0.5,0,0.7,0H112l0.9-1.1c0.2-0.3,0.4-0.4,0.5-0.4
		c0.1,0,0.4,0.1,0.7,0.3c0.4,0.2,0.7,0.5,1.1,0.8c0.4,0.3,0.7,0.5,1,0.7c0.3,0.2,0.4,0.4,0.2,0.6c-0.1,0.2-0.5,0.5-1.3,0.9v4.1
		c0,0.7,0,1.2,0,1.7c0,0.4,0,1,0.1,1.6c0,0.2,0,0.3,0,0.4c0,0.1-0.2,0.2-0.3,0.2c-0.4,0.2-0.7,0.3-1,0.4c-0.3,0.1-0.7,0.2-1.2,0.3
		c-0.3,0.1-0.4,0-0.4-0.3v-1.5h-7.9l-1.6,5.5h9.5l0.8-1.5c0.2-0.2,0.3-0.3,0.4-0.3c0.1,0,0.3,0.1,0.6,0.3c0.4,0.3,0.9,0.5,1.4,0.9
		c0.5,0.3,0.9,0.6,1.2,0.9c0.3,0.3,0.4,0.5,0.3,0.8c-0.1,0.3-0.6,0.5-1.4,0.7c-0.3,1.8-0.6,3.3-0.9,4.7s-0.8,2.7-1.2,4.1
		c-0.2,0.7-0.5,1.2-0.8,1.7c-0.3,0.5-0.6,0.9-1,1.2c-0.4,0.3-0.8,0.6-1.3,0.9c-0.5,0.2-1.1,0.4-1.8,0.6c-0.3,0.1-0.5,0.1-0.6,0.1
		c-0.1-0.1-0.2-0.2-0.2-0.5c0-0.4-0.1-0.7-0.2-0.9c-0.1-0.2-0.3-0.4-0.6-0.6c-0.3-0.2-0.8-0.4-1.5-0.7s-1.6-0.6-2.8-1l0.1-0.7
		c1.7,0.3,3,0.5,3.9,0.7s1.7,0.2,2.2,0.1c0.5-0.1,0.9-0.3,1.1-0.6c0.2-0.3,0.5-0.8,0.7-1.4c0.4-1,0.7-2.1,1-3.4
		c0.3-1.3,0.6-2.8,0.8-4.6h-10.1l-0.4,1.5c0,0.2-0.1,0.4-0.2,0.4c-0.1,0.1-0.2,0.1-0.4,0.2c-0.7,0.1-1.4,0.2-2.1,0.2
		c-0.4,0-0.5-0.2-0.4-0.5c0.3-0.7,0.5-1.2,0.7-1.8c0.2-0.5,0.4-1.1,0.6-1.8L101.7,19.1z M125.8,9.3c0.5,0.2,0.7,0.4,0.7,0.6
		c0,0.2-0.5,0.5-1.3,0.9v25c0,0.7,0,1.3,0,1.8s0,1.1,0.1,1.7c0,0.2,0,0.3,0,0.4c0,0.1-0.2,0.2-0.3,0.2c-0.3,0.2-0.7,0.3-1.1,0.5
		c-0.4,0.1-0.8,0.3-1.3,0.4c-0.2,0-0.3,0-0.3,0c0-0.1-0.1-0.2-0.1-0.5V11.2c0-0.8,0-1.4,0-1.9s0-0.8-0.1-1.2c0.7,0.2,1.4,0.3,2,0.5
		C124.7,8.9,125.3,9.1,125.8,9.3z"/>
	<path class="st1" d="M137.9,21.3c-1.6,2.3-3.4,4.3-5.4,6.1l-0.5-0.6c2.4-3.3,4.3-6.5,5.6-9.4c1.3-3,2.3-6.3,3-9.9
		c0.9,0.3,1.8,0.8,2.7,1.3c1,0.5,1.4,0.9,1.4,1.1s-0.2,0.3-0.7,0.4c-0.4,0.1-0.8,0.5-1,1.2c-0.9,2.3-1.9,4.4-3,6.5
		c1,0.4,1.4,0.7,1.4,0.9s-0.3,0.4-0.8,0.6v18.7c0,0.3,0,0.6-0.1,0.7c-0.1,0.1-0.3,0.3-0.6,0.6s-0.7,0.5-1.2,0.6
		c-0.4,0.2-0.7,0.3-0.8,0.3s-0.2-0.1-0.2-0.3l0.1-2.4c0-1,0.1-2.3,0.1-3.8V21.3z M150.7,21.1h-5.4c-0.6,0-1,0.1-1.2,0.2l-0.6-1.5
		c0.5,0.1,1,0.1,1.5,0.1h5.7v-8.6c0-1.4,0-2.6-0.1-3.6c1,0.2,1.9,0.4,2.7,0.7c0.8,0.3,1.3,0.4,1.4,0.5c0.1,0.1,0.2,0.2,0.2,0.2
		c0,0.2-0.4,0.5-1.2,0.9V20h4.9l1.5-2c0.2-0.3,0.4-0.4,0.6-0.4s0.4,0.1,0.6,0.3c0.2,0.2,0.6,0.6,1.1,1.1c0.5,0.5,0.8,0.9,1.1,1.2
		s0.3,0.5,0.3,0.6s-0.2,0.2-0.6,0.2h-9.5v6.1h5.9l1.5-2c0.2-0.3,0.4-0.4,0.7-0.4c0.3,0,0.9,0.5,1.8,1.4c0.9,0.9,1.4,1.5,1.4,1.7
		s-0.2,0.3-0.5,0.3h-10.8v6.2c0,0.9,0,1.8,0.1,2.8l0,1.3c0,0.2,0,0.4-0.1,0.4c0,0.1-0.3,0.2-0.7,0.4c-0.4,0.2-0.8,0.3-1.3,0.5
		c-0.5,0.1-0.8,0.2-1,0.2c-0.2,0-0.3-0.1-0.3-0.3s0-0.8,0.1-1.9s0.1-2.3,0.1-3.7v-5.9h-7c-0.6,0-1,0.1-1.2,0.2l-0.6-1.5
		c0.5,0.1,1,0.1,1.5,0.1h7.3V21.1z M144.4,11.2c1.5,0.9,2.6,1.8,3.3,2.5c0.7,0.8,1.1,1.5,1.1,2.2c0,0.7-0.3,1.3-0.8,1.9
		c-0.5,0.6-0.9,0.9-1.3,0.9c-0.3,0-0.6-0.4-0.7-1.1c-0.3-1.5-0.5-2.7-0.9-3.5c-0.3-0.8-0.8-1.6-1.3-2.4L144.4,11.2z M158.6,9.8
		c1.2,0.5,2.1,1,2.8,1.5s1,0.8,1,1c0,0.2-0.2,0.3-0.5,0.3c-0.3,0-0.6,0.1-0.8,0.3c-0.2,0.2-0.5,0.4-0.7,0.6
		c-0.2,0.3-0.6,0.7-1.1,1.3l-3.6,4.2l-0.7-0.3C156.9,14.9,158.1,11.9,158.6,9.8z"/>
</g>
<g class="st0">
	<path class="st1" d="M192.6,34.7c0,1.8-0.7,3.5-2.2,5.1s-3.2,2.9-5.3,3.8l-0.5-1.2c0.7-0.3,1.3-0.7,1.8-0.9c0.5-0.3,1-0.7,1.5-1.2
		c0.5-0.4,0.9-0.9,1.2-1.4c0.3-0.5,0.6-1.1,0.8-1.8h-1c-1.1,0-1.8-0.2-2.3-0.6c-0.5-0.4-0.8-1-0.8-1.7c0-0.9,0.4-1.7,1.1-2.4
		c0.7-0.7,1.5-1.1,2.5-1.1c1.1,0,1.9,0.3,2.5,1C192.3,32.8,192.6,33.7,192.6,34.7z"/>
</g>
<g class="st0">
</g>
<g class="st0">
	<path class="st1" d="M90,76.1v-9.7h-5.4c-0.6,0-1.1,0.1-1.5,0.2l-0.8-1.5c0.5,0.1,1,0.2,1.8,0.2h6v-5.6c0-1.2,0-2.2-0.1-3.1
		c0.8,0.2,1.6,0.4,2.5,0.7c0.9,0.3,1.4,0.5,1.5,0.5c0.1,0.1,0.2,0.2,0.2,0.3c0,0.2-0.4,0.6-1.1,1.2v6h6.9v-5.7c0-1.1,0-2.2-0.1-3.1
		c3,0.7,4.4,1.3,4.4,1.6c0,0.2-0.4,0.6-1.2,1.2v6h3.3l1.6-2.2c0.2-0.3,0.4-0.4,0.5-0.4c0.2,0,0.9,0.5,2,1.5c1.1,1,1.7,1.6,1.7,1.9
		s-0.2,0.3-0.7,0.3h-8.4v9.7h4.4l1.8-2.2c0.2-0.2,0.3-0.3,0.5-0.3c0.1,0,0.4,0.2,0.8,0.5l1.6,1.4c0.7,0.6,1,1.1,1,1.4
		c0,0.2-0.2,0.3-0.5,0.3H82.6c-0.6,0-1.1,0.1-1.5,0.2L80.3,76c0.5,0.1,1.1,0.2,1.8,0.2H90z M92.2,77.8c1.2,0.6,2.1,1.1,2.7,1.5
		c0.6,0.4,0.9,0.8,0.9,0.9c0,0.2-0.2,0.3-0.5,0.3c-0.3,0-0.8,0.1-1.3,0.4c-0.5,0.3-1.4,1-2.8,2.1c-1.3,1.1-2.8,2-4.4,2.9
		c-1.6,0.8-3.5,1.7-5.8,2.6l-0.2-0.8c2.7-1.6,4.8-3.2,6.5-4.7C89.1,81.6,90.7,79.8,92.2,77.8z M93.1,66.4v9.7h6.9v-9.7H93.1z
		 M99.4,78.4c3.2,1.1,5.8,2.3,7.8,3.5c2,1.2,3,2.6,3,4.2c0,0.7-0.1,1.4-0.4,1.9c-0.2,0.5-0.5,0.8-0.9,0.8c-0.3,0-0.6-0.1-0.8-0.2
		s-0.4-0.4-0.7-0.8c-2.2-3.6-5-6.5-8.6-8.8L99.4,78.4z"/>
	<path class="st1" d="M133.1,79.4h9.6l1.3-2c0.2-0.3,0.4-0.4,0.6-0.4s0.5,0.2,1,0.6l1.7,1.3c0.7,0.5,1,0.9,1,1.2
		c0,0.3-0.2,0.4-0.7,0.4h-14.5v5.7c0,0.7-0.1,1.2-0.4,1.6c-0.3,0.4-0.9,0.8-1.9,1.3c-1,0.5-1.6,0.7-1.9,0.7c-0.2,0-0.4-0.2-0.5-0.7
		c-0.2-0.7-0.5-1.3-0.9-1.7c-0.5-0.4-1.4-0.9-2.7-1.4l0.2-0.7c2.1,0.5,3.3,0.7,3.8,0.7s0.8-0.1,1-0.3c0.1-0.2,0.2-0.5,0.2-1v-4.3
		h-12.8c-0.6,0-1.1,0.1-1.5,0.2l-0.6-1.6c0.5,0.1,1.1,0.2,1.8,0.2H130c0-1.1,0-2.1-0.1-3.1c0.8,0.1,1.9,0.2,3,0.4
		c1.4-1,2.4-1.9,3-2.5h-14c-0.6,0-1.1,0.1-1.5,0.2l-0.6-1.4c0.5,0.1,1.1,0.2,1.8,0.2H137l1.4-1.5c0.2-0.2,0.4-0.4,0.6-0.4
		s0.7,0.3,1.6,0.8c0.9,0.6,1.5,1,1.9,1.2c0.4,0.2,0.6,0.4,0.6,0.6c0,0.2-0.1,0.3-0.3,0.4c-0.2,0.1-0.4,0.1-0.6,0.1
		c-0.2,0-0.4-0.1-0.6-0.1c-0.6,0-1.5,0.2-2.6,0.7c-1.2,0.4-3.1,1.3-5.8,2.7V79.4z M130.7,61.4c-0.4-2-1.4-3.4-3-4.3l0.1-0.6
		c1.8,0.3,3.2,0.6,4.1,1.1c1,0.4,1.4,1,1.4,1.7c0,0.3-0.1,0.7-0.3,1.2c-0.2,0.4-0.5,0.8-0.9,1h9.5l1.5-2.1c0.2-0.3,0.5-0.5,0.7-0.5
		c0.2,0,0.9,0.5,1.9,1.4c1.1,0.9,1.6,1.5,1.6,1.8s-0.3,0.4-1,0.4h-28.4c-0.6,0-1.1,0.1-1.5,0.2l-0.6-1.5c0.5,0.1,1.1,0.2,1.8,0.2
		H130.7z M125.4,64.5h12l0.8-1.2c0.1-0.2,0.3-0.4,0.4-0.4s0.7,0.3,1.7,1c1,0.7,1.5,1.1,1.5,1.3c0,0.2-0.4,0.4-1.2,0.6v2.3
		c0,0.5,0,0.9,0,1.3l0.1,0.9c0,0.2-0.1,0.3-0.3,0.4c-0.2,0.1-0.6,0.3-1.2,0.5c-0.6,0.2-1,0.3-1.3,0.3c-0.1,0-0.2-0.1-0.2-0.4v-0.7
		h-12.4v0.8c0,0.2,0,0.4-0.1,0.4c0,0.1-0.3,0.2-0.7,0.3c-0.4,0.2-0.8,0.3-1.2,0.4s-0.7,0.1-0.8,0.1s-0.1-0.1-0.1-0.3l0-1.1
		c0-0.4,0-0.8,0-1.3v-3.2c0-1,0-2-0.1-3C123.6,63.9,124.7,64.2,125.4,64.5z M137.6,69.3v-3.7h-12.4v3.7H137.6z"/>
	<path class="st1" d="M182.8,86.7c-1.4,0-2.4,0.2-3.1,0.4c-0.7,0.2-1.2,0.7-1.7,1.4c-0.2,0.3-0.4,0.3-0.8,0.2
		c-1.4-0.6-2.7-1.2-3.7-1.9c-1.1-0.7-2-1.5-2.7-2.4s-1.4-1.8-2-2.9c-0.5-1-1-2.2-1.4-3.4h-0.7c-0.5,1.7-1.1,3.1-1.8,4.3
		c-0.7,1.2-1.7,2.1-2.9,3c-1.2,0.8-2.7,1.5-4.6,2.1c-1.8,0.6-4.2,1.1-7,1.6l-0.2-0.8c1.7-0.6,3.1-1.1,4.4-1.5
		c1.2-0.5,2.3-0.9,3.2-1.4c0.9-0.5,1.7-0.9,2.3-1.4c0.6-0.5,1.1-1,1.5-1.6s0.8-1.2,1.1-1.9c0.3-0.7,0.6-1.5,0.9-2.4h-11
		c-0.3,0-0.5,0-0.8,0.1c-0.3,0-0.5,0.1-0.7,0.1l-0.6-1.5c0.3,0.1,0.6,0.1,0.9,0.1c0.2,0,0.5,0,0.9,0h11.5c0.2-0.8,0.4-1.5,0.5-2.1
		s0.2-1.3,0.3-2.1c0.7,0.2,1.4,0.3,2,0.5s1.1,0.3,1.5,0.5c0.8,0.3,0.8,0.6,0,0.9c-0.2,0.1-0.3,0.3-0.4,0.6c-0.1,0.3-0.3,0.9-0.5,1.7
		h10.4l1.3-1.9c0.1-0.2,0.3-0.3,0.4-0.3s0.4,0.1,0.7,0.3c0.4,0.4,0.8,0.7,1.1,1c0.3,0.3,0.6,0.7,1.1,1c0.4,0.4,0.6,0.6,0.5,0.8
		c0,0.1-0.3,0.2-0.8,0.2h-13.5c0.8,1.2,1.6,2.3,2.5,3.1c0.9,0.9,1.9,1.6,3,2.2s2.4,1.1,3.9,1.5s3.2,0.7,5.2,1V86.7z M180.9,71.7
		c0.4,0.4,0.6,0.7,0.6,0.8c0,0.1-0.3,0.2-0.8,0.2h-27.2c-0.3,0-0.5,0-0.8,0.1c-0.3,0-0.5,0.1-0.7,0.2l-0.6-1.5
		c0.3,0.1,0.6,0.1,0.8,0.1c0.2,0,0.5,0,0.9,0h11.5v-3.5h-8.9c-0.3,0-0.5,0-0.8,0.1c-0.3,0-0.5,0.1-0.6,0.2l-0.6-1.5
		c0.3,0.1,0.6,0.1,0.8,0.1c0.2,0,0.5,0,0.9,0h9.2v-3.4h-10.8c-0.7,0-1.1,0.1-1.4,0.2l-0.6-1.5c0.3,0.1,0.6,0.1,0.8,0.2
		s0.5,0.1,0.9,0.1h7.7c-0.1-0.1-0.2-0.1-0.3-0.1c-0.1,0-0.1-0.2-0.2-0.5c-0.1-0.4-0.2-0.8-0.3-1.2c-0.1-0.4-0.3-0.7-0.5-1
		c-0.2-0.3-0.4-0.7-0.7-1c-0.3-0.4-0.7-0.8-1.1-1.2l0.4-0.6c1.2,0.4,2.2,0.8,2.9,1.1c0.7,0.3,1.3,0.6,1.6,1c0.4,0.3,0.6,0.6,0.7,1
		c0.1,0.3,0.1,0.7,0,1.2c-0.1,0.4-0.2,0.7-0.4,0.9c-0.2,0.2-0.5,0.3-0.8,0.4h5.8c0.5-0.7,0.9-1.4,1.3-1.9c0.4-0.6,0.7-1.1,0.9-1.6
		c0.3-0.5,0.5-0.9,0.6-1.3c0.2-0.4,0.3-0.8,0.4-1.3c0.5,0.1,0.9,0.3,1.2,0.4s0.6,0.3,0.9,0.4c0.2,0.1,0.5,0.3,0.7,0.4
		c0.2,0.1,0.4,0.2,0.7,0.4c0.6,0.3,0.5,0.6-0.3,0.9c-0.4,0.1-1,0.4-1.8,1s-1.9,1.4-3.2,2.7h6.6l1.3-2c0.2-0.3,0.4-0.5,0.5-0.5
		c0.2,0,0.4,0.1,0.6,0.3c0.5,0.4,0.9,0.7,1.2,1c0.3,0.3,0.7,0.6,1.1,1.1c0.3,0.4,0.5,0.7,0.5,0.9s-0.3,0.3-0.8,0.3h-12.9V67h6.4
		l1.2-1.7c0.2-0.3,0.3-0.4,0.5-0.4s0.4,0.1,0.7,0.3c0.3,0.2,0.5,0.4,0.7,0.5c0.2,0.2,0.4,0.3,0.5,0.5c0.2,0.2,0.3,0.3,0.5,0.5
		c0.2,0.2,0.4,0.3,0.6,0.6c0.3,0.3,0.4,0.5,0.4,0.6c0,0.2-0.2,0.3-0.6,0.3h-10.8v3.5h9l0.9-1.5c0.2-0.3,0.3-0.4,0.5-0.4
		s0.4,0.1,0.6,0.3c0.5,0.4,0.9,0.7,1.1,1C180.3,71.1,180.6,71.4,180.9,71.7z"/>
	<path class="st1" d="M189.9,61.5h2.6l0.9-1.4c0.2-0.3,0.3-0.4,0.5-0.4s0.8,0.4,1.7,1.1c0.9,0.7,1.4,1.2,1.4,1.4s-0.4,0.5-1.3,0.9
		v11.3c0,1,0,1.8,0,2.2l0,1.2c0,0.2-0.1,0.4-0.3,0.5c-0.2,0.1-0.6,0.3-1.2,0.5c-0.6,0.2-1,0.3-1.2,0.3c-0.2,0-0.2-0.1-0.2-0.3v-2.2
		h-3.2v3.4c0,0.3-0.1,0.5-0.2,0.6c-0.2,0.1-0.6,0.3-1.3,0.5c-0.7,0.2-1.1,0.4-1.4,0.4c-0.1,0-0.1-0.1-0.1-0.3
		c0.1-1.2,0.2-2.3,0.2-3.5V62.7c0-1,0-2-0.1-3C187.8,60.2,188.9,60.8,189.9,61.5z M192.8,75.4V62.5h-3.2v12.9H192.8z M206.2,70.6
		h5.6l1.4-1.9c0.2-0.2,0.4-0.3,0.5-0.3c0.2,0,0.4,0.1,0.8,0.4s0.8,0.6,1.2,1.1c0.5,0.4,0.8,0.8,1,1c0.2,0.2,0.3,0.4,0.3,0.6
		s-0.3,0.2-0.8,0.2h-8.6c0.9,2.8,2.1,5.1,3.6,6.9s3.7,3.4,6.7,4.9l-0.1,0.6c-0.4,0-0.8,0-1.1,0c-1.5,0-2.5,0.4-3,1.1
		c-0.1,0.2-0.3,0.3-0.4,0.3c-0.2,0-0.3-0.1-0.4-0.2c-0.1-0.1-0.6-0.7-1.5-1.8s-1.6-2.1-2.2-3.3s-1.1-2.4-1.5-3.7s-0.7-3-1-4.8h-0.5
		v12.2l0.1,4c0,0.2-0.1,0.4-0.3,0.6c-0.2,0.1-0.7,0.3-1.4,0.6c-0.7,0.3-1.2,0.4-1.3,0.4c-0.2,0-0.3-0.1-0.3-0.3l0.1-1.6
		c0-1.1,0.1-2.1,0.1-3.1v-8.9c-2.8,4.4-6.6,8-11.5,10.6l-0.4-0.6c2.6-2.2,4.6-4.3,6.1-6.2s2.9-4.5,4.5-7.7h-3.9
		c-0.6,0-1.1,0.1-1.5,0.2l-0.6-1.4c0.5,0.1,1.1,0.2,1.8,0.2h5.6v-5.7h-4.2c-0.6,0-1.1,0.1-1.5,0.2l-0.6-1.4c0.5,0.1,1.1,0.2,1.8,0.2
		h4.5v-3.5c0-1.5,0-2.9-0.1-4c1,0.2,1.9,0.4,2.8,0.7s1.4,0.4,1.6,0.5c0.2,0.1,0.3,0.2,0.3,0.3c0,0.3-0.5,0.6-1.5,1v4.9h3.6l1.4-1.9
		c0.2-0.2,0.3-0.4,0.5-0.4c0.3,0,0.9,0.5,1.9,1.4c1,0.9,1.4,1.5,1.4,1.7c0,0.2-0.2,0.3-0.7,0.3h-8.1V70.6z"/>
	<path class="st1" d="M226,61.2h3.2L230,60c0.2-0.2,0.4-0.3,0.5-0.3c0.2,0,0.5,0.2,1.2,0.6s1.1,0.7,1.4,0.8c0.3,0.2,0.5,0.4,0.5,0.6
		c0,0.2-0.4,0.6-1.3,1v17.7c0,1.2,0,1.9,0,2.3l0,1c0,0.2-0.1,0.3-0.3,0.5c-0.2,0.1-0.6,0.3-1.2,0.6c-0.6,0.2-1,0.4-1.1,0.4
		s-0.2-0.1-0.2-0.4v-3h-4.2v3.9c0,0.2,0,0.4-0.1,0.5s-0.3,0.2-0.6,0.4s-0.8,0.3-1.3,0.5c-0.4,0.1-0.7,0.2-0.8,0.2s-0.1-0.1-0.1-0.3
		c0.1-1.1,0.2-2.3,0.2-3.5V62.4c0-1.1,0-2.1-0.1-3C223.8,59.9,225,60.5,226,61.2z M229.4,71.1v-9h-4.2v9H229.4z M229.4,80.5v-8.3
		h-4.2v8.3H229.4z M239.8,64.1h-4.1c-0.6,0-1.1,0.1-1.5,0.2l-0.6-1.5c0.5,0.1,1.1,0.2,1.8,0.2h4.5v-3.4c0-1.7,0-2.7-0.1-3.1
		c3.1,0.6,4.6,1.1,4.6,1.5c0,0.2-0.5,0.6-1.5,1.2V63h3.8l1.6-2c0.2-0.2,0.3-0.3,0.5-0.3c0.2,0,0.8,0.4,1.7,1.3
		c1,0.9,1.5,1.4,1.5,1.7s-0.2,0.4-0.7,0.4h-8.4v5.7h4.7l1.5-2.2c0.2-0.2,0.3-0.3,0.5-0.3c0.3,0,0.9,0.5,1.8,1.5
		c0.9,1,1.3,1.6,1.3,1.7c0,0.2-0.2,0.3-0.7,0.3h-7.9c0.7,0.1,1.4,0.3,2.1,0.6c0.7,0.3,1.1,0.5,1.1,0.6c0,0.2-0.4,0.4-1.1,0.8v2.1
		h1.9l1.4-1.9c0.2-0.2,0.3-0.3,0.4-0.3c0.2,0,0.7,0.4,1.6,1.3c0.9,0.9,1.3,1.4,1.3,1.6s-0.2,0.3-0.7,0.3h-6v10.4
		c0,0.8-0.1,1.4-0.3,1.7c-0.2,0.3-0.8,0.7-1.8,1.2s-1.6,0.7-1.8,0.7c-0.2,0-0.4-0.2-0.5-0.5c-0.3-0.9-0.6-1.5-1.1-1.8
		c-0.4-0.3-1.4-0.7-3-1.2l0.2-0.8c2.2,0.4,3.6,0.7,4.1,0.7s0.8-0.1,0.9-0.2s0.2-0.5,0.2-0.9v-9.1h-8.5c-0.5,0-1,0.1-1.4,0.2
		l-0.6-1.3c0.5,0.1,1.1,0.2,1.8,0.2h8.7c0-2.3,0-3.6-0.1-4.1h-8.6c-0.5,0-1,0.1-1.4,0.2l-0.6-1.3c0.5,0.1,1.1,0.2,1.8,0.2h5.5V64.1z
		 M234.9,76.9c1.7,0.8,2.9,1.5,3.6,2c0.8,0.5,1.3,0.9,1.5,1.3c0.2,0.4,0.3,0.8,0.3,1.4c0,0.5-0.2,1.1-0.5,1.6
		c-0.4,0.5-0.7,0.8-1.1,0.8c-0.2,0-0.4-0.1-0.5-0.2c-0.1-0.1-0.2-0.4-0.3-0.8c-0.3-1-0.7-2-1.2-2.9c-0.5-0.9-1.3-1.8-2.3-2.8
		L234.9,76.9z"/>
	<path class="st1" d="M275.9,71.5v11.6c0,0.6,0.1,1,0.2,1.3s0.5,0.5,1,0.6c0.5,0.1,1.6,0.2,3.3,0.2c1,0,1.7-0.1,2.1-0.4
		c0.4-0.3,0.8-0.9,1.1-1.9c0.3-1,0.6-2.7,1-5.1l0.9,0.1c0,1.8,0,3.2,0.1,4c0.1,0.8,0.2,1.4,0.3,1.7c0.2,0.3,0.4,0.6,0.7,0.9
		c0.3,0.2,0.5,0.4,0.5,0.6c0,0.2-0.2,0.6-0.6,1.3c-0.4,0.7-1,1.2-1.8,1.4s-2.4,0.4-4.8,0.4s-4.1-0.1-5-0.4s-1.5-0.7-1.8-1.2
		c-0.3-0.6-0.4-1.4-0.4-2.7V71.5h-3.9c-0.1,2.5-0.3,4.6-0.5,6.3c-0.3,1.8-0.6,3.1-0.9,4.2c-0.4,1-1,2-1.9,2.9
		c-0.9,0.9-2.2,1.7-3.7,2.4s-3.4,1.3-5.7,1.8l-0.2-0.6c1.9-0.7,3.6-1.7,4.9-2.8s2.4-2.1,2.9-3.1c0.6-1,1-2.4,1.4-4.3
		c0.3-1.9,0.5-4.2,0.5-6.8h-5.8c-0.6,0-1.1,0.1-1.5,0.2l-0.8-1.5c0.5,0.1,1.1,0.2,1.8,0.2h10.5V59.5c0-1.2,0-2.2-0.1-3.1
		c0.4,0.1,1.2,0.3,2.3,0.6c1.1,0.3,1.7,0.5,1.9,0.6c0.1,0.1,0.2,0.2,0.2,0.3c0,0.3-0.4,0.6-1.2,1v11.5h7.9l1.4-2.3
		c0.2-0.4,0.4-0.6,0.6-0.6c0.2,0,0.6,0.3,1.2,0.8c0.7,0.5,1.2,1,1.7,1.5s0.7,0.9,0.7,1.2c0,0.3-0.3,0.5-0.9,0.5H275.9z M260.1,60
		c2.3,1.3,4,2.4,5.2,3.5c1.2,1,1.7,2,1.7,2.9s-0.2,1.6-0.5,2.2c-0.3,0.6-0.7,0.9-1.2,0.9c-0.2,0-0.4-0.1-0.5-0.2
		c-0.1-0.1-0.4-0.8-0.9-2c-0.5-1.2-0.9-2.3-1.4-3.1c-0.5-0.8-1.4-2-2.8-3.4L260.1,60z M279.9,58.8c0.4,0.2,1.1,0.6,2.3,1.2
		s1.7,1.1,1.7,1.3s-0.2,0.3-0.7,0.4c-0.3,0-0.9,0.6-1.8,1.7c-1,1.1-2.8,3.3-5.4,6.8l-0.7-0.3C277.4,65.2,279,61.5,279.9,58.8z"/>
</g>
<g class="st0">
	<path class="st1" d="M309.6,62.9c0,1.8-0.8,3.5-2.3,5.1s-3.4,2.9-5.5,3.8l-0.5-1.2c0.5-0.2,1.1-0.5,1.8-0.9
		c0.7-0.4,1.2-0.8,1.6-1.1c0.5-0.4,0.9-0.9,1.2-1.4c0.4-0.5,0.7-1.1,0.9-1.8h-1c-1,0-1.7-0.2-2.2-0.6c-0.5-0.4-0.7-0.9-0.7-1.6
		c0-0.9,0.4-1.7,1.1-2.4s1.6-1.1,2.6-1.1c1.1,0,1.8,0.3,2.3,0.9C309.4,61.3,309.6,62,309.6,62.9z M318,62.9c0,1.8-0.8,3.5-2.3,5.1
		s-3.4,2.9-5.5,3.8l-0.5-1.2c0.5-0.2,1.1-0.5,1.8-0.9c0.7-0.4,1.2-0.8,1.6-1.1c0.5-0.4,0.9-0.9,1.2-1.4c0.4-0.5,0.7-1.1,0.9-1.8h-1
		c-1,0-1.7-0.2-2.2-0.6c-0.5-0.4-0.7-0.9-0.7-1.6c0-0.9,0.4-1.7,1.1-2.4c0.7-0.7,1.6-1.1,2.6-1.1c1.1,0,1.8,0.3,2.3,0.9
		S318,62,318,62.9z"/>
</g>
</svg>
