<svg xmlns="http://www.w3.org/2000/svg" width="73.461" height="66" viewBox="0 0 73.461 66">
  <g id="Group_6164" data-name="Group 6164" transform="translate(-0.5 -7.89)">
    <path id="Path_809" data-name="Path 809" d="M87.354,7.89c.094.066.189.133.284.2a1.407,1.407,0,0,1,.646,1.654,1.424,1.424,0,0,1-2.722,0,1.411,1.411,0,0,1,.648-1.654c.1-.065.189-.132.284-.2Z" transform="translate(-72.793)" fill="#a59583"/>
    <path id="Path_810" data-name="Path 810" d="M58.958,95.464c.478.457.969.9,1.431,1.375a1.456,1.456,0,0,1-.046,2.407,11.307,11.307,0,0,1-11.972,2.545,11.183,11.183,0,0,1-7.751-9.46,11.329,11.329,0,0,1,2.845-9.43c.485-.562,1-1.034,1.692-.93a22.1,22.1,0,0,1-.086-3.475A16.785,16.785,0,0,1,46,75.664a1.178,1.178,0,0,0,.027-.813,7.527,7.527,0,0,1,0-7.784.973.973,0,0,0-.029-.807,7.482,7.482,0,0,1,5.083-11.18,8.068,8.068,0,0,1,1.784-.1c.567.019,1.132.136,1.673.206.47-.912.869-1.863,1.419-2.718,1.725-2.685,4.085-4.421,7.389-4.487a8.2,8.2,0,0,1,6.464,3.052c4.6,5.2,3.979,14.163-1.139,18.387a.859.859,0,0,0-.268.649,7.334,7.334,0,0,1-1,4.679.814.814,0,0,0,0,.961,7.321,7.321,0,0,1,.007,7.575.773.773,0,0,0-.054.9,7.481,7.481,0,0,1-7.99,11.154,2.787,2.787,0,0,0-.282-.022Zm6.594-24.373a8.091,8.091,0,0,1-4.07.032A9.885,9.885,0,0,1,55,65.1a12.9,12.9,0,0,1-1.032-6.369c.047-.567-.156-.82-.664-.83a7.742,7.742,0,0,0-1.987.075,4.568,4.568,0,0,0-2.327,7.5c.745.878.778,1.495.123,2.285a4.578,4.578,0,0,0,.011,6.412,1.46,1.46,0,0,1-.007,2.118,4.577,4.577,0,0,0,0,6.412,1.472,1.472,0,0,1,.054,2.07c-.113.147-.233.288-.305.377l6.4,6.423c1.443-.9,1.687-.911,2.608-.131a4.6,4.6,0,0,0,6.487-6.51,1.513,1.513,0,0,1,.012-2.338,4.571,4.571,0,0,0,0-6.2,1.5,1.5,0,0,1,0-2.332A4.539,4.539,0,0,0,65.552,71.091ZM56.79,59.7a10.086,10.086,0,0,0,2.432,6.786,5.37,5.37,0,0,0,8.434-.071,10.777,10.777,0,0,0,.245-13.2c-2.63-3.208-6.547-3.158-9.08.129A10.112,10.112,0,0,0,56.79,59.7ZM44.976,85.646a8.829,8.829,0,0,0,1.1,11.475c3.124,2.977,8.21,3.348,11.228.859Z" transform="translate(-34.246 -34.339)" fill="#a59583"/>
    <path id="Path_811" data-name="Path 811" d="M347.418,61.162q.126,4.043.254,8.086c.052,1.6.121,3.2.168,4.8a1.473,1.473,0,0,1-1.647,1.7q-2.653.014-5.306,0a1.438,1.438,0,0,1-1.625-1.7q.408-10.854.833-21.707c.048-1.242.079-2.485.153-3.725a1.439,1.439,0,0,1,1.64-1.558c1.171-.009,2.344-.033,3.513.016a1.6,1.6,0,0,1,1.089.4c.389.494.763.415,1.238.275.847-.248,1.7-.469,2.556-.694,1.4-.369,1.99-.01,2.321,1.413q2.093,8.995,4.18,17.991.753,3.243,1.5,6.488a1.449,1.449,0,0,1-1.191,1.981c-1.057.3-2.118.575-3.18.855-1.227.324-1.8.02-2.169-1.177q-1.992-6.426-3.972-12.856c-.062-.2-.126-.4-.19-.6Zm-4.361-11.217c-.3,7.666-.595,15.271-.892,22.89h2.761l-.766-22.89Zm12.171,22.5-5.2-22.354-2.618.72,6.759,21.944Z" transform="translate(-290.155 -33.426)" fill="#a59583"/>
    <path id="Path_812" data-name="Path 812" d="M326.516,314.9a7.071,7.071,0,0,1,5.406-6.827,6.978,6.978,0,0,1,7.888,3.651,1.167,1.167,0,0,0,1.3.8,6.283,6.283,0,1,1-5.171,9.751.834.834,0,0,0-1.015-.46A7.023,7.023,0,0,1,326.516,314.9Zm11.208.008a4.169,4.169,0,1,0-4.111,4.179A4.162,4.162,0,0,0,337.724,314.912Zm.411,5.382a3.338,3.338,0,0,0,4.321,1.672,3.423,3.423,0,0,0,1.977-4.189,3.337,3.337,0,0,0-3.841-2.289A7.19,7.19,0,0,1,338.135,320.294Z" transform="translate(-279.24 -256.948)" fill="#a59583"/>
    <path id="Path_813" data-name="Path 813" d="M430.394,269.374a1.43,1.43,0,1,1-1.367-1.455A1.447,1.447,0,0,1,430.394,269.374Z" transform="translate(-365.765 -222.719)" fill="#a59583"/>
    <path id="Path_814" data-name="Path 814" d="M166.015,250.866a1.433,1.433,0,0,1-1.442-1.448A1.466,1.466,0,0,1,166,248.01a1.444,1.444,0,0,1,1.435,1.46A1.418,1.418,0,0,1,166.015,250.866Z" transform="translate(-140.532 -205.668)" fill="#a59583"/>
    <path id="Path_815" data-name="Path 815" d="M131.029,292.865a1.433,1.433,0,0,1-1.455-1.435,1.466,1.466,0,0,1,1.41-1.422,1.446,1.446,0,0,1,1.448,1.447A1.419,1.419,0,0,1,131.029,292.865Z" transform="translate(-110.554 -241.641)" fill="#a59583"/>
    <path id="Path_816" data-name="Path 816" d="M122.6,201.658a1.407,1.407,0,0,1,1.436,1.385,1.439,1.439,0,0,1-1.448,1.46,1.421,1.421,0,0,1-1.392-1.436A1.39,1.39,0,0,1,122.6,201.658Z" transform="translate(-103.376 -165.966)" fill="#a59583"/>
    <path id="Path_897" data-name="Path 897" d="M8.1,7.89c.115.08.232.158.345.24a1.427,1.427,0,0,1-.771,2.621c-.908.023-1.817,0-2.726.011a1.449,1.449,0,0,0-1.581,1.551c-.005.167,0,.335,0,.5q0,28.085,0,56.17c0,1.619.416,2.034,2.036,2.034h36.07V10.76h-.808q-9.9,0-19.8,0a1.492,1.492,0,0,1-1.637-1A1.368,1.368,0,0,1,19.7,8.215a5.04,5.04,0,0,1,.461-.325H70.374a4.716,4.716,0,0,1,3.587,3.587V70.3a4.724,4.724,0,0,1-3.587,3.587H4.087A4.715,4.715,0,0,1,.5,70.3V11.477A4.7,4.7,0,0,1,4.087,7.89ZM44.456,48.064V71.02H69.172c1.466,0,1.919-.457,1.919-1.936q0-10.113,0-20.226v-.8c-.528,0-.957.014-1.384,0a1.431,1.431,0,1,1,0-2.86c.445-.017.891,0,1.383,0v-.581q0-16.066,0-32.133c0-1.213-.527-1.721-1.771-1.722q-12.121,0-24.243,0c-.207,0-.414.024-.622.036v34.4h.9c3.754,0,7.507-.005,11.261,0a1.436,1.436,0,1,1,.005,2.862c-.5.013-1,0-1.506,0Z" fill="#a59583"/>
  </g>
</svg>
