<?xml version="1.0" encoding="utf-8"?>
<!-- Generator: Adobe Illustrator 24.1.0, SVG Export Plug-In . SVG Version: 6.00 Build 0)  -->
<svg version="1.1" id="圖層_1" xmlns="http://www.w3.org/2000/svg" xmlns:xlink="http://www.w3.org/1999/xlink" x="0px" y="0px"
	 viewBox="0 0 436 88" style="enable-background:new 0 0 436 88;" xml:space="preserve">
<style type="text/css">
	.st0{enable-background:new    ;}
	.st1{fill:#858585;}
</style>
<g transform="matrix(1, 0, 0, 1, 0, 0)">
	<g class="st0">
		<path class="st1" d="M25.7,23.5c-0.7,0.3-1.6,0.8-2.5,1.3c-0.9,0.6-1.7,1.1-2.3,1.6c-0.6,0.6-1.2,1.2-1.8,2
			c-0.5,0.7-0.9,1.6-1.2,2.5h1.4c1.4,0,2.5,0.3,3.2,0.8s1,1.3,1,2.2c0,1.2-0.5,2.4-1.6,3.4c-1,1-2.3,1.5-3.7,1.5
			c-1.5,0-2.6-0.4-3.3-1.2c-0.7-0.8-1-1.9-1-3.2c0-2.6,1.1-5,3.2-7.3c2.2-2.3,4.8-4.1,7.9-5.4L25.7,23.5z M37.7,23.5
			c-0.7,0.3-1.6,0.8-2.5,1.3c-0.9,0.6-1.7,1.1-2.3,1.6c-0.6,0.6-1.2,1.2-1.8,2c-0.5,0.7-0.9,1.6-1.2,2.5h1.4c1.4,0,2.5,0.3,3.2,0.8
			s1,1.3,1,2.2c0,1.2-0.5,2.4-1.6,3.4c-1,1-2.3,1.5-3.7,1.5c-1.5,0-2.6-0.4-3.3-1.2c-0.7-0.8-1-1.9-1-3.2c0-2.6,1.1-5,3.2-7.3
			c2.2-2.3,4.8-4.1,7.9-5.4L37.7,23.5z"/>
	</g>
	<g class="st0">
		<path class="st1" d="M54,24.6c0-1.6,0-2.9-0.1-3.9c0.6,0.2,1.1,0.3,1.5,0.4c0.4,0.1,0.8,0.2,1.2,0.3c0.4,0.1,0.7,0.2,1.1,0.4
			c0.4,0.1,0.8,0.3,1.2,0.4c0.5,0.2,0.8,0.4,0.7,0.7c-0.1,0.3-0.7,0.6-1.7,1v10.5h5.6V21.7c0-1.2,0-2.1,0-2.7c0-0.6,0-1.2-0.1-1.7
			c1.3,0.3,2.3,0.6,3,0.8c0.7,0.2,1.4,0.5,1.9,0.7c0.6,0.2,0.8,0.5,0.7,0.7c-0.1,0.2-0.6,0.6-1.5,1.2v41.2c0,0.3,0,0.5-0.1,0.5
			c-0.1,0.1-0.2,0.2-0.3,0.2c-0.6,0.3-1.1,0.6-1.6,0.8c-0.5,0.2-1.1,0.3-1.8,0.5c-0.3,0-0.5-0.1-0.5-0.3c0-0.7,0.1-1.4,0.1-2
			c0-0.6,0.1-1.1,0.1-1.6c0-0.5,0-1,0-1.5s0-1,0-1.6v-14h-4c-0.2,2.8-0.4,5.1-0.7,7.1c-0.3,2-0.8,3.7-1.5,5.1
			c-0.7,1.5-1.6,2.8-2.8,4.1c-1.2,1.2-2.6,2.4-4.5,3.7l-0.7-0.9c1.4-1.6,2.4-3,3.2-4.2c0.8-1.2,1.4-2.5,1.8-3.8
			c0.4-1.3,0.7-2.8,0.9-4.5c0.2-1.7,0.3-3.9,0.5-6.5h-3.4c-0.4,0-0.8,0-1.2,0.1c-0.4,0.1-0.7,0.2-0.9,0.2L49.4,41
			c0.4,0.1,0.8,0.2,1.2,0.2c0.4,0,0.8,0.1,1.3,0.1h11.6v-5.4h-5.6v1c0,0.3,0,0.5-0.1,0.5c0,0.1-0.2,0.2-0.4,0.4
			c-0.5,0.3-1,0.5-1.4,0.6c-0.4,0.1-1,0.3-1.9,0.5c-0.2,0-0.3-0.1-0.3-0.5c0.1-1,0.1-2,0.1-3.2c0-1.2,0-2.3,0-3.3V24.6z M95.8,43.1
			c0.3,0.4,0.4,0.7,0.3,0.9c-0.1,0.2-0.3,0.3-0.8,0.3h-6.9v14c0,0.8-0.1,1.5-0.2,2.1c-0.1,0.6-0.4,1.1-0.8,1.5
			c-0.4,0.4-0.9,0.8-1.5,1.1c-0.6,0.3-1.4,0.7-2.4,1c-0.5,0.1-0.8,0.2-1,0.1c-0.2-0.1-0.3-0.3-0.4-0.6c-0.1-0.5-0.2-1-0.4-1.4
			c-0.2-0.4-0.5-0.8-0.9-1.1c-0.4-0.3-1-0.7-1.7-1c-0.7-0.3-1.7-0.8-2.8-1.2l0.3-1c1.8,0.4,3.2,0.6,4.2,0.8c1,0.2,1.8,0.2,2.3,0.1
			c0.5-0.1,0.8-0.3,0.9-0.7c0.1-0.4,0.2-0.8,0.2-1.4V44.4H70.6c-0.3,0-0.7,0-1.1,0.1s-0.7,0.1-1,0.2l-0.8-2.2
			c0.4,0.1,0.8,0.2,1.2,0.2s0.8,0,1.3,0h14.4c0-0.6,0-1.3,0-2c0-0.7,0-1.3,0-2s0-1.3,0-1.8c0-0.6,0-1.1,0-1.5
			c-0.9,0.7-1.8,1.3-2.8,2c-1,0.6-2,1.2-3.2,1.8c-1.2,0.6-2.5,1.1-3.9,1.7c-1.4,0.6-3,1.1-4.7,1.8l-0.4-0.8c2.4-1.3,4.6-2.5,6.4-3.6
			c1.8-1.1,3.5-2.3,4.9-3.5s2.6-2.6,3.8-4s2.1-3.1,3.1-5H77.1c-0.2,0.2-0.3,0.3-0.4,0.4c-0.1,0.1-0.2,0.3-0.4,0.5
			c2.1,0.6,3.6,1.1,4.4,1.7c0.8,0.6,1.3,1.3,1.3,2.2c0,0.7-0.2,1.3-0.5,1.8c-0.3,0.5-0.6,0.8-1,0.8c-0.2,0-0.4,0-0.7-0.1
			c-0.3-0.1-0.5-0.2-0.6-0.5c-0.1-0.3-0.3-0.7-0.5-1.2c-0.2-0.4-0.5-0.9-0.8-1.3c-0.3-0.5-0.6-0.9-1-1.4c-0.4-0.5-0.8-0.9-1.3-1.2
			c-0.6,0.5-1.1,1-1.5,1.5c-0.4,0.5-1,1-1.5,1.4c1,0.3,1.8,0.6,2.4,0.9c0.6,0.3,1.1,0.6,1.4,0.8s0.6,0.5,0.7,0.8
			c0.1,0.3,0.2,0.6,0.2,1c0,0.9-0.2,1.6-0.5,2.1s-0.7,0.8-1.1,0.8c-0.4,0-0.7-0.1-1-0.3c-0.3-0.2-0.5-0.5-0.6-0.9
			c-0.2-0.9-0.5-1.7-0.8-2.4c-0.3-0.7-0.8-1.4-1.5-2.2c-0.6,0.5-1.1,0.9-1.5,1.2c-0.4,0.2-1,0.6-1.7,1l-0.8-0.6
			c1.2-1.4,2.3-2.7,3.2-3.8c0.9-1.1,1.7-2.1,2.4-3.2c0.7-1,1.4-2.2,2.1-3.4c0.7-1.2,1.5-2.8,2.4-4.5c0.9,0.4,1.7,0.7,2.5,1.1
			c0.8,0.4,1.4,0.7,1.9,1c0.7,0.3,1,0.6,1,0.8c0,0.2-0.3,0.4-0.9,0.6c-0.4,0.1-0.7,0.2-1,0.4c-0.3,0.2-0.7,0.6-1.2,1.2
			c-0.3,0.3-0.5,0.6-0.7,0.9c-0.2,0.3-0.4,0.6-0.7,0.8h9.3l1-1.7c0.2-0.3,0.4-0.5,0.6-0.5c0.2,0,0.5,0.1,0.8,0.4
			c0.5,0.3,1.1,0.7,1.6,1c0.5,0.4,1.1,0.7,1.7,1.2c0.9,0.7,0.9,1.1-0.1,1.4c-0.3,0.1-0.5,0.2-0.7,0.3c-0.2,0.1-0.4,0.3-0.5,0.4
			c-0.2,0.2-0.4,0.4-0.6,0.7c-0.2,0.3-0.4,0.6-0.7,1c-1,1.3-1.9,2.5-2.8,3.6s-1.8,2-2.8,2.8c0.6,0.2,1.2,0.3,1.7,0.5
			c0.6,0.2,1.2,0.4,2,0.7c0.5,0.2,0.7,0.3,0.7,0.5c0,0.2-0.5,0.5-1.3,1.1v5.3h2.2l1.2-2.4c0.2-0.3,0.4-0.4,0.5-0.4
			c0.2,0,0.4,0.2,0.7,0.4c0.6,0.5,1.1,1,1.5,1.4C95,42.1,95.4,42.6,95.8,43.1z M79.6,50.5c0,1.3-0.2,2.3-0.7,3
			c-0.4,0.7-1,1.1-1.5,1.2c-0.4,0.1-0.8,0-1.1-0.2c-0.3-0.2-0.5-0.6-0.7-1.3c-0.3-1.4-0.7-2.7-1.2-3.9c-0.6-1.2-1.4-2.4-2.5-3.7
			l0.5-0.8c1.6,0.7,2.8,1.4,3.8,1.9c1,0.5,1.7,1,2.2,1.5s0.8,0.8,1,1.2C79.5,49.7,79.6,50.1,79.6,50.5z"/>
		<path class="st1" d="M108.2,60.9c0.4-0.1,0.8-0.2,1.2-0.3c0.4-0.1,0.8-0.2,1.2-0.2V43.8c-1.6,0.7-3.2,1.4-4.9,2
			c-1.7,0.6-3.8,1.2-6.3,1.8l-0.2-0.8c2.3-0.9,4.5-1.8,6.7-2.8c2.2-1,4.2-2.1,6.2-3.4c2-1.2,3.8-2.6,5.5-4s3.3-3.1,4.7-4.9
			c0.6,0.2,1.1,0.3,1.4,0.5c0.3,0.2,0.8,0.4,1.3,0.6c0.7-0.6,1.4-1.1,2.1-1.7c0.7-0.6,1.4-1.2,2-1.9c-1.1-0.6-2.1-1.1-3.1-1.5
			c-1-0.4-2-0.8-3-1.1l0.3-1.1c1.5,0.4,2.9,0.7,4.2,1c1.3,0.3,2.4,0.6,3.5,0.9c0.4-0.4,0.7-0.7,1-1c0.3-0.3,0.5-0.6,0.8-0.9
			s0.5-0.7,0.9-1c0.3-0.4,0.8-0.9,1.2-1.6h-7.6c-0.9,0-1.6,0.1-2,0.3l-0.9-2.2c0.5,0.1,0.9,0.2,1.2,0.2c0.3,0,0.8,0.1,1.2,0.1h8
			l1.1-1.3c0.3-0.3,0.5-0.4,0.7-0.4c0.2,0,0.5,0.1,0.8,0.3c0.5,0.3,0.9,0.7,1.4,1c0.4,0.4,0.9,0.8,1.4,1.2c0.5,0.4,0.7,0.7,0.6,1
			c-0.1,0.3-0.4,0.5-0.9,0.6s-1,0.2-1.4,0.5c-0.4,0.2-0.9,0.7-1.4,1.2c-0.5,0.6-1.1,1.1-1.6,1.7c-0.5,0.5-1,1-1.5,1.5
			c1.4,0.6,2.6,1.1,3.5,1.6c1,0.5,1.7,0.9,2.3,1.4c0.6,0.4,1,0.8,1.2,1.2c0.2,0.4,0.4,0.8,0.4,1.2c0.1,0.9,0,1.5-0.3,1.9
			c-0.2,0.3-0.5,0.5-0.9,0.5c-0.2,0-0.6,0-1-0.1c-0.4-0.1-1.1-0.6-1.9-1.4c-1-1-1.9-1.8-2.8-2.5c-0.9-0.6-1.9-1.3-3.1-1.9
			c-1.6,1.1-3.3,2.1-5.2,3c0.1,0.2,0.1,0.3,0,0.5c-0.1,0.2-0.3,0.2-0.5,0.2c-0.1,0-0.2,0-0.4,0.1c-0.1,0-0.2,0.1-0.3,0.1
			c1.6,1.1,3.2,2,4.8,2.7c1.6,0.8,3.2,1.4,5,1.8c1.7,0.5,3.5,0.8,5.5,1.1c1.9,0.2,4.1,0.4,6.4,0.4l0,1.2c-1,0.1-1.8,0.2-2.4,0.3
			c-0.6,0.1-1.1,0.2-1.4,0.4c-0.4,0.2-0.6,0.4-0.8,0.7c-0.2,0.3-0.4,0.6-0.6,1c-0.1,0.3-0.3,0.4-0.5,0.5c-0.2,0-0.5,0-0.9-0.2
			c-1.9-0.6-3.7-1.2-5.2-1.9c-1.5-0.6-2.9-1.3-4.2-2.1c-1.3-0.8-2.4-1.6-3.4-2.5c-1-0.9-2-1.8-3-2.8c-0.6,0.5-1.1,0.9-1.6,1.2
			c-0.5,0.4-1.2,0.9-2,1.5c1.2,0.3,2.2,0.5,2.9,0.7c0.7,0.2,1.3,0.3,1.6,0.5c0.4,0.2,0.6,0.4,0.6,0.7c0.1,0.2,0.1,0.6,0,0.9
			c-0.1,0.7-0.3,1.3-0.5,1.8h4.4l1-1.2c0.1-0.2,0.2-0.2,0.4-0.2s0.3,0.1,0.6,0.2c0.5,0.3,1,0.5,1.5,0.8c0.5,0.3,1,0.5,1.5,0.8
			c0.5,0.3,0.8,0.6,0.8,1c0,0.4-0.4,0.7-1.1,1v2.8c0,0.7,0,1.4,0,2c0,0.7,0,1.3,0.1,1.8c0.3-0.2,0.6-0.4,0.9-0.6
			c0.3-0.2,0.6-0.4,0.9-0.7c0.7,0.5,1.4,1,1.9,1.5c0.5,0.5,1,1,1.3,1.5c0.4,0.5,0.5,0.8,0.3,1c-0.2,0.2-0.5,0.2-1,0
			c-0.3-0.1-0.5-0.1-0.8-0.1c-0.3,0-0.7,0-1.2,0.1c-0.6,0.1-1.3,0.3-2.2,0.6c-0.9,0.3-2.1,0.7-3.5,1.2c1.8,0.5,3.3,1,4.4,1.4
			c1.1,0.4,2,0.8,2.6,1.2c0.6,0.4,1,0.8,1.2,1.3c0.2,0.5,0.3,1,0.4,1.6c0,0.7,0,1.2-0.1,1.5c-0.1,0.4-0.5,0.5-1,0.5
			c-0.1,0-0.2,0-0.3,0c-0.1,0-0.2-0.1-0.4-0.2c-0.2-0.1-0.4-0.2-0.6-0.4c-0.2-0.2-0.6-0.4-1-0.7c-1.5-1-3-1.9-4.4-2.6
			c-1.4-0.8-2.7-1.4-4.1-2c-1.3-0.6-2.7-1.1-4.1-1.5c-1.4-0.5-2.8-0.9-4.4-1.3l0.2-1.1c1.8,0.3,3.5,0.6,5.2,0.9
			c1.7,0.3,3.1,0.6,4.4,0.9c0.8-0.5,1.5-0.9,2-1.3c0.5-0.4,1.1-0.9,1.9-1.4c-0.3,0.1-0.6,0.2-1,0.2c-0.3,0.1-0.6,0.1-0.8,0.2
			c-0.3,0-0.4-0.1-0.5-0.4h-15.5v6.4l9-2.3l0.7,1.1c-2.5,1.1-4.5,1.9-6.1,2.6c-1.6,0.7-2.8,1.2-3.8,1.7c-0.9,0.5-1.6,0.8-2.1,1.1
			c-0.5,0.3-0.9,0.6-1.2,0.8c-0.5,0.4-0.9,0.4-1.2,0c-0.5-0.7-0.8-1.3-1.1-1.8C108.8,62.2,108.5,61.6,108.2,60.9z M123.5,22.8
			c0.4,0.4,0.5,0.7,0.5,0.9c0,0.2-0.4,0.3-1,0.3h-7.9v3.7h1.5l1-1.3c0.2-0.2,0.4-0.4,0.6-0.4c0.2,0,0.5,0.1,0.9,0.2
			c0.4,0.2,0.8,0.4,1.2,0.8c0.4,0.3,0.9,0.7,1.4,1.1c0.5,0.4,0.7,0.6,0.7,0.8c0,0.2-0.3,0.3-0.9,0.5c-0.4,0.1-0.8,0.3-1.1,0.5
			c-0.3,0.2-0.8,0.7-1.5,1.5c-1.3,1.4-2.5,2.6-3.8,3.7c-1.3,1-2.6,2-4.1,2.8c-1.5,0.9-3.1,1.6-4.9,2.4c-1.8,0.7-3.8,1.5-6,2.2
			l-0.5-1c2.2-0.9,4-1.8,5.6-2.7c1.6-0.9,3-1.8,4.3-2.7c-0.2-0.8-0.7-1.6-1.4-2.4c-0.7-0.8-1.2-1.4-1.8-1.9c-0.5,0.6-1,1.2-1.5,1.6
			c-0.4,0.4-0.9,0.8-1.3,1.2c-0.5,0.4-0.9,0.8-1.5,1.2c-0.5,0.4-1.2,0.9-2,1.4l-0.7-0.6c0.9-1,1.7-2,2.4-3c0.7-0.9,1.4-1.9,2-2.9
			c0.6-1,1.2-2,1.7-3.1c0.5-1.1,1.1-2.3,1.6-3.6c0.6,0.2,1.1,0.4,1.6,0.6c0.5,0.2,1,0.4,1.5,0.7c0.4,0.2,0.5,0.4,0.5,0.7
			c0,0.3-0.2,0.5-0.6,0.5c-0.2,0-0.3,0.1-0.5,0.3c-0.2,0.2-0.4,0.5-0.7,1h2.7v-6c0-1.2,0-2.1,0-2.7c0-0.6,0-1.2-0.1-1.7
			c0.7,0.1,1.4,0.3,2.4,0.5c0.9,0.2,1.7,0.4,2.3,0.5c0.6,0.2,0.8,0.4,0.6,0.6c-0.2,0.2-0.8,0.7-1.9,1.3v2.2h3.5l1-1.5
			c0.3-0.4,0.5-0.5,0.7-0.5s0.6,0.2,1,0.5C122.1,21.5,122.9,22.1,123.5,22.8z M108.3,29.3c-0.1,0.3-0.3,0.5-0.6,0.7
			c-0.2,0.2-0.4,0.4-0.5,0.6c2,0.2,3.3,0.8,3.9,1.5c0.6,0.8,0.6,1.7-0.1,2.7c1.2-1,2.3-1.9,3.1-2.7c0.8-0.8,1.6-1.8,2.3-2.7H108.3z
			 M122.8,42.6c-0.7-1.4-1.8-2.6-3.3-3.8c-0.9,0.7-1.7,1.3-2.5,1.8c-0.8,0.5-1.7,1-2.5,1.5c0.2,0.1,0.3,0.1,0.5,0.2
			c0.2,0.1,0.3,0.2,0.4,0.2H122.8z M130.3,44.3h-15.5v2.8h15.5V44.3z M130.3,48.6h-15.5v2.8h15.5V48.6z"/>
		<path class="st1" d="M174.5,47.1h13.2l2.2-2.9c0.3-0.3,0.6-0.5,0.9-0.5s1.2,0.7,2.8,2.1c1.6,1.4,2.4,2.2,2.4,2.5
			c0,0.2-0.4,0.3-1.3,0.3h-17.5c3.6,4.9,10,7.9,19,9.1v1c-1.5,0-2.6,0.2-3.5,0.5c-0.9,0.4-1.8,1.1-2.7,2.1c-0.1,0.1-0.3,0.2-0.5,0.2
			c-0.3,0-1.8-0.7-4.3-2.2c-2.6-1.5-4.5-3-5.8-4.5c-1.3-1.5-2.6-3.6-3.7-6.3h-1.1v7l0.1,5.8c0,0.3-0.2,0.6-0.5,0.8
			c-0.3,0.2-1,0.5-2,0.9c-1,0.4-1.6,0.6-1.8,0.6c-0.2,0-0.3-0.2-0.3-0.5l0.1-2.4c0.1-1.6,0.1-3.1,0.1-4.4v-6.7
			c-1.9,2.5-4.4,4.7-7.5,6.5c-3.2,1.8-7.4,3.6-12.7,5.3l-0.3-0.9c4.3-1.9,7.5-3.7,9.6-5.2c2.1-1.5,4.4-3.8,6.9-7h-13.9
			c-0.9,0-1.6,0.1-2.1,0.2l-0.9-2.1c0.7,0.2,1.5,0.2,2.5,0.2h18.4c0-1.9,0-3.5-0.1-4.9h-7.9v1c0,0.4-0.1,0.7-0.3,0.8
			c-0.2,0.2-0.8,0.4-1.9,0.9c-1,0.4-1.7,0.7-1.9,0.7c-0.2,0-0.3-0.2-0.2-0.6c0.2-1.5,0.2-3.1,0.2-4.9v-9.7c0-1.4,0-2.8-0.1-4.2
			c2.1,0.7,3.7,1.5,4.9,2.3h6.8v-7c0-1.7,0-3.3-0.1-4.7c1.3,0.2,2.5,0.5,3.6,0.8c1.1,0.3,1.9,0.5,2.2,0.7c0.4,0.1,0.5,0.3,0.5,0.6
			s-0.6,0.6-1.9,1.2v2.4h11.5l2.1-2.7c0.3-0.3,0.5-0.5,0.7-0.5s0.6,0.3,1.3,0.9c0.6,0.6,1.4,1.2,2.1,2c0.8,0.8,1.1,1.2,1.1,1.4
			c0,0.2-0.3,0.3-0.8,0.3H174v4.6h8l1.3-1.6c0.3-0.3,0.5-0.5,0.8-0.5c0.2,0,0.8,0.3,1.9,0.9c1.1,0.6,1.8,1.1,2.3,1.5
			c0.5,0.3,0.7,0.7,0.7,1s-0.7,0.7-2,1.2V38c0,1,0,2,0.1,3.1l0.1,1.5c0,0.3-0.1,0.5-0.3,0.7c-0.2,0.2-0.8,0.4-1.8,0.7
			s-1.6,0.5-1.9,0.5s-0.4-0.1-0.4-0.4v-2h-11c2.8,0.5,4.2,1,4.2,1.4c0,0.2-0.4,0.5-1.3,0.9V47.1z M182.6,34.6v-4.7h-20.5v4.7H182.6z
			 M182.6,40.6V36h-20.5v4.6H182.6z"/>
		<path class="st1" d="M225.1,58h12.5l1.9-2.9c0.5-0.7,0.9-1,1.2-1c0.3,0,0.6,0.1,0.9,0.3c0.3,0.2,1,0.9,2.1,1.9s1.8,1.7,2,2
			c0.2,0.3,0.3,0.5,0.3,0.7c0,0.3-0.4,0.5-1,0.5h-41.4c-0.9,0-1.6,0.1-2.1,0.3l-0.9-2.1c0.7,0.2,1.5,0.2,2.5,0.2h16.9V24.1
			c0-2.4,0-4.4-0.1-6c1.8,0.3,3.3,0.7,4.6,1.2c1.3,0.4,2.2,0.7,2.5,0.9c0.4,0.2,0.5,0.4,0.5,0.6c0,0.4-0.9,1-2.6,1.8v12.2h10l2.2-3
			c0.4-0.5,0.8-0.8,1.1-0.8s1.3,0.7,2.8,2.2c1.6,1.5,2.4,2.4,2.4,2.7c0,0.3-0.3,0.5-1,0.5h-17.4V58z"/>
		<path class="st1" d="M260.9,28h4.9l1.3-2c0.2-0.4,0.5-0.5,0.8-0.5c0.3,0,1.1,0.5,2.5,1.4c1.4,0.9,2.1,1.6,2.1,2s-0.6,0.9-1.9,1.4
			v22.2c0,1.5,0,2.5,0,3.1l0.1,1.7c0,0.2,0,0.3-0.1,0.4c-0.1,0.1-0.4,0.3-0.9,0.6c-0.5,0.2-1.2,0.5-1.9,0.8s-1.2,0.4-1.4,0.4
			s-0.3-0.2-0.3-0.6v-3.1H258v3c0,0.4-0.2,0.6-0.5,0.8c-0.3,0.2-1,0.5-2,0.9c-1,0.4-1.7,0.6-1.9,0.6c-0.3,0-0.4-0.2-0.4-0.6
			c0.2-1.5,0.2-3.2,0.2-4.9V29.8c0-1.4-0.1-2.8-0.2-4.2c1.8,0.6,3.5,1.4,5,2.3c1-4.5,1.5-8.2,1.5-11c1.5,0.3,2.8,0.7,4.2,1.2
			c1.3,0.5,2,0.8,2.2,1c0.2,0.2,0.3,0.4,0.3,0.6c0,0.3-0.3,0.6-0.8,0.7c-0.4,0.1-0.8,0.5-1.3,1.3S262.8,24.4,260.9,28z M266.1,40.8
			V29.6H258v11.2H266.1z M266.1,54V42.5H258V54H266.1z M279.7,28.9c-1.4,2.9-4,6.8-7.6,11.5l-0.8-0.5c2.1-4.5,3.6-8.3,4.6-11.5
			c1-3.2,2-7.2,3-12.2c1.5,0.5,2.9,1.1,4,1.6s1.9,0.8,2.1,1c0.2,0.2,0.4,0.4,0.4,0.6c0,0.2-0.3,0.4-0.8,0.5
			c-0.5,0.1-0.9,0.3-1.1,0.6c-0.2,0.3-0.6,1.1-1.2,2.6c-0.6,1.4-1.2,2.8-1.8,4.1h6.8l1.4-2c0.3-0.4,0.6-0.6,0.9-0.6s1.2,0.5,2.7,1.6
			c1.5,1.1,2.2,1.8,2.2,2.2c0,0.4-0.7,1-2.1,1.5c-0.2,10.4-0.4,17.3-0.5,20.5c-0.1,3.3-0.3,5.5-0.5,6.7s-0.7,2.2-1.3,3.2
			c-0.7,0.9-1.7,1.7-3.1,2.4c-1.4,0.6-2.3,1-2.9,1c-0.3,0-0.5-0.2-0.6-0.8c-0.3-0.9-0.6-1.7-1-2.2s-1.1-1-2-1.5
			c-1-0.5-2.4-1-4.4-1.5l0.2-1c4,0.6,6.5,0.8,7.5,0.8c1,0,1.7-0.1,2.1-0.3c0.4-0.2,0.6-0.6,0.8-1.1c0.1-0.5,0.3-1.7,0.4-3.5
			c0.1-1.8,0.3-4.8,0.4-8.8c0.1-4.1,0.2-9,0.2-14.8H279.7z M276.2,38c2.4,1.7,4.1,3,5,3.9c0.9,0.9,1.5,1.5,1.8,1.9
			c0.3,0.4,0.4,0.9,0.4,1.6c0,1.2-0.4,2.3-1.1,3.2c-0.8,0.9-1.4,1.4-1.9,1.4s-0.8-0.7-1-2.1c-0.2-1.4-0.6-2.9-1.3-4.7
			s-1.5-3.2-2.5-4.6L276.2,38z"/>
		<path class="st1" d="M345.9,60c-1.9,0.1-3.4,0.3-4.4,0.6c-1,0.4-1.8,1-2.4,2c-0.2,0.4-0.6,0.5-1.2,0.2c-2-0.8-3.8-1.8-5.3-2.8
			s-2.8-2.1-3.9-3.4s-2.1-2.6-2.8-4.1c-0.8-1.5-1.4-3.1-2-4.9h-1.1c-0.7,2.4-1.6,4.4-2.6,6.1c-1,1.7-2.4,3.1-4.1,4.2
			c-1.7,1.2-3.9,2.2-6.5,3c-2.6,0.8-6,1.6-10,2.3l-0.3-1.1c2.4-0.8,4.5-1.5,6.2-2.2c1.8-0.7,3.3-1.3,4.5-2c1.3-0.6,2.4-1.3,3.2-2
			c0.9-0.7,1.6-1.4,2.2-2.2s1.1-1.7,1.5-2.7c0.4-1,0.8-2.1,1.2-3.5h-15.7c-0.4,0-0.7,0-1.1,0.1c-0.4,0.1-0.7,0.1-1,0.2l-0.9-2.2
			c0.5,0.1,0.9,0.2,1.2,0.2s0.8,0,1.2,0h16.4c0.3-1.1,0.6-2.1,0.8-3s0.3-1.9,0.5-3c1.1,0.2,2,0.5,2.8,0.7c0.8,0.2,1.5,0.4,2.1,0.7
			c1.1,0.4,1.1,0.9,0,1.4c-0.2,0.1-0.4,0.4-0.6,0.8c-0.2,0.4-0.4,1.2-0.7,2.5h14.9l1.8-2.7c0.2-0.3,0.4-0.4,0.6-0.5s0.6,0.1,1,0.4
			c0.6,0.5,1.1,1,1.5,1.5c0.4,0.4,0.9,0.9,1.6,1.5c0.6,0.5,0.8,0.9,0.8,1.1c-0.1,0.2-0.5,0.3-1.2,0.3h-19.2c1.1,1.7,2.3,3.2,3.6,4.5
			c1.2,1.2,2.6,2.3,4.2,3.2c1.6,0.9,3.4,1.6,5.5,2.2c2.1,0.6,4.6,1,7.4,1.4V60z M343.2,38.6c0.6,0.6,0.9,1,0.8,1.2
			c0,0.2-0.4,0.3-1.2,0.3h-38.8c-0.4,0-0.7,0-1.1,0.1c-0.4,0.1-0.7,0.2-1,0.2l-0.9-2.2c0.4,0.1,0.8,0.2,1.2,0.2s0.8,0,1.3,0h16.5v-5
			h-12.7c-0.4,0-0.7,0-1.1,0.1c-0.4,0.1-0.7,0.1-0.9,0.2l-0.9-2.2c0.5,0.1,0.9,0.2,1.2,0.2s0.8,0,1.2,0h13.2V27h-15.5
			c-0.9,0-1.6,0.1-2,0.3l-0.9-2.2c0.5,0.1,0.9,0.2,1.2,0.2c0.3,0,0.8,0.1,1.2,0.1h11c-0.2-0.1-0.3-0.2-0.4-0.2s-0.2-0.2-0.2-0.7
			c-0.1-0.6-0.2-1.2-0.4-1.7s-0.4-1-0.6-1.4c-0.3-0.5-0.6-1-1-1.5c-0.4-0.5-0.9-1.1-1.6-1.7l0.5-0.8c1.7,0.6,3.1,1.1,4.1,1.6
			c1,0.5,1.8,0.9,2.4,1.4c0.5,0.5,0.9,0.9,1,1.4c0.1,0.5,0.1,1.1,0,1.7c-0.1,0.6-0.3,1-0.6,1.2s-0.7,0.5-1.2,0.6h8.2
			c0.7-1,1.3-2,1.8-2.8c0.5-0.8,1-1.6,1.3-2.2c0.4-0.7,0.7-1.3,0.9-1.9c0.2-0.6,0.4-1.2,0.6-1.8c0.7,0.2,1.2,0.4,1.7,0.6
			c0.5,0.2,0.9,0.4,1.2,0.6c0.4,0.2,0.7,0.4,1,0.5c0.3,0.2,0.6,0.3,1,0.5c0.9,0.5,0.7,0.9-0.4,1.3c-0.6,0.2-1.5,0.6-2.6,1.4
			c-1.1,0.8-2.7,2-4.6,3.9h9.5l1.9-2.9c0.3-0.4,0.5-0.7,0.7-0.7c0.2,0,0.5,0.1,0.9,0.5c0.7,0.6,1.3,1,1.7,1.4c0.4,0.4,1,0.9,1.5,1.6
			c0.5,0.5,0.7,0.9,0.7,1.2c0,0.3-0.4,0.4-1.1,0.4h-18.5v4.8h9.1l1.6-2.5c0.3-0.4,0.5-0.6,0.7-0.6c0.2,0,0.5,0.1,1,0.5
			c0.4,0.3,0.7,0.6,1,0.8c0.3,0.2,0.5,0.4,0.8,0.7c0.2,0.2,0.5,0.4,0.7,0.7c0.2,0.2,0.5,0.5,0.8,0.8c0.4,0.4,0.6,0.7,0.6,0.9
			c0,0.2-0.3,0.4-0.9,0.4h-15.4v5h12.9l1.2-2.2c0.2-0.4,0.5-0.6,0.7-0.6s0.6,0.1,0.9,0.4c0.7,0.6,1.3,1,1.6,1.4
			C342.4,37.7,342.8,38.1,343.2,38.6z"/>
		<path class="st1" d="M356,24h3.7L361,22c0.2-0.4,0.5-0.6,0.8-0.6c0.3,0,1.1,0.5,2.4,1.5c1.4,1,2,1.7,2,2c0,0.3-0.6,0.7-1.9,1.2
			v16.1c0,1.5,0,2.5,0.1,3.1l0,1.6c0,0.3-0.1,0.6-0.4,0.8c-0.3,0.2-0.9,0.5-1.8,0.8c-0.9,0.3-1.5,0.5-1.7,0.5
			c-0.2,0-0.3-0.2-0.3-0.5v-3.2h-4.6v4.8c0,0.4-0.1,0.7-0.3,0.9c-0.2,0.2-0.8,0.4-1.8,0.8c-1,0.4-1.6,0.5-1.9,0.5
			c-0.1,0-0.2-0.1-0.2-0.4c0.2-1.7,0.2-3.3,0.2-5V25.7c0-1.4-0.1-2.8-0.2-4.2C353.1,22.1,354.7,23,356,24z M360.2,43.9V25.5h-4.6
			v18.4H360.2z M379.3,37h8l2-2.7c0.3-0.3,0.5-0.5,0.8-0.5s0.6,0.2,1.1,0.6s1.1,0.9,1.8,1.5c0.6,0.6,1.1,1.1,1.5,1.4
			c0.3,0.3,0.5,0.6,0.5,0.8s-0.4,0.3-1.2,0.3h-12.2c1.3,4.1,3,7.3,5.2,9.8c2.2,2.5,5.3,4.9,9.5,7l-0.1,0.8c-0.6,0-1.1-0.1-1.6-0.1
			c-2.1,0-3.6,0.5-4.4,1.6c-0.2,0.3-0.4,0.4-0.6,0.4s-0.4-0.1-0.6-0.2c-0.2-0.2-0.9-1-2.2-2.5c-1.2-1.5-2.3-3-3.2-4.6
			c-0.9-1.6-1.6-3.4-2.2-5.3c-0.6-1.9-1-4.2-1.4-6.9h-0.7V56l0.1,5.8c0,0.3-0.1,0.6-0.4,0.8c-0.3,0.2-0.9,0.5-2,0.8
			c-1,0.4-1.7,0.5-1.9,0.5s-0.4-0.1-0.4-0.4l0.1-2.4c0.1-1.6,0.1-3.1,0.1-4.4V44c-3.9,6.3-9.4,11.4-16.5,15.2l-0.5-0.8
			c3.7-3.2,6.6-6.2,8.7-8.9c2.1-2.7,4.2-6.4,6.4-11h-5.6c-0.9,0-1.6,0.1-2.1,0.2l-0.9-2c0.7,0.2,1.5,0.2,2.5,0.2h8v-8.2h-6
			c-0.9,0-1.6,0.1-2.2,0.2l-0.8-2c0.7,0.2,1.5,0.2,2.5,0.2h6.5v-5.1c0-2.2-0.1-4.1-0.2-5.7c1.4,0.3,2.7,0.6,3.9,1
			c1.2,0.4,2,0.6,2.3,0.8c0.3,0.2,0.4,0.3,0.4,0.4c0,0.4-0.7,0.9-2.2,1.5v7.1h5.2l2-2.8c0.2-0.3,0.5-0.5,0.7-0.5
			c0.4,0,1.3,0.7,2.7,2c1.4,1.3,2,2.1,2,2.4s-0.3,0.4-1,0.4h-11.6V37z"/>
	</g>
	<g class="st0">
		<path class="st1" d="M422.8,55.8c0,2.5-1,5-3.1,7.3c-2.1,2.4-4.6,4.2-7.5,5.4l-0.8-1.7c1-0.5,1.8-0.9,2.5-1.3
			c0.7-0.4,1.4-1,2.2-1.7c0.7-0.6,1.2-1.3,1.7-2.1c0.5-0.8,0.9-1.6,1.1-2.6h-1.4c-1.5,0-2.6-0.3-3.3-0.9c-0.7-0.6-1.1-1.4-1.1-2.5
			c0-1.3,0.5-2.4,1.5-3.4c1-1,2.2-1.5,3.5-1.5c1.6,0,2.8,0.5,3.5,1.4C422.4,53.1,422.8,54.3,422.8,55.8z"/>
	</g>
</g>
</svg>
