<?xml version="1.0" encoding="utf-8"?>
<!-- Generator: Adobe Illustrator 24.1.0, SVG Export Plug-In . SVG Version: 6.00 Build 0)  -->
<svg version="1.1" id="圖層_1" xmlns="http://www.w3.org/2000/svg" xmlns:xlink="http://www.w3.org/1999/xlink" x="0px" y="0px"
	 viewBox="0 0 501 88" style="enable-background:new 0 0 501 88;" xml:space="preserve">
<style type="text/css">
	.st0{enable-background:new    ;}
	.st1{fill:#858585;}
</style>
<g transform="matrix(1, 0, 0, 1, 0, 0)">
	<g class="st0">
	</g>
	<g class="st0">
		<path class="st1" d="M278.6,29.4c0.5,0.4,0.7,0.7,0.7,0.9s-0.2,0.3-0.8,0.5c-0.3,0.1-0.6,0.3-0.8,0.4c-0.2,0.1-0.3,0.3-0.4,0.5
			c-0.1,0.2-0.2,0.5-0.3,0.8c-0.1,0.4-0.2,0.8-0.4,1.3c-0.8,2.5-1.5,4.8-2.2,6.8s-1.5,3.8-2.4,5.5c-0.9,1.6-1.8,3.1-3,4.5
			c-1.1,1.3-2.4,2.6-4,3.9c-1.5,1.2-3.4,2.4-5.4,3.6c-2.1,1.2-4.5,2.4-7.2,3.7l-0.4-1c2.2-1.5,4.2-2.9,5.9-4.2
			c1.7-1.3,3.2-2.6,4.6-3.9s2.5-2.7,3.5-4.1c1-1.4,1.9-3,2.7-4.8c0.8-1.7,1.5-3.7,2.2-5.8c0.7-2.2,1.3-4.6,1.9-7.4H264
			c-0.4,0.9-0.7,1.7-1.1,2.6c-0.3,0.9-0.7,1.6-1.2,2.4c1.3,0.7,2.4,1.3,3.3,1.8c0.8,0.5,1.5,0.9,2,1.4c0.5,0.4,0.8,0.9,0.9,1.3
			c0.1,0.4,0.2,1,0.1,1.5c-0.1,0.4-0.2,0.9-0.3,1.3c-0.2,0.5-0.4,0.8-0.6,1.2c-0.2,0.3-0.5,0.6-0.7,0.8s-0.5,0.3-0.7,0.3
			c-0.3,0-0.6-0.2-0.8-0.5c-0.2-0.3-0.3-0.9-0.4-1.8c0-0.5-0.1-0.9-0.2-1.4c-0.1-0.4-0.2-0.9-0.5-1.4s-0.5-1.1-0.9-1.7
			c-0.4-0.6-0.9-1.3-1.6-2.2c-0.6,1-1.1,1.9-1.7,2.8c-0.6,0.9-1.2,1.7-1.8,2.5c-0.6,0.8-1.3,1.6-2,2.5c-0.7,0.8-1.5,1.7-2.3,2.6
			l-0.8-0.6c2.8-4.4,5.1-8.9,6.8-13.6c1.8-4.7,3.2-9.5,4.2-14.7c1,0.5,1.9,0.9,2.7,1.4c0.8,0.5,1.6,1,2.4,1.6
			c0.6,0.4,0.8,0.7,0.8,0.8c0,0.2-0.3,0.3-0.9,0.4c-0.3,0.1-0.6,0.1-0.8,0.2c-0.2,0.1-0.3,0.2-0.5,0.3c-0.1,0.1-0.3,0.3-0.4,0.6
			c-0.1,0.3-0.3,0.6-0.4,1c-0.4,0.9-0.7,1.8-1,2.5c-0.3,0.8-0.7,1.6-1,2.4h8l1.6-2.3c0.3-0.4,0.5-0.6,0.6-0.6c0.1,0,0.4,0.1,0.8,0.5
			c0.6,0.4,1.1,0.8,1.7,1.3C277.8,28.6,278.2,29,278.6,29.4z M299.1,44.2c-0.8,0.2-1.4,0.4-1.9,0.6s-0.8,0.4-1.1,0.6
			c-0.2,0.2-0.4,0.5-0.5,0.8c-0.1,0.3-0.1,0.6,0,1c0.1,0.5-0.1,0.8-0.5,0.9c-0.4,0-0.8-0.1-1.4-0.4c-1.2-0.6-2.2-1.1-3.2-1.7
			s-1.9-1.2-2.8-1.8v11.7c0,0.8,0,1.6,0,2.6c0,1,0.1,1.9,0.1,2.9c0,0.4,0,0.6-0.1,0.8c-0.1,0.1-0.3,0.3-0.6,0.6
			c-0.2,0.1-0.4,0.2-0.6,0.3s-0.3,0.2-0.5,0.3c-0.2,0.1-0.4,0.2-0.7,0.2c-0.3,0.1-0.6,0.2-1.1,0.3c-0.4,0.1-0.6,0.1-0.7,0
			c-0.1-0.1-0.1-0.4-0.1-0.8c0-0.6,0.1-1.2,0.1-1.7c0-0.5,0-1,0-1.4c0-0.5,0-0.9,0-1.4c0-0.5,0-1,0-1.6V40.6c-1-1.1-1.9-2.3-2.7-3.7
			c-0.8-1.3-1.6-2.8-2.4-4.5l1.2-0.8c0.6,0.9,1.2,1.7,1.9,2.5c0.7,0.8,1.3,1.5,2,2.2V21.8c0-1.2,0-2.1,0-2.7c0-0.6,0-1.2-0.1-1.7
			c0.9,0.2,1.8,0.4,2.5,0.7s1.5,0.5,2.2,0.8c1,0.4,1.4,0.7,1.4,1c0,0.2-0.7,0.5-1.8,0.9v18.7c1.6,1,3.4,1.9,5.2,2.5
			c1.9,0.6,3.8,1.1,6,1.3L299.1,44.2z"/>
		<path class="st1" d="M309.6,35.7h-4.5c-0.4,0-0.7,0-1.1,0.1c-0.4,0-0.6,0.1-0.8,0.2l-0.8-2c0.4,0.1,0.8,0.2,1.1,0.2
			c0.3,0,0.7,0,1.2,0h4.6l1.5-2c0.2-0.3,0.4-0.4,0.6-0.4c0.2,0,0.4,0.1,0.7,0.3c0.6,0.5,1.1,0.9,1.4,1.2c0.4,0.4,0.8,0.8,1.2,1.2
			c0.4,0.5,0.6,0.9,0.4,1.1c-0.1,0.2-0.9,0.5-2.1,0.9l-4.7,8.6h3.1l0.9-1.4c0.2-0.3,0.3-0.4,0.4-0.4c0.1,0,0.3,0.1,0.6,0.3
			c0.5,0.3,1,0.7,1.4,1c0.4,0.3,0.9,0.7,1.5,1.2c0.8,0.6,0.7,1.1-0.2,1.4c-0.3,0.1-0.5,0.3-0.6,0.6c-0.1,0.3-0.3,0.8-0.5,1.5
			c-0.3,1.1-0.6,2.1-0.9,3c-0.3,0.9-0.6,1.8-1,2.6c1.3,1,2.9,1.8,4.8,2.4c1.9,0.6,4,1,6.4,1.2c1.4,0.1,2.8,0.2,4.3,0.2
			c1.5,0.1,3.2,0.1,5.1,0c1.9,0,4.1-0.2,6.6-0.3c2.5-0.2,5.5-0.4,8.9-0.7l0.1,0.8c-0.9,0.4-1.6,0.7-2.2,1c-0.5,0.3-1,0.5-1.3,0.8
			c-0.3,0.3-0.5,0.6-0.6,0.9c-0.1,0.3-0.2,0.7-0.3,1.1c-0.1,0.3-0.3,0.5-0.8,0.5c-4.7,0-8.7,0-12.2-0.2c-3.5-0.1-6.1-0.2-7.9-0.4
			c-2.4-0.3-4.7-0.9-6.8-1.9c-2.1-1-3.9-2.2-5.3-3.6c-1,1.7-2.3,3.2-3.8,4.4c-1.5,1.2-3.3,2.4-5.5,3.4l-0.5-0.8
			c1.6-1.2,2.9-2.3,3.9-3.4c1-1.1,1.9-2.3,2.6-3.6s1.3-2.7,1.7-4.4c0.4-1.6,0.9-3.6,1.2-5.9h-4.1l-0.5,0.8c-0.2,0.4-0.5,0.7-0.9,0.7
			c-0.6,0-1-0.1-1.2-0.1s-0.6-0.1-1.1-0.3c-0.5-0.1-0.6-0.4-0.4-0.8c0.5-0.6,0.9-1.3,1.4-2.1c0.5-0.8,0.9-1.7,1.5-2.6L309.6,35.7z
			 M313.2,26.6c0,0.3-0.1,0.7-0.3,1c-0.2,0.3-0.4,0.6-0.6,0.9s-0.5,0.5-0.8,0.6s-0.5,0.2-0.6,0.2c-0.4,0-0.6-0.1-0.8-0.2
			s-0.3-0.6-0.5-1.2c-0.3-1.2-0.8-2.5-1.5-3.9c-0.7-1.4-1.6-2.9-2.7-4.4l0.5-0.6c1.8,1,3.2,1.9,4.2,2.6c1,0.7,1.8,1.4,2.2,1.9
			c0.5,0.6,0.8,1.1,0.8,1.6S313.3,26,313.2,26.6z M317.1,56.1c1.8-1.3,3.4-2.5,4.6-3.7c1.2-1.2,2.3-2.3,3.1-3.5s1.4-2.5,1.8-3.8
			c0.4-1.3,0.7-2.9,1-4.5h-7.8c-0.4,0-0.8,0-1.2,0.1c-0.4,0.1-0.7,0.2-0.9,0.2l-1.1-2.1c0.5,0.1,1,0.2,1.7,0.2
			c0.6,0,1.2,0.1,1.7,0.1h7.8c0.1-1.1,0.2-2.3,0.2-3.6c0-1.3,0-2.6-0.1-4.1h-6.9c-0.4,0-0.8,0-1.2,0.1c-0.4,0.1-0.7,0.2-0.9,0.2
			l-0.9-2.2c0.5,0.1,0.9,0.2,1.2,0.2s0.8,0,1.3,0h11.4c0.7-1.9,1.3-3.4,1.7-4.5s0.7-2,0.9-2.6s0.4-1.2,0.5-1.7
			c0.1-0.5,0.2-1.1,0.4-1.8c0.9,0.4,1.8,0.7,2.5,1.1c0.8,0.3,1.7,0.8,2.8,1.3c0.5,0.3,0.7,0.6,0.7,0.9c0,0.3-0.4,0.5-1,0.6
			c-0.3,0-0.6,0.1-0.9,0.2c-0.3,0.1-0.7,0.4-1.2,0.9c-0.5,0.5-1.1,1.1-1.8,2c-0.7,0.9-1.6,2.1-2.7,3.6h4.4l1.5-2.8
			c0.2-0.4,0.4-0.5,0.7-0.5c0.3,0,0.7,0.3,1.4,0.8c0.5,0.4,0.9,0.7,1.3,1.1c0.4,0.4,0.9,0.8,1.4,1.4c0.5,0.5,0.7,0.9,0.6,1.2
			c-0.1,0.3-0.4,0.4-1,0.4h-11.7c0,1.5,0,2.9,0,4.2c0,1.3-0.1,2.5-0.2,3.6h8.3l1.4-2.8c0.2-0.4,0.5-0.6,0.8-0.6s0.8,0.3,1.3,0.8
			c0.5,0.4,1,0.8,1.5,1.2c0.5,0.4,1.1,0.9,1.7,1.5c0.5,0.5,0.7,0.8,0.6,1.1c-0.1,0.3-0.4,0.4-0.9,0.4h-15c-0.2,1.6-0.4,2.9-0.8,4.1
			c2.2,0.8,4,1.6,5.3,2.2c1.3,0.7,2.4,1.3,3.2,1.9c0.8,0.6,1.3,1.2,1.7,1.8c0.4,0.6,0.7,1.3,0.9,2c0.2,0.5,0.2,1,0.2,1.4
			c0,0.4-0.1,0.8-0.3,1.2c-0.2,0.4-0.4,0.7-0.6,0.9s-0.5,0.4-0.8,0.5c-0.6,0.2-1.1,0.1-1.7-0.3c-0.6-0.4-1.1-1-1.4-2
			c-0.3-0.7-0.5-1.4-0.8-2c-0.3-0.6-0.7-1.1-1.2-1.8c-0.5-0.6-1.1-1.3-1.9-2s-1.8-1.6-2.9-2.6c-0.7,1.3-1.3,2.4-2,3.4
			c-0.7,1-1.5,1.9-2.5,2.7s-2.1,1.7-3.4,2.5c-1.3,0.8-3,1.7-4.9,2.6L317.1,56.1z M327.3,26.1c-0.2,1-0.5,1.8-0.9,2.3
			s-0.9,0.8-1.5,0.8c-0.3,0-0.6-0.1-1-0.4c-0.4-0.2-0.6-0.8-0.7-1.7c-0.1-1.1-0.4-2.3-0.9-3.5c-0.5-1.2-1.2-2.5-2.3-3.9l1-0.6
			c1.4,0.9,2.6,1.6,3.5,2.3c0.9,0.7,1.5,1.3,2,1.8c0.5,0.6,0.8,1.1,0.9,1.5C327.4,25.3,327.4,25.7,327.3,26.1z"/>
		<path class="st1" d="M357.3,49c0.5,3.5,0.6,6.1,0.3,7.9s-0.9,3.1-1.6,3.9c-0.7,0.8-1.5,1.2-2.4,1.2c-0.9,0-1.6-0.2-2-0.6
			c-0.4-0.4-0.5-0.8-0.4-1.4c0.1-0.6,0.6-1.4,1.5-2.4c0.9-1,1.7-2.2,2.3-3.8s1.1-3.2,1.2-4.7H357.3z M391.8,37.2
			c0.4,0.4,0.6,0.7,0.5,0.9c0,0.2-0.3,0.2-0.9,0.2h-15.2c-0.4,0-0.8,0-1.2,0.1c-0.4,0.1-0.7,0.2-0.9,0.2l-0.7-1.6
			c-0.6,0.6-1.3,1.2-2,1.8c-0.7,0.6-1.5,1.3-2.3,2c1,0.9,1.6,1.6,1.8,2.1c0.2,0.5,0.3,1.1,0.1,1.7c-0.2,0.8-0.5,1.4-0.9,1.8
			c-0.4,0.4-0.8,0.7-1.2,0.7c-0.6,0-1-0.4-1.2-1.3c-0.1-0.7-0.2-1.4-0.4-2c-1.7,0.4-3.2,0.8-4.4,1.2c-1.2,0.4-2.3,0.7-3.2,1
			s-1.7,0.6-2.4,0.9s-1.3,0.5-1.8,0.8c-0.4,0.2-0.6,0.2-0.8,0.2c-0.2-0.1-0.3-0.2-0.5-0.5c-0.3-0.6-0.5-1.2-0.7-1.8
			c-0.2-0.6-0.4-1.2-0.6-1.9c0.3,0,0.5,0.1,0.8,0.1c0.3,0,0.5,0,0.8,0c0.6-0.6,1.4-1.4,2.2-2.2c0.8-0.9,1.6-1.7,2.5-2.6
			c0.8-0.9,1.6-1.7,2.3-2.5s1.2-1.4,1.6-1.9c-1,0.2-1.9,0.3-2.7,0.5c-0.8,0.2-1.5,0.3-2.2,0.5c-0.7,0.2-1.3,0.4-1.9,0.6
			c-0.6,0.2-1.2,0.5-1.9,0.8c-0.3,0.1-0.5,0.2-0.6,0.1c-0.1-0.1-0.3-0.3-0.4-0.7c-0.3-0.6-0.5-1.2-0.8-1.8c-0.2-0.6-0.5-1.3-0.8-1.9
			c0.4,0.1,0.9,0.1,1.3,0.2s0.8,0.1,1.2,0.1c1.1-1.5,2.1-2.9,2.9-4.1s1.6-2.5,2.2-3.7c0.6-1.2,1.2-2.4,1.7-3.6s1-2.5,1.5-3.9
			c0.9,0.4,1.7,0.9,2.5,1.3c0.8,0.4,1.5,0.9,2,1.2c0.5,0.4,0.8,0.6,0.8,0.8c0,0.2-0.3,0.3-0.8,0.4s-0.9,0.3-1.2,0.5
			c-0.3,0.2-0.7,0.7-1.2,1.3c-0.9,1.1-1.7,2.2-2.4,3.1c-0.7,0.9-1.4,1.8-2,2.5c-0.6,0.8-1.2,1.5-1.8,2.2c-0.6,0.7-1.1,1.4-1.8,2
			l7.7-0.3c0.8-1.1,1.5-2.2,2.2-3.2c0.7-1.1,1.3-2.2,2-3.4c0.9,0.6,1.6,1.2,2.1,1.6c0.6,0.4,1.1,0.8,1.7,1.2
			c0.9,0.6,0.8,1.1-0.2,1.3c-0.6,0.1-1.2,0.6-2,1.5c-1,1.2-1.9,2.2-2.8,3.2s-1.8,1.9-2.8,2.8c-1,0.9-2.1,1.9-3.3,2.9
			c-1.2,1-2.6,2.1-4.2,3.4l10-0.9c-0.2-0.6-0.5-1.2-0.8-1.8c-0.3-0.6-0.6-1.2-1-1.9l0.7-0.5c0.5,0.3,0.9,0.7,1.4,1
			c0.5,0.3,0.9,0.6,1.2,0.9c1.4-1.9,2.8-3.8,4-5.6c1.2-1.8,2.3-3.7,3.2-5.5c1-1.9,1.8-3.7,2.6-5.7c0.8-1.9,1.4-3.9,1.9-6
			c1.2,0.4,2.1,0.8,2.8,1c0.7,0.3,1.3,0.6,2,1c0.9,0.5,0.9,0.8,0,1.1c-0.2,0.1-0.3,0.1-0.4,0.2c-0.1,0-0.2,0.1-0.3,0.1
			c1.1,2.2,2.1,4,3.1,5.5c1,1.5,2,2.7,3.1,3.8c1.1,1.1,2.4,2,3.8,2.9c1.4,0.9,3.2,1.8,5.2,2.7l-0.1,0.8c-0.6,0.1-1.1,0.1-1.5,0.2
			c-0.4,0.1-0.7,0.2-0.9,0.3c-0.2,0.1-0.5,0.3-0.6,0.5c-0.2,0.2-0.4,0.5-0.5,0.8c-0.2,0.4-0.6,0.5-1.1,0.1c-1.5-1-2.8-2-4-3.1
			c-1.1-1.1-2.1-2.2-3-3.5c-0.9-1.3-1.7-2.8-2.4-4.4c-0.7-1.6-1.3-3.5-1.8-5.6c-1,1.9-1.8,3.6-2.6,5c-0.8,1.4-1.6,2.8-2.3,3.9
			c-0.8,1.2-1.5,2.2-2.3,3.2s-1.6,1.9-2.6,2.8c0.4,0.1,0.7,0.1,1,0.1c0.3,0,0.6,0,1,0h10.5l1.3-2.5c0.2-0.3,0.4-0.4,0.6-0.4
			c0.2,0,0.4,0.2,0.8,0.5c0.7,0.6,1.2,1,1.6,1.4C390.9,36.2,391.3,36.7,391.8,37.2z M364.4,58c-0.7,1.7-1.7,2.5-3,2.5
			c-0.3,0-0.6-0.1-0.8-0.4c-0.2-0.3-0.2-0.9-0.1-1.7c0.2-0.8,0.3-1.6,0.3-2.5c0-0.9,0-1.8-0.1-2.7c-0.1-0.9-0.2-1.7-0.3-2.4
			c-0.1-0.8-0.3-1.4-0.5-1.8l0.9-0.4c1,1.5,1.8,2.7,2.3,3.8c0.6,1,1,1.9,1.2,2.6c0.2,0.7,0.3,1.3,0.3,1.8S364.6,57.6,364.4,58z
			 M370.4,53.3c0.1,0.6,0.1,1.1,0,1.6s-0.2,1-0.5,1.4c-0.2,0.4-0.5,0.7-0.8,1c-0.3,0.2-0.7,0.3-1.1,0.3c-0.2,0-0.3-0.1-0.4-0.2
			c-0.1-0.2-0.2-0.6-0.4-1.2c-0.2-1.3-0.6-2.7-1-4.2c-0.4-1.5-1-2.9-1.5-4.3l0.7-0.5c0.9,0.9,1.7,1.7,2.3,2.3
			c0.6,0.6,1.1,1.2,1.5,1.7c0.4,0.5,0.7,0.9,0.8,1.3C370.2,52.7,370.3,53,370.4,53.3z M393.9,44.6c0.4,0.3,0.6,0.5,0.5,0.8
			c-0.1,0.2-0.6,0.6-1.5,1.2v12c0,0.9,0,1.8,0.1,2.8c0,0.2,0,0.4,0,0.5c0,0.1-0.2,0.2-0.4,0.3c-0.6,0.2-1.3,0.4-1.9,0.6
			c-0.6,0.2-1.3,0.3-1.9,0.4c-0.2,0-0.4-0.1-0.4-0.5v-4.3h-10.8v3.2c0,0.4-0.1,0.7-0.3,0.8c-0.5,0.3-1.1,0.5-1.6,0.6
			c-0.5,0.2-1.2,0.3-2.1,0.5c-0.2,0.1-0.3-0.1-0.3-0.4c0-0.6,0.1-1.2,0.1-1.9c0-0.7,0-1.2,0-1.5V47.1c0-0.8,0-1.6,0-2.2
			c0-0.6-0.1-1.3-0.1-2.1c1.2,0.4,2.2,0.7,2.8,1c0.6,0.3,1.3,0.6,1.9,0.9h9.8l1.2-1.8c0.2-0.3,0.3-0.4,0.5-0.5
			c0.2-0.1,0.5,0,0.9,0.3c0.6,0.3,1.2,0.6,1.7,0.9C392.8,43.8,393.3,44.2,393.9,44.6z M388.5,46.3h-10.8v10.6h10.8V46.3z"/>
		<path class="st1" d="M409.2,37.1c-2,2.8-4.4,5.4-7.2,7.9l-0.5-0.6c3.1-4.4,5.6-8.7,7.5-13c1.9-4.3,3.5-9.1,4.9-14.6
			c3.3,1.4,5.2,2.3,5.8,2.6c0.6,0.3,0.9,0.7,0.9,1s-0.4,0.5-1.2,0.5c-0.5,0-0.8,0.1-1,0.3c-0.2,0.2-1,1.7-2.2,4.3
			c-1.3,2.7-2.5,4.9-3.6,6.7c0.6,0.1,1.1,0.3,1.7,0.6c0.5,0.3,0.8,0.5,0.8,0.7c0,0.2-0.4,0.5-1.3,0.9v26.1c0,0.4-0.2,0.7-0.5,1
			s-1,0.6-1.8,0.9c-0.9,0.3-1.4,0.5-1.7,0.5s-0.4-0.2-0.4-0.5l0.1-3c0.1-2.3,0.1-4.2,0.1-5.8V37.1z M422.3,38.9
			c3.6,1.5,5.5,2.5,5.5,3.1c0,0.3-0.3,0.4-0.9,0.5c-0.6,0.1-1.2,0.6-1.7,1.5c-3.1,5.6-6.6,10-10.5,13.3l-0.5-0.6
			C417.6,51.4,420.3,45.4,422.3,38.9z M425.7,29.4c-1.3,2.2-2.5,4.1-3.7,5.6c-1.2,1.5-3,3.5-5.4,5.9l-0.8-0.6
			c2.8-4.2,4.8-8,6.2-11.2c1.4-3.2,2.5-7.2,3.5-11.9c4.4,1.6,6.5,2.7,6.5,3.3c0,0.3-0.4,0.5-1.1,0.7c-1,0.2-1.6,0.5-1.8,1.1
			c-0.2,0.6-1.1,2.3-2.6,5.2h13.5l1.2-1.9c0.2-0.3,0.5-0.5,0.7-0.5c0.3,0,1.3,0.6,3.2,1.9c1.9,1.2,2.8,2.2,2.8,2.9
			c0,0.2-0.1,0.4-0.3,0.6c-0.2,0.2-0.5,0.2-0.8,0.2l-0.9,0c-0.9,0-1.9,0.4-2.9,1.2c-1,0.8-2.4,2.4-4.3,4.8l-0.8-0.5
			c1-2.6,1.8-4.9,2.5-6.8H425.7z M429.6,31.6c2.1,0.5,3.7,1,4.7,1.5c1,0.4,1.5,0.8,1.5,1c0,0.3-0.5,0.6-1.5,1.1v23.2
			c0,1.5-0.8,2.7-2.2,3.5c-1.5,0.9-2.6,1.3-3.2,1.3c-0.4,0-0.7-0.3-0.8-0.8c-0.2-1.1-0.8-2-1.8-2.6c-1-0.6-2.5-1.3-4.4-2l0.2-1.1
			c3.1,0.6,5,0.9,5.9,0.9c0.8,0,1.4-0.1,1.6-0.4c0.2-0.2,0.3-0.6,0.3-1.2V36.1C429.7,34.4,429.6,32.9,429.6,31.6z M436.8,39.4
			c2.7,3,4.9,5.6,6.5,7.7c1.6,2.1,2.4,3.8,2.4,5c0,1.2-0.3,2.3-1,3.3c-0.6,1-1.4,1.5-2.3,1.5c-0.4,0-0.7-0.2-0.9-0.5
			c-0.2-0.3-0.4-1.4-0.8-3.3c-0.3-1.9-0.9-3.9-1.7-6c-0.8-2.1-1.8-4.3-3.1-6.7L436.8,39.4z"/>
	</g>
	<g class="st0">
		<path class="st1" d="M479.7,26.1c0,2.6-1.1,5-3.2,7.3c-2.2,2.3-4.8,4.1-7.9,5.4l-0.7-1.7c0.7-0.3,1.6-0.8,2.5-1.3
			c0.9-0.6,1.7-1.1,2.3-1.6c0.6-0.6,1.2-1.2,1.8-2c0.5-0.7,0.9-1.6,1.2-2.5h-1.4c-1.4,0-2.5-0.3-3.2-0.8s-1-1.3-1-2.2
			c0-1.2,0.5-2.4,1.6-3.4c1-1,2.3-1.5,3.7-1.5c1.5,0,2.6,0.4,3.3,1.2C479.3,23.7,479.7,24.8,479.7,26.1z M491.7,26.1
			c0,2.6-1.1,5-3.2,7.3s-4.8,4.1-7.9,5.4l-0.7-1.7c0.7-0.3,1.6-0.8,2.5-1.3c0.9-0.6,1.7-1.1,2.3-1.6c0.6-0.6,1.2-1.2,1.8-2
			s0.9-1.6,1.2-2.5h-1.4c-1.4,0-2.5-0.3-3.2-0.8c-0.7-0.5-1-1.3-1-2.2c0-1.2,0.5-2.4,1.6-3.4c1-1,2.3-1.5,3.7-1.5
			c1.5,0,2.6,0.4,3.3,1.2C491.4,23.7,491.7,24.8,491.7,26.1z"/>
	</g>
</g>
</svg>
