<svg xmlns="http://www.w3.org/2000/svg" width="21.643" height="50.022" viewBox="0 0 21.643 50.022">
  <g id="Group_279" data-name="Group 279" transform="translate(185.619 -134.092)">
    <path id="Path_800" data-name="Path 800" d="M-163.145,228.625c.073.5-.759,1.064-1.062,1.372q-.865.878-1.732,1.756c-1.129,1.14-2.266,2.273-3.43,3.378-.473.449-.964-.136-1.328-.5q-2.482-2.453-4.936-4.932c-.469-.475-1.041-.989-.328-1.7s1.226-.093,1.7.361c1.187,1.147,2.324,2.337,3.494,3.507,1.028,1.028,1.136,1.014,2.134.016,1.188-1.188,2.411-2.467,3.647-3.671.311-.3.692-.686,1.172-.382A1.9,1.9,0,0,1-163.145,228.625Z" transform="translate(-5.098 -51.181)" fill="#fff"/>
    <path id="Path_801" data-name="Path 801" d="M-163.988,144.77a10.673,10.673,0,0,0-10.72-10.678,10.663,10.663,0,0,0-10.89,10.729q-.041,8.222,0,16.444a10.65,10.65,0,0,0,10.714,10.672,10.679,10.679,0,0,0,10.9-10.723c.019-2.7,0-5.406,0-8.11C-163.984,150.326-163.965,147.548-163.988,144.77Zm-1.817,16.134a9.135,9.135,0,0,1-9.062,9.223c-4.974-.054-8.848-4.094-8.928-9.359-.04-2.624-.007-5.251-.007-7.876,0-2.551-.039-5.1.009-7.651.1-5.275,3.98-9.3,8.951-9.336a9.121,9.121,0,0,1,9.036,9.247Q-165.687,153.027-165.805,160.9Z" transform="translate(0)" fill="#fff"/>
    <path id="Path_802" data-name="Path 802" d="M-163.73,148.666a4.714,4.714,0,0,1,0-.665c.1-.723-.377-1.871.915-1.844,1.263.026.8,1.161.871,1.888a12.7,12.7,0,0,1,.006,1.772c-.031.7.216,1.663-.919,1.638s-.826-.994-.874-1.682C-163.751,149.407-163.73,149.036-163.73,148.666Z" transform="translate(-11.965 -6.598)" fill="#fff"/>
  </g>
</svg>
