<svg xmlns="http://www.w3.org/2000/svg" width="13.157" height="13.02" viewBox="0 0 13.157 13.02">
  <g id="Group_6176" data-name="Group 6176" transform="translate(-708.223 -868.602)">
    <g id="Group_6175" data-name="Group 6175" transform="translate(0 3)">
      <g id="Group_6174" data-name="Group 6174">
        <g id="Group_6173" data-name="Group 6173">
          <path id="Path_800" data-name="Path 800" d="M-163.145,228.625c.073.5-.759,1.064-1.062,1.372q-.865.878-1.732,1.756c-1.129,1.14-2.266,2.273-3.43,3.378-.473.449-.964-.136-1.328-.5q-2.482-2.453-4.936-4.932c-.469-.475-1.041-.989-.328-1.7s1.226-.093,1.7.361c1.187,1.147,2.324,2.337,3.494,3.507,1.028,1.028,1.136,1.014,2.134.016,1.188-1.188,2.411-2.467,3.647-3.671.311-.3.692-.686,1.172-.382A1.9,1.9,0,0,1-163.145,228.625Z" transform="translate(884.521 643.328)" fill="#fff"/>
          <path id="Path_6768" data-name="Path 6768" d="M-165.906,228.426c.057.4-.6.841-.839,1.084q-.684.694-1.369,1.387c-.892.9-1.79,1.8-2.71,2.669-.373.355-.761-.108-1.049-.392q-1.961-1.938-3.9-3.9c-.371-.376-.823-.781-.259-1.342s.968-.074,1.339.285c.938.906,1.837,1.847,2.76,2.771.812.812.9.8,1.686.013.939-.939,1.905-1.949,2.882-2.9.246-.24.547-.542.926-.3A1.5,1.5,0,0,1-165.906,228.426Z" transform="translate(885.902 637.927)" fill="#fff" opacity="0.7"/>
        </g>
      </g>
    </g>
  </g>
</svg>
