<svg id="Group_6166" data-name="Group 6166" xmlns="http://www.w3.org/2000/svg" width="95.591" height="95.591" viewBox="0 0 95.591 95.591">
  <g id="Group_292" data-name="Group 292" transform="translate(82.846 19.118)">
    <g id="Group_291" data-name="Group 291">
      <path id="Path_803" data-name="Path 803" d="M450.107,102.4a6.373,6.373,0,1,0,6.373,6.373A6.379,6.379,0,0,0,450.107,102.4Zm0,9.559a3.186,3.186,0,1,1,3.186-3.186A3.19,3.19,0,0,1,450.107,111.959Z" transform="translate(-443.734 -102.4)" fill="#F5A016"/>
    </g>
  </g>
  <g id="Group_294" data-name="Group 294" transform="translate(0 71.693)">
    <g id="Group_293" data-name="Group 293">
      <path id="Path_804" data-name="Path 804" d="M6.373,384a6.373,6.373,0,1,0,6.373,6.373A6.379,6.379,0,0,0,6.373,384Zm0,9.559a3.186,3.186,0,1,1,3.186-3.186A3.19,3.19,0,0,1,6.373,393.559Z" transform="translate(0 -384)" fill="#F5A016"/>
    </g>
  </g>
  <g id="Group_296" data-name="Group 296" transform="translate(70.099 14.337)">
    <g id="Group_295" data-name="Group 295">
      <path id="Path_805" data-name="Path 805" d="M391.492,83.587l-13.744-6.636a1.593,1.593,0,0,0-1.384,2.869l13.744,6.636a1.593,1.593,0,0,0,1.384-2.869Z" transform="translate(-375.463 -76.792)" fill="#F5A016"/>
    </g>
  </g>
  <g id="Group_298" data-name="Group 298" transform="translate(65.32 82.845)">
    <g id="Group_297" data-name="Group 297">
      <path id="Path_806" data-name="Path 806" d="M356.24,443.733a6.373,6.373,0,1,0,6.373,6.373A6.379,6.379,0,0,0,356.24,443.733Zm0,9.559a3.186,3.186,0,1,1,3.186-3.186A3.19,3.19,0,0,1,356.24,453.292Z" transform="translate(-349.867 -443.733)" fill="#F5A016"/>
    </g>
  </g>
  <g id="Group_300" data-name="Group 300" transform="translate(52.574 78.064)">
    <g id="Group_299" data-name="Group 299">
      <path id="Path_807" data-name="Path 807" d="M297.625,424.919l-13.744-6.636a1.593,1.593,0,0,0-1.384,2.869l13.744,6.636a1.593,1.593,0,0,0,1.384-2.869Z" transform="translate(-281.596 -418.124)" fill="#F5A016"/>
    </g>
  </g>
  <g id="Group_306" data-name="Group 306" transform="translate(58.948 41.423)">
    <g id="Group_305" data-name="Group 305">
      <path id="Path_810" data-name="Path 810" d="M333.258,221.867a17.525,17.525,0,1,0,17.525,17.525A17.546,17.546,0,0,0,333.258,221.867Zm0,31.864A14.339,14.339,0,1,1,347.6,239.392,14.354,14.354,0,0,1,333.258,253.731Z" transform="translate(-315.733 -221.867)" fill="#F5A016"/>
    </g>
  </g>
  <g id="Group_308" data-name="Group 308" transform="translate(70.1 47.795)">
    <g id="Group_307" data-name="Group 307">
      <path id="Path_811" data-name="Path 811" d="M381.84,256a6.373,6.373,0,1,0,6.373,6.373A6.379,6.379,0,0,0,381.84,256Zm0,9.559a3.186,3.186,0,1,1,3.186-3.186A3.19,3.19,0,0,1,381.84,265.559Z" transform="translate(-375.467 -256)" fill="#F5A016"/>
    </g>
  </g>
  <g id="Group_310" data-name="Group 310" transform="translate(66.914 63.727)">
    <g id="Group_309" data-name="Group 309">
      <path id="Path_812" data-name="Path 812" d="M372.581,341.333h-9.244a4.878,4.878,0,0,0-4.937,4.8v4.2a1.594,1.594,0,0,0,.795,1.38,17.436,17.436,0,0,0,17.528,0,1.592,1.592,0,0,0,.795-1.378v-4.2A4.878,4.878,0,0,0,372.581,341.333Zm1.751,8.054a14.446,14.446,0,0,1-12.746,0v-3.248a1.691,1.691,0,0,1,1.751-1.619h9.244a1.691,1.691,0,0,1,1.751,1.619v3.248Z" transform="translate(-358.4 -341.333)" fill="#F5A016"/>
    </g>
  </g>
  <g id="Group_312" data-name="Group 312" transform="translate(20.711 60.541)">
    <g id="Group_311" data-name="Group 311">
      <path id="Path_813" data-name="Path 813" d="M128.458,324.267a17.525,17.525,0,1,0,17.525,17.525A17.546,17.546,0,0,0,128.458,324.267Zm0,31.864A14.339,14.339,0,1,1,142.8,341.792,14.354,14.354,0,0,1,128.458,356.131Z" transform="translate(-110.933 -324.267)" fill="#F5A016"/>
    </g>
  </g>
  <g id="Group_314" data-name="Group 314" transform="translate(31.864 66.914)">
    <g id="Group_313" data-name="Group 313">
      <path id="Path_814" data-name="Path 814" d="M177.04,358.4a6.373,6.373,0,1,0,6.373,6.373A6.379,6.379,0,0,0,177.04,358.4Zm0,9.559a3.186,3.186,0,1,1,3.186-3.186A3.19,3.19,0,0,1,177.04,367.959Z" transform="translate(-170.667 -358.4)" fill="#F5A016"/>
    </g>
  </g>
  <g id="Group_316" data-name="Group 316" transform="translate(28.677 82.845)">
    <g id="Group_315" data-name="Group 315">
      <path id="Path_815" data-name="Path 815" d="M167.781,443.733h-9.244a4.878,4.878,0,0,0-4.937,4.8v4.2a1.594,1.594,0,0,0,.795,1.38,17.436,17.436,0,0,0,17.528,0,1.591,1.591,0,0,0,.795-1.378v-4.2A4.878,4.878,0,0,0,167.781,443.733Zm1.751,8.054a14.446,14.446,0,0,1-12.746,0v-3.248a1.691,1.691,0,0,1,1.751-1.619h9.244a1.691,1.691,0,0,1,1.751,1.619v3.248Z" transform="translate(-153.6 -443.733)" fill="#F5A016"/>
    </g>
  </g>
  <g id="Group_318" data-name="Group 318" transform="translate(0 20.711)">
    <g id="Group_317" data-name="Group 317">
      <path id="Path_816" data-name="Path 816" d="M17.525,110.933A17.525,17.525,0,1,0,35.05,128.458,17.546,17.546,0,0,0,17.525,110.933Zm0,31.864a14.339,14.339,0,1,1,14.339-14.339A14.354,14.354,0,0,1,17.525,142.8Z" transform="translate(0 -110.933)" fill="#F5A016"/>
    </g>
  </g>
  <g id="Group_320" data-name="Group 320" transform="translate(11.152 27.084)">
    <g id="Group_319" data-name="Group 319">
      <path id="Path_817" data-name="Path 817" d="M66.107,145.067a6.373,6.373,0,1,0,6.373,6.373A6.379,6.379,0,0,0,66.107,145.067Zm0,9.559a3.186,3.186,0,1,1,3.186-3.186A3.19,3.19,0,0,1,66.107,154.626Z" transform="translate(-59.734 -145.067)" fill="#F5A016"/>
    </g>
  </g>
  <g id="Group_322" data-name="Group 322" transform="translate(7.966 43.016)">
    <g id="Group_321" data-name="Group 321">
      <path id="Path_818" data-name="Path 818" d="M56.848,230.4H47.6a4.878,4.878,0,0,0-4.937,4.8v4.2a1.594,1.594,0,0,0,.795,1.38,17.436,17.436,0,0,0,17.528,0,1.592,1.592,0,0,0,.795-1.378v-4.2A4.878,4.878,0,0,0,56.848,230.4Zm1.751,8.054a14.446,14.446,0,0,1-12.746,0v-3.248a1.691,1.691,0,0,1,1.751-1.619h9.244a1.691,1.691,0,0,1,1.751,1.619v3.248Z" transform="translate(-42.667 -230.4)" fill="#F5A016"/>
    </g>
  </g>
  <g id="Group_324" data-name="Group 324" transform="translate(38.236)">
    <g id="Group_323" data-name="Group 323">
      <path id="Path_819" data-name="Path 819" d="M222.325,0A17.525,17.525,0,1,0,239.85,17.525,17.546,17.546,0,0,0,222.325,0Zm0,31.864a14.339,14.339,0,1,1,14.339-14.339A14.354,14.354,0,0,1,222.325,31.864Z" transform="translate(-204.8)" fill="#F5A016"/>
    </g>
  </g>
  <g id="Group_326" data-name="Group 326" transform="translate(49.389 6.373)">
    <g id="Group_325" data-name="Group 325">
      <path id="Path_820" data-name="Path 820" d="M270.907,34.133a6.373,6.373,0,1,0,6.373,6.373A6.379,6.379,0,0,0,270.907,34.133Zm0,9.559a3.186,3.186,0,1,1,3.186-3.186A3.19,3.19,0,0,1,270.907,43.692Z" transform="translate(-264.534 -34.133)" fill="#F5A016"/>
    </g>
  </g>
  <g id="Group_328" data-name="Group 328" transform="translate(46.202 22.305)">
    <g id="Group_327" data-name="Group 327">
      <path id="Path_821" data-name="Path 821" d="M261.648,119.467H252.4a4.878,4.878,0,0,0-4.937,4.8v4.2a1.594,1.594,0,0,0,.795,1.38,17.436,17.436,0,0,0,17.528,0,1.592,1.592,0,0,0,.795-1.378v-4.2A4.878,4.878,0,0,0,261.648,119.467Zm1.751,8.054a14.446,14.446,0,0,1-12.745,0v-3.248a1.691,1.691,0,0,1,1.751-1.619h9.244a1.691,1.691,0,0,1,1.751,1.619v3.248Z" transform="translate(-247.467 -119.467)" fill="#F5A016"/>
    </g>
  </g>
  <g id="Group_330" data-name="Group 330" transform="translate(27.197 15.932)">
    <g id="Group_329" data-name="Group 329">
      <path id="Path_822" data-name="Path 822" d="M159.516,85.889a1.6,1.6,0,0,0-2.246-.174l-11.041,9.448a1.593,1.593,0,1,0,2.071,2.42l11.041-9.448A1.593,1.593,0,0,0,159.516,85.889Z" transform="translate(-145.671 -85.333)" fill="#F5A016"/>
    </g>
  </g>
  <g id="Group_332" data-name="Group 332" transform="translate(63.727 28.679)">
    <g id="Group_331" data-name="Group 331">
      <path id="Path_823" data-name="Path 823" d="M353.76,166.993,344.2,154.247a1.593,1.593,0,0,0-2.549,1.91l9.559,12.746a1.593,1.593,0,0,0,2.549-1.91Z" transform="translate(-341.333 -153.61)" fill="#F5A016"/>
    </g>
  </g>
  <g id="Group_334" data-name="Group 334" transform="translate(51.312 63.579)">
    <g id="Group_333" data-name="Group 333">
      <path id="Path_824" data-name="Path 824" d="M286.6,341.177a1.593,1.593,0,0,0-2.23-.319l-8.9,6.674a1.592,1.592,0,0,0,1.912,2.547l8.9-6.674A1.591,1.591,0,0,0,286.6,341.177Z" transform="translate(-274.833 -340.54)" fill="#F5A016"/>
    </g>
  </g>
  <g id="Group_336" data-name="Group 336" transform="translate(9.559 76.473)">
    <g id="Group_335" data-name="Group 335">
      <path id="Path_825" data-name="Path 825" d="M63.946,409.6H52.793a1.593,1.593,0,1,0,0,3.186H63.945a1.593,1.593,0,0,0,0-3.186Z" transform="translate(-51.2 -409.6)" fill="#F5A016"/>
    </g>
  </g>
  <g id="Group_338" data-name="Group 338" transform="translate(11.152)">
    <g id="Group_337" data-name="Group 337">
      <path id="Path_826" data-name="Path 826" d="M66.106,0a6.373,6.373,0,1,0,6.372,6.373A6.379,6.379,0,0,0,66.106,0Zm0,9.559a3.186,3.186,0,1,1,3.186-3.186A3.19,3.19,0,0,1,66.106,9.559Z" transform="translate(-59.733)" fill="#F5A016"/>
    </g>
  </g>
  <g id="Group_340" data-name="Group 340" transform="translate(15.932 9.559)">
    <g id="Group_339" data-name="Group 339">
      <path id="Path_827" data-name="Path 827" d="M86.927,51.2a1.593,1.593,0,0,0-1.593,1.593V63.945a1.593,1.593,0,1,0,3.186,0V52.793A1.593,1.593,0,0,0,86.927,51.2Z" transform="translate(-85.334 -51.2)" fill="#F5A016"/>
    </g>
  </g>
</svg>
