<?xml version="1.0" encoding="utf-8"?>
<!-- Generator: Adobe Illustrator 24.1.0, SVG Export Plug-In . SVG Version: 6.00 Build 0)  -->
<svg version="1.1" id="圖層_1" xmlns="http://www.w3.org/2000/svg" xmlns:xlink="http://www.w3.org/1999/xlink" x="0px" y="0px"
	 viewBox="0 0 593 168" style="enable-background:new 0 0 593 168;" xml:space="preserve">
<style type="text/css">
	.st0{enable-background:new    ;}
	.st1{fill:#A59583;}
</style>
<g id="Group_6162" transform="translate(-150 -2024)">
	<g class="st0">
		<path class="st1" d="M169,2045.4c-0.9,0.4-1.9,0.9-3.1,1.6c-1.1,0.7-2,1.3-2.7,1.9c-0.8,0.7-1.5,1.5-2.1,2.4
			c-0.6,0.9-1.1,1.9-1.5,3h1.6c1.7,0,3,0.3,3.8,1c0.8,0.6,1.3,1.5,1.3,2.7c0,1.5-0.6,2.8-1.9,4.1c-1.2,1.2-2.7,1.8-4.5,1.8
			c-1.8,0-3.1-0.5-3.9-1.5c-0.8-1-1.2-2.3-1.2-3.8c0-3.1,1.3-6,3.9-8.8c2.6-2.8,5.7-5,9.5-6.4L169,2045.4z M183.5,2045.4
			c-0.9,0.4-1.9,0.9-3.1,1.6c-1.1,0.7-2,1.3-2.7,1.9c-0.8,0.7-1.5,1.5-2.1,2.4c-0.6,0.9-1.1,1.9-1.5,3h1.6c1.7,0,3,0.3,3.8,1
			c0.8,0.6,1.3,1.5,1.3,2.7c0,1.5-0.6,2.8-1.9,4.1c-1.2,1.2-2.7,1.8-4.5,1.8c-1.8,0-3.1-0.5-3.9-1.5c-0.8-1-1.2-2.3-1.2-3.8
			c0-3.1,1.3-6,3.9-8.8c2.6-2.8,5.7-5,9.5-6.4L183.5,2045.4z"/>
	</g>
	<g class="st0">
		<path class="st1" d="M225.2,2042.2c-3.7,6.3-7.8,11.4-12.2,15.3c-4.4,3.9-9.6,7.5-15.7,10.7l-0.7-1.1c5.6-4.1,10.4-8.5,14.4-13.3
			c4-4.8,7.2-10.4,9.6-17c0.9,0.2,2.4,0.7,4.4,1.3s3.1,1,3.4,1.1c0.3,0.1,0.4,0.3,0.4,0.5c0,0.2-0.3,0.4-0.8,0.6
			c-0.6,0.2-1,0.5-1.3,0.7c2.4,4.6,5.9,8.7,10.6,12.2c4.7,3.5,9.9,5.9,15.6,7.1v1.3c-2.3,0.1-4,0.4-4.9,0.9
			c-0.9,0.5-1.7,1.3-2.4,2.5c-0.2,0.4-0.5,0.6-0.8,0.6c-0.9,0-3.7-2.1-8.3-6.2C231.8,2055.3,228,2049.5,225.2,2042.2z M208.2,2072.6
			c-1.2,0-2,0.1-2.5,0.4l-1.3-2.7c0.8,0.2,1.8,0.3,3,0.3h26.2l2-2.6c0.3-0.4,0.6-0.7,0.8-0.7c0.2,0,1,0.4,2.4,1.1l3.4,1.9
			c0.9,0.5,1.4,1,1.4,1.3c0,0.3-0.5,0.6-1.5,0.8c-1,0.2-1.7,0.4-2.2,0.8c-0.5,0.4-1.2,1.4-2.2,2.9l-7,11.2c-0.8,1.3-1.6,2.6-2.3,3.9
			c-0.7,1.3-1.2,2-1.3,2.1c-0.2,0.1-0.6,0.2-1.2,0.3c-0.6,0.1-1.4,0.2-2.2,0.2c-0.8,0-1.6-0.1-2.3-0.3c-0.7-0.2-1.1-0.4-1.1-0.6
			c0-0.2,0.2-0.4,0.5-0.8c1.7-2.2,3.1-4,4.1-5.6l8.6-13.8H208.2z M219,2054.9c6.9,2.2,10.4,4.7,10.4,7.5c0,1-0.5,2-1.4,3
			c-0.9,1-1.7,1.4-2.5,1.4c-0.4,0-0.6-0.1-0.8-0.4c-0.2-0.3-0.4-0.9-0.7-1.9c-0.7-2.8-2.6-5.7-5.7-8.7L219,2054.9z"/>
		<path class="st1" d="M275.2,2043.6h22.1l1.3-2.4c0.3-0.6,0.6-0.9,0.9-0.9c0.3,0,1.3,0.5,2.8,1.4c1.5,0.9,2.5,1.6,2.9,1.9
			c0.4,0.3,0.6,0.7,0.6,1s-0.9,1-2.6,2v37l0.1,5.4c0,0.5-0.1,0.8-0.1,0.9c-0.1,0.1-0.5,0.4-1.3,0.8c-0.7,0.4-1.6,0.8-2.4,1.1
			c-0.9,0.3-1.4,0.4-1.6,0.4c-0.2,0-0.3-0.2-0.3-0.7v-8h-23.5v6.6c0,0.5-0.2,0.8-0.5,1.1c-0.3,0.2-1.2,0.7-2.5,1.2
			c-1.3,0.6-2.1,0.9-2.3,0.9s-0.3-0.2-0.3-0.6c0.2-2,0.3-4,0.3-6v-41.5c0-1.7-0.1-3.4-0.2-5.1
			C271.2,2041.2,273.4,2042.4,275.2,2043.6z M297.7,2062.3v-16.9h-23.5v16.9H297.7z M297.7,2081.3v-17.2h-23.5v17.2H297.7z"/>
		<path class="st1" d="M326.5,2054h-4.6c-1,0-1.9,0.1-2.6,0.3l-1-2.3c0.8,0.2,1.8,0.3,3,0.3h5.2v-7.4c0-2.3,0-4.5-0.1-6.5
			c2.8,0.7,4.7,1.2,5.5,1.5c0.8,0.3,1.2,0.6,1.2,0.8c0,0.3-0.6,0.8-1.7,1.5v10h2.1l1.6-2.5c0.2-0.3,0.4-0.5,0.7-0.5
			c0.3,0,1.1,0.6,2.5,1.8c1.4,1.2,2,2,2,2.4c0,0.4-0.5,0.5-1.4,0.5h-7.5v8.9l5.8-2.8l0.5,1l-6.3,4.6v20.7c0,1.4-0.2,2.6-0.6,3.5
			s-1.3,1.7-2.5,2.4c-1.3,0.7-2.1,1.1-2.6,1.1c-0.3,0-0.6-0.3-0.8-0.9c-0.4-1.2-1-2.1-1.8-2.7c-0.8-0.6-2.4-1.3-4.8-2l0.3-1
			c2.3,0.4,4,0.6,5,0.6s1.8-0.2,2.3-0.6c0.5-0.4,0.7-1.3,0.7-2.6v-14.9c-3.1,2.3-5,4-5.7,5c-0.2,0.3-0.4,0.5-0.6,0.5
			c-0.1,0-0.4-0.3-0.8-1c-0.4-0.6-1.2-2.1-2.4-4.4c6.2-2.8,9.4-4.2,9.5-4.2V2054z M341.7,2060.2c-2.4,4.4-4.6,7.6-6.5,9.8l-1-0.6
			c2.8-5.2,5-10.1,6.5-14.6c1.5-4.5,2.7-9.9,3.6-16c1.6,0.6,3,1.1,4.2,1.6c1.2,0.5,1.9,0.8,2.1,0.9s0.3,0.3,0.3,0.5
			c0,0.2-0.2,0.5-0.7,0.7c-0.4,0.2-0.8,0.5-0.9,0.8c-0.2,0.3-0.5,1.1-1,2.5c-0.5,1.4-1.2,3.1-2,5h16.9l2.2-3.3
			c0.4-0.5,0.7-0.8,1-0.8c0.3,0,0.8,0.3,1.5,0.8c0.7,0.6,1.5,1.2,2.3,1.9c0.8,0.7,1.4,1.2,1.7,1.6c0.3,0.4,0.5,0.7,0.5,0.9
			c0,0.4-0.4,0.7-1.1,0.7h-12.5v9.5h3.2l2-3.1c0.4-0.5,0.7-0.8,1-0.8s1.3,0.7,3.1,2c1.7,1.3,2.6,2.3,2.6,2.8s-0.5,0.8-1.4,0.8h-10.4
			v9h3.5l2-3.1c0.3-0.5,0.6-0.7,0.8-0.7c0.5,0,1.6,0.7,3.3,2.1c1.7,1.4,2.6,2.4,2.6,2.9c0,0.5-0.4,0.7-1.1,0.7h-11.2v10.3h4.1
			l2.5-3.7c0.4-0.5,0.7-0.8,0.9-0.8c0.2,0,1,0.5,2.2,1.4c1.2,1,2.2,1.8,3,2.5c0.8,0.7,1.2,1.3,1.2,1.7c0,0.4-0.4,0.6-1.1,0.6h-25.2
			v4.6c0,0.3-0.1,0.5-0.3,0.7c-0.2,0.2-0.9,0.5-2.2,1c-1.2,0.5-1.9,0.7-2.2,0.7c-0.2,0-0.4-0.2-0.4-0.5l0.2-5.6c0-1.7,0.1-3.3,0.1-5
			V2060.2z M346.4,2052.5v9.5h7.7v-9.5H346.4z M346.4,2063.8v9h7.7v-9H346.4z M346.4,2074.6v10.3h7.7v-10.3H346.4z M353.4,2039.2
			c2.4,1.3,4.1,2.5,5.3,3.6c1.2,1.1,1.8,2.1,1.8,3.1c0,1-0.4,2-1.1,2.9c-0.7,0.9-1.4,1.3-2.1,1.3c-0.7,0-1.1-0.1-1.2-0.4
			c-0.2-0.2-0.3-0.7-0.3-1.3c-0.1-3-1.1-5.8-3-8.3L353.4,2039.2z"/>
		<path class="st1" d="M429.2,2052.5c0.5,0.5,0.7,0.9,0.6,1.2c-0.1,0.3-0.4,0.5-1,0.5h-14.4v3.8h6.9l1-1.6c0.2-0.3,0.4-0.5,0.6-0.5
			c0.2,0,0.6,0.1,1.2,0.4c0.6,0.2,1.2,0.5,1.9,0.9c0.7,0.4,1.4,0.7,2,1.1c0.4,0.2,0.6,0.5,0.5,0.9s-0.6,0.8-1.5,1.4v1.3
			c0,0.4,0,0.8,0,1.3c0,0.5,0,1.1,0.1,1.7c0,0.5-0.1,0.8-0.3,1c-0.4,0.2-1.1,0.4-1.9,0.6c-0.8,0.2-1.7,0.4-2.6,0.6
			c-0.4,0-0.5-0.3-0.5-1h-33.3c0,0.9,0,1.7,0,2.2c0.1,0.6,0,1.2,0,2c-0.2,2.8-0.5,5-0.9,6.8c-0.4,1.8-0.9,3.5-1.6,5
			c-0.7,1.5-1.7,3-2.9,4.5c-1.2,1.5-2.9,3.4-4.9,5.6l-0.8-0.7c1.2-2,2.3-3.8,3.1-5.2c0.8-1.5,1.5-2.9,2-4.4c0.5-1.5,0.8-3.1,1.1-4.9
			c0.2-1.8,0.4-4.1,0.5-6.8c0.1-2.6,0.2-5.5,0.2-8.7c0-3.2-0.1-7-0.2-11.3c1.1,0.4,2.1,0.7,3,1.1c0.9,0.4,1.8,0.8,2.6,1.2h16.3
			c-0.3-0.1-0.6-0.6-0.9-1.5c-0.2-0.4-0.5-1-1-1.8c-0.5-0.8-1.1-1.6-1.8-2.3l0.4-0.7c1.3,0.3,2.4,0.6,3.2,0.9c0.8,0.3,1.5,0.5,2,0.8
			c0.5,0.3,0.8,0.6,0.9,0.9c0.2,0.3,0.2,0.6,0.2,1c0,0.5-0.2,1.1-0.5,1.6c-0.3,0.6-0.7,0.9-1.2,1.1h14.9l1.6-2.9
			c0.4-0.7,0.9-0.7,1.7-0.1c0.3,0.2,0.6,0.5,1,0.8c0.4,0.3,0.8,0.6,1.2,0.9c0.4,0.3,0.7,0.6,1,0.8
			C428.9,2052.2,429.1,2052.4,429.2,2052.5z M432.7,2044.6c0.9,0.8,0.8,1.2-0.3,1.2h-14.2c0,0.6,0,1.2,0,1.8c0,0.7,0,1.2,0.1,1.6
			c0,0.3,0,0.5,0,0.6c-0.1,0.1-0.2,0.2-0.3,0.3c-0.5,0.2-1.1,0.5-1.6,0.7c-0.5,0.2-1.3,0.4-2.2,0.6c-0.3,0.1-0.5,0.1-0.6,0
			c-0.1-0.1-0.1-0.3-0.1-0.7v-4.9h-14.7v3.9c0,0.4-0.2,0.7-0.5,0.8c-0.7,0.3-1.3,0.5-1.7,0.7c-0.5,0.1-1.2,0.3-2.1,0.4
			c-0.2,0-0.3,0-0.4-0.1c-0.1-0.1-0.1-0.3,0-0.6c0.1-1.1,0.1-2,0.1-2.7c0-0.7,0-1.5,0-2.4h-11.5c-0.4,0-0.8,0-1.3,0.1
			c-0.5,0.1-0.9,0.2-1.2,0.3l-1.3-2.4c0.5,0.1,1,0.2,1.4,0.2c0.4,0,0.9,0.1,1.4,0.1l12.4-0.1v-2.9c0-0.8,0-1.5,0-2.1
			c0-0.6-0.1-1.3-0.1-2.1c0.5,0.1,1.1,0.3,1.7,0.5c0.6,0.2,1.2,0.4,1.7,0.5c0.5,0.2,1,0.3,1.5,0.5c0.4,0.1,0.7,0.2,0.9,0.3
			c0.6,0.2,0.8,0.5,0.7,0.8c-0.1,0.3-0.7,0.7-1.7,1.1v3.5h14.7v-2.6c0-0.8,0-1.5,0-2.1c0-0.6-0.1-1.3-0.1-2.1
			c1.3,0.3,2.5,0.6,3.6,0.9c1.1,0.3,1.9,0.5,2.2,0.6c0.6,0.2,0.8,0.4,0.8,0.7c-0.1,0.3-0.6,0.7-1.7,1.3v3.4l6.4,0.1l2-3.2
			c0.2-0.3,0.5-0.5,0.8-0.4c0.3,0.1,0.7,0.2,1,0.4c0.9,0.7,1.7,1.4,2.5,2.1C431.6,2043.6,432.2,2044.2,432.7,2044.6z M392.5,2078.7
			c0.1,1.4,0.1,2.6,0.1,3.6c0,1,0,1.9-0.1,2.7c-0.1,0.8-0.3,1.4-0.6,2c-0.3,0.6-0.7,1.1-1.1,1.6c-0.6,0.6-1.2,0.9-2,1
			c-0.8,0.1-1.5,0-2.2-0.4c-0.5-0.2-0.8-0.5-0.8-1c-0.1-0.5,0.2-1,0.9-1.6c0.8-0.7,1.4-1.3,2-1.8c0.5-0.5,0.9-1,1.3-1.6
			c0.3-0.5,0.6-1.2,0.8-1.9c0.2-0.7,0.4-1.6,0.6-2.7L392.5,2078.7z M398,2059.6h-9.2c0,0.9-0.1,1.8-0.1,2.5c0,0.8-0.1,1.5-0.1,2.2
			h9.4V2059.6z M398,2054.2h-9.1c0,0.7-0.1,1.3-0.1,2s0,1.2-0.1,1.8h9.2V2054.2z M397.9,2078.5c-0.1,0.4-0.3,0.7-0.8,0.7
			c-0.6,0-1.1,0-1.6,0c-0.5,0-1.1-0.1-1.6-0.1c-0.5,0-0.8-0.1-0.9-0.2c-0.1-0.1-0.1-0.3,0-0.6c0.3-1.1,0.5-2,0.6-2.8
			c0.1-0.7,0.2-1.2,0.3-1.6l0.6-4c0.1-0.6,0.1-1.1,0.2-1.6c0-0.5,0.1-1.1,0.2-1.9c0.8,0.3,1.7,0.6,2.6,0.9c1,0.3,1.7,0.6,2.2,1
			c1,0.4,0.9,0.9-0.4,1.4l-0.2,1H417l1.1-2.5c0.2-0.3,0.4-0.5,0.6-0.5c0.3,0,0.6,0.1,1,0.4c0.4,0.2,0.8,0.5,1.3,0.8
			c0.4,0.3,0.9,0.6,1.3,0.9c0.4,0.3,0.8,0.5,1.1,0.8c0.3,0.2,0.6,0.4,0.7,0.5c0.5,0.5,0.7,0.9,0.6,1.1c-0.1,0.3-0.5,0.4-1,0.4h-25
			l-0.5,3.5h26.2l0.8-2c0.2-0.6,0.8-0.7,1.7-0.1c0.2,0.1,0.5,0.3,0.9,0.6c0.4,0.3,0.8,0.5,1.2,0.8s0.8,0.6,1.2,0.9
			c0.4,0.3,0.7,0.5,0.9,0.7c0.4,0.4,0.5,0.7,0.3,1c-0.2,0.3-0.9,0.7-2,1.1c0,0.9-0.1,1.8-0.2,2.8c-0.1,1-0.2,2.1-0.4,3.2
			c-0.1,0.9-0.3,1.8-0.6,2.6c-0.3,0.8-0.7,1.6-1.3,2.2c-0.6,0.7-1.4,1.2-2.3,1.7c-1,0.5-2.2,0.9-3.8,1.2c-0.5,0.1-0.9,0.1-1,0
			c-0.2-0.1-0.3-0.3-0.5-0.6c-0.2-0.7-0.5-1.3-0.7-1.7c-0.2-0.4-0.5-0.8-1-1.1c-0.4-0.3-1-0.6-1.8-0.8c-0.8-0.2-1.8-0.5-3-0.8
			l0.2-1.2c2.3,0.2,4.2,0.4,5.6,0.4c1.4,0.1,2.5,0,3.2-0.1c0.7-0.2,1.3-0.4,1.6-0.8c0.3-0.4,0.5-0.9,0.7-1.6c0.3-1.1,0.5-2.1,0.6-3
			s0.2-2.1,0.2-3.6h-26.9L397.9,2078.5z M403.2,2085.5c0.1,0.4,0.1,0.9-0.1,1.3c-0.2,0.4-0.4,0.8-0.7,1.2c-0.3,0.4-0.7,0.7-1.1,0.9
			c-0.4,0.2-0.9,0.4-1.3,0.4c-0.2,0-0.4,0-0.6-0.1c-0.2,0-0.4-0.2-0.5-0.3c-0.2-0.2-0.3-0.4-0.4-0.7c-0.1-0.3-0.1-0.7-0.1-1.3
			c0-0.6,0-1.2,0-1.7c0-0.5-0.1-1-0.1-1.5s-0.2-1-0.3-1.6c-0.2-0.6-0.4-1.3-0.6-2.2l0.7-0.4c1.8,1.4,3,2.6,3.7,3.5
			C402.5,2083.9,403,2084.8,403.2,2085.5z M409.8,2054.2h-7.3v3.8h7.3V2054.2z M409.8,2059.6h-7.3v4.8h7.3V2059.6z M411.4,2084.6
			c0,0.4-0.1,0.8-0.2,1.3c-0.1,0.5-0.3,0.9-0.6,1.3c-0.2,0.4-0.5,0.7-0.9,1c-0.3,0.3-0.7,0.4-1.1,0.4c-0.3,0-0.5-0.1-0.7-0.2
			s-0.2-0.5-0.3-1c-0.2-1.1-0.4-2.3-0.8-3.6c-0.3-1.3-1-2.6-1.8-4l0.7-0.7c2.1,1.3,3.6,2.3,4.4,3.2
			C411,2083.1,411.4,2083.9,411.4,2084.6z M420.3,2082.8c0,0.4-0.1,0.8-0.2,1.2c-0.1,0.4-0.3,0.8-0.5,1.2c-0.2,0.4-0.4,0.7-0.7,0.9
			c-0.3,0.2-0.6,0.4-0.9,0.4c-0.3,0-0.6-0.1-0.8-0.3c-0.2-0.2-0.3-0.5-0.5-1.1c-0.2-0.7-0.5-1.5-0.9-2.4c-0.4-0.9-1.1-2-2.2-3.3
			l0.8-1c1.3,0.4,2.4,0.8,3.1,1.2c0.8,0.4,1.3,0.7,1.7,1.1c0.4,0.3,0.7,0.7,0.8,1C420.3,2082.1,420.3,2082.5,420.3,2082.8z
			 M421.8,2059.6h-7.4v4.8h7.4V2059.6z"/>
	</g>
	<g class="st0">
		<path class="st1" d="M465.6,2084.1c0,3-1.2,6-3.7,8.8s-5.5,5-9.1,6.5l-0.9-2.1c1.2-0.6,2.2-1.1,3-1.6s1.7-1.2,2.6-2.1
			c0.8-0.7,1.5-1.6,2.1-2.5s1-2,1.4-3.1h-1.7c-1.8,0-3.2-0.4-4-1.1s-1.3-1.7-1.3-3c0-1.5,0.6-2.9,1.8-4.1s2.6-1.8,4.2-1.8
			c1.9,0,3.3,0.6,4.2,1.7S465.6,2082.3,465.6,2084.1z"/>
	</g>
	<g class="st0">
	</g>
	<g class="st0">
		<path class="st1" d="M327.3,2145.7c-2.4,3.3-5.3,6.5-8.7,9.5l-0.7-0.7c3.7-5.3,6.7-10.5,9-15.6c2.3-5.1,4.2-11,5.8-17.5
			c3.9,1.7,6.2,2.8,6.9,3.2c0.7,0.4,1,0.8,1,1.2s-0.5,0.6-1.5,0.6c-0.6,0-1,0.1-1.2,0.4c-0.3,0.3-1.2,2-2.7,5.2
			c-1.5,3.2-3,5.9-4.4,8c0.7,0.2,1.3,0.4,2,0.8c0.6,0.3,1,0.6,1,0.9c0,0.2-0.5,0.6-1.6,1v31.4c0,0.5-0.2,0.9-0.6,1.2
			c-0.4,0.3-1.2,0.7-2.2,1.1c-1,0.4-1.7,0.6-2,0.6c-0.3,0-0.5-0.2-0.5-0.6l0.1-3.7c0.1-2.7,0.1-5,0.1-7V2145.7z M343,2147.9
			c4.4,1.8,6.5,3,6.5,3.7c0,0.3-0.4,0.5-1.1,0.6c-0.7,0.1-1.4,0.7-2.1,1.8c-3.7,6.7-7.9,12-12.6,16l-0.6-0.7
			C337.4,2162.8,340.7,2155.7,343,2147.9z M347.2,2136.4c-1.5,2.7-3,4.9-4.4,6.8c-1.4,1.8-3.6,4.2-6.4,7.1l-0.9-0.7
			c3.3-5.1,5.8-9.5,7.4-13.4c1.6-3.9,3.1-8.6,4.3-14.2c5.2,1.9,7.9,3.3,7.9,4c0,0.4-0.4,0.6-1.3,0.8c-1.2,0.2-1.9,0.7-2.2,1.3
			c-0.3,0.7-1.3,2.8-3.1,6.2h16.3l1.5-2.3c0.3-0.4,0.5-0.6,0.8-0.6c0.3,0,1.6,0.7,3.8,2.2c2.2,1.5,3.4,2.6,3.4,3.5
			c0,0.3-0.1,0.5-0.4,0.7c-0.2,0.2-0.6,0.3-1,0.3l-1.1-0.1c-1.1,0-2.3,0.5-3.5,1.4c-1.2,1-2.9,2.9-5.2,5.8l-1-0.6
			c1.2-3.2,2.2-5.9,2.9-8.2H347.2z M351.8,2139.1c2.6,0.6,4.4,1.2,5.6,1.7c1.2,0.5,1.8,0.9,1.8,1.2c0,0.3-0.6,0.8-1.9,1.3v27.8
			c0,1.8-0.9,3.2-2.7,4.3c-1.8,1-3.1,1.6-3.9,1.6c-0.5,0-0.8-0.3-0.9-1c-0.2-1.3-1-2.4-2.2-3.2c-1.2-0.8-2.9-1.6-5.2-2.4l0.2-1.3
			c3.7,0.7,6,1,7,1s1.7-0.1,1.9-0.4c0.2-0.3,0.4-0.8,0.4-1.5v-23.9C351.9,2142.5,351.9,2140.7,351.8,2139.1z M360.5,2148.4
			c3.3,3.6,5.9,6.7,7.8,9.2c1.9,2.5,2.9,4.5,2.9,6c0,1.5-0.4,2.8-1.1,3.9c-0.8,1.2-1.7,1.7-2.8,1.7c-0.5,0-0.8-0.2-1.1-0.6
			c-0.2-0.4-0.5-1.7-0.9-4c-0.4-2.3-1-4.7-2-7.2c-1-2.5-2.2-5.2-3.7-8L360.5,2148.4z"/>
		<path class="st1" d="M423.1,2145.5l3.4-4.6c0.5-0.6,0.9-1,1.3-1c0.4,0,1.6,1,3.7,3.1c2.1,2.1,3.2,3.3,3.2,3.8
			c0,0.4-0.5,0.7-1.4,0.7h-50c-1.1,0-1.9,0.1-2.5,0.4l-1.2-2.7c0.8,0.2,1.8,0.3,3,0.3H423.1z"/>
		<path class="st1" d="M450.8,2132.3h33.9l1.6-2.2c0.2-0.4,0.4-0.5,0.6-0.5c0.5,0,1.7,0.8,3.6,2.3c1.9,1.5,2.9,2.6,2.9,3.2
			s-0.6,1-1.9,1c-1.2,0-2.3,0.2-3.1,0.7c-0.8,0.5-2,1.5-3.5,3.2c3,2.4,4.5,3.9,4.5,4.5c0,0.3-0.3,0.5-1,0.5h-19.4v10.2h8.2l2.9-3.7
			c0.3-0.4,0.6-0.7,0.9-0.7c0.5,0,1.6,0.8,3.3,2.4c1.7,1.6,2.5,2.7,2.5,3.3c0,0.4-0.4,0.6-1.3,0.6h-16.6v12.4
			c3.2,0.6,9.1,0.9,17.5,0.9c2.6,0,5.5,0,8.7-0.1v1.3c-1.6,0.2-3,0.5-4,1c-1.1,0.5-1.9,1.4-2.4,2.8c-0.2,0.6-0.6,0.8-1,0.8
			c-1.2,0-4.2-0.2-9.2-0.7c-5-0.5-8.5-0.9-10.5-1.2c-2-0.3-3.9-1-5.6-2c-1.7-1-3.4-2.4-5-4.1c-1.6-1.7-2.9-3.7-4.1-5.9
			c-1.4,2.9-3.1,5.5-5,7.8s-4.7,4.9-8.3,7.9l-0.8-0.8c4-4.5,7-9,9.1-13.6c2.1-4.6,3.4-9.8,4-15.6c2.7,1.3,4.5,2.2,5.4,2.8
			c0.9,0.6,1.4,1,1.4,1.4s-0.3,0.6-1,0.7c-0.6,0.1-1.2,0.7-1.6,1.8l-2.2,5.2c2.8,4,5.9,6.7,9.3,8.1v-23.3h-14.3
			c-1.1,0-1.9,0.1-2.5,0.4l-1.1-2.6c0.8,0.2,1.8,0.3,3,0.3h30.9l2.6-3.5c0.4-0.5,0.7-0.7,1.1-0.5c0.4-1.6,0.8-3.2,1.1-4.9h-33.7
			c0.1,2.1-0.5,3.9-1.8,5.5c-1.3,1.6-2.7,2.3-4.2,2.3c-0.8,0-1.6-0.2-2.2-0.7c-0.6-0.5-0.9-1-0.9-1.7c0-1,0.8-2.2,2.4-3.4
			c1.6-1.2,2.7-2.4,3.4-3.5c0.7-1.1,1.1-2.6,1.4-4.4h1.3L450.8,2132.3z M460.8,2121.4c6.8,1,10.2,2.8,10.2,5.5c0,0.9-0.4,1.9-1.2,3
			c-0.8,1.1-1.9,1.6-3.4,1.6c-0.6,0-1-0.2-1.2-0.6c-0.2-0.4-0.5-1.2-0.7-2.5c-0.5-2.7-1.8-4.8-4-6.4L460.8,2121.4z"/>
		<path class="st1" d="M513.5,2165.3c-0.3,0.3-0.5,0.5-0.7,0.5c-0.1,0.1-0.4,0.1-0.6,0.2c-0.5,0-1,0.1-1.4,0.1c-0.5,0-1,0-1.6-0.1
			c-0.4-0.1-0.6-0.2-0.7-0.4c-0.1-0.2,0-0.4,0.4-0.7c1.1-1,2.3-2.3,3.6-3.8c1.3-1.5,2.4-3,3.4-4.4H502c-0.4,0-0.8,0-1.2,0.1
			c-0.4,0.1-0.7,0.1-1,0.2l-0.8-2.4c0.4,0.1,0.8,0.1,1.2,0.2c0.4,0,0.8,0.1,1.3,0.1h15.2c0.8-1.3,1.6-2.5,2.4-3.8
			c0.7-1.2,1.4-2.4,2-3.6h-10.5c0,0.5-0.1,0.8-0.2,1c-0.1,0.2-0.3,0.3-0.5,0.5c-0.5,0.2-1.1,0.4-1.6,0.6c-0.6,0.2-1.3,0.3-2.2,0.5
			c-0.2,0-0.3-0.1-0.3-0.5c0.1-0.8,0.1-1.5,0.2-2.2c0-0.6,0.1-1.4,0.1-2.2v-8c0-0.9,0-1.8,0-2.5c0-0.7-0.1-1.5-0.2-2.4
			c1.3,0.4,2.3,0.7,3.1,1c0.8,0.3,1.5,0.7,2.2,1.1h7.1v-6.5h-12.7c-0.4,0-0.9,0-1.3,0.1c-0.4,0.1-0.8,0.2-1.1,0.3l-0.9-2.2
			c0.5,0.1,0.9,0.1,1.3,0.2c0.4,0,0.8,0.1,1.4,0.1l38.5-0.1l2.1-3.8c0.2-0.4,0.5-0.7,0.9-0.7s0.8,0.2,1.2,0.5
			c1.7,1.2,3.2,2.5,4.6,3.9c0.6,0.6,0.8,1,0.6,1.3c-0.2,0.3-0.8,0.5-1.7,0.5H535v6.5h6.8l1.7-2.5c0.2-0.2,0.3-0.3,0.5-0.4
			c0.2-0.1,0.5,0,0.9,0.3c0.8,0.5,1.6,0.9,2.3,1.4s1.4,0.9,2.1,1.4c0.6,0.4,0.7,0.8,0.4,1.1c-0.3,0.3-1,0.7-2.2,1.3v7.9
			c0,0.6,0,1,0,1.4c0,0.4,0.1,0.8,0.2,1.4c0,0.3-0.1,0.5-0.3,0.7c-0.6,0.4-1.3,0.8-1.9,1.1c-0.7,0.3-1.5,0.4-2.6,0.6
			c-0.2,0-0.4,0-0.4-0.1c-0.1-0.1-0.1-0.2-0.1-0.4v-2h-18.5l-0.1,0.4c1.2,0.5,2.3,1.1,3.2,1.6c0.9,0.6,0.9,1-0.1,1.2
			c-0.6,0.1-1,0.2-1.4,0.5c-0.4,0.3-0.8,0.8-1.4,1.5c-0.2,0.3-0.5,0.6-0.8,1c-0.3,0.3-0.6,0.7-1.1,1.3l24.3-0.1l2.4-3.5
			c0.6-0.8,1.4-0.8,2.6,0.1c1,0.8,1.7,1.5,2.3,2.1c0.6,0.6,1.2,1.3,1.7,1.9c0.8,0.9,0.7,1.4-0.3,1.4h-14.7c-0.4,0.8-0.8,1.6-1.3,2.5
			c-0.5,0.8-1,1.7-1.6,2.5c-0.6,0.8-1.1,1.6-1.7,2.3c-0.6,0.7-1.2,1.4-1.8,2c2.4,0.4,4.5,0.9,6.3,1.4c1.7,0.5,3.2,0.9,4.3,1.4
			c1.2,0.5,2.1,0.9,2.7,1.4c0.7,0.5,1.1,1,1.5,1.4c0.9,1.4,1.4,2.5,1.5,3.3c0.1,0.9-0.2,1.5-0.9,2c-0.4,0.3-1,0.4-1.6,0.3
			s-1.6-0.6-2.9-1.6c-1-0.7-1.9-1.3-2.9-2s-2-1.2-3.1-1.8c-1.1-0.6-2.3-1.1-3.6-1.6c-1.3-0.5-2.8-1-4.4-1.5
			c-4.6,2.8-9.4,4.9-14.4,6.2c-5,1.3-10.4,2.1-16.2,2.3l-0.2-1.1c2.1-0.4,4.3-0.9,6.5-1.4c2.2-0.5,4.5-1.2,6.7-1.9
			c2.2-0.7,4.3-1.6,6.5-2.5c2.1-0.9,4-2,5.8-3.1c-2.2-0.4-4.2-0.8-6-1.2c-1.8-0.4-3.8-0.7-5.9-1L513.5,2165.3z M518.2,2136h-7.7v9.5
			h7.7V2136z M520.9,2156.5c-0.8,1-1.7,2.1-2.6,3.3c-0.9,1.2-1.8,2.2-2.6,3.1c1.2,0.2,2.3,0.3,3.3,0.5c1,0.2,2,0.3,3,0.5
			c1,0.1,2,0.3,3,0.4c1,0.1,2.1,0.3,3.2,0.5c1.2-1.3,2.2-2.6,3.2-4s1.9-2.8,2.7-4.2H520.9z M530.4,2127.8h-7.4v6.5h7.4V2127.8z
			 M530.4,2136h-7.4v9.5h7.4V2136z M542.3,2136H535v9.5h7.3V2136z"/>
		<path class="st1" d="M575.8,2132.2l2.1-2.9c0.3-0.4,0.5-0.6,0.7-0.6c0.3,0,1.1,0.7,2.5,2.2c1.4,1.4,2.1,2.3,2.1,2.6
			c0,0.3-0.4,0.5-1.1,0.5h-18.4c-1.1,0-1.9,0.1-2.5,0.4l-1.6-2.5c0.8,0.2,1.8,0.3,3,0.3H575.8z M574.2,2140.3l2.3-2.8
			c0.3-0.4,0.6-0.6,0.8-0.6c0.3,0,1.2,0.7,2.5,2c1.4,1.4,2.1,2.2,2.1,2.4c0,0.3-0.3,0.4-1,0.4h-14.9c-1.1,0-1.9,0.1-2.5,0.4
			l-1.3-2.2c0.8,0.2,1.8,0.3,3,0.3H574.2z M574.4,2148.1l1.9-2.6c0.4-0.5,0.7-0.8,0.9-0.8c0.3,0,1,0.7,2.3,2s1.9,2.2,1.9,2.5
			c0,0.3-0.4,0.5-1.1,0.5h-14.2c-1.1,0-1.9,0.1-2.5,0.4l-1.4-2.3c0.8,0.2,1.8,0.3,3,0.3H574.4z M568.6,2156.6h5.6l1.2-1.7
			c0.2-0.3,0.5-0.5,0.7-0.5s0.6,0.1,1.1,0.4l3.4,1.9c0.5,0.3,0.7,0.6,0.7,0.9s-0.5,0.8-1.6,1.4v8.3c0,0.8,0,1.5,0.1,2.2l0.1,1.5
			c0,0.5-0.7,1-2.2,1.7c-1.5,0.6-2.3,1-2.5,1s-0.3-0.2-0.3-0.7v-3.4H568v4.6c0,0.4-0.1,0.6-0.3,0.8c-0.2,0.2-0.8,0.6-2,1.1
			c-1.1,0.5-1.8,0.8-2,0.8s-0.3-0.1-0.3-0.3c0-0.2,0-0.6,0.1-1.3c0-0.7,0.1-1.8,0.1-3.2v-12.1c0-1.9-0.1-3.7-0.2-5.5
			C565.1,2155,566.9,2155.7,568.6,2156.6z M565.6,2122.1c2.9,0.8,5.1,1.6,6.6,2.4c1.5,0.8,2.2,1.8,2.2,3c0,0.8-0.4,1.5-1.1,2.4
			c-0.7,0.8-1.5,1.2-2.2,1.2s-1.3-0.6-1.6-1.8c-0.3-1.2-0.7-2.2-1.3-3.1c-0.6-0.8-1.6-1.9-3.1-3.2L565.6,2122.1z M574.9,2167.9v-9.7
			H568v9.7H574.9z M586.7,2148.1h-2.8c-1.3,0-2.1,0.1-2.5,0.3l-1-2.5c0.8,0.2,1.8,0.3,2.9,0.3h7.8l1.6-2.5c0.2-0.4,0.5-0.5,0.7-0.5
			c0.5,0,1.8,1.1,3.9,3.4c-0.4-4.6-0.6-7.8-0.7-9.7h-10.7c-1,0-1.8,0.1-2.4,0.4l-1-2.7c0.8,0.2,1.8,0.3,2.9,0.3h11.1l-0.3-7.2
			c-0.1-2-0.4-4.3-0.8-6.8c1.8,0.4,3.4,0.8,4.6,1.2c1.2,0.4,2,0.7,2.3,0.8c0.3,0.1,0.5,0.4,0.5,0.6c0,0.3-0.6,0.8-1.9,1.6l0.2,9.7
			h5.5l1.7-2.4c-0.2,0.2-0.6,0.2-1.1,0.2c-1.1,0-1.8-0.6-2-2c-0.2-1.3-0.6-2.3-1-3c-0.4-0.7-1.2-1.5-2.5-2.5l0.5-0.8
			c3,0.7,4.9,1.4,5.9,2.1s1.4,1.7,1.4,2.8c0,1.1-0.2,1.9-0.5,2.4c0.1,0,0.2-0.1,0.4-0.1c0.4,0,1,0.3,1.6,0.9l2,1.9
			c0.7,0.7,1.1,1.2,1.1,1.7c0,0.4-0.4,0.7-1.1,0.7h-11.8c0.6,13,1.9,21.6,3.8,26c2,4.3,3.3,6.5,4.1,6.5c0.2,0,0.4-0.1,0.6-0.4
			c0.2-0.3,0.5-1.3,1-3.2c0.5-1.8,1.1-3.9,1.6-6.2l1,0.2c-0.2,4.2-0.4,7.4-0.4,9.5s0.3,4.1,1,5.8c0.1,0.3,0.2,0.6,0.2,1
			c0,0.9-0.5,1.4-1.3,1.4c-0.9,0-2.6-1-5.1-2.9c-2.5-1.9-4.6-4.9-6.5-8.8c-1.8-4-3.1-9.9-3.8-17.8h-6.2v14.7l7.4-2.2l0.3,1.1
			l-8.8,4.4c-1.3,0.6-2.3,1.1-3.2,1.6c-0.8,0.5-1.8,1.2-2.8,2.1c-0.2,0.2-0.4,0.2-0.5,0.2c-0.1,0-0.3-0.1-0.4-0.2s-0.5-0.6-1-1.6
			c-0.6-1-1.1-2-1.5-3.2c1.7-0.2,3.7-0.5,6-1.1V2148.1z"/>
		<path class="st1" d="M635.8,2132.2l2.1-2.9c0.3-0.4,0.5-0.6,0.7-0.6c0.3,0,1.1,0.7,2.5,2.2c1.4,1.4,2.1,2.3,2.1,2.6
			c0,0.3-0.4,0.5-1.1,0.5h-18.4c-1.1,0-1.9,0.1-2.5,0.4l-1.6-2.5c0.8,0.2,1.8,0.3,3,0.3H635.8z M634.2,2140.3l2.3-2.8
			c0.3-0.4,0.6-0.6,0.8-0.6c0.3,0,1.2,0.7,2.5,2c1.4,1.4,2.1,2.2,2.1,2.4c0,0.3-0.3,0.4-1,0.4h-14.9c-1.1,0-1.9,0.1-2.5,0.4
			l-1.3-2.2c0.8,0.2,1.8,0.3,3,0.3H634.2z M634.4,2148.1l1.9-2.6c0.4-0.5,0.7-0.8,0.9-0.8c0.3,0,1,0.7,2.3,2s1.9,2.2,1.9,2.5
			c0,0.3-0.4,0.5-1.1,0.5h-14.2c-1.1,0-1.9,0.1-2.5,0.4l-1.4-2.3c0.8,0.2,1.8,0.3,3,0.3H634.4z M628.6,2156.6h5.6l1.2-1.7
			c0.2-0.3,0.5-0.5,0.7-0.5s0.6,0.1,1.1,0.4l3.4,1.9c0.5,0.3,0.7,0.6,0.7,0.9s-0.5,0.8-1.6,1.4v8.3c0,0.8,0,1.5,0.1,2.2l0.1,1.5
			c0,0.5-0.7,1-2.2,1.7c-1.5,0.6-2.3,1-2.5,1s-0.3-0.2-0.3-0.7v-3.4H628v4.6c0,0.4-0.1,0.6-0.3,0.8c-0.2,0.2-0.8,0.6-2,1.1
			c-1.1,0.5-1.8,0.8-2,0.8s-0.3-0.1-0.3-0.3c0-0.2,0-0.6,0.1-1.3c0-0.7,0.1-1.8,0.1-3.2v-12.1c0-1.9-0.1-3.7-0.2-5.5
			C625.1,2155,626.9,2155.7,628.6,2156.6z M625.6,2122.1c2.9,0.8,5.1,1.6,6.6,2.4c1.5,0.8,2.2,1.8,2.2,3c0,0.8-0.4,1.5-1.1,2.4
			c-0.7,0.8-1.5,1.2-2.2,1.2s-1.3-0.6-1.6-1.8c-0.3-1.2-0.7-2.2-1.3-3.1c-0.6-0.8-1.6-1.9-3.1-3.2L625.6,2122.1z M634.9,2167.9v-9.7
			H628v9.7H634.9z M646.7,2148.1h-2.8c-1.3,0-2.1,0.1-2.5,0.3l-1-2.5c0.8,0.2,1.8,0.3,2.9,0.3h7.8l1.6-2.5c0.2-0.4,0.5-0.5,0.7-0.5
			c0.5,0,1.8,1.1,3.9,3.4c-0.4-4.6-0.6-7.8-0.7-9.7h-10.7c-1,0-1.8,0.1-2.4,0.4l-1-2.7c0.8,0.2,1.8,0.3,2.9,0.3h11.1l-0.3-7.2
			c-0.1-2-0.4-4.3-0.8-6.8c1.8,0.4,3.4,0.8,4.6,1.2c1.2,0.4,2,0.7,2.3,0.8c0.3,0.1,0.5,0.4,0.5,0.6c0,0.3-0.6,0.8-1.9,1.6l0.2,9.7
			h5.5l1.7-2.4c-0.2,0.2-0.6,0.2-1.1,0.2c-1.1,0-1.8-0.6-2-2c-0.2-1.3-0.6-2.3-1-3c-0.4-0.7-1.2-1.5-2.5-2.5l0.5-0.8
			c3,0.7,4.9,1.4,5.9,2.1s1.4,1.7,1.4,2.8c0,1.1-0.2,1.9-0.5,2.4c0.1,0,0.2-0.1,0.4-0.1c0.4,0,1,0.3,1.6,0.9l2,1.9
			c0.7,0.7,1.1,1.2,1.1,1.7c0,0.4-0.4,0.7-1.1,0.7h-11.8c0.6,13,1.9,21.6,3.8,26c2,4.3,3.3,6.5,4.1,6.5c0.2,0,0.4-0.1,0.6-0.4
			c0.2-0.3,0.5-1.3,1-3.2c0.5-1.8,1.1-3.9,1.6-6.2l1,0.2c-0.2,4.2-0.4,7.4-0.4,9.5s0.3,4.1,1,5.8c0.1,0.3,0.2,0.6,0.2,1
			c0,0.9-0.5,1.4-1.3,1.4c-0.9,0-2.6-1-5.1-2.9c-2.5-1.9-4.6-4.9-6.5-8.8c-1.8-4-3.1-9.9-3.8-17.8h-6.2v14.7l7.4-2.2l0.3,1.1
			l-8.8,4.4c-1.3,0.6-2.3,1.1-3.2,1.6c-0.8,0.5-1.8,1.2-2.8,2.1c-0.2,0.2-0.4,0.2-0.5,0.2c-0.1,0-0.3-0.1-0.4-0.2s-0.5-0.6-1-1.6
			c-0.6-1-1.1-2-1.5-3.2c1.7-0.2,3.7-0.5,6-1.1V2148.1z"/>
	</g>
	<g class="st0">
		<path class="st1" d="M727.1,2132.5c0,3.1-1.3,6-3.9,8.8s-5.7,5-9.5,6.4l-0.8-2.1c0.9-0.4,1.9-0.9,3.1-1.6c1.1-0.7,2-1.3,2.7-1.9
			c0.8-0.7,1.5-1.5,2.1-2.4s1.1-1.9,1.5-3h-1.6c-1.7,0-3-0.3-3.8-1c-0.8-0.6-1.3-1.5-1.3-2.7c0-1.5,0.6-2.8,1.9-4.1s2.7-1.8,4.5-1.8
			c1.8,0,3.1,0.5,3.9,1.5S727.1,2130.9,727.1,2132.5z M741.6,2132.5c0,3.1-1.3,6-3.9,8.8s-5.7,5-9.5,6.4l-0.8-2.1
			c0.9-0.4,1.9-0.9,3.1-1.6c1.1-0.7,2-1.3,2.7-1.9c0.8-0.7,1.5-1.5,2.1-2.4s1.1-1.9,1.5-3h-1.6c-1.7,0-3-0.3-3.8-1
			c-0.8-0.6-1.3-1.5-1.3-2.7c0-1.5,0.6-2.8,1.9-4.1s2.7-1.8,4.5-1.8c1.8,0,3.1,0.5,3.9,1.5S741.6,2130.9,741.6,2132.5z"/>
	</g>
</g>
</svg>
