<?xml version="1.0" encoding="utf-8"?>
<!-- Generator: Adobe Illustrator 24.1.0, SVG Export Plug-In . SVG Version: 6.00 Build 0)  -->
<svg version="1.1" id="圖層_1" xmlns="http://www.w3.org/2000/svg" xmlns:xlink="http://www.w3.org/1999/xlink" x="0px" y="0px"
	 viewBox="0 0 494 70" style="enable-background:new 0 0 494 70;" xml:space="preserve">
<style type="text/css">
	.st0{enable-background:new    ;}
	.st1{fill:#A59583;}
</style>
<g class="st0">
	<path class="st1" d="M147.6,31.1c-2,2.8-4.4,5.4-7.2,7.9l-0.6-0.6c3.1-4.4,5.6-8.7,7.5-13s3.5-9.1,4.9-14.6
		c3.3,1.4,5.2,2.3,5.8,2.6s0.9,0.7,0.9,1s-0.4,0.5-1.2,0.5c-0.5,0-0.8,0.1-1,0.3s-1,1.7-2.2,4.3c-1.3,2.7-2.5,4.9-3.6,6.7
		c0.6,0.1,1.1,0.3,1.6,0.6c0.5,0.3,0.8,0.5,0.8,0.7s-0.4,0.5-1.3,0.9v26.1c0,0.4-0.2,0.7-0.5,1s-1,0.6-1.8,0.9
		c-0.9,0.3-1.4,0.5-1.7,0.5s-0.4-0.2-0.4-0.5l0.1-3c0.1-2.3,0.1-4.2,0.1-5.8V31.1H147.6z M160.7,32.9c3.6,1.5,5.5,2.5,5.5,3.1
		c0,0.3-0.3,0.4-0.9,0.5c-0.6,0.1-1.2,0.6-1.7,1.5c-3.1,5.6-6.6,10-10.5,13.3l-0.5-0.6C156,45.4,158.8,39.4,160.7,32.9z M164.1,23.4
		c-1.3,2.2-2.5,4.1-3.7,5.6s-3,3.5-5.4,5.9l-0.8-0.6c2.8-4.2,4.8-8,6.2-11.2s2.6-7.2,3.6-11.9c4.4,1.6,6.5,2.7,6.5,3.3
		c0,0.3-0.4,0.5-1.1,0.7c-1,0.2-1.6,0.5-1.8,1.1c-0.2,0.6-1.1,2.3-2.6,5.2h13.5l1.2-1.9c0.2-0.3,0.5-0.5,0.7-0.5
		c0.3,0,1.3,0.6,3.2,1.9c1.9,1.2,2.8,2.2,2.8,2.9c0,0.2-0.1,0.4-0.3,0.6s-0.5,0.2-0.8,0.2h-0.9c-0.9,0-1.9,0.4-2.9,1.2
		c-1,0.8-2.4,2.4-4.3,4.8l-0.8-0.5c1-2.6,1.8-4.9,2.4-6.8C178.8,23.4,164.1,23.4,164.1,23.4z M168,25.6c2.1,0.5,3.7,1,4.7,1.5
		c1,0.4,1.5,0.8,1.5,1c0,0.3-0.5,0.6-1.5,1.1v23.2c0,1.5-0.8,2.7-2.2,3.5c-1.5,0.9-2.6,1.3-3.2,1.3c-0.4,0-0.7-0.3-0.8-0.8
		c-0.2-1.1-0.8-2-1.8-2.6s-2.4-1.3-4.4-2l0.2-1.1c3.1,0.6,5,0.9,5.9,0.9c0.8,0,1.4-0.1,1.6-0.4c0.2-0.2,0.3-0.6,0.3-1.2V30.1
		C168.1,28.4,168.1,26.9,168,25.6z M175.2,33.4c2.7,3,4.9,5.6,6.5,7.7c1.6,2.1,2.4,3.8,2.4,5s-0.3,2.3-1,3.3c-0.6,1-1.4,1.5-2.3,1.5
		c-0.4,0-0.7-0.2-0.9-0.5s-0.4-1.4-0.8-3.3c-0.3-1.9-0.9-3.9-1.7-6s-1.8-4.3-3-6.7L175.2,33.4z"/>
	<path class="st1" d="M227.4,31l2.9-3.8c0.4-0.5,0.8-0.8,1-0.8c0.3,0,1.3,0.9,3.1,2.6s2.6,2.8,2.6,3.1c0,0.4-0.4,0.5-1.2,0.5h-41.7
		c-0.9,0-1.6,0.1-2.1,0.3l-1-2.2c0.7,0.2,1.5,0.2,2.5,0.2L227.4,31L227.4,31z"/>
	<path class="st1" d="M250.5,20h28.2l1.3-1.8c0.2-0.3,0.3-0.5,0.5-0.5c0.4,0,1.4,0.6,3,1.9s2.4,2.2,2.4,2.7s-0.5,0.8-1.5,0.8
		s-1.9,0.2-2.5,0.6c-0.7,0.4-1.6,1.3-2.9,2.6c2.5,2,3.8,3.2,3.8,3.8c0,0.3-0.3,0.4-0.8,0.4h-16.2V39h6.9l2.4-3.1
		c0.3-0.4,0.5-0.5,0.8-0.5c0.4,0,1.4,0.7,2.8,2c1.4,1.4,2.1,2.3,2.1,2.8c0,0.3-0.4,0.5-1.1,0.5h-13.8V51c2.7,0.5,7.6,0.8,14.6,0.8
		c2.2,0,4.6,0,7.2,0v1.1c-1.3,0.1-2.5,0.4-3.4,0.8c-0.9,0.4-1.6,1.2-2,2.3c-0.2,0.5-0.5,0.7-0.8,0.7c-1,0-3.5-0.2-7.7-0.6
		c-4.2-0.4-7.1-0.7-8.8-1c-1.7-0.3-3.2-0.8-4.7-1.7c-1.5-0.8-2.8-2-4.2-3.4s-2.4-3.1-3.4-4.9c-1.2,2.4-2.6,4.6-4.2,6.5
		c-1.6,1.9-3.9,4.1-6.9,6.6l-0.7-0.7c3.3-3.7,5.9-7.5,7.6-11.3c1.7-3.8,2.8-8.1,3.4-13c2.2,1.1,3.7,1.8,4.5,2.3
		c0.8,0.5,1.2,0.9,1.2,1.2s-0.3,0.5-0.8,0.6s-1,0.6-1.4,1.5l-1.8,4.4c2.4,3.3,5,5.6,7.8,6.8V30.4h-12c-0.9,0-1.6,0.1-2.1,0.4
		l-0.9-2.2c0.7,0.2,1.5,0.2,2.5,0.2h25.8l2.2-2.9c0.3-0.4,0.6-0.5,0.9-0.4c0.4-1.3,0.7-2.7,0.9-4.1h-28.1c0.1,1.7-0.4,3.2-1.5,4.5
		s-2.2,2-3.5,2c-0.7,0-1.3-0.2-1.8-0.6s-0.8-0.8-0.8-1.4c0-0.9,0.7-1.8,2-2.8s2.2-2,2.8-2.9s0.9-2.2,1.2-3.7h1.1L250.5,20z
		 M258.8,10.9c5.7,0.8,8.5,2.3,8.5,4.5c0,0.7-0.3,1.6-1,2.5s-1.6,1.4-2.8,1.4c-0.5,0-0.8-0.2-1-0.5s-0.4-1-0.6-2.1
		c-0.4-2.2-1.5-4-3.3-5.3L258.8,10.9z"/>
	<path class="st1" d="M302.7,47.4c-0.3,0.2-0.5,0.4-0.6,0.4c-0.1,0.1-0.3,0.1-0.5,0.1c-0.4,0-0.8,0.1-1.2,0.1c-0.4,0-0.8,0-1.3-0.1
		c-0.3-0.1-0.5-0.2-0.5-0.3c-0.1-0.2,0-0.4,0.3-0.6c0.9-0.9,1.9-1.9,3-3.2s2-2.5,2.8-3.7h-11.5c-0.3,0-0.7,0-1,0.1
		c-0.3,0-0.6,0.1-0.8,0.2l-0.7-2c0.4,0.1,0.7,0.1,1,0.2s0.7,0,1,0h12.7c0.7-1.1,1.4-2.1,2-3.1s1.2-2,1.7-3h-8.8c0,0.4,0,0.7-0.1,0.8
		c-0.1,0.2-0.2,0.3-0.4,0.4c-0.4,0.2-0.9,0.4-1.3,0.5c-0.5,0.1-1.1,0.3-1.8,0.4c-0.2,0-0.3-0.1-0.2-0.5c0.1-0.7,0.1-1.3,0.1-1.8
		s0-1.1,0-1.8v-6.7c0-0.8,0-1.5,0-2.1s-0.1-1.3-0.1-2c1.1,0.3,1.9,0.6,2.6,0.8s1.3,0.6,1.9,0.9h5.9V16h-10.6c-0.4,0-0.7,0-1.1,0.1
		s-0.7,0.1-0.9,0.2l-0.8-1.8c0.4,0.1,0.8,0.1,1.1,0.2c0.3,0,0.7,0,1.2,0h32.1l1.8-3.2c0.2-0.4,0.5-0.5,0.8-0.5s0.6,0.1,1,0.4
		c1.4,1,2.7,2.1,3.9,3.2c0.5,0.5,0.6,0.8,0.5,1.1c-0.2,0.3-0.6,0.4-1.4,0.4H321v5.4h5.7l1.4-2.1c0.1-0.2,0.3-0.3,0.4-0.3
		c0.1-0.1,0.4,0,0.8,0.3c0.7,0.4,1.3,0.8,1.9,1.1c0.6,0.4,1.2,0.7,1.8,1.2c0.5,0.4,0.6,0.7,0.4,0.9c-0.2,0.2-0.8,0.6-1.9,1.1v6.6
		c0,0.5,0,0.8,0,1.1s0.1,0.7,0.1,1.2c0,0.2,0,0.4-0.2,0.6c-0.5,0.4-1.1,0.7-1.6,0.9s-1.3,0.4-2.1,0.5c-0.2,0-0.3,0-0.4-0.1
		c0-0.1-0.1-0.2-0.1-0.3v-1.7h-15.4l-0.1,0.3c1,0.4,1.9,0.9,2.7,1.3c0.8,0.5,0.7,0.9-0.1,1c-0.5,0.1-0.9,0.2-1.2,0.4
		c-0.3,0.2-0.7,0.6-1.2,1.2c-0.2,0.3-0.4,0.5-0.6,0.8s-0.5,0.6-0.9,1h20.2l2-3c0.5-0.7,1.2-0.7,2.2,0c0.8,0.6,1.5,1.2,2,1.7
		s1,1,1.4,1.6c0.6,0.8,0.5,1.2-0.2,1.2h-12.2c-0.3,0.7-0.7,1.3-1.1,2s-0.8,1.4-1.3,2c-0.5,0.7-0.9,1.3-1.4,1.9s-1,1.2-1.5,1.7
		c2,0.4,3.8,0.7,5.2,1.1c1.5,0.4,2.7,0.8,3.6,1.1s1.7,0.8,2.3,1.2c0.5,0.4,1,0.8,1.2,1.2c0.8,1.1,1.2,2.1,1.2,2.8s-0.2,1.3-0.7,1.7
		c-0.4,0.3-0.8,0.4-1.3,0.2c-0.5-0.1-1.3-0.5-2.5-1.3c-0.8-0.6-1.6-1.1-2.4-1.6s-1.7-1-2.6-1.5s-1.9-0.9-3-1.4
		c-1.1-0.4-2.3-0.8-3.6-1.2c-3.8,2.4-7.8,4.1-12,5.2s-8.7,1.8-13.5,2l-0.2-0.9c1.8-0.3,3.6-0.7,5.5-1.2s3.7-1,5.5-1.6
		s3.6-1.3,5.4-2.1s3.4-1.6,4.9-2.6c-1.8-0.4-3.5-0.7-5-1s-3.2-0.6-4.9-0.8L302.7,47.4z M306.7,23h-6.4v8h6.4V23z M308.9,40.1
		c-0.7,0.9-1.4,1.8-2.2,2.8s-1.5,1.8-2.1,2.6c1,0.1,1.9,0.3,2.8,0.4c0.8,0.1,1.7,0.3,2.5,0.4c0.8,0.1,1.6,0.2,2.5,0.3
		c0.8,0.1,1.7,0.2,2.7,0.4c1-1.1,1.9-2.2,2.7-3.4c0.8-1.2,1.6-2.3,2.2-3.5H308.9z M316.8,16.2h-6.2v5.4h6.2V16.2z M316.8,23h-6.2v8
		h6.2V23z M326.7,23h-6.1v8h6.1V23z"/>
	<path class="st1" d="M354.7,19.9l1.8-2.4c0.2-0.3,0.4-0.5,0.6-0.5s0.9,0.6,2.1,1.8c1.2,1.2,1.8,1.9,1.8,2.2s-0.3,0.4-0.9,0.4h-15.3
		c-0.9,0-1.6,0.1-2.1,0.3l-1.3-2c0.7,0.2,1.5,0.2,2.5,0.2H354.7z M353.3,26.6l1.9-2.3c0.3-0.3,0.5-0.5,0.7-0.5c0.3,0,1,0.6,2.1,1.7
		s1.7,1.8,1.7,2s-0.3,0.3-0.8,0.3h-12.5c-0.9,0-1.6,0.1-2.1,0.3l-1-1.8c0.7,0.2,1.5,0.2,2.5,0.2L353.3,26.6L353.3,26.6z M353.5,33.1
		L355,31c0.3-0.4,0.6-0.6,0.8-0.6s0.9,0.6,1.9,1.7c1.1,1.1,1.6,1.8,1.6,2.1s-0.3,0.4-1,0.4h-11.8c-0.9,0-1.6,0.1-2.1,0.4l-1.2-2
		c0.7,0.2,1.5,0.2,2.5,0.2h7.8V33.1z M348.7,40.2h4.7l1-1.4c0.2-0.3,0.4-0.4,0.5-0.4c0.2,0,0.5,0.1,0.9,0.3l2.8,1.6
		c0.4,0.2,0.6,0.5,0.6,0.7s-0.5,0.6-1.3,1.2v7c0,0.7,0,1.3,0,1.8l0.1,1.2c0,0.4-0.6,0.9-1.8,1.4c-1.2,0.5-1.9,0.8-2.1,0.8
		c-0.1,0-0.2-0.2-0.2-0.6V51h-5.7v3.8c0,0.3-0.1,0.5-0.2,0.7c-0.2,0.2-0.7,0.5-1.7,0.9s-1.5,0.7-1.7,0.7s-0.3-0.1-0.3-0.2
		c0-0.1,0-0.5,0-1.1s0-1.5,0-2.7V43c0-1.6,0-3.1-0.1-4.6C345.8,38.8,347.2,39.4,348.7,40.2z M346.2,11.5c2.4,0.7,4.3,1.3,5.5,2
		s1.8,1.5,1.8,2.5c0,0.6-0.3,1.3-0.9,2s-1.2,1-1.9,1c-0.6,0-1.1-0.5-1.3-1.5c-0.2-1-0.6-1.9-1-2.6c-0.5-0.7-1.3-1.6-2.6-2.6
		L346.2,11.5z M353.9,49.6v-8.1h-5.7v8.1H353.9z M363.7,33.1h-2.3c-1.1,0-1.8,0.1-2,0.2l-0.8-2c0.7,0.2,1.5,0.2,2.4,0.2h6.5l1.3-2
		c0.2-0.3,0.4-0.5,0.6-0.5c0.4,0,1.5,1,3.2,2.8c-0.3-3.8-0.5-6.5-0.6-8.1h-8.9c-0.8,0-1.5,0.1-2,0.3l-0.9-2.2
		c0.7,0.2,1.5,0.2,2.4,0.2h9.2l-0.2-6c-0.1-1.7-0.3-3.6-0.7-5.7c1.5,0.3,2.8,0.7,3.8,1s1.7,0.6,1.9,0.7c0.2,0.1,0.4,0.3,0.4,0.5
		s-0.5,0.7-1.6,1.4l0.2,8.1h4.6l1.4-2c-0.2,0.1-0.5,0.2-0.9,0.2c-0.9,0-1.5-0.5-1.7-1.6s-0.5-1.9-0.8-2.5c-0.3-0.6-1-1.3-2.1-2
		l0.4-0.6c2.5,0.6,4.1,1.2,4.9,1.8s1.2,1.4,1.2,2.3s-0.1,1.6-0.4,2c0.1,0,0.2,0,0.3,0c0.4,0,0.8,0.2,1.3,0.8l1.7,1.5
		c0.6,0.6,0.9,1,0.9,1.4s-0.3,0.5-1,0.5h-9.9c0.5,10.8,1.6,18,3.2,21.6c1.6,3.6,2.8,5.4,3.5,5.4c0.2,0,0.4-0.1,0.5-0.3
		s0.4-1.1,0.9-2.6s0.9-3.2,1.3-5.1l0.8,0.2c-0.2,3.5-0.3,6.1-0.3,7.9c0,1.8,0.3,3.4,0.8,4.9c0.1,0.3,0.2,0.5,0.2,0.8
		c0,0.8-0.4,1.1-1.1,1.1s-2.2-0.8-4.2-2.4c-2.1-1.6-3.9-4-5.4-7.4c-1.5-3.3-2.6-8.2-3.2-14.8h-5.1v12.2l6.2-1.8l0.2,1l-7.3,3.7
		c-1.1,0.5-1.9,1-2.6,1.4s-1.5,1-2.4,1.8c-0.2,0.1-0.3,0.2-0.4,0.2s-0.2,0-0.3-0.1c-0.1-0.1-0.4-0.5-0.9-1.3s-0.9-1.7-1.3-2.7
		c1.4-0.1,3.1-0.5,5-1L363.7,33.1L363.7,33.1z"/>
	<path class="st1" d="M404.7,19.9l1.8-2.4c0.2-0.3,0.4-0.5,0.6-0.5s0.9,0.6,2.1,1.8c1.2,1.2,1.8,1.9,1.8,2.2s-0.3,0.4-0.9,0.4h-15.3
		c-0.9,0-1.6,0.1-2.1,0.3l-1.3-2c0.7,0.2,1.5,0.2,2.5,0.2H404.7z M403.3,26.6l1.9-2.3c0.3-0.3,0.5-0.5,0.7-0.5c0.3,0,1,0.6,2.1,1.7
		s1.7,1.8,1.7,2s-0.3,0.3-0.8,0.3h-12.5c-0.9,0-1.6,0.1-2.1,0.3l-1-1.8c0.7,0.2,1.5,0.2,2.5,0.2L403.3,26.6L403.3,26.6z M403.5,33.1
		L405,31c0.3-0.4,0.6-0.6,0.8-0.6s0.9,0.6,1.9,1.7c1.1,1.1,1.6,1.8,1.6,2.1s-0.3,0.4-1,0.4h-11.8c-0.9,0-1.6,0.1-2.1,0.4l-1.2-2
		c0.7,0.2,1.5,0.2,2.5,0.2h7.8V33.1z M398.7,40.2h4.7l1-1.4c0.2-0.3,0.4-0.4,0.5-0.4c0.2,0,0.5,0.1,0.9,0.3l2.8,1.6
		c0.4,0.2,0.6,0.5,0.6,0.7s-0.5,0.6-1.3,1.2v7c0,0.7,0,1.3,0,1.8l0.1,1.2c0,0.4-0.6,0.9-1.8,1.4c-1.2,0.5-1.9,0.8-2.1,0.8
		c-0.1,0-0.2-0.2-0.2-0.6V51h-5.7v3.8c0,0.3-0.1,0.5-0.2,0.7c-0.2,0.2-0.7,0.5-1.7,0.9s-1.5,0.7-1.7,0.7s-0.3-0.1-0.3-0.2
		c0-0.1,0-0.5,0-1.1s0-1.5,0-2.7V43c0-1.6,0-3.1-0.1-4.6C395.8,38.8,397.2,39.4,398.7,40.2z M396.2,11.5c2.4,0.7,4.3,1.3,5.5,2
		s1.8,1.5,1.8,2.5c0,0.6-0.3,1.3-0.9,2s-1.2,1-1.9,1c-0.6,0-1.1-0.5-1.3-1.5c-0.2-1-0.6-1.9-1-2.6c-0.5-0.7-1.3-1.6-2.6-2.6
		L396.2,11.5z M403.9,49.6v-8.1h-5.7v8.1H403.9z M413.7,33.1h-2.3c-1.1,0-1.8,0.1-2,0.2l-0.8-2c0.7,0.2,1.5,0.2,2.4,0.2h6.5l1.3-2
		c0.2-0.3,0.4-0.5,0.6-0.5c0.4,0,1.5,1,3.2,2.8c-0.3-3.8-0.5-6.5-0.6-8.1h-8.9c-0.8,0-1.5,0.1-2,0.3l-0.9-2.2
		c0.7,0.2,1.5,0.2,2.4,0.2h9.2l-0.2-6c-0.1-1.7-0.3-3.6-0.7-5.7c1.5,0.3,2.8,0.7,3.8,1s1.7,0.6,1.9,0.7c0.2,0.1,0.4,0.3,0.4,0.5
		s-0.5,0.7-1.6,1.4l0.2,8.1h4.6l1.4-2c-0.2,0.1-0.5,0.2-0.9,0.2c-0.9,0-1.5-0.5-1.7-1.6s-0.5-1.9-0.8-2.5c-0.3-0.6-1-1.3-2.1-2
		l0.4-0.6c2.5,0.6,4.1,1.2,4.9,1.8s1.2,1.4,1.2,2.3s-0.1,1.6-0.4,2c0.1,0,0.2,0,0.3,0c0.4,0,0.8,0.2,1.3,0.8l1.7,1.5
		c0.6,0.6,0.9,1,0.9,1.4s-0.3,0.5-1,0.5h-9.9c0.5,10.8,1.6,18,3.2,21.6c1.6,3.6,2.8,5.4,3.5,5.4c0.2,0,0.4-0.1,0.5-0.3
		s0.4-1.1,0.9-2.6s0.9-3.2,1.3-5.1l0.8,0.2c-0.2,3.5-0.3,6.1-0.3,7.9c0,1.8,0.3,3.4,0.8,4.9c0.1,0.3,0.2,0.5,0.2,0.8
		c0,0.8-0.4,1.1-1.1,1.1s-2.2-0.8-4.2-2.4c-2.1-1.6-3.9-4-5.4-7.4c-1.5-3.3-2.6-8.2-3.2-14.8h-5.1v12.2l6.2-1.8l0.2,1l-7.3,3.7
		c-1.1,0.5-1.9,1-2.6,1.4s-1.5,1-2.4,1.8c-0.2,0.1-0.3,0.2-0.4,0.2s-0.2,0-0.3-0.1c-0.1-0.1-0.4-0.5-0.9-1.3s-0.9-1.7-1.3-2.7
		c1.4-0.1,3.1-0.5,5-1L413.7,33.1L413.7,33.1z"/>
</g>
<g class="st0">
	<path class="st1" d="M480.8,20.1c0,2.6-1.1,5-3.2,7.3c-2.2,2.3-4.8,4.1-7.9,5.4l-0.7-1.7c0.7-0.3,1.6-0.8,2.5-1.3
		c0.9-0.6,1.7-1.1,2.3-1.6c0.6-0.6,1.2-1.2,1.8-2c0.5-0.7,0.9-1.6,1.2-2.5h-1.4c-1.4,0-2.5-0.3-3.2-0.8s-1-1.3-1-2.2
		c0-1.2,0.5-2.4,1.6-3.4c1-1,2.3-1.5,3.7-1.5c1.5,0,2.6,0.4,3.3,1.2C480.4,17.7,480.8,18.8,480.8,20.1z M492.8,20.1
		c0,2.6-1.1,5-3.2,7.3s-4.8,4.1-7.9,5.4l-0.7-1.7c0.7-0.3,1.6-0.8,2.5-1.3c0.9-0.6,1.7-1.1,2.3-1.6c0.6-0.6,1.2-1.2,1.8-2
		s0.9-1.6,1.2-2.5h-1.4c-1.4,0-2.5-0.3-3.2-0.8s-1-1.3-1-2.2c0-1.2,0.5-2.4,1.6-3.4c1-1,2.3-1.5,3.7-1.5c1.5,0,2.6,0.4,3.3,1.2
		C492.5,17.7,492.8,18.8,492.8,20.1z"/>
</g>
</svg>
