<?xml version="1.0" encoding="utf-8"?>
<!-- Generator: Adobe Illustrator 24.1.0, SVG Export Plug-In . SVG Version: 6.00 Build 0)  -->
<svg version="1.1" id="圖層_1" xmlns="http://www.w3.org/2000/svg" xmlns:xlink="http://www.w3.org/1999/xlink" x="0px" y="0px"
	 viewBox="0 0 268 70" style="enable-background:new 0 0 268 70;" xml:space="preserve">
<style type="text/css">
	.st0{enable-background:new    ;}
	.st1{fill:#A59583;}
</style>
<g class="st0">
	<path class="st1" d="M16.7,17.5c-0.7,0.3-1.6,0.8-2.5,1.3c-0.9,0.6-1.7,1.1-2.3,1.6c-0.6,0.6-1.2,1.2-1.8,2
		c-0.5,0.7-0.9,1.6-1.2,2.5h1.4c1.4,0,2.5,0.3,3.2,0.8s1,1.3,1,2.2c0,1.2-0.5,2.4-1.6,3.4c-1,1-2.3,1.5-3.7,1.5
		c-1.5,0-2.6-0.4-3.3-1.2c-0.7-0.8-1-1.9-1-3.2c0-2.6,1.1-5,3.2-7.3c2.2-2.3,4.8-4.1,7.9-5.4L16.7,17.5z M28.7,17.5
		c-0.7,0.3-1.6,0.8-2.5,1.3c-0.9,0.6-1.7,1.1-2.3,1.6c-0.6,0.6-1.2,1.2-1.8,2c-0.5,0.7-0.9,1.6-1.2,2.5h1.4c1.4,0,2.5,0.3,3.2,0.8
		s1,1.3,1,2.2c0,1.2-0.5,2.4-1.6,3.4c-1,1-2.3,1.5-3.7,1.5c-1.5,0-2.6-0.4-3.3-1.2c-0.7-0.8-1-1.9-1-3.2c0-2.6,1.1-5,3.2-7.3
		c2.2-2.3,4.8-4.1,7.9-5.4L28.7,17.5z"/>
</g>
<g class="st0">
	<path class="st1" d="M63.5,14.9c-3.1,5.2-6.5,9.5-10.1,12.8c-3.7,3.3-8,6.2-13.1,8.9l-0.6-0.9c4.7-3.4,8.7-7.1,12-11.1
		c3.3-4,6-8.7,8-14.2c0.8,0.2,2,0.6,3.6,1.1c1.7,0.5,2.6,0.8,2.8,1c0.2,0.1,0.3,0.2,0.3,0.4s-0.2,0.3-0.7,0.5
		c-0.5,0.2-0.8,0.4-1.1,0.5c2,3.9,4.9,7.3,8.9,10.2s8.3,4.9,13,5.9V31c-1.9,0.1-3.3,0.3-4.1,0.8c-0.8,0.4-1.4,1.1-2,2.1
		c-0.2,0.3-0.4,0.5-0.6,0.5c-0.7,0-3-1.7-6.9-5.2C69,25.7,65.9,21,63.5,14.9z M49.3,40.2c-1,0-1.7,0.1-2.1,0.3l-1.1-2.2
		c0.7,0.2,1.5,0.2,2.5,0.2h21.8l1.6-2.1c0.3-0.4,0.5-0.5,0.7-0.5c0.2,0,0.9,0.3,2,0.9l2.9,1.6c0.8,0.4,1.1,0.8,1.1,1.1
		c0,0.3-0.4,0.5-1.2,0.6c-0.8,0.1-1.5,0.4-1.9,0.7c-0.4,0.3-1,1.2-1.8,2.5L68,52.4c-0.7,1.1-1.3,2.1-1.9,3.2c-0.6,1.1-1,1.7-1.1,1.8
		c-0.1,0.1-0.5,0.2-1,0.2c-0.5,0.1-1.1,0.1-1.8,0.1c-0.7,0-1.3-0.1-1.9-0.3c-0.6-0.2-0.9-0.3-0.9-0.5s0.1-0.4,0.4-0.6
		c1.4-1.8,2.6-3.4,3.4-4.7l7.1-11.5H49.3z M58.3,25.4c5.8,1.8,8.6,3.9,8.6,6.2c0,0.9-0.4,1.7-1.1,2.5c-0.8,0.8-1.4,1.2-2,1.2
		c-0.3,0-0.5-0.1-0.6-0.3c-0.1-0.2-0.3-0.8-0.6-1.6c-0.6-2.3-2.1-4.7-4.8-7.2L58.3,25.4z"/>
	<path class="st1" d="M105.2,16h18.5l1-2c0.2-0.5,0.5-0.8,0.8-0.8c0.3,0,1.1,0.4,2.3,1.2s2.1,1.3,2.5,1.6c0.4,0.3,0.5,0.5,0.5,0.8
		s-0.7,0.9-2.1,1.7v30.8l0.1,4.5c0,0.4,0,0.7-0.1,0.8c-0.1,0.1-0.4,0.3-1.1,0.7c-0.6,0.3-1.3,0.6-2,0.9c-0.7,0.2-1.2,0.4-1.4,0.4
		c-0.2,0-0.3-0.2-0.3-0.6v-6.7h-19.6v5.5c0,0.4-0.1,0.7-0.4,0.9c-0.3,0.2-1,0.5-2.1,1c-1.1,0.5-1.7,0.7-1.9,0.7s-0.3-0.2-0.2-0.5
		c0.2-1.6,0.2-3.3,0.2-5V17.4c0-1.4,0-2.8-0.1-4.2C101.8,14,103.7,15,105.2,16z M123.9,31.6V17.5h-19.6v14.1H123.9z M123.9,47.4
		V33.1h-19.6v14.3H123.9z"/>
	<path class="st1" d="M147.9,24.7H144c-0.8,0-1.5,0.1-2.1,0.2l-0.9-2c0.7,0.2,1.5,0.2,2.5,0.2h4.4v-6.1c0-1.9,0-3.7-0.1-5.4
		c2.4,0.6,3.9,1,4.6,1.3c0.7,0.3,1,0.5,1,0.7c0,0.2-0.5,0.7-1.5,1.2v8.3h1.8l1.4-2.1c0.2-0.3,0.4-0.4,0.6-0.4c0.2,0,0.9,0.5,2,1.5
		c1.1,1,1.7,1.7,1.7,2c0,0.3-0.4,0.5-1.2,0.5h-6.2v7.5l4.8-2.3l0.5,0.8l-5.2,3.8v17.2c0,1.2-0.2,2.2-0.5,2.9c-0.4,0.7-1.1,1.4-2.1,2
		c-1,0.6-1.8,0.9-2.2,0.9c-0.3,0-0.5-0.2-0.7-0.8c-0.3-1-0.8-1.8-1.5-2.2c-0.7-0.5-2-1.1-4-1.7l0.2-0.8c1.9,0.3,3.3,0.5,4.2,0.5
		s1.5-0.2,1.9-0.5s0.6-1.1,0.6-2.1V37.5c-2.6,1.9-4.1,3.3-4.8,4.2c-0.2,0.3-0.4,0.4-0.5,0.4s-0.3-0.3-0.7-0.8c-0.3-0.5-1-1.8-2-3.6
		c5.2-2.3,7.8-3.5,7.9-3.5V24.7z M160.5,29.9c-2,3.6-3.8,6.3-5.4,8.2l-0.9-0.5c2.4-4.3,4.2-8.4,5.5-12.2c1.3-3.8,2.3-8.2,3-13.4
		c1.3,0.5,2.5,0.9,3.5,1.3c1,0.4,1.6,0.6,1.8,0.8c0.1,0.1,0.2,0.2,0.2,0.4c0,0.2-0.2,0.4-0.6,0.6c-0.4,0.2-0.6,0.4-0.8,0.6
		c-0.1,0.2-0.4,0.9-0.8,2c-0.4,1.1-1,2.5-1.7,4.2h14.1l1.8-2.8c0.3-0.4,0.6-0.7,0.8-0.7s0.7,0.2,1.3,0.7c0.6,0.5,1.3,1,1.9,1.6
		c0.7,0.6,1.1,1,1.4,1.3c0.3,0.3,0.4,0.6,0.4,0.8c0,0.4-0.3,0.5-0.9,0.5h-10.4v8h2.6l1.7-2.5c0.3-0.4,0.6-0.7,0.8-0.7
		s1.1,0.6,2.6,1.7c1.4,1.1,2.2,1.9,2.2,2.3c0,0.4-0.4,0.7-1.2,0.7h-8.7v7.5h3l1.7-2.6c0.2-0.4,0.5-0.6,0.7-0.6
		c0.4,0,1.3,0.6,2.8,1.8c1.4,1.2,2.2,2,2.2,2.4c0,0.4-0.3,0.6-1,0.6h-9.3v8.5h3.5l2.1-3.1c0.3-0.4,0.6-0.7,0.8-0.7
		c0.2,0,0.8,0.4,1.8,1.2s1.8,1.5,2.5,2.1c0.7,0.6,1,1.1,1,1.4s-0.3,0.5-0.9,0.5h-21v3.8c0,0.2-0.1,0.4-0.3,0.6
		c-0.2,0.2-0.8,0.4-1.8,0.8c-1,0.4-1.6,0.6-1.8,0.6c-0.2,0-0.3-0.1-0.3-0.5l0.2-4.6c0-1.4,0-2.8,0-4.2V29.9z M164.5,23.4v8h6.4v-8
		H164.5z M164.5,32.8v7.5h6.4v-7.5H164.5z M164.5,41.9v8.5h6.4v-8.5H164.5z M170.3,12.3c2,1.1,3.4,2.1,4.4,3c1,0.9,1.5,1.8,1.5,2.6
		c0,0.8-0.3,1.6-0.9,2.4c-0.6,0.8-1.2,1.1-1.8,1.1s-0.9-0.1-1-0.3c-0.1-0.2-0.2-0.6-0.2-1.1c-0.1-2.5-0.9-4.8-2.5-7L170.3,12.3z"/>
	<path class="st1" d="M233.5,23.4c0.4,0.4,0.6,0.8,0.5,1c-0.1,0.2-0.4,0.4-0.9,0.4h-12V28h5.8l0.8-1.3c0.2-0.3,0.3-0.4,0.5-0.4
		c0.2,0,0.5,0.1,1,0.3c0.5,0.2,1,0.4,1.6,0.8c0.6,0.3,1.1,0.6,1.7,0.9c0.3,0.2,0.5,0.5,0.4,0.8c-0.1,0.3-0.5,0.7-1.2,1.2v1.1
		c0,0.3,0,0.7,0,1.1c0,0.4,0,0.9,0.1,1.4c0,0.4-0.1,0.7-0.2,0.8c-0.4,0.2-0.9,0.3-1.6,0.5c-0.7,0.2-1.4,0.3-2.1,0.5
		c-0.3,0-0.5-0.2-0.5-0.8h-27.8c0,0.8,0,1.4,0,1.9c0.1,0.5,0,1,0,1.6c-0.2,2.3-0.4,4.2-0.8,5.7c-0.3,1.5-0.8,2.9-1.3,4.1
		s-1.4,2.5-2.4,3.8c-1,1.3-2.4,2.8-4.1,4.6l-0.7-0.6c1-1.7,1.9-3.2,2.6-4.4s1.2-2.4,1.6-3.7c0.4-1.2,0.7-2.6,0.9-4.1
		c0.2-1.5,0.3-3.4,0.4-5.7c0.1-2.2,0.2-4.6,0.2-7.3c0-2.7-0.1-5.8-0.2-9.4c0.9,0.3,1.7,0.6,2.5,1c0.8,0.3,1.5,0.7,2.1,1H214
		c-0.2-0.1-0.5-0.5-0.8-1.2c-0.1-0.3-0.4-0.8-0.8-1.5c-0.4-0.7-0.9-1.3-1.5-1.9l0.3-0.6c1.1,0.3,2,0.5,2.7,0.7
		c0.7,0.2,1.2,0.4,1.6,0.7c0.4,0.2,0.6,0.5,0.8,0.7c0.1,0.2,0.2,0.5,0.2,0.8c0,0.4-0.1,0.9-0.4,1.3s-0.6,0.8-1,1h12.5l1.3-2.5
		c0.3-0.6,0.8-0.6,1.4,0c0.2,0.2,0.5,0.4,0.8,0.7c0.3,0.3,0.7,0.5,1,0.8s0.6,0.5,0.8,0.7C233.2,23.2,233.4,23.3,233.5,23.4z
		 M236.4,16.9c0.8,0.7,0.7,1-0.2,1h-11.8c0,0.5,0,1,0,1.5c0,0.5,0,1,0.1,1.4c0,0.3,0,0.4,0,0.5c0,0.1-0.1,0.2-0.3,0.2
		c-0.4,0.2-0.9,0.4-1.3,0.5c-0.4,0.2-1.1,0.3-1.8,0.5c-0.2,0.1-0.4,0.1-0.5,0c-0.1-0.1-0.1-0.3-0.1-0.6v-4.1h-12.2v3.2
		c0,0.4-0.1,0.6-0.4,0.7c-0.6,0.3-1.1,0.5-1.5,0.5c-0.4,0.1-1,0.2-1.8,0.3c-0.2,0-0.3,0-0.3,0c-0.1-0.1-0.1-0.2,0-0.5
		c0.1-0.9,0.1-1.7,0.1-2.3s0-1.3,0-2h-9.6c-0.3,0-0.7,0-1.1,0.1c-0.4,0-0.7,0.1-1,0.2l-1-2c0.4,0.1,0.8,0.2,1.2,0.2
		c0.3,0,0.7,0,1.2,0l10.3,0v-2.5c0-0.7,0-1.2,0-1.8s-0.1-1.1-0.1-1.8c0.4,0.1,0.9,0.2,1.4,0.4c0.5,0.2,1,0.3,1.5,0.4
		c0.5,0.1,0.9,0.3,1.2,0.4c0.4,0.1,0.6,0.2,0.8,0.3c0.5,0.2,0.6,0.4,0.5,0.7c-0.1,0.2-0.6,0.5-1.4,0.9v2.9h12.2v-2.2
		c0-0.7,0-1.2,0-1.8c0-0.5-0.1-1.1-0.1-1.8c1.1,0.3,2.1,0.5,3,0.8c1,0.2,1.6,0.4,1.8,0.5c0.5,0.2,0.7,0.4,0.6,0.6
		c-0.1,0.2-0.5,0.6-1.4,1v2.8l5.3,0l1.7-2.7c0.2-0.3,0.4-0.4,0.7-0.3c0.3,0,0.6,0.2,0.8,0.3c0.8,0.6,1.5,1.1,2.1,1.7
		C235.5,16,236,16.5,236.4,16.9z M202.9,45.3c0.1,1.2,0.1,2.2,0.1,3c0,0.9,0,1.6-0.1,2.2c-0.1,0.6-0.3,1.2-0.5,1.7
		c-0.2,0.5-0.5,0.9-0.9,1.3c-0.5,0.5-1,0.7-1.7,0.8c-0.6,0.1-1.2,0-1.8-0.3c-0.4-0.2-0.6-0.4-0.7-0.8c-0.1-0.4,0.2-0.8,0.8-1.4
		c0.7-0.6,1.2-1.1,1.6-1.5s0.8-0.8,1-1.3s0.5-1,0.7-1.5c0.2-0.6,0.3-1.3,0.5-2.3L202.9,45.3z M207.5,29.4h-7.7
		c0,0.8-0.1,1.5-0.1,2.1c0,0.7,0,1.3-0.1,1.9h7.9V29.4z M207.5,24.8h-7.6c0,0.6,0,1.1,0,1.6s0,1,0,1.5h7.7V24.8z M207.4,45.1
		c-0.1,0.4-0.3,0.5-0.7,0.5c-0.5,0-0.9,0-1.4,0c-0.4,0-0.9-0.1-1.3-0.1c-0.4,0-0.7-0.1-0.8-0.2c-0.1-0.1-0.1-0.3,0-0.5
		c0.2-0.9,0.4-1.7,0.5-2.3c0.1-0.6,0.2-1,0.3-1.3l0.5-3.3c0.1-0.5,0.1-0.9,0.2-1.3c0-0.4,0.1-0.9,0.1-1.6c0.7,0.2,1.4,0.5,2.2,0.8
		c0.8,0.3,1.4,0.5,1.8,0.8c0.9,0.4,0.8,0.8-0.3,1.2l-0.2,0.9h14.9l0.9-2.1c0.1-0.3,0.3-0.4,0.5-0.4s0.5,0.1,0.9,0.3
		c0.3,0.2,0.7,0.4,1.1,0.7c0.4,0.2,0.7,0.5,1.1,0.7s0.7,0.4,1,0.6c0.3,0.2,0.5,0.3,0.6,0.4c0.4,0.4,0.6,0.7,0.5,0.9
		s-0.4,0.3-0.8,0.3h-20.8l-0.4,2.9h21.8l0.7-1.7c0.2-0.5,0.7-0.6,1.4-0.1c0.2,0.1,0.4,0.3,0.7,0.5s0.7,0.5,1,0.7s0.7,0.5,1,0.7
		c0.3,0.2,0.6,0.4,0.8,0.5c0.3,0.3,0.4,0.6,0.3,0.9c-0.2,0.3-0.7,0.6-1.7,0.9c0,0.7-0.1,1.5-0.2,2.4c-0.1,0.9-0.2,1.7-0.3,2.7
		c-0.1,0.8-0.3,1.5-0.5,2.2c-0.2,0.7-0.6,1.3-1.1,1.8c-0.5,0.5-1.1,1-1.9,1.5c-0.8,0.4-1.9,0.7-3.2,1c-0.4,0.1-0.7,0.1-0.9,0
		c-0.1,0-0.3-0.2-0.4-0.5c-0.2-0.6-0.4-1.1-0.6-1.5c-0.2-0.4-0.5-0.7-0.8-0.9c-0.3-0.2-0.8-0.5-1.5-0.7c-0.6-0.2-1.5-0.4-2.5-0.7
		l0.2-1c1.9,0.2,3.5,0.3,4.7,0.4c1.2,0,2.1,0,2.7-0.1c0.6-0.1,1.1-0.4,1.3-0.7c0.2-0.3,0.4-0.8,0.6-1.3c0.2-0.9,0.4-1.8,0.5-2.5
		c0.1-0.8,0.2-1.8,0.2-3h-22.4L207.4,45.1z M211.8,50.9c0.1,0.4,0.1,0.7,0,1.1c-0.1,0.4-0.3,0.7-0.6,1c-0.3,0.3-0.6,0.5-0.9,0.8
		c-0.3,0.2-0.7,0.3-1.1,0.3c-0.2,0-0.3,0-0.5,0c-0.2,0-0.3-0.1-0.5-0.3s-0.2-0.3-0.3-0.6c-0.1-0.2-0.1-0.6-0.1-1.1c0-0.5,0-1,0-1.4
		c0-0.4,0-0.8-0.1-1.2c-0.1-0.4-0.1-0.9-0.3-1.4s-0.3-1.1-0.5-1.8l0.6-0.4c1.5,1.2,2.5,2.1,3.1,2.9
		C211.2,49.6,211.6,50.3,211.8,50.9z M217.3,24.8h-6V28h6V24.8z M217.3,29.4h-6v4h6V29.4z M218.6,50.2c0,0.3-0.1,0.7-0.2,1.1
		c-0.1,0.4-0.3,0.7-0.5,1c-0.2,0.3-0.4,0.6-0.7,0.8c-0.3,0.2-0.6,0.3-0.9,0.3c-0.3,0-0.5-0.1-0.6-0.2c-0.1-0.1-0.2-0.4-0.2-0.8
		c-0.1-0.9-0.3-1.9-0.6-3s-0.8-2.2-1.5-3.3l0.6-0.5c1.8,1.1,3,2,3.6,2.7C218.3,49,218.6,49.6,218.6,50.2z M226.1,48.7
		c0,0.3-0.1,0.7-0.2,1s-0.2,0.7-0.4,1c-0.2,0.3-0.4,0.6-0.6,0.8c-0.2,0.2-0.5,0.3-0.8,0.3c-0.3,0-0.5-0.1-0.6-0.2
		c-0.2-0.1-0.3-0.4-0.4-0.9c-0.2-0.6-0.4-1.2-0.8-2c-0.3-0.8-1-1.7-1.8-2.7l0.7-0.8c1.1,0.4,2,0.7,2.6,1c0.6,0.3,1.1,0.6,1.4,0.9
		c0.3,0.3,0.6,0.6,0.7,0.8C226,48.1,226.1,48.4,226.1,48.7z M227.3,29.4h-6.1v4h6.1V29.4z"/>
</g>
<g class="st0">
	<path class="st1" d="M263.8,49.8c0,2.5-1,5-3.1,7.3c-2.1,2.4-4.6,4.2-7.5,5.4l-0.8-1.7c1-0.5,1.8-0.9,2.5-1.3
		c0.7-0.4,1.4-1,2.2-1.7c0.7-0.6,1.2-1.3,1.7-2.1c0.5-0.8,0.9-1.6,1.1-2.6h-1.4c-1.5,0-2.6-0.3-3.3-0.9c-0.7-0.6-1.1-1.4-1.1-2.5
		c0-1.3,0.5-2.4,1.5-3.4c1-1,2.2-1.5,3.5-1.5c1.6,0,2.8,0.5,3.5,1.4C263.4,47.1,263.8,48.3,263.8,49.8z"/>
</g>
</svg>
