<svg id="圖層_1" data-name="圖層 1" xmlns="http://www.w3.org/2000/svg" viewBox="0 0 13.59 13.59"><defs><style>.cls-1{fill:#f48145;}</style></defs><path id="star_favorite_1499_copy_14" data-name="star favorite 1499 copy 14" class="cls-1" d="M11.49,8.85A1.31,1.31,0,0,0,11.14,10l.44,2.66a1.28,1.28,0,0,1-1,1.48.65.65,0,0,1-.2,0A1.16,1.16,0,0,1,9.79,14L7.5,12.74a1.18,1.18,0,0,0-1.15,0L4.06,14a1.13,1.13,0,0,1-.57.15,1.27,1.27,0,0,1-1.24-1.3,1.62,1.62,0,0,1,0-.2L2.71,10a1.31,1.31,0,0,0-.35-1.13L.51,7a1.29,1.29,0,0,1,0-1.84,1.29,1.29,0,0,1,.66-.35l2.56-.39a1.22,1.22,0,0,0,.93-.7L5.82,1.27A1.21,1.21,0,0,1,8,1.27L9.18,3.69a1.2,1.2,0,0,0,.93.7l2.56.39a1.31,1.31,0,0,1,1,1.52,1.29,1.29,0,0,1-.35.66Z" transform="translate(-0.14 -0.55)"/></svg>