<svg xmlns="http://www.w3.org/2000/svg" width="150" height="150" viewBox="0 0 150 150">
  <g id="Group_6170" data-name="Group 6170" transform="translate(-890 -4079)">
    <g id="Ellipse_49" data-name="Ellipse 49" transform="translate(890 4079)" fill="none" stroke="#f6bd60" stroke-width="15">
      <circle cx="75" cy="75" r="75" stroke="none"/>
      <circle cx="75" cy="75" r="67.5" fill="none"/>
    </g>
    <path id="Path_917" data-name="Path 917" d="M284.063,424.887h0a2.333,2.333,0,0,0-2.347,2.319c0,.023,0,.047,0,.071a2.37,2.37,0,0,0,2.333,2.352,2.428,2.428,0,0,0,2.406-2.375A2.378,2.378,0,0,0,284.063,424.887Z" transform="translate(667.838 3732.703)" fill="#fff"/>
    <path id="Path_918" data-name="Path 918" d="M276.969,424.886h-.046a2.375,2.375,0,0,0-2.372,2.378v.01a2.427,2.427,0,0,0,2.354,2.356,2.393,2.393,0,0,0,2.394-2.374A2.35,2.35,0,0,0,276.969,424.886Z" transform="translate(667.838 3732.703)" fill="#fff"/>
    <path id="Path_919" data-name="Path 919" d="M310.243,412.951h.051a13.118,13.118,0,0,0,13.057-13.081h0a13.094,13.094,0,1,0-13.107,13.081Zm-5.881-17.23a4.718,4.718,0,0,1,4.062-4.093c.557-.051.686-.259.654-.758-.035-.543-.008-1.09-.008-1.67h2.355v2.34a4.816,4.816,0,0,1,3.862,2,4.58,4.58,0,0,1,.893,2.776c-.713,0-1.337.028-1.954-.019a.663.663,0,0,1-.444-.4,2.416,2.416,0,0,0-2.556-1.968c-.72-.008-1.441-.021-2.16.006a2.375,2.375,0,1,0,.022,4.75,21.782,21.782,0,0,1,3.509.194,4.636,4.636,0,0,1,3.577,4.91,4.775,4.775,0,0,1-4.164,4.376c-.164.02-.328.037-.564.064v2.33h-2.354v-2.261c-3.267-.785-4.808-2.364-4.711-4.807h2.12a8.052,8.052,0,0,0,.895,1.611c1,1.112,4.674,1.094,5.721.021a2.244,2.244,0,0,0,.55-2.458,2.192,2.192,0,0,0-2.047-1.557c-1.053-.06-2.113-.022-3.161-.118A4.717,4.717,0,0,1,304.362,395.721Z" transform="translate(667.838 3732.703)" fill="#fff"/>
    <path id="Path_920" data-name="Path 920" d="M297.162,361.3a60,60,0,1,0,60,60A60,60,0,0,0,297.162,361.3Zm31,33.922a5.759,5.759,0,0,1,5.75,4.636c.041.183.092.365.138.547V439.17h-2.387v-.982q0-18.279.009-36.559a3.732,3.732,0,0,0-2.018-3.743,9.973,9.973,0,0,0-1.492-.469Zm-28.506-6.591a15.446,15.446,0,0,1,6.584-3.664c.856-.219,1.728-.374,2.592-.558h2.882c1.319.333,2.676.559,3.95,1.017,10.682,3.841,13.513,18.055,5.146,25.723a15.448,15.448,0,1,1-21.154-22.518Zm-6.132,17.241V408.2h-21.7c-1.825,0-2.232.474-1.974,2.391h26.082v2.349h-26.1v2.419h33.221v2.334H269.824c-.014.3-.036.556-.036.807V432.69c0,1.324.387,1.707,1.727,1.707h37.03c1.325,0,1.717-.394,1.717-1.722V417.757h2.31c.018.227.045.413.045.6,0,4.875.011,9.75,0,14.625a3.5,3.5,0,0,1-2.657,3.644,5.173,5.173,0,0,1-1.283.123q-18.658.009-37.318,0a3.567,3.567,0,0,1-3.932-3.927q-.014-11.526,0-23.054a3.552,3.552,0,0,1,3.859-3.926q10.842-.015,21.685,0C293.137,405.842,293.3,405.858,293.526,405.869Zm-6.14,24.782a4.793,4.793,0,0,1-6.778-.137c-.038-.04-.076-.081-.113-.122a4.778,4.778,0,0,1-4.4,1.531,4.5,4.5,0,0,1-2.8-1.631,4.747,4.747,0,0,1,.191-6.3c1.806-1.946,4.286-1.923,7.006.054,3-2.051,5.462-1.984,7.239.2A4.741,4.741,0,0,1,287.386,430.651ZM260.271,400.4a6.541,6.541,0,0,1,2.194-3.923,6.052,6.052,0,0,1,3.926-1.367q12.82-.024,25.64-.006a3.189,3.189,0,0,1,.324.04v2.36H266.511a3.547,3.547,0,0,0-3.719,2.657,6.692,6.692,0,0,0-.129,1.572q-.01,18.222-.005,36.443v.985h-2.387Zm73.782,45.393a12.669,12.669,0,0,1-.6,1.833,5.938,5.938,0,0,1-5.777,3.415c-5.5-.013-11,0-16.5,0h-.857v4.788h4.712v2.361H276.987V455.8c1.422,0,2.764.013,4.1-.014.2,0,.578-.192.581-.3.039-1.454.026-2.909.026-4.445h-.939c-4.68,0-9.361-.01-14.041,0a6.405,6.405,0,0,1-4.335-1.431,6.608,6.608,0,0,1-2.108-3.825v-4.323c.286.014.573.041.86.041h72.062c.286,0,.573-.027.86-.041Z" transform="translate(667.838 3732.703)" fill="#fff"/>
    <rect id="Rectangle_134" data-name="Rectangle 134" width="23.72" height="4.665" transform="translate(951.939 4183.79)" fill="#fff"/>
    <path id="Path_921" data-name="Path 921" d="M331.538,443.94H262.617A13.944,13.944,0,0,0,262.8,446c.411,1.712,1.841,2.671,3.862,2.671h61.011a6.534,6.534,0,0,0,.791-.031,3.662,3.662,0,0,0,3.208-4.066A3.7,3.7,0,0,0,331.538,443.94Z" transform="translate(667.838 3732.703)" fill="#fff"/>
    <path id="Path_819" data-name="Path 819" d="M0,396c.286.014.573.041.86.041q36.031,0,72.062,0c.286,0,.573-.027.86-.041v4.323a12.717,12.717,0,0,1-.6,1.833,5.94,5.94,0,0,1-5.777,3.415c-5.5-.013-11,0-16.5,0h-.857v4.788h4.712v2.361H16.716v-2.387c1.422,0,2.764.013,4.1-.014.2,0,.578-.192.581-.3.039-1.454.026-2.909.026-4.445h-.939c-4.68,0-9.361-.01-14.041.005a6.408,6.408,0,0,1-4.335-1.431A6.606,6.606,0,0,1,0,400.323Zm2.346,2.468a13.9,13.9,0,0,0,.182,2.061c.411,1.712,1.841,2.671,3.862,2.671q30.506,0,61.011,0a6.7,6.7,0,0,0,.791-.031,3.662,3.662,0,0,0,3.075-4.7ZM23.83,410.28H47.55v-4.665H23.83Z" transform="translate(928.109 3777.174)" fill="#a59583"/>
    <path id="Path_820" data-name="Path 820" d="M256.346,0c1.319.333,2.676.559,3.95,1.017,10.682,3.841,13.513,18.055,5.146,25.723A15.448,15.448,0,1,1,250.872.558C251.728.339,252.6.184,253.464,0Zm11.634,15.464a13.094,13.094,0,1,0-13.056,13.081A13.119,13.119,0,0,0,267.981,15.464Z" transform="translate(723.208 4116.109)" fill="#a59583"/>
    <path id="Path_821" data-name="Path 821" d="M0,79.523A6.54,6.54,0,0,1,2.194,75.6,6.051,6.051,0,0,1,6.12,74.233q12.82-.024,25.64-.006a2.925,2.925,0,0,1,.324.04v2.36h-.852q-12.5,0-24.992,0a3.546,3.546,0,0,0-3.719,2.657,6.683,6.683,0,0,0-.129,1.572q-.01,18.221-.005,36.443v.985H0Z" transform="translate(928.109 4052.582)" fill="#a59583"/>
    <path id="Path_822" data-name="Path 822" d="M477.029,118.9h-2.387v-.982q0-18.28.009-36.559a3.732,3.732,0,0,0-2.018-3.743,10.013,10.013,0,0,0-1.492-.469V74.949a5.759,5.759,0,0,1,5.75,4.636c.041.183.092.365.138.547Z" transform="translate(524.862 4051.973)" fill="#a59583"/>
    <path id="Path_823" data-name="Path 823" d="M92.432,160.643h2.31c.018.227.045.413.045.6,0,4.875.011,9.75,0,14.625a3.5,3.5,0,0,1-2.657,3.644,5.191,5.191,0,0,1-1.283.123q-18.659.009-37.318,0a3.565,3.565,0,0,1-3.932-3.927q-.014-11.527,0-23.054c0-2.486,1.413-3.923,3.859-3.926q10.842-.016,21.685,0c.166,0,.333.016.555.027v2.329H54c-1.825,0-2.232.474-1.974,2.391H78.108v2.349h-26.1v2.419H85.229v2.334H51.994c-.014.3-.036.556-.036.807q0,7.1,0,14.192c0,1.324.387,1.707,1.727,1.707q18.515,0,37.03,0c1.325,0,1.717-.394,1.717-1.722q0-7.024,0-14.048Z" transform="translate(885.668 3988.817)" fill="#a59583"/>
    <path id="Path_824" data-name="Path 824" d="M91.02,266.17c3-2.051,5.462-1.984,7.239.2a4.742,4.742,0,0,1-.345,6.405,4.794,4.794,0,0,1-6.891-.259,4.779,4.779,0,0,1-4.4,1.531,4.5,4.5,0,0,1-2.8-1.631,4.747,4.747,0,0,1,.191-6.3C85.82,264.17,88.3,264.193,91.02,266.17Zm-3.569.84a2.375,2.375,0,0,0-2.372,2.388,2.427,2.427,0,0,0,2.354,2.356,2.394,2.394,0,0,0,2.394-2.374A2.35,2.35,0,0,0,87.45,267.01Zm7.138,0a2.333,2.333,0,0,0-2.347,2.39,2.37,2.37,0,0,0,2.333,2.352,2.43,2.43,0,0,0,2.406-2.375A2.378,2.378,0,0,0,94.588,267.011Z" transform="translate(857.31 3889.579)" fill="#a59583"/>
    <path id="Path_825" data-name="Path 825" d="M317.56,40.386c-.713,0-1.337.028-1.954-.019a.665.665,0,0,1-.444-.405,2.416,2.416,0,0,0-2.556-1.968c-.72-.008-1.441-.021-2.16.006a2.375,2.375,0,1,0,.022,4.75,21.727,21.727,0,0,1,3.509.194,4.636,4.636,0,0,1,3.577,4.91,4.775,4.775,0,0,1-4.164,4.376c-.164.02-.328.037-.564.064v2.33h-2.354V52.363c-3.267-.785-4.808-2.364-4.711-4.807h2.12a8.049,8.049,0,0,0,.895,1.611c1,1.112,4.674,1.094,5.721.021a2.244,2.244,0,0,0,.55-2.458A2.19,2.19,0,0,0,313,45.173c-1.053-.06-2.113-.022-3.161-.118a4.717,4.717,0,0,1-.035-9.357c.557-.051.686-.259.654-.758-.035-.543-.008-1.09-.008-1.67h2.355v2.34a4.815,4.815,0,0,1,3.862,2A4.582,4.582,0,0,1,317.56,40.386Z" transform="translate(666.458 4087.634)" fill="#a59583"/>
  </g>
</svg>
