<svg xmlns="http://www.w3.org/2000/svg" width="150" height="150" viewBox="0 0 150 150">
  <g id="Group_6168" data-name="Group 6168" transform="translate(-390 -4079)">
    <g id="Ellipse_49" data-name="Ellipse 49" transform="translate(390 4079)" fill="none" stroke="#f6bd60" stroke-width="15">
      <circle cx="75" cy="75" r="75" stroke="none"/>
      <circle cx="75" cy="75" r="67.5" fill="none"/>
    </g>
    <circle id="Ellipse_459" data-name="Ellipse 459" cx="60" cy="60" r="60" transform="translate(405 4094)" fill="#fff"/>
    <path id="_001-shopping-cart" data-name="001-shopping-cart" d="M17.461,69.107a1.986,1.986,0,0,1,0-3.972c7.335.026,26.683.007,34.251.012a4.4,4.4,0,0,0,4.3-3.425l4.3-18.61a3.577,3.577,0,0,0-3.471-4.381c-3.045,0-28.89-.117-42.127-.17l-2.1-7.786a4.286,4.286,0,0,0-4.129-3.16H1.771a1.771,1.771,0,0,0,0,3.542H8.493a.737.737,0,0,1,.71.542l8.059,29.9a5.526,5.526,0,0,0,.2,11.049h2.582a6.2,6.2,0,1,0,11.2,0H42.424a6.2,6.2,0,1,0,11.152-.094,1.77,1.77,0,0,0-.564-3.448ZM28.3,75.3a2.656,2.656,0,1,1-2.659-2.656h0A2.66,2.66,0,0,1,28.3,75.3ZM48.025,77.96a2.656,2.656,0,1,1-.043-5.312h.083a2.656,2.656,0,1,1-.043,5.312Zm8.836-35.68a.028.028,0,0,1,.007.03l-1.811,7.842H48.925l1.044-7.912,6.869.027a.028.028,0,0,1,.023.013ZM38.6,61.6V53.694h6.28L43.841,61.6Zm-8.781,0-1.052-7.908h6.289V61.6Zm-8.152,0h-.006a.959.959,0,0,1-.924-.706L18.8,53.7h6.4L26.249,61.6ZM28.3,50.152l-1.068-8,7.828.031v7.973Zm10.3,0V42.194l7.794.031L45.35,50.152ZM23.661,42.134l1.067,8.018H17.846l-2.17-8.05ZM51.714,61.6h-4.3l1.044-7.908h5.781L52.567,60.92a.875.875,0,0,1-.853.681Z" transform="translate(430.175 4107.385)" fill="#a59583"/>
    <g id="Group_6166" data-name="Group 6166" transform="translate(1522 -387)">
      <g id="Group_458" data-name="Group 458" transform="translate(-1255.158 4573.146)">
        <path id="Path_818" data-name="Path 818" d="M356.942,366.847c0-1.612,0-3.107,0-4.6a4.206,4.206,0,0,1,.069-.859,1.322,1.322,0,0,1,1.336-1.1,1.289,1.289,0,0,1,1.254,1.274c.039,1.417.021,2.836.026,4.254,0,.309,0,.619,0,1.03,1.462,0,2.845,0,4.227,0,.367,0,.737-.014,1.1.022a1.279,1.279,0,0,1,1.222,1.225,1.236,1.236,0,0,1-1.056,1.354,16.158,16.158,0,0,1-2.118.082c-1.1.011-2.192,0-3.377,0,0,1.443,0,2.8,0,4.16,0,.5.018,1-.031,1.5a1.2,1.2,0,0,1-1.174,1.163,1.221,1.221,0,0,1-1.389-1,4.555,4.555,0,0,1-.089-1.014c-.009-1.57,0-3.14,0-4.808-1.608,0-3.149,0-4.69,0a5.658,5.658,0,0,1-1.019-.053,1.278,1.278,0,0,1-1.119-1.387,1.26,1.26,0,0,1,1.292-1.226c1.522-.035,3.046-.016,4.57-.019Z" transform="translate(-157.954 -426.433)" fill="#a59583"/>
      </g>
      <g id="Ellipse_460" data-name="Ellipse 460" transform="translate(-1069 4501)" fill="none" stroke="#a59583" stroke-width="3">
        <circle cx="14" cy="14" r="14" stroke="none"/>
        <circle cx="14" cy="14" r="12.5" fill="none"/>
      </g>
    </g>
  </g>
</svg>
