<svg xmlns="http://www.w3.org/2000/svg" width="150" height="150" viewBox="0 0 150 150">
  <g id="Group_6169" data-name="Group 6169" transform="translate(-640 -4079)">
    <path id="Path_911" data-name="Path 911" d="M314.621,397.51c-.172-.107-.459-.034-.7-.034h-22.9c-.973,0-1.352.213-1.35.75s.378.744,1.354.745H314c.212,0,.477.07.624-.029.276-.186.668-.474.667-.718S314.9,397.684,314.621,397.51Z" transform="translate(417.838 3732.703)" fill="#fff"/>
    <path id="Path_912" data-name="Path 912" d="M285.748,424.612a2.207,2.207,0,0,0-1.315.758,4.643,4.643,0,0,0-.5,1.479l0,0c.082.518.11.848.19,1.166a1.624,1.624,0,0,0,1.571,1.364,1.586,1.586,0,0,0,1.557-1.286,3.541,3.541,0,0,0-.182-2.611A1.3,1.3,0,0,0,285.748,424.612Z" transform="translate(417.838 3732.703)" fill="#fff"/>
    <path id="Path_913" data-name="Path 913" d="M263.216,404.954c-.011.193-.025.333-.025.473q0,18.754.008,37.509a6.677,6.677,0,0,0,.226,1.746,6.13,6.13,0,0,0,6.212,4.677c2.713.026,5.425.006,8.138.006H324.34a6.9,6.9,0,0,0,3.231-.616,6.261,6.261,0,0,0,3.567-6.027V404.954H263.216Zm57.118,31.471a2.445,2.445,0,0,1-.651,0q-11.322.015-22.644.01H274.608c-2.067,0-2.941-.863-2.941-2.907V420.3a2.46,2.46,0,0,1,2.771-2.8h45.216a2.5,2.5,0,0,1,2.821,2.838q.006,6.652,0,13.3A2.487,2.487,0,0,1,320.334,436.425Z" transform="translate(417.838 3732.703)" fill="#fff"/>
    <path id="Path_914" data-name="Path 914" d="M319.385,419.758q-22.317.024-44.633.014c-.251,0-.5.022-.784.035v14.366h.78q22.317,0,44.633.012c.625,0,.852-.128.847-.81q-.048-6.4,0-12.8C320.227,419.9,320.019,419.757,319.385,419.758Zm-6.162,2.831a2.162,2.162,0,0,1,2.221,2.1c0,.044,0,.087,0,.131a2.162,2.162,0,1,1-2.221-2.232Zm-31.254,7.929h-4.341v-7.056h1.547v5.756h2.795Zm1.906-.315a3.972,3.972,0,0,1-1.156-5.093A3.434,3.434,0,0,1,287.2,423.6a3.263,3.263,0,0,1,1.927,3.127C289.073,429.944,286.29,431.642,283.875,430.2Zm12.293-.307a.53.53,0,0,1-.27.408,5.928,5.928,0,0,1-4.017-.014c-1.452-.59-2.122-1.92-1.941-3.775a3.457,3.457,0,0,1,2.9-3.049,5.561,5.561,0,0,1,3.094.229l-.3,1.187c-.62-.067-1.194-.17-1.77-.181a1.983,1.983,0,0,0-2.051,1.216,2.49,2.49,0,0,0,.354,2.725,2.3,2.3,0,0,0,2.423.591v-1.458l-1.034-.1v-1.157h2.624C296.18,427.685,296.19,428.791,296.168,429.9Zm2.858.6h-1.518v-7.084h.967c.163,0,.326.013.551.023Zm7.325.062a8.735,8.735,0,0,1-1.353-.021.921.921,0,0,1-.536-.455c-.75-1.361-1.471-2.738-2.2-4.109-.061-.115-.126-.229-.287-.522v5.069h-1.437v-7.1a15.528,15.528,0,0,1,1.6.02.813.813,0,0,1,.485.416c.736,1.341,1.448,2.7,2.167,4.046.053.1.111.194.2.349v-4.789h1.364Zm10.6.733h-7.3a3.651,3.651,0,0,1,7.3-.171Q316.949,431.2,316.947,431.29Z" transform="translate(417.838 3732.703)" fill="#fff"/>
    <path id="Path_915" data-name="Path 915" d="M330.47,397.344a6.213,6.213,0,0,0-6.1-3.541q-27.21.022-54.419.009a10.416,10.416,0,0,0-1.131.043,6.12,6.12,0,0,0-4.758,3.037c-1.079,1.761-.863,3.712-.861,5.691h67.91a26.422,26.422,0,0,0-.024-2.87A7.239,7.239,0,0,0,330.47,397.344Zm-61.2,2.755c-.039,0-.078,0-.117,0a1.885,1.885,0,1,1,.117,0Zm5.383,0h-.038a1.857,1.857,0,1,1,.038,0Zm7.239-1.855a1.859,1.859,0,0,1-1.864,1.854h-.036a1.88,1.88,0,1,1,1.9-1.859Zm35.705.236a2.9,2.9,0,0,1-2.835,2.725c-4.078.036-8.156.012-12.234.012v.013q-5.94,0-11.881,0a3.006,3.006,0,0,1-.534-5.988c.328-.031.659-.035.988-.035h22.843a6,6,0,0,1,1.471.126A2.948,2.948,0,0,1,317.6,398.481Zm7.21,2.643-.839-.74,1.394-1.642h-3.622v-1.131h3.55l-1.323-1.552.843-.735,2.528,2.9Z" transform="translate(417.838 3732.703)" fill="#fff"/>
    <path id="Path_916" data-name="Path 916" d="M297.162,361.3a60,60,0,1,0,60,60A60,60,0,0,0,297.162,361.3ZM333.4,444.24a18.612,18.612,0,0,1-1.109,3.017,8.4,8.4,0,0,1-7.844,4.383q-27.283-.024-54.567-.008c-.259,0-.519-.006-.778-.015a8.5,8.5,0,0,1-7.852-6.171c-.112-.406-.215-.806-.323-1.206v-45.3a18.647,18.647,0,0,1,1.109-3.017,8.4,8.4,0,0,1,7.844-4.383q27.285.024,54.567.008c.259,0,.519.006.778.015a8.5,8.5,0,0,1,7.852,6.168c.113.4.216.806.323,1.209Z" transform="translate(417.838 3732.703)" fill="#fff"/>
    <g id="Ellipse_49" data-name="Ellipse 49" transform="translate(640 4079)" fill="none" stroke="#f6bd60" stroke-width="15">
      <circle cx="75" cy="75" r="75" stroke="none"/>
      <circle cx="75" cy="75" r="67.5" fill="none"/>
    </g>
    <path id="Path_826" data-name="Path 826" d="M0,96.4V51.1a18.648,18.648,0,0,1,1.109-3.017A8.4,8.4,0,0,1,8.953,43.7q27.284.024,54.567.008c.259,0,.519.006.778.015a8.5,8.5,0,0,1,7.852,6.168c.113.4.216.806.323,1.209V96.4a18.642,18.642,0,0,1-1.109,3.017A8.4,8.4,0,0,1,63.52,103.8q-27.284-.024-54.567-.008c-.259,0-.519-.006-.778-.015A8.5,8.5,0,0,1,.323,97.606C.211,97.2.108,96.8,0,96.4ZM70.209,57.114H2.291c-.011.193-.025.333-.025.473q0,18.754.008,37.509A6.671,6.671,0,0,0,2.5,96.842a6.131,6.131,0,0,0,6.212,4.677c2.713.026,5.425.006,8.138.006q23.283,0,46.565,0a6.907,6.907,0,0,0,3.231-.616,6.262,6.262,0,0,0,3.567-6.027V57.114ZM2.276,54.743h67.91a26.341,26.341,0,0,0-.024-2.87,7.24,7.24,0,0,0-.617-2.369,6.211,6.211,0,0,0-6.1-3.541q-27.21.022-54.419.009a10.345,10.345,0,0,0-1.131.043,6.118,6.118,0,0,0-4.758,3.037C2.058,50.813,2.274,52.764,2.276,54.743Z" transform="translate(678.763 4080.543)" fill="#a59583"/>
    <path id="Path_827" data-name="Path 827" d="M101.251,246.035H78.82c-2.067,0-2.941-.863-2.941-2.907q0-6.616,0-13.233a2.459,2.459,0,0,1,2.771-2.8q22.608,0,45.216,0a2.5,2.5,0,0,1,2.821,2.838q.006,6.652,0,13.3a2.488,2.488,0,0,1-2.792,2.792Q112.573,246.039,101.251,246.035Zm-23.072-2.262h.78q22.317,0,44.633.012c.625,0,.852-.128.847-.81q-.049-6.4,0-12.8c0-.673-.208-.818-.842-.817q-22.317.024-44.633.014c-.251,0-.5.022-.784.035Z" transform="translate(613.626 3923.104)" fill="#a59583"/>
    <path id="Path_828" data-name="Path 828" d="M202.188,75.616c-3.96,0-7.921.006-11.881,0a3.006,3.006,0,0,1-.534-5.988c.328-.031.659-.035.988-.035q11.422,0,22.843,0a5.982,5.982,0,0,1,1.471.126,2.948,2.948,0,0,1,2.181,3.147,2.9,2.9,0,0,1-2.835,2.725c-4.078.036-8.156.012-12.234.012Zm.012-3.756H190.677c-.973,0-1.352.213-1.35.75s.378.744,1.354.745h22.977c.212,0,.477.07.624-.029.276-.186.668-.474.667-.718s-.391-.539-.672-.713c-.172-.107-.459-.034-.695-.034Z" transform="translate(518.182 4058.318)" fill="#a59583"/>
    <path id="Path_829" data-name="Path 829" d="M431.877,71.179l.843-.735,2.528,2.9-2.531,2.9-.839-.74,1.394-1.642h-3.622V72.731H433.2Z" transform="translate(309.931 4057.583)" fill="#a59583"/>
    <path id="Path_830" data-name="Path 830" d="M87,79.468a1.865,1.865,0,0,1-1.876,1.892A1.881,1.881,0,1,1,87,79.468Z" transform="translate(607.332 4051.443)" fill="#a59583"/>
    <path id="Path_831" data-name="Path 831" d="M46.878,81.357a1.881,1.881,0,0,1,.037-3.762,1.882,1.882,0,1,1-.037,3.762Z" transform="translate(640.116 4051.444)" fill="#a59583"/>
    <path id="Path_832" data-name="Path 832" d="M123.445,81.372a1.88,1.88,0,1,1,1.9-1.853A1.859,1.859,0,0,1,123.445,81.372Z" transform="translate(574.389 4051.43)" fill="#a59583"/>
    <path id="Path_833" data-name="Path 833" d="M285.66,276.005a8.7,8.7,0,0,1-1.353-.021.923.923,0,0,1-.536-.455c-.75-1.361-1.471-2.738-2.2-4.109-.061-.115-.126-.229-.287-.522v5.069h-1.437v-7.1a15.362,15.362,0,0,1,1.6.02.816.816,0,0,1,.485.416c.736,1.341,1.448,2.7,2.167,4.046.053.1.111.194.2.349v-4.789h1.364Z" transform="translate(438.529 3887.256)" fill="#a59583"/>
    <path id="Path_834" data-name="Path 834" d="M157.6,271.4c-.056,3.222-2.839,4.92-5.254,3.481a3.971,3.971,0,0,1-1.156-5.093,3.433,3.433,0,0,1,4.483-1.515A3.262,3.262,0,0,1,157.6,271.4Zm-5.191.123c.082.518.11.848.19,1.166a1.624,1.624,0,0,0,1.571,1.364,1.586,1.586,0,0,0,1.557-1.286,3.541,3.541,0,0,0-.182-2.611,1.3,1.3,0,0,0-1.326-.866,2.2,2.2,0,0,0-1.315.758A4.625,4.625,0,0,0,152.405,271.527Z" transform="translate(549.367 3888.025)" fill="#a59583"/>
    <path id="Path_835" data-name="Path 835" d="M211.046,271.582c0,1.167.01,2.273-.012,3.378a.53.53,0,0,1-.27.408,5.933,5.933,0,0,1-4.017-.014c-1.452-.59-2.122-1.92-1.941-3.775a3.456,3.456,0,0,1,2.9-3.049,5.555,5.555,0,0,1,3.094.229l-.3,1.187c-.62-.067-1.194-.17-1.77-.181a1.981,1.981,0,0,0-2.051,1.216,2.49,2.49,0,0,0,.354,2.725,2.3,2.3,0,0,0,2.423.591v-1.458l-1.034-.1v-1.157Z" transform="translate(502.972 3887.639)" fill="#a59583"/>
    <path id="Path_836" data-name="Path 836" d="M344.167,302.1a3.651,3.651,0,1,1,7.3,0Z" transform="translate(383.319 3861.894)" fill="#a59583"/>
    <path id="Path_837" data-name="Path 837" d="M358.947,265.435a2.161,2.161,0,0,1-4.322-.01,2.162,2.162,0,1,1,4.322.01Z" transform="translate(374.336 3892.089)" fill="#a59583"/>
    <path id="Path_838" data-name="Path 838" d="M119.538,274.965h2.795v1.3h-4.341v-7.056h1.547Z" transform="translate(577.474 3886.956)" fill="#a59583"/>
    <path id="Path_839" data-name="Path 839" d="M258.443,268.869c.357,0,.662,0,.967,0,.163,0,.326.013.551.023v7.061h-1.518Z" transform="translate(456.903 3887.246)" fill="#a59583"/>
  </g>
</svg>
