<svg xmlns="http://www.w3.org/2000/svg" width="69.314" height="71.625" viewBox="0 0 69.314 71.625">
  <g id="Group_455" data-name="Group 455" transform="translate(-16 -8)">
    <g id="Group_6162" data-name="Group 6162">
      <path id="Path_840" data-name="Path 840" d="M69.574,79.625H16V44.679q1.736-5.864,3.473-11.729c.632-2.136,1.263-4.272,1.846-6.246A11.583,11.583,0,0,1,19.4,25.2a5.168,5.168,0,0,1-.991-4.359c.445-2.547,1.713-3.6,4.28-3.6,4.017,0,8.035.008,12.052-.013a2.552,2.552,0,0,0,1.151-.3q5.2-2.8,10.38-5.655a7.6,7.6,0,0,1,3.786-.976q11.4.026,22.8.008h.833c.226-1.811.226-1.811.792-2.31h10.83V24.607a1.706,1.706,0,0,1-1.386.733c-2.936-.025-5.871-.006-8.807-.014-.937,0-1.346-.431-1.358-1.382-.008-.686,0-1.373,0-2.055h-2.28a6.422,6.422,0,0,1-6.205,5.8c.066.243.12.452.181.658,1.49,5.07,2.995,10.136,4.456,15.215a9.161,9.161,0,0,1,.367,2.479c.024,10.636.01,21.272.029,31.909A1.823,1.823,0,0,1,69.574,79.625Zm-8.447-50.81c-.367.274-.559.413-.746.558-1.635,1.266-3.24,2.575-4.912,3.791a5.069,5.069,0,0,1-7.915-2.775,5.318,5.318,0,0,1,.5-3.906h-.793q-11.332,0-22.665-.012c-.588,0-.864.13-1.042.745-1.635,5.652-3.319,11.291-4.967,16.94a6.446,6.446,0,0,0-.269,1.767q-.024,15.3-.012,30.6v.751H56.433V76.4q0-15.266.013-30.532a8.41,8.41,0,0,1,.307-2.2c.608-2.2,1.284-4.379,1.931-6.567C59.479,34.411,60.271,31.719,61.127,28.815ZM73.71,19.553v-6.91c-.169-.009-.287-.021-.4-.021-7.869,0-15.739-.015-23.608.025a4.891,4.891,0,0,0-2.12.58c-2.264,1.167-4.484,2.419-6.719,3.642-.152.083-.289.193-.553.373h8.529c2.84,0,5.679,0,8.519,0a1.227,1.227,0,0,1,1.289.722,1.2,1.2,0,0,1-.4,1.421c-.121.118-.239.238-.358.357q-3.624,3.625-7.251,7.247a2.774,2.774,0,0,0,3.538,4.271,62.631,62.631,0,0,0,5-3.916,7.325,7.325,0,0,1,5.868-2.053,3.792,3.792,0,0,0,4.1-3.822,1.856,1.856,0,0,1,1.994-1.909C71.974,19.543,72.815,19.553,73.71,19.553ZM58.744,75.726c1.022-1.039,1.862-1.953,2.77-2.793a2.071,2.071,0,0,0,.712-1.686c-.025-7.869-.016-15.738-.015-23.608,0-.976.413-1.511,1.154-1.511s1.15.536,1.156,1.511c0,.169,0,.337,0,.505q0,11.7.006,23.391a1.3,1.3,0,0,0,.158.807c1.03,1.093,2.1,2.144,3.3,3.345v-.82q0-14.439-.011-28.878a6.231,6.231,0,0,0-.255-1.7Q65.7,37.3,63.632,30.321c-.062-.211-.152-.413-.285-.766-.124.372-.2.57-.257.773-1.359,4.608-2.725,9.214-4.063,13.829A6.737,6.737,0,0,0,58.756,46q-.025,14.4-.012,28.806ZM54.775,19.587c-.279-.019-.391-.034-.5-.034q-16.088,0-32.176-.009a1.1,1.1,0,0,0-1.084.674A3.569,3.569,0,0,0,21,23.482a1.14,1.14,0,0,0,1.142.7q13.779-.02,27.559-.019a1.09,1.09,0,0,0,.7-.239C51.831,22.534,53.238,21.119,54.775,19.587ZM76.1,22.965h6.843V10.351H76.1ZM66.132,77.3l-2.723-2.721-2.768,2.74c1.666,0,3.39,0,5.115,0C65.892,77.313,66.027,77.3,66.132,77.3Z" fill="#a59583"/>
      <path id="Path_841" data-name="Path 841" d="M81.776,260.6h2.311c0-1.109,0-2.2,0-3.3a1.164,1.164,0,0,1,.936-1.275,1.141,1.141,0,0,1,1.368,1.191c.024,1.1.006,2.205.006,3.354h2.312c0-1.045,0-2.072,0-3.1,0-.933.4-1.449,1.121-1.47.74-.022,1.18.525,1.188,1.477,0,.024,0,.048,0,.072a12.482,12.482,0,0,1-1.942,8.434,2.609,2.609,0,0,0-.267,1.5c.271,4.175.6,8.346.874,12.521a3.454,3.454,0,0,1-3.463,3.715q-.974.02-1.948,0a3.451,3.451,0,0,1-3.474-3.7c.277-4.223.61-8.442.891-12.664a5.45,5.45,0,0,0-.223-1.305.371.371,0,0,0-.066-.128,12.513,12.513,0,0,1-1.946-8.5c.086-.892.465-1.429,1.186-1.416s1.13.539,1.134,1.458C81.779,258.483,81.776,259.512,81.776,260.6ZM84,267.571c-.091,1.3-.176,2.541-.266,3.783-.209,2.879-.428,5.757-.629,8.636a1.2,1.2,0,0,0,1.321,1.414c.481.011.962,0,1.444,0,1.164-.007,1.573-.488,1.483-1.671-.189-2.47-.356-4.942-.535-7.413-.114-1.577-.233-3.153-.351-4.751Zm3.955-4.591H82.576c.863,2.253.863,2.253,3.137,2.253a3.172,3.172,0,0,0,.718-.013.912.912,0,0,0,.551-.318C87.328,264.3,87.615,263.672,87.96,262.98Z" transform="translate(-54.223 -212.179)" fill="#a59583"/>
      <path id="Path_842" data-name="Path 842" d="M177.249,265.208a85.678,85.678,0,0,0,.827,13.959,5.062,5.062,0,0,1-.491,3.064c-1.093,2.077-6.616,2.153-7.6-.074a5.049,5.049,0,0,1-.516-2.26c.19-2.78.494-5.554.811-8.324.08-.7-.034-1.148-.74-1.376a6.013,6.013,0,0,1-.841-.41,1.154,1.154,0,0,1-.684-1.237,21.922,21.922,0,0,1,2.662-9.052,6.5,6.5,0,0,1,4.51-3.4c1.3-.23,2.129.065,2.077,1.689C177.2,259.947,177.249,262.113,177.249,265.208Zm-2.365,4.645V258.573a5.062,5.062,0,0,0-2.4,2.388,19.97,19.97,0,0,0-2.02,6.571.635.635,0,0,0,.42.779c.727.366,1.636.546,1.79,1.541Zm-2.37,2.368c-.259,2.619-.526,5.169-.755,7.723-.1,1.063.34,1.484,1.421,1.493.432,0,.864.007,1.3,0,.978-.016,1.409-.454,1.337-1.437-.089-1.22-.219-2.437-.341-3.654-.138-1.374-.289-2.747-.434-4.125Z" transform="translate(-130.058 -212.21)" fill="#a59583"/>
    </g>
  </g>
</svg>
