<svg xmlns="http://www.w3.org/2000/svg" width="1890" height="10" viewBox="0 0 1890 10">
  <g id="Group_206" data-name="Group 206" transform="translate(-11.5 -269.5)">
    <path id="Path_799" data-name="Path 799" d="M11.5,270.5c9.74,0,9.74,8,19.48,8s9.741-8,19.482-8,9.741,8,19.483,8,9.742-8,19.483-8,9.74,8,19.481,8,9.74-8,19.48-8,9.74,8,19.481,8,9.741-8,19.482-8,9.742,8,19.485,8,9.741-8,19.482-8,9.74,8,19.481,8,9.74-8,19.48-8,9.741,8,19.482,8,9.743-8,19.485-8,9.741,8,19.483,8,9.74-8,19.481-8,9.741,8,19.481,8,9.741-8,19.483-8,9.742,8,19.485,8,9.741-8,19.482-8,9.741,8,19.481,8,9.742-8,19.483-8,9.742,8,19.484,8,9.742-8,19.483-8,9.741,8,19.482,8,9.741-8,19.482-8,9.743,8,19.485,8,9.742-8,19.483-8,9.741,8,19.482,8,9.742-8,19.483-8,9.743,8,19.486,8,9.741-8,19.482-8,9.742,8,19.483,8,9.742-8,19.485-8,9.741,8,19.483,8,9.742-8,19.483-8,9.742,8,19.484,8,9.742-8,19.484-8,9.742,8,19.483,8,9.742-8,19.485-8,9.742,8,19.484,8,9.741-8,19.483-8,9.743,8,19.486,8,9.741-8,19.483-8,9.742,8,19.484,8,9.743-8,19.485-8,9.742,8,19.484,8,9.743-8,19.486-8,9.741,8,19.483,8,9.743-8,19.486-8,9.742,8,19.484,8,9.743-8,19.486-8,9.742,8,19.484,8,9.743-8,19.486-8,9.742,8,19.484,8,9.743-8,19.486-8,9.741,8,19.482,8,9.741-8,19.483-8,9.739,8,19.479,8,9.741-8,19.482-8,9.742,8,19.484,8,9.74-8,19.481-8,9.742,8,19.484,8,9.741-8,19.482-8,9.741,8,19.482,8,9.743-8,19.486-8,9.741,8,19.482,8,9.744-8,19.487-8,9.741,8,19.483,8,9.743-8,19.487-8,9.742,8,19.483,8,9.743-8,19.486-8,9.742,8,19.485,8,9.742-8,19.485-8,9.743,8,19.486,8,9.744-8,19.488-8,9.743,8,19.486,8,9.743-8,19.486-8,9.743,8,19.486,8,9.743-8,19.486-8,9.744,8,19.487,8,9.745-8,19.489-8,9.744,8,19.488,8,9.744-8,19.488-8,9.744,8,19.488,8,9.742-8,19.484-8,9.743,8,19.486,8,9.745-8,19.49-8,9.743,8,19.486,8,9.744-8,19.488-8,9.744,8,19.489,8,9.745-8,19.491-8,9.745,8,19.491,8,9.745-8,19.491-8,9.746,8,19.492,8,9.747-8,19.494-8,9.748,8,19.495,8" fill="none" stroke="#decdbb" stroke-miterlimit="10" stroke-width="2"/>
  </g>
</svg>
