<svg xmlns="http://www.w3.org/2000/svg" width="51" height="51" viewBox="0 0 51 51">
  <g id="Group_260" data-name="Group 260" transform="translate(-2912 -4106)">
    <circle id="Ellipse_40" data-name="Ellipse 40" cx="25.5" cy="25.5" r="25.5" transform="translate(2912 4106)" fill="#f48145"/>
    <path id="Path_244" data-name="Path 244" d="M664.333,126.53c4.174,0,4.674,0,6.324.092a8.5,8.5,0,0,1,2.906.539,5.2,5.2,0,0,1,2.965,2.965,8.5,8.5,0,0,1,.539,2.906c.079,1.65.092,2.15.092,6.324s0,4.674-.092,6.324a8.5,8.5,0,0,1-.539,2.906,5.2,5.2,0,0,1-2.965,2.965,8.5,8.5,0,0,1-2.906.539c-1.65.079-2.143.092-6.324.092s-4.674,0-6.324-.092a8.5,8.5,0,0,1-2.906-.539,5.2,5.2,0,0,1-2.965-2.965,8.5,8.5,0,0,1-.539-2.906c-.079-1.65-.092-2.15-.092-6.324s0-4.674.092-6.324a8.5,8.5,0,0,1,.539-2.906,5.2,5.2,0,0,1,2.965-2.965,8.5,8.5,0,0,1,2.906-.539c1.65-.079,2.15-.092,6.324-.092m0-2.82c-4.247,0-4.779,0-6.449.092a11.5,11.5,0,0,0-3.8.73,7.952,7.952,0,0,0-4.6,4.6,11.5,11.5,0,0,0-.73,3.8c-.072,1.67-.092,2.2-.092,6.449s0,4.779.092,6.449a11.5,11.5,0,0,0,.73,3.8,7.952,7.952,0,0,0,4.6,4.6,11.5,11.5,0,0,0,3.8.73c1.67.072,2.2.092,6.449.092s4.779,0,6.449-.092a11.5,11.5,0,0,0,3.8-.73,7.952,7.952,0,0,0,4.6-4.6,11.5,11.5,0,0,0,.73-3.8c.072-1.67.092-2.2.092-6.449s0-4.779-.092-6.449a11.5,11.5,0,0,0-.73-3.8,7.952,7.952,0,0,0-4.6-4.6,11.5,11.5,0,0,0-3.8-.73C669.112,123.73,668.58,123.71,664.333,123.71Z" transform="translate(2272.985 3992.378)" fill="#fff"/>
    <path id="Path_245" data-name="Path 245" d="M668.313,135.28a8.034,8.034,0,1,0,8.034,8.034h0A8.033,8.033,0,0,0,668.313,135.28Zm0,13.247a5.213,5.213,0,1,1,5.213-5.213h0A5.213,5.213,0,0,1,668.313,148.527Z" transform="translate(2269.004 3988.415)" fill="#fff"/>
    <circle id="Ellipse_13" data-name="Ellipse 13" cx="1.88" cy="1.88" r="1.88" transform="translate(2943.787 4121.499)" fill="#fff"/>
  </g>
</svg>
