<svg xmlns="http://www.w3.org/2000/svg" width="93.659" height="107.33" viewBox="0 0 93.659 107.33">
  <g id="Group_8" data-name="Group 8" transform="matrix(0.875, -0.485, 0.485, 0.875, -11.281, 29.374)">
    <g id="Group_5" data-name="Group 5" transform="translate(12.422 0)">
      <path id="Path_10" data-name="Path 10" d="M9.232,38.038C8.44,33.359,7.639,28.682,6.865,24a1.509,1.509,0,0,0-.824-1.193A11.242,11.242,0,0,1,1.3,16.648a17.092,17.092,0,0,1-.52-11.57A10.134,10.134,0,0,1,2.367,2.086a4.863,4.863,0,0,1,7.106-.974,11.815,11.815,0,0,1,4.189,5.83,16.952,16.952,0,0,1,.36,12A10.563,10.563,0,0,1,12.377,21.7a1.679,1.679,0,0,0-.387,1.487q2.359,13.8,4.68,27.615a5.348,5.348,0,0,1,.074,1.465,2.452,2.452,0,0,1-2.195,2.155A2.716,2.716,0,0,1,11.776,52.7a7.563,7.563,0,0,1-.237-1.082q-1.155-6.79-2.3-13.58Z" transform="translate(0 0.86)" fill="#9019c7"/>
      <path id="Path_11" data-name="Path 11" d="M6.55,21.823c-.623-.135-1.129-.239-1.633-.353-1.5-.341-2-1.1-1.673-2.6Q5.081,10.328,6.927,1.79c.052-.241.094-.485.159-.722C7.312.244,7.849-.127,8.563.038s1.017.7.832,1.563c-.709,3.314-1.431,6.626-2.138,9.94a1.28,1.28,0,0,0,.91,1.732c1.008.305,1.566-.055,1.819-1.214.709-3.251,1.4-6.506,2.111-9.757.213-.98.819-1.387,1.638-1.1.8.283.9.881.737,1.64q-1.066,4.829-2.089,9.667c-.215,1.008.081,1.611.867,1.858.974.306,1.551,0,1.773-1.005.716-3.25,1.408-6.5,2.121-9.755.071-.323.138-.754.362-.912a1.9,1.9,0,0,1,1.281-.416c.341.072.686.558.841.938A2.041,2.041,0,0,1,19.542,4.3q-1.822,8.5-3.662,16.988c-.428,1.979-.99,2.335-2.98,1.908l-1.172-.253L11.458,24.2q-3.042,14.1-6.092,28.189a5.25,5.25,0,0,1-.55,1.552,2.581,2.581,0,0,1-3,1.025A2.642,2.642,0,0,1,.054,51.974c.594-2.866,1.225-5.724,1.843-8.586Q4.109,33.132,6.322,22.877Z" transform="translate(28.489 0)" fill="#9019c7"/>
    </g>
    <g id="Group_7" data-name="Group 7" transform="translate(0 25.285)">
      <path id="Path_12" data-name="Path 12" d="M.052,36.621C-.3,27.1.976,18.04,7.427,10.373A28.449,28.449,0,0,1,55.26,16.61C57.891,22.149,58.631,28,58.727,33.991c.061,3.794.043,7.6-.122,11.385-.1,2.367-.848,4.547-3.5,5.289-2.489.695-4.348-.2-5.969-2.2-2.551-3.146-4.954-3.023-7.719.164S36.049,51.8,33.3,48.556c-2.534-2.989-5.214-3.047-7.757-.167-3.089,3.5-5.575,3.5-8.58,0-2.454-2.857-5.257-2.925-7.507.056-1.574,2.086-3.451,3-5.9,2.221C1.081,49.877.015,47.978.045,45.4.078,42.477.052,39.549.052,36.621Zm43.564-4.006c-1.041-.652-1.621.16-2.088.586-2.105,1.918-4.011,2.543-6.055-.131-.943-1.233-2.212-1.241-3.254.065-1.971,2.471-3.906,2.634-5.869-.01-.878-1.182-2.016-1.437-2.949-.233-2.39,3.084-4.581,2.184-6.853-.095-.326-.328-.808-.781-1.4-.326.376,2.149,2.751,5.391,4.441,5.841,1.871.5,2.636-1.25,3.645-2.2,1.568-1.469,2.458-.632,3.437.539,1.605,1.918,3.337,2.412,5.035.216s3.1-1.536,4.673.125c.678.713,1.482,2.112,2.647,1.215C40.948,36.731,43.605,35.684,43.616,32.615Zm.373-14.9c-.342-.942.613-2.638-1.563-2.751-2.149-.111-2.1,1.489-2.174,2.809-.081,1.393.1,3.148,1.865,3.18C43.972,20.987,43.946,19.237,43.989,17.716Zm-29.482.358c.448.947-.166,2.859,1.622,2.944,1.666.078,2.319-1.4,2.314-2.963,0-1.469-.275-3.106-2.08-3.114C14.634,14.935,14.724,16.623,14.507,18.074Z" transform="translate(5.947 6.561)" fill="#f7ede2"/>
      <path id="Path_13" data-name="Path 13" d="M3.752,2.757C3.71,4.278,3.735,6.028,1.88,5.994.112,5.962-.066,4.207.016,2.814.092,1.494.04-.106,2.189.006,4.365.119,3.41,1.815,3.752,2.757Z" transform="translate(46.184 21.52)" fill="#538e2b"/>
      <path id="Path_14" data-name="Path 14" d="M0,3.133C.217,1.681.127-.007,1.856,0c1.8.008,2.075,1.645,2.08,3.114.005,1.559-.648,3.041-2.314,2.963C-.166,5.992.448,4.08,0,3.133Z" transform="translate(20.454 21.502)" fill="#538e2b"/>
      <g id="Group_6" data-name="Group 6">
        <path id="Path_15" data-name="Path 15" d="M.192,41.888c-.61-7.655.089-15.752,4.294-23.243C11.95,5.351,26.859-2.059,41.125.5c15.967,2.867,28.7,17.438,29.291,33.728.222,6.172.191,12.36.048,18.535-.192,8.314-7.383,13.191-15.129,10.113a9.289,9.289,0,0,0-8.328.144c-2.9,1.456-5.954.8-8.787-.575a5.729,5.729,0,0,0-5.559-.2A10.941,10.941,0,0,1,21.2,61.926c-2.063-1.285-3.726-.13-5.488.64-5.637,2.466-10.741.975-14.245-4.028A7.154,7.154,0,0,1,.2,54.279C.179,50.377.192,46.475.192,41.888ZM6,43.181c0,2.928.026,5.856-.008,8.784-.03,2.573,1.037,4.473,3.5,5.26,2.451.781,4.328-.135,5.9-2.221,2.25-2.981,5.053-2.912,7.507-.056,3.005,3.5,5.492,3.5,8.58,0,2.543-2.88,5.224-2.822,7.757.167,2.754,3.248,5.349,3.274,8.119.079s5.168-3.311,7.719-.164c1.62,2,3.48,2.89,5.969,2.2,2.656-.742,3.4-2.923,3.5-5.289.165-3.79.183-7.591.122-11.385-.1-5.994-.837-11.842-3.468-17.381a28.449,28.449,0,0,0-47.832-6.237C6.923,24.6,5.652,33.66,6,43.181Z" fill="#9019c7"/>
        <path id="Path_16" data-name="Path 16" d="M28.471.509c-.011,3.069-2.668,4.116-4.594,5.6-1.165.9-1.969-.5-2.647-1.215-1.576-1.66-2.976-2.319-4.673-.125s-3.43,1.7-5.035-.216c-.979-1.171-1.869-2.008-3.437-.539-1.009.945-1.774,2.694-3.645,2.2C2.75,5.758.375,2.516,0,.363c.594-.451,1.076,0,1.4.33C3.675,2.972,5.865,3.872,8.256.788c.933-1.2,2.071-.949,2.949.233,1.963,2.643,3.9,2.48,5.869.01,1.042-1.306,2.311-1.3,3.254-.065,2.044,2.674,3.95,2.049,6.055.131C26.85.669,27.43-.142,28.471.509Z" transform="translate(21.093 38.667)" fill="#9019c7"/>
        <path id="Path_17" data-name="Path 17" d="M6.829,5.017C6.752,7.785,6.8,10.97,3.422,10.908.2,10.849-.118,7.657.028,5.121.167,2.72.073-.193,3.984.01,7.945.216,6.208,3.3,6.829,5.017Z" transform="translate(44.646 19.062)" fill="#9019c7"/>
        <path id="Path_18" data-name="Path 18" d="M0,5.6C.389,3,.226-.013,3.314,0,6.537.014,7.021,2.939,7.029,5.561c.01,2.786-1.158,5.432-4.132,5.292C-.3,10.7.8,7.287,0,5.6Z" transform="translate(18.908 19.113)" fill="#9019c7"/>
      </g>
    </g>
  </g>
</svg>
