<svg xmlns="http://www.w3.org/2000/svg" width="408.459" height="6" viewBox="0 0 408.459 6">
  <g id="Group_130" data-name="Group 130" transform="translate(-420 -1168.5)">
    <path id="Path_35" data-name="Path 35" d="M420,1169.5c3.52,0,3.52,4,7.041,4s3.52-4,7.041-4,3.52,4,7.039,4,3.519-4,7.039-4,3.52,4,7.039,4,3.521-4,7.041-4,3.52,4,7.041,4,3.52-4,7.04-4,3.52,4,7.039,4,3.52-4,7.041-4,3.521,4,7.042,4,3.52-4,7.041-4,3.52,4,7.04,4,3.52-4,7.04-4,3.522,4,7.043,4,3.52-4,7.041-4,3.52,4,7.04,4,3.521-4,7.042-4,3.52,4,7.041,4,3.52-4,7.041-4,3.521,4,7.042,4,3.521-4,7.042-4,3.52,4,7.041,4,3.522-4,7.043-4,3.521,4,7.041,4,3.521-4,7.042-4,3.521,4,7.043,4,3.521-4,7.042-4,3.522,4,7.044,4,3.521-4,7.041-4,3.522,4,7.043,4,3.522-4,7.043-4,3.521,4,7.043,4,3.522-4,7.043-4,3.522,4,7.043,4,3.522-4,7.043-4,3.522,4,7.044,4,3.522-4,7.043-4,3.52,4,7.04,4,3.52-4,7.041-4,3.521,4,7.041,4,3.521-4,7.043-4,3.52,4,7.041,4,3.521-4,7.043-4,3.522,4,7.045,4,3.522-4,7.043-4,3.522,4,7.043,4,3.522-4,7.044-4,3.522,4,7.045,4,3.522-4,7.044-4,3.522,4,7.044,4,3.522-4,7.043-4,3.522,4,7.043,4,3.522-4,7.045-4,3.523,4,7.048,4,3.522-4,7.044-4,3.525,4,7.05,4,3.525-4,7.049-4" transform="translate(0)" fill="none" stroke="#f48145" stroke-width="2"/>
  </g>
</svg>
