<svg xmlns="http://www.w3.org/2000/svg" width="51.927" height="62.579" viewBox="0 0 51.927 62.579">
  <g id="Group_6108" data-name="Group 6108" transform="translate(-476.075 -49.502)">
    <g id="Group_6093" data-name="Group 6093">
      <g id="Group_6092" data-name="Group 6092">
        <path id="Path_6735" data-name="Path 6735" d="M516.352,49.5H481.068a5,5,0,0,0-4.993,4.993V100.43a5,5,0,0,0,4.993,4.993h16.644a1,1,0,1,0,0-2H481.068a3,3,0,0,1-3-3V54.495a3,3,0,0,1,3-3h6.99v8.988a3,3,0,0,0,3,3h15.312a3,3,0,0,0,3-3V51.5h6.99a3,3,0,0,1,3,3v27.3a1,1,0,0,0,2,0v-27.3A5,5,0,0,0,516.352,49.5Zm-8.988,10.985a1,1,0,0,1-1,1H491.054a1,1,0,0,1-1-1v-2.33h17.309v2.33Zm0-4.327H490.055V51.5h17.309V56.16Z" fill="#f6bd60"/>
      </g>
    </g>
    <g id="Group_6095" data-name="Group 6095">
      <g id="Group_6094" data-name="Group 6094">
        <path id="Path_6736" data-name="Path 6736" d="M496.585,99.432H482.067V55.494H485a1,1,0,0,0,0-2h-3.928a1,1,0,0,0-1,1V100.43a1,1,0,0,0,1,1h15.517a1,1,0,0,0,0-2Z" fill="#f6bd60"/>
      </g>
    </g>
    <g id="Group_6097" data-name="Group 6097">
      <g id="Group_6096" data-name="Group 6096">
        <path id="Path_6737" data-name="Path 6737" d="M516.352,53.5h-3.995a1,1,0,0,0,0,2h3V80.663a1,1,0,1,0,2,0V54.495A1,1,0,0,0,516.352,53.5Z" fill="#f6bd60"/>
      </g>
    </g>
    <g id="Group_6099" data-name="Group 6099">
      <g id="Group_6098" data-name="Group 6098">
        <path id="Path_6738" data-name="Path 6738" d="M508.363,71.139H489.057a1,1,0,1,0,0,2h19.306a1,1,0,0,0,0-2Z" fill="#f6bd60"/>
      </g>
    </g>
    <g id="Group_6101" data-name="Group 6101">
      <g id="Group_6100" data-name="Group 6100">
        <path id="Path_6739" data-name="Path 6739" d="M508.363,76.464H489.057a1,1,0,1,0,0,2h19.306a1,1,0,0,0,0-2Z" fill="#f6bd60"/>
      </g>
    </g>
    <g id="Group_6103" data-name="Group 6103">
      <g id="Group_6102" data-name="Group 6102">
        <path id="Path_6740" data-name="Path 6740" d="M498.71,81.79h-9.653a1,1,0,1,0,0,2h9.653a1,1,0,0,0,0-2Z" fill="#f6bd60"/>
      </g>
    </g>
    <g id="Group_6105" data-name="Group 6105">
      <g id="Group_6104" data-name="Group 6104">
        <path id="Path_6741" data-name="Path 6741" d="M513.689,83.454A14.313,14.313,0,1,0,528,97.767,14.33,14.33,0,0,0,513.689,83.454Zm0,26.629a12.315,12.315,0,1,1,12.316-12.315A12.329,12.329,0,0,1,513.689,110.083Z" fill="#f6bd60"/>
      </g>
    </g>
    <g id="Group_6107" data-name="Group 6107">
      <g id="Group_6106" data-name="Group 6106">
        <path id="Path_6742" data-name="Path 6742" d="M520.346,94.772h-3.662V91.11a3,3,0,1,0-5.991,0v3.662h-3.662a3,3,0,1,0,0,5.991h3.662v3.662a3,3,0,1,0,5.991,0v-3.662h3.662a3,3,0,1,0,0-5.991Zm0,3.994h-4.66a1,1,0,0,0-1,1v4.66a1,1,0,0,1-2,0v-4.66a1,1,0,0,0-1-1h-4.66a1,1,0,1,1,0-2h4.66a1,1,0,0,0,1-1V91.11a1,1,0,0,1,2,0v4.66a1,1,0,0,0,1,1h4.66a1,1,0,1,1,0,2Z" fill="#f6bd60"/>
      </g>
    </g>
  </g>
</svg>
