<svg xmlns="http://www.w3.org/2000/svg" width="64.761" height="64.762" viewBox="0 0 64.761 64.762">
  <g id="Group_6160" data-name="Group 6160" transform="translate(-687.198 -44.974)">
    <g id="Group_6159" data-name="Group 6159">
      <g id="Group_6110" data-name="Group 6110">
        <g id="Group_6109" data-name="Group 6109">
          <path id="Path_6743" data-name="Path 6743" d="M747.642,57.927a4.317,4.317,0,1,0,4.317,4.317A4.321,4.321,0,0,0,747.642,57.927Zm0,6.476a2.159,2.159,0,1,1,2.159-2.159A2.161,2.161,0,0,1,747.642,64.4Z" fill="#a59583"/>
        </g>
      </g>
      <g id="Group_6112" data-name="Group 6112">
        <g id="Group_6111" data-name="Group 6111">
          <path id="Path_6744" data-name="Path 6744" d="M691.515,93.546a4.318,4.318,0,1,0,4.317,4.317A4.321,4.321,0,0,0,691.515,93.546Zm0,6.476a2.159,2.159,0,1,1,2.159-2.159A2.161,2.161,0,0,1,691.515,100.022Z" fill="#a59583"/>
        </g>
      </g>
      <g id="Group_6114" data-name="Group 6114">
        <g id="Group_6113" data-name="Group 6113">
          <path id="Path_6745" data-name="Path 6745" d="M745.549,59.291,736.237,54.8a1.079,1.079,0,1,0-.937,1.944l9.311,4.495a1.079,1.079,0,0,0,.938-1.944Z" fill="#a59583"/>
        </g>
      </g>
      <g id="Group_6116" data-name="Group 6116">
        <g id="Group_6115" data-name="Group 6115">
          <path id="Path_6746" data-name="Path 6746" d="M735.769,101.1a4.318,4.318,0,1,0,4.317,4.318A4.322,4.322,0,0,0,735.769,101.1Zm0,6.476a2.159,2.159,0,1,1,2.159-2.158A2.161,2.161,0,0,1,735.769,107.577Z" fill="#a59583"/>
        </g>
      </g>
      <g id="Group_6118" data-name="Group 6118">
        <g id="Group_6117" data-name="Group 6117">
          <path id="Path_6747" data-name="Path 6747" d="M733.676,102.466l-9.312-4.5a1.079,1.079,0,1,0-.937,1.944l9.311,4.5a1.079,1.079,0,1,0,.938-1.944Z" fill="#a59583"/>
        </g>
      </g>
      <g id="Group_6120" data-name="Group 6120">
        <g id="Group_6119" data-name="Group 6119">
          <path id="Path_6748" data-name="Path 6748" d="M719.579,74.117a4.318,4.318,0,1,0,4.317,4.318A4.322,4.322,0,0,0,719.579,74.117Zm0,6.476a2.159,2.159,0,1,1,2.158-2.158A2.161,2.161,0,0,1,719.579,80.593Z" fill="#a59583"/>
        </g>
      </g>
      <g id="Group_6122" data-name="Group 6122">
        <g id="Group_6121" data-name="Group 6121">
          <path id="Path_6749" data-name="Path 6749" d="M717.681,75.6l-7.153-5.574a1.08,1.08,0,0,0-1.328,1.7l7.153,5.575a1.08,1.08,0,0,0,1.328-1.7Z" fill="#a59583"/>
        </g>
      </g>
      <g id="Group_6124" data-name="Group 6124">
        <g id="Group_6123" data-name="Group 6123">
          <path id="Path_6750" data-name="Path 6750" d="M739.007,73.038A11.873,11.873,0,1,0,750.88,84.911,11.887,11.887,0,0,0,739.007,73.038Zm0,21.587a9.714,9.714,0,1,1,9.714-9.714A9.724,9.724,0,0,1,739.007,94.625Z" fill="#a59583"/>
        </g>
      </g>
      <g id="Group_6126" data-name="Group 6126">
        <g id="Group_6125" data-name="Group 6125">
          <path id="Path_6751" data-name="Path 6751" d="M739.007,77.355a4.317,4.317,0,1,0,4.317,4.318A4.322,4.322,0,0,0,739.007,77.355Zm0,6.477a2.159,2.159,0,1,1,2.159-2.159A2.162,2.162,0,0,1,739.007,83.832Z" fill="#a59583"/>
        </g>
      </g>
      <g id="Group_6128" data-name="Group 6128">
        <g id="Group_6127" data-name="Group 6127">
          <path id="Path_6752" data-name="Path 6752" d="M742.138,88.149h-6.262a3.3,3.3,0,0,0-3.345,3.254v2.845a1.08,1.08,0,0,0,.538.935,11.812,11.812,0,0,0,11.876,0,1.078,1.078,0,0,0,.538-.933V91.4A3.3,3.3,0,0,0,742.138,88.149Zm1.186,5.456a9.79,9.79,0,0,1-8.635,0V91.4a1.146,1.146,0,0,1,1.187-1.1h6.262a1.145,1.145,0,0,1,1.186,1.1v2.2Z" fill="#a59583"/>
        </g>
      </g>
      <g id="Group_6130" data-name="Group 6130">
        <g id="Group_6129" data-name="Group 6129">
          <path id="Path_6753" data-name="Path 6753" d="M713.1,85.99a11.873,11.873,0,1,0,11.873,11.873A11.887,11.887,0,0,0,713.1,85.99Zm0,21.587a9.714,9.714,0,1,1,9.715-9.714A9.724,9.724,0,0,1,713.1,107.577Z" fill="#a59583"/>
        </g>
      </g>
      <g id="Group_6132" data-name="Group 6132">
        <g id="Group_6131" data-name="Group 6131">
          <path id="Path_6754" data-name="Path 6754" d="M713.1,90.308a4.317,4.317,0,1,0,4.318,4.317A4.321,4.321,0,0,0,713.1,90.308Zm0,6.476a2.159,2.159,0,1,1,2.159-2.159A2.161,2.161,0,0,1,713.1,96.784Z" fill="#a59583"/>
        </g>
      </g>
      <g id="Group_6134" data-name="Group 6134">
        <g id="Group_6133" data-name="Group 6133">
          <path id="Path_6755" data-name="Path 6755" d="M716.234,101.1h-6.263a3.305,3.305,0,0,0-3.345,3.255V107.2a1.078,1.078,0,0,0,.539.934,11.81,11.81,0,0,0,11.875,0,1.079,1.079,0,0,0,.539-.933v-2.845A3.306,3.306,0,0,0,716.234,101.1Zm1.186,5.456a9.783,9.783,0,0,1-8.635,0v-2.2a1.145,1.145,0,0,1,1.186-1.1h6.262a1.146,1.146,0,0,1,1.187,1.1v2.2Z" fill="#a59583"/>
        </g>
      </g>
      <g id="Group_6136" data-name="Group 6136">
        <g id="Group_6135" data-name="Group 6135">
          <path id="Path_6756" data-name="Path 6756" d="M699.071,59.006a11.873,11.873,0,1,0,11.873,11.873A11.887,11.887,0,0,0,699.071,59.006Zm0,21.587a9.714,9.714,0,1,1,9.714-9.714A9.725,9.725,0,0,1,699.071,80.593Z" fill="#a59583"/>
        </g>
      </g>
      <g id="Group_6138" data-name="Group 6138">
        <g id="Group_6137" data-name="Group 6137">
          <path id="Path_6757" data-name="Path 6757" d="M699.071,63.324a4.317,4.317,0,1,0,4.317,4.317A4.322,4.322,0,0,0,699.071,63.324Zm0,6.476a2.159,2.159,0,1,1,2.158-2.159A2.161,2.161,0,0,1,699.071,69.8Z" fill="#a59583"/>
        </g>
      </g>
      <g id="Group_6140" data-name="Group 6140">
        <g id="Group_6139" data-name="Group 6139">
          <path id="Path_6758" data-name="Path 6758" d="M702.2,74.117h-6.263a3.3,3.3,0,0,0-3.344,3.255v2.845a1.08,1.08,0,0,0,.538.934,11.81,11.81,0,0,0,11.875,0,1.077,1.077,0,0,0,.539-.933V77.373A3.306,3.306,0,0,0,702.2,74.117Zm1.186,5.456a9.783,9.783,0,0,1-8.635,0v-2.2a1.145,1.145,0,0,1,1.186-1.1H702.2a1.145,1.145,0,0,1,1.186,1.1v2.2Z" fill="#a59583"/>
        </g>
      </g>
      <g id="Group_6142" data-name="Group 6142">
        <g id="Group_6141" data-name="Group 6141">
          <path id="Path_6759" data-name="Path 6759" d="M724.975,44.974a11.874,11.874,0,1,0,11.873,11.874A11.888,11.888,0,0,0,724.975,44.974Zm0,21.588a9.714,9.714,0,1,1,9.715-9.714A9.725,9.725,0,0,1,724.975,66.562Z" fill="#a59583"/>
        </g>
      </g>
      <g id="Group_6144" data-name="Group 6144">
        <g id="Group_6143" data-name="Group 6143">
          <path id="Path_6760" data-name="Path 6760" d="M724.975,49.292a4.317,4.317,0,1,0,4.318,4.317A4.321,4.321,0,0,0,724.975,49.292Zm0,6.476a2.159,2.159,0,1,1,2.159-2.159A2.161,2.161,0,0,1,724.975,55.768Z" fill="#a59583"/>
        </g>
      </g>
      <g id="Group_6146" data-name="Group 6146">
        <g id="Group_6145" data-name="Group 6145">
          <path id="Path_6761" data-name="Path 6761" d="M728.107,60.086h-6.263A3.3,3.3,0,0,0,718.5,63.34v2.845a1.08,1.08,0,0,0,.539.935,11.81,11.81,0,0,0,11.875,0,1.081,1.081,0,0,0,.539-.934V63.341A3.3,3.3,0,0,0,728.107,60.086Zm1.186,5.456a9.79,9.79,0,0,1-8.635,0v-2.2a1.146,1.146,0,0,1,1.186-1.1h6.262a1.147,1.147,0,0,1,1.187,1.1v2.2Z" fill="#a59583"/>
        </g>
      </g>
      <g id="Group_6148" data-name="Group 6148">
        <g id="Group_6147" data-name="Group 6147">
          <path id="Path_6762" data-name="Path 6762" d="M715,56.145a1.082,1.082,0,0,0-1.522-.118l-7.48,6.4a1.079,1.079,0,1,0,1.4,1.639l7.48-6.4A1.078,1.078,0,0,0,715,56.145Z" fill="#a59583"/>
        </g>
      </g>
      <g id="Group_6150" data-name="Group 6150">
        <g id="Group_6149" data-name="Group 6149">
          <path id="Path_6763" data-name="Path 6763" d="M738.791,73.471l-6.476-8.635a1.079,1.079,0,0,0-1.727,1.294l6.476,8.635a1.079,1.079,0,0,0,1.727-1.294Z" fill="#a59583"/>
        </g>
      </g>
      <g id="Group_6152" data-name="Group 6152">
        <g id="Group_6151" data-name="Group 6151">
          <path id="Path_6764" data-name="Path 6764" d="M729.933,88.48a1.08,1.08,0,0,0-1.511-.216l-6.03,4.522a1.079,1.079,0,0,0,1.3,1.726l6.029-4.522A1.079,1.079,0,0,0,729.933,88.48Z" fill="#a59583"/>
        </g>
      </g>
      <g id="Group_6154" data-name="Group 6154">
        <g id="Group_6153" data-name="Group 6153">
          <path id="Path_6765" data-name="Path 6765" d="M702.309,96.784h-7.556a1.079,1.079,0,0,0,0,2.158h7.556a1.079,1.079,0,0,0,0-2.158Z" fill="#a59583"/>
        </g>
      </g>
      <g id="Group_6156" data-name="Group 6156">
        <g id="Group_6155" data-name="Group 6155">
          <path id="Path_6766" data-name="Path 6766" d="M699.071,44.974a4.318,4.318,0,1,0,4.317,4.318A4.323,4.323,0,0,0,699.071,44.974Zm0,6.477a2.159,2.159,0,1,1,2.158-2.159A2.161,2.161,0,0,1,699.071,51.451Z" fill="#a59583"/>
        </g>
      </g>
      <g id="Group_6158" data-name="Group 6158">
        <g id="Group_6157" data-name="Group 6157">
          <path id="Path_6767" data-name="Path 6767" d="M699.071,51.451a1.079,1.079,0,0,0-1.08,1.079v7.555a1.079,1.079,0,1,0,2.159,0V52.53A1.079,1.079,0,0,0,699.071,51.451Z" fill="#a59583"/>
        </g>
      </g>
    </g>
  </g>
</svg>
