<svg xmlns="http://www.w3.org/2000/svg" width="69.783" height="69.784" viewBox="0 0 69.783 69.784">
  <g id="Group_5985" data-name="Group 5985" transform="translate(-769.436 -1699.836)">
    <path id="Path_6665" data-name="Path 6665" d="M804.328,1699.836a34.892,34.892,0,1,0,34.891,34.892A34.892,34.892,0,0,0,804.328,1699.836Zm4.609,46.269c-2.794,2.818-5.476,5.763-8.439,8.39a7.426,7.426,0,0,1-8.9.216,29.726,29.726,0,0,1-6.585-6.2,7.844,7.844,0,0,1-1.643-4.6,8.678,8.678,0,0,1,2.37-6.139c3.1-3.268,6.209-6.539,9.4-9.726a8.133,8.133,0,0,1,11.032-.634c1.731,1.377,3.253,3.016,4.878,4.528.788.734.774,1.351.045,2.215-2.765,3.281-2.732,3.308-5.793.329-4.146-4.038-4.162-4.053-8.231,0-2.239,2.231-4.437,4.506-6.613,6.8-1.729,1.822-1.648,3.111.182,4.814.985.916,1.948,1.857,2.931,2.775,1.826,1.707,3.058,1.659,4.818-.182,1.162-1.215,2.31-2.445,3.48-3.653.472-.487.979-.982,1.756-.673a11.136,11.136,0,0,0,4.767.608c.321-.016.713-.086.894.271C809.47,1745.608,809.161,1745.879,808.937,1746.1Zm14.587-15.4a95.692,95.692,0,0,1-11.25,11.57c-2.582,2.259-6.277,2.164-9.258.247-2.175-1.4-3.8-3.412-5.645-5.179a1.178,1.178,0,0,1-.038-1.915,1.924,1.924,0,0,0,.134-.151c2.712-3.3,2.712-3.3,5.722-.376,4.283,4.156,4.291,4.164,8.41,0q3.267-3.3,6.476-6.665c1.726-1.809,1.71-2.888-.034-4.646-1.138-1.147-2.3-2.277-3.478-3.378a2.5,2.5,0,0,0-3.906.129c-1.273,1.3-2.508,2.634-3.784,3.929-.459.465-.928,1.177-1.683.874-1.909-.765-3.93-.621-5.929-.69l-.313-.656c2.974-2.906,5.809-5.973,8.962-8.669,2.928-2.5,6.973-2.276,10.03.3a52.15,52.15,0,0,1,5.337,5.217A7.659,7.659,0,0,1,823.524,1730.71Z" fill="#a59583"/>
  </g>
</svg>
