<svg xmlns="http://www.w3.org/2000/svg" width="70" height="70" viewBox="0 0 70 70">
  <g id="Group_559" data-name="Group 559" transform="translate(-576.648 -332.784)">
    <ellipse id="Ellipse_62" data-name="Ellipse 62" cx="35" cy="35" rx="35" ry="35" transform="translate(576.648 332.784)" fill="#f7ede2"/>
    <g id="Group_552" data-name="Group 552" transform="translate(577.497 332.784)">
      <ellipse id="Ellipse_63" data-name="Ellipse 63" cx="34.287" cy="34.287" rx="34.287" ry="34.287" transform="translate(0 0)" fill="#f5c72e"/>
      <path id="Path_1010" data-name="Path 1010" d="M556.375,324.077a32.323,32.323,0,0,1,15.5,5.968c5.022,3.712,8.281,8.712,10.78,14.2a18.8,18.8,0,0,1,1.626,11.015,2.055,2.055,0,0,1-2.289,1.68,2.439,2.439,0,0,1-2.584-2.513c-.4-4.313-1.162-8.541-3.376-12.343a25.587,25.587,0,0,0-11.518-10.59,20.307,20.307,0,0,0-9.692-2.264c-1.774.086-3.681-.247-3.622-2.663s1.9-2.537,3.734-2.488C555.414,324.088,555.9,324.077,556.375,324.077Z" transform="translate(-520.579 -319.331)" fill="#e8ae0f"/>
      <path id="Path_1011" data-name="Path 1011" d="M536.375,401.1c-10.648-1.109-19.23-5.783-24.781-15.429a24.676,24.676,0,0,1-3.655-13.937c.087-1.561-.154-3.4,2.015-3.427,1.847-.024,2.526,1.68,2.571,3.184a25.119,25.119,0,0,0,2.329,9.665c3.252,7.236,8.827,11.805,16.331,14.079a35.575,35.575,0,0,0,5.618,1.117c1.756.234,3.641.134,3.455,2.724S538.041,400.858,536.375,401.1Z" transform="translate(-503.337 -336.91)" fill="#e8ae0f"/>
      <path id="Path_1012" data-name="Path 1012" d="M511.876,348.788a25.723,25.723,0,0,1,6.067-10.287,2.138,2.138,0,0,1,3.107-.237,2.239,2.239,0,0,1,.315,3.313,70.16,70.16,0,0,0-5.011,8.908,2.126,2.126,0,0,1-2.827,1.27C512.247,351.324,511.984,350.185,511.876,348.788Z" transform="translate(-504.757 -324.627)" fill="#fce9ba"/>
      <g id="Group_551" data-name="Group 551" transform="translate(21.537 22.487)">
        <g id="Group_550" data-name="Group 550">
          <path id="Path_1013" data-name="Path 1013" d="M558.558,376.667a2.634,2.634,0,0,1-1.859-.755,2.553,2.553,0,0,1-.8-1.875V363.826L551.541,374.6a3.3,3.3,0,0,1-1.242,1.5,3.34,3.34,0,0,1-3.719,0,3.3,3.3,0,0,1-1.236-1.482l-4.362-10.784v10.2a2.551,2.551,0,0,1-.8,1.875,2.679,2.679,0,0,1-3.718-.016,2.579,2.579,0,0,1-.772-1.859V356.322a3.21,3.21,0,0,1,.939-2.279,3.133,3.133,0,0,1,2.286-.975h.979a3.121,3.121,0,0,1,1.778.559,3.446,3.446,0,0,1,1.216,1.464l5.551,13.851,5.531-13.8a3.485,3.485,0,0,1,1.237-1.512,3.121,3.121,0,0,1,1.778-.559h.979a3.133,3.133,0,0,1,2.286.975,3.209,3.209,0,0,1,.938,2.279v17.715a2.632,2.632,0,0,1-2.63,2.63Z" transform="translate(-535.69 -353.068)" fill="#e8ae0f"/>
        </g>
      </g>
    </g>
  </g>
</svg>
