<svg xmlns="http://www.w3.org/2000/svg" width="99.84" height="128.881" viewBox="0 0 99.84 128.881">
  <g id="Group_5589" data-name="Group 5589" transform="translate(-319.454 -646.796)">
    <g id="Group_5583" data-name="Group 5583" transform="translate(333.287 646.796)">
      <path id="Path_6301" data-name="Path 6301" d="M356.779,705.988c-1.188-7.011-2.389-14.02-3.548-21.036A2.262,2.262,0,0,0,352,683.163c-3.6-2.105-5.7-5.436-7.105-9.231-2.1-5.682-2.714-11.489-.779-17.338a15.163,15.163,0,0,1,2.38-4.483c2.809-3.6,6.919-4.1,10.649-1.459a17.7,17.7,0,0,1,6.277,8.736c2.158,5.918,2.772,11.948.539,17.988a15.824,15.824,0,0,1-2.464,4.123,2.516,2.516,0,0,0-.58,2.228q3.536,20.687,7.014,41.384a8.034,8.034,0,0,1,.111,2.194,3.674,3.674,0,0,1-3.289,3.23,4.069,4.069,0,0,1-4.157-2.578,11.405,11.405,0,0,1-.354-1.621q-1.731-10.175-3.451-20.35Z" transform="translate(-342.943 -647.695)" fill="#eb9c22"/>
      <path id="Path_6302" data-name="Path 6302" d="M425.255,679.5c-.934-.2-1.692-.358-2.447-.529-2.252-.511-2.991-1.647-2.507-3.9q2.753-12.8,5.519-25.593c.078-.362.14-.727.238-1.082.339-1.234,1.145-1.79,2.214-1.542s1.524,1.046,1.247,2.342c-1.062,4.967-2.144,9.93-3.2,14.9-.3,1.4.16,2.23,1.364,2.6,1.51.458,2.347-.083,2.726-1.82,1.062-4.873,2.1-9.75,3.164-14.623.32-1.469,1.227-2.079,2.453-1.647,1.2.423,1.356,1.319,1.1,2.458q-1.6,7.237-3.131,14.488c-.322,1.51.122,2.414,1.3,2.784,1.46.458,2.325,0,2.657-1.507,1.073-4.87,2.11-9.748,3.179-14.619.107-.484.206-1.13.543-1.367a2.848,2.848,0,0,1,1.919-.622c.511.108,1.028.836,1.26,1.4a3.066,3.066,0,0,1-.126,1.615q-2.731,12.732-5.487,25.458c-.641,2.966-1.483,3.5-4.465,2.86l-1.756-.379-.406,1.885q-4.559,21.124-9.13,42.244a7.857,7.857,0,0,1-.823,2.326,3.867,3.867,0,0,1-4.5,1.536,3.959,3.959,0,0,1-2.642-4.482c.892-4.295,1.836-8.579,2.761-12.867l6.633-30.738C425.011,680.63,425.107,680.182,425.255,679.5Z" transform="translate(-372.746 -646.796)" fill="#eb9c22"/>
    </g>
    <g id="Group_5584" data-name="Group 5584" transform="translate(333.287 647.44)">
      <path id="Path_6303" data-name="Path 6303" d="M356.779,707.082c-1.188-7.011-2.389-14.02-3.548-21.036A2.262,2.262,0,0,0,352,684.258c-3.6-2.105-5.7-5.436-7.105-9.231-2.1-5.683-2.714-11.489-.779-17.338a15.168,15.168,0,0,1,2.38-4.484c2.809-3.6,6.919-4.1,10.649-1.458a17.7,17.7,0,0,1,6.277,8.736c2.158,5.917,2.772,11.948.539,17.988a15.812,15.812,0,0,1-2.464,4.123,2.518,2.518,0,0,0-.58,2.229q3.536,20.687,7.014,41.384a8.038,8.038,0,0,1,.111,2.195,3.676,3.676,0,0,1-3.289,3.23,4.07,4.07,0,0,1-4.157-2.579,11.384,11.384,0,0,1-.354-1.621q-1.731-10.174-3.451-20.35Z" transform="translate(-342.943 -648.79)" fill="#eb9c22"/>
      <path id="Path_6304" data-name="Path 6304" d="M425.255,680.593c-.934-.2-1.692-.358-2.447-.529-2.252-.511-2.991-1.647-2.507-3.9q2.753-12.8,5.519-25.593c.078-.361.14-.727.238-1.082.339-1.234,1.145-1.79,2.214-1.542s1.524,1.046,1.247,2.343c-1.062,4.967-2.144,9.93-3.2,14.9-.3,1.4.16,2.23,1.364,2.6,1.51.458,2.347-.083,2.726-1.82,1.062-4.872,2.1-9.749,3.164-14.622.32-1.469,1.227-2.079,2.453-1.647,1.2.423,1.356,1.32,1.1,2.458q-1.6,7.237-3.131,14.488c-.322,1.511.122,2.415,1.3,2.784,1.46.458,2.325,0,2.657-1.507,1.073-4.87,2.11-9.748,3.179-14.618.107-.484.206-1.13.543-1.366a2.848,2.848,0,0,1,1.919-.623c.511.108,1.028.836,1.26,1.4a3.068,3.068,0,0,1-.126,1.616Q442,667.06,439.238,679.786c-.641,2.966-1.483,3.5-4.465,2.86l-1.756-.379-.406,1.886q-4.559,21.123-9.13,42.244a7.853,7.853,0,0,1-.823,2.326,3.866,3.866,0,0,1-4.5,1.536,3.96,3.96,0,0,1-2.642-4.482c.892-4.295,1.836-8.579,2.761-12.867l6.633-30.738C425.011,681.725,425.107,681.276,425.255,680.593Z" transform="translate(-372.746 -647.89)" fill="#eb9c22"/>
    </g>
    <g id="Group_5588" data-name="Group 5588" transform="translate(319.454 687.452)">
      <g id="Group_5585" data-name="Group 5585" transform="translate(0 0)">
        <path id="Path_6305" data-name="Path 6305" d="M359.2,803.168c-2.932,0-5.751-1.622-8.619-4.959-1.226-1.427-2.473-2.214-3.512-2.214-1.264,0-2.412,1.17-3.153,2.151-2.461,3.261-5.39,4.914-8.7,4.914a11.159,11.159,0,0,1-3.386-.554c-4.771-1.521-7.364-5.329-7.3-10.722.035-3.042.027-6.146.019-9.148q-.005-1.964-.006-3.927c-.442-12.212.5-27.926,11.742-41.283a45.571,45.571,0,0,1,76.595,9.979c3.61,7.6,5.3,16.007,5.48,27.262.1,6.378.042,12.017-.185,17.237-.312,7.167-4.2,9.739-7.4,10.634a11.883,11.883,0,0,1-3.191.459c-3.316,0-6.288-1.591-8.833-4.731-.868-1.071-2.137-2.348-3.247-2.348-.963,0-2.316.949-3.807,2.669-2.67,3.08-5.375,4.578-8.268,4.578-2.938,0-5.677-1.544-8.37-4.721-.922-1.087-2.308-2.383-3.674-2.383-1.3,0-2.621,1.185-3.5,2.18C364.917,801.6,362.159,803.168,359.2,803.168Z" transform="translate(-321.511 -717.887)" fill="#f6ece0"/>
        <path id="Path_6306" data-name="Path 6306" d="M369.352,721.721a42.766,42.766,0,0,1,38.809,24.893c3.943,8.3,5.052,17.064,5.2,26.046.091,5.685.064,11.382-.183,17.061-.154,3.548-1.271,6.815-5.251,7.927a8.874,8.874,0,0,1-2.4.35c-2.577,0-4.669-1.325-6.546-3.641s-3.683-3.437-5.535-3.437c-1.938,0-3.914,1.242-6.032,3.685-2.059,2.374-4.053,3.562-6.043,3.562-2.023,0-4.043-1.227-6.124-3.681-1.935-2.282-3.927-3.424-5.919-3.424-1.918,0-3.837,1.058-5.706,3.175-2.313,2.62-4.4,3.931-6.474,3.931s-4.131-1.311-6.384-3.933c-1.841-2.142-3.813-3.238-5.746-3.239s-3.82,1.091-5.5,3.323c-1.795,2.379-3.853,3.742-6.352,3.742a8.193,8.193,0,0,1-2.492-.415c-3.7-1.179-5.3-4.026-5.251-7.883.05-4.387.011-8.775.011-13.163-.521-14.269,1.384-27.846,11.052-39.333a42.687,42.687,0,0,1,32.872-15.546m-19.644,31.5c2.357,0,3.287-2.167,3.28-4.444-.007-2.2-.413-4.655-3.117-4.666h-.016c-2.574,0-2.439,2.523-2.764,4.695.67,1.419-.249,4.284,2.43,4.411.064,0,.126,0,.188,0m38.837-.1c2.7,0,2.664-2.594,2.727-4.851-.512-1.412.919-3.953-2.343-4.123-.107-.006-.211-.008-.311-.008-2.905,0-2.836,2.3-2.946,4.217-.121,2.088.145,4.717,2.794,4.765h.079m-32.866,20.862c-1.853,0-3.674-1.248-5.531-3.111a2.083,2.083,0,0,0-1.342-.776,1.239,1.239,0,0,0-.76.288c.564,3.22,4.122,8.079,6.655,8.753a3.677,3.677,0,0,0,.948.131c2.139,0,3.186-2.176,4.515-3.421a3.5,3.5,0,0,1,2.3-1.176c1.08,0,1.938.9,2.847,1.982,1.3,1.559,2.665,2.491,4.043,2.491,1.163,0,2.337-.663,3.5-2.168,1.145-1.481,2.2-2.095,3.23-2.095,1.257,0,2.475.914,3.774,2.281.782.823,1.678,2.257,2.846,2.257a1.829,1.829,0,0,0,1.12-.435c2.886-2.221,6.868-3.79,6.885-8.39a2.1,2.1,0,0,0-1.115-.366c-.9,0-1.5.778-2.015,1.244-1.661,1.514-3.24,2.491-4.809,2.491-1.411,0-2.814-.789-4.265-2.686a3.025,3.025,0,0,0-2.353-1.378,3.337,3.337,0,0,0-2.523,1.476c-1.5,1.879-2.985,2.867-4.469,2.867-1.44,0-2.879-.931-4.328-2.882a3.191,3.191,0,0,0-2.41-1.529,2.582,2.582,0,0,0-2.008,1.18c-1.628,2.1-3.2,2.969-4.74,2.969m13.675-58.151v0A47.851,47.851,0,0,0,349.3,720.2a49.432,49.432,0,0,0-17.323,13.276c-11.872,14.107-12.892,30.5-12.435,43.232q0,1.949.008,3.9c.008,2.987.016,6.075-.019,9.092-.077,6.7,3.331,11.642,9.351,13.561a14.1,14.1,0,0,0,4.281.693c2.948,0,7.258-1.056,11.053-6.084a4.666,4.666,0,0,1,.854-.905,5.28,5.28,0,0,1,1.228,1.111c3.46,4.027,7.009,5.985,10.851,5.985,3.809,0,7.371-1.937,10.89-5.923A5.323,5.323,0,0,1,369.326,797a5.691,5.691,0,0,1,1.428,1.3c3.241,3.823,6.812,5.761,10.616,5.761,3.745,0,7.275-1.882,10.493-5.593a9.382,9.382,0,0,1,1.525-1.469,7.882,7.882,0,0,1,1.018,1.073c3.132,3.863,6.873,5.821,11.121,5.821a14.811,14.811,0,0,0,3.983-.568c7.9-2.208,9.374-9.307,9.55-13.342.229-5.279.29-10.974.187-17.412-.188-11.7-1.966-20.48-5.765-28.478a48.635,48.635,0,0,0-44.126-28.255Z" transform="translate(-319.454 -715.832)" fill="#eb9c22"/>
      </g>
      <g id="Group_5586" data-name="Group 5586" transform="translate(64.428 26.54)">
        <path id="Path_6307" data-name="Path 6307" d="M434.04,773.148A3.4,3.4,0,0,1,431.5,772.1c-.88-.951-1.247-2.471-1.122-4.648l.019-.347c.09-1.759.242-4.7,3.81-4.7q.172,0,.357.009c3.172.166,3.1,2.4,3.063,3.593a3.573,3.573,0,0,0,.064,1.111.864.864,0,0,1,.052.326l-.006.254c-.057,2.173-.144,5.456-3.6,5.456Z" transform="translate(-429.473 -761.516)" fill="#eb9c22"/>
        <path id="Path_6308" data-name="Path 6308" d="M433.592,762.666c.1,0,.2,0,.311.008,3.261.17,1.831,2.711,2.343,4.123-.063,2.257-.026,4.851-2.727,4.851h-.079c-2.649-.048-2.915-2.677-2.794-4.765.111-1.912.041-4.217,2.946-4.217m0-1.767c-4.406,0-4.606,3.882-4.692,5.541l-.018.341c-.141,2.429.3,4.163,1.355,5.3a4.277,4.277,0,0,0,3.171,1.335h.111c4.32,0,4.432-4.266,4.486-6.315l.006-.253a1.769,1.769,0,0,0-.1-.652,4.6,4.6,0,0,1-.012-.781c.038-1.174.138-4.293-3.9-4.5q-.208-.011-.4-.011Z" transform="translate(-428.857 -760.899)" fill="#eb9c22"/>
      </g>
      <g id="Group_5587" data-name="Group 5587" transform="translate(25.869 26.514)">
        <path id="Path_6309" data-name="Path 6309" d="M368.383,773.232c-.075,0-.152,0-.23-.005-2.615-.123-2.823-2.3-2.948-3.6a4.618,4.618,0,0,0-.239-1.315.881.881,0,0,1-.075-.508c.045-.3.081-.609.117-.916.223-1.913.528-4.532,3.52-4.532,2.661.011,4.006,1.876,4.017,5.546a5.918,5.918,0,0,1-1.443,4.247,3.745,3.745,0,0,1-2.72,1.084Z" transform="translate(-363.998 -761.472)" fill="#eb9c22"/>
        <path id="Path_6310" data-name="Path 6310" d="M367.912,762.622h.016c2.7.011,3.11,2.465,3.117,4.666.008,2.277-.922,4.444-3.28,4.444-.062,0-.124,0-.188,0-2.679-.127-1.76-2.992-2.43-4.411.325-2.172.19-4.695,2.764-4.695m0-1.767c-3.778,0-4.181,3.455-4.4,5.311-.035.3-.069.6-.113.888a1.766,1.766,0,0,0,.15,1.016,4.987,4.987,0,0,1,.158,1.022c.122,1.268.406,4.24,3.787,4.4.092,0,.182.007.271.007a4.612,4.612,0,0,0,3.346-1.343,6.78,6.78,0,0,0,1.7-4.873c-.018-5.3-2.661-6.418-4.877-6.427Z" transform="translate(-363.382 -760.855)" fill="#eb9c22"/>
      </g>
    </g>
  </g>
</svg>
