<?xml version="1.0" encoding="utf-8"?>
<!-- Generator: Adobe Illustrator 24.3.0, SVG Export Plug-In . SVG Version: 6.00 Build 0)  -->
<svg version="1.1" id="圖層_1" xmlns="http://www.w3.org/2000/svg" xmlns:xlink="http://www.w3.org/1999/xlink" x="0px" y="0px"
	 viewBox="0 0 31.3 25.9" style="enable-background:new 0 0 31.3 25.9;" xml:space="preserve">
<style type="text/css">
	.st0{display:none;}
	.st1{display:inline;fill:#FFFFFF;}
	.st2{display:inline;fill:none;stroke:#F6BD60;stroke-width:1.2;}
	.st3{display:inline;}
	.st4{clip-path:url(#SVGID_2_);}
	.st5{fill:none;stroke:#F6BD60;stroke-width:1.2;}
	.st6{fill:#F6BD60;}
	.st7{fill:#FFFFFF;}
	.st8{fill:none;stroke:#F5A016;stroke-width:1.2;}
	.st9{clip-path:url(#SVGID_4_);}
</style>
<g id="Icons_Like_Copy_4" transform="translate(0.6 0.674)" class="st0">
	<path id="Like-2_2_" class="st1" d="M14,22C11.4,22,2.5,14.4,2.5,8.7c0-6.1,6.9-8.6,11-3.6c0.1,0.1,0.3,0.4,0.4,0.4
		c0.2,0,0.3-0.3,0.4-0.4c4.1-5,11.3-2.5,11,3.8C25.4,14.4,16.5,22,14,22z"/>
	<path id="Like-2" class="st2" d="M14,22C11.4,22,2.5,14.4,2.5,8.7c0-6.1,6.9-8.6,11-3.6c0.1,0.1,0.3,0.4,0.4,0.4
		c0.2,0,0.3-0.3,0.4-0.4c4.1-5,11.3-2.5,11,3.8C25.4,14.4,16.5,22,14,22z"/>
	<g id="Group_37" class="st3">
		<g>
			<defs>
				<path id="SVGID_1_" d="M14,22C11.4,22,2.5,14.4,2.5,8.7c0-6.1,6.9-8.6,11-3.6c0.1,0.1,0.3,0.4,0.4,0.4c0.2,0,0.3-0.3,0.4-0.4
					c4.1-5,11.3-2.5,11,3.8C25.4,14.4,16.5,22,14,22z"/>
			</defs>
			<clipPath id="SVGID_2_">
				<use xlink:href="#SVGID_1_"  style="overflow:visible;"/>
			</clipPath>
			<g id="Group_36" class="st4">
				<g id="Group_124" transform="translate(-0.005 -2.035)">
					<g id="_Tint_Backgroud">
						<rect id="_Tint_Backgroud_background" x="2.5" y="2.4" class="st5" width="22.9" height="22.9"/>
						<rect id="Color" x="2.5" y="2.4" class="st5" width="22.9" height="22.9"/>
					</g>
				</g>
			</g>
		</g>
	</g>
</g>
<g id="Group_375" transform="translate(13.996 10.361)" class="st0">
	<g id="Union_1" transform="translate(0 -0.427)" class="st3">
		<path class="st6" d="M8,13.9c-1.1,0-2-0.9-2-2v-2H4c-1.1,0-2-0.9-2-2c0-1.1,0.9-2,2-2h2v-2c0-1.1,0.9-2,2-2c1.1,0,2,0.9,2,2v2h2
			c1.1,0,2,0.9,2,2c0,1.1-0.9,2-2,2h-2v2C10,13,9.1,13.9,8,13.9z"/>
		<path class="st7" d="M8,13.4c0.8,0,1.5-0.7,1.5-1.5V9.4H12c0.8,0,1.5-0.7,1.5-1.5c0-0.8-0.7-1.5-1.5-1.5H9.5V3.9
			c0-0.8-0.7-1.5-1.5-1.5c-0.8,0-1.5,0.7-1.5,1.5v2.5H4c-0.8,0-1.5,0.7-1.5,1.5c0,0.8,0.7,1.5,1.5,1.5h2.5v2.5
			C6.5,12.7,7.2,13.4,8,13.4 M8,14.4c-1.4,0-2.5-1.1-2.5-2.5v-1.5H4c-1.4,0-2.5-1.1-2.5-2.5c0-1.4,1.1-2.5,2.5-2.5h1.5V3.9
			c0-1.4,1.1-2.5,2.5-2.5c1.4,0,2.5,1.1,2.5,2.5v1.5H12c1.4,0,2.5,1.1,2.5,2.5c0,1.4-1.1,2.5-2.5,2.5h-1.5v1.5
			C10.5,13.3,9.4,14.4,8,14.4z"/>
	</g>
</g>
<g>
	<path id="Like-2_5_" class="st7" d="M14.6,22.7C12,22.7,3.1,15,3.1,9.3c0-6.1,6.9-8.6,11-3.6c0.1,0.1,0.3,0.4,0.4,0.4
		c0.2,0,0.3-0.3,0.4-0.4c4.1-5,11.3-2.5,11,3.8C26,15,17.1,22.7,14.6,22.7z"/>
	<path id="Like-2_4_" class="st8" d="M14.6,22.7C12,22.7,3.1,15,3.1,9.3c0-6.1,6.9-8.6,11-3.6c0.1,0.1,0.3,0.4,0.4,0.4
		c0.2,0,0.3-0.3,0.4-0.4c4.1-5,11.3-2.5,11,3.8C26,15,17.1,22.7,14.6,22.7z"/>
	<g id="Group_37_2_">
		<g>
			<defs>
				<path id="SVGID_3_" d="M14.6,22.7C12,22.7,3.1,15,3.1,9.3c0-6.1,6.9-8.6,11-3.6c0.1,0.1,0.3,0.4,0.4,0.4c0.2,0,0.3-0.3,0.4-0.4
					c4.1-5,11.3-2.5,11,3.8C26,15,17.1,22.7,14.6,22.7z"/>
			</defs>
			<clipPath id="SVGID_4_">
				<use xlink:href="#SVGID_3_"  style="overflow:visible;"/>
			</clipPath>
			<g id="Group_36_2_" class="st9">
				<g id="Group_124_2_" transform="translate(-0.005 -2.035)">
					<g id="_Tint_Backgroud_2_">
						<rect id="_Tint_Backgroud_background_2_" x="3.1" y="3.1" class="st8" width="22.9" height="22.9"/>
						<rect id="Color_2_" x="3.1" y="3.1" class="st8" width="22.9" height="22.9"/>
					</g>
				</g>
			</g>
			<use xlink:href="#SVGID_3_"  style="overflow:visible;fill:none;stroke:#F5A016;stroke-miterlimit:10;"/>
		</g>
	</g>
</g>
</svg>
