<svg xmlns="http://www.w3.org/2000/svg" width="73.003" height="72.94" viewBox="0 0 73.003 72.94">
  <g id="Group_6162" data-name="Group 6162" transform="translate(-941.024 -5021.277)">
    <path id="Path_6605" data-name="Path 6605" d="M976.978,5094.217a35.374,35.374,0,0,1-24.921-10.356,36.456,36.456,0,0,1,25.5-62.584h.006a36.672,36.672,0,0,1,25.917,10.979,36.258,36.258,0,0,1-.384,51.509,35.488,35.488,0,0,1-25.544,10.448C977.361,5094.216,977.168,5094.217,976.978,5094.217Zm.581-68.767a32.282,32.282,0,0,0-22.576,55.435,31.243,31.243,0,0,0,22.532,9.155h.069c.161,0,.323,0,.482,0a31.251,31.251,0,0,0,22.094-9.244,32.367,32.367,0,0,0-22.6-55.35Z" fill="#a59583"/>
    <path id="Path_6606" data-name="Path 6606" d="M975.569,5067.533a2.04,2.04,0,0,1-1.446-.6l-10.59-10.591a2.044,2.044,0,1,1,2.891-2.891l9.159,9.158,16.164-15.861a2.045,2.045,0,0,1,2.865,2.92L977,5066.948A2.044,2.044,0,0,1,975.569,5067.533Z" fill="#a59583"/>
  </g>
</svg>
