<svg xmlns="http://www.w3.org/2000/svg" width="57.807" height="51.936" viewBox="0 0 57.807 51.936">
  <g id="Group_6091" data-name="Group 6091" transform="translate(-911.368 -55.093)">
    <g id="Group_6090" data-name="Group 6090">
      <path id="Path_6726" data-name="Path 6726" d="M965.788,55.093H927.174a1.129,1.129,0,1,0,0,2.258h16.484v47.42h-28.9a1.13,1.13,0,0,1-1.129-1.129V58.48a1.13,1.13,0,0,1,1.129-1.129h2.258a1.129,1.129,0,1,0,0-2.258h-2.258a3.39,3.39,0,0,0-3.387,3.387v45.162a3.391,3.391,0,0,0,3.387,3.387h51.033a3.392,3.392,0,0,0,3.387-3.387V58.48A3.391,3.391,0,0,0,965.788,55.093Zm0,49.678H945.916V86.706h9.71a1.129,1.129,0,1,0,0-2.258h-9.71v-27.1h19.872a1.13,1.13,0,0,1,1.129,1.129V84.448h-1.129a1.129,1.129,0,1,0,0,2.258h1.129v16.936A1.131,1.131,0,0,1,965.788,104.771Z" fill="#a59583"/>
      <path id="Path_6727" data-name="Path 6727" d="M959.705,92.605a5,5,0,0,0-.756.058,5.545,5.545,0,1,0-3.647,7.163,4.953,4.953,0,1,0,4.4-7.221Zm-9.272,1.9a3.288,3.288,0,1,1,3.288,3.288A3.292,3.292,0,0,1,950.433,94.51Zm9.272,5.745a2.707,2.707,0,0,1-2.417-1.5,5.538,5.538,0,0,0,1.964-3.852,2.7,2.7,0,1,1,.453,5.354Z" fill="#a59583"/>
      <path id="Path_6728" data-name="Path 6728" d="M960.584,82.326a1.1,1.1,0,0,0,.293-.039l2.945-.789a1.128,1.128,0,0,0,.807-1.346l-4.605-19.806a1.129,1.129,0,0,0-1.393-.835l-3.018.809a1.127,1.127,0,0,0-1.048-.712h-3.048a1.129,1.129,0,0,0-1.128,1.086L949.6,81.017a1.131,1.131,0,0,0,1.128,1.173h4.517a1.131,1.131,0,0,0,1.128-1.167l-.361-10.847,3.5,11.353A1.129,1.129,0,0,0,960.584,82.326ZM951.9,79.932l.7-18.065h.87l.6,18.065Zm6.189-17.938L962.183,79.6l-.839.224-5.321-17.276Z" fill="#a59583"/>
      <path id="Path_6729" data-name="Path 6729" d="M918.6,99.8a9.266,9.266,0,0,0,13.092,0,1.127,1.127,0,0,0,0-1.6l-1.444-1.445a5.893,5.893,0,0,0,7.643-5.618,5.84,5.84,0,0,0-1.053-3.36,5.889,5.889,0,0,0,0-6.721,5.879,5.879,0,0,0,.965-4.371,9.811,9.811,0,0,0,3.6-7.872c0-5.078-3.354-9.209-7.477-9.209-3.127,0-5.811,2.378-6.925,5.742a5.887,5.887,0,0,0-7.6,5.629,5.84,5.84,0,0,0,1.053,3.36,5.889,5.889,0,0,0,0,6.721,5.9,5.9,0,0,0-.7,5.375,1.13,1.13,0,0,0-1.156.272,9.258,9.258,0,0,0,0,13.093Zm11.73-35.994a4.3,4.3,0,0,1,7.194,0,8.551,8.551,0,0,1,0,10.022,4.3,4.3,0,0,1-7.194,0,8.556,8.556,0,0,1,0-10.022Zm-7.61,16.456a3.627,3.627,0,0,1,0-5.125,1.128,1.128,0,0,0,0-1.6,3.626,3.626,0,0,1,3.8-5.971,11.358,11.358,0,0,0-.07,1.247c0,5.078,3.354,9.209,7.476,9.209a6.117,6.117,0,0,0,1.7-.244,3.6,3.6,0,0,1-1.058,2.48,1.13,1.13,0,0,0,0,1.6,3.627,3.627,0,0,1,0,5.125,1.13,1.13,0,0,0,0,1.6,3.626,3.626,0,0,1-5.128,5.127,1.13,1.13,0,0,0-1.6,0,3.581,3.581,0,0,1-.349.3l-5.082-5.082a3.584,3.584,0,0,1,.3-.349,1.129,1.129,0,0,0,0-1.6,3.627,3.627,0,0,1,0-5.125A1.128,1.128,0,0,0,922.716,80.265Zm-3.259,8.9,9.772,9.771a7,7,0,0,1-9.772-9.771Z" fill="#a59583"/>
      <path id="Path_6730" data-name="Path 6730" d="M926.108,79.212a1.129,1.129,0,1,0-1.129-1.13h0A1.129,1.129,0,0,0,926.108,79.212Z" fill="#a59583"/>
      <path id="Path_6731" data-name="Path 6731" d="M931.02,84.462a1.129,1.129,0,1,0-1.129-1.13h0A1.128,1.128,0,0,0,931.02,84.462Z" fill="#a59583"/>
      <path id="Path_6732" data-name="Path 6732" d="M925.939,88.074h0a1.129,1.129,0,1,0,1.129-1.13A1.128,1.128,0,0,0,925.939,88.075Z" fill="#a59583"/>
      <path id="Path_6733" data-name="Path 6733" d="M922.094,57.351a1.129,1.129,0,1,0,0-2.258h0a1.129,1.129,0,1,0,0,2.258Z" fill="#a59583"/>
      <path id="Path_6734" data-name="Path 6734" d="M960.707,84.448a1.129,1.129,0,1,0,1.129,1.129,1.128,1.128,0,0,0-1.129-1.129Z" fill="#a59583"/>
    </g>
  </g>
</svg>
