<svg xmlns="http://www.w3.org/2000/svg" width="1440" height="10" viewBox="0 0 1440 10">
  <g id="Group_206" data-name="Group 206" transform="translate(-11.5 -269.5)">
    <path id="Path_799" data-name="Path 799" d="M11.5,270.5c7.421,0,7.421,8,14.842,8s7.422-8,14.843-8,7.422,8,14.844,8,7.422-8,14.844-8,7.421,8,14.843,8,7.421-8,14.842-8,7.421,8,14.843,8,7.422-8,14.843-8,7.422,8,14.846,8,7.422-8,14.843-8,7.421,8,14.843,8,7.421-8,14.842-8,7.422,8,14.843,8,7.423-8,14.846-8,7.422,8,14.844,8,7.421-8,14.843-8,7.422,8,14.843,8,7.422-8,14.844-8,7.422,8,14.846,8,7.422-8,14.843-8,7.422,8,14.843,8,7.423-8,14.844-8,7.423,8,14.845,8,7.423-8,14.844-8,7.422,8,14.843,8,7.422-8,14.843-8,7.423,8,14.846,8,7.423-8,14.844-8,7.422,8,14.843,8,7.422-8,14.844-8,7.423,8,14.847,8,7.422-8,14.843-8,7.423,8,14.844,8,7.423-8,14.846-8,7.422,8,14.844,8,7.422-8,14.844-8,7.422,8,14.845,8,7.422-8,14.845-8,7.422,8,14.844,8,7.422-8,14.846-8,7.422,8,14.845,8,7.422-8,14.844-8,7.423,8,14.846,8,7.422-8,14.844-8,7.422,8,14.845,8,7.423-8,14.846-8,7.422,8,14.845,8,7.423-8,14.846-8,7.422,8,14.844,8,7.423-8,14.846-8,7.422,8,14.845,8,7.423-8,14.846-8,7.422,8,14.845,8,7.423-8,14.847-8,7.422,8,14.845,8,7.423-8,14.846-8,7.422,8,14.843,8,7.422-8,14.844-8,7.42,8,14.841,8,7.422-8,14.843-8,7.422,8,14.845,8,7.421-8,14.843-8,7.422,8,14.845,8,7.422-8,14.843-8,7.422,8,14.844,8,7.423-8,14.846-8,7.422,8,14.843,8,7.424-8,14.847-8,7.422,8,14.844,8,7.423-8,14.847-8,7.422,8,14.844,8,7.423-8,14.847-8,7.422,8,14.846,8,7.422-8,14.846-8,7.423,8,14.846,8,7.424-8,14.848-8,7.423,8,14.846,8,7.423-8,14.847-8,7.423,8,14.846,8,7.423-8,14.847-8,7.424,8,14.847,8,7.425-8,14.849-8,7.424,8,14.848,8,7.424-8,14.848-8,7.424,8,14.848,8,7.422-8,14.845-8,7.423,8,14.847,8,7.425-8,14.849-8,7.423,8,14.847,8,7.424-8,14.848-8,7.424,8,14.849,8,7.425-8,14.85-8,7.425,8,14.85,8,7.425-8,14.85-8,7.426,8,14.851,8,7.426-8,14.853-8,7.427,8,14.853,8" fill="none" stroke="#decdbb" stroke-miterlimit="10" stroke-width="2"/>
  </g>
</svg>
