<svg xmlns="http://www.w3.org/2000/svg" width="84.825" height="84.869" viewBox="0 0 84.825 84.869">
  <g id="Group_497" data-name="Group 497" transform="translate(173.105)">
    <path id="Path_935" data-name="Path 935" d="M-132.947,78.453a5.264,5.264,0,0,0-3.748,1.553,5.261,5.261,0,0,0-1.553,3.748,12.026,12.026,0,0,1-3.043,8.02,9.263,9.263,0,0,0,.193-1.884,9.288,9.288,0,0,0-9.277-9.278,9.289,9.289,0,0,0-9.278,9.278,9.264,9.264,0,0,0,.193,1.884,12.074,12.074,0,0,1-3.042-8.02,5.308,5.308,0,0,0-5.3-5.3,5.308,5.308,0,0,0-5.3,5.3,22.687,22.687,0,0,0,12.976,20.529v17.023c0,.008,0,.017,0,.026v27.285a1.657,1.657,0,0,0,1.657,1.656,1.656,1.656,0,0,0,1.656-1.656V122.989h14.99v19a1.657,1.657,0,0,0,1.657,1.657,1.657,1.657,0,0,0,1.657-1.657V103.137a22.833,22.833,0,0,0,4.2-3.317,22.575,22.575,0,0,0,6.665-16.066A5.308,5.308,0,0,0-132.947,78.453Zm-17.428,5.473a5.971,5.971,0,0,1,5.964,5.965,5.971,5.971,0,0,1-5.964,5.964,5.971,5.971,0,0,1-5.965-5.964A5.971,5.971,0,0,1-150.375,83.926Zm13.723,13.551a19.573,19.573,0,0,1-4.323,3.262,1.657,1.657,0,0,0-.852,1.448v17.488h-14.988V103.209a1.657,1.657,0,0,0-1.018-1.529,19.389,19.389,0,0,1-11.958-17.926,1.99,1.99,0,0,1,1.988-1.988,1.991,1.991,0,0,1,1.988,1.988,15.458,15.458,0,0,0,15.44,15.44h0a15.336,15.336,0,0,0,10.913-4.527,15.334,15.334,0,0,0,4.527-10.913,1.975,1.975,0,0,1,.582-1.406,1.974,1.974,0,0,1,1.406-.582,1.991,1.991,0,0,1,1.988,1.988A19.287,19.287,0,0,1-136.652,97.477Z" transform="translate(0 -65.449)" fill="#66ab8c"/>
    <path id="Path_936" data-name="Path 936" d="M17.243,491.75a1.657,1.657,0,1,0,1.171.485A1.664,1.664,0,0,0,17.243,491.75Z" transform="translate(-157.414 -410.238)" fill="#66ab8c"/>
    <path id="Path_937" data-name="Path 937" d="M-37.851,387.719a1.657,1.657,0,0,0-1.657,1.657v17.287a1.657,1.657,0,0,0,1.657,1.657,1.657,1.657,0,0,0,1.656-1.657V389.376A1.657,1.657,0,0,0-37.851,387.719Z" transform="translate(-111.452 -323.451)" fill="#66ab8c"/>
    <path id="Path_938" data-name="Path 938" d="M104.534,215.215a5.3,5.3,0,0,0-5.3,5.3,12.026,12.026,0,0,1-3.042,8.02,9.278,9.278,0,1,0-18.17,0,12.074,12.074,0,0,1-3.042-8.02,5.3,5.3,0,0,0-10.6,0,22.7,22.7,0,0,0,.793,5.96,1.656,1.656,0,1,0,3.2-.87,19.414,19.414,0,0,1-.677-5.09,1.988,1.988,0,1,1,3.976,0,15.458,15.458,0,0,0,15.44,15.44h0a15.456,15.456,0,0,0,15.44-15.441,1.988,1.988,0,0,1,3.976,0,19.287,19.287,0,0,1-5.695,13.722A19.507,19.507,0,0,1,96.5,237.5a1.658,1.658,0,0,0-.852,1.448v17.488H80.664V239.971a1.657,1.657,0,0,0-1.018-1.529,19.454,19.454,0,0,1-4.52-2.657,1.657,1.657,0,0,0-2.048,2.6,22.788,22.788,0,0,0,4.273,2.654v17.023c0,.008,0,.017,0,.026v4.615a1.657,1.657,0,0,0,3.313,0V259.75H95.652v2.959a1.657,1.657,0,0,0,3.313,0V239.9a22.831,22.831,0,0,0,4.2-3.317,22.577,22.577,0,0,0,6.665-16.066A5.307,5.307,0,0,0,104.534,215.215Zm-17.429,5.473a5.964,5.964,0,1,1-5.964,5.965A5.971,5.971,0,0,1,87.105,220.688Z" transform="translate(-198.116 -179.541)" fill="#66ab8c"/>
    <path id="Path_939" data-name="Path 939" d="M89.109,308.9a1.657,1.657,0,1,0-2.746,1.855l.019.028a1.657,1.657,0,1,0,2.756-1.838Z" transform="translate(-216.222 -257.092)" fill="#66ab8c"/>
    <path id="Path_940" data-name="Path 940" d="M266.325,101.55a1.656,1.656,0,0,0,1.657-1.656V97.606a1.657,1.657,0,1,0-3.314,0v2.288A1.657,1.657,0,0,0,266.325,101.55Z" transform="translate(-365.208 -80.045)" fill="#66ab8c"/>
    <path id="Path_941" data-name="Path 941" d="M266.325,167.706a1.657,1.657,0,0,0,1.657-1.657v-2.288a1.657,1.657,0,0,0-3.314,0v2.288A1.657,1.657,0,0,0,266.325,167.706Z" transform="translate(-365.208 -135.235)" fill="#66ab8c"/>
    <path id="Path_942" data-name="Path 942" d="M292.5,139.243h2.288a1.657,1.657,0,0,0,0-3.313H292.5a1.657,1.657,0,1,0,0,3.313Z" transform="translate(-387.045 -113.398)" fill="#66ab8c"/>
    <path id="Path_943" data-name="Path 943" d="M226.344,139.243h2.288a1.657,1.657,0,1,0,0-3.313h-2.288a1.657,1.657,0,1,0,0,3.313Z" transform="translate(-331.854 -113.398)" fill="#66ab8c"/>
    <path id="Path_944" data-name="Path 944" d="M162.38,5.6a1.657,1.657,0,0,0,1.656-1.657V1.657a1.657,1.657,0,1,0-3.313,0V3.945A1.657,1.657,0,0,0,162.38,5.6Z" transform="translate(-278.493)" fill="#66ab8c"/>
    <path id="Path_945" data-name="Path 945" d="M162.38,71.754a1.657,1.657,0,0,0,1.656-1.657V67.809a1.657,1.657,0,1,0-3.313,0V70.1A1.657,1.657,0,0,0,162.38,71.754Z" transform="translate(-278.493 -55.187)" fill="#66ab8c"/>
    <path id="Path_946" data-name="Path 946" d="M188.554,43.293h2.288a1.657,1.657,0,1,0,0-3.313h-2.288a1.657,1.657,0,0,0,0,3.313Z" transform="translate(-300.329 -33.353)" fill="#66ab8c"/>
    <path id="Path_947" data-name="Path 947" d="M122.4,43.293h2.288a1.657,1.657,0,1,0,0-3.313H122.4a1.657,1.657,0,1,0,0,3.313Z" transform="translate(-245.139 -33.353)" fill="#66ab8c"/>
  </g>
</svg>
