<svg xmlns="http://www.w3.org/2000/svg" width="590.203" height="1892" viewBox="0 0 590.203 1892">
  <path id="Path_934" data-name="Path 934" d="M0,0S-78.879-5.2-137.687,56.711-267.427,246.3-213.941,395.845-107.323,533.016-16.7,647.482s65.975,280.9-210.016,399.751c-176.739,95.04-170.852,199.52-188.581,280.959-18.086,457.426,574.06,542.34,574.06,542.34" transform="translate(416.703 9.5)" fill="none" stroke="#858585" stroke-linecap="round" stroke-linejoin="round" stroke-width="2" stroke-dasharray="9 15"/>
  <circle id="Ellipse_41" data-name="Ellipse 41" cx="10" cy="10" r="10" transform="translate(427.203 719)" fill="#66ab8c"/>
  <circle id="Ellipse_41-2" data-name="Ellipse 41" cx="10" cy="10" r="10" transform="translate(9.203 1241)" fill="#66ab8c"/>
  <ellipse id="Ellipse_41-3" data-name="Ellipse 41" cx="11.5" cy="11" rx="11.5" ry="11" transform="translate(567.203 1870)" fill="#66ab8c"/>
  <circle id="Ellipse_41-4" data-name="Ellipse 41" cx="10" cy="10" r="10" transform="translate(177.203 341)" fill="#66ab8c"/>
  <path id="Path_6768" data-name="Path 6768" d="M10,0A10,10,0,1,1,0,10,10,10,0,0,1,10,0Z" transform="translate(406.203)" fill="#66ab8c"/>
</svg>



