<svg id="Group_117" data-name="Group 117" xmlns="http://www.w3.org/2000/svg" width="128.472" height="55.498" viewBox="0 0 128.472 55.498">
  <path id="Path_251" data-name="Path 251" d="M902.792,54.273l.269.135c.18.09.374.194.584.313a3.285,3.285,0,0,0,.584.269q1.258.718,1.3.763a8.22,8.22,0,0,1-.853,1.393l-.9,1.437a5.776,5.776,0,0,0,.808.989q1.079,1.168,2.7,2.964a17.687,17.687,0,0,0,2.874,2.694l2.066,1.437.99.719v2.74a3.4,3.4,0,0,1-.045.629l-.045.224q-.089,0-2.335-1.707-1.707-1.258-2.111-1.615a9.211,9.211,0,0,1-1.123-1.347q-.99-1.348-2.7-3.863-1.706-2.6-1.8-2.694a34.611,34.611,0,0,0-1.976,3.143l-1.976,3.054L896.056,69.1q-3.055,3.144-3.144,3.144c-.06,0-.149-.12-.269-.36a1.062,1.062,0,0,1,.269-.853q.36-.495,2.156-2.83a28.027,28.027,0,0,0,2.246-3.414q.36-.808,2.875-5.839Q902.522,54.273,902.792,54.273Zm-14.1-.089v8.983h3.5v1.707h-3.5v8.443l.629-.359q.54-.27,1.437-.809a6.541,6.541,0,0,1,.989-.449q.09,0,.09,1.257v1.256l-1.615.809-1.527.809V81.94a56.874,56.874,0,0,1-.18,6.648,6.7,6.7,0,0,1-.449,1.167,5.852,5.852,0,0,1-.808,1.167,6.219,6.219,0,0,1-1.257.854,8.262,8.262,0,0,1-.9.407l-.269.089V85.084q0-7.1-.089-7.1a19.883,19.883,0,0,0-1.8.9,19.649,19.649,0,0,1-1.8.9V78.617l-.089-1.258,1.886-.989,1.8-.99.089-5.208v-5.3H882.67l-2.156-.09V63.168h4.311V54.184h3.863Zm10.33,21.378.089.719V77h8v-.719l.089-.629h3.773V82.03q0,2.6-.045,4t-.045,2.066a3.36,3.36,0,0,1-.09.944,3,3,0,0,1-.359,1.167,3.227,3.227,0,0,1-.629.943,2.927,2.927,0,0,1-.944.719,2.673,2.673,0,0,1-1.123.224h-.54V88.5l-4.132.092h-4.041l-.09.449a5.631,5.631,0,0,1-.36,1.078,3.23,3.23,0,0,1-1.615,1.706,3.363,3.363,0,0,1-1.077.18h-.63V75.562Zm4.132,3.144q-3.953,0-4,.045t-.045,4.087v3.953h8.084l-.089-4.043V78.8Zm6.467-7.546H897.4V69.454h12.216Z" transform="translate(-880.514 -45.524)" fill="#66ab8c"/>
  <path id="Path_250" data-name="Path 250" d="M1005.178,53.075l.09,1.168v1.167h5.57v1.707h-5.57l-.18.9a8.59,8.59,0,0,1-.359,1.258l-.27.54h2.156l.36-.539q.36-.629.449-.629t1.347.269q1.258.27,1.347.313t-.673,1.392a24.437,24.437,0,0,1-1.482,2.336q-.718.99-1.615,2.156-.9,1.078-1.886,2.156a24.382,24.382,0,0,1-2.156,2.067,14.73,14.73,0,0,1-1.976,1.527,14.255,14.255,0,0,1-1.8,1.077q-.808.45-1.615.809-.718.27-1.615.54a11.439,11.439,0,0,1-1.615.269,3.5,3.5,0,0,1-.943.134c-.03-.029-.015-.164.045-.4s.39-.48.99-.719a8.33,8.33,0,0,0,1.8-.9,11.086,11.086,0,0,0,1.976-1.257q.9-.719,2.246-1.887,1.258-1.078,1.257-1.257a3.894,3.894,0,0,0-.539-.809,9.153,9.153,0,0,1-.99-1.707l-.539-1.078.269-.359q.27-.36.36-.36t.619.54a13.634,13.634,0,0,0,1.438,1.215q.9.673,1.033.629a5.018,5.018,0,0,0,.853-1.033,16.056,16.056,0,0,0,1.347-1.888l.629-.809h-6.2l-.449.809q-.45.718-1.168,1.707a12.184,12.184,0,0,1-1.527,1.8,12.1,12.1,0,0,1-1.615,1.527l-.811.628v-.629a3.628,3.628,0,0,1,.54-1.615,14.282,14.282,0,0,0,1.078-1.8q.359-.719,1.078-2.515a27.7,27.7,0,0,0,1.078-3.143l.449-1.527H999.7q1.707,0,1.707.134a9.519,9.519,0,0,1-.539,1.393l-.54,1.347,1.078.09h1.167V56.581a25.952,25.952,0,0,1,.09-3.414q0-.09,1.258-.089Zm19.223,1.8q1.706,0,1.707.134a2.387,2.387,0,0,1-.27.674,11.8,11.8,0,0,1-.629,1.436q-.448.808-.989,1.615a7.523,7.523,0,0,1-.9,1.437q-.45.54-1.078,1.258l-.538.541.808.629a18.61,18.61,0,0,1,1.706,1.527,11.43,11.43,0,0,1,1.437,1.707l.54.806-1.078.54a8.018,8.018,0,0,1-1.167.719l-.99-1.078a19.418,19.418,0,0,0-2.064-2.106,6.7,6.7,0,0,0-1.3-1.033,4,4,0,0,0-.944.449,12.539,12.539,0,0,1-1.8.808,12.36,12.36,0,0,1-1.615.629l-.629.177-.539-.269a2.473,2.473,0,0,1-.539-.4,1.98,1.98,0,0,1,.539-.313l1.258-.629q.628-.448,1.527-1.077a3.808,3.808,0,0,0,.9-.719q0-.089-.719-.539-.808-.448-1.615-.809a7.041,7.041,0,0,0-1.436-.629q-.45-.18-.494-.4a.525.525,0,0,1,0-.312q.044-.09.943-.09a10.128,10.128,0,0,1,1.8.18,13.05,13.05,0,0,1,1.887.539,11.3,11.3,0,0,0,1.167.36q.09.09.584-.54t1.123-1.615a5.256,5.256,0,0,0,.629-1.123,22.873,22.873,0,0,0-4.042-.134h-3.956v-1.8h8.8l.09-.269.089-.269Zm-11.229,8.893-.359.539q-.09.18-.27.494a2.2,2.2,0,0,1-.269.4.382.382,0,0,0,0,.36q.18.089,3.234,1.976,2.784,1.615,4.042,2.426a21.839,21.839,0,0,0,2.336,1.347,29.583,29.583,0,0,0,2.964,1.258q1.615.628,3.5,1.257,1.615.54,1.8.629c0,.06-.119.18-.359.36l-.269.269-.99-.18a26.23,26.23,0,0,1-2.6-.449l-3.413-.9q-1.976-.628-2.067-.629l-.044.09a1.115,1.115,0,0,0-.045.4v2.56q0,3.054-.09,4.132A8.8,8.8,0,0,1,1020,81.64a3.185,3.185,0,0,1-.539.989,2.7,2.7,0,0,1-.584.584,1.283,1.283,0,0,1-.764.224h-.538v-.812h-5.839q-5.929,0-5.929.045a16.249,16.249,0,0,0,1.527.945q1.527,1.078,2.6,1.707,1.348.718,2.336,1.167,1.168.45,1.707.719l.539.18.629-.989q.36-.45,1.167-1.707.54-.808.629-.809a10.029,10.029,0,0,1,1.3.763,11.022,11.022,0,0,1,1.212.809q0,.045-.9,1.213-.808.989-1.078,1.347c-.059.18-.045.284.045.313s.583.133,1.482.313a8.94,8.94,0,0,0,1.393.269q.763.09,1.3.18l1.258.089.045.224.135.674q.089.448.179.809a6.8,6.8,0,0,1,.18,1.841q-.09.135-.763.134a8.861,8.861,0,0,1-1.615-.179q-.944-.18-2.2-.54a15.013,15.013,0,0,1-2.6-.9,24.408,24.408,0,0,1-2.515-1.167q-1.078-.54-2.2-1.168t-2.292-1.436q-1.258-.9-1.976-1.437-.9-.713-1.528-1.252l-.719-.719V86.4a20.013,20.013,0,0,1-.135,3.053,6.827,6.827,0,0,1-.4,1.258,6.544,6.544,0,0,1-.808.99,2.931,2.931,0,0,1-.989.583,3.1,3.1,0,0,1-.9.135h-.538V84.245q0-8.175-.18-8.174-.089,0-1.347.449a22.5,22.5,0,0,1-2.6.809,18.277,18.277,0,0,1-2.246.449,7.645,7.645,0,0,1-1.257.18,9.594,9.594,0,0,1-1.078-.09l-.629-.09,1.258-.36q1.258-.358,2.246-.719.9-.36,2.246-.989,1.168-.629,2.246-1.258.808-.54,1.887-1.347a18.719,18.719,0,0,0,1.707-1.527,27.671,27.671,0,0,0,1.976-2.246,24.635,24.635,0,0,0,2.156-3.414l1.078-2.066h.808q.09,0,2.246-.09Zm-2.426,4.491a.691.691,0,0,0-.179-.134q-.09-.045-.09,0a5.315,5.315,0,0,0,.808.584q.808.628,1.437,1.167a6.108,6.108,0,0,1,1.168,1.348,5.428,5.428,0,0,1,.629,1.078,3.534,3.534,0,0,1,.269.719v.269l1.347.09h1.347l.09-.27q.09-.269,1.347-.269h1.258l-1.257-.539a23.092,23.092,0,0,1-2.426-.99q-.9-.448-3.144-1.707-2.156-1.165-2.605-1.346Zm.54,3.683a13.591,13.591,0,0,0-.764-1.931,3.358,3.358,0,0,1-.449-1.257c.03-.15.03-.224,0-.224s-.134.15-.313.449a12.785,12.785,0,0,1-1.257,1.8q-1.078,1.348-1.615,1.887a5.5,5.5,0,0,0-.629.673q0,.045,2.6.045h2.7v-.269a5.532,5.532,0,0,0-.273-1.167Zm-6.2,5.208h12.486V75.08h-12.486Zm0,3.683h12.486V78.945h-12.486Z" transform="translate(-901.677 -45.314)" fill="#f48145"/>
  <g id="Group_73" data-name="Group 73" transform="translate(45.06)">
    <g id="Group_67" data-name="Group 67" transform="translate(5.113 20.832)">
      <path id="Path_218" data-name="Path 218" d="M945.716,103.875a3.271,3.271,0,0,1-3.27-3.27c0-.026,0-.052,0-.078l.719-30.541a.8.8,0,0,1,1.606.038l-.719,30.541a1.666,1.666,0,1,0,3.33.144,1.42,1.42,0,0,0,0-.144l-.719-30.541a.8.8,0,0,1,1.606-.038l.719,30.541a3.271,3.271,0,0,1-3.193,3.347h-.079Z" transform="translate(-942.446 -69.209)" fill="#f6bd60"/>
    </g>
    <g id="Group_68" data-name="Group 68" transform="translate(25.33 19.959)">
      <path id="Path_219" data-name="Path 219" d="M970.673,103.671A3.271,3.271,0,0,1,967.4,100.4c0-.026,0-.051,0-.077l.74-31.406a.8.8,0,0,1,.8-.784h.019a.8.8,0,0,1,.781.821l-.74,31.409a1.667,1.667,0,1,0,3.33.156q0-.078,0-.156l-.74-31.409a.8.8,0,0,1,.781-.821h.019a.8.8,0,0,1,.8.784l.741,31.406a3.272,3.272,0,0,1-3.194,3.347h-.072Z" transform="translate(-967.402 -68.132)" fill="#f6bd60"/>
    </g>
    <g id="Group_69" data-name="Group 69" transform="translate(0 0.763)">
      <path id="Path_220" data-name="Path 220" d="M946.267,66.1a.8.8,0,0,1-.242-1.569c3.055-.966,5.272-4.8,5.272-9.128,0-5.164-3.041-9.364-6.778-9.364s-6.778,4.2-6.778,9.364c0,4.323,2.217,8.163,5.272,9.128a.8.8,0,1,1-.484,1.531c-3.765-1.19-6.393-5.573-6.393-10.659,0-6.049,3.761-10.971,8.385-10.971s8.386,4.922,8.386,10.971c0,5.086-2.629,9.469-6.394,10.659A.8.8,0,0,1,946.267,66.1Z" transform="translate(-936.135 -44.437)" fill="#f6bd60"/>
    </g>
    <g id="Group_70" data-name="Group 70" transform="translate(21.48)">
      <path id="Path_221" data-name="Path 221" d="M969.771,65.3a7.13,7.13,0,0,1-7.121-7.121v-13.9a.8.8,0,0,1,1.606,0v13.9a5.515,5.515,0,1,0,11.03.107V44.278a.8.8,0,0,1,1.606,0v13.9A7.13,7.13,0,0,1,969.771,65.3Z" transform="translate(-962.65 -43.495)" fill="#f6bd60"/>
    </g>
    <g id="Group_71" data-name="Group 71" transform="translate(25.691)">
      <path id="Path_222" data-name="Path 222" d="M968.651,60.665a.8.8,0,0,1-.8-.8V44.278a.8.8,0,0,1,1.606,0V59.862A.8.8,0,0,1,968.651,60.665Z" transform="translate(-967.848 -43.495)" fill="#f6bd60"/>
    </g>
    <g id="Group_72" data-name="Group 72" transform="translate(29.906)">
      <path id="Path_223" data-name="Path 223" d="M973.852,60.665a.8.8,0,0,1-.8-.8V44.278a.8.8,0,0,1,1.606,0V59.862a.8.8,0,0,1-.8.8Z" transform="translate(-973.05 -43.495)" fill="#f6bd60"/>
    </g>
  </g>
</svg>
