<svg xmlns="http://www.w3.org/2000/svg" width="13.869" height="18.66" viewBox="0 0 13.869 18.66">
  <g id="Group_5663" data-name="Group 5663" transform="translate(-1846.799 5252.779)">
    <path id="Path_1016" data-name="Path 1016" d="M1860.634-5250.268a5.347,5.347,0,0,1-1.069,1.867c-.119.179-.26.171-.42.059q-1.511-1.069-3.023-2.135c-.176-.124-.165-.264-.054-.422a5.325,5.325,0,0,1,1.461-1.647,1.681,1.681,0,0,1,1.171-.2,3.525,3.525,0,0,1,1.078.418h0a2.189,2.189,0,0,1,.624.7A2.021,2.021,0,0,1,1860.634-5250.268Z" />
    <path id="Path_1017" data-name="Path 1017" d="M1847.129-5234.146c-.257.077-.342-.02-.329-.2.1-1.248.19-2.5.3-3.742.021-.236.22-.4.352-.588q3.688-5.233,7.37-10.473c.253-.362.439-.381.783-.125.872.649,1.766,1.272,2.663,1.886.3.2.339.37.123.674q-3.8,5.364-7.59,10.741a1.236,1.236,0,0,1-.512.448q-1.516.666-3.03,1.337C1847.217-5234.174,1847.174-5234.159,1847.129-5234.146Z" />
  </g>
</svg>
