<svg xmlns="http://www.w3.org/2000/svg" width="138" height="88.416" viewBox="0 0 138 88.416">
  <g id="Group_518" data-name="Group 518" transform="translate(-478 -626.792)">
    <g id="Group_515" data-name="Group 515" transform="translate(453 518.792)">
      <path id="Path_964" data-name="Path 964" d="M25,176.7V127.714a5.382,5.382,0,0,0,.7-.507Q34.96,117.96,44.208,108.7a5.382,5.382,0,0,0,.507-.7h98.571a5.381,5.381,0,0,0,.507.7q9.247,9.263,18.511,18.511a5.382,5.382,0,0,0,.7.507V176.7a5.382,5.382,0,0,0-.7.507q-9.263,9.247-18.511,18.511a5.38,5.38,0,0,0-.507.7H44.714a5.381,5.381,0,0,0-.507-.7Q34.96,186.455,25.7,177.208A5.382,5.382,0,0,0,25,176.7Zm68.967,2.479c15.113-.457,26.848-11.822,26.906-26.9a26.879,26.879,0,1,0-53.758-.067C67.153,167.2,78.821,178.7,93.967,179.18Zm-24.24-60.057c.495,0,.991.027,1.483-.005,1.165-.075,2.118-.712,2.152-1.822.034-1.129-.928-1.808-2.068-1.9a17.706,17.706,0,0,0-3.259.009c-1.01.11-1.893.508-1.912,1.8-.019,1.374.88,1.749,1.974,1.9A12.253,12.253,0,0,0,69.727,119.123Zm55.828-.006v-.007a8.6,8.6,0,0,0,1.775-.023c.882-.191,1.651-.55,1.725-1.69a1.7,1.7,0,0,0-1.594-1.945,10.378,10.378,0,0,0-3.829.026c-.732.179-1.267,1.163-1.891,1.785a13.2,13.2,0,0,0,2.061,1.807C124.245,119.328,124.961,119.117,125.555,119.117Zm-69.916-3.839-.013.115a12.748,12.748,0,0,0-1.788.016c-.973.139-1.78.735-1.669,1.719a2.24,2.24,0,0,0,1.255,1.652,14.97,14.97,0,0,0,4.495.081,2.165,2.165,0,0,0,1.4-1.586c.007-.553-.776-1.307-1.392-1.625A7.329,7.329,0,0,0,55.639,115.278Zm28.144-.015-.017.131c-.646,0-1.417-.223-1.911.052-.749.417-1.666,1.1-1.815,1.821-.1.472.963,1.617,1.624,1.723A12.463,12.463,0,0,0,85.9,118.8a2.013,2.013,0,0,0,1.221-1.489,2.213,2.213,0,0,0-1.068-1.626A7.144,7.144,0,0,0,83.783,115.263Zm27.852,3.939.008-.088c.547,0,1.212.2,1.616-.043a13.665,13.665,0,0,0,2-1.742c-.609-.64-1.124-1.653-1.849-1.837a8.863,8.863,0,0,0-3.84-.016,2.568,2.568,0,0,0-1.546,1.624,1.466,1.466,0,0,0,1.422,1.843C110.172,119.044,110.9,119.116,111.636,119.2Zm-14.163.078.033-.168c.6,0,1.307.207,1.76-.047a4.09,4.09,0,0,0,1.908-1.755c.36-1.015-.685-1.687-1.526-1.759a18.407,18.407,0,0,0-4.505.2A1.95,1.95,0,0,0,94,117.187a1.925,1.925,0,0,0,.943,1.489A10.7,10.7,0,0,0,97.473,119.28ZM35.832,145.463h0c0-.646.217-1.408-.052-1.909a3.719,3.719,0,0,0-1.749-1.729c-.354-.126-1.5.774-1.583,1.317a14.846,14.846,0,0,0,.013,4.491,2.25,2.25,0,0,0,1.655,1.3c.966.1,1.573-.7,1.7-1.681A14.3,14.3,0,0,0,35.832,145.463ZM151.9,145.28l.256.076c0,.546-.016,1.093,0,1.639a1.853,1.853,0,0,0,1.62,1.975,1.536,1.536,0,0,0,1.822-1.517,16.506,16.506,0,0,0-.039-4.355,1.471,1.471,0,0,0-2.738-.618A9.189,9.189,0,0,0,151.9,145.28ZM36.09,159.107l-.261-.071a12.6,12.6,0,0,0-.019-1.93c-.151-.961-.757-1.776-1.742-1.624a2.274,2.274,0,0,0-1.611,1.351,14.2,14.2,0,0,0-.022,4.485,1.487,1.487,0,0,0,2.756.594A9.242,9.242,0,0,0,36.09,159.107Zm116.075-.122a4.64,4.64,0,0,0,.051,1.907c.343.675,1,1.523,1.624,1.621a2.163,2.163,0,0,0,1.711-1.3,12.661,12.661,0,0,0-.006-4.33,2.364,2.364,0,0,0-1.709-1.391c-.959-.114-1.551.723-1.658,1.707A16.659,16.659,0,0,0,152.165,158.986Zm-84.627,30.17.018-.141c.645,0,1.406.216,1.9-.054A3.348,3.348,0,0,0,71,187.271c.136-.421-.5-1.56-.866-1.593a25.654,25.654,0,0,0-5.047.052c-.39.041-.983.925-.959,1.395a2.18,2.18,0,0,0,1,1.578A8.414,8.414,0,0,0,67.538,189.156Zm52.853-.134v-.006c.644,0,1.4.213,1.905-.053a3.017,3.017,0,0,0,1.55-1.653,2.037,2.037,0,0,0-1.162-1.658,21.752,21.752,0,0,0-4.333-.129c-1.058.027-1.432.812-1.413,1.722A1.774,1.774,0,0,0,118.609,189,11.041,11.041,0,0,0,120.391,189.021Zm-66.136.148.024-.155a6.459,6.459,0,0,0,1.771-.03c.869-.258,2.054-.612,1.806-1.728a2.791,2.791,0,0,0-1.728-1.833,11.842,11.842,0,0,0-4.067.2,1.719,1.719,0,0,0-1.083,1.272,2.366,2.366,0,0,0,.888,1.766A7.294,7.294,0,0,0,54.255,189.169Zm26.694-.146v.011a8.88,8.88,0,0,0,1.341-.011c1.1-.17,1.99-.581,1.947-1.945-.041-1.294-.924-1.672-1.962-1.766a7.5,7.5,0,0,0-2.959.053c-.81.274-1.424,1.129-2.124,1.728a12.7,12.7,0,0,0,2,1.882C79.621,189.241,80.353,189.023,80.949,189.023Zm13.021,0v-.005c.594,0,1.32.216,1.753-.048a11.547,11.547,0,0,0,1.907-1.819c-.631-.615-1.168-1.551-1.915-1.769a6.413,6.413,0,0,0-3.373-.006c-.758.213-1.322,1.119-1.973,1.715a14.462,14.462,0,0,0,2,1.888C92.745,189.231,93.426,189.025,93.97,189.025Zm13.215,0c.547,0,1.227.206,1.612-.044a14.451,14.451,0,0,0,2.01-1.872c-.646-.6-1.2-1.515-1.959-1.727a8.67,8.67,0,0,0-3.4-.038,1.716,1.716,0,0,0-1.694,1.871c.032,1.232.849,1.594,1.8,1.794A7.851,7.851,0,0,0,107.185,189.024Zm26.527.042v-.033a8.567,8.567,0,0,0,1.482-.015c.944-.168,1.8-.473,1.914-1.664a1.579,1.579,0,0,0-1.565-1.9,10.707,10.707,0,0,0-3.659-.036,2.944,2.944,0,0,0-1.745,1.836c-.276,1.034.844,1.432,1.66,1.692A7.649,7.649,0,0,0,133.712,189.066ZM32.12,132.786c0,1.414.807,2.666,1.768,2.735.935.066,1.761-1.083,1.989-2.509.084-.524.653-.961.778-1.491a2.632,2.632,0,0,0-.033-1.841,2.074,2.074,0,0,0-1.717-.7C33.578,129.222,32.123,131.392,32.12,132.786Zm123.753.316c.055-2.089-1.157-3.046-2.386-3.97a1.3,1.3,0,0,0-2.031.411,3.56,3.56,0,0,0-.021,2.1,4.79,4.79,0,0,0,.745,1.8,24.232,24.232,0,0,0,1.786,2.082,20.032,20.032,0,0,0,1.667-1.613A1.62,1.62,0,0,0,155.873,133.1ZM32.118,171.711c-.118,1.579,1.081,2.529,2.207,3.474a1.456,1.456,0,0,0,2.219-.242,1.515,1.515,0,0,0,.009-2.248,2.614,2.614,0,0,1-.683-1.374c-.179-1.286-1.018-2.437-1.918-2.427C32.991,168.9,32.142,170.142,32.118,171.711Zm123.762-.11c-.008-1.416-.835-2.661-1.8-2.706-.928-.043-1.719,1.089-1.961,2.537-.088.524-.672.957-.793,1.486a2.593,2.593,0,0,0,.066,1.841,2.067,2.067,0,0,0,1.727.668C154.472,175.149,155.888,173.005,155.88,171.6ZM47.144,120.582c-.439-.471-.772-1.119-1.261-1.274a2.281,2.281,0,0,0-1.828.219,26.693,26.693,0,0,0-2.884,2.8,1.436,1.436,0,0,0,.094,2.224,1.465,1.465,0,0,0,2.327.077c.96-.938,1.917-1.88,2.842-2.851A7.18,7.18,0,0,0,47.144,120.582Zm91.406-5.2c-1.5-.007-2.9.83-2.78,1.817.167,1.392,1.23,1.82,2.514,1.971.476.056.884.58,1.369.69.584.132,1.4.293,1.78,0a2.224,2.224,0,0,0,.788-1.783C141.951,116.741,139.9,115.384,138.549,115.378Zm2.939,67.892c.406.493.712,1.212,1.2,1.362a2.347,2.347,0,0,0,1.855-.333,19.173,19.173,0,0,0,2.651-2.593,1.518,1.518,0,0,0-.045-2.327,1.451,1.451,0,0,0-2.3-.033c-.916.905-1.844,1.8-2.728,2.736A5.815,5.815,0,0,0,141.488,183.269ZM46.3,182.914a2.374,2.374,0,0,0-.392-.792c-.918-.976-1.879-1.912-2.841-2.846-.676-.656-1.524-.745-2.034.016-.381.567-.708,1.718-.41,2.091a17.258,17.258,0,0,0,3.423,3.228C44.995,185.288,46.253,184.389,46.3,182.914Zm101-55.715c1.549.025,2.463-1.242,1.779-2.278a9.967,9.967,0,0,0-2.589-2.764c-.44-.3-1.606.062-2.18.48-.746.544-.495,1.39.135,2.032.692.706,1.377,1.422,2.1,2.092A3.017,3.017,0,0,0,147.3,127.2Z" fill="#f48145"/>
      <path id="Path_965" data-name="Path 965" d="M44.714,108a5.382,5.382,0,0,1-.507.7Q34.96,117.96,25.7,127.208a5.382,5.382,0,0,1-.7.507V108Z" fill="#fff"/>
      <path id="Path_966" data-name="Path 966" d="M440.714,127.714a5.381,5.381,0,0,1-.7-.507q-9.263-9.247-18.511-18.511A5.384,5.384,0,0,1,421,108h19.714Z" transform="translate(-277.714)" fill="#fff"/>
      <path id="Path_967" data-name="Path 967" d="M421,357.714a5.385,5.385,0,0,1,.507-.7q9.247-9.263,18.511-18.51a5.38,5.38,0,0,1,.7-.507v19.714Z" transform="translate(-277.714 -161.299)" fill="#fff"/>
      <path id="Path_968" data-name="Path 968" d="M25,338a5.381,5.381,0,0,1,.7.507q9.263,9.247,18.511,18.51a5.383,5.383,0,0,1,.507.7H25Z" transform="translate(0 -161.299)" fill="#fff"/>
      <path id="Path_969" data-name="Path 969" d="M166.275,136.331a12.254,12.254,0,0,1-1.63-.013c-1.094-.148-1.993-.523-1.974-1.9.018-1.3.9-1.693,1.912-1.8a17.7,17.7,0,0,1,3.259-.009c1.14.088,2.1.767,2.068,1.9-.033,1.11-.987,1.747-2.152,1.822C167.266,136.358,166.77,136.331,166.275,136.331Z" transform="translate(-96.548 -17.208)" fill="#fff"/>
      <path id="Path_970" data-name="Path 970" d="M352.685,136.224c-.594,0-1.31.211-1.753-.047a13.2,13.2,0,0,1-2.061-1.807c.624-.622,1.159-1.606,1.891-1.785a10.378,10.378,0,0,1,3.829-.026,1.7,1.7,0,0,1,1.594,1.945c-.074,1.14-.842,1.5-1.725,1.69a8.6,8.6,0,0,1-1.775.023Z" transform="translate(-227.13 -17.107)" fill="#fff"/>
      <path id="Path_971" data-name="Path 971" d="M119.4,132.365a7.329,7.329,0,0,1,2.292.372c.616.318,1.4,1.072,1.392,1.625a2.165,2.165,0,0,1-1.4,1.586,14.971,14.971,0,0,1-4.495-.081,2.24,2.24,0,0,1-1.255-1.652c-.111-.984.7-1.58,1.669-1.719a12.745,12.745,0,0,1,1.788-.016Z" transform="translate(-63.763 -17.087)" fill="#fff"/>
      <path id="Path_972" data-name="Path 972" d="M212.994,132.316a7.144,7.144,0,0,1,2.274.426,2.213,2.213,0,0,1,1.068,1.626,2.013,2.013,0,0,1-1.221,1.489,12.463,12.463,0,0,1-4.239.186c-.66-.106-1.721-1.251-1.624-1.723.148-.717,1.066-1.4,1.815-1.821.494-.274,1.264-.052,1.91-.052Z" transform="translate(-129.211 -17.053)" fill="#fff"/>
      <path id="Path_973" data-name="Path 973" d="M306.421,136.279c-.731-.085-1.463-.158-2.192-.259a1.466,1.466,0,0,1-1.422-1.843,2.568,2.568,0,0,1,1.546-1.624,8.863,8.863,0,0,1,3.84.016c.725.184,1.24,1.2,1.849,1.837a13.663,13.663,0,0,1-2,1.742c-.4.241-1.068.043-1.616.043Z" transform="translate(-194.785 -17.077)" fill="#fff"/>
      <path id="Path_974" data-name="Path 974" d="M259.462,136.87a10.7,10.7,0,0,1-2.531-.6,1.925,1.925,0,0,1-.943-1.489,1.95,1.95,0,0,1,1.143-1.436,18.407,18.407,0,0,1,4.505-.2c.841.072,1.886.744,1.526,1.759a4.09,4.09,0,0,1-1.908,1.755c-.453.254-1.164.047-1.76.047Z" transform="translate(-161.99 -17.59)" fill="#fff"/>
      <path id="Path_975" data-name="Path 975" d="M52.943,224.85a14.3,14.3,0,0,1-.014,1.786c-.125.981-.732,1.784-1.7,1.681a2.25,2.25,0,0,1-1.655-1.3,14.846,14.846,0,0,1-.013-4.491c.083-.543,1.229-1.443,1.583-1.317A3.719,3.719,0,0,1,52.9,222.94c.269.5.052,1.263.052,1.909Z" transform="translate(-17.111 -79.387)" fill="#fff"/>
      <path id="Path_976" data-name="Path 976" d="M449.851,224.528a9.188,9.188,0,0,1,.924-2.8,1.471,1.471,0,0,1,2.738.618,16.506,16.506,0,0,1,.039,4.355,1.536,1.536,0,0,1-1.822,1.517,1.853,1.853,0,0,1-1.62-1.975c-.02-.546,0-1.093,0-1.639Z" transform="translate(-297.947 -79.248)" fill="#fff"/>
      <path id="Path_977" data-name="Path 977" d="M53.151,270.543a9.242,9.242,0,0,1-.9,2.8,1.487,1.487,0,0,1-2.756-.594,14.2,14.2,0,0,1,.022-4.485,2.274,2.274,0,0,1,1.611-1.351c.985-.152,1.591.663,1.742,1.624a12.6,12.6,0,0,1,.019,1.93Z" transform="translate(-17.061 -111.436)" fill="#fff"/>
      <path id="Path_978" data-name="Path 978" d="M450.541,270.471a16.58,16.58,0,0,1,.012-1.783c.108-.984.7-1.821,1.658-1.707a2.364,2.364,0,0,1,1.709,1.391,12.66,12.66,0,0,1,.006,4.33,2.163,2.163,0,0,1-1.711,1.3c-.626-.1-1.281-.945-1.624-1.621A4.635,4.635,0,0,1,450.541,270.471Z" transform="translate(-298.376 -111.486)" fill="#fff"/>
      <path id="Path_979" data-name="Path 979" d="M159.392,371.293a8.415,8.415,0,0,1-2.415-.453,2.18,2.18,0,0,1-1-1.578c-.024-.47.57-1.354.959-1.395a25.652,25.652,0,0,1,5.047-.052c.364.034,1,1.173.866,1.593a3.348,3.348,0,0,1-1.536,1.69c-.5.27-1.26.054-1.9.054Z" transform="translate(-91.854 -182.138)" fill="#fff"/>
      <path id="Path_980" data-name="Path 980" d="M336.244,370.927a11.041,11.041,0,0,1-1.782-.018,1.774,1.774,0,0,1-1.671-1.759c-.019-.91.355-1.7,1.413-1.722a21.753,21.753,0,0,1,4.333.129,2.037,2.037,0,0,1,1.162,1.658,3.016,3.016,0,0,1-1.55,1.653c-.5.266-1.261.053-1.905.053Z" transform="translate(-215.852 -181.906)" fill="#fff"/>
      <path id="Path_981" data-name="Path 981" d="M115.245,370.7a7.294,7.294,0,0,1-2.39-.5,2.366,2.366,0,0,1-.888-1.766,1.719,1.719,0,0,1,1.083-1.272,11.842,11.842,0,0,1,4.067-.2,2.791,2.791,0,0,1,1.728,1.833c.248,1.115-.938,1.469-1.806,1.728a6.459,6.459,0,0,1-1.771.03Z" transform="translate(-60.99 -181.531)" fill="#fff"/>
      <path id="Path_982" data-name="Path 982" d="M203.487,370.25c-.6,0-1.328.219-1.76-.048a12.7,12.7,0,0,1-2-1.882c.7-.6,1.314-1.453,2.124-1.728a7.5,7.5,0,0,1,2.959-.053c1.038.094,1.922.472,1.962,1.766.043,1.364-.843,1.774-1.947,1.945a8.88,8.88,0,0,1-1.341.011Z" transform="translate(-122.538 -181.228)" fill="#fff"/>
      <path id="Path_983" data-name="Path 983" d="M247.446,370.171c-.545,0-1.225.206-1.605-.044a14.462,14.462,0,0,1-2-1.888c.651-.6,1.215-1.5,1.973-1.715a6.413,6.413,0,0,1,3.373.006c.747.218,1.284,1.154,1.915,1.769a11.547,11.547,0,0,1-1.907,1.819c-.433.264-1.159.048-1.753.048Z" transform="translate(-153.476 -181.146)" fill="#fff"/>
      <path id="Path_984" data-name="Path 984" d="M292.077,370.258a7.954,7.954,0,0,1-1.637-.018c-.948-.2-1.766-.562-1.8-1.794a1.716,1.716,0,0,1,1.694-1.871,8.67,8.67,0,0,1,3.4.038c.755.212,1.313,1.126,1.959,1.727a14.451,14.451,0,0,1-2.01,1.872C293.3,370.463,292.624,370.257,292.077,370.258Z" transform="translate(-184.892 -181.233)" fill="#fff"/>
      <path id="Path_985" data-name="Path 985" d="M380.462,370.474a7.649,7.649,0,0,1-1.912-.122c-.816-.26-1.936-.658-1.66-1.692a2.944,2.944,0,0,1,1.745-1.836,10.706,10.706,0,0,1,3.659.036,1.579,1.579,0,0,1,1.565,1.9c-.116,1.191-.97,1.5-1.914,1.664a8.568,8.568,0,0,1-1.482.015Z" transform="translate(-246.75 -181.408)" fill="#fff"/>
      <path id="Path_986" data-name="Path 986" d="M48.837,182c0-1.394,1.458-3.564,2.784-3.809a2.074,2.074,0,0,1,1.717.7,2.632,2.632,0,0,1,.033,1.841c-.125.529-.694.967-.778,1.491-.227,1.426-1.054,2.575-1.989,2.509C49.644,184.665,48.834,183.412,48.837,182Z" transform="translate(-16.717 -49.212)" fill="#fff"/>
      <path id="Path_987" data-name="Path 987" d="M452.368,181.961a1.62,1.62,0,0,1-.24.808,20.034,20.034,0,0,1-1.667,1.613,24.235,24.235,0,0,1-1.786-2.082,4.79,4.79,0,0,1-.745-1.8,3.56,3.56,0,0,1,.021-2.1,1.3,1.3,0,0,1,2.031-.411C451.211,178.915,452.423,179.872,452.368,181.961Z" transform="translate(-296.496 -48.859)" fill="#fff"/>
      <path id="Path_988" data-name="Path 988" d="M48.81,314.679c.024-1.568.874-2.806,1.835-2.817.9-.01,1.738,1.141,1.918,2.427a2.614,2.614,0,0,0,.683,1.374,1.515,1.515,0,0,1-.009,2.248,1.456,1.456,0,0,1-2.219.242C49.891,317.207,48.692,316.258,48.81,314.679Z" transform="translate(-16.692 -142.968)" fill="#fff"/>
      <path id="Path_989" data-name="Path 989" d="M452.166,314.568c.008,1.4-1.407,3.549-2.758,3.827a2.067,2.067,0,0,1-1.727-.668,2.593,2.593,0,0,1-.066-1.841c.122-.529.706-.962.793-1.486.242-1.448,1.033-2.58,1.961-2.537C451.331,311.906,452.158,313.151,452.166,314.568Z" transform="translate(-296.286 -142.968)" fill="#fff"/>
      <path id="Path_990" data-name="Path 990" d="M83.974,146.907a7.18,7.18,0,0,1-.71,1.2c-.926.971-1.882,1.914-2.842,2.851a1.465,1.465,0,0,1-2.327-.077A1.437,1.437,0,0,1,78,148.654a26.692,26.692,0,0,1,2.884-2.8,2.281,2.281,0,0,1,1.828-.219C83.2,145.789,83.535,146.436,83.974,146.907Z" transform="translate(-36.831 -26.325)" fill="#fff"/>
      <path id="Path_991" data-name="Path 991" d="M398.6,132.7c1.351.007,3.4,1.363,3.67,2.7a2.224,2.224,0,0,1-.788,1.783c-.375.292-1.2.131-1.78,0-.484-.11-.893-.634-1.369-.69-1.284-.15-2.347-.579-2.514-1.971C395.7,133.53,397.1,132.692,398.6,132.7Z" transform="translate(-260.05 -17.322)" fill="#fff"/>
      <path id="Path_992" data-name="Path 992" d="M414.981,349.487a5.815,5.815,0,0,1,.632-1.189c.883-.936,1.811-1.831,2.728-2.736a1.451,1.451,0,0,1,2.3.033,1.518,1.518,0,0,1,.045,2.327,19.172,19.172,0,0,1-2.651,2.593,2.347,2.347,0,0,1-1.855.333C415.693,350.7,415.387,349.98,414.981,349.487Z" transform="translate(-273.493 -166.218)" fill="#fff"/>
      <path id="Path_993" data-name="Path 993" d="M82.719,349.029c-.051,1.475-1.309,2.374-2.254,1.7a17.257,17.257,0,0,1-3.423-3.228c-.3-.373.03-1.524.41-2.091.51-.76,1.359-.671,2.034-.016.962.934,1.922,1.87,2.841,2.846A2.374,2.374,0,0,1,82.719,349.029Z" transform="translate(-36.416 -166.115)" fill="#fff"/>
      <path id="Path_994" data-name="Path 994" d="M426.346,160.179a3.017,3.017,0,0,1-.753-.438c-.726-.67-1.41-1.386-2.1-2.092-.63-.642-.881-1.488-.135-2.032.575-.419,1.741-.778,2.18-.48a9.967,9.967,0,0,1,2.589,2.764C428.809,158.937,427.895,160.2,426.346,160.179Z" transform="translate(-279.045 -32.98)" fill="#fff"/>
      <path id="Path_995" data-name="Path 995" d="M280.626,286.308c-.66.533-1.157,1.229-1.544,1.173-.5-.072-.905-.749-1.352-1.165.4-.422.789-1.174,1.195-1.181C279.4,285.126,279.89,285.764,280.626,286.308Z" transform="translate(-177.24 -124.224)" fill="#fff"/>
    </g>
    <g id="Group_516" data-name="Group 516" transform="translate(0 91)">
      <circle id="Ellipse_18" data-name="Ellipse 18" cx="29" cy="29" r="29" transform="translate(518 551)" fill="#fff"/>
      <text id="_20元" data-name="20元" transform="translate(529 596)" fill="#f48145" font-size="17" font-family="SegoeUI, Segoe UI" letter-spacing="0.02em"><tspan x="0" y="0">20</tspan><tspan y="0" font-family="YuGothicUI-Regular, Yu Gothic UI">元</tspan></text>
      <text id="M" transform="translate(537 577)" fill="#f48145" font-size="24" font-family="SegoeUIBlack, Segoe UI" letter-spacing="0.02em"><tspan x="0" y="0">M</tspan></text>
    </g>
  </g>
</svg>
