<svg xmlns="http://www.w3.org/2000/svg" width="35.737" height="31.88" viewBox="0 0 35.737 31.88">
  <path id="_001-shopping-cart" data-name="001-shopping-cart" d="M10.33,52.157a1.176,1.176,0,0,1,0-2.352c4.339.015,15.784,0,20.261.007a2.6,2.6,0,0,0,2.548-2.026l2.542-11.009a2.116,2.116,0,0,0-2.053-2.592c-1.8,0-17.09-.069-24.921-.1L7.467,29.478a2.535,2.535,0,0,0-2.443-1.869H1.047a1.048,1.048,0,0,0,0,2.1H5.024a.436.436,0,0,1,.42.321l4.767,17.688A3.27,3.27,0,0,0,7.06,51.038a3.287,3.287,0,0,0,3.271,3.214h1.527a3.667,3.667,0,1,0,6.624,0H25.1a3.667,3.667,0,1,0,6.6-.055,1.047,1.047,0,0,0-.334-2.04Zm6.411,3.666a1.571,1.571,0,1,1-1.573-1.571h0A1.573,1.573,0,0,1,16.741,55.823Zm11.667,1.571a1.571,1.571,0,0,1-.025-3.142h.051a1.571,1.571,0,0,1-.026,3.142Zm5.228-21.107a.017.017,0,0,1,0,.018l-1.071,4.639H28.942l.618-4.681,4.061.016A.017.017,0,0,1,33.636,36.287Zm-10.8,11.429V43.039h3.715l-.617,4.678Zm-5.194,0-.622-4.678h3.722v4.678Zm-4.822,0h0a.568.568,0,0,1-.547-.418l-1.148-4.26h3.785l.622,4.678Zm3.921-6.773-.63-4.735,4.63.019v4.716Zm6.1,0V36.236l4.611.019-.619,4.689ZM14,36.2l.631,4.743h-4.07L9.273,36.181Zm16.6,11.516H28.048l.617-4.678h3.42L31.1,47.314A.517.517,0,0,1,30.592,47.717Z" transform="translate(0 -27.609)" fill="#858585"/>
</svg>
