<svg xmlns="http://www.w3.org/2000/svg" width="36.169" height="36.006" viewBox="0 0 36.169 36.006">
  <g id="Group_473" data-name="Group 473" transform="matrix(0.695, 0.719, -0.719, 0.695, -1039.041, -580.262)">
    <g id="Component_3_2" data-name="Component 3 – 2" transform="translate(1153.582 -359.249)">
      <g id="Component_1_1" data-name="Component 1 – 1" transform="translate(3.913)">
        <g id="Component_2_1" data-name="Component 2 – 1">
          <path id="Path_19" data-name="Path 19" d="M1044.208,72.219c-.25-1.474-.5-2.947-.746-4.422a.476.476,0,0,0-.26-.376,3.54,3.54,0,0,1-1.493-1.94,5.382,5.382,0,0,1-.164-3.644,3.187,3.187,0,0,1,.5-.942,1.532,1.532,0,0,1,2.238-.307,3.722,3.722,0,0,1,1.319,1.836,5.339,5.339,0,0,1,.113,3.781,3.337,3.337,0,0,1-.518.867.528.528,0,0,0-.122.468q.743,4.348,1.474,8.7a1.684,1.684,0,0,1,.023.461.772.772,0,0,1-.691.679.855.855,0,0,1-.874-.542,2.392,2.392,0,0,1-.075-.341q-.363-2.138-.725-4.277Z" transform="translate(-1041.3 -59.966)" fill="#438b6b"/>
          <path id="Path_20" data-name="Path 20" d="M1143.642,64.083c-.2-.042-.356-.075-.514-.111a.592.592,0,0,1-.527-.819q.579-2.69,1.16-5.379c.016-.076.029-.153.05-.227.071-.259.241-.376.465-.324s.32.22.262.492c-.223,1.044-.451,2.087-.674,3.131a.4.4,0,0,0,.287.545c.318.1.493-.017.573-.382.223-1.024.442-2.049.665-3.073.067-.309.258-.437.516-.346s.285.277.232.517q-.336,1.521-.658,3.045c-.068.318.026.507.273.585.307.1.489,0,.559-.317.226-1.024.443-2.049.668-3.073.023-.1.043-.237.114-.287a.6.6,0,0,1,.4-.131c.107.023.216.176.265.3a.644.644,0,0,1-.026.34q-.574,2.676-1.154,5.351c-.135.623-.312.736-.938.6l-.369-.08-.085.4q-.958,4.44-1.919,8.879a1.651,1.651,0,0,1-.173.489.812.812,0,0,1-.945.323.832.832,0,0,1-.555-.942c.187-.9.386-1.8.58-2.7q.7-3.23,1.394-6.461C1143.591,64.321,1143.611,64.227,1143.642,64.083Z" transform="translate(-1132.605 -57.209)" fill="#438b6b"/>
        </g>
      </g>
      <g id="Component_7_1" data-name="Component 7 – 1" transform="translate(0 8.702)">
        <path id="Path_21" data-name="Path 21" d="M1018.527,180.837c-.11-3,.291-5.853,2.323-8.267a8.961,8.961,0,0,1,15.066,1.965,12.959,12.959,0,0,1,1.092,5.475c.019,1.2.013,2.392-.038,3.586a1.576,1.576,0,0,1-1.1,1.666,1.668,1.668,0,0,1-1.88-.692c-.8-.991-1.561-.952-2.432.052s-1.69,1-2.557-.025a1.424,1.424,0,0,0-2.444-.052c-.973,1.1-1.756,1.1-2.7,0a1.358,1.358,0,0,0-2.364.018,1.572,1.572,0,0,1-1.859.7,1.548,1.548,0,0,1-1.1-1.657C1018.536,182.682,1018.527,181.759,1018.527,180.837Zm13.722-1.262c-.328-.205-.511.051-.658.185-.663.6-1.263.8-1.907-.041a.588.588,0,0,0-1.025.021c-.621.778-1.231.83-1.849,0-.276-.372-.635-.453-.929-.073-.753.972-1.443.688-2.159-.03-.1-.1-.255-.246-.442-.1a2.839,2.839,0,0,0,1.4,1.84c.589.157.83-.394,1.148-.691.494-.463.774-.2,1.083.17.505.6,1.051.76,1.586.068s.975-.484,1.472.039c.213.225.467.665.834.383C1031.409,180.872,1032.246,180.542,1032.249,179.575Zm.117-4.693c-.107-.3.193-.831-.492-.867s-.66.469-.685.885c-.026.439.031.991.587,1C1032.361,175.912,1032.354,175.361,1032.367,174.882Zm-9.286.113c.141.3-.052.9.511.927.524.025.73-.442.729-.933,0-.463-.087-.978-.655-.981C1023.12,174.006,1023.149,174.538,1023.081,175Z" transform="translate(-1016.638 -167.235)" fill="#f1f6e5"/>
        <path id="Path_22" data-name="Path 22" d="M1161.321,222.825c-.013.479-.005,1.03-.589,1.02-.557-.01-.613-.563-.588-1,.024-.416.008-.92.685-.885S1161.213,222.528,1161.321,222.825Z" transform="translate(-1145.592 -215.178)" fill="#538e2b"/>
        <path id="Path_23" data-name="Path 23" d="M1069.575,222.882c.068-.457.04-.989.584-.987.568,0,.654.518.655.981,0,.491-.2.958-.729.933C1069.523,223.782,1069.716,223.18,1069.575,222.882Z" transform="translate(-1063.132 -215.122)" fill="#538e2b"/>
        <g id="Group_23" data-name="Group 23">
          <path id="Path_24" data-name="Path 24" d="M997.638,159.4a12.583,12.583,0,0,1,1.353-7.321,11.2,11.2,0,0,1,11.541-5.715,11.47,11.47,0,0,1,9.226,10.624c.07,1.944.06,3.893.015,5.838a3.351,3.351,0,0,1-4.765,3.186,2.925,2.925,0,0,0-2.623.045,3.042,3.042,0,0,1-2.768-.181,1.8,1.8,0,0,0-1.751-.063,3.447,3.447,0,0,1-3.609-.1c-.65-.4-1.174-.041-1.728.2a3.421,3.421,0,0,1-4.487-1.269,2.254,2.254,0,0,1-.4-1.341C997.634,162.077,997.638,160.848,997.638,159.4Zm1.829.407c0,.922.008,1.845,0,2.767a1.548,1.548,0,0,0,1.1,1.657,1.571,1.571,0,0,0,1.859-.7,1.358,1.358,0,0,1,2.365-.018c.947,1.1,1.73,1.1,2.7,0a1.424,1.424,0,0,1,2.444.052c.867,1.023,1.685,1.031,2.557.025s1.628-1.043,2.431-.052a1.669,1.669,0,0,0,1.88.692,1.575,1.575,0,0,0,1.1-1.666c.052-1.194.058-2.391.038-3.586a12.959,12.959,0,0,0-1.092-5.475,8.961,8.961,0,0,0-15.067-1.965C999.758,153.958,999.358,156.811,999.467,159.81Z" transform="translate(-997.578 -146.209)" fill="#438b6b"/>
          <path id="Path_25" data-name="Path 25" d="M1080.789,282.471c0,.967-.84,1.3-1.447,1.763-.367.282-.62-.158-.833-.383-.5-.523-.938-.73-1.472-.039s-1.08.536-1.586-.068c-.308-.369-.589-.632-1.083-.17-.318.3-.559.848-1.148.691a2.838,2.838,0,0,1-1.4-1.841c.187-.142.339,0,.442.1.716.718,1.406,1,2.159.03.294-.379.652-.3.929.073.618.833,1.228.781,1.849,0a.588.588,0,0,1,1.025-.021c.644.842,1.244.646,1.907.041C1080.278,282.522,1080.461,282.266,1080.789,282.471Z" transform="translate(-1065.177 -270.131)" fill="#438b6b"/>
          <path id="Path_26" data-name="Path 26" d="M1156.876,214.887c-.025.872-.01,1.875-1.073,1.855-1.013-.019-1.115-1.024-1.069-1.823.044-.756.014-1.674,1.246-1.61C1157.227,213.375,1156.68,214.347,1156.876,214.887Z" transform="translate(-1140.662 -207.302)" fill="#438b6b"/>
          <path id="Path_27" data-name="Path 27" d="M1064.13,215.247c.122-.817.071-1.766,1.044-1.762,1.015,0,1.168.926,1.17,1.752,0,.877-.365,1.711-1.3,1.667C1064.037,216.856,1064.382,215.78,1064.13,215.247Z" transform="translate(-1058.174 -207.465)" fill="#438b6b"/>
        </g>
      </g>
    </g>
  </g>
</svg>
