<svg xmlns="http://www.w3.org/2000/svg" width="9.369" height="9.369" viewBox="0 0 9.369 9.369">
  <path id="star_favorite_1499_copy_10" data-name="star_favorite [#1499] copy 10" d="M7.833,5.718a.907.907,0,0,0-.244.782l.3,1.834a.875.875,0,0,1-.836,1.035.819.819,0,0,1-.395-.1L5.079,8.4a.82.82,0,0,0-.789,0l-1.581.866a.819.819,0,0,1-.395.1.875.875,0,0,1-.836-1.035L1.78,6.5a.907.907,0,0,0-.244-.782L.257,4.419a.894.894,0,0,1,.47-1.507l1.768-.267a.85.85,0,0,0,.638-.483L3.924.492a.834.834,0,0,1,1.521,0l.791,1.669a.85.85,0,0,0,.638.483l1.768.267a.894.894,0,0,1,.47,1.507Z" fill="#f48145"/>
</svg>
